<svg xmlns="http://www.w3.org/2000/svg" version="1.1" xmlns:xlink="http://www.w3.org/1999/xlink" width="512" height="512" x="0" y="0" viewBox="0 0 48 48" style="enable-background:new 0 0 512 512" xml:space="preserve" class=""><g><path d="m6 6.2 5.8 1.2v7.8h.5c.5 6 5.6 10.7 11.7 10.7s11.2-4.7 11.7-10.7h.5V7.4l4.5-.9V16h2V5.2c0-.5-.3-.9-.8-1L24.2.5h-.4L6 4.2c-.5.1-.8.5-.8 1s.4.9.8 1zm18 17.6c-5 0-9.1-3.8-9.7-8.7h19.3c-.5 4.9-4.6 8.7-9.6 8.7zm10.2-10.7H13.8V7.8l10 2.1h.4l10-2.1zM24 2.6l12.7 2.6L24 7.8 11.3 5.2zM46 46.4c-1-8.3-6.5-15.3-14.4-18.2l-.4-.2-.4.2c-4.3 1.9-9.3 1.9-13.6 0l-.4-.2-.4.1C8.5 31.1 3 38 2 46.4l-.1 1.1h44.2zm-41.8-.9c1.2-6.8 6-12.7 12.6-15.2 4.6 1.9 9.9 1.9 14.5 0 6.5 2.5 11.3 8.4 12.6 15.2z" fill="#ee2737" opacity="1" data-original="#000000" class=""></path></g></svg>