<svg xmlns="http://www.w3.org/2000/svg" version="1.1" xmlns:xlink="http://www.w3.org/1999/xlink" width="512" height="512" x="0" y="0" viewBox="0 0 512 512" style="enable-background:new 0 0 512 512" xml:space="preserve" class=""><g><path d="m190.734 250.153-80.401 165.88M95.043 447.579l-20.628 42.56c-3.219 6.641 1.619 14.362 8.999 14.362h62.998a10 10 0 0 0 9.068-5.785l101.007-216.918" style="stroke-width:15;stroke-linecap:round;stroke-linejoin:round;stroke-miterlimit:10;" fill="none" stroke="#ee2737" stroke-width="15" stroke-linecap="round" stroke-linejoin="round" stroke-miterlimit="10" data-original="#000000" opacity="1" class=""></path><path d="m237.048 239.861 119.983 258.854a10 10 0 0 0 9.068 5.785h62.996c7.38 0 12.218-7.72 8.999-14.362l-116.32-239.986" style="stroke-width:15;stroke-linejoin:round;stroke-miterlimit:10;" fill="none" stroke="#ee2737" stroke-width="15" stroke-linejoin="round" stroke-miterlimit="10" data-original="#000000" opacity="1" class=""></path><path d="m256.254 202.656 29.701 57.535c2.706 5.243 9.34 7.015 14.3 3.82l78.025-50.25a10.001 10.001 0 0 0 3.852-12.167l-21.226-52.308a10 10 0 0 0-9.266-6.24H160.867a10 10 0 0 0-9.266 6.24l-21.226 52.308a10 10 0 0 0 3.852 12.167l78.025 50.251c4.96 3.195 11.594 1.423 14.3-3.82l29.702-57.536z" style="stroke-width:15;stroke-linecap:round;stroke-linejoin:round;stroke-miterlimit:10;" fill="none" stroke="#ee2737" stroke-width="15" stroke-linecap="round" stroke-linejoin="round" stroke-miterlimit="10" data-original="#000000" opacity="1" class=""></path><path d="m156.161 144.229 100.093 58.427 100.093-58.427" style="stroke-width:15;stroke-linejoin:round;stroke-miterlimit:10;" fill="none" stroke="#ee2737" stroke-width="15" stroke-linejoin="round" stroke-miterlimit="10" data-original="#000000" opacity="1" class=""></path><path d="M370.016 349.683c34.987-31.3 57.047-76.766 57.047-127.294 0-94.184-76.625-170.809-170.809-170.809-32.431 0-62.778 9.086-88.633 24.845M139.746 97.608c-33.39 31.196-54.301 75.59-54.301 124.782 0 50.528 22.061 95.994 57.047 127.294" style="stroke-width:15;stroke-linecap:round;stroke-linejoin:round;stroke-miterlimit:10;" fill="none" stroke="#ee2737" stroke-width="15" stroke-linecap="round" stroke-linejoin="round" stroke-miterlimit="10" data-original="#000000" opacity="1" class=""></path><path d="M207.868 386.207a170.29 170.29 0 0 0 48.386 6.991c16.878 0 33.188-2.473 48.598-7.054" style="stroke-width:15;stroke-linejoin:round;stroke-miterlimit:10;" fill="none" stroke="#ee2737" stroke-width="15" stroke-linejoin="round" stroke-miterlimit="10" data-original="#000000" opacity="1" class=""></path><path d="M389.884 390.673c45.943-36.531 76.573-91.476 80.751-153.673M470.174 202C459.903 92.885 368.056 7.5 256.254 7.5c-118.68 0-214.889 96.209-214.889 214.889 0 68.169 31.75 128.916 81.26 168.284" style="stroke-width:15;stroke-linecap:round;stroke-linejoin:round;stroke-miterlimit:10;" fill="none" stroke="#ee2737" stroke-width="15" stroke-linecap="round" stroke-linejoin="round" stroke-miterlimit="10" data-original="#000000" opacity="1" class=""></path><path d="M189.08 426.555c21.135 6.95 43.713 10.724 67.174 10.724 23.511 0 46.135-3.789 67.309-10.767" style="stroke-width:15;stroke-linejoin:round;stroke-miterlimit:10;" fill="none" stroke="#ee2737" stroke-width="15" stroke-linejoin="round" stroke-miterlimit="10" data-original="#000000" opacity="1" class=""></path></g></svg>