<svg xmlns="http://www.w3.org/2000/svg" version="1.1" xmlns:xlink="http://www.w3.org/1999/xlink" width="512" height="512" x="0" y="0" viewBox="0 0 500 500" style="enable-background:new 0 0 512 512" xml:space="preserve" class=""><g><path d="M438.49 424.388c-1.296-43.198.666-92.484-1.249-135.648-8.703-34.575-51.374-19.173-77.427-22.055 19.802-60.012-29.688-49.125-69.898-47.7-11.28-35.972-43.061-64.05-79.081-74.001 45.818-28.419 27.245-106.148-29.228-99.619.392.249 1.058.115 1.351.498-.337.52-1.259.615-.185.961-1.026.145-2.133.06-3.071.529 69.358 10.141 53.902 108.788-15.164 90.99-48.455-19.383-32.478-84.54 15.164-92.288-57.014-18.24-80.734 73.49-32.503 99.451C47.61 178.317 60.941 267.063 62.11 351.683c.735 14.481-3.44 32.942 11.042 42.016 4.452 2.951 9.857 4.201 15.161 3.907 28.111-.092 56.131-2.752 84.14-4.693.081 25.797-6.482 62.539 29.966 64.038 42.157.228 85.25-.043 127.391-.314 22.494-.372 44.994-.35 67.491-.587 21.641 2.595 42.283-7.216 41.189-31.662zM295.56 232.373c52.785 1.867 53.117-13.219 58.359 34.345-20.654.22-41.465.066-62.085.911 3.968-11.315 3.099-23.645 1.197-35.347l2.529.091zm-37.247 33.982c3.293-20.671-4.613-38.655 25.096-34.484 3.6 11.584 5.058 23.872 6.438 35.839-10.549.401-21.084.907-31.618 1.44.183-.915.249-1.867.084-2.795zm-40.187-103.753c25.972 10.602 48.601 30.905 60.447 56.461-32.912-1.742-31.983 26.572-24.374 50.286-15.606 1.194-32.274.99-47.448 2.926 1.03.249 2.718.081 3.531.431-1.078.658-3.042.676-.325.973-2.656.229-5.538.119-8.08.633 57.193 3.637 115.325 2.593 172.78 3.513 36.379 2.141 54.817-10.991 50.932 36.957-12.615 3.9-24.992 10.099-36.623 16.426-8.827 4.979-18.045 9.183-25.23 16.225-7.374-22.894-32.06-39.865-55.877-35.83.427.249 1.148.118 1.467.504-.383.532-1.354.604-.195.961-1.112.138-2.314.053-3.338.52 66.703 8.059 65.893 102.764-3.667 102.139-64.289-7.923-56.432-94.486 3.667-103.436-24.311-10.992-51.967 11.026-59.686 33.911-12.37-9.008-26.341-16.901-40.334-23.733-5.291-2.578-10.353-6.286-16.308-6.563-1.768-.872-3.723-1.086-5.482-1.891-.572-16.282-3.526-37.894 17.894-41-33.683-4.616-25.268 38.782-28.218 59.928-7.166-10.645-14.921-20.891-23.741-30.251 11.301-42.516 20.556-86.136 30.044-129.073 8.549 32.147 15.414 65.857 29.388 95.932.143-.473-.183-1.115.079-1.524.619.198.992 1.118.977-.095.482 1.033.662 2.225 1.395 3.111-4.119-38.629-15.674-76.985-23.279-115.331 10.109.869 20.206 3.036 29.604 6.89zm-48.422 226.26c-26.043-.392-52.124-1.089-78.198-1.858-8.227.956-17.664-3.02-17.93-12.366 2.746-88.355-21.413-201.249 96.922-218.886-11.895 48.722-23.787 98.253-34.464 147.29-1.438 5.891 5.403 8.693 8.679 12.386 9.794 8.289 18.274 18.067 28.646 25.655-.568 15.925-.602 32.003-.853 47.972a35.023 35.023 0 0 0-2.802-.193zm255.433-24.441c-.641 99.965 9.552 74.424-85.159 77.842-44.219-.13-96.53.82-140.873.013-7.636-1.361-13.361-8.79-12.714-16.537.139-33.2-1.884-66.292-2.03-99.506 9.698 7.531 21.291 12.165 32.431 17.011 8.916 3.654 17.258 9.898 26.986 11-16.824 97.157 136.442 99.602 122.317 1.95 12.675.12 23.233-9.366 33.862-15.299 8.354-5.522 17.423-10.08 25.504-15.994-.191 13.159-.22 26.353-.324 39.52zm-120.476-34.254c2.327-.117 4.825-.528 6.254 1.294-.021.157.533.161.499.25-.036.063.064.091.234.135-.208.142.706.145.612.399.045.145.267.218.358.331.377.304.057.836.186 1.139-.077.991.426 1.981.223 2.886-.246.13.135.259.044.389.585.986-.285 1.938-.712 2.865 2.146.548 4.076 1.623 6.348 1.686.477-.039.435.763.841.842 1.769.838 4.12 1.169 4.563 3.461-.547.271-.933.004-1.463.02.343.396-.242.551-.442.869.023.322.658.767.044.847-7.197-.068-14.468.91-21.475 2.391-6.965 2.162-9.062 7.813-.592 10.118 33.657-2.325 41.824 29.779 11.666 36.086.022.109.288.212.279.326-.16.138.198.313.125.493 4.138 6.896-5.974 8.371-10.768 6.88.009-.434-.582-.419-.679-.684-.124-.441-.389-.332-.837-.627.054-.079-.267-.185-.577-.269-.139-.251-.156-.296-.426-.491-.377-.314-.057-.854-.186-1.167.077-1.013-.426-2.027-.223-2.956.246-.133-.134-.266-.044-.399.055-.08-.007-.16-.044-.24-.543-.667.181-1.355.397-2.013-4.36-2.244-9.622-4.921-9.747-10.39 4.455-1.811 9.628.326 14.425-.606 3.365-.475 18.303-3.993 9.466-8.15-2.38-1.179-4.99-1.728-7.638-1.52-25.638.842-33.088-30.865-5.404-35.454-.029-.171-.015-.377-.055-.522-.629-1.468-2.4-3.933-1.115-5.649.572-2.153 3.965-2.106 5.863-2.57z" fill="#ee2737" opacity="1" data-original="#000000"></path></g></svg>