<svg xmlns="http://www.w3.org/2000/svg" version="1.1" xmlns:xlink="http://www.w3.org/1999/xlink" width="512" height="512" x="0" y="0" viewBox="0 0 100 100" style="enable-background:new 0 0 512 512" xml:space="preserve" class=""><g><path d="M41.88 20.43h16.45a1.79 1.79 0 0 0 1.73-1.74 1.81 1.81 0 0 0-1.73-1.84H41.88A1.84 1.84 0 0 0 40 18.69a1.82 1.82 0 0 0 1.84 1.74Zm46.28 38.2a10.45 10.45 0 0 0 5.21-8.89A10.27 10.27 0 1 0 78 58.53a12.16 12.16 0 0 0-6.9 10.93V74h-8.28a7.54 7.54 0 0 0-7.56 7.56 7.24 7.24 0 0 0 1.12 3.88H43.72a7.24 7.24 0 0 0 1.12-3.88A7.65 7.65 0 0 0 37.38 74H28.9v-4.5a11.8 11.8 0 0 0-6.84-10.83 10.45 10.45 0 0 0 5.21-8.89 10.26 10.26 0 0 0-10.22-10.35A10.23 10.23 0 0 0 12 58.63a11.89 11.89 0 0 0-7 10.83V95h90V69.46a11.81 11.81 0 0 0-6.84-10.83ZM83.15 43a6.72 6.72 0 0 1 6.64 6.74 6.69 6.69 0 0 1-13.38 0A6.74 6.74 0 0 1 83.15 43Zm-66.1 0a6.72 6.72 0 0 1 6.64 6.74 6.62 6.62 0 0 1-6.64 6.64 6.69 6.69 0 1 1 0-13.38ZM8.58 69.46A8.46 8.46 0 0 1 17.05 61a8.48 8.48 0 0 1 8.28 8.48v3.78l-2.15-4.39A1.76 1.76 0 0 0 20 70.38l3.47 7.15h13.91a3.94 3.94 0 0 1 0 7.87h-14.5a6.92 6.92 0 0 1-6.34-3.88l-1.73-3.58a1.76 1.76 0 0 0-3.17 1.53l1.74 3.58a10.34 10.34 0 0 0 6.94 5.62 4.25 4.25 0 0 0-.1 2.75H8.58Zm16.34 22a1.23 1.23 0 1 1 0-2.45h.41v2.45Zm4 0V89H71.1v2.45Zm45.77 0V89h.51a1.23 1.23 0 1 1 0 2.45Zm16.75 0H79.78a3.64 3.64 0 0 0-.1-2.75 10.34 10.34 0 0 0 6.94-5.62l1.74-3.58a1.76 1.76 0 0 0-3.17-1.53l-1.73 3.58a6.88 6.88 0 0 1-6.24 3.88h-14.4a3.94 3.94 0 1 1 0-7.87h13.79L80 70.38a1.76 1.76 0 0 0-3.16-1.53l-2.15 4.39v-3.78A8.46 8.46 0 0 1 83.15 61a8.35 8.35 0 0 1 8.27 8.48Zm-33.11-64.9H52a1.79 1.79 0 1 0 0 3.57h6.34a1.79 1.79 0 0 0 0-3.57Zm-16.45 3.57h2.65a1.79 1.79 0 0 0 0-3.57h-2.65a1.79 1.79 0 1 0 0 3.57ZM36 42.49l2.46-.1v6a3.41 3.41 0 0 0 1.94 3.06 4 4 0 0 0 1.53.31 3.15 3.15 0 0 0 1.94-.62l11.34-8.68h9a7.32 7.32 0 0 0 7.35-7.35V12.46A7.41 7.41 0 0 0 64.15 5H36a7.5 7.5 0 0 0-7.45 7.46v22.68A7.41 7.41 0 0 0 36 42.49Zm-3.88-30A3.88 3.88 0 0 1 36 8.58h28.2a3.86 3.86 0 0 1 3.78 3.88v22.68a3.84 3.84 0 0 1-3.78 3.78h-9a4 4 0 0 0-2.15.71L42 48v-5.61a3.42 3.42 0 0 0-3.37-3.47H36a3.86 3.86 0 0 1-3.88-3.78Z" fill="#ee2737" opacity="1" data-original="#000000"></path></g></svg>