<svg id="Layer_1" enable-background="new 0 0 68 68" height="512" viewBox="0 0 68 68" width="512" xmlns="http://www.w3.org/2000/svg"><g id="_x37_5"><path d="m14.7689524 27.9259033c.1450195.1362305.3300781.2041016.5146484.2041016.0210238 0 .2213602-.0443249.2418823-.0488892.1020536-.0348225.3175278-.0529003 1.0825815-.4182129.144043-.7032471.2940674-1.4320068.4428711-2.1557007.355957.0471802.9196167-.0002441 1.1303711.0189209.9614258.1057739 1.9133301.3461304 2.8074341.7018433 1.9774132.7811985 2.3049374.8132915 4.5786743 2.9135132 1.4150391 1.3070679 2.6617432 2.8021851 3.6630249 4.447937.8590698 1.4121704 1.8141479 2.7885742 2.545105 4.2751465.1931705.7012978.9937763.5637817 1.7546368.5637817 1.8979492 0 3.7026367-.0932617 5.4873047-.2832031.288147-.0305176.5231323-.2218628.6212158-.4786377 1.1520996-1.7483597 2.1511459-4.2787552 4.1011963-6.3554077 1.4286766-1.5214596 2.2313347-3.0496006 5.9845581-4.9376831 1.2428589-.62146 2.795166-1.0340576 4.182251-1.1783447.1508179-.0167847.6271973-.0134888 1-.0299683.0987549.5505371.2062378 1.1123047.2434082 1.5830688.2230835.1895752.5136108.4025879.815918.5757446.0708618.0922241.1618652.1608276.265564.2115479.292614.2993221.7556763.2998314 1.048584.0237427 1.9101563-1.7993164 3.9545898-3.9135742 6.2509766-6.4633789.2892151-.3207836.2481651-.8191776-.0893555-1.0883789-2.3849487-1.9021626-5.3350792-3.7891922-7.8686523-5.5874023-.3374023-.2392578-.8051758-.1601563-1.0458984.1777344-.0210571.0296631-.0263062.064209-.0424805.0956421-.2647705.3013916-.5292969.6791992-.7946167.8687134.0491943.5473022.0880127 1.0894165.1305542 1.6333618-5.6252441.6412354-10.6517334 2.8861694-14.192688 6.3408203l-.1184084-10.0731202c1.0357056-.0615845 2.0654297-.1171265 3.0539551-.3057861.7718353-.1472425.7045021-.9987383.8236084-1.3017578.1381226-.1422119.2221069-.3359985.2138062-.5498657-.0010376-.0270386-.0140381-.0492554-.0177612-.0753784.0206337-.3947687-.0501747-.3845024-1.5696411-2.2693481-5.8309441-7.2330346-5.1095467-7.2830334-5.8398438-7.3339844-.2333984-.0175781-.456543.0751953-.6113281.2480469-2.8308525 3.1636949-5.628767 6.0510244-8.1347637 9.2265625-.2740231.3477964-.1949806.8709898.2106934 1.1089478.0590839.1000032.1144142.7623625.8126221.8302002.7496338.0727539 1.5044556.0425415 2.2577515.0509644.0126438.2340021.5396156 9.9866982.5258179 9.7313232-3.5028687-2.9143677-8.1969604-4.7758179-13.3133545-5.3101807.0623779-.6175537.166748-1.3071289.2144775-1.8995361-.0993614-.1002035-.7006416-.7476463-.6079102-.6474609-.2392578-.3378906-.7075195-.4179688-1.0454102-.1782227-2.5140514 1.7824478-5.4790783 3.677927-7.8710947 5.5839844-.3398542.2710629-.3775072.7692566-.090332 1.0878906 2.2978515 2.5537108 4.3417968 4.6684569 6.2480468 6.4663084zm40.5063467-9.3759765c.4042969-.0268555.7143555-.3706055.699707-.7753906l-.0458984-1.2758179c2.0101738 1.3888664 4.1274834 2.7947369 5.9477539 4.1898804-1.7164307 1.8868408-3.2834473 3.5100708-4.7642212 4.9484253-.1215591-.789175-.2467918-1.6554604-.3290405-2.1505737-.0620117-.3730469-.3969727-.644043-.7700195-.6259766-4.9873772.2041092-9.8756065 2.7713413-12.6069336 5.9594727-1.2964249 1.4723568-2.7047997 3.0041046-3.7307739 4.6859131l-.0250854-7.8062744c3.5502928-4.1172487 9.2218626-6.7240602 15.6245116-7.1496583zm-19.2358399-14.9619141c1.8114548 2.6271353 3.3998032 4.566946 5.3989868 7.0530396l-2.7315063.1085815c-.4057617.0161133-.7250977.3525391-.7202148.7583008l.1630859 13.8955078.0366211 11.3168945c-1.6030273.1472168-3.2467041.2022705-4.9559937.1930542-.0394821-4.5759735-.0584526-14.4672985-.4932251-25.3839722-.0097656-.4072266-.3427734-.7324219-.7499981-.7324219l-2.3930664.012207c1.9915676-2.401246 4.128294-4.6592859 6.4453106-7.2211913zm-19.9140606 13.2781372-.0493164 1.2662964c-.015625.4057617.2939453.75.6987305.7773438 5.3371849.3634224 10.7182255 2.288969 14.5739136 6.0265503l.321228 5.9431763.0311279 3.1453247c-1.2092896-2.2306519-2.8711548-4.7191162-3.9829102-5.7908325-2.9517155-2.8241901-7.2371159-4.8279705-11.6801758-5.0053711-.3623056-.0024414-.7021494.25-.7675791.6186523-.0855103.4822388-.2165527 1.368103-.3306274 2.1582642-1.4795532-1.4378052-3.0463257-3.0623779-4.7640991-4.9522095 1.8293744-1.4011555 3.9323931-2.7945004 5.949708-4.1871949z"/><path d="m4.4256907 55.5518799c-.0458984 2.5195313-.0888672 4.8999023.1245117 6.7758789.046875.4116211.4179688.7109375.8300781.6601563.4111328-.046875.7070313-.418457.6601563-.8300781-.4184861-3.6804543.2120299-9.6703644-.2592773-14.9707031-.0244141-.2758789-.0336914-.3789063 1.4882813-.6401367 1.2075529-.2080498 2.1624937-.4677238 4.6430664-.6123047.8305664-.0390625 1.5595703.46875 1.7211914 1.2026367 1.1660156 5.2910156 1.0957031 10.8339844-.203125 16.0297852-.0615234.2451172-.2431641.371582-.355957.371582-.1035824 0-7.0823989-.1651192-7.1865234-.168457-.4101563-.0009766-.7602539.3115234-.7734375.7255859s.3115234.7602539.7255859.7734375c.1505127.0048828.3084717.0057373.460083.0099487.5340171.4332275 1.0706139 1.359108 2.2924805 1.4310913 1.9689941.1159668 3.8536377.0470581 5.8198853.0153809.6525879-.010498 1.196228-.4609985 1.2625732-1.0700684.1535645-1.409729.2924805-2.8547363.4513559-4.2514648 14.2755718 7.1580658 29.6302128 4.2688217 39.7592773-6.3880615.7990723-.8407593 1.5759277-1.7479858 2.0339355-2.8934937.276001-.6903687.5155029-1.7332764.3556519-2.5995483.6865959-1.9346771-.6762428-3.3076134-2.4494019-3.012085-1.3807678.2288628-3.446888 1.5429459-4.6147461 2.2783203-4.0114632 2.5240211-3.4981613 2.007328-12.8525391 4.5263672-1.4516602.390625-3.144043.5244141-4.637207.6420898-.1000023.0013123-1.0715485.1217308-2.649229-.1050415 1.8770733-1.1651001 3.4196758-2.5498657 4.6848736-3.8036499.2017174-.1955261 1.0299759-1.0150604 1.0761719-1.0800781.1544685-.1213646 1.5042572-1.5786057 2.8183594-2.8251953 2.4394531-2.3271484 1.737793-4.1044922 1.1020508-4.956543-.7241211-.9716797-1.9599609-1.4199219-3.3193359-1.2055664-3.6399078.5849075-5.2099266 4.3037796-12.8593731 5.918457-1.7234478.3632965-3.2308502.6779861-4.8930664 1.3330078-1.3960438.5572624-2.8598251 1.1886063-4.2924814 1.5118408-.0900269-.5113525-.1791992-1.0230103-.2910156-1.5303955-.3178711-1.4453125-1.7294922-2.4765625-3.2729492-2.3769531-1.512207.0874023-2.8525391.2490234-3.9848633.4799805-1.7387938.353653-3.7312436.4010658-3.5537109 2.4023438.2387673 2.6879882.1879861 5.5063475.1386697 8.2319335zm35.4047231-13.2301636c-.5219116.4995728-1.4586182 1.194519-1.949646 1.3893433-.2675781.1064453-.7094727.1186523-.8583984-.1870117-.1137695-.2333984-.0761719-.6313477.0913086-.9677734.1835938-.3701172.9481812-1.2098999 1.3157349-1.4874268.467041.0708618.8674927.2734985 1.1222534.6148682.1497192.2008666.2422485.4136962.2787475.6380004zm-19.5980816 5.9069214c4.1575298-1.6391029 7.6245327-.9677162 13.6220684-5.1835938.6554565-.4607544 1.3227539-.9266968 1.9969482-1.2972412-1.0915909 1.8757973.1603165 3.9231796 2.1941528 3.4713745-.4143333.4065704-2.193264 2.1974754-2.2487183 2.2770386-.0292969.0229492-.0571289.0478516-.0834961.074707-4.3596859 4.5054321-6.1374779 4.9222794-6.6125469 5.3428345-.1809692-.0942993-.3372803-.1951904-.4348145-.3091431-.2685547-.3134766-.7416992-.3510742-1.0576172-.0820313-.3144531.2695313-.3515625.7426758-.0820313 1.0576172 1.3115234 1.5317383 5.2275372 1.5576172 6.2050762 1.4814453 4.209095-.4812279 2.0372887.0643349 7.8764648-1.4477539 1.8891602-.4892578 3.8422852-.9951172 5.7548828-1.5698242 3.1780853-.954277 6.6447678-4.1100044 8.7084961-4.4536133.2729492-.0439453.612793.0273438.6899414.0961914 1.0070496.9901505-1.9105606 3.5371628-2.8203125 4.4101563-2.4806061 2.2319794-4.7816772 4.1175232-8.784668 6.0957031-10.0017128 4.8714142-18.4623451 2.8279762-29.1868896.0135498-.0527344-.0444946-.1148682-.0730591-.1787109-.0997925.2528086-2.7470703.1946411-5.5281982-.1739502-8.2763672 1.5938838-.3444442 3.1013854-.9972991 4.6157248-1.6012572z"/><path d="m12.7875071 49.0313721c.0374222-.7191811-.4641666-1.5994377-1.1450195-1.5097656-1.4219093-.6701393-2.7014503.8506126-2.0981445 2.1010742.6884526 1.4341392 3.1464728 1.2475547 3.243164-.5913086z"/></g></svg>