<svg xmlns="http://www.w3.org/2000/svg" version="1.1" xmlns:xlink="http://www.w3.org/1999/xlink" width="512" height="512" x="0" y="0" viewBox="0 0 50 50" style="enable-background:new 0 0 512 512" xml:space="preserve" class=""><g><path d="M11.658 38.373c3.367 0 6.08-4.207 6.08-7.691 0-3.41-2.728-6.182-6.08-6.182S5.58 27.273 5.58 30.682c0 3.484 2.712 7.691 6.08 7.691zm0-11.873c2.25 0 4.08 1.876 4.08 4.182 0 2.485-1.98 5.691-4.08 5.691S7.58 33.167 7.58 30.682c0-2.306 1.83-4.182 4.08-4.182zM2 49h19.317a1 1 0 0 0 1-1c0-.436-.035-.89-.104-1.346-.64-4.34-4.441-7.612-8.843-7.612H9.946c-4.401 0-8.203 3.272-8.841 7.608-.07.456-.105.91-.105 1.35a1 1 0 0 0 1 1zm1.082-2.054c.496-3.366 3.447-5.905 6.864-5.905h3.424c3.417 0 6.368 2.54 6.865 5.91l.007.049H3.074l.008-.054zM32.262 30.682c0 3.484 2.712 7.691 6.079 7.691s6.079-4.207 6.079-7.691c0-3.41-2.728-6.182-6.08-6.182s-6.078 2.773-6.078 6.182zM38.34 26.5c2.249 0 4.079 1.876 4.079 4.182 0 2.485-1.979 5.691-4.08 5.691s-4.078-3.206-4.078-5.691c0-2.306 1.83-4.182 4.079-4.182zM36.63 39.041c-4.403 0-8.204 3.273-8.842 7.607-.07.454-.105.91-.105 1.352a1 1 0 0 0 1 1H48a1 1 0 0 0 1-1c0-.443-.035-.898-.104-1.346-.64-4.34-4.442-7.612-8.842-7.612H36.63zm10.288 7.912.007.047H29.758l.008-.054c.495-3.366 3.446-5.904 6.864-5.904h3.424c3.416 0 6.367 2.538 6.864 5.91zM11.802 14.79h.475v3.113a1 1 0 0 0 1.628.778l4.825-3.891h.399v3.527a2.351 2.351 0 0 0 2.346 2.352h6.997l4.823 3.893a1 1 0 0 0 1.628-.777v-3.116h.474a2.35 2.35 0 0 0 2.344-2.352V9.231a2.351 2.351 0 0 0-2.344-2.352h-7.322V3.351A2.352 2.352 0 0 0 25.728 1H11.802A2.348 2.348 0 0 0 9.46 3.351v9.087a2.348 2.348 0 0 0 2.34 2.352zm23.94-5.559v9.086a.348.348 0 0 1-.345.352h-1.474a1 1 0 0 0-1 1v2.023l-3.47-2.8a.997.997 0 0 0-.628-.223h-7.35a.35.35 0 0 1-.346-.352V13.8l.002-.01-.002-.01V9.232a.35.35 0 0 1 .346-.352h13.922c.19 0 .344.158.344.352zM11.46 3.351c0-.193.153-.351.34-.351h13.927a.35.35 0 0 1 .347.351V6.88h-4.6a2.352 2.352 0 0 0-2.346 2.352v3.559h-.753a1 1 0 0 0-.628.221l-3.47 2.8V13.79a1 1 0 0 0-1-1h-1.476a.347.347 0 0 1-.341-.352z" fill="#ee2737" opacity="1" data-original="#000000"></path><path d="M31.948 14.822h1.319a1 1 0 1 0 0-2h-1.319a1 1 0 1 0 0 2zM26.776 13.822a1 1 0 0 0 1 1h1.319a1 1 0 1 0 0-2h-1.319a1 1 0 0 0-1 1zM24.922 12.822h-1.318a1 1 0 1 0 0 2h1.318a1 1 0 1 0 0-2z" fill="#ee2737" opacity="1" data-original="#000000"></path></g></svg>