<svg xmlns="http://www.w3.org/2000/svg" version="1.1" xmlns:xlink="http://www.w3.org/1999/xlink" width="512" height="512" x="0" y="0" viewBox="0 0 512 512" style="enable-background:new 0 0 512 512" xml:space="preserve" class=""><g><path d="M491 15H259.04c-3.31 0-6 2.69-6 6v150.24c0 3.31 2.69 6 6 6h20.15v50.64c0 2.23 1.24 4.28 3.21 5.31a5.999 5.999 0 0 0 6.2-.37l80.44-55.58H491c3.31 0 6-2.69 6-6V21c0-3.31-2.69-6-6-6zm-6 150.24H367.17c-1.22 0-2.41.37-3.41 1.06l-72.57 50.14v-45.21c0-3.31-2.69-6-6-6h-20.15V27H485zM300.04 71.76c0-3.31 2.69-6 6-6H444c3.31 0 6 2.69 6 6s-2.69 6-6 6H306.04c-3.31 0-6-2.68-6-6zm0 48.72c0-3.31 2.69-6 6-6h74.69c3.31 0 6 2.69 6 6s-2.69 6-6 6h-74.69c-3.31 0-6-2.69-6-6zm196.95 266.53c0-.92-.2-1.84-.63-2.69l-35-69.55a5.987 5.987 0 0 0-5.36-3.3h-62.14c-2.53-7.65-9.73-13.19-18.22-13.19s-15.69 5.54-18.22 13.19h-62.14c-2.27 0-4.34 1.28-5.36 3.3l-6.72 13.35c-17.6-31.81-49.1-53.22-84.9-57.86 18.17-13.29 29.67-34.77 29.67-57.98v-26.05c0-39.56-32.18-71.74-71.74-71.74s-71.74 32.18-71.74 71.74v26.05c0 23.21 11.49 44.67 29.65 57.97C58.29 277.47 15 325.34 15 383.14v82.7C15 483.02 28.98 497 46.16 497H266.3c17.18 0 31.16-13.98 31.16-31.16v-37.89c21.5-1.13 38.66-18.91 38.81-40.66v-.07c0-.07.01-.14.01-.21h-.01c0-.92-.2-1.85-.63-2.7l-30.62-60.86h52.41c1.9 5.76 6.46 10.31 12.22 12.22V461.6h-16.48c-9.76 0-17.7 7.94-17.7 17.7V491c0 3.31 2.69 6 6 6h68.35c3.31 0 6-2.69 6-6v-11.7c0-9.76-7.94-17.7-17.7-17.7h-16.48V335.68c5.76-1.9 10.31-6.46 12.22-12.22h52.41l-30.62 60.86c-.43.85-.63 1.77-.63 2.7H415c0 .07.01.14.01.21v.07c.15 22.48 18.48 40.72 40.99 40.72s40.84-18.24 40.99-40.71v-.07c0-.09.01-.16 0-.23zm-93.18 92.29v5.7h-56.35v-5.7c0-3.14 2.56-5.7 5.7-5.7h44.95c3.15 0 5.7 2.56 5.7 5.7zM145.83 310.59h20.79l11.21 126.31-21.61 20.49-21.61-20.49zm23.01-12h-25.21l-11.1-17.31h47.41zm-72.35-86.32v-26.05c0-32.94 26.8-59.74 59.74-59.74s59.74 26.8 59.74 59.74v26.05c0 25.92-17.22 49.24-41.98 57.02h-35.52c-24.75-7.78-41.98-31.1-41.98-57.02zM266.3 485h-24.96v-83.32c0-3.31-2.69-6-6-6s-6 2.69-6 6V485H83.12v-83.32c0-3.31-2.69-6-6-6s-6 2.69-6 6V485H46.16C35.59 485 27 476.41 27 465.84v-82.7c0-52.7 40.24-96.19 91.6-101.35l15.58 24.31-11.77 132.63c-.16 1.82.52 3.62 1.85 4.88l27.84 26.4c1.16 1.1 2.64 1.65 4.13 1.65s2.97-.55 4.13-1.65l27.84-26.4a6.002 6.002 0 0 0 1.85-4.88L178.28 306.1l15.57-24.29c35.99 3.62 67.5 26.16 82.63 59.66l-21.56 42.84c-.43.85-.63 1.77-.63 2.69h-.01c0 .07.01.14.01.21v.07c.13 19.1 13.38 35.13 31.18 39.52v39.03c-.01 10.58-8.6 19.17-19.17 19.17zm28.98-68.99c-13.93 0-25.6-9.88-28.37-23h56.74c-2.77 13.12-14.44 23-28.37 23zm-25.27-35 25.26-50.21 25.26 50.21zm105.63-56.36c-3.97 0-7.19-3.23-7.19-7.19s3.23-7.19 7.19-7.19 7.19 3.23 7.19 7.19-3.23 7.19-7.19 7.19zm80.36 6.16 25.26 50.21h-50.53zm0 85.2c-13.93 0-25.6-9.88-28.37-23h56.74c-2.77 13.12-14.44 23-28.37 23z" fill="#ee2737" opacity="1" data-original="#000000" class=""></path></g></svg>