<svg id="Layer_1" enable-background="new 0 0 512 512" height="512" viewBox="0 0 512 512" width="512" xmlns="http://www.w3.org/2000/svg"><path d="m439.2 313.588c-8.774.33-16.879 4.063-22.82 10.497l-51.105 55.145c-6.078-10.407-17.365-17.414-30.262-17.414h-58.268c-6.156 0-11.287-1.676-16.156-5.278l-18.65-13.755c-6.98-5.266-14.654-7.823-23.469-7.823h-64.623c-7.015 0-12.785 1.437-18.072 4.481l-12.514 6.922c-1.263-13.309-12.498-23.755-26.13-23.755h-52.04c-3.379 0-6.113 2.733-6.113 6.115v153.715c0 3.382 2.734 6.115 6.113 6.115h52.04c14.472 0 26.249-11.775 26.255-26.247 11.54 5.336 24.771 12.598 32.74 19.161 7.346 6.221 15.581 9.24 25.174 9.24h152.639c11.228 0 21.231-4.361 28.939-12.621l101.57-109.488c5.92-6.417 9.004-14.77 8.678-23.51-.327-8.771-4.044-16.856-10.44-22.756-6.395-5.967-14.741-8.998-23.486-8.744zm-342.069 162.736h-45.927v-141.488h45.927c7.733 0 14.026 6.293 14.026 14.031v104.145.01 9.271c0 7.741-6.293 14.031-14.026 14.031zm358.341-116.031-101.549 109.461c-5.395 5.79-12.121 8.728-19.984 8.728h-152.639c-6.668 0-12.158-2.02-17.334-6.402-10.152-8.362-26.998-17.302-40.58-23.181v-88.636l18.398-10.176c3.536-2.028 7.146-2.901 12.063-2.901h64.623c6.143 0 11.258 1.706 16.156 5.4l18.697 13.786c6.973 5.165 14.635 7.672 23.422 7.672h58.268c10.715 0 19.729 7.436 22.145 17.417.04.24.095.477.163.712.313 1.506.479 3.061.479 4.657 0 12.561-10.222 22.781-22.786 22.781h-74.457c-3.376 0-6.117 2.73-6.117 6.113 0 3.379 2.741 6.111 6.117 6.111h74.457c19.307 0 35.013-15.705 35.013-35.006 0-1.5-.092-2.982-.276-4.433l55.611-60.01c3.727-4.033 8.799-6.373 14.303-6.578 5.434-.191 10.68 1.734 14.708 5.486 4.007 3.7 6.323 8.756 6.532 14.244.203 5.496-1.73 10.74-5.433 14.755zm-107.151-166.342c-11.368 0-20.619 9.307-20.619 20.745 0 11.371 9.251 20.621 20.619 20.621 11.377 0 20.63-9.25 20.63-20.621 0-11.438-9.253-20.745-20.63-20.745zm0 29.137c-4.627 0-8.389-3.769-8.389-8.392 0-4.693 3.762-8.516 8.389-8.516 4.633 0 8.396 3.822 8.396 8.516 0 4.623-3.763 8.392-8.396 8.392zm133.458-65.227h-74.581v-28.414c0-9.78-5.318-18.316-13.19-22.949v-19.859c0-14.677-11.942-26.62-26.617-26.62h-157.781l-7.678-7.68c-1.148-1.148-2.707-1.793-4.324-1.793h-22.305v-8.153c0-11.634-9.461-21.1-21.102-21.1h-126.856c-11.635 0-21.104 9.466-21.104 21.1v84.772c0 11.703 9.469 21.224 21.104 21.224h77.457v110.91c0 14.678 11.994 26.615 26.738 26.615h174.973c1.317 11.986 11.495 21.343 23.821 21.343h9.241v16.547c0 2.559 1.584 4.845 3.979 5.734.693.255 1.418.379 2.131.379 1.743 0 3.446-.745 4.632-2.117l17.718-20.543h113.744c13.218 0 23.979-10.755 23.979-23.979v-101.312c.001-13.295-10.761-24.105-23.979-24.105zm11.748 24.105v65.794l-64.835-43.191c-2.053-1.364-4.715-1.37-6.766-.012l-103.338 68.42v-91.011c0-6.55 5.271-11.873 11.745-11.873h151.445c6.477 0 11.749 5.323 11.749 11.873zm-126.136-109.717c7.931 0 14.386 6.45 14.386 14.39v16.245c-.4-.018-.792-.061-1.196-.061h-128.166l-30.57-30.574zm-348.921 54.916v-84.772c0-4.809 4.067-8.871 8.875-8.871h126.857c4.889 0 8.871 3.982 8.871 8.871v84.772c0 4.958-3.982 8.993-8.871 8.993h-12.832c-3.375 0-6.111 2.739-6.111 6.118v2.553l-5.693-6.562c-1.156-1.336-2.846-2.109-4.619-2.109h-97.602c-4.808 0-8.875-4.12-8.875-8.993zm98.562 132.134v-110.91h5.123l14.598 16.836c1.184 1.364 2.883 2.105 4.621 2.105.717 0 1.439-.123 2.139-.383 2.392-.892 3.975-3.177 3.975-5.73v-12.828h6.715c11.641 0 21.102-9.521 21.102-21.224v-64.388h19.771l7.679 7.68 42.806 42.808c1.145 1.144 2.703 1.788 4.327 1.788h130.692c7.935 0 14.387 6.457 14.387 14.395v28.414h-64.633c-13.216 0-23.976 10.81-23.976 24.104v91.72h-174.818c-7.998 0-14.508-6.457-14.508-14.387zm364.747 35.731h-116.546c-1.779 0-3.47.773-4.635 2.119l-8.798 10.204v-6.208c0-3.382-2.736-6.115-6.115-6.115h-15.352c-5.103 0-9.418-3.298-11.035-7.864l3.132-2.068c.256-.146.496-.303.719-.476l102.143-67.622 68.235 45.45v20.827c0 6.484-5.272 11.753-11.748 11.753zm-354.917-210.179c.004-2.182-1.156-4.208-3.047-5.3l-9.251-5.345c-.414-.311-.857-.584-1.345-.78l-49.367-28.538c-1.899-1.091-4.221-1.085-6.113.008-1.89 1.092-3.056 3.108-3.056 5.292v69.188c0 2.181 1.166 4.196 3.056 5.29.946.548 2.002.823 3.058.823 1.059 0 2.105-.275 3.056-.819l59.952-34.531c1.889-1.088 3.057-3.104 3.057-5.288zm-59.947-24.082 37.887 21.9v4.302l-37.887 21.819z"/></svg>