<svg xmlns="http://www.w3.org/2000/svg" version="1.1" xmlns:xlink="http://www.w3.org/1999/xlink" width="512" height="512" x="0" y="0" viewBox="0 0 512 512" style="enable-background:new 0 0 512 512" xml:space="preserve" class=""><g><path d="m379.19 354.41-15.18-4.93c-2.47-9.1-6.12-17.9-10.87-26.19l7.25-14.24a14.326 14.326 0 0 0-2.63-16.7l-15.27-15.25c-4.42-4.42-11.12-5.49-16.66-2.66l-14.26 7.28a110.86 110.86 0 0 0-26.2-10.87l-4.93-15.16c-1.9-5.96-7.39-9.96-13.65-9.96h-21.6c-6.27 0-11.75 4-13.64 9.92l-4.95 15.21c-9.18 2.49-18 6.15-26.19 10.86l-14.26-7.29a14.35 14.35 0 0 0-16.66 2.67l-15.25 15.25c-4.43 4.43-5.5 11.14-2.66 16.69l7.27 14.22c-4.72 8.23-8.37 17.04-10.85 26.2l-15.25 4.96a14.36 14.36 0 0 0-9.88 13.66v21.57c0 6.22 3.97 11.71 9.93 13.67l15.19 4.91c2.48 9.13 6.12 17.93 10.85 26.22l-7.26 14.23c-2.84 5.55-1.77 12.26 2.65 16.69l15.25 15.25c4.4 4.4 11.09 5.46 16.68 2.63L200.4 476c8.23 4.73 17.03 8.38 26.2 10.86l4.92 15.12a14.265 14.265 0 0 0 13.66 10.01h21.6c6.28 0 11.77-4.02 13.64-9.94l4.94-15.18c9.16-2.49 17.96-6.14 26.2-10.87l14.25 7.25a14.307 14.307 0 0 0 16.66-2.62l15.28-15.26a14.319 14.319 0 0 0 2.64-16.67l-7.26-14.27c4.75-8.31 8.4-17.12 10.87-26.21l15.21-4.92a14.36 14.36 0 0 0 9.88-13.66v-21.57c.02-6.21-3.95-11.7-9.9-13.66zm-6.07 34.07-14.9 4.82-.1.03c-4.68 1.58-8.08 5.22-9.34 9.99-2.18 8.27-5.51 16.29-9.87 23.81-2.54 4.32-2.68 9.35-.41 13.77l7.12 14.01-13.59 13.56-13.96-7.1c-4.46-2.29-9.49-2.15-13.79.38a95.015 95.015 0 0 1-23.82 9.88c-4.78 1.26-8.43 4.68-10.02 9.45L265.58 496H246.4l-4.85-14.88c-1.52-4.76-5.17-8.22-10.01-9.49a94.748 94.748 0 0 1-23.83-9.87c-4.32-2.54-9.35-2.68-13.78-.4l-13.98 7.12-13.59-13.59 7.17-14.04c2.22-4.45 2.06-9.45-.44-13.69a96.594 96.594 0 0 1-9.87-23.84c-1.26-4.78-4.68-8.43-9.47-10.02l-14.9-4.82v-19.23l14.88-4.84c4.76-1.52 8.22-5.17 9.49-10.01a95.359 95.359 0 0 1 9.84-23.8c2.5-4.25 2.68-9.25.48-13.71-.02-.03-.03-.07-.05-.1l-7.13-13.95 13.61-13.61L194 296.4c4.4 2.2 9.38 2.06 13.71-.42a94.848 94.848 0 0 1 23.85-9.88c4.83-1.27 8.48-4.73 9.99-9.45l4.85-14.92h19.21l4.87 14.97c1.57 4.71 5.22 8.14 10 9.4 8.35 2.2 16.37 5.52 23.88 9.92 4.27 2.45 9.24 2.59 13.71.36l13.97-7.13 13.61 13.58-7.13 13.99c-2.27 4.47-2.12 9.5.4 13.77a95.475 95.475 0 0 1 9.89 23.83c1.27 4.84 4.72 8.48 9.43 9.99l14.92 4.85v19.22zM256 300.73c-43.08 0-78.12 35.05-78.12 78.12 0 21.61 8.81 41.19 23.03 55.35.34.4.73.77 1.15 1.1C216.1 448.73 235.1 457 256 457c20.91 0 39.91-8.28 53.95-21.71.42-.33.8-.69 1.15-1.09 14.22-14.16 23.03-33.75 23.03-55.35-.01-43.07-35.06-78.12-78.13-78.12zm0 140.29c-15.38 0-29.45-5.63-40.32-14.92 2.7-10.19 10.39-18.51 20.4-22a40.035 40.035 0 0 0 19.92 5.29c7.25 0 14.05-1.93 19.93-5.29 10 3.49 17.69 11.82 20.39 22.01-10.87 9.28-24.95 14.91-40.32 14.91zm-24.32-71.95c0-13.41 10.91-24.32 24.32-24.32s24.32 10.91 24.32 24.32-10.91 24.32-24.32 24.32-24.32-10.91-24.32-24.32zm76.48 43.49a48.472 48.472 0 0 0-19.34-20.13 40.035 40.035 0 0 0 7.49-23.36c0-22.23-18.08-40.31-40.31-40.31s-40.31 18.08-40.31 40.31c0 8.7 2.78 16.77 7.49 23.36a48.434 48.434 0 0 0-19.35 20.13 61.773 61.773 0 0 1-9.97-33.71c0-34.26 27.87-62.14 62.14-62.14 34.26 0 62.14 27.87 62.14 62.14a61.864 61.864 0 0 1-9.98 33.71zm146.9-221.09-39.73-39.75c-5.15-5.08-13.5-5.07-18.61.04l-39.71 39.71c-3.74 3.74-4.88 9.35-2.9 14.29.02.04.03.08.05.13 2.07 4.92 6.85 8.1 12.19 8.1h15.34V331.4c0 6.77 5.52 12.27 12.3 12.27h24.12c6.77 0 12.27-5.51 12.27-12.27V213.99h15.36c5.32 0 10.09-3.18 12.18-8.14 2.07-4.99.93-10.66-2.86-14.38zM427.61 198c-7.28 0-13.21 5.91-13.21 13.18v116.5h-16.72v-116.5c0-7.27-5.91-13.18-13.18-13.18h-11.4l32.96-32.96L438.98 198zM248 36.77V8c0-4.42 3.58-8 8-8s7.99 3.58 7.99 7.99v28.77c0 4.41-3.58 7.99-7.99 7.99s-8-3.57-8-7.98zm87.85 71.86h28.77c4.42 0 7.99 3.58 7.99 7.99s-3.58 7.99-7.99 7.99h-28.77c-4.41 0-7.99-3.58-7.99-7.99s3.57-7.99 7.99-7.99zm-29.04-42.82a7.991 7.991 0 0 1 0-11.3l20.35-20.35a7.991 7.991 0 0 1 11.3 11.3l-20.35 20.35c-1.56 1.56-3.61 2.34-5.65 2.34s-4.09-.78-5.65-2.34zM130.31 331.4V213.99h15.34c5.34 0 10.12-3.18 12.2-8.14 2.07-5 .92-10.66-2.87-14.38l-39.71-39.71c-5.1-5.1-13.45-5.12-18.65 0l-39.63 39.66c-3.84 3.77-4.99 9.44-2.9 14.47 2.07 4.92 6.84 8.1 12.16 8.1h15.36V331.4c0 6.77 5.51 12.27 12.27 12.27h24.15c6.77.01 12.28-5.5 12.28-12.27zm-15.99-120.22v116.5H97.6v-116.5c0-7.27-5.91-13.18-13.18-13.18h-11.4l32.93-32.96L138.9 198h-11.4c-7.27 0-13.18 5.92-13.18 13.18zm59.21-165.73a7.991 7.991 0 0 1 11.3-11.3l20.35 20.35a7.991 7.991 0 0 1-11.3 11.3zm38.77 115.57c1.42 1.58 2.88 3.22 4.32 4.91 2.03 2.37 3.55 4.87 4.61 7.53-5.98 3.02-10.11 9.2-10.11 16.35 0 7.83 4.96 14.5 11.91 17.11v4.47c0 10.61 8.63 19.25 19.25 19.25h27.44c10.61 0 19.25-8.63 19.25-19.25v-4.47c6.94-2.6 11.91-9.28 11.91-17.11 0-7.14-4.12-13.33-10.1-16.35 1.05-2.66 2.58-5.17 4.62-7.55 1.43-1.67 2.89-3.31 4.31-4.89 9.41-10.53 19.15-21.42 19.15-44.4 0-34.65-28.19-62.84-62.84-62.84s-62.84 28.19-62.84 62.84c-.03 22.98 9.71 33.87 19.12 44.4zm60.68 50.36c0 1.77-1.49 3.26-3.26 3.26h-27.44c-1.77 0-3.26-1.49-3.26-3.26v-3.29h33.96zm9.58-19.27h-53.12c-1.26 0-2.32-1.05-2.32-2.3 0-1.26 1.06-2.32 2.32-2.32H282.56c1.26 0 2.32 1.06 2.32 2.32 0 1.25-1.06 2.3-2.32 2.3zM256 69.76c25.84 0 46.86 21.02 46.86 46.86 0 16.88-6.33 23.95-15.08 33.74-1.48 1.65-3 3.36-4.54 5.16-4.14 4.83-7.04 10.19-8.67 15.97h-10.58v-32.86l14.89-14.89a7.991 7.991 0 0 0-11.3-11.3L256 124.02l-11.58-11.58a7.991 7.991 0 0 0-11.3 11.3l14.88 14.9v32.86h-10.57c-1.64-5.79-4.54-11.14-8.66-15.96-1.55-1.82-3.08-3.52-4.55-5.18-8.75-9.79-15.08-16.87-15.08-33.74 0-25.84 21.02-46.86 46.86-46.86zm-116.62 46.86c0-4.42 3.58-7.99 7.99-7.99h28.77c4.42 0 7.99 3.58 7.99 7.99s-3.58 7.99-7.99 7.99h-28.77c-4.41 0-7.99-3.57-7.99-7.99z" fill="#ee2737" opacity="1" data-original="#000000"></path></g></svg>