<svg id="Layer_1" enable-background="new 0 0 512 512" viewBox="0 0 512 512" xmlns="http://www.w3.org/2000/svg"><path d="m467.81 333.13c-10.42-2.78-21.45-1.24-31.06 4.33l-87.57 50.83c1.7-14.66-7.88-28.96-23.05-33.52l-120.86-36.35c-23.21-6.98-45.6-4.36-66.57 7.8l-78.59 45.55c-2.64-3.86-6.52-6.63-11.09-7.85-5.07-1.36-10.35-.67-14.88 1.95l-9.33 5.39c-9.37 5.41-12.59 17.43-7.18 26.8l51.47 89.14c3.63 6.29 10.24 9.8 17.02 9.8 3.32 0 6.69-.85 9.77-2.62l9.33-5.39c8.93-5.15 12.25-16.31 7.87-25.45l34.65-20c3.19-1.84 6.38-2.44 10.02-1.88l163.09 25.17c2.3.36 4.56.53 6.77.53 7.15 0 13.86-1.86 20.38-5.62l138.9-80.19c4.67-2.7 8.02-7.06 9.42-12.29s.69-10.68-2.01-15.36c-6.05-10.45-15.45-17.82-26.5-20.77zm-365.05 140.84c-.53 1.97-1.79 3.62-3.54 4.63l-9.33 5.39c-3.64 2.1-8.31.85-10.4-2.79l-51.47-89.14c-2.1-3.64-.85-8.3 2.79-10.4l9.33-5.39c1.75-1.01 3.8-1.28 5.78-.75 1.97.53 3.62 1.79 4.63 3.54l51.47 89.14c1 1.75 1.27 3.8.74 5.77zm381.95-107.82c-.57 2.13-1.93 3.91-3.83 5.01l-138.9 80.19c-6.16 3.55-12.29 4.7-19.32 3.62l-163.08-25.17c-6.4-.99-12.24.1-17.85 3.34l-34.58 19.96-40.98-70.98 78.54-45.53c17.98-10.42 37.19-12.67 57.1-6.69l120.86 36.35c10.44 3.14 16.56 12.88 14.23 22.66-1 4.21-3.36 7.75-6.49 10.26l-4.89 2.84c-3.44 1.36-7.32 1.71-11.19.79l-89.45-21.29c-3.22-.77-6.46 1.22-7.23 4.45-.77 3.22 1.22 6.46 4.45 7.23l89.45 21.29c9.22 2.19 18.47-.03 25.52-5.3l105.69-61.35c6.93-4.02 14.51-5.1 21.94-3.12 7.95 2.12 14.76 7.51 19.18 15.17 1.12 1.92 1.41 4.14.83 6.27zm-226.4-221.46c-2.6 0-4.9 1.67-5.71 4.15-.8 2.48.08 5.19 2.19 6.71l48.59 35.16-18.64 57c-.81 2.47.07 5.19 2.18 6.72s4.96 1.53 7.06-.01l48.45-35.35 48.45 35.35c1.05.77 2.29 1.15 3.54 1.15 1.24 0 2.48-.38 3.53-1.15 2.11-1.53 2.99-4.24 2.18-6.72l-18.64-57 48.59-35.16c2.11-1.53 2.99-4.24 2.19-6.71s-3.11-4.15-5.71-4.15h-.01l-59.97.12-18.42-57.08c-.8-2.48-3.11-4.16-5.71-4.16s-4.91 1.68-5.71 4.16l-18.42 57.08-59.97-.12c-.03.01-.04.01-.04.01zm64.34 12.12h.01c2.6 0 4.91-1.68 5.71-4.16l14.06-43.55 14.06 43.55c.8 2.48 3.11 4.16 5.71 4.16h.01l45.76-.09-37.08 26.83c-2.11 1.53-3 4.25-2.19 6.73l14.23 43.5-36.97-26.97c-2.11-1.54-4.97-1.54-7.07 0l-36.97 26.97 14.23-43.5c.81-2.48-.07-5.2-2.19-6.73l-37.08-26.83zm13.78-107.16v-28.65c0-3.31 2.69-6 6-6s6 2.69 6 6v28.65c0 3.31-2.69 6-6 6s-6-2.69-6-6zm86.56 39.36c-2.34-2.34-2.34-6.14 0-8.49l20.26-20.26c2.34-2.34 6.14-2.34 8.49 0 2.34 2.34 2.34 6.14 0 8.49l-20.26 20.26c-1.17 1.17-2.71 1.76-4.24 1.76-1.55 0-3.08-.58-4.25-1.76zm33.36 80.56c0-3.31 2.69-6 6-6h28.65c3.31 0 6 2.69 6 6s-2.69 6-6 6h-28.65c-3.31 0-6-2.68-6-6zm-4.62 100.82c2.34 2.34 2.34 6.14 0 8.49-1.17 1.17-2.71 1.76-4.24 1.76-1.54 0-3.07-.59-4.24-1.76l-20.26-20.26c-2.34-2.34-2.34-6.14 0-8.49 2.34-2.34 6.14-2.34 8.49 0zm-109.3 13.11c3.31 0 6 2.69 6 6v28.65c0 3.31-2.69 6-6 6s-6-2.69-6-6v-28.65c0-3.32 2.68-6 6-6zm-109.3-4.63c-2.34-2.34-2.34-6.14 0-8.49l20.26-20.26c2.34-2.34 6.14-2.34 8.49 0 2.34 2.34 2.34 6.14 0 8.49l-20.26 20.26c-1.17 1.17-2.71 1.76-4.24 1.76s-3.08-.59-4.25-1.76zm-45.27-109.3c0-3.31 2.69-6 6-6h28.65c3.31 0 6 2.69 6 6s-2.69 6-6 6h-28.65c-3.32 0-6-2.68-6-6zm45.27-100.81c-2.34-2.34-2.34-6.14 0-8.49s6.14-2.34 8.49 0l20.26 20.26c2.34 2.34 2.34 6.14 0 8.49-1.17 1.17-2.71 1.76-4.24 1.76-1.54 0-3.07-.59-4.24-1.76z"/></svg>