<?xml version="1.0"?>
<svg xmlns="http://www.w3.org/2000/svg" id="Line_Expand" data-name="Line Expand" viewBox="0 0 64 64" width="512" height="512"><path d="M32,54.75A14.75,14.75,0,1,0,17.25,40,14.7665,14.7665,0,0,0,32,54.75Zm-6.7275-6.04.9428-2.9843a.75.75,0,0,0-.5332-.9536L24.05,44.3647l-1.3-3.1787V39.25h4.1284l2.5542.8516.8711,2.1767a.7507.7507,0,0,0,.5493.4571l1.897.3793v1.9219l-2.5854,1.2925A.75.75,0,0,0,29.75,47v1.7222l-2.9652,3.4547c-.3159-.1359-.6232-.2875-.9259-.4467ZM42.07,48.5891l-.82-.5071V46a.75.75,0,0,0-.4146-.6709l-1.4877-.7437.8877-4.4384A.75.75,0,0,0,40.03,39.47l-1.5-1.5a.75.75,0,0,0-.7124-.1972l-1.6778.4194-2.4536-1.6357-.3745-2.2457,1.9512-1.56H37.75l3.8,2.85a.75.75,0,0,0,.7456.0894l1.9188-.8226A13.206,13.206,0,0,1,42.07,48.5891Zm1.4762-15.068L42.103,34.14,38.45,31.4a.7521.7521,0,0,0-.45-.15H35a.751.751,0,0,0-.4688.1646l-2.5,2a.7493.7493,0,0,0-.2709.7089l.5,3a.75.75,0,0,0,.3237.5005l3,2a.7515.7515,0,0,0,.5981.1035l1.5879-.3969.916.916-.9214,4.6064a.75.75,0,0,0,.4.8179l1.5854.7925V48.5a.7494.7494,0,0,0,.3555.6377l.8982.5554A13.1389,13.1389,0,0,1,28.3,52.7141l2.7691-3.2258A.747.747,0,0,0,31.25,49V47.4634l2.5854-1.2925A.75.75,0,0,0,34.25,45.5v-3a.75.75,0,0,0-.603-.7354l-2.1016-.42-.8491-2.1225a.75.75,0,0,0-.459-.4331l-3-1A.7546.7546,0,0,0,27,37.75H24.8245l4.5476-2.5986A.75.75,0,0,0,29.75,34.5V31.9014l2.666-1.7774a.75.75,0,0,0-.0815-1.2954L28.92,27.1261a13.1557,13.1557,0,0,1,14.6261,6.395ZM26.875,27.7828l3.6323,1.811L28.584,30.876a.75.75,0,0,0-.334.624v2.5649L22.0288,37.62l-2.6174-1.732A13.3113,13.3113,0,0,1,26.875,27.7828Zm-7.8685,9.6359L21.25,38.9032v2.43a.7561.7561,0,0,0,.0557.2842l1.5,3.6665a.75.75,0,0,0,.5122.4433l1.227.3067-.76,2.4062a.75.75,0,0,0-.021.3692l.3523,1.8146a13.1867,13.1867,0,0,1-5.11-13.2055Z"/><path d="M24,21.75H40a.75.75,0,0,0,.75-.75V18a5.7253,5.7253,0,0,0-.2317-1.6022l-.823-9.1161a7.7266,7.7266,0,0,0-15.3906,0l-.823,9.1161A5.7253,5.7253,0,0,0,23.25,18v3A.75.75,0,0,0,24,21.75Zm15.25-1.5H24.75V18a4.2522,4.2522,0,0,1,4.1991-4.2449,5.1753,5.1753,0,0,0,6.1018,0A4.2522,4.2522,0,0,1,39.25,18ZM35.75,9.5a3.75,3.75,0,0,1-7.5,0V8.75h1.5137A4.3421,4.3421,0,0,0,33,7.3193a4.3326,4.3326,0,0,0,2.75,1.4043ZM32,1.75a6.1953,6.1953,0,0,1,6.2012,5.6665l.5641,6.2481A5.7328,5.7328,0,0,0,36.36,12.4192,5.219,5.219,0,0,0,37.25,9.5V8a.75.75,0,0,0-.75-.75h-.2642a2.8517,2.8517,0,0,1-2.5649-1.5854.7813.7813,0,0,0-1.3418,0A2.8519,2.8519,0,0,1,29.7637,7.25H27.5a.75.75,0,0,0-.75.75V9.5a5.219,5.219,0,0,0,.89,2.9192,5.7328,5.7328,0,0,0-2.4054,1.2454l.5641-6.2481A6.1953,6.1953,0,0,1,32,1.75Z"/><path d="M13.36,53.4192A5.219,5.219,0,0,0,14.25,50.5v-3A5.2558,5.2558,0,0,0,9,42.25H4a.75.75,0,0,0-.7275.5684l-.3936,1.5742A5.9684,5.9684,0,0,0,3.75,49.2253V50.5a5.219,5.219,0,0,0,.89,2.9192A5.7555,5.7555,0,0,0,.25,59v3a.75.75,0,0,0,.75.75H17a.75.75,0,0,0,.75-.75V59A5.7555,5.7555,0,0,0,13.36,53.4192ZM5.25,50.5v-.75H6.7637A4.3421,4.3421,0,0,0,10,48.3193a4.3187,4.3187,0,0,0,2.75,1.38V50.5a3.75,3.75,0,0,1-7.5,0Zm-.916-5.7437L4.5854,43.75H9a3.7541,3.7541,0,0,1,3.75,3.75V48.21a2.85,2.85,0,0,1-2.0791-1.5449.7813.7813,0,0,0-1.3418,0A2.8519,2.8519,0,0,1,6.7637,48.25H4.8931A4.48,4.48,0,0,1,4.334,44.7563ZM16.25,61.25H1.75V59a4.2522,4.2522,0,0,1,4.1991-4.2449,5.1753,5.1753,0,0,0,6.1018,0A4.2522,4.2522,0,0,1,16.25,59Z"/><path d="M59.36,53.4192A5.219,5.219,0,0,0,60.25,50.5v-3a5.25,5.25,0,0,0-10.5,0v3a5.219,5.219,0,0,0,.89,2.9192A5.7555,5.7555,0,0,0,46.25,59v3a.75.75,0,0,0,.75.75H63a.75.75,0,0,0,.75-.75V59A5.7555,5.7555,0,0,0,59.36,53.4192ZM51.25,50.5v-.75h1.5137A4.3421,4.3421,0,0,0,56,48.3193a4.3189,4.3189,0,0,0,2.75,1.38V50.5a3.75,3.75,0,0,1-7.5,0Zm0-3a3.75,3.75,0,0,1,7.5,0V48.21a2.85,2.85,0,0,1-2.0791-1.5449.7813.7813,0,0,0-1.3418,0A2.8519,2.8519,0,0,1,52.7637,48.25H51.25Zm11,13.75H47.75V59a4.2522,4.2522,0,0,1,4.1991-4.2449,5.1753,5.1753,0,0,0,6.1018,0A4.2522,4.2522,0,0,1,62.25,59Z"/><path d="M50.0626,27.4006a1,1,0,1,0-1.4021-.1846A1,1,0,0,0,50.0626,27.4006Z"/><path d="M52.7081,32.5048a1,1,0,1,0-1.3066-.5412A1,1,0,0,0,52.7081,32.5048Z"/><path d="M52.82,37.2589a1,1,0,1,0,.8609-1.1219A1,1,0,0,0,52.82,37.2589Z"/><path d="M10.0577,38.12a1,1,0,1,0-.8609-1.122A1,1,0,0,0,10.0577,38.12Z"/><path d="M11.292,32.5048a1,1,0,1,0-.5412-1.3066A1,1,0,0,0,11.292,32.5048Z"/><path d="M15.34,27.216a1,1,0,1,0-1.4021.1846A1,1,0,0,0,15.34,27.216Z"/><path d="M19.216,23.34a1,1,0,1,0-1.4021-.1845A1,1,0,0,0,19.216,23.34Z"/><path d="M46.1861,23.155a1,1,0,1,0-1.4021.1845A1,1,0,0,0,46.1861,23.155Z"/><path d="M21.5,58.1865a1,1,0,1,0,.366,1.3661A1,1,0,0,0,21.5,58.1865Z"/><path d="M42.5,58.1865a1,1,0,1,0,1.366.3661A1,1,0,0,0,42.5,58.1865Z"/><path d="M37.4352,60.2844a1,1,0,1,0,1.2248.7071A1,1,0,0,0,37.4352,60.2844Z"/><path d="M26.5648,60.2844a1,1,0,1,0,.7071,1.2248A1,1,0,0,0,26.5648,60.2844Z"/><circle cx="32" cy="62" r="1"/></svg>
