<svg width="24" height="24" viewBox="0 0 24 24" fill="none" xmlns="http://www.w3.org/2000/svg">
<path d="M5.0133 20.4868V9.48682H2.01331V20.4868H5.0133Z" stroke="white" stroke-width="2" stroke-linejoin="round"/>
<path fill-rule="evenodd" clip-rule="evenodd" d="M5.01331 9.48687C8.57476 6.22737 10.6387 4.35709 11.2052 3.87596C12.0549 3.15427 13.0153 3.45731 13.0153 5.26337C13.0153 7.06947 10.3726 8.11107 10.3726 9.48687C10.3709 9.49507 13.7505 9.49562 20.5113 9.48852C21.34 9.48767 22.0125 10.1587 22.0133 10.9874V10.989C22.0133 11.8186 21.3408 12.4911 20.5112 12.4911H16.5065C15.9021 16.4774 15.5687 18.6447 15.5061 18.9929C15.4124 19.5152 14.9138 20.4869 13.4793 20.4869C12.523 20.4869 10.0343 20.4869 5.01331 20.4869V9.48687Z" stroke="white" stroke-width="2" stroke-linejoin="round"/>
</svg>
