<svg xmlns="http://www.w3.org/2000/svg" version="1.1" xmlns:xlink="http://www.w3.org/1999/xlink" width="512" height="512" x="0" y="0" viewBox="0 0 64 64" style="enable-background:new 0 0 512 512" xml:space="preserve" class=""><g><g data-name="Project Deal"><path d="M58.89 40.894 51.013 26.55a1.95 1.95 0 0 0-2.647-.77l-2.285 1.255a1.93 1.93 0 0 0-.865 2.428 4.454 4.454 0 0 1-.858.281 5.472 5.472 0 0 1-3.224-.392 14.311 14.311 0 1 0-16.689 1.134l-.696.961a54.48 54.48 0 0 0-2.833-.681 8.018 8.018 0 0 1-2.331-.893l.104-.19a1.947 1.947 0 0 0-.77-2.647l-2.285-1.257a1.954 1.954 0 0 0-2.647.77L5.11 40.895a1.951 1.951 0 0 0 .77 2.646l2.288 1.256a1.906 1.906 0 0 0 2.116-.18q.843 1.047 1.736 2.035a2.89 2.89 0 0 0 2.471 4.38q.147 0 .293-.014c.057-.006.11-.024.166-.033a2.89 2.89 0 0 0 4.199 3.193v.014a2.876 2.876 0 0 0 4.479 2.118c0 .081-.008.161 0 .243a2.888 2.888 0 0 0 4.786 1.89 16.032 16.032 0 0 0 6.002 1.527 5.111 5.111 0 0 0 3.38-1.08 4.396 4.396 0 0 0 1.011-1.24c.064.003.13.02.193.02a3.94 3.94 0 0 0 3.243-1.667 3.728 3.728 0 0 0 .597-1.44 3.747 3.747 0 0 0 2.821-1.999 3.655 3.655 0 0 0 .355-2.183 3.337 3.337 0 0 0 1.01-.45 3.392 3.392 0 0 0 1.642-3.211 37.16 37.16 0 0 0 4.386-2.934l.133.241a1.952 1.952 0 0 0 2.645.77l2.287-1.256a1.951 1.951 0 0 0 .77-2.646zM19.69 18.34a12.309 12.309 0 1 1 19.011 10.304c-2.887-.542-6.854-.411-12.055.408a3.147 3.147 0 0 0-.473.124A12.22 12.22 0 0 1 19.69 18.34zM6.89 41.812l7.782-14.28 2.266 1.187-.526.963v.001L9.13 43.042zm7.697 7.214a.897.897 0 0 1-.783-1.46l1.588-1.938a.891.891 0 0 1 .605-.324.943.943 0 0 1 .09-.005.897.897 0 0 1 .692 1.466l-1.587 1.937a.891.891 0 0 1-.605.324zm3.265 3.5a.898.898 0 0 1-.784-1.462l3.609-4.402a.897.897 0 1 1 1.387 1.137l-3.607 4.403a.891.891 0 0 1-.605.324zm4.27 2.273a.897.897 0 0 1-.783-1.462l2.405-2.935a.891.891 0 0 1 .606-.324.943.943 0 0 1 .09-.005.897.897 0 0 1 .692 1.466l-2.405 2.936a.891.891 0 0 1-.606.324zm4.479 2.36a.907.907 0 0 1-.658-.199.897.897 0 0 1-.125-1.263l.997-1.217a.891.891 0 0 1 .606-.324.943.943 0 0 1 .09-.005.885.885 0 0 1 .566.203.899.899 0 0 1 .126 1.264l-.997 1.217a.891.891 0 0 1-.605.324zm19.31-8.89a2.418 2.418 0 0 1-2.36-.229l-7.152-4.188a1 1 0 0 0-1.011 1.726l7.152 4.189a5.547 5.547 0 0 0 1.436.59 1.704 1.704 0 0 1-1.464 2.232l-6.963-3.729a1 1 0 0 0-.945 1.764L40.909 54a1.772 1.772 0 0 1-.304.855 1.959 1.959 0 0 1-1.97.783l-5.33-2.37a1 1 0 0 0-.812 1.829l4.322 1.921a2.319 2.319 0 0 1-.298.335c-1.16.967-3.535.78-6.745-.502a2.894 2.894 0 0 0-2.55-4.685c-.06.006-.114.025-.172.034a2.888 2.888 0 0 0-2.9-4.112l-.014.003a2.897 2.897 0 0 0-5.007-2.696l-.212.258a2.864 2.864 0 0 0-.996-1.698 2.897 2.897 0 0 0-4.077.405l-.568.693q-.944-1.06-1.825-2.187l6.172-11.24a9.992 9.992 0 0 0 2.882 1.097c.664.14 1.327.296 1.986.462l-3.045 4.206a1.926 1.926 0 0 0-.196 1.947 1.966 1.966 0 0 0 1.607 1.139 10.063 10.063 0 0 0 3.581-.313 9.165 9.165 0 0 0 5.272-3.407 6.194 6.194 0 0 0 2.672.026l.061-.012c1.113.57 5.253 2.817 5.722 3.095a58.998 58.998 0 0 1 5.082 3.453l.422.313a8.045 8.045 0 0 1 2.96 3.077c.318.812-.543 1.442-.719 1.56zm1.98-3.412a12.374 12.374 0 0 0-3.033-2.834l-.412-.305a60.893 60.893 0 0 0-5.257-3.57c-2.642-1.574-5.89-3.39-6.813-3.39h-.013l-.003-.015-.391.083a4.155 4.155 0 0 1-2.334-.178 1.02 1.02 0 0 0-1.219.435 6.929 6.929 0 0 1-4.507 3.153 10.088 10.088 0 0 1-2.842.326l5.102-7.046a1.216 1.216 0 0 1 .791-.489c6.22-.98 10.661-.952 13.273.118a7.583 7.583 0 0 0 4.548.554 6.509 6.509 0 0 0 1.378-.472l5.92 10.78a35.239 35.239 0 0 1-4.188 2.85zm7.05-1.794-7.404-13.384a.998.998 0 0 0-.151-.368.95.95 0 0 0-.117-.117l-.225-.406 2.216-1.275 7.853 14.3z" fill="#ffffff" opacity="1" data-original="#000000" class=""></path><path d="M38.874 26.384a2.48 2.48 0 0 0 2.373-2.571v-4.966a2.327 2.327 0 0 0 1.375-2.12v-2.475a2.33 2.33 0 0 0-2.328-2.328h-3.24v-1.006a1.617 1.617 0 0 0-1.616-1.616h-6.877a1.617 1.617 0 0 0-1.616 1.616v1.006h-3.239a2.33 2.33 0 0 0-2.328 2.328v2.476a2.327 2.327 0 0 0 1.375 2.119v4.965a2.48 2.48 0 0 0 2.373 2.572zm-9.929-15.082h6.11v.622h-6.11zm-5.567 2.95a.329.329 0 0 1 .328-.328h16.588a.329.329 0 0 1 .328.328v2.476a.329.329 0 0 1-.328.328h-5.049v-.097a1.508 1.508 0 0 0-1.507-1.507h-3.476a1.508 1.508 0 0 0-1.507 1.507v.097h-5.049a.329.329 0 0 1-.328-.328zm9.867 3.2v1.208h-2.49v-1.208zm-8.492 6.36v-4.756h4.002v.096a1.51 1.51 0 0 0 1.507 1.508h3.476a1.51 1.51 0 0 0 1.507-1.508v-.096h4.002v4.756c0 .328-.197.572-.373.572H25.126c-.176 0-.373-.244-.373-.571z" fill="#ffffff" opacity="1" data-original="#000000" class=""></path></g></g></svg>