<svg width="100" height="100" viewBox="0 0 100 100" fill="none" xmlns="http://www.w3.org/2000/svg">
<path fill-rule="evenodd" clip-rule="evenodd" d="M45 0.25C19.7334 2.75862 0 24.0764 0 50.0031C0 75.9299 19.7334 97.2476 45 99.7562V97.7458C20.84 95.2453 2 74.8243 2 50.0031C2 25.1819 20.84 4.761 45 2.2604V0.25ZM55 97.7458C79.16 95.2453 98 74.8243 98 50.0031C98 25.1819 79.16 4.761 55 2.2604V0.25C80.2666 2.75862 100 24.0764 100 50.0031C100 75.9299 80.2666 97.2476 55 99.7562V97.7458Z" fill="white"/>
<path d="M63.3689 44.4803L61.3952 46.4382C61.0162 46.8172 61.0162 47.433 61.3952 47.812L77.1537 63.5705C77.5327 63.9495 78.1485 63.9495 78.5275 63.5705L80.4854 61.6125C80.8644 61.2336 80.8644 60.6178 80.4854 60.2388L64.7269 44.4803C64.5374 44.2908 64.2848 44.196 64.0321 44.196C63.7953 44.196 63.5584 44.2908 63.3689 44.4803ZM59.832 44.875L61.7899 42.917C62.4057 42.3012 63.2268 41.9854 64.0479 41.9854C64.869 41.9854 65.6743 42.3012 66.3059 42.917L82.0644 58.6756C83.3119 59.923 83.3119 61.9441 82.0644 63.1758L80.1065 65.1337C78.859 66.3812 76.8379 66.3812 75.6063 65.1337L74.8168 64.3442L73.3641 65.7811L68.2481 71.5603C70.885 74.7499 68.3744 78.6343 65.4375 78.8396C65.2953 81.1133 62.9268 83.3082 60.6688 83.1187C59.8478 85.5188 56.0423 88.3768 53.8633 86.4346L52.9159 85.6293L51.0684 87.4767C49.4263 89.1189 47.0893 88.4715 45.6682 87.0346C45.1472 86.5135 44.7208 85.8662 44.484 85.1714C42.226 86.1188 39.4627 84.145 38.8627 81.7923C36.2415 82.2818 33.3204 79.3606 33.7941 76.7237C31.2045 76.0447 29.136 72.8235 30.7308 70.5182L27.5728 65.6864L26.2306 64.3442L25.4411 65.1337C24.1937 66.3812 22.1725 66.3812 20.9409 65.1337L18.9356 63.1758C17.6881 61.9283 17.6881 59.9072 18.9356 58.6756L34.6941 42.917C35.3099 42.3012 36.131 41.9854 36.9521 41.9854C37.7732 41.9854 38.5785 42.3012 39.2101 42.917L41.168 44.875C42.4155 46.1224 42.4155 48.1436 41.168 49.3752L40.7891 49.7542L41.9891 50.9542L48.1789 52.2648C48.2104 52.2648 48.242 52.2806 48.2736 52.2806C49.4736 51.57 51.3053 51.1595 52.9001 51.0174H52.9791L59.1214 50.8753L60.2425 49.7542L59.8635 49.3752C58.6003 48.1436 58.6003 46.1224 59.832 44.875ZM46.7735 83.1818C45.5419 84.4135 48.2578 87.1294 49.4894 85.8977L52.3948 82.9924C53.6264 81.7607 50.9105 79.0448 49.6789 80.2765L46.7735 83.1818ZM50.6421 77.7658C53.4685 77.9711 56.0739 81.5239 54.4002 84.0345L55.3002 84.8082C55.5528 85.0293 56.1371 84.824 56.7529 84.4293C57.3687 84.0345 58.0003 83.4345 58.3477 82.8187C58.5372 82.4871 58.6635 82.2186 58.6161 82.1713L58.6951 82.0923C58.5372 82.0449 58.3951 81.9502 58.2687 81.8397L53.8159 77.3395C53.3896 76.9132 53.3896 76.2184 53.8159 75.7763C54.2423 75.3499 54.937 75.3499 55.3791 75.7763L59.8478 80.2449C59.9741 80.3712 60.053 80.5133 60.1004 80.6554L60.1793 80.5765C61.0162 81.4133 62.4689 80.4344 62.99 79.4238C63.2426 78.9343 63.29 78.3816 62.9742 77.9711L62.8795 77.8764L57.8266 72.7919C57.4003 72.3656 57.4003 71.6708 57.8266 71.2287C58.2529 70.8024 58.9477 70.8024 59.3898 71.2287L64.3006 76.171C64.3479 76.2026 64.3953 76.25 64.4427 76.2816C65.7059 77.4974 68.5481 74.892 66.2743 72.6498C66.227 72.6025 66.1796 72.5393 66.1322 72.4761L65.9585 72.334L57.3055 63.7284C55.4107 61.8494 53.0422 60.4125 51.1474 62.3231C48.5894 64.8969 45.6524 65.0074 43.5366 64.1705C42.3523 63.7126 41.1996 62.86 40.6628 61.7862C40.1417 60.7599 40.2048 59.6861 41.0575 58.8651C41.168 58.7703 41.2786 58.6914 41.4049 58.644C43.8366 57.5545 45.0682 55.9597 46.2525 54.3965C46.3314 54.3017 46.3946 54.207 46.4735 54.1122L41.2786 53.0227C41.0417 52.9911 40.8207 52.8806 40.647 52.7069L39.2574 51.3174L27.7938 62.781L29.1991 64.1863C29.3886 64.3758 31.915 68.2918 32.294 68.8602L35.2941 65.8601C36.9363 64.2179 39.2732 64.8653 40.6943 66.3022C41.4523 67.0601 42.0207 68.1181 42.0997 69.176C44.2155 69.3339 46.2209 71.3392 46.3788 73.4551C48.4631 73.6288 50.5 75.6499 50.6421 77.7658ZM43.9787 82.866L48.1157 78.729C49.3473 77.4974 46.6314 74.7815 45.3998 76.0131L41.2628 80.1501C40.0154 81.3818 42.7471 84.0977 43.9787 82.866ZM41.1049 71.7182L36.2573 76.5816C35.0257 77.8132 37.7416 80.5291 38.9732 79.2975L43.8366 74.4341C45.0682 73.2183 42.3523 70.4866 41.1049 71.7182ZM71.8167 64.2021L73.2062 62.7968L61.7426 51.3332L60.3372 52.7227C60.1364 52.9242 59.8638 53.0378 59.5793 53.0385L53.0264 53.1806C52.0632 53.2754 51.1948 53.4648 50.4842 53.6859C49.7737 53.907 49.3 54.1122 49.1894 54.2543C48.7789 54.7123 48.3841 55.2333 47.9894 55.7544C46.663 57.4913 45.3051 59.2598 42.526 60.5704C42.5418 60.8388 42.9365 61.2809 43.1892 61.502C44.7998 62.8284 47.4683 62.8915 49.5684 60.7757C50.8474 59.4967 52.3632 59.0072 54.0528 59.3072C55.5686 59.5914 57.1792 60.5388 58.8372 62.181L66.6533 69.9497L71.6745 64.2969C71.7377 64.2811 71.7693 64.2337 71.8167 64.2021ZM36.8258 67.4391L32.6888 71.5761C31.4571 72.8077 34.173 75.5236 35.4047 74.292L39.5417 70.155C40.7733 68.9392 38.0574 66.2075 36.8258 67.4391ZM39.589 46.4382L37.6311 44.4803C37.4416 44.2908 37.1889 44.196 36.9363 44.196C36.6837 44.196 36.431 44.2908 36.2415 44.4803L20.4988 60.2388C20.1198 60.6178 20.1198 61.2336 20.4988 61.6125L22.4568 63.5705C22.8357 63.9495 23.4515 63.9495 23.8305 63.5705L39.589 47.812C39.968 47.4488 39.968 46.8172 39.589 46.4382ZM47.7367 22.8004H53.2633C53.8791 22.8004 54.3686 23.2899 54.3686 23.9057V27.1743L64.3164 25.6584V19.1213H36.6837V25.6742L46.6156 27.1901V23.9057C46.6314 23.3057 47.1209 22.8004 47.7367 22.8004ZM54.3686 29.4165V32.2745C54.3686 32.8903 53.8791 33.3798 53.2633 33.3798H47.7367C47.1209 33.3798 46.6314 32.8903 46.6314 32.2745V29.4165L37.9153 28.0901V37.6431H63.0847V28.0901L54.3686 29.4165ZM52.158 25.0111H48.842V31.1534H52.158V25.0111ZM44.1524 16.9107V14.9843C44.1524 13.2948 45.6682 12 47.3736 12H53.6422C55.3476 12 56.8634 13.279 56.8634 14.9843V16.9107H65.4375C66.0533 16.9107 66.5428 17.4002 66.5428 18.016V26.6216C66.5428 27.1585 66.148 27.6322 65.5954 27.7112L65.3111 27.7585V38.7485C65.3111 39.3643 64.8216 39.8538 64.2058 39.8538H36.81C36.1942 39.8538 35.7047 39.3643 35.7047 38.7485V27.7585L35.452 27.7112C34.8994 27.648 34.473 27.1901 34.473 26.6216V18.016C34.473 17.4002 34.9625 16.9107 35.5783 16.9107H44.1524ZM54.637 16.9107V14.9843C54.637 14.5264 54.1159 14.2264 53.6422 14.2264H47.3736C46.8841 14.2264 46.3788 14.5264 46.3788 14.9843V16.9107H54.637Z" fill="white"/>
</svg>
