<?xml version="1.0" encoding="utf-8"?>
<!-- Generator: Adobe Illustrator 27.5.0, SVG Export Plug-In . SVG Version: 6.00 Build 0)  -->
<svg version="1.1" id="illustration" xmlns="http://www.w3.org/2000/svg" xmlns:xlink="http://www.w3.org/1999/xlink" x="0px"
	 y="0px" viewBox="0 0 4338 3834.407" style="enable-background:new 0 0 4338 3834.407;" xml:space="preserve">
<rect id="bg" y="0" style="fill:#FFFFFF;" width="4338" height="3834.407"/>
<path id="die" style="fill:#9FD5F5;" d="M3956.054,1611.903c0-421.997-242.487-804.949-616.766-963.386
	c-186.185-78.815-389.658-122.714-603.059-123.951c-381.186-2.208-732.179,132.55-1010.549,359.921
	c-52.334,42.747-115.082,69.351-181.071,77.282C886.854,1040.831,376.202,1625.1,377.001,2333.838
	c0.503,446.579,208.91,846.023,528.097,1098.381h3033.885c28.665-29.728,5.69-65.408,17.07-92.451V1611.903z"/>
<g id="plant">
	<g>
		<linearGradient id="SVGID_1_" gradientUnits="userSpaceOnUse" x1="649.4503" y1="2310.4165" x2="1157.2108" y2="2310.4165">
			<stop  offset="0.124" style="stop-color:#1555BA"/>
			<stop  offset="0.3278" style="stop-color:#1350B5"/>
			<stop  offset="0.5757" style="stop-color:#0E41A8"/>
			<stop  offset="0.8453" style="stop-color:#062891"/>
			<stop  offset="1" style="stop-color:#001781"/>
		</linearGradient>
		<path style="fill:url(#SVGID_1_);" d="M787.565,2362.734c130.535,340.95,296.033,593.408,369.646,563.867L684.489,1691.882
			C610.876,1721.424,657.027,2021.777,787.565,2362.734z"/>
		
			<linearGradient id="SVGID_00000061451542482343914800000002808154960800509375_" gradientUnits="userSpaceOnUse" x1="684.4889" y1="2308.0669" x2="1192.2495" y2="2308.0669">
			<stop  offset="0.124" style="stop-color:#1555BA"/>
			<stop  offset="0.3278" style="stop-color:#1350B5"/>
			<stop  offset="0.5757" style="stop-color:#0E41A8"/>
			<stop  offset="0.8453" style="stop-color:#062891"/>
			<stop  offset="1" style="stop-color:#001781"/>
		</linearGradient>
		<path style="fill:url(#SVGID_00000061451542482343914800000002808154960800509375_);" d="M684.489,1691.882l472.722,1234.718
			c73.613-29.541,27.462-329.894-103.073-670.844C923.599,1914.8,758.102,1662.341,684.489,1691.882z"/>
		<path style="fill:#FFFFFF;" d="M1282.682,3262.836c-3.413,0-6.63-2.07-7.934-5.445L672.852,1696.433
			c-1.69-4.382,0.494-9.304,4.874-10.994c4.372-1.686,9.3,0.492,10.994,4.874l601.896,1560.958c1.69,4.382-0.494,9.304-4.874,10.994
			C1284.737,3262.653,1283.699,3262.836,1282.682,3262.836z"/>
		<path style="fill:#FFFFFF;" d="M906.249,2279.638c-1.76,0-3.537-0.544-5.061-1.675c-3.77-2.8-4.559-8.127-1.756-11.896
			l92.998-125.249c2.802-3.768,8.121-4.559,11.895-1.758c3.77,2.8,4.559,8.127,1.756,11.897l-92.999,125.249
			C911.414,2278.45,908.848,2279.638,906.249,2279.638z"/>
		<path style="fill:#FFFFFF;" d="M848.378,2474.32c-4.571,0-8.349-3.631-8.494-8.233c-0.149-4.694,3.537-8.619,8.229-8.768
			l130.825-4.142c4.608-0.125,8.619,3.533,8.768,8.229c0.149,4.694-3.537,8.619-8.229,8.769l-130.825,4.141
			C848.561,2474.318,848.47,2474.32,848.378,2474.32z"/>
		<path style="fill:#FFFFFF;" d="M943.976,2422.771c-0.062,0-0.12,0-0.183-0.002l-124.875-2.643c-4.696-0.1-8.42-3.986-8.324-8.681
			c0.104-4.696,4.301-8.37,8.681-8.32l124.875,2.643c4.696,0.1,8.42,3.986,8.324,8.681
			C952.375,2419.082,948.588,2422.771,943.976,2422.771z"/>
	</g>
	<g>
		
			<linearGradient id="SVGID_00000038378040456618727870000015829055082933396625_" gradientUnits="userSpaceOnUse" x1="1100.0677" y1="1720.175" x2="1203.4392" y2="2847.5769">
			<stop  offset="0.124" style="stop-color:#1555BA"/>
			<stop  offset="0.3278" style="stop-color:#1350B5"/>
			<stop  offset="0.5757" style="stop-color:#0E41A8"/>
			<stop  offset="0.8453" style="stop-color:#062891"/>
			<stop  offset="1" style="stop-color:#001781"/>
		</linearGradient>
		<path style="fill:url(#SVGID_00000038378040456618727870000015829055082933396625_);" d="M1002.75,2094.764
			c0,410.472,92.326,743.225,206.208,743.225V1351.531C1095.076,1351.531,1002.75,1684.283,1002.75,2094.764z"/>
		
			<linearGradient id="SVGID_00000165945399140881024100000015166041504448804249_" gradientUnits="userSpaceOnUse" x1="1317.6907" y1="1681.171" x2="1262.7748" y2="2517.8384">
			<stop  offset="0.124" style="stop-color:#1555BA"/>
			<stop  offset="0.3278" style="stop-color:#1350B5"/>
			<stop  offset="0.5757" style="stop-color:#0E41A8"/>
			<stop  offset="0.8453" style="stop-color:#062891"/>
			<stop  offset="1" style="stop-color:#001781"/>
		</linearGradient>
		<path style="fill:url(#SVGID_00000165945399140881024100000015166041504448804249_);" d="M1208.958,1351.531v1486.458
			c113.89,0,206.216-332.752,206.216-743.225C1415.174,1684.283,1322.848,1351.531,1208.958,1351.531z"/>
		<path style="fill:#FFFFFF;" d="M1208.959,3177.292c-4.687,0-8.49-3.792-8.503-8.482l-4.293-1817.256
			c-0.013-4.698,3.786-8.513,8.482-8.523c4.53,0.482,8.511,3.784,8.523,8.482l4.293,1817.256c0.012,4.696-3.786,8.513-8.482,8.523
			C1208.972,3177.292,1208.968,3177.292,1208.959,3177.292z"/>
		<path style="fill:#FFFFFF;" d="M1196.068,1759.577c-1.179,0-2.375-0.245-3.512-0.764l-141.773-64.443
			c-4.276-1.943-6.165-6.985-4.222-11.26c1.947-4.28,7.004-6.165,11.255-4.222l141.773,64.443c4.276,1.943,6.165,6.985,4.222,11.26
			C1202.387,1757.725,1199.298,1759.577,1196.068,1759.577z"/>
		<path style="fill:#FFFFFF;" d="M1200.365,2189.188c-1.125,0-2.267-0.224-3.367-0.699l-189.028-81.627
			c-4.31-1.86-6.298-6.865-4.434-11.177c1.86-4.312,6.85-6.306,11.176-4.434l189.028,81.627c4.309,1.86,6.298,6.865,4.434,11.176
			C1206.788,2187.266,1203.658,2189.188,1200.365,2189.188z"/>
		<path style="fill:#FFFFFF;" d="M1191.771,2270.813c-1.117,0-2.254-0.222-3.346-0.689l-180.434-77.33
			c-4.314-1.85-6.315-6.848-4.463-11.164c1.843-4.32,6.842-6.321,11.164-4.467l180.434,77.33c4.314,1.849,6.315,6.848,4.463,11.164
			C1198.211,2268.883,1195.072,2270.813,1191.771,2270.813z"/>
		<path style="fill:#FFFFFF;" d="M1213.256,2013.047c-3.45,0-6.697-2.115-7.967-5.54c-1.64-4.401,0.602-9.296,5.003-10.934
			l184.735-68.738c4.392-1.638,9.3,0.602,10.932,5.005c1.64,4.401-0.602,9.296-5.003,10.934l-184.735,68.738
			C1215.245,2012.875,1214.24,2013.047,1213.256,2013.047z"/>
		<path style="fill:#FFFFFF;" d="M1204.675,2575.838c-3.056,0-6.012-1.652-7.531-4.544c-2.188-4.156-0.594-9.298,3.562-11.486
			l163.25-85.922c4.16-2.186,9.304-0.588,11.484,3.564c2.188,4.156,0.594,9.298-3.562,11.486l-163.25,85.922
			C1207.365,2575.523,1206.007,2575.838,1204.675,2575.838z"/>
	</g>
	<g>
		
			<linearGradient id="SVGID_00000121241622386656244520000014119082494562037157_" gradientUnits="userSpaceOnUse" x1="1209.4882" y1="2367.8743" x2="1677.0551" y2="2367.8743">
			<stop  offset="0.124" style="stop-color:#1555BA"/>
			<stop  offset="0.3278" style="stop-color:#1350B5"/>
			<stop  offset="0.5757" style="stop-color:#0E41A8"/>
			<stop  offset="0.8453" style="stop-color:#062891"/>
			<stop  offset="1" style="stop-color:#001781"/>
		</linearGradient>
		<path style="fill:url(#SVGID_00000121241622386656244520000014119082494562037157_);" d="M1673.125,1797.811
			c-91.71-32.453-256.525,196.911-368.129,512.292c-111.604,315.381-127.738,597.359-36.027,629.813
			c1.362,0.482,2.786,0.713,4.179,1.083l403.907-1141.4C1675.74,1799.009,1674.487,1798.293,1673.125,1797.811z"/>
		
			<linearGradient id="SVGID_00000021079552467564952440000018302864310092614308_" gradientUnits="userSpaceOnUse" x1="1614.4939" y1="2073.9607" x2="1349.6039" y2="3117.3721">
			<stop  offset="0.124" style="stop-color:#1555BA"/>
			<stop  offset="0.3278" style="stop-color:#1350B5"/>
			<stop  offset="0.5757" style="stop-color:#0E41A8"/>
			<stop  offset="0.8453" style="stop-color:#062891"/>
			<stop  offset="1" style="stop-color:#001781"/>
		</linearGradient>
		<path style="fill:url(#SVGID_00000021079552467564952440000018302864310092614308_);" d="M1637.098,2427.623
			c109.953-310.716,127.155-588.819,39.957-628.026l-403.907,1141.4C1365.598,2965.363,1527.147,2738.332,1637.098,2427.623z"/>
		<path style="fill:#FFFFFF;" d="M1196.126,3141.386c-0.942,0-1.897-0.158-2.836-0.49c-4.426-1.565-6.747-6.425-5.181-10.851
			l470.083-1328.403c1.573-4.428,6.435-6.742,10.853-5.179c4.426,1.565,6.746,6.425,5.181,10.85l-470.083,1328.404
			C1202.906,3139.206,1199.626,3141.386,1196.126,3141.386z"/>
		<path style="fill:#FFFFFF;" d="M1471.792,2336.616c-1.993,0-3.99-0.695-5.605-2.113l-121.687-106.861
			c-3.529-3.099-3.878-8.472-0.781-12c3.101-3.527,8.469-3.878,11.999-0.779l121.687,106.861c3.529,3.099,3.878,8.472,0.781,12.001
			C1476.505,2335.638,1474.155,2336.616,1471.792,2336.616z"/>
		<path style="fill:#FFFFFF;" d="M1427.797,2512.45c-4.467,0-8.216-3.488-8.482-8.007c-0.274-4.687,3.305-8.71,7.992-8.984
			l176.83-10.34c4.729-0.293,8.71,3.305,8.988,7.992c0.274,4.687-3.305,8.71-7.992,8.984l-176.83,10.34
			C1428.133,2512.446,1427.963,2512.45,1427.797,2512.45z"/>
		<path style="fill:#FFFFFF;" d="M1407.241,2596.316c-4.662,0-8.461-3.757-8.503-8.43c-0.042-4.696,3.732-8.534,8.428-8.575
			l150.849-1.306c4.343-0.008,8.536,3.732,8.577,8.43c0.042,4.696-3.732,8.534-8.428,8.575l-150.849,1.306
			C1407.291,2596.316,1407.266,2596.316,1407.241,2596.316z"/>
	</g>
	
		<linearGradient id="SVGID_00000122694502421727408530000008958595920995066250_" gradientUnits="userSpaceOnUse" x1="1015.6361" y1="3207.4541" x2="1415.1747" y2="3207.4541">
		<stop  offset="0" style="stop-color:#E2323A"/>
		<stop  offset="1" style="stop-color:#C92B2F"/>
	</linearGradient>
	<path style="fill:url(#SVGID_00000122694502421727408530000008958595920995066250_);" d="M1300.618,3430.852h-170.425
		c-33.521,0-60.947-25.486-60.947-56.636l-53.61-333.524c0-31.15,27.426-56.636,60.947-56.636h277.646
		c33.521,0,60.947,25.486,60.947,56.636l-53.61,333.524C1361.564,3405.366,1334.138,3430.852,1300.618,3430.852z"/>
</g>
<path id="line" d="M3957.511,3456.003h-32.646c-2.469,0-4.489-2.02-4.489-4.489V1682.586c0-2.469,2.02-4.489,4.489-4.489h32.646
	c2.469,0,4.489,2.02,4.489,4.489v1768.929C3962,3453.983,3959.98,3456.003,3957.511,3456.003z"/>
<g id="decor">
	<g id="wi_fi_2_" style="opacity:0.9;">
		<g>
			<circle style="fill:#FFFFFF;" cx="1613.757" cy="1591.102" r="28.3"/>
		</g>
		<g>
			<path style="fill:#FFFFFF;" d="M1699.303,1524.76c-47.171-47.171-123.923-47.169-171.092,0l-17.509-17.509
				c56.826-56.826,149.286-56.824,206.11,0L1699.303,1524.76z"/>
		</g>
		<g>
			<path style="fill:#FFFFFF;" d="M1770.806,1453.256c-41.949-41.949-97.724-65.052-157.049-65.052
				c-59.325,0-115.1,23.103-157.049,65.052l-17.509-17.509c46.626-46.627,108.619-72.305,174.558-72.305
				c65.94,0,127.933,25.679,174.558,72.305L1770.806,1453.256z"/>
		</g>
	</g>
	<g id="avatar_2_">
		
			<linearGradient id="SVGID_00000036958062132101487920000014384700226282484400_" gradientUnits="userSpaceOnUse" x1="1716.3798" y1="2857.0601" x2="2115.2639" y2="2857.0601">
			<stop  offset="0" style="stop-color:#E2323A"/>
			<stop  offset="1" style="stop-color:#C92B2F"/>
		</linearGradient>
		<path style="fill:url(#SVGID_00000036958062132101487920000014384700226282484400_);" d="M2110.74,3041.61h-389.836
			c-2.499,0-4.524-2.025-4.524-4.524v-360.053c0-2.499,2.025-4.524,4.524-4.524h389.836c2.499,0,4.524,2.025,4.524,4.524v360.053
			C2115.264,3039.585,2113.239,3041.61,2110.74,3041.61z"/>
		<g>
			
				<ellipse transform="matrix(0.1602 -0.9871 0.9871 0.1602 -1153.55 4241.4214)" style="fill:#FFFFFF;" cx="1915.822" cy="2798.628" rx="51.878" ry="51.878"/>
			<path style="fill:#FFFFFF;" d="M1915.822,2882.046L1915.822,2882.046c48.347,0,88.587,37.132,92.465,85.323h-184.929
				C1827.235,2919.178,1867.475,2882.046,1915.822,2882.046z"/>
		</g>
	</g>
	<g style="opacity:0.9;">
		<path style="fill:#FFFFFF;" d="M852.801,3042.979c-0.534,0-1.077-0.096-1.605-0.297c-25.311-9.671-45.233-26.048-59.213-48.677
			c-12.033-19.477-19.436-43.701-21.408-70.053c-1.143-15.27-0.477-31.013,1.881-46.35c-37.018,2.599-77.876-5.438-108.377-34.313
			c-29.32-27.757-50.029-65.966-59.819-109.64c-5.722,0.418-11.393,0.53-16.995,0.326c-34.685-1.245-66.633-13.971-94.958-37.825
			c-1.901-1.602-2.144-4.44-0.543-6.341c1.601-1.902,4.44-2.146,6.341-0.544c35.42,29.83,72.091,37.614,104.332,35.514
			c-1.307-6.979-2.341-14.087-3.091-21.301c-5.41-52.004,4.439-103.819,27.021-142.16c29.896-50.756,77.582-70.201,130.832-53.345
			c24.025,7.604,37.772,23.774,39.751,46.761c2.077,24.113-9.014,53.805-31.228,83.605c-22.284,29.894-52.839,55.838-86.038,73.054
			c-21.744,11.275-44.199,18.482-66.115,21.314c8.881,39.122,27.303,76.218,56.699,104.046
			c29.026,27.479,68.374,34.683,103.801,31.726c1.923-9.615,4.518-18.996,7.755-27.913c9.381-25.846,23.059-44.89,38.513-53.623
			c14.098-7.97,28.839-7.01,42.633,2.77c15.015,10.646,16.863,22.117,15.769,29.866c-2.569,18.202-24.421,36.591-57.028,47.988
			c-11.939,4.173-25.573,7.44-40.005,9.158c-2.542,15.36-3.304,31.206-2.155,46.554c2.371,31.677,15.25,88.219,74.859,110.993
			c2.322,0.888,3.485,3.488,2.598,5.811C856.32,3041.877,854.612,3042.979,852.801,3042.979z M839.496,2790.627
			c-4.914,0-9.833,1.383-14.733,4.152c-13.39,7.567-25.958,25.375-34.481,48.858c-2.771,7.635-5.049,15.624-6.813,23.814
			c12.689-1.717,24.677-4.677,35.271-8.38c28.969-10.126,49.021-26.121,51.086-40.75c1.083-7.669-2.976-14.824-12.063-21.267
			C851.72,2792.772,845.612,2790.627,839.496,2790.627z M720.033,2510.879c-45.673,0-72.729,32.623-85.913,55.009
			c-24.263,41.194-33.159,101.143-22.388,158.005c25.643-3.211,47.942-12.261,63.807-20.487
			c64.954-33.685,116.447-101.413,112.443-147.897c-1.666-19.339-12.937-32.444-33.5-38.953
			C741.983,2512.599,730.513,2510.879,720.033,2510.879z"/>
	</g>
	<g id="tick_1_">
		
			<linearGradient id="SVGID_00000115501257981350492940000011597353386364553136_" gradientUnits="userSpaceOnUse" x1="3292.1521" y1="1377.1857" x2="3822.7661" y2="1377.1857">
			<stop  offset="0" style="stop-color:#E2323A"/>
			<stop  offset="1" style="stop-color:#C92B2F"/>
		</linearGradient>
		
			<circle style="fill:url(#SVGID_00000115501257981350492940000011597353386364553136_);" cx="3557.459" cy="1377.186" r="265.307"/>
		<polygon style="fill:#FFFFFF;" points="3392.445,1366.147 3422.206,1338.551 3517.005,1442.062 3692.708,1252.583 
			3722.473,1280.182 3516.979,1501.788 		"/>
	</g>
</g>
<g id="test">
	<rect x="1864.628" y="953.949" style="fill:#FFFFFF;" width="1338.009" height="1583.602"/>
	<g>
		<path d="M2336.807,1028.957c0-12.825,9.885-22.397,23.335-22.397c13.326,0,23.21,9.509,23.21,22.397
			c0,12.888-9.884,22.397-23.21,22.397C2346.691,1051.354,2336.807,1041.782,2336.807,1028.957z M2377.096,1028.957
			c0-9.697-7.257-16.829-16.954-16.829c-9.821,0-17.079,7.132-17.079,16.829c0,9.697,7.258,16.829,17.079,16.829
			C2369.839,1045.786,2377.096,1038.654,2377.096,1028.957z"/>
		<path d="M2430.587,1007.06v43.793h-5.13l-26.275-32.657v32.657h-6.256v-43.793h5.13l26.275,32.657v-32.657H2430.587z"/>
		<path d="M2443.727,1007.06h6.256v38.35h23.711v5.443h-29.967V1007.06z"/>
		<path d="M2480.888,1007.06h6.256v43.793h-6.256V1007.06z"/>
		<path d="M2537.943,1007.06v43.793h-5.13l-26.275-32.657v32.657h-6.256v-43.793h5.13l26.275,32.657v-32.657H2537.943z"/>
		<path d="M2582.863,1045.41v5.443h-31.78v-43.793h30.904v5.443h-24.648v13.451h21.959v5.318h-21.959v14.139H2582.863z"/>
		<path d="M2618.524,1012.503h-15.015v-5.443h36.223v5.443h-15.015v38.35h-6.193V1012.503z"/>
		<path d="M2678.333,1045.41v5.443h-31.78v-43.793h30.904v5.443h-24.648v13.451h21.959v5.318h-21.959v14.139H2678.333z"/>
		<path d="M2684.466,1045.848l2.314-4.88c3.253,2.941,8.821,5.068,14.451,5.068c7.57,0,10.823-2.94,10.823-6.756
			c0-10.698-26.525-3.941-26.525-20.208c0-6.756,5.255-12.512,16.766-12.512c5.131,0,10.448,1.376,14.076,3.878l-2.064,5.005
			c-3.815-2.44-8.133-3.566-12.012-3.566c-7.444,0-10.635,3.128-10.635,6.944c0,10.698,26.525,4.004,26.525,20.082
			c0,6.694-5.38,12.45-16.954,12.45C2694.538,1051.354,2687.969,1049.101,2684.466,1045.848z"/>
		<path d="M2735.391,1012.503h-15.015v-5.443h36.223v5.443h-15.015v38.35h-6.193V1012.503z"/>
	</g>
	<g>
		<path d="M1864.992,1109.54h1338.009H1864.992z"/>
		<g>
			<path d="M3203.001,1113.04H1864.992c-1.933,0-3.5-1.567-3.5-3.5s1.567-3.5,3.5-3.5h1338.009c1.933,0,3.5,1.567,3.5,3.5
				S3204.934,1113.04,3203.001,1113.04z"/>
		</g>
	</g>
	<g>
		<circle cx="2014.753" cy="1018.809" r="16.033"/>
		<circle cx="1967.384" cy="1018.809" r="16.033"/>
		<circle cx="1922.929" cy="1018.809" r="16.033"/>
	</g>
	<g>
		<g>
			<path d="M1968.146,1223.867v43.793h-6.194v-38.35h-9.884v-5.443H1968.146z"/>
			<path d="M1977.593,1263.718c0-2.502,1.939-4.254,4.254-4.254c2.252,0,4.129,1.751,4.129,4.254c0,2.503-1.877,4.317-4.129,4.317
				C1979.532,1268.035,1977.593,1266.221,1977.593,1263.718z"/>
		</g>
		<g>
			<path d="M1999.085,1283.715h988.203H1999.085z"/>
			<g>
				<path d="M2987.287,1287.214h-988.202c-1.933,0-3.5-1.567-3.5-3.5s1.567-3.5,3.5-3.5h988.202c1.933,0,3.5,1.567,3.5,3.5
					S2989.22,1287.214,2987.287,1287.214z"/>
			</g>
		</g>
	</g>
	<g>
		<g>
			<path d="M1997.012,1760.691v5.443h-31.469v-4.254l17.83-17.205c4.63-4.504,5.506-7.257,5.506-10.01
				c0-4.504-3.191-7.257-9.322-7.257c-4.691,0-8.508,1.501-11.198,4.754l-4.254-3.691c3.378-4.192,9.196-6.631,16.016-6.631
				c9.134,0,15.015,4.692,15.015,12.199c0,4.254-1.251,8.07-7.194,13.763l-13.389,12.888H1997.012z"/>
			<path d="M2002.642,1762.193c0-2.502,1.939-4.254,4.254-4.254c2.252,0,4.129,1.751,4.129,4.254s-1.877,4.317-4.129,4.317
				C2004.581,1766.51,2002.642,1764.695,2002.642,1762.193z"/>
		</g>
		<g>
			<path d="M2010.745,1782.189h988.203H2010.745z"/>
			<g>
				<path d="M2998.948,1785.688h-988.203c-1.933,0-3.5-1.567-3.5-3.5s1.567-3.5,3.5-3.5h988.203c1.933,0,3.5,1.567,3.5,3.5
					S3000.881,1785.688,2998.948,1785.688z"/>
			</g>
		</g>
	</g>
	<g>
		<path d="M2211.519,1916.919h781.598H2211.519z"/>
		<g>
			<path d="M2993.117,1920.418H2211.52c-1.933,0-3.5-1.567-3.5-3.5c0-1.933,1.567-3.5,3.5-3.5h781.598c1.933,0,3.5,1.567,3.5,3.5
				C2996.617,1918.851,2995.05,1920.418,2993.117,1920.418z"/>
		</g>
	</g>
	<g>
		<path d="M2202.045,1406.785h791.072H2202.045z"/>
		<g>
			<path d="M2993.117,1410.285h-791.072c-1.933,0-3.5-1.567-3.5-3.5c0-1.933,1.567-3.5,3.5-3.5h791.072c1.933,0,3.5,1.567,3.5,3.5
				C2996.617,1408.718,2995.05,1410.285,2993.117,1410.285z"/>
		</g>
	</g>
	<g>
		<path d="M2202.045,1519.743h791.072H2202.045z"/>
		<g>
			<path d="M2993.117,1523.243h-791.072c-1.933,0-3.5-1.567-3.5-3.5s1.567-3.5,3.5-3.5h791.072c1.933,0,3.5,1.567,3.5,3.5
				S2995.05,1523.243,2993.117,1523.243z"/>
		</g>
	</g>
	<g>
		<path d="M2202.045,1649.645h791.072H2202.045z"/>
		<g>
			<path d="M2993.117,1653.145h-791.072c-1.933,0-3.5-1.567-3.5-3.5s1.567-3.5,3.5-3.5h791.072c1.933,0,3.5,1.567,3.5,3.5
				S2995.05,1653.145,2993.117,1653.145z"/>
		</g>
	</g>
	<g>
		<path d="M2211.519,2022.589h781.598H2211.519z"/>
		<g>
			<path d="M2993.117,2026.089H2211.52c-1.933,0-3.5-1.567-3.5-3.5s1.567-3.5,3.5-3.5h781.598c1.933,0,3.5,1.567,3.5,3.5
				S2995.05,2026.089,2993.117,2026.089z"/>
		</g>
	</g>
	<g>
		<path d="M2211.519,2146.752h781.598H2211.519z"/>
		<g>
			<path d="M2993.117,2150.252H2211.52c-1.933,0-3.5-1.567-3.5-3.5s1.567-3.5,3.5-3.5h781.598c1.933,0,3.5,1.567,3.5,3.5
				S2995.05,2150.252,2993.117,2150.252z"/>
		</g>
	</g>
	<g>
		<g>
			<path d="M2052.284,1410.375h-58.301c-1.933,0-3.5-1.567-3.5-3.5v-58.301c0-1.933,1.567-3.5,3.5-3.5h58.301
				c1.933,0,3.5,1.567,3.5,3.5v58.301C2055.784,1408.809,2054.217,1410.375,2052.284,1410.375z M1997.483,1403.375h51.301v-51.301
				h-51.301V1403.375z"/>
		</g>
		<g>
			<path d="M2052.284,1524.063h-58.301c-1.933,0-3.5-1.567-3.5-3.5v-58.301c0-1.933,1.567-3.5,3.5-3.5h58.301
				c1.933,0,3.5,1.567,3.5,3.5v58.301C2055.784,1522.496,2054.217,1524.063,2052.284,1524.063z M1997.483,1517.063h51.301v-51.301
				h-51.301V1517.063z"/>
		</g>
		<g>
			<path d="M2052.284,1645.766h-58.301c-1.933,0-3.5-1.567-3.5-3.5v-58.301c0-1.933,1.567-3.5,3.5-3.5h58.301
				c1.933,0,3.5,1.567,3.5,3.5v58.301C2055.784,1644.199,2054.217,1645.766,2052.284,1645.766z M1997.483,1638.766h51.301v-51.301
				h-51.301V1638.766z"/>
		</g>
	</g>
	<g>
		<g>
			<path d="M2070.504,1915.408h-58.302c-1.933,0-3.5-1.567-3.5-3.5v-58.301c0-1.933,1.567-3.5,3.5-3.5h58.302
				c1.933,0,3.5,1.567,3.5,3.5v58.301C2074.004,1913.841,2072.437,1915.408,2070.504,1915.408z M2015.702,1908.408h51.302v-51.301
				h-51.302V1908.408z"/>
		</g>
		<g>
			<path d="M2070.504,2029.096h-58.302c-1.933,0-3.5-1.567-3.5-3.5v-58.301c0-1.933,1.567-3.5,3.5-3.5h58.302
				c1.933,0,3.5,1.567,3.5,3.5v58.301C2074.004,2027.529,2072.437,2029.096,2070.504,2029.096z M2015.702,2022.096h51.302v-51.301
				h-51.302V2022.096z"/>
		</g>
		<g>
			<path d="M2070.504,2150.799h-58.302c-1.933,0-3.5-1.567-3.5-3.5v-58.301c0-1.933,1.567-3.5,3.5-3.5h58.302
				c1.933,0,3.5,1.567,3.5,3.5v58.301C2074.004,2149.232,2072.437,2150.799,2070.504,2150.799z M2015.702,2143.799h51.302v-51.301
				h-51.302V2143.799z"/>
		</g>
	</g>
	<g>
		
			<linearGradient id="SVGID_00000141418903069035527260000007223045978227227046_" gradientUnits="userSpaceOnUse" x1="2664.8098" y1="2350.9883" x2="3083.1199" y2="2350.9883">
			<stop  offset="0" style="stop-color:#E2323A"/>
			<stop  offset="1" style="stop-color:#C92B2F"/>
		</linearGradient>
		<path style="fill:url(#SVGID_00000141418903069035527260000007223045978227227046_);" d="M3021.688,2450.829h-295.447
			c-33.928,0-61.432-27.504-61.432-61.432v-76.818c0-33.928,27.504-61.432,61.432-61.432h295.447
			c33.928,0,61.432,27.504,61.432,61.432v76.818C3083.12,2423.325,3055.616,2450.829,3021.688,2450.829z"/>
		<g>
			<path style="fill:#FFFFFF;" d="M2811.785,2324.261v53.214h-6.234l-31.928-39.682v39.682h-7.602v-53.214h6.233l31.928,39.683
				v-39.683H2811.785z"/>
			<path style="fill:#FFFFFF;" d="M2866.369,2370.862v6.613h-38.617v-53.214h37.553v6.614h-29.951v16.344h26.683v6.462h-26.683
				v17.181H2866.369z"/>
			<path style="fill:#FFFFFF;" d="M2911.527,2377.475l-15.964-21.97l-15.736,21.97h-8.742l19.993-27.291l-18.777-25.923h8.667
				l14.899,20.449l14.748-20.449h8.286l-18.777,25.695l20.146,27.519H2911.527z"/>
			<path style="fill:#FFFFFF;" d="M2937.527,2330.875h-18.245v-6.614h44.016v6.614h-18.245v46.6h-7.525V2330.875z"/>
		</g>
		<g>
			<path style="fill:#FFFFFF;" d="M3010.97,2388.011c-0.739,0-1.484-0.233-2.118-0.716c-1.538-1.172-1.834-3.368-0.663-4.905
				l21.644-28.407l-21.565-26.281c-1.226-1.494-1.009-3.699,0.486-4.926c1.493-1.226,3.699-1.009,4.926,0.486l23.32,28.421
				c1.028,1.254,1.062,3.051,0.078,4.341l-23.32,30.608C3013.068,2387.537,3012.025,2388.011,3010.97,2388.011z"/>
		</g>
	</g>
	<g>
		<g>
			<path d="M2039.288,1356.712l-31.985,41.297L2039.288,1356.712z"/>
			<path style="fill:#CD2C31;" d="M2007.301,1401.509c-0.748,0-1.503-0.239-2.141-0.733c-1.527-1.184-1.808-3.382-0.624-4.91
				l31.984-41.296c1.185-1.528,3.382-1.809,4.911-0.624c1.527,1.184,1.808,3.382,0.624,4.91l-31.984,41.296
				C2009.381,1401.042,2008.347,1401.509,2007.301,1401.509z"/>
		</g>
		<g>
			<path d="M2041.717,1393.96l-36.438-34.819L2041.717,1393.96z"/>
			<path style="fill:#CD2C31;" d="M2041.717,1397.46c-0.868,0-1.739-0.322-2.417-0.97l-36.438-34.819
				c-1.397-1.335-1.448-3.551-0.112-4.948c1.335-1.396,3.551-1.448,4.948-0.112l36.438,34.819c1.397,1.335,1.448,3.551,0.112,4.948
				C2043.561,1397.098,2042.64,1397.46,2041.717,1397.46z"/>
		</g>
	</g>
	<g>
		<g>
			<path d="M2057.507,1976.161l-31.984,41.297L2057.507,1976.161z"/>
			<path style="fill:#CD2C31;" d="M2025.52,2020.958c-0.748,0-1.503-0.239-2.141-0.733c-1.527-1.184-1.808-3.382-0.624-4.91
				l31.984-41.296c1.185-1.528,3.382-1.809,4.911-0.624c1.527,1.184,1.808,3.382,0.624,4.91l-31.984,41.296
				C2027.6,2020.491,2026.565,2020.958,2025.52,2020.958z"/>
		</g>
		<g>
			<path d="M2059.936,2013.409l-36.438-34.819L2059.936,2013.409z"/>
			<path style="fill:#CD2C31;" d="M2059.936,2016.909c-0.868,0-1.739-0.322-2.417-0.97l-36.438-34.819
				c-1.397-1.335-1.448-3.551-0.112-4.948c1.335-1.396,3.551-1.448,4.948-0.112l36.438,34.819c1.397,1.335,1.448,3.551,0.112,4.948
				C2061.779,2016.547,2060.858,2016.909,2059.936,2016.909z"/>
		</g>
	</g>
	<g>
		<path d="M2160.306,1390.311h-35.563l-7.36,16.729h-9.847l30.304-66.917h9.465l30.399,66.917h-10.038L2160.306,1390.311z
			 M2156.96,1382.664l-14.436-32.79l-14.435,32.79H2156.96z"/>
	</g>
	<g>
		<path d="M2175.219,1494.643c0,11.472-8.699,18.068-25.62,18.068h-31.929v-66.917h30.017c15.392,0,23.995,6.5,23.995,17.303
			c0,7.265-3.729,12.332-8.986,14.913C2170.247,1480.112,2175.219,1485.752,2175.219,1494.643z M2127.229,1453.536v21.414h19.597
			c9.751,0,15.296-3.632,15.296-10.707s-5.545-10.707-15.296-10.707H2127.229z M2165.563,1493.878
			c0-7.743-5.736-11.185-16.348-11.185h-21.986v22.274h21.986C2159.827,1504.967,2165.563,1501.621,2165.563,1493.878z"/>
	</g>
	<g>
		<path d="M2112.221,1608.974c0-19.789,15.104-34.224,35.466-34.224c10.324,0,19.311,3.537,25.429,10.42l-6.214,6.022
			c-5.162-5.449-11.472-7.935-18.832-7.935c-15.104,0-26.289,10.898-26.289,25.716c0,14.817,11.185,25.715,26.289,25.715
			c7.36,0,13.67-2.581,18.832-8.03l6.214,6.022c-6.118,6.883-15.104,10.516-25.524,10.516
			C2127.324,1643.197,2112.221,1628.762,2112.221,1608.974z"/>
	</g>
	<g>
		<path d="M2168.322,1890.972h-35.563l-7.36,16.729h-9.847l30.304-66.917h9.465l30.399,66.917h-10.038L2168.322,1890.972z
			 M2164.977,1883.325l-14.436-32.79l-14.435,32.79H2164.977z"/>
	</g>
	<g>
		<path d="M2183.235,1995.306c0,11.472-8.699,18.068-25.62,18.068h-31.929v-66.917h30.017c15.392,0,23.995,6.5,23.995,17.303
			c0,7.265-3.729,12.332-8.986,14.913C2178.264,1980.775,2183.235,1986.416,2183.235,1995.306z M2135.246,1954.199v21.414h19.597
			c9.751,0,15.296-3.632,15.296-10.707s-5.545-10.707-15.296-10.707H2135.246z M2173.58,1994.541
			c0-7.743-5.736-11.185-16.348-11.185h-21.986v22.274h21.986C2167.844,2005.63,2173.58,2002.284,2173.58,1994.541z"/>
	</g>
	<g>
		<path d="M2120.237,2109.635c0-19.789,15.104-34.224,35.466-34.224c10.324,0,19.311,3.537,25.429,10.42l-6.214,6.022
			c-5.162-5.449-11.472-7.935-18.832-7.935c-15.104,0-26.289,10.898-26.289,25.716c0,14.817,11.185,25.715,26.289,25.715
			c7.36,0,13.67-2.581,18.832-8.03l6.214,6.022c-6.118,6.883-15.104,10.516-25.524,10.516
			C2135.341,2143.858,2120.237,2129.423,2120.237,2109.635z"/>
	</g>
</g>
<g id="woman">
	
		<linearGradient id="SVGID_00000111891210200402293310000013485359971345236403_" gradientUnits="userSpaceOnUse" x1="-437.7466" y1="3270.5364" x2="-500.8027" y2="3296.887" gradientTransform="matrix(-1 0 0 1 1724.4143 0)">
		<stop  offset="0" style="stop-color:#FFAB93"/>
		<stop  offset="0.2558" style="stop-color:#FFA78F"/>
		<stop  offset="0.5307" style="stop-color:#FF9A84"/>
		<stop  offset="0.8136" style="stop-color:#FF8471"/>
		<stop  offset="1" style="stop-color:#FF7261"/>
	</linearGradient>
	<path style="fill:url(#SVGID_00000111891210200402293310000013485359971345236403_);" d="M2169.603,3223.29l-66.864,39.302
		c0,0,6.51,33.89,30.15,45.943c23.64,12.053,62.969,2.034,86.5-8.424L2169.603,3223.29z"/>
	
		<linearGradient id="SVGID_00000045619619331810891980000006889737241332229556_" gradientUnits="userSpaceOnUse" x1="-1889.04" y1="2644.7688" x2="-1369.2847" y2="2644.7688" gradientTransform="matrix(-1 0 0 1 1724.4143 0)">
		<stop  offset="0" style="stop-color:#E2323A"/>
		<stop  offset="1" style="stop-color:#C92B2F"/>
	</linearGradient>
	<path style="fill:url(#SVGID_00000045619619331810891980000006889737241332229556_);" d="M3107.423,2736.857
		c0,0,29.103-22.976,50.547-15.317c21.444,7.659,93.434,13.786,93.434,13.786l0.092-0.127c-0.529-0.289-0.82-0.448-0.82-0.448
		c217.502-333.912,362.779-385.885,362.779-385.885s-109.384,365.783-177.674,443.917c-6.621,37.64-18.164,85.736-35.801,103.372
		c-30.634,30.634-64.332,55.142-127.132,39.824c-51.312-12.515-165.425-71.99-176.146-110.283
		C3085.979,2787.404,3107.423,2736.857,3107.423,2736.857z"/>
	<path style="fill:#131313;" d="M3902.637,2077.813c11.73,92.941,59.244,643.689-47.93,627.885
		c-107.175-15.803-336.12-646.175-332.933-705.931c4.162-78.046,121.744-139.231,227.894-117.589
		C3856.85,1904.031,3889.109,1970.63,3902.637,2077.813z"/>
	
		<linearGradient id="SVGID_00000090271919403386993730000017434727671651800239_" gradientUnits="userSpaceOnUse" x1="-1774.168" y1="3193.2266" x2="-901.0831" y2="3193.2266" gradientTransform="matrix(-1 0 0 1 1724.4143 0)">
		<stop  offset="0.124" style="stop-color:#1555BA"/>
		<stop  offset="0.3278" style="stop-color:#1350B5"/>
		<stop  offset="0.5757" style="stop-color:#0E41A8"/>
		<stop  offset="0.8453" style="stop-color:#062891"/>
		<stop  offset="1" style="stop-color:#001781"/>
	</linearGradient>
	<path style="fill:url(#SVGID_00000090271919403386993730000017434727671651800239_);" d="M2625.497,3126.971l13.896,40.031
		l29.802,85.908l5.011,14.453l4.915,14.175l24.5,70.595l40.757,6.791l51.143,8.522l48.056-7.892l61.953-10.18l1.803-0.302
		c1.247,1.101,2.506,2.191,3.777,3.268c1.889,1.61,3.813,3.196,5.738,4.733c0.133,0.121,0.278,0.23,0.412,0.327
		c0.835,0.69,1.682,1.356,2.53,2.022c28.797,22.515,61.008,38.578,92.529,50.029c3.631,1.32,7.263,2.578,10.87,3.789
		c26.304,8.752,51.809,14.417,74.045,18.06c43.856,7.202,75.086,6.61,75.086,6.61h284.899l1.622-5.798l0.218-0.812l4.37-15.651
		l1.731-6.198l25.65-91.888l3.171-11.366l4.6-16.475l-25.747-10.991l-13.788-5.871l-760.026-324.325L2625.497,3126.971z"/>
	<g>
		<path style="fill:#00216A;" d="M2911.925,3362.103c-2.675,0-4.991-1.994-5.327-4.717c-0.122-0.994-12.503-100.136-38.109-185.99
			c-0.848-2.844,0.77-5.836,3.615-6.687c2.857-0.85,5.84,0.777,6.687,3.615c25.868,86.739,38.354,186.749,38.476,187.747
			c0.362,2.946-1.732,5.63-4.678,5.99C2912.366,3362.088,2912.144,3362.103,2911.925,3362.103z"/>
		<path style="fill:#4E289E;" d="M2911.925,3362.451c-2.881,0-5.319-2.159-5.673-5.021c-0.121-0.99-12.444-99.923-38.097-185.934
			c-0.901-3.021,0.825-6.216,3.849-7.12c3.026-0.901,6.218,0.827,7.12,3.849c25.842,86.653,38.365,186.803,38.488,187.804
			c0.187,1.518-0.229,3.017-1.17,4.222c-0.941,1.205-2.295,1.971-3.813,2.156
			C2912.396,3362.436,2912.158,3362.451,2911.925,3362.451z M2873.636,3164.833c-0.475,0-0.956,0.067-1.433,0.21
			c-2.655,0.794-4.172,3.599-3.38,6.253c25.669,86.066,37.999,185.058,38.12,186.048c0.335,2.716,2.825,4.726,5.601,4.37
			c1.334-0.163,2.522-0.836,3.349-1.894c0.827-1.059,1.191-2.375,1.028-3.708c-0.123-1-12.639-101.092-38.465-187.689
			C2877.807,3166.246,2875.802,3164.833,2873.636,3164.833z"/>
	</g>
	<g>
		
			<linearGradient id="SVGID_00000071524247257292716200000017847735104849494915_" gradientUnits="userSpaceOnUse" x1="1845.075" y1="3416.9902" x2="2261.5173" y2="3416.9902">
			<stop  offset="0.124" style="stop-color:#1555BA"/>
			<stop  offset="0.3278" style="stop-color:#1350B5"/>
			<stop  offset="0.5757" style="stop-color:#0E41A8"/>
			<stop  offset="0.8453" style="stop-color:#062891"/>
			<stop  offset="1" style="stop-color:#001781"/>
		</linearGradient>
		<path style="fill:url(#SVGID_00000071524247257292716200000017847735104849494915_);" d="M1845.075,3403.687v5.762l0.012,20.881
			c0,0.351,0.097,0.69,0.278,0.968c0.327,0.521,0.896,0.872,1.549,0.872l412.763-0.06c0.629,0,1.198-0.327,1.525-0.812
			c0.194-0.29,0.315-0.642,0.315-1.017v-26.642c0-1.005-0.823-1.828-1.84-1.828l-100.628,0.012h-49.315l-262.82,0.036
			C1845.91,3401.859,1845.075,3402.683,1845.075,3403.687z"/>
		<path style="fill:#D3323A;" d="M1843.767,3406.75c0.484,1.017,0.932,1.888,1.307,2.591c0.024,0.036,0.048,0.073,0.06,0.109
			c0.666,1.223,1.077,1.901,1.077,1.901s143.915,1.15,260.073,1.573c7.698,0.024,15.276,0.049,22.684,0.073
			c1.755,0,3.498,0,5.229,0.012c1.429,0,2.845,0,4.249,0.012c56.154,0.133,100.7,0.012,110.372-0.593
			c3.317-0.206,6.016-1.368,8.183-2.978c0.194-0.133,0.375-0.278,0.557-0.424c1.622-1.307,2.929-2.857,3.958-4.394
			c2.615-3.886,3.535-7.747,3.535-7.747l4.927-20.469c0.872-5.798,1.549-11.669,2.058-17.54c0.932-10.592,1.32-21.172,1.283-31.376
			c0-1.053,0-2.106-0.012-3.159c-0.024-2.542-0.085-5.048-0.158-7.529c-0.072-2.336-0.169-4.661-0.278-6.936
			c-0.036-0.884-0.085-1.756-0.145-2.615c-0.097-1.828-0.206-3.619-0.327-5.399c-0.727-10.083-1.804-19.331-3.075-27.224
			c-6.997-1.417-13.279-0.133-20.397,2.675c-3.232,1.283-6.633,2.869-10.349,4.66c-7.287,3.522-15.809,7.832-26.631,12.093
			c-2.034,0.799-4.14,1.573-6.307,2.312c-38.82,13.255-96.56,15.409-95.156-43.674c0.024-1.187,0.339-14.55-12.262-16.45
			c-10.241,2.771-31.097,9.188-54.581,20.76c-5.738,2.821-11.633,5.956-17.576,9.417c-0.521,0.303-1.041,0.605-1.562,0.92
			c-3.631,2.155-7.094,4.188-10.41,6.137c-6.246,3.667-11.984,6.984-17.358,10.022c-4.6,2.603-8.934,5-13.073,7.227
			c-6.27,3.365-12.093,6.355-17.77,9.079c-24.597,11.814-46.361,18.787-88.656,31.581
			C1820.938,3348.441,1836.807,3392.406,1843.767,3406.75z"/>
		<path style="fill:#FFFFFF;" d="M2271.975,3297.359c0.848,9.216,1.388,19.734,1.342,30.136
			c-53.167,5.203-103.24,36.917-118.531,85.555c-15.227-0.023-31.563-0.067-48.503-0.129
			C2125.089,3341.338,2200.146,3300.118,2271.975,3297.359z"/>
		<path style="fill:#FFFFFF;" d="M2027.041,3268.308l24.855,35.281c3.031,4.542,9.35,5.858,14.042,2.925l0,0
			c4.693-2.933,6.053-9.049,3.022-13.591l-24.855-35.281c-3.031-4.542-9.35-5.858-14.042-2.925l0,0
			C2025.371,3257.65,2024.011,3263.766,2027.041,3268.308z"/>
		<path style="fill:#FFFFFF;" d="M1997.419,3284.695l24.855,35.281c3.031,4.542,9.35,5.858,14.042,2.925l0,0
			c4.693-2.933,6.053-9.049,3.022-13.591l-24.855-35.281c-3.031-4.542-9.35-5.858-14.042-2.925l0,0
			C1995.749,3274.038,1994.388,3280.153,1997.419,3284.695z"/>
		<path style="fill:#FFFFFF;" d="M1966.95,3301.902l24.855,35.281c3.031,4.542,9.35,5.858,14.042,2.925l0,0
			c4.693-2.933,6.053-9.049,3.022-13.591l-24.855-35.281c-3.031-4.542-9.35-5.858-14.042-2.925l0,0
			C1965.28,3291.244,1963.92,3297.36,1966.95,3301.902z"/>
	</g>
	
		<linearGradient id="SVGID_00000142887285339578827500000012943826007436032131_" gradientUnits="userSpaceOnUse" x1="-1801.1394" y1="3144.4746" x2="-564.8801" y2="3107.7297" gradientTransform="matrix(-1 0 0 1 1724.4143 0)">
		<stop  offset="0.124" style="stop-color:#1555BA"/>
		<stop  offset="0.3278" style="stop-color:#1350B5"/>
		<stop  offset="0.5757" style="stop-color:#0E41A8"/>
		<stop  offset="0.8453" style="stop-color:#062891"/>
		<stop  offset="1" style="stop-color:#001781"/>
	</linearGradient>
	<path style="fill:url(#SVGID_00000142887285339578827500000012943826007436032131_);" d="M2152.211,3193.221
		c3.014,36.242,27.199,73.137,53.431,103.157c3.304,3.789,6.646,7.469,9.986,11.028c9.2,9.805,18.351,18.653,26.655,26.243
		c13.085,11.96,24.04,20.772,29.754,25.227c2.711,2.094,4.237,3.22,4.237,3.22s254.274-133.02,363.121-195.094
		c27.236-15.53,45.381-26.618,48.141-30.068c2.905-3.631,5.75-6.089,8.449-7.711c3.583-2.143,6.887-2.82,9.659-2.784
		c5.036,0.06,8.316,2.445,8.316,2.445s86.549,63.55,174.164,121.036c4.237,2.772,8.473,5.544,12.698,8.28
		c34.995,22.684,69.494,43.856,98.037,59.084c66.988,35.733,125.321,69.663,210.588,92.166c6.464,1.707,13.085,3.341,19.876,4.915
		c31.521,7.287,66.722,13.073,107.14,16.935c13.255,1.259,27.066,2.324,41.495,3.16c29.56,1.719,56.445,0.714,80.884-2.348
		c2.022-0.254,4.019-0.521,6.004-0.812c23.665-3.353,44.958-8.655,64.083-15.288c5.956-2.07,11.693-4.261,17.237-6.561
		c67.424-28.059,104.574-72.484,122.114-99.611c9.139-14.126,12.952-23.568,12.952-23.568l34.463-37.912l-236.516-109.161
		l-32.295-14.901c0,0-61.892-26.582-148.369-63.587c-8.582-3.668-17.407-7.445-26.437-11.306
		c-9.429-4.031-19.077-8.159-28.918-12.359c-50.623-21.643-106.087-45.308-160.728-68.562
		c-48.347-20.578-96.04-40.817-139.169-59.047c-25.82-10.906-49.993-21.087-71.697-30.177c-0.823-0.351-1.646-0.69-2.469-1.029
		c-12.081-5.072-23.387-9.781-33.736-14.09c-31.279-12.989-53.963-22.212-63.962-25.892c-14.683-5.411-29.197-8.909-43.25-10.858
		c-9.297-1.283-18.387-1.901-27.212-1.925c-37.392-0.121-69.881,10.144-91.512,23.12
		C2574.96,2869.259,2152.211,3193.221,2152.211,3193.221z"/>
	
		<linearGradient id="SVGID_00000160870596754515232590000015247204020200038809_" gradientUnits="userSpaceOnUse" x1="3065.5728" y1="2357.6765" x2="3066.4954" y2="3280.3433" gradientTransform="matrix(1 0 0 1 544.3104 0)">
		<stop  offset="0.111" style="stop-color:#E2323A"/>
		<stop  offset="0.119" style="stop-color:#E1323A"/>
		<stop  offset="0.403" style="stop-color:#CE2D31"/>
		<stop  offset="0.694" style="stop-color:#C32A2C"/>
		<stop  offset="1" style="stop-color:#BF292A"/>
	</linearGradient>
	<path style="fill:url(#SVGID_00000160870596754515232590000015247204020200038809_);" d="M3291.796,3074.895
		c0,0,202.395,207.839,341.571,232.819c59.737,10.722,87.885-13.38,108.751-62.8c58.205-137.854,182.216-398.766,186.428-563.425
		c5.289-206.742-38.151-253.247-117.417-325.62c-79.266-72.373-198.823-0.111-198.823-0.111s-143.799,70.425-192.995,334.295
		C3381.401,2893.387,3291.796,3074.895,3291.796,3074.895z"/>
	<path style="fill:#FFFFFF;" d="M3662.469,2344.27c0,0-45.951,7.658-102.625,119.473s-156.234,487.083-171.551,546.819
		s94.966,56.673,94.966,56.673s99.561-516.185,223.629-703.053L3662.469,2344.27z"/>
	<g>
		<path style="fill:#E2323A;" d="M3543.023,2416.299c68.014-51.355,133.175-134.2,133.175-134.2l-11.269-19.464l-70.084,19.191
			l-89.259,119.565c-1.718,2.263-0.658,5.544,2.059,6.375l31.28,9.558L3543.023,2416.299z"/>
		<path style="fill:#A22026;" d="M3538.926,2359.955c-2.213,4.748-4.776,9.208-7.455,13.573c-2.647,4.39-5.518,8.599-8.404,12.794
			c-2.917,4.171-5.966,8.235-9.098,12.234l-2.361,2.99l-2.227,2.734c0.309-0.483-0.102-0.892-0.413-0.844l-3.096,0.164
			c8.371-3.33,16.87-6.362,25.413-9.289c8.569-2.865,17.209-5.564,26.08-7.722c-7.702,4.901-15.635,9.26-23.639,13.453
			c-8.03,4.131-16.104,8.158-24.306,11.886l-1.354,0.615l-1.743-0.451c-2.575-0.667-4.835-2.778-5.74-5.316
			c-0.973-2.528-0.651-5.584,0.96-7.904l0.299-0.428l0.148-0.187l0.296-0.375l0.592-0.749l1.189-1.495l2.422-2.954
			c3.245-3.927,6.573-7.789,10.033-11.543c3.491-3.73,6.997-7.448,10.727-10.983
			C3530.948,2366.6,3534.761,2363.133,3538.926,2359.955z"/>
	</g>
	
		<linearGradient id="SVGID_00000059998457208961535630000001359050702185953671_" gradientUnits="userSpaceOnUse" x1="-1840.7489" y1="2524.4141" x2="-1840.144" y2="3129.1633" gradientTransform="matrix(-1 0 0 1 1724.4143 0)">
		<stop  offset="0" style="stop-color:#E2323A"/>
		<stop  offset="1" style="stop-color:#C92B2F"/>
	</linearGradient>
	<path style="fill:url(#SVGID_00000059998457208961535630000001359050702185953671_);" d="M3276.076,2953.25
		c0,0,223.796,21.094,267.303,5.273c3.872-1.408,9.202-7.141,14.934-14.787c3.837-9.43,73.342-180.765,82.957-242.298
		c9.888-63.282,65.26-223.466,231.377-195.78c0,0,44.576,105.054-16.729,296.879c-55.208,172.748-101.68,233.623-101.68,233.623
		s-27.722,36.34-27.841,36.314c-30.482,25.35-91.703,69.98-116.207,75.05c-32.661,6.758-255.01-12.338-368.391-78.257
		C3241.798,3069.268,3235.206,3013.896,3276.076,2953.25z"/>
	<path style="fill:#A22026;" d="M3261.899,2730.83c10.432,3.685,19.737,8.148,29.041,13.238
		c9.207,5.108,18.012,10.911,26.237,17.429c8.133,6.658,15.571,14.125,21.97,22.358c6.258,8.383,11.033,17.703,14.313,27.413
		c-4.405-9.296-10.114-17.759-17.046-25.097c-7.086-7.194-14.979-13.445-23.409-18.849c-8.533-5.27-17.492-9.774-26.726-13.57
		c-9.165-3.733-18.902-7.007-28.126-9.09l-0.228-0.052c-3.87-0.874-6.3-4.719-5.426-8.59c0.874-3.87,4.72-6.299,8.59-5.426
		C3261.353,2730.656,3261.649,2730.744,3261.899,2730.83z"/>
	<g>
		<path style="fill:#FF7261;" d="M2950.849,2772.962c0,0-18.293,29.55-12.664,37.993s22.514,15.479,37.993-9.85
			C2991.656,2775.777,2964.92,2767.334,2950.849,2772.962z"/>
		<polygon style="fill:#FF7261;" points="3022.614,2765.927 3049.35,2809.548 3121.114,2826.434 3123.929,2770.148 
			3085.936,2729.341 		"/>
		
			<linearGradient id="SVGID_00000097499557535318573510000006453175106318451130_" gradientUnits="userSpaceOnUse" x1="2524.8464" y1="2771.6277" x2="2661.22" y2="2828.6167" gradientTransform="matrix(1 0 0 1 544.3104 0)">
			<stop  offset="0" style="stop-color:#FFAB93"/>
			<stop  offset="0.2558" style="stop-color:#FFA78F"/>
			<stop  offset="0.5307" style="stop-color:#FF9A84"/>
			<stop  offset="0.8136" style="stop-color:#FF8471"/>
			<stop  offset="1" style="stop-color:#FF7261"/>
		</linearGradient>
		<path style="fill:url(#SVGID_00000097499557535318573510000006453175106318451130_);" d="M3032.464,2822.213
			c0,0,1.407,16.886,16.886,22.514c15.479,5.629,52.598,0.898,75.986,8.443c43.622,14.072,64.729-9.85,73.172-30.957
			c6.548-16.371-30.958-74.579-59.101-97.094s-46.436-26.736-59.1-29.55c-12.664-2.814-36.586-11.257-54.879-7.036
			s-43.622,36.586-43.622,36.586s-8.443-8.443-22.515,0s-30.957,59.1-28.143,67.543c2.814,8.443,22.515,16.886,30.958,1.407
			c0,0,19.7,30.958,39.4-5.628c0,0-8.443,19.7,0,26.736c8.443,7.036,30.958,14.072,46.436-18.293
			c15.479-32.365,22.514-32.365,22.514-32.365s8.443-8.443,21.107,0c12.664,8.443,19.7,32.365,19.7,32.365
			s-30.957,7.036-43.622,7.036C3054.978,2803.92,3033.871,2801.105,3032.464,2822.213z"/>
		<path style="fill:#FF655B;" d="M3000.093,2788.188c-0.836,0-1.685-0.196-2.477-0.609c-2.633-1.372-3.655-4.615-2.285-7.25
			c5.981-11.48,36.483-69.209,49.629-77.974c14.157-9.437,25.721-9.37,36.105-7.887c2.939,0.42,4.981,3.142,4.561,6.081
			c-0.42,2.939-3.154,4.976-6.079,4.563c-8.055-1.147-16.911-1.624-28.625,6.186c-8.385,5.591-32.701,48.355-46.057,73.999
			C3003.907,2787.134,3002.033,2788.188,3000.093,2788.188z"/>
		<path style="fill:#FF655B;" d="M2959.297,2795.224c-0.114,0-0.226-0.003-0.341-0.01c-2.962-0.186-5.213-2.736-5.028-5.7
			c1.457-23.338,20.84-62.337,21.664-63.985c1.328-2.656,4.556-3.73,7.209-2.404c2.656,1.326,3.732,4.556,2.406,7.211
			c-0.192,0.385-19.229,38.691-20.551,59.849C2964.478,2793.033,2962.112,2795.224,2959.297,2795.224z"/>
	</g>
	<g>
		<path style="fill:#BF2B38;" d="M2520.831,3308.014c0,0,3.885-27.467,81.122-48.147s240.279,10.238,261.394,21.595
			c21.115,11.357,53.974,39.921,53.197,65.948c-0.777,26.027-349.485,3.358-349.485,3.358L2520.831,3308.014z"/>
		
			<linearGradient id="SVGID_00000124846292126792432810000000731970616832455841_" gradientUnits="userSpaceOnUse" x1="2507.5513" y1="3343.5457" x2="2920.2778" y2="3343.5457">
			<stop  offset="0.124" style="stop-color:#1555BA"/>
			<stop  offset="0.3278" style="stop-color:#1350B5"/>
			<stop  offset="0.5757" style="stop-color:#0E41A8"/>
			<stop  offset="0.8453" style="stop-color:#062891"/>
			<stop  offset="1" style="stop-color:#001781"/>
		</linearGradient>
		<path style="fill:url(#SVGID_00000124846292126792432810000000731970616832455841_);" d="M2811.031,3296.198
			c-4.697,0.112-9.323,0.386-13.861,0.81c-13.524,1.263-27.062-0.911-39.543-6.012c-27.031-11.047-71.583-26-108.35-25.119
			c-86.68,2.077-133.362,19.158-141.198,58.613c-8.03,40.434,76.771,98.012,163.451,95.935c29.337-0.703,122.853,1.322,148.4,0.71
			c62.519-1.498,101.178-21.236,100.334-56.446C2919.421,3329.478,2873.55,3294.7,2811.031,3296.198z"/>
		<path style="fill:#7D7D7D;" d="M2510.223,3343.054c-0.581,21.934,23.653,47.814,59.398,66.395
			c0.835,0.448,1.682,0.884,2.542,1.307c18.521,9.321,39.958,16.668,62.546,20.542c12.892,2.228,26.159,3.317,39.474,3.002
			c29.33-0.702,122.852,1.319,148.393,0.702c13.957-0.339,26.727-1.586,38.13-3.704c19.707-3.668,35.346-9.95,46.01-18.702
			c1.235-1.017,2.397-2.058,3.498-3.147c8.546-8.352,12.989-18.69,12.698-30.892c-0.109-4.672-1.017-9.333-2.651-13.908
			c-0.835-2.337-1.852-4.636-3.063-6.912c-0.109-0.218-0.23-0.448-0.351-0.666c-1.053-1.949-2.251-3.861-3.571-5.75
			c-2.53-3.619-5.532-7.117-8.958-10.434c-19.15-18.593-51.664-31.751-90.641-30.819c-4.697,0.109-9.321,0.387-13.86,0.811
			c-13.521,1.259-27.054-0.908-39.547-6.016c-20.602-8.413-51.385-19.114-81.151-23.326c-9.272-1.319-18.46-1.997-27.2-1.792
			c-63.95,1.537-106.123,11.233-126.992,32.066c-7.42,7.396-12.141,16.208-14.199,26.546
			C2510.429,3339.907,2510.247,3341.468,2510.223,3343.054z"/>
	</g>
	<g>
		<path style="fill:#00216A;" d="M2693.155,3126.487c-2.456-4.276-3.966-7.906-5.575-11.896c-1.569-3.905-2.884-7.853-4.104-11.811
			c-2.411-7.923-4.207-15.941-5.626-23.974c-1.35-8.049-2.294-16.117-2.817-24.185c-0.337-4.024-0.347-8.074-0.533-12.088
			l0.018-12.058l1.765,11.891c0.778,3.93,1.377,7.872,2.298,11.755c1.69,7.788,3.779,15.456,6.224,22.96
			c2.512,7.482,5.356,14.813,8.699,21.831c1.682,3.5,3.438,6.952,5.376,10.244c1.862,3.217,4.072,6.698,6.015,9.113l0.101,0.125
			c2.491,3.095,2.001,7.623-1.094,10.114c-3.095,2.491-7.623,2.002-10.114-1.093
			C2693.559,3127.128,2693.334,3126.794,2693.155,3126.487z"/>
		<path style="fill:#4E289E;" d="M2699.399,3130.442c-2.207,0-4.395-0.961-5.883-2.81c-0.229-0.285-0.465-0.63-0.662-0.971
			c-0.001,0-0.001-0.001-0.001-0.001c-2.424-4.218-3.908-7.755-5.597-11.939c-1.362-3.389-2.669-7.151-4.113-11.839
			c-2.235-7.347-4.079-15.202-5.636-24.016c-1.354-8.072-2.303-16.221-2.822-24.224c-0.219-2.611-0.301-5.276-0.381-7.854
			c-0.044-1.416-0.087-2.83-0.152-4.239l0.017-12.075c0.001-0.182,0.142-0.333,0.323-0.347c0.204-0.003,0.344,0.117,0.37,0.297
			l1.766,11.891c0.272,1.373,0.525,2.766,0.778,4.155c0.452,2.492,0.92,5.068,1.514,7.57c1.661,7.656,3.752,15.369,6.217,22.931
			c2.727,8.121,5.566,15.25,8.683,21.791c1.987,4.133,3.691,7.38,5.361,10.216c2.172,3.751,4.297,6.973,5.986,9.071l0.101,0.125
			c2.607,3.239,2.094,7.997-1.146,10.604C2702.73,3129.898,2701.06,3130.442,2699.399,3130.442z M2693.457,3126.313
			c0.181,0.311,0.395,0.624,0.603,0.882c2.366,2.941,6.685,3.409,9.625,1.041c2.94-2.366,3.407-6.685,1.04-9.624l-0.101-0.125
			c-1.711-2.127-3.857-5.379-6.045-9.157c-1.679-2.852-3.392-6.114-5.388-10.267c-3.129-6.567-5.979-13.722-8.716-21.872
			c-2.473-7.588-4.57-15.323-6.235-22.996c-0.596-2.514-1.065-5.1-1.52-7.6c-0.252-1.387-0.505-2.775-0.779-4.162l-1.082-7.288
			l-0.011,7.389c0.065,1.396,0.108,2.813,0.152,4.233c0.08,2.568,0.162,5.225,0.379,7.824c0.519,7.986,1.465,16.111,2.814,24.157
			c1.551,8.782,3.388,16.611,5.615,23.93c1.438,4.668,2.739,8.412,4.094,11.783
			C2689.581,3118.621,2691.056,3122.134,2693.457,3126.313L2693.457,3126.313z"/>
	</g>
	<g>
		<path style="fill:#00216A;" d="M2308.437,3339.128c-0.822,0-1.655-0.189-2.435-0.584
			c-82.089-41.823-124.876-152.883-126.657-157.589c-1.051-2.778,0.348-5.878,3.123-6.928c2.775-1.053,5.876,0.346,6.93,3.121
			c0.422,1.116,43.135,111.903,121.482,151.816c2.645,1.347,3.697,4.584,2.35,7.229
			C2312.281,3338.058,2310.393,3339.128,2308.437,3339.128z"/>
		<path style="fill:#4E289E;" d="M2308.437,3339.477c-0.906,0-1.778-0.209-2.592-0.622
			c-82.194-41.877-125.042-153.064-126.826-157.777c-1.116-2.951,0.376-6.26,3.326-7.377c1.427-0.541,2.982-0.493,4.377,0.134
			c1.394,0.628,2.459,1.761,3.001,3.189c0.421,1.113,42.953,111.71,121.314,151.63c1.362,0.693,2.373,1.876,2.846,3.33
			c0.472,1.454,0.351,3.005-0.344,4.367C2312.559,3338.279,2310.604,3339.477,2308.437,3339.477z M2184.374,3174.024
			c-0.602,0-1.204,0.109-1.782,0.328c-2.592,0.981-3.902,3.888-2.921,6.479c1.779,4.702,44.533,115.646,126.489,157.402
			c0.715,0.362,1.48,0.546,2.276,0.546c1.903,0,3.621-1.052,4.481-2.745c0.609-1.196,0.717-2.559,0.302-3.835
			c-0.415-1.277-1.303-2.315-2.499-2.925c-78.599-40.042-121.228-150.889-121.649-152.004c-0.476-1.255-1.412-2.25-2.636-2.801
			C2185.775,3174.172,2185.075,3174.024,2184.374,3174.024z"/>
	</g>
	<g>
		<path style="fill:#00216A;" d="M3532.271,3342.19c-0.735,0-1.482-0.15-2.196-0.469c-91.884-41.19-75.186-112.708-75.005-113.429
			c0.719-2.876,3.625-4.626,6.517-3.908c2.876,0.718,4.626,3.628,3.914,6.505c-0.64,2.638-14.379,63.66,68.973,101.022
			c2.708,1.214,3.919,4.395,2.705,7.103C3536.284,3341.007,3534.325,3342.19,3532.271,3342.19z"/>
		<path style="fill:#4E289E;" d="M3532.271,3342.539c-0.81,0-1.596-0.168-2.338-0.499c-92.104-41.288-75.381-113.11-75.201-113.831
			c0.764-3.056,3.874-4.926,6.938-4.162c3.056,0.762,4.925,3.868,4.168,6.926c-0.623,2.568-14.325,63.37,68.777,100.62
			c2.879,1.291,4.171,4.685,2.88,7.563C3536.575,3341.21,3534.523,3342.539,3532.271,3342.539z M3460.289,3224.574
			c-2.255,0-4.312,1.525-4.881,3.803c-0.178,0.715-16.768,71.976,74.81,113.027c0.651,0.29,1.343,0.438,2.054,0.438
			c1.979,0,3.78-1.166,4.59-2.971c1.133-2.528-0.002-5.509-2.53-6.644c-83.625-37.483-69.798-98.828-69.169-101.421
			c0.665-2.687-0.977-5.415-3.659-6.084C3461.097,3224.622,3460.689,3224.574,3460.289,3224.574z"/>
	</g>
	<path style="fill:#0845A8;" d="M3583.042,2080.14c-0.109,0-0.219-0.006-0.33-0.019l-97.12-11.218
		c-1.563-0.181-2.683-1.593-2.503-3.155c0.182-1.563,1.605-2.679,3.155-2.503l97.12,11.218c1.563,0.181,2.683,1.593,2.503,3.155
		C3585.699,2079.071,3584.468,2080.14,3583.042,2080.14z"/>
	
		<linearGradient id="SVGID_00000044162719714216907360000002664037088351880866_" gradientUnits="userSpaceOnUse" x1="6323.9009" y1="1707.0879" x2="6325.0664" y2="1564.4352" gradientTransform="matrix(0.9875 0.1575 -0.1575 0.9875 -2320.1987 -270.8604)">
		<stop  offset="0" style="stop-color:#FF9675"/>
		<stop  offset="0.5074" style="stop-color:#FF8455"/>
		<stop  offset="1" style="stop-color:#FF6743"/>
	</linearGradient>
	<path style="fill:url(#SVGID_00000044162719714216907360000002664037088351880866_);" d="M3741.402,2179.01l-3.512,171.727
		c0,0-18.514,56.092-72.694,60.049c-58.682,4.286-63.48-14.971-63.48-14.971l6.525-130.58L3741.402,2179.01z"/>
	<path style="fill:#FF6743;" d="M3740.688,2213.963l0.715-34.953l-133.162,86.225l-3.221,46.695
		C3667.615,2320.764,3712.45,2269.222,3740.688,2213.963z"/>
	
		<linearGradient id="SVGID_00000015317850697081070990000008450371481500609674_" gradientUnits="userSpaceOnUse" x1="6760.8872" y1="639.5452" x2="7000.3506" y2="771.7384" gradientTransform="matrix(0.953 0.3029 -0.3029 0.953 -2683.9814 -630.5905)">
		<stop  offset="0" style="stop-color:#FF9675"/>
		<stop  offset="0.8039" style="stop-color:#FF8455"/>
		<stop  offset="1" style="stop-color:#FF6743"/>
	</linearGradient>
	<path style="fill:url(#SVGID_00000015317850697081070990000008450371481500609674_);" d="M3779.316,2155.08
		c-29.161,91.768-130.797,143.143-202.615,120.321c-71.819-22.822-80.878-109.568-57.462-202.967
		c33.041-131.786,120.58-149.925,192.398-127.103C3783.455,1968.153,3808.478,2063.312,3779.316,2155.08z"/>
	
		<ellipse transform="matrix(0.606 -0.7955 0.7955 0.606 -240.4096 3864.9795)" style="fill:#FF7D5A;" cx="3781.194" cy="2175.165" rx="59.15" ry="41.125"/>
	<path style="fill:#FFCEC7;" d="M3768.617,2227.684c-2.958,9.31-12.904,14.458-22.214,11.5s-14.458-12.904-11.5-22.213
		c2.958-9.31,12.904-14.458,22.213-11.5C3766.427,2208.428,3771.576,2218.374,3768.617,2227.684z"/>
	<path style="fill:#FF563C;" d="M3575.151,2158.051c-0.221,0-0.445-0.026-0.669-0.08c-11.924-2.87-18.906-7.953-20.752-15.107
		c-3.266-12.662,11.444-26.307,12.073-26.882c1.159-1.061,2.957-0.984,4.021,0.177c1.063,1.158,0.983,2.959-0.174,4.022
		c-3.574,3.284-12.411,13.506-10.402,21.267c1.281,4.954,6.855,8.648,16.57,10.988c1.528,0.367,2.469,1.906,2.1,3.435
		C3577.603,2157.174,3576.437,2158.051,3575.151,2158.051z"/>
	<path style="fill:#131313;" d="M3634.196,2114.812L3634.196,2114.812c-5.313-2.302-7.778-8.532-5.476-13.846l5.691-13.139
		c2.302-5.313,8.532-7.778,13.846-5.477l0,0c5.313,2.302,7.778,8.532,5.476,13.846l-5.691,13.139
		C3645.74,2114.649,3639.51,2117.114,3634.196,2114.812z"/>
	<path style="fill:#131313;" d="M3542.074,2086.714L3542.074,2086.714c-5.008-1.818-7.617-7.403-5.799-12.41l4.599-12.667
		c1.818-5.008,7.403-7.617,12.41-5.799l0,0c5.007,1.818,7.617,7.403,5.799,12.41l-4.599,12.667
		C3552.666,2085.923,3547.082,2088.532,3542.074,2086.714z"/>
	<path style="fill:#131313;" d="M3685.973,2084.262c-1.118,0-2.178-0.662-2.633-1.759c-11.581-27.967-43.898-24.077-44.228-24.035
		c-1.568,0.208-2.99-0.896-3.192-2.454c-0.204-1.56,0.894-2.989,2.455-3.193c0.356-0.047,36.992-4.458,50.227,27.504
		c0.603,1.453-0.089,3.118-1.541,3.72C3686.704,2084.192,3686.334,2084.262,3685.973,2084.262z"/>
	<path style="fill:#131313;" d="M3582.612,2047.718c-0.639,0-1.281-0.213-1.811-0.651c-0.877-0.722-21.661-17.528-37.615-3.584
		c-1.188,1.035-2.985,0.912-4.019-0.271c-1.034-1.185-0.912-2.983,0.271-4.018c19.631-17.143,44.743,3.278,44.993,3.485
		c1.211,1.002,1.378,2.795,0.376,4.005C3584.246,2047.366,3583.432,2047.718,3582.612,2047.718z"/>
	<g>
		<path style="fill:#820900;" d="M3538.186,2201.81c-5.196-4.957-10.823-11.705-7.36-18.162s10.025-5.333,16.643-2.588
			c11.363,4.714,35.132,11.016,54.499,12.326c9.073,0.614,14.812,4.341,15.307,11.628c0.495,7.287-6.504,10.847-14.013,12.594
			C3585.966,2221.628,3555.505,2218.334,3538.186,2201.81z"/>
		<path style="fill:#BF292A;" d="M3548.833,2207.861c17.204,8.181,37.087,14.975,55.379,8.178
			c6.806-2.529,12.508-6.43,12.059-12.719C3594.066,2195.493,3567.564,2195.357,3548.833,2207.861z"/>
		<path style="fill:#FF563C;" d="M3538.347,2203.82c12.335,10.337,30.262,16.087,48.54,16.087c0.375,0,0.75,0,1.126-0.012
			c5.145-0.061,10.337-0.581,15.409-1.598c8.607-1.707,16.898-6.791,16.015-14.271c-1.09-9.345-9.333-11.161-17.25-11.705
			c-9.175-0.642-17.637-1.792-25.469-3.474c-10.277-2.203-19.465-5.326-27.72-9.406c-11.863-5.871-16.971-2.457-19.162,1.453
			C3526.097,2187.552,3532.27,2198.736,3538.347,2203.82z M3533.142,2182.746c1.005-1.78,2.675-2.663,5.011-2.663
			c2.385,0,5.435,0.92,9.163,2.76c9.151,4.527,19.38,7.904,30.904,10.192c7.347,1.477,15.228,2.494,23.701,3.075
			c9.551,0.654,12.565,3.111,13.497,6.912v0.012c0.109,0.46,0.194,0.932,0.254,1.428c0.593,5.06-6.319,8.788-13,10.12
			c-5.29,1.053-10.689,1.55-16.051,1.537c-13.17-0.036-26.098-3.184-36.653-8.982c-3.329-1.816-6.404-3.898-9.188-6.222
			C3535.902,2196.824,3530.539,2187.394,3533.142,2182.746z"/>
	</g>
	<path style="fill:#131313;" d="M3804.923,1995.724l-35.618-52.995l-74.157-35.324l3.182-6.725l-33.994,0.228l-83.249,21.853
		l-41.624,30.177c0,0-19.727,40.387,30.613,39.03c23.867-0.643,50.021-12.951,70.933-25.719c14.462-8.83,33.212,0.422,35.012,17.271
		c3.533,33.067,12.884,73.284,36.184,101.576c46.456,56.41,98.858,31.219,98.858,31.219L3804.923,1995.724z"/>
	<path style="fill:#131313;" d="M3746.985,2082.28c0,0,20.14,65.934-25.276,99.746c0,0,52.561,0.279,75.429-83.808
		C3813.839,2036.811,3746.985,2082.28,3746.985,2082.28z"/>
	<g>
		<path style="fill:#0845A8;" d="M3508.569,2135.755c0.521,0.182,1.065,0.363,1.598,0.521c4.225,1.259,8.498,1.864,12.734,1.864
			c11.693,0,23.048-4.612,31.969-12.613c7.045-6.319,12.577-14.743,15.555-24.682c0.109-0.351,0.206-0.714,0.302-1.065
			c0.641-2.263,1.114-4.539,1.453-6.815c0.69-4.745,0.738-9.466,0.206-14.042c-0.23-1.985-0.569-3.922-1.017-5.834v-0.012
			c-3.256-13.921-12.081-25.856-24.669-32.151c-1.997-1.005-4.092-1.852-6.282-2.542c-0.266-0.097-0.533-0.181-0.811-0.266
			c-2.941-0.884-5.943-1.453-8.945-1.707h-0.012c-0.859-0.085-1.707-0.133-2.566-0.157c-8.594-0.254-17.213,1.997-25.081,6.634
			c-11.33,6.694-19.719,17.576-23.641,30.65C3471.407,2100.021,3484.48,2127.524,3508.569,2135.755z M3484.819,2075.17
			c0.629-2.106,1.392-4.14,2.276-6.101c0.823-1.876,1.767-3.668,2.833-5.399c3.97-6.549,9.429-12.008,15.978-15.882
			c6.573-3.886,13.727-5.859,20.893-5.859c0.581,0,1.162,0.012,1.743,0.036c0.339,0.024,0.678,0.036,1.017,0.061
			c2.833,0.206,5.641,0.714,8.413,1.549c13.678,4.103,23.532,15.216,27.333,28.81c0.545,1.912,0.956,3.874,1.247,5.871
			c0.981,6.742,0.533,13.884-1.586,20.954c-2.409,8.013-6.646,14.925-12.069,20.336c-10.834,10.846-26.352,15.688-41.096,11.27
			c-0.932-0.279-1.828-0.593-2.724-0.944h-0.012C3488.729,2122.076,3477.907,2098.206,3484.819,2075.17z"/>
		<path style="fill:#0845A8;" d="M3594.622,2145.257c6.04,12.347,16.329,21.244,28.991,25.033c4.382,1.32,8.824,1.949,13.218,1.949
			c21.716,0,42.306-15.349,49.327-38.711c1.489-4.975,2.288-10.023,2.409-15.034c0.048-1.913,0-3.825-0.145-5.714
			c-0.533-6.706-2.3-13.255-5.254-19.331c-6.028-12.347-16.329-21.244-28.991-25.033c-24.161-7.239-50.042,6.416-60.391,30.831
			c-0.811,1.913-1.525,3.886-2.143,5.931c-0.073,0.254-0.145,0.496-0.206,0.751
			C3587.613,2119.268,3588.739,2133.213,3594.622,2145.257z M3597.104,2106.812c6.27-20.905,24.585-34.644,43.856-34.644
			c3.849,0,7.747,0.545,11.584,1.695c11.124,3.341,20.178,11.185,25.505,22.091c5.362,10.979,6.306,23.75,2.651,35.939
			c-7.529,25.081-32.393,39.861-55.44,32.949c-11.124-3.341-20.191-11.185-25.517-22.091
			C3594.38,2131.772,3593.448,2119.002,3597.104,2106.812z"/>
		<path style="fill:#0845A8;" d="M3593.984,2107.506c-0.999,0-1.969-0.528-2.49-1.465c-2.44-4.385-5.519-7.107-9.155-8.09
			c-5.749-1.556-11.27,1.654-11.325,1.686c-1.35,0.801-3.094,0.36-3.901-0.985c-0.804-1.346-0.375-3.086,0.968-3.896
			c0.306-0.185,7.551-4.483,15.676-2.321c5.206,1.386,9.482,5.032,12.712,10.839c0.765,1.374,0.271,3.108-1.103,3.873
			C3594.928,2107.39,3594.453,2107.506,3593.984,2107.506z"/>
		<path style="fill:#0845A8;" d="M3785.962,2125.407c-0.069,0-0.137-0.002-0.206-0.007l-98.945-7.024
			c-1.568-0.111-2.749-1.473-2.638-3.042c0.111-1.569,1.531-2.756,3.042-2.638l98.945,7.024c1.568,0.111,2.749,1.473,2.638,3.042
			C3788.692,2124.261,3787.441,2125.407,3785.962,2125.407z"/>
	</g>
	<g>
		<path style="fill:#E2323A;" d="M3622.294,2411.703c0,0,64.535-40.842,102.765-109.902c3.612-6.524,21.789-3.862,27.339-3.862
			c0,0,17.573,11.099,40.696,35.146c0,0-5.192,20.981-26.823,49.02c-19.469,25.238-81.663,71.276-108.13,90.342
			c-5.501,3.963-13.231,0.686-14.204-6.024C3641.577,2450.146,3625.884,2432.645,3622.294,2411.703z"/>
		<path style="fill:#A22026;" d="M3801.337,2336.049c-2.777,9.341-7.169,18.156-11.927,26.678
			c-4.899,8.482-10.177,16.609-16.341,24.437c-6.152,7.708-12.982,14.758-19.888,21.668c-7.061,6.743-14.298,13.278-21.713,19.567
			c-7.472,6.231-15.08,12.263-22.779,18.17c-7.82,5.743-15.55,11.595-23.593,17.006c-7.952,5.533-16.06,10.836-24.213,16.052
			l-6.162,3.841l-1.55,0.961c-0.627,0.324-1.198,0.72-1.87,0.95c-1.273,0.58-2.691,0.836-4.072,0.883
			c-2.787,0.056-5.511-1.04-7.351-2.92c-1.87-1.881-2.729-4.425-2.85-6.828c1.111,4.829,5.84,7.911,9.938,6.947
			c1.002-0.242,1.979-0.551,2.84-1.119c0.455-0.22,0.832-0.602,1.247-0.884l1.392-1.151l5.586-4.632l22.528-18.188
			c14.992-12.113,30.067-24.059,44.661-36.499c7.404-6.097,14.576-12.433,21.635-18.865c7.114-6.373,13.845-13.098,20.377-19.96
			c6.247-6.975,12.364-14.476,18.089-22.122C3791.124,2352.41,3796.508,2344.477,3801.337,2336.049z"/>
	</g>
	<path style="fill:#A22026;" d="M3653.701,2663.857c-8.825,32.663-18.072,65.16-27.707,97.568
		c-9.666,32.392-19.703,64.683-30.743,96.654c-5.54,15.977-11.317,31.884-17.839,47.517c-3.24,7.822-6.707,15.566-10.692,23.08
		l-1.499,2.815c-0.524,0.927-1.099,1.831-1.646,2.747l-1.661,2.738l-1.9,2.615l-0.951,1.306c-0.313,0.438-0.704,0.812-1.052,1.221
		l-2.149,2.402l-2.337,2.215c-0.758,0.762-1.596,1.431-2.436,2.097c-6.626,5.47-14.424,9.276-22.453,12.02
		c-4.033,1.353-8.153,2.406-12.302,3.288c-4.164,0.809-8.351,1.487-12.565,1.914c-8.425,0.888-16.904,1.058-25.35,0.737
		c-8.444-0.367-16.875-1.163-25.193-2.637c8.34,1.331,16.775,1.981,25.206,2.202c8.433,0.176,16.879-0.14,25.238-1.167
		c4.182-0.496,8.326-1.241,12.437-2.113c4.095-0.945,8.149-2.056,12.102-3.458c7.868-2.841,15.435-6.71,21.768-12.126
		c0.804-0.66,1.605-1.322,2.325-2.073l2.224-2.179l2.033-2.354c0.329-0.4,0.701-0.766,0.994-1.193l0.89-1.271l1.781-2.539
		l1.577-2.705c0.52-0.905,1.064-1.793,1.564-2.712l1.429-2.801c3.801-7.473,7.114-15.223,10.201-23.056
		c6.217-15.655,11.706-31.613,16.956-47.642c10.464-32.076,19.93-64.485,29.024-96.99c9.061-32.511,17.745-65.155,25.982-97.86
		l0.004-0.019c0.47-1.865,2.363-2.997,4.229-2.527c1.866,0.47,2.997,2.363,2.527,4.229
		C3653.712,2663.813,3653.705,2663.844,3653.701,2663.857z"/>
	<g>
		<path style="fill:#7D7D7D;" d="M2853.757,2954.39c1.347-25.334,5.022-45.661,30.812-45.661h520.858
			c25.79,0,46.982,20.327,48.327,45.661H2853.757z"/>
		<g>
			<path style="fill:#C1C1C1;" d="M2885.223,2929.023l72.907-1.522c3.822,0,9.938-14.713,29.813-18.264l-124.904-396.523
				c-5.824-16.241-25.741-23.337-45.081-23.337h-94.618c-19.341,0-39.289,21.364-37.024,33.378l143.866,382.931
				C2842.414,2926.994,2865.883,2929.023,2885.223,2929.023z"/>
			<path style="fill:#939393;" d="M2847.122,2954.175h139.071c-17.924-1.739-21.907-16.595-25.004-28.196l-122.611-397.03
				c-5.52-17.457-24.682-23.337-44.022-23.337h-81.816c-19.341,0-30.198,6.631-26.572,23.337l119.553,392.972
				C2811.639,2942.507,2827.781,2954.175,2847.122,2954.175z"/>
		</g>
		
			<ellipse transform="matrix(0.9659 -0.2588 0.2588 0.9659 -585.6081 810.2855)" style="fill:#FFFFFF;" cx="2785.05" cy="2629.564" rx="12.94" ry="34.677"/>
	</g>
	<g>
		
			<linearGradient id="SVGID_00000178894197507097810970000004362399999950586043_" gradientUnits="userSpaceOnUse" x1="2585.2581" y1="2956.53" x2="2745.1494" y2="3023.3469" gradientTransform="matrix(1 0 0 1 544.3104 0)">
			<stop  offset="0" style="stop-color:#FFAB93"/>
			<stop  offset="0.2558" style="stop-color:#FFA78F"/>
			<stop  offset="0.5307" style="stop-color:#FF9A84"/>
			<stop  offset="0.8136" style="stop-color:#FF8471"/>
			<stop  offset="1" style="stop-color:#FF7261"/>
		</linearGradient>
		<path style="fill:url(#SVGID_00000178894197507097810970000004362399999950586043_);" d="M3277.934,2967.752
			c0,0-23.731-35.596-44.825-54.054c-21.094-18.457-60.646-23.731-81.74-31.641c-21.094-7.91-31.641-18.457-39.552-9.229
			c-7.91,9.229-5.274,23.731,13.184,32.959c0,0-65.919-23.731-81.74-30.323c-15.821-6.592-26.368-7.91-36.915,0
			c-10.547,7.91-2.637,22.413,6.592,26.368c9.229,3.955,54.054,31.641,54.054,31.641s16.619,72.95,35.596,94.924
			c25.049,29.005,76.822,27.408,133.157,34.278C3289.799,3069.268,3277.934,2967.752,3277.934,2967.752z"/>
		<path style="fill:#FF655B;" d="M3185.652,2930.189c-0.245,0-0.492-0.018-0.742-0.06c-41.26-6.653-70.275-23.596-71.491-24.316
			c-2.198-1.298-2.927-4.132-1.629-6.331s4.132-2.93,6.333-1.635c0.284,0.169,28.813,16.787,68.259,23.15
			c2.522,0.407,4.237,2.78,3.831,5.304C3189.846,2928.572,3187.883,2930.189,3185.652,2930.189z"/>
		<path style="fill:#FF655B;" d="M3110.494,2963.149c-0.736,0-1.485-0.175-2.18-0.548l-36.914-19.774
			c-2.251-1.208-3.099-4.012-1.893-6.261c1.206-2.253,4.007-3.108,6.263-1.894l36.914,19.774c2.251,1.208,3.099,4.011,1.893,6.261
			C3113.742,2962.263,3112.144,2963.149,3110.494,2963.149z"/>
		<path style="fill:#FF655B;" d="M3099.948,2994.789c-0.696,0-1.402-0.156-2.066-0.488l-15.82-7.909
			c-2.284-1.141-3.21-3.921-2.069-6.207c1.141-2.286,3.919-3.21,6.207-2.069l15.82,7.908c2.284,1.142,3.21,3.921,2.069,6.207
			C3103.279,2993.853,3101.646,2994.789,3099.948,2994.789z"/>
	</g>
</g>
<path id="floor" d="M3948.189,3457.614H761.78c-1.862,0-3.384-1.523-3.384-3.384v-24.614c0-1.861,1.523-3.384,4.384-3.384h3186.409
	c0.861,0,2.384,1.523,2.384,3.384v24.614C3951.573,3456.091,3950.051,3457.614,3948.189,3457.614z"/>
</svg>
