<svg width="118" height="116" viewBox="0 0 118 116" fill="none" xmlns="http://www.w3.org/2000/svg">
<g clip-path="url(#clip0_172_74680)">
<path d="M94.235 46.7051C88.1974 27.419 67.6002 16.6411 48.3104 22.6763C29.023 28.7139 18.2438 49.3161 24.2803 68.6021L26.6504 67.8597C21.0224 49.881 31.0715 30.6743 49.0527 25.0451C57.7634 22.32 67.0141 23.1492 75.0979 27.3793C83.1852 31.6117 89.1398 38.7381 91.8662 47.4476C94.5914 56.157 93.7632 65.4065 89.5321 73.4927C85.3021 81.5801 78.1757 87.5346 69.465 90.2611C54.8856 94.8237 38.9045 89.0617 30.5923 76.2465L28.509 77.5974C35.3797 88.1927 47.1396 94.2937 59.3303 94.2924C62.9556 94.2924 66.6218 93.7535 70.2063 92.6287C79.5488 89.7049 87.1931 83.3171 91.7321 74.6437C96.2712 65.9701 97.1589 56.0478 94.235 46.7051Z" fill="white"/>
<path d="M52.0628 38.3817L52.7755 36.0028L40.36 32.2782C39.9255 32.1466 39.4499 32.2659 39.1259 32.5899L36.6428 35.073C36.3536 35.3622 36.2256 35.7756 36.3001 36.1779C36.3747 36.5801 36.6428 36.9192 37.0165 37.0856L48.1904 42.0517L49.1986 39.7822L39.6773 35.5497L40.3576 34.8693L52.0628 38.3817Z" fill="white"/>
<path d="M63.5952 30.9862C63.5952 30.3008 63.0401 29.7446 62.3536 29.7446C62.3523 29.7446 62.3523 29.7446 62.3512 29.7446C59.6198 29.7446 57.051 30.8086 55.1192 32.7405L44.5909 43.2676L40.3063 42.1961C39.883 42.0905 39.436 42.2134 39.1268 42.5226L36.6438 45.0056C36.3732 45.2762 36.2416 45.6562 36.2887 46.0349C36.3359 46.4136 36.5544 46.7513 36.8822 46.9475L42.8242 50.5131L46.3898 56.4551C46.5861 56.783 46.9225 57.0015 47.3024 57.0486C47.352 57.0549 47.403 57.0573 47.4539 57.0573C47.7804 57.0573 48.097 56.9282 48.333 56.6949L50.8161 54.2118C51.1239 53.9026 51.2481 53.4558 51.1426 53.0323L50.0724 48.7527L60.7683 38.1623C62.5932 36.2514 63.5977 33.7411 63.5952 30.9862ZM47.8213 47.4838C47.5097 47.7916 47.3844 48.2411 47.4899 48.6669L48.5614 52.9515L47.6998 53.8131L44.7933 48.9687C44.6877 48.7936 44.5425 48.6471 44.3675 48.5429L39.5231 45.6364L40.3847 44.7748L44.6693 45.8463C45.0926 45.9518 45.5396 45.829 45.8488 45.5198L56.8737 34.4949C58.0159 33.3515 59.4535 32.6102 61.013 32.3408C60.7671 33.8754 60.0681 35.2981 58.9954 36.4217L47.8213 47.4838Z" fill="white"/>
<path d="M61.059 53.1412L57.3344 40.5645L54.9531 41.2697L58.4529 53.0868L57.6993 53.7523L53.56 44.1502L51.2793 45.1335L56.0965 56.3074C56.2542 56.6725 56.577 56.9406 56.9655 57.0275C57.0562 57.0473 57.1468 57.0574 57.2375 57.0574C57.5367 57.0574 57.8296 56.9494 58.0582 56.747L60.6903 54.4254C61.0528 54.1059 61.1956 53.6056 61.059 53.1412Z" fill="white"/>
<path d="M46.2515 89.4579C37.4092 93.648 30.4727 94.1894 27.2248 90.9428C21.5956 85.3136 27.709 68.9588 41.4442 52.8982L39.5571 51.2842C24.4923 68.8991 18.698 85.9294 25.4681 92.6983C27.359 94.5879 30.0296 95.5303 33.342 95.5303C37.2031 95.5303 41.9359 94.2503 47.3143 91.7013L46.2515 89.4579Z" fill="white"/>
<path d="M88.2791 63.9203C88.0631 63.5168 87.6423 63.2648 87.184 63.2648H82.9852L79.6032 56.5021C79.3922 56.0812 78.9626 55.8154 78.492 55.8154H66.0765C65.3899 55.8154 64.835 56.3716 64.835 57.057V66.9894C64.835 67.676 65.39 68.2309 66.0765 68.2309H69.8011V81.8879C69.8011 82.5746 70.356 83.1295 71.0426 83.1295H77.2503C77.5793 83.1295 77.8947 82.999 78.1294 82.7644L83.0955 77.7982C83.3288 77.5661 83.4593 77.2508 83.4593 76.9205V72.3305L88.2168 65.1941C88.4702 64.8142 88.4951 64.3238 88.2791 63.9203ZM81.1836 71.2665C81.0483 71.4702 80.975 71.711 80.975 71.9557V76.4078L76.7364 80.6464H72.2843H72.283V66.9894C72.283 66.3027 71.7281 65.7478 71.0415 65.7478H67.3169V58.2986H77.7235L81.1055 65.0614C81.3165 65.4822 81.7461 65.748 82.2166 65.748H84.8636L81.1836 71.2665Z" fill="white"/>
<path d="M89.1445 53.3326L84.5359 45.2675C84.315 44.8802 83.9027 44.6417 83.4583 44.6417H76.0091C75.5944 44.6417 75.207 44.849 74.9762 45.1942L72.8618 48.3663H69.8014V42.1587H76.0091C76.3394 42.1587 76.6535 42.0282 76.8869 41.7949L81.4892 37.1925H87.1829V34.7095H80.9752C80.6449 34.7095 80.3308 34.8399 80.0975 35.0732L75.4951 39.6756H68.5599C67.8733 39.6756 67.3184 40.2318 67.3184 40.9171V49.6079C67.3184 50.2932 67.8734 50.8494 68.5599 50.8494H73.526C73.9407 50.8494 74.3281 50.6421 74.559 50.297L76.6733 47.1248H82.7383L87.3469 55.1899C87.5679 55.5772 87.9802 55.8157 88.4246 55.8157H93.3907V53.3326H89.1445Z" fill="white"/>
<path d="M58.6279 65.748H51.6927L48.3318 62.3872C48.0997 62.1537 47.7831 62.0234 47.4541 62.0234H41.2464C40.5611 62.0234 40.0049 62.5785 40.0049 63.265V71.9557C40.0049 72.6423 40.5611 73.1972 41.2464 73.1972H46.2126V85.6127C46.2126 86.0833 46.4782 86.5129 46.8992 86.7238C47.0743 86.8107 47.2654 86.8543 47.4542 86.8543C47.7174 86.8543 47.9794 86.7711 48.1991 86.6059L53.1652 82.8813C53.478 82.6467 53.6619 82.2779 53.6619 81.8881V78.7595L59.404 74.167C59.6982 73.9312 59.8696 73.5748 59.8696 73.1974V66.9897C59.8694 66.3031 59.3132 65.748 58.6279 65.748ZM57.3864 72.6014L51.6442 77.1939C51.35 77.4299 51.1787 77.7861 51.1787 78.1635V81.2674L48.6956 83.1298V71.9559C48.6956 71.2692 48.1394 70.7143 47.4541 70.7143H42.4879V64.5066H46.9401L50.3009 67.8675C50.5331 68.1008 50.8497 68.2312 51.1787 68.2312H57.3864V72.6014Z" fill="white"/>
<path d="M33.6191 47.7269L29.8945 41.5192C29.671 41.1455 29.2662 40.917 28.8305 40.917H27.589V43.4001H28.1279L30.9922 48.1738L27.9529 51.213C27.7194 51.4452 27.5891 51.7618 27.5891 52.0908V55.8154H23.8643V58.2985H28.8304C29.5157 58.2985 30.0719 57.7423 30.0719 57.0569V52.6048L33.4328 49.244C33.8351 48.8404 33.9121 48.216 33.6191 47.7269Z" fill="white"/>
<path d="M61.112 22.2939V23.8086L57.0856 24.8154C56.9478 24.8502 56.8162 24.9086 56.6983 24.9868L53.5733 27.0701L46.7683 23.6671L45.6572 25.8881L53.1064 29.6127C53.2815 29.6996 53.4715 29.7431 53.6615 29.7431C53.9024 29.7431 54.142 29.6724 54.3493 29.5346L57.8951 27.1707L62.654 25.9813C63.2064 25.8434 63.5951 25.3469 63.5951 24.777V22.2939H61.112Z" fill="white"/>
</g>
<path fill-rule="evenodd" clip-rule="evenodd" d="M48.0295 0.00100434C20.699 5.05948 0 29.02 0 57.815C0 86.61 20.699 110.571 48.0295 115.629V113.522C21.8493 108.491 2.07035 85.4628 2.07035 57.815C2.07035 30.1672 21.8493 7.13905 48.0295 2.10823V0.00100434ZM69.5611 113.523C95.7439 108.494 115.526 85.4647 115.526 57.815C115.526 30.1653 95.7439 7.13587 69.5611 2.10719V0C96.8942 5.05631 117.596 29.0181 117.596 57.815C117.596 86.6119 96.8942 110.574 69.5611 115.63V113.523Z" fill="white"/>
<defs>
<clipPath id="clip0_172_74680">
<rect width="74.53" height="74.53" fill="white" transform="translate(22 21)"/>
</clipPath>
</defs>
</svg>
