<svg id="Layer_1" enable-background="new 0 0 512 512" viewBox="0 0 512 512" xmlns="http://www.w3.org/2000/svg"><path d="m354.48 132.9c-2.52-2.92-2.18-7.34.77-9.84 2.92-2.49 7.34-2.15 9.84.77 6.46 7.57 18.17 7.57 24.6 0 2.52-2.92 6.92-3.26 9.86-.77 2.92 2.49 3.26 6.92.77 9.84-4.2 4.9-9.75 8.28-15.93 9.75v35.15h14.54c5.75-30.39 26.84-28.12 26.84-60.52 0-26.73-21.66-48.39-48.39-48.39s-48.39 21.66-48.39 48.39c0 32.26 21.17 29.79 26.9 60.52h14.49v-35.12c-6.15-1.5-11.73-4.88-15.9-9.78zm52.3 83.62c-6.41 29.74-52.38 29.74-58.79 0-17.57-2.32-19.96-28.66-5.92-36.6-5.22-25.37-27.07-24.72-27.07-62.65 0-34.44 27.95-62.39 62.39-62.39 34.47 0 62.39 27.95 62.39 62.39 0 37.93-21.8 37.56-27.01 62.65 13.99 7.97 11.58 34.28-5.99 36.6zm-22.4 7.03c3.2-1.28 5.98-3.54 7.6-6.86h-29.2c3.89 7.82 14.12 9.81 21.6 6.86zm19.88-31.75h-53.72c-4.85 0-4.85 10.89 0 10.89h53.72c4.84 0 4.84-10.89 0-10.89zm60.4-79.68c3.88 0 7 3.15 7 7 0 3.88-3.12 7-7 7h-10.52c-3.86 0-7-3.12-7-7 0-3.85 3.15-7 7-7zm-174.56 14c-3.85 0-7-3.12-7-7 0-3.85 3.15-7 7-7h10.54c3.85 0 6.97 3.15 6.97 7 0 3.88-3.12 7-6.97 7zm8.22-44.59c-3.34-1.93-4.48-6.18-2.55-9.52 1.9-3.32 6.15-4.48 9.5-2.55l9.13 5.24c3.34 1.93 4.48 6.18 2.55 9.52-1.9 3.34-6.15 4.48-9.5 2.58zm29.4-34.49c-1.96-3.32-.79-7.6 2.52-9.52 3.34-1.96 7.62-.79 9.55 2.52l5.27 9.13c1.93 3.34.79 7.6-2.55 9.55-3.34 1.93-7.63.79-9.55-2.55zm42.66-13.75c0-3.88 3.15-7 7-7 3.88 0 7 3.12 7 7v9.1c0 3.86-3.12 7-7 7-3.86 0-7-3.15-7-7zm44.62 6.75c1.93-3.32 6.18-4.48 9.52-2.52 3.34 1.93 4.48 6.21 2.55 9.52l-5.27 9.13c-1.93 3.34-6.21 4.48-9.52 2.55-3.35-1.96-4.48-6.21-2.55-9.55zm34.5 29.42c3.34-1.93 7.6-.77 9.52 2.55 1.93 3.34.77 7.6-2.58 9.52l-9.1 5.27c-3.34 1.9-7.6.77-9.52-2.58-1.93-3.34-.77-7.6 2.58-9.52zm-397.53 82.88 123.96-46.46c1.64-.6 3.37-.54 4.88.03l124.53 46.66c6.07 2.27 6.01 10.83 0 13.07l-42.04 15.76v46.97c0 .68-.06 1.36-.17 2.01 0 1.56-.08 3.15-.2 4.79 3.57.08 6.75-.09 10.06 1.22 8.39 3.32 11.14 12.39 7.88 20.69l-5.98 15.17c-3.57 9.1-13.75 16.41-23.5 16.19l-7.31-.14c-5.36 8.67-11.68 16.87-18.94 23.95 0 6.86.37 12.78-1.42 19.5h18.57c32.6 0 54.08 16.19 66.61 43.54h20.1c4.99 0 8.84 5.27 6.07 10.52l-14.63 30.1c1.13 6.8 1.98 13.75 2.66 20.64.77 7.65 1.28 14.94 1.73 21.77 1.16 17.46-12.67 31.97-29.93 31.97-74.81 0-149.61 0-224.42 0-17.26 0-31.1-14.51-29.96-31.97.45-6.83.99-14.12 1.76-21.77.68-6.89 1.53-13.83 2.64-20.64l-14.85-30.59c-2.27-4.65 1.28-10.01 6.29-10.01v-.03h20.13c12.5-27.35 34.02-43.54 66.59-43.54h9.95c-1.79-6.72-1.42-12.64-1.42-19.5-7.28-7.09-13.61-15.34-18.96-24.01l-9.84.2c-9.78.23-19.93-7.09-23.53-16.19l-5.95-15.17c-4.28-10.89 1.98-21.54 13.75-21.8l6.75-.17c-.11-1.62-.2-3.2-.2-4.73-.11-.65-.17-1.33-.17-2.01v-46.96l-32.6-12.22v35.69c14.51 7.06 17.55 32.51 8.62 47-8.08 13.15-23.16 13.15-31.27 0-8.9-14.49-5.87-39.94 8.65-47v-45.78c-.03-3.2 2.13-5.92 5.11-6.75zm197.32 34.3-68.49 25.66c-1.64.62-3.37.57-4.88 0l-68.48-25.65v39.88h141.85zm-70.93-66.75-104.66 39.2 104.66 39.23 104.65-39.23zm64.12 120.64h-7.43c-.65 7.82-2.04 15.48-4.17 22.99 5.31-5.9 9.25-15.51 11.6-22.99zm-21.43 0h-85.38c1.05 10.86 3.74 21.69 7.97 31.72 1.7 4.03-.79 8.67-5.05 9.52v.03c-5.56 1.13-10.52.2-14.88-2.18 11.54 19.19 31.32 40.31 54.65 40.31 23.44 0 43.2-21.26 54.65-40.31-4.37 2.38-9.33 3.32-14.88 2.18v-.03c-4.25-.85-6.75-5.5-5.05-9.52 4.23-10.04 6.92-20.86 7.97-31.72zm-99.38 0h-7.43c2.35 7.48 6.29 17.09 11.59 22.99-2.15-7.51-3.51-15.17-4.16-22.99zm-64.12-20.1c-2.61-4.22-4.85-4.22-7.43 0-3.97 6.43-3.97 17.69 0 24.12 2.58 4.2 4.82 4.2 7.43 0 3.94-6.43 3.94-17.68 0-24.12zm203.1 28.66c-1.96 8.22-5.07 16.89-9.1 25.4 4.03.08 8.82-3.54 10.32-7.34.91-2.32 6.35-15.45 6.38-16.89.03-.71-.09-.99-1.45-1.02zm-49.63 74.49c-21.37 13.78-43.94 13.78-65.31 0 1.36 14.31 13.52 25.68 28.2 25.68h8.9c14.69.01 26.85-11.36 28.21-25.68zm6.04 22.14c-7.77 10.74-20.32 17.55-34.24 17.55h-8.9c-13.92 0-26.48-6.8-34.24-17.55h-16.61c-24.24 0-40.34 10.35-50.97 29.57h221.16c-10.6-19.22-26.73-29.57-50.97-29.57zm92.23 93.12-18.2 37.45c6.24 0 10.63.17 15.51-5.05 3.15-3.37 4.59-7.43 4.28-12.08-.42-6.6-.93-13.52-1.59-20.32zm-235.04 37.45-18.2-37.45c-.65 6.8-1.13 13.72-1.59 20.32-.6 9.3 6.46 17.12 16.02 17.12h3.77zm8.56-87h-35.29l42.26 87h185.78l42.29-87zm344.58-53.91h-26.99v8.76h26.99zm-30.19-14.01h33.39c5.95 0 10.8 4.85 10.8 10.8v.57h14.83c2.24 0 3.91-1.05 4.85-3.06l15.42-33.19h-125.16l15.39 33.19c.94 2.01 2.61 3.06 4.85 3.06h14.83c0-6.58 4.65-11.37 10.8-11.37zm44.19 25.37c0 3.32-.91 5.92-3.17 8.22v-.03c-1.93 1.96-4.71 3.17-7.63 3.17h-33.39c-5.92 0-10.8-4.88-10.8-10.77v-.6h-14.83c-7.6 0-14.34-4.31-17.52-11.2l-4.85-10.46v46.38c0 2.13 1.16 4.14 1.81 4.14h125.74c.68 0 1.81-2.01 1.81-4.14v-46.38l-4.82 10.46c-3.2 6.89-9.95 11.2-17.55 11.2h-14.8zm-91.59-64.26h18.42v-9.58c0-12.5 10.15-22.68 22.68-22.68h45.98c12.53 0 22.68 10.18 22.68 22.68v9.58h18.74c8.42.17 14.29 8.11 14.29 16.55v72.43c0 9.33-6.49 18.14-15.82 18.14h-125.75c-9.33 0-15.82-8.82-15.82-18.14v-72.43c0-8.5 5.9-16.49 14.6-16.55zm32.43 0h63.33v-9.58c0-4.79-3.88-8.67-8.67-8.67h-45.99c-4.79 0-8.67 3.88-8.67 8.67zm-287.6-33.42c-1.13.03-8.28-.06-8.62.48-.31.48.03 1.73.31 2.47l5.95 15.14c1.5 3.77 6.32 7.43 10.23 7.34l2.1-.03z"/></svg>