<svg id="Layer_1" enable-background="new 0 0 500 500" viewBox="0 0 500 500" xmlns="http://www.w3.org/2000/svg"><path clip-rule="evenodd" d="m137.211 72.612c-1.847-3.201-.751-7.28 2.448-9.14 3.199-1.843 7.288-.744 9.135 2.457l9.824 17.012c2.582 4.473-.68 10.03-5.785 10.03-2.313 0-4.561-1.195-5.8-3.341zm-78.328 71.648c1.847-3.206 5.934-4.3 9.135-2.451l17.015 9.822c5.91 3.413 3.45 12.476-3.35 12.476-1.136 0-2.285-.287-3.337-.89l-17.015-9.827c-3.199-1.85-4.295-5.94-2.448-9.13zm411.8 110.338c0 3.697-2.993 6.689-6.687 6.689h-19.647c-3.694 0-6.687-2.992-6.687-6.689 0-3.696 2.993-6.683 6.687-6.683h19.647c3.694 0 6.687 2.987 6.687 6.683zm-415.034 6.689h-19.645c-3.693 0-6.687-2.992-6.687-6.689 0-3.696 2.994-6.683 6.687-6.683h19.645c3.694 0 6.689 2.987 6.689 6.683.001 3.697-2.995 6.689-6.689 6.689zm356.871-100.522c-1.847-3.195-.753-7.286 2.446-9.134l17.017-9.822c3.198-1.848 7.288-.755 9.135 2.451 1.846 3.19.75 7.28-2.448 9.129l-17.015 9.827c-3.153 1.814-7.267.786-9.135-2.451zm-169.209-100.516v-19.644c0-3.702 2.995-6.689 6.689-6.689 3.691 0 6.687 2.986 6.687 6.689v19.643c0 3.691-2.996 6.689-6.687 6.689-3.693 0-6.689-2.997-6.689-6.688zm98.072 22.692 9.823-17.012c1.845-3.201 5.934-4.3 9.135-2.457 3.199 1.859 4.295 5.939 2.448 9.14l-9.824 17.018c-1.869 3.238-5.989 4.264-9.135 2.451-3.198-1.854-4.294-5.94-2.447-9.14zm-124.303 42.577c0-3.933 3.202-7.134 7.136-7.134h51.568c3.934 0 7.137 3.201 7.137 7.134v15.496h-65.841zm123.452 39.473v13.045l-78.044 41.806c-8.054 4.317-16.922 4.317-24.975 0l-78.044-41.806v-13.045c0-5.843 4.755-10.605 10.601-10.605h159.858c5.846 0 10.604 4.762 10.604 10.605zm-10.604 112.851c5.846 0 10.603-4.756 10.603-10.599v-74.032l-71.729 38.419c-12.122 6.492-25.483 6.491-37.605 0l-71.729-38.419v74.032c0 5.844 4.755 10.599 10.601 10.599zm-183.836-112.851v102.252c0 13.214 10.757 23.977 23.977 23.977h159.858c13.222 0 23.977-10.763 23.977-23.977v-102.252c0-13.214-10.755-23.977-23.977-23.977h-33.633v-15.496c0-11.309-9.201-20.511-20.511-20.511h-51.568c-11.309 0-20.51 9.202-20.51 20.511v15.496h-33.635c-13.22 0-23.978 10.763-23.978 23.977zm274.605 187.548-102.697 59.297c-27.226 15.716-43.367 23.61-73.675 28.085-32.022 4.728-63.895 2.293-93.567-1.037-13.453-1.505-25.751-2.649-38.197-3.539v-86.632c24.992-2.333 46.975-1.961 75.123 5.567.564.147 1.142.22 1.726.22h72.451c11.023 0 18.415 11.258 14.259 21.278-2.413 5.809-8.01 9.574-14.259 9.574h-72.451c-3.693 0-6.687 2.986-6.687 6.689 0 3.691 2.994 6.683 6.687 6.683h72.451c9.694 0 18.527-4.829 23.821-12.667 2.49.462 4.968.704 7.407.716 11.682.036 17.553-4.417 25.661-9.106l87.338-50.421c6.975-4.029 15.927-1.634 19.956 5.342 4.028 6.98 1.629 15.928-5.347 19.951zm-321.509 94.014c0 3.398-2.761 6.153-6.152 6.153h-30.055c-3.392 0-6.152-2.755-6.152-6.153v-102.173c0-3.398 2.76-6.153 6.152-6.153h30.055c3.392 0 6.152 2.755 6.152 6.153zm300.213-130.894-87.337 50.422c-7.993 4.618-12.192 8.125-21.595 7.173 1.985-17.059-11.394-32.125-28.607-32.125h-71.577c-29.995-7.912-53.299-8.204-79.878-5.646-3.243-6.306-9.808-10.628-17.372-10.628h-30.054c-10.768 0-19.526 8.757-19.526 19.525v102.173c0 10.774 8.758 19.531 19.526 19.531h30.055c10.026 0 18.307-7.601 19.401-17.339 11.98.873 23.858 1.984 36.834 3.437 32.018 3.586 64.21 5.811 97.007.969 33.715-4.976 52.115-14.549 78.41-29.736l102.697-59.297c13.363-7.709 17.957-24.856 10.241-38.222-7.715-13.359-24.862-17.957-38.225-10.237z" fill-rule="evenodd"/></svg>