<svg width="118" height="116" viewBox="0 0 118 116" fill="none" xmlns="http://www.w3.org/2000/svg">
<g clip-path="url(#clip0_172_74528)">
<path d="M35.6198 29.0454C32.9044 29.0454 30.6953 31.2538 30.6953 33.968C30.6953 36.6823 32.9044 38.8906 35.6198 38.8906C38.3374 38.8906 40.5484 36.6823 40.5484 33.968C40.5484 31.2538 38.3374 29.0454 35.6198 29.0454ZM35.6198 35.9549C34.5233 35.9549 33.6312 35.0636 33.6312 33.968C33.6312 32.8725 34.5233 31.9813 35.6198 31.9813C36.7186 31.9813 37.6126 32.8726 37.6126 33.9682C37.6126 35.0637 36.7186 35.9549 35.6198 35.9549Z" fill="white"/>
<path d="M78.6787 29.0454H65.6608C62.9454 29.0454 60.7363 31.2538 60.7363 33.968C60.7363 36.6823 62.9454 38.8906 65.6608 38.8906H78.6787C81.3941 38.8906 83.6032 36.6823 83.6032 33.968C83.6032 31.2538 81.3941 29.0454 78.6787 29.0454ZM78.6787 35.9549H65.6608C64.5643 35.9549 63.6723 35.0636 63.6723 33.968C63.6723 32.8725 64.5644 31.9812 65.6608 31.9812H78.6787C79.7752 31.9812 80.6673 32.8725 80.6673 33.968C80.6673 35.0636 79.7752 35.9549 78.6787 35.9549Z" fill="white"/>
<path d="M48.3815 29.0454C45.6661 29.0454 43.457 31.2538 43.457 33.968C43.457 36.6823 45.6661 38.8906 48.3815 38.8906C51.0991 38.8906 53.3101 36.6823 53.3101 33.968C53.3101 31.2538 51.0991 29.0454 48.3815 29.0454ZM48.3815 35.9549C47.285 35.9549 46.393 35.0636 46.393 33.968C46.393 32.8725 47.2851 31.9812 48.3815 31.9812C49.4803 31.9812 50.3743 32.8725 50.3743 33.968C50.3743 35.0636 49.4803 35.9549 48.3815 35.9549Z" fill="white"/>
<path d="M45.9882 53.3805C45.2 53.1917 44.4077 53.6783 44.2193 54.467L41.3071 66.6535C41.1188 67.4421 41.6051 68.2341 42.3936 68.4225C42.5083 68.4498 42.6232 68.4631 42.7361 68.4631C43.3998 68.4631 44.0016 68.0098 44.1625 67.336L47.0747 55.1494C47.2633 54.3609 46.7768 53.569 45.9882 53.3805Z" fill="white"/>
<path d="M51.3774 66.9902C51.6572 67.2394 52.006 67.362 52.3533 67.362C52.7575 67.362 53.16 67.196 53.4502 66.8704L57.5665 62.2495C58.2457 61.4935 58.2457 60.3094 57.5707 59.5582L53.45 54.9325C52.9105 54.3269 51.9826 54.2737 51.3774 54.8127C50.7719 55.352 50.7183 56.28 51.2576 56.8853L54.8352 60.9013L51.2576 64.9175C50.7185 65.523 50.772 66.451 51.3774 66.9902Z" fill="white"/>
<path d="M37.0048 54.8127C36.3992 54.2733 35.4715 54.3273 34.9322 54.9325L30.8163 59.5529C30.1362 60.3091 30.1362 61.4937 30.8117 62.2447L34.9323 66.8704C35.2225 67.1961 35.6248 67.3619 36.0292 67.3619C36.3765 67.3619 36.7254 67.2394 37.0051 66.9902C37.6106 66.4508 37.6642 65.5228 37.1249 64.9176L33.5473 60.9016L37.1249 56.8854C37.6639 56.2798 37.6103 55.3518 37.0048 54.8127Z" fill="white"/>
<path d="M93.2389 70.4243H92.6939C92.4084 69.4997 92.0386 68.6071 91.5873 67.7541L91.9762 67.3638C92.5974 66.7464 92.9402 65.9221 92.9415 65.0426C92.9428 64.161 92.6012 63.3334 91.9793 62.7116L91.2215 61.9543V30.6866C91.2215 26.3081 88.1317 22.7461 84.3336 22.7461H28.8879C25.0898 22.7461 22 26.3081 22 30.6866V71.7149C22 76.0934 25.0898 79.6554 28.8879 79.6554H37.5005C38.3112 79.6554 38.9684 78.9982 38.9684 78.1875C38.9684 77.3769 38.3112 76.7196 37.5005 76.7196H28.8879C26.7458 76.7196 24.9359 74.4277 24.9359 71.7151V45.0831H88.2854V59.9171C88.1182 59.8913 87.9487 59.8744 87.7762 59.8744C87.7745 59.8744 87.7727 59.8744 87.7711 59.8744C86.8916 59.8759 86.0673 60.2182 85.4547 60.8341L85.0579 61.2292C84.187 60.7691 83.28 60.3948 82.3447 60.1091V59.5862C82.3447 57.7718 80.8684 56.2959 79.0536 56.2959H76.3971C74.5847 56.2959 73.1103 57.7718 73.1103 59.5862V60.1449C72.1926 60.4332 71.3065 60.8043 70.4596 61.255L70.0794 60.8759C69.4619 60.2554 68.6374 59.9127 67.7579 59.9114C67.7563 59.9114 67.7547 59.9114 67.753 59.9114C66.8733 59.9114 66.0474 60.2527 65.4268 60.8728L63.55 62.7488C62.9282 63.3703 62.5865 64.1982 62.5878 65.0796C62.5892 65.9591 62.9318 66.7834 63.5483 67.396L63.9537 67.8025C63.5136 68.6425 63.1522 69.5186 62.8726 70.424H62.3151C60.5025 70.424 59.028 71.898 59.028 73.7101V76.3691C59.028 76.4873 59.0346 76.6041 59.0468 76.7191H50.5057C49.695 76.7191 49.0378 77.3763 49.0378 78.187C49.0378 78.9976 49.695 79.6548 50.5057 79.6548H62.3149H62.8781C63.162 80.5689 63.5289 81.452 63.9765 82.2975L63.5799 82.6924C62.3028 83.9763 62.304 86.0606 63.5829 87.3386L65.4607 89.2156C66.0782 89.8362 66.9027 90.1789 67.7822 90.1802H67.787C68.6668 90.1802 69.4928 89.8388 70.1133 89.2186L70.5065 88.8257C71.3595 89.2753 72.2465 89.6427 73.1595 89.925V90.4931C73.1595 92.3075 74.6339 93.7834 76.4465 93.7834H79.107C80.9195 93.7834 82.3939 92.3075 82.3939 90.4931V89.9285C83.3155 89.6442 84.2061 89.2753 85.0581 88.8255L85.4495 89.2155C86.0668 89.8362 86.8912 90.1787 87.7707 90.1802H87.7758C88.6554 90.1802 89.4814 89.8388 90.1031 89.2175L91.9758 87.3416C92.5969 86.7243 92.9398 85.8999 92.9411 85.0204C92.9424 84.1389 92.6007 83.3112 91.9787 82.6895L91.587 82.2979C92.0337 81.4517 92.4004 80.568 92.6838 79.655H93.2386C95.0534 79.655 96.5297 78.181 96.5297 76.3691V73.7101C96.53 71.8983 95.0537 70.4243 93.2389 70.4243ZM24.9359 42.1472V30.6866C24.9359 27.974 26.7458 25.682 28.8879 25.682H84.3336C86.4757 25.682 88.2856 27.974 88.2856 30.6866V42.1473L24.9359 42.1472ZM93.5941 76.3694C93.5941 76.5559 93.4281 76.7194 93.2387 76.7194H91.5601C90.8756 76.7194 90.282 77.1923 90.1292 77.8594C89.8121 79.243 89.2675 80.5552 88.5105 81.7597C88.1458 82.3398 88.231 83.095 88.7157 83.5793L89.9035 84.7664C89.9923 84.8552 90.0054 84.9612 90.0054 85.0165C90.0053 85.0826 89.9881 85.1785 89.9024 85.2635L88.0269 87.1423C87.9379 87.2311 87.8318 87.2445 87.7759 87.2445C87.7758 87.2445 87.7756 87.2445 87.7756 87.2445C87.709 87.2445 87.6127 87.2272 87.5267 87.1406L86.3345 85.9534C85.8496 85.4705 85.0959 85.3868 84.517 85.7507C83.3107 86.5096 81.993 87.055 80.6004 87.3719C79.9324 87.5242 79.4583 88.1181 79.4583 88.8034V90.4936C79.4583 90.6822 79.2942 90.8479 79.1073 90.8479H76.4468C76.2597 90.8479 76.0957 90.6824 76.0957 90.4936V88.7992C76.0957 88.1133 75.6205 87.5186 74.9515 87.3674C73.5767 87.0565 72.2613 86.5119 71.0423 85.7491C70.8022 85.5988 70.5323 85.5254 70.264 85.5254C69.8848 85.5254 69.5089 85.672 69.2258 85.9552L68.0381 87.1423C67.9492 87.2311 67.8431 87.2445 67.7872 87.2445C67.787 87.2445 67.7869 87.2445 67.7867 87.2445C67.7202 87.2445 67.6239 87.2272 67.5396 87.1425L65.6587 85.2625C65.527 85.1309 65.5284 84.8977 65.657 84.7684L66.849 83.5812C67.3361 83.0962 67.4212 82.3384 67.0543 81.7573C66.296 80.5566 65.7507 79.2454 65.4334 77.8599C65.2805 77.1927 64.6869 76.7196 64.0023 76.7196H62.3152C62.1249 76.7196 61.9641 76.5594 61.9641 76.3697V73.7106C61.9641 73.521 62.1249 73.3605 62.3152 73.3605H63.9981C64.6833 73.3605 65.2775 72.8864 65.4296 72.2184C65.7429 70.8418 66.2812 69.5359 67.0295 68.3368C67.3908 67.7578 67.3055 67.0063 66.8235 66.523L65.6226 65.3186C65.5411 65.2377 65.5239 65.1417 65.5238 65.0756C65.5238 65.0203 65.5369 64.9144 65.6257 64.8257L67.5023 62.9499C67.5913 62.8611 67.6974 62.8477 67.7533 62.8477H67.7537C67.8202 62.8479 67.9166 62.8651 68.0026 62.9517L69.1864 64.1308C69.6727 64.6151 70.4292 64.698 71.0083 64.3306C72.2077 63.5702 73.5215 63.0194 74.9128 62.6937C75.5766 62.5384 76.046 61.9463 76.046 61.2644V59.5866C76.046 59.3946 76.2067 59.2323 76.397 59.2323H79.0534C79.246 59.2323 79.4088 59.3946 79.4088 59.5866V61.2397C79.4088 61.9275 79.8862 62.523 80.5577 62.6725C81.9544 62.9836 83.2869 63.5329 84.5183 64.3055C85.0969 64.6682 85.8499 64.5844 86.3344 64.1019L87.5314 62.9098C87.6126 62.8281 87.7088 62.8109 87.7753 62.8108H87.7758C87.8317 62.8108 87.9378 62.8242 88.0266 62.913L89.9034 64.7886C89.9922 64.8774 90.0053 64.9834 90.0053 65.0387C90.0051 65.1048 89.988 65.2007 89.9016 65.2864L88.7137 66.4779C88.2299 66.9631 88.1461 67.7182 88.5116 68.2976C89.2716 69.5025 89.8184 70.8219 90.1369 72.219C90.2891 72.8869 90.883 73.3607 91.5682 73.3607H93.2387C93.428 73.3607 93.5941 73.5245 93.5941 73.7108V76.3694Z" fill="white"/>
<path d="M77.7796 66.0747C72.8329 66.0747 68.8086 70.0973 68.8086 75.0417C68.8086 79.9839 72.8329 84.0047 77.7796 84.0047C82.724 84.0047 86.7465 79.984 86.7465 75.0417C86.7465 70.0974 82.724 66.0747 77.7796 66.0747ZM77.7796 81.0688C74.4519 81.0688 71.7445 78.365 71.7445 75.0417C71.7445 71.7161 74.4519 69.0106 77.7796 69.0106C81.105 69.0106 83.8105 71.7161 83.8105 75.0417C83.8105 78.365 81.1049 81.0688 77.7796 81.0688Z" fill="white"/>
<path d="M44.0465 76.7197H44.0177C43.207 76.7197 42.5498 77.377 42.5498 78.1876C42.5498 78.9983 43.207 79.6555 44.0177 79.6555H44.0465C44.8572 79.6555 45.5144 78.9983 45.5144 78.1876C45.5144 77.377 44.8572 76.7197 44.0465 76.7197Z" fill="white"/>
</g>
<path fill-rule="evenodd" clip-rule="evenodd" d="M48.0295 0.00100434C20.699 5.05948 0 29.02 0 57.815C0 86.61 20.699 110.571 48.0295 115.629V113.522C21.8493 108.491 2.07035 85.4628 2.07035 57.815C2.07035 30.1672 21.8493 7.13905 48.0295 2.10823V0.00100434ZM69.5611 113.523C95.7439 108.494 115.526 85.4647 115.526 57.815C115.526 30.1653 95.7439 7.13587 69.5611 2.10719V0C96.8942 5.05631 117.596 29.0181 117.596 57.815C117.596 86.6119 96.8942 110.574 69.5611 115.63V113.523Z" fill="white"/>
<defs>
<clipPath id="clip0_172_74528">
<rect width="74.53" height="74.53" fill="white" transform="translate(22 21)"/>
</clipPath>
</defs>
</svg>
