<svg xmlns="http://www.w3.org/2000/svg" version="1.1" xmlns:xlink="http://www.w3.org/1999/xlink" width="512" height="512" x="0" y="0" viewBox="0 0 511.996 511.996" style="enable-background:new 0 0 512 512" xml:space="preserve" class=""><g><path d="M219.319 470.522H45.974c-5.663 0-10.254 4.591-10.254 10.254v13.466c0 5.663 4.591 10.254 10.254 10.254h173.344c5.663 0 10.254-4.591 10.254-10.254v-13.466c.001-5.663-4.591-10.254-10.253-10.254zM189.174 430.845H76.125c-11.447 0-20.726 9.279-20.726 20.726v18.947H209.9v-18.947c0-11.447-9.279-20.726-20.726-20.726zM168.928 193.12H45.906c-5.626 0-10.186 4.561-10.186 10.186v52.072c0 5.626 4.56 10.187 10.186 10.187h123.022c5.626 0 10.187-4.561 10.187-10.187v-52.072c-.001-5.626-4.562-10.186-10.187-10.186z" style="stroke-width:15;stroke-linecap:round;stroke-linejoin:round;stroke-miterlimit:10;" fill="none" stroke="#ee2737" stroke-width="15" stroke-linecap="round" stroke-linejoin="round" stroke-miterlimit="10" data-original="#000000" class="" opacity="1"></path><path d="M124.404 378.152V265.564H90.43v112.588c0 9.382 7.605 16.987 16.987 16.987 9.382 0 16.987-7.605 16.987-16.987z" style="stroke-width:15;stroke-linecap:round;stroke-linejoin:round;stroke-miterlimit:10;" fill="none" stroke="#ee2737" stroke-width="15" stroke-linecap="round" stroke-linejoin="round" stroke-miterlimit="10" data-original="#000000" class="" opacity="1"></path><path d="M68.193 193.12h78.447v72.445H68.193zM206.529 290.803l26.895 26.895c3.853 3.853 10.101 3.853 13.954 0l13.681-13.681c3.854-3.853 3.854-10.1 0-13.954l-14.783-14.783-39.747 15.523zM336.454 317.698c3.853 3.853 10.101 3.853 13.954 0l26.714-26.714-39.841-15.429-14.509 14.509c-3.854 3.853-3.854 10.1 0 13.954l13.682 13.68zM360.808 118.672c-21.896.466-40.574-7.105-52.965-14.032-9.617-5.376-21.321-5.414-30.935-.033-12.572 7.037-31.643 14.753-53.99 14.037-1.775-.057-3.284 1.353-3.289 3.129v63.396c0 37.177 29.108 71.135 73.148 71.186 39.206.045 71.286-32.508 71.286-71.715v-62.836c-.002-1.763-1.491-3.169-3.255-3.132z" style="stroke-width:15;stroke-linecap:round;stroke-linejoin:round;stroke-miterlimit:10;" fill="none" stroke="#ee2737" stroke-width="15" stroke-linecap="round" stroke-linejoin="round" stroke-miterlimit="10" data-original="#000000" class="" opacity="1"></path><path d="M422.683 172.555c-3.66-2.752-5.087-7.516-3.495-11.809a34.598 34.598 0 0 0 2.151-12.048 34.51 34.51 0 0 0-7.362-21.359 10.24 10.24 0 0 1 0-12.679 34.512 34.512 0 0 0 7.362-21.359c0-11.506-5.607-21.698-14.236-28.001-6.672-4.875-13.898-12.461-19.287-21.467-13.937-23.293-40.782-48.345-88.361-29.995a19.78 19.78 0 0 1-14.217 0c-47.578-18.35-74.424 6.702-88.361 29.995-5.34 8.926-12.548 16.544-19.287 21.467-8.629 6.304-14.236 16.496-14.236 28.001a34.51 34.51 0 0 0 7.362 21.359 10.24 10.24 0 0 1 0 12.679 34.51 34.51 0 0 0-7.362 21.359c0 4.244.763 8.31 2.159 12.069 1.593 4.288.153 9.039-3.503 11.788a44.257 44.257 0 0 0-15.106 20.565h22.023c5.626 0 10.187 4.561 10.187 10.187v47.72a44.454 44.454 0 0 0 11.16.978c17.458-.672 33.711-13.413 39.826-29.703a71.185 71.185 0 0 1-10.471-37.13v-63.396a3.132 3.132 0 0 1 3.233-3.131c22.375.731 41.47-6.995 54.053-14.039 9.609-5.379 21.31-5.341 30.922.033 12.401 6.933 31.103 14.514 53.025 14.034a3.131 3.131 0 0 1 3.201 3.134v62.836c0 13.19-3.644 25.62-9.955 36.316 5.704 16.929 22.375 30.356 40.311 31.047 25.187.97 45.91-19.161 45.91-44.132-.001-14.442-6.931-27.261-17.646-35.319zM336.454 317.698l-13.681-13.681a9.834 9.834 0 0 1-1.478-1.909 69.73 69.73 0 0 1-28.518 6.049c-11.113-.013-21.272-2.188-30.253-6.028a9.857 9.857 0 0 1-1.466 1.889l-13.681 13.681a9.87 9.87 0 0 1-1.955 1.505c9.433 14.63 26.034 24.861 47.134 24.885 19.031.022 35.849-10.034 45.572-25.051a9.941 9.941 0 0 1-1.674-1.34z" style="stroke-width:15;stroke-linecap:round;stroke-linejoin:round;stroke-miterlimit:10;" fill="none" stroke="#ee2737" stroke-width="15" stroke-linecap="round" stroke-linejoin="round" stroke-miterlimit="10" data-original="#000000" class="" opacity="1"></path><path d="m349.98 459.256-36.418-119.462a53.158 53.158 0 0 1-21.006 4.293c-8.208-.009-15.731-1.569-22.421-4.326l-36.372 119.325c-1.075 3.32.693 6.869 3.971 8.068 16.969 6.208 35.76 9.671 56.068 9.695a146.536 146.536 0 0 0 52.386-9.59c3.193-1.215 4.845-4.752 3.792-8.003zM306.63 435.838l4.667 37.667M277.115 435.838l-4.667 37.667M124.404 378.152c0 9.382-7.605 16.987-16.987 16.987v35.706h61.756v-41.39a52.903 52.903 0 0 0-15.087-36.995l-25.597-26.165a69.622 69.622 0 0 0-4.085 4.229v47.628z" style="stroke-width:15;stroke-linecap:round;stroke-linejoin:round;stroke-miterlimit:10;" fill="none" stroke="#ee2737" stroke-width="15" stroke-linecap="round" stroke-linejoin="round" stroke-miterlimit="10" data-original="#000000" class="" opacity="1"></path><path d="M311.116 504.496h152.151c7.185 0 13.009-5.824 13.009-13.009v-116.67c0-27.619-17.683-51.763-39.038-60.552-4.857-1.881-96.116-37.224-100.865-39.062a7.218 7.218 0 0 1-4.613-6.713l-.02-23.726c-11.183 7.318-24.53 11.591-38.864 11.591-15.805 0-29.676-4.382-40.987-11.697v23.788c0 2.974-1.43 4.726-3.076 5.843l-102.359 39.977c-7.046 2.9-15.095 8.437-22.051 16.269v47.617c0 9.382-7.605 16.987-16.987 16.987v35.706h81.757c11.447 0 20.726 9.279 20.726 20.726v18.947l9.419.004c5.663 0 10.254 4.591 10.254 10.254v13.466c0 5.663-4.591 10.254-10.254 10.254h56.798" style="stroke-width:15;stroke-linecap:round;stroke-linejoin:round;stroke-miterlimit:10;" fill="none" stroke="#ee2737" stroke-width="15" stroke-linecap="round" stroke-linejoin="round" stroke-miterlimit="10" data-original="#000000" class="" opacity="1"></path><path d="M414.519 448.345v56.151h48.748c7.185 0 13.009-5.824 13.009-13.009v-116.67c0-19.226-8.573-36.761-20.984-48.612l-25.686 26.255a52.901 52.901 0 0 0-15.087 36.995v23.89" style="stroke-width:15;stroke-linecap:round;stroke-linejoin:round;stroke-miterlimit:10;" fill="none" stroke="#ee2737" stroke-width="15" stroke-linecap="round" stroke-linejoin="round" stroke-miterlimit="10" data-original="#000000" class="" opacity="1"></path></g></svg>