<svg id="Layer_3" height="512" viewBox="0 0 64 64" width="512" xmlns="http://www.w3.org/2000/svg" data-name="Layer 3"><path d="m48 1h-9.528a8.18 8.18 0 0 0 -6.472 3.138 8.18 8.18 0 0 0 -6.472-3.138h-9.528a1 1 0 0 0 -1 1v2h-3a1 1 0 0 0 -1 1v26a1 1 0 0 0 1 1h40a1 1 0 0 0 1-1v-26a1 1 0 0 0 -1-1h-3v-2a1 1 0 0 0 -1-1zm-9.528 2h8.528v23h-8.528a8.183 8.183 0 0 0 -5.472 2.089v-21.821a6.192 6.192 0 0 1 5.472-3.268zm-21.472 0h8.528a6.192 6.192 0 0 1 5.472 3.268v21.821a8.183 8.183 0 0 0 -5.472-2.089h-8.528zm-4 3h2v21a1 1 0 0 0 1 1h9.528a6.2 6.2 0 0 1 4.58 2h-17.108zm38 0v24h-17.108a6.2 6.2 0 0 1 4.58-2h9.528a1 1 0 0 0 1-1v-21z"/><path d="m21 8h7v2h-7z"/><path d="m19 12h10v2h-10z"/><path d="m19 16h10v2h-10z"/><path d="m19 20h10v2h-10z"/><path d="m36 8h7v2h-7z"/><path d="m35 12h10v2h-10z"/><path d="m35 16h10v2h-10z"/><path d="m35 20h10v2h-10z"/><path d="m20 47a12 12 0 1 0 12-12 12.013 12.013 0 0 0 -12 12zm21.949-1h-1.949v2h1.949a10.015 10.015 0 0 1 -8.949 8.949v-1.949h-2v1.949a10.015 10.015 0 0 1 -8.949-8.949h1.949v-2h-1.949a10.015 10.015 0 0 1 8.949-8.949v1.949h2v-1.949a10.015 10.015 0 0 1 8.949 8.949z"/><path d="m32.062 45.647-2.355-2.354-1.414 1.414 3 3a1 1 0 0 0 1.348.062l6-5-1.282-1.538z"/><path d="m1 50a10.013 10.013 0 0 0 9 9.95v2.05a1 1 0 0 0 .576.905.986.986 0 0 0 .424.095 1.007 1.007 0 0 0 .641-.231l6-5a1 1 0 0 0 0-1.538l-6-5a1 1 0 0 0 -1.641.769v1.873a4 4 0 0 1 1-7.873 1 1 0 0 0 1-1v-4a1 1 0 0 0 -1-1 10.011 10.011 0 0 0 -10 10zm9-5.917a6 6 0 0 0 1 11.917 1 1 0 0 0 1-1v-.865l3.438 2.865-3.438 2.865v-.865a1 1 0 0 0 -1-1 8 8 0 0 1 -1-15.938z"/><path d="m54 43.05v-2.05a1 1 0 0 0 -1.641-.769l-6 5a1 1 0 0 0 0 1.538l6 5a1 1 0 0 0 1.641-.769v-1.873a4 4 0 0 1 -1 7.873 1 1 0 0 0 -1 1v4a1 1 0 0 0 1 1 10 10 0 0 0 1-19.95zm0 17.888v-2.021a6 6 0 0 0 -1-11.917 1 1 0 0 0 -1 1v.865l-3.438-2.865 3.438-2.865v.865a1 1 0 0 0 1 1 8 8 0 0 1 1 15.938z"/></svg>