<?xml version="1.0" encoding="utf-8"?>
<!-- Generator: Adobe Illustrator 27.5.0, SVG Export Plug-In . SVG Version: 6.00 Build 0)  -->
<svg version="1.1" id="Layer_1" xmlns="http://www.w3.org/2000/svg" xmlns:xlink="http://www.w3.org/1999/xlink" x="0px" y="0px"
	 viewBox="0 0 2500 1667" style="enable-background:new 0 0 2500 1667;" xml:space="preserve">
<g>
	<path style="fill:#FCFDFE;" d="M0,0h2497.2c1,1.5,1.9,3.1,2.1,4.9c1.5,13.7,0,29.6,0.1,43.6c0,32.3,0,64.5,0.1,96.8
		c0.1,106,0.1,212.1,0.1,318.1c0,279.4,0,558.9,0,838.3c0,83.8,0,167.6-0.1,251.4c0,25.4,0,50.8-0.1,76.2c0,10.6,1.2,23,0,33.4
		c-0.2,1.6-1.2,3-2.1,4.3H0V0z"/>
	<path style="fill:#FABB77;" d="M1610.1,1415.2l0.5,0.1c1.4,2.2,2.6,4.5,4.4,6.4c-5.4,4.9-10.9,9.7-16.4,14.5
		c-1.7,1.5-4.7,4.8-6.6,5.7c-1.2,0.6-4.8,0.6-6.3,0.8C1586.2,1435.4,1604.4,1421.1,1610.1,1415.2z"/>
	<path style="fill:#B6BDF1;" d="M1487.8,397.9c11.2,0.4,22.4,0.5,33.6,0.4c4.4,0,8.8,0.5,12.7-2c2.7-4.1,2.3-5.2,2-9.9
		c-1.1-1.2-2.5-3.1-3.8-4c-4.5-3.2-10.4,0-12.7-5.6c3-2.5,5.5-2.2,9.2-1.8c4.1,0.4,8.2,3.7,10.6,6.8c2.2,2.9,3.4,7.5,2.7,11
		c-0.6,3.5-2.7,7.3-5.8,9.2c-5.5,3.3-42.6,1.1-51.2,1.1L1487.8,397.9z"/>
	<path style="fill:#7C8AE2;" d="M2288.8,1518.6c7.9-0.2,21.2-2.1,27.4,3.1c2.4,4.1,2.4,4.4,1.9,9.1c-2.7,3.3-3.7,3.7-7.6,5.3
		c-6.6,0.1-16.9,1.7-22.9-1c-2.8-3.2-3.6-3.9-4.3-7.9C2284.5,1523.4,2286,1521.4,2288.8,1518.6z"/>
	<path style="fill:#B6BDF1;" d="M1415.6,458.1c-1.4-4.2-2-9.4-0.8-13.7c1.3-4.5,4.9-7.5,9-9.3c4.9-2.2,90.6-2,93.9-0.5
		c1.9,0.8,1.7,1.3,2.4,3.2c-0.7,0.6-1.2,1.5-2,1.9c-1.6,0.9-11.5-0.1-14.2-0.1c-20.2-0.1-40.3-0.1-60.5-0.1c-5,0-14.4-1.2-18.6,0.8
		c-4.4,2.1-5.5,6.8-7,11.1c-0.4-5-0.3-6.6,3-10.6l1.7-1.8c-3,1.3-5.1,3.4-6.2,6.7c-0.6,2-0.4,4.6-0.5,6.7L1415.6,458.1z"/>
	<path style="fill:#7C8AE2;" d="M1404.2,394.8c17.8,0.2,35.6,0.4,53.4,0.4c8.3,0,23.2-2,30.2,2.7l-2.7,5.2l-85.9,0.6
		C1400.5,400.5,1402.4,397.7,1404.2,394.8z"/>
	<path style="fill:#F25159;" d="M1767.6,1145.8l23-0.4c4.2,6.2,4.5,26.7,3.2,34.4c-0.2,1.4-0.7,2.5-1.3,3.7
		c-3.4,2.3-18.5,0.1-23.2-0.1C1770.3,1175.5,1771.8,1151.9,1767.6,1145.8z"/>
	<path style="fill:#FABB77;" d="M1575.3,983.3c3.6,2.8,7.3,6.1,11.4,8.1c5.4,2.8,14.6,4.2,18.2,8.7l-1.1,1.8l-6.2-0.2l-0.6,1.5
		l12.2,7l0.4,2c-5.6,1.9-15.9-2.5-21.9-4c5.5,2.9,15.5,6.8,18.9,12l-1.1,1.8c-2.9-0.3-4.7-1.4-7.3-2.7c-1.6-0.8-0.9-0.5-2.7-0.9
		c1.7,2.7,5.9,4,5.8,7.2c-2,0.2-3.2,0.1-4.9,1.3l-0.2,2.2c-5.2-0.2-16-7.2-19.9-11.2l-1.3-1.6c-3.7-4.8-16.2-9.9-22.3-11.2
		L1575.3,983.3z"/>
	<path style="fill:#F48323;" d="M1726.1,1149.3l41.5-3.5c4.2,6.1,2.7,29.7,1.8,37.6l-0.3,1.1c-6.4-0.1-12.5,0.1-18.9,1.1
		c-6.1,0.9-11.1,3.2-17,1.3l0.4-2.4c0.2-3.9-1.8-9.5-2.5-13.4C1729.8,1164.3,1730.6,1154.7,1726.1,1149.3z"/>
	<path style="fill:#0A144B;" d="M1479.3,1393.1c7.1-0.4,16.1-3,22.9-1.6c8.8,6,17.3,10,27.6,12.9c4.8,1.4,10.6,2.1,15,4.5
		c2.7,1.5,4,3.3,4.5,6.3c0.5,3.1,0.5,4.4-0.8,7.2l-11.9,0.4h-59.8l0.1-14.3L1479.3,1393.1z"/>
	<path style="fill:#F25159;" d="M1834.7,1152.4c12,4.4,23.6,11.3,35.1,16.8c3.9,1.9,11.7,4.5,14.4,7.8c0.8,5.5-5.4,17.6-8.8,22.1
		c-0.7,0.9-1.4,1.6-2.3,2.4c-1.8,5.1-4.4,8-8.6,11.4c-2.7-3.2-7.5-5.6-11.2-7.8c-12.4-7.4-25.9-12.1-39-17.9
		c6.1-7.5,11.2-16.5,16.1-24.9C1832.4,1159,1834.7,1156.1,1834.7,1152.4z"/>
	<path style="fill:#FABB77;" d="M1664.1,1174.4c12.8-6.7,27.2-11.5,40.5-17c5.1-2.1,12.3-4.2,16.3-7.9l2,2.4
		c3.3,4.8,9.5,31.1,8.2,36.4c-4,4.8-18.7,8.8-25.1,12c-7.2,3.6-14.2,8-20.7,12.7c-2.5,0-3.8-0.4-6.2-1.4
		C1680.7,1203.8,1668,1181.8,1664.1,1174.4z"/>
	<path style="fill:#0A144B;" d="M2256.2,1446.4l6.7,13.1c8.3,1.6,17,12.7,22.8,18.8l0.4,2.5c-3.7,5.6-12.4,10.1-18,13.7
		c-11.4,7.3-25.6,18.2-38.5,22.5c-2.2,2.2-6.4,5.3-9.5,5.5l-5.2-5.7c0.8-3.8,0.6-8,1.9-11.6c3.7-9.9,12.6-14.2,18.8-22
		c2.8-3.5,3-6.1,2.5-10.4v-2.6c-0.7-4.2-4.1-9.5-7.5-11.9C2239.2,1455.6,2248.2,1450.5,2256.2,1446.4z"/>
	<path style="fill:#F7A483;" d="M2256.2,1446.4l6.7,13.1c-0.5,3.5-0.3,4.5-3.3,6.9c-5.2,4.2-15,5.2-21.5,6.5v-2.6
		c-0.7-4.2-4.1-9.5-7.5-11.9C2239.2,1455.6,2248.2,1450.5,2256.2,1446.4z"/>
	<path style="fill:#F37FA4;" d="M1297.5,191.9c14.8,2.9,36.7,24.6,44.8,36.8l2.2,3.7l41.1-13.9c8.4,12.9,15.2,29.5,20.2,44.1l-2,4.4
		l10.5,3.1l0.7,1.6c-5,3.2-12.6,0.2-18.5-0.9c-8.2,4.2-18,10.8-26.9,12.5c-11-0.5-24.9,4.6-35.8,7.2c-3.4-12.5-10.6-25-17.8-35.7
		l18.2-30l-27.3,19.4c-17.8-19.9-36.1-30.5-61-39l0.1-1.3c3.1,0.2,6.5,1.9,9.5,2.8c12.8,4.2,22.5,10.1,33.5,17.7
		c6.1,4.2,12.5,14.1,19.2,15.9l2.7-2.1l2.2-1.1l20.4-14.8c-1.6-2.9-4.7-5.5-7-7.9c-8.3-8.9-19.6-13.8-28.4-21.8L1297.5,191.9z"/>
	
		<linearGradient id="SVGID_1_" gradientUnits="userSpaceOnUse" x1="2000.4041" y1="-376.6425" x2="2210.7317" y2="-381.0605" gradientTransform="matrix(0.6667 0 0 -0.667 485.5919 1216.2878)">
		<stop  offset="0" style="stop-color:#DF4259"/>
		<stop  offset="1" style="stop-color:#EE5C91"/>
	</linearGradient>
	<path style="fill:url(#SVGID_1_);" d="M1929,1418c4.9,1.8,8.9,4,13.2,6.9l1.3-1c-0.1,2.2-0.7,3.9,0.9,5.8
		c4.8,5.8,15.5,8.7,18.5,15.7c-0.1,1.5-0.1,2.6-0.8,4c-3.4,6.3-10.1,12.7-14.7,18.4c-8.6,10.8-17.5,24.8-27.5,34.2
		c-1,0.9-1.9,1.5-3.1,2.1c-4.8-6.9-17.3-14.6-24.8-18.5c-3.1,5.9-17.4,13.7-23.5,16.2c2.4,4,3,7.5,3.7,12l-1.4,4.2
		c-4.6,2.8-46.3,1.5-54.1,1.1l0.8-1.9c1.1-4.1-0.3-8.6-2.5-12c17.6-1.3,43.8-10.1,57.4-21.9c3.3-2.9,4.5-3.6,4.8-8l2.5-1.2
		c3.9-2.9,14.9-11.2,15.6-15.4c1.9,0.8,3.3,1.4,5.4,1.6c9.1-8.8,16.1-19,22.8-29.7C1925.8,1426.5,1928.7,1422.7,1929,1418z"/>
	<path style="fill:#F9B39F;" d="M1881.5,952.9c0.2-7-7.7-12.9-6.2-20.5c0.6-2.8,1.1-3,3.4-4.5c12.4,13.6,15.4,33.8,32,44.7
		c18,11.8,44.4,14.4,65.1,9.8c10.3-2.3,31.8-9.9,37.7-19.1c7,4.2,11.9,12.6,18.5,17.9c5.3,4.3,12.9,7.1,17.7,11.7
		c3.1,4.8,2.3,8.5,1.3,14.1l-0.9,3.1c-1.3-0.9-7.1,2.2-8.6,2.9c-17.4,7.9-33.7,11-52.8,10.8c-27.7-0.2-55.9-8.4-77.3-26.7
		c-5.2-4.5-9.3-10.2-14.1-15.1l-8.6,2c-11.8,2.1-27-0.3-36.9-7.4c-5.2-3.8-9.1-9.4-9.7-16c-0.3-3.3,0.2-4.2,2.3-6.6
		c2.1,2,4.1,4.2,6.5,5.9c6.4,4.6,11.7-2.4,17.9-4.5C1872.9,954,1877.4,953.5,1881.5,952.9z"/>
	<path style="fill:#F25159;" d="M1917,1201.5c6.2,3.3,9.9,8.9,14.2,14.4c7.1,8.9,14,18,20.9,27c2.7,3.5,7.6,8.4,9.4,12.3l0.4,2.3
		c-1.8,5.5-10.6,13.9-15.7,16.5c6.3,6.3,9,19.3,11.2,27.8l-1,3.4l27.9,0.6c8.7,11.3,7,45.3,5.1,59.2c-0.4,3.1-0.9,5.3-3.3,7.5
		l-27.2,1.2c3.4,7-2.2,20-4.7,27.2c-2.3,6.6-5.3,18.5-10.8,22.8l-1.3,1c-4.3-2.9-8.3-5.1-13.2-6.9l0.9-3.4
		c-4.1-6-25.7-14.3-32.8-16.9c0.9-1.1,1.7-2.1,2.3-3.3c2.7-5.6,9.2-21.6,7-27.3l35.8-0.4c1.9-2.4,2.3-5,2.6-8
		c1.7-15.7,1.4-32.6-0.6-48.3c-0.8-6.5-0.7-11.9-5-17.3l-36,1.2c-2.7-2.3-2.8-2.3-3.4-5.9c2.4-6.9,13.5-8.6,18.3-13.5l1-1.1v-0.6
		c0-14.7-17.8-33.5-25.6-45.7c1.5-1.5,3-2.8,3.6-4.9l0.4-1.3C1902.2,1218,1915.7,1206.8,1917,1201.5z"/>
	<path style="fill:#090B28;" d="M2092.5,777l-0.6-1.2c-3.9-8.3-10.5-13.5-6.8-23.9c1.3-3.8,4.1-6.7,7.8-8.2c4-1.7,7.7-1,11.5,0.7
		c4.4,2,8.6,4.7,13.4,5.8c6.2,1.4,12.9,0.9,19.2,2c11.3,2,19.4,11.4,24.7,21c5.7,1.3,10.9,2.9,14,8.4c2.3,4,1,8.2-0.3,12.3
		c-4.6,14.3-13.6,27.9-22.1,40.1l-4.5,1.7l-1,0.4l-3.3,1.1c0.2,9.2,0.3,18.8,2.8,27.7c1.5,5.4,5.9,11.6,6,17
		c-4.6,4.5-17.7,8.8-24,9.5c-13.4,1.4-19.6-2.8-29.5-10.8c1.1-2.5,1.6-3.8,1-6.6l-4.7-2.2c-6.6,2.1-16.3,2.4-22.7-0.7
		c-4.7-2.3-7.5-5.7-9.1-10.7c-1-2.9-2-4.5-3.9-6.9l-0.7-0.8c3.8-4.8,4.2-10,6.9-15.4c2.3-4.7,6.1-8.7,6.6-14.1
		c3.6-4.2,4.3-12.9,6.2-18.3c1.8-5.1,4.1-10.2,6.8-14.9C2088.8,785.5,2092.2,782.2,2092.5,777z"/>
	<path style="fill:#F9B39F;" d="M2130.5,829.3c0-7.4-0.2-12.8,5.3-18.4c2-2,2.7-2.1,5.4-2.7c3,1.5,4.2,2.6,5.7,5.7
		c-1.1,5.8-2.5,10-7.3,13.7l-2.7,1.4c3.6,2.7,7.4,6.6,12,6.7l-1,0.4l-3.3,1.1c0.2,9.2,0.3,18.8,2.8,27.7c1.5,5.4,5.9,11.6,6,17
		c-4.6,4.5-17.7,8.8-24,9.5c-13.4,1.4-19.6-2.8-29.5-10.8c1.1-2.5,1.6-3.8,1-6.6l-4.7-2.2c2.9-0.7,5.7-1.4,8.4-2.7
		c16-7.6,22.9-20.7,28.4-36.7L2130.5,829.3z"/>
	<path style="fill:#F9B39F;" d="M2092.5,777c10.6,4.8,20.7,8.9,31.7,12.9c3.3,5.5,1,14-0.5,19.9c-2.2,9-7.2,20.1-15.7,24.8
		c-5.6,3.1-13.9,2.7-19.8,0.7c-7.2-2.5-8.1-9.4-15-12.2c3.6-4.2,4.3-12.9,6.2-18.3c1.8-5.1,4.1-10.2,6.8-14.9
		C2088.8,785.5,2092.2,782.2,2092.5,777z"/>
	<path style="fill:#FABB77;" d="M1630,1200.8c7.4,4.8,21.1,17.3,29.6,17c1.5,0.4,4.3,0.8,5.6,1.6c1.5,0.9,3.9,4.6,5.2,6.2
		c4.1,4.8,9.7,9.5,13,14.7c0.8,1.3,1.1,2.7,1.2,4.2c-1.2,5.5-7,9.8-10.7,14.1c-5,5.8-9.7,12.4-14.1,18.7
		c-4.7,6.8-8.6,15.7-13.9,21.7c-4,8.6-6.5,16.5-8.3,25.8c-4.8,24.4-1.7,50.9,7.7,73.7c-9,5.5-17.4,11.1-24.9,18.6l-5.5,4.7
		c-1.8-1.9-3.1-4.1-4.4-6.4l-0.5-0.1c-5.5-9.8-10.5-23.1-11.5-34.3c-0.1-1.5-1.4-2.4-2.3-3.4l-33.4-6c-1.9-20.6-0.5-43.1,0.3-63.8
		l37.3-7.1l7.9-20.2c-7.3-4.7-13.3-13.7-18.8-20.4L1630,1200.8z"/>
	<path style="fill:#FCBB56;" d="M1600.7,1367.7c2.8,3.7,3.6,5.3,3.8,9.9c0.5,9.7,3.8,21.7,8.2,30.4c3.8,2.4,6.7,4.3,7.8,9l-5.5,4.7
		c-1.8-1.9-3.1-4.1-4.4-6.4l-0.5-0.1c-5.5-9.8-10.5-23.1-11.5-34.3c-0.1-1.5-1.4-2.4-2.3-3.4
		C1596.2,1372.4,1597.6,1371.5,1600.7,1367.7z"/>
	<path style="fill:#F8CF8C;" d="M1608.4,1280.3c3.7,0.1,5.4,0.9,8.4,3.2c9.3,2.8,18,7.2,26.7,11.4l-0.1,2.5
		c-5,10.4-7.9,20.4-9.8,31.7c-2.1,11.9-1.2,25.8,0,37.8c-10.2,0.2-21.1,1.1-31.3,0.2c1.2-6.1,0.2-13.8,0.4-20.1
		c0.3-12.4,1.7-24.3,4.3-36.4c-2.2-1.2-4-2.3-5.9-3.9l-0.6-6.3L1608.4,1280.3z"/>
	<path style="fill:#FCBB56;" d="M1608.4,1280.3c3.7,0.1,5.4,0.9,8.4,3.2l-9.8,27.1c-2.2-1.2-4-2.3-5.9-3.9l-0.6-6.3L1608.4,1280.3z"
		/>
	<path style="fill:#EAF0F7;" d="M1610.7,525.1c34.4,21.2,75.9,48.2,117,51.1c6.5,0.5,17-5,22.6-8.1c1.3-2.6,1.4-3,4-4.5
		c2,3,3.6,4.3,3.6,8.1c0.1,5.1-14.5,41.5-17.9,45.2l-2.2,1.6c0.5,4.3-4.3,16.8-7.6,20l-2.3,1.5c-12,2.7-19.9,11.3-30.6,16
		c-0.9,5-7.9,11-10.9,15.5c-3.1,4.7-5.3,9.6-7.4,14.8c-4.2,10.5-7.2,21.5-9.1,32.7c-1,5.8-0.9,12.2-2.9,17.7v3.2l0.4,1.1
		c3.7,9.9,4.3,21.2,7.6,31.5c11.4,35.8,38,65.1,71.8,81.1l19,7.1l37.7,6.1c4.2,8.5-2.1,32.4,2.7,37.1h5.8
		c-7.5,5.6-43.8-3.4-54.4-3.5h-1.4c-1.8-1.5-2.7-1.1-4.9-1.1c-1.2-0.9-1.8-1.3-3.3-1.6c-3.4-0.7-5.8-2.2-9-3.1l-1.1-0.3
		c-3.4-1.5-7.1-3.4-10.7-4.6c-8.9-3-20.6-9.7-27.9-15.5c-13.2-10.6-26.3-21.4-37.1-34.6c-8.4-10.4-15-23.3-20.9-35.3
		c-1.8-3.7-3.9-8.9-5-12.8c-0.7-2.5-0.8-5.4-2.2-7.5c-1-1.6-0.1-2.1-0.6-3.7c-0.5-2.1-1.9-4.6-2.4-6.7c-1.4-5.4,0.6-10.9-2.4-15.9
		c0.4-9.6-2-26.8,1.2-34.8c1.4-3.6-1.4-7.7,1.2-11.6c0-1.8-0.1-3.4,0.3-5.2l1-4.5c1.3-6.6,4-19.4,7.3-25c1.2-1.9,1.5-2.6,2.1-4.9
		c1.8-6.8,6.5-14.7,10.1-20.7c18.5-30.7,41.5-54.2,72.6-72.4c-1.6-0.8-0.8-0.6-2.6-0.8c-2.2-0.2-1.1,0-3.2-0.5l-3.9-0.6l-3-0.3
		c-2.2-0.6-5.5-1.1-7.6-2l-7.7-2.3c-2.6-0.7-5-2.4-7.5-2.7h-1c-3.2-2.4-7.7-5-11.6-4.6c-1.1-1.2-1.9-1.9-3.4-2.6
		c-2.9-1.3-7.5-4.8-10.6-4.9l-0.7,0.1c-4.2-4.4-14.8-9.9-20.6-12.4c-2.3-1-4.6-2.2-6.7-3.6l-1.7-1l-0.9-0.4l-1.8-0.9h-1.2
		c-3.4-3.5-7.7-5.1-11.6-7.9c-1.5-1.1-2.6-1.8-4.3-2.4l-0.3,14.7c-0.2,2.5-0.5,5.1,0.9,7.3c3,4.5-0.8,32.6,0.4,40
		c1.9,11.7-0.3,25.7-0.4,37.6c-0.1,7.7,1.4,17.2,0.1,24.7c-1.2,7.1,0.2,15.3,0.2,22.6c-0.1,12.1-2.2,28.1,0,39.8
		c1.1,6.2,0.4,13.7,0.4,20c0,6.2-1.6,17.8,0,23.5c0.3,1.2,1.2,0.3,1.2,2.2c0.1,6.5-1.1,13.8-0.5,20.1c0.5,5.2-0.3,10.5-1.1,15.6
		L1610.7,525.1z"/>
	<path style="fill:#FCFDFE;" d="M1697.3,656c0.2-2.9,1.5-4.8,3.1-7.2c7.6-11.3,23.8-27.6,37.4-30.3c0.5,4.3-4.3,16.8-7.6,20
		l-2.3,1.5C1715.9,642.7,1708,651.3,1697.3,656z"/>
	<path style="fill:#F8CF8C;" d="M1733.2,1186.9c5.9,1.9,10.9-0.4,17-1.3c6.4-0.9,12.5-1.2,18.9-1.1c1.5,9.4,0.8,19.3,0.7,28.7
		c0,4.4,0.5,9.9-0.7,14c-12.5,2.3-24.8,4.1-36.8,8.5c-21.4,7.8-41.3,24.5-54.1,43.2c-17.7,25.9-22.7,58.8-16.9,89.3
		c4.7,24.4,19,46,36.9,62.8c3.2,3,9.4,6.2,11,10.3l1.1,0.4c5.6,2.3,10.5,5.7,15.9,8.2c18.9,8.5,36,10.5,56.4,9.8
		c-4.9,1.3-10,0.9-15,0.8c2.3,6.4,1.7,12.9,1.7,19.6c0,12,0,24-0.1,36l-2.3,2.7l-27.7,0.1l-17.7-0.1l-47.1-0.9l0.9-1.4
		c2.2-3.9,3.5-7.7,2.4-12.2l0.4-1.8c0,0-0.1-1.6-0.3-1.7c-1.9-2-6.1-4.1-8.4-5.8c-5.1-3.8-9.4-7.6-13.5-12.4
		c-8.6,2-19.1,9.9-26.9,14.4l-14.6-16.5c-11.8-10.2-17.6-27.7-28.8-37.8c1.5-0.2,5-0.2,6.3-0.8c1.9-0.9,4.9-4.2,6.6-5.7
		c5.5-4.8,11-9.6,16.4-14.5l5.5-4.7c7.5-7.4,15.9-13.1,24.9-18.6c-9.4-22.8-12.5-49.3-7.7-73.7c1.8-9.3,4.3-17.1,8.3-25.8
		c5.3-6,9.2-14.9,13.9-21.7c4.3-6.3,9.1-12.8,14.1-18.7c3.6-4.3,9.5-8.6,10.7-14.1c-0.1-1.5-0.3-2.9-1.2-4.2c-3.3-5.2-9-9.9-13-14.7
		c-1.3-1.5-3.6-5.2-5.2-6.2c-1.3-0.8-4.1-1.1-5.6-1.6c3.3,0.1,6.4,0.1,9.6-0.8c3.6-1.1,8.2-2.3,10-5.6c2.3,1,3.6,1.4,6.2,1.4
		c6.5-4.7,13.5-9.1,20.7-12.7c6.4-3.2,21.1-7.2,25.1-12L1733.2,1186.9z"/>
	<path style="fill:#FCBB56;" d="M1728.8,1505.9l5.3-2c3.8,2,5.4,5.1,6.6,9.2c0.8,2.9,0,3.5-1.4,5.9l-17.7-0.1l4.6-2
		C1728.5,1512.3,1729.9,1511,1728.8,1505.9z"/>
	<path style="fill:#FAA647;" d="M1682,1486.4c9.9,4,19.3,8.9,29.1,12.9c5.7,2.3,12.5,3.5,17.8,6.6c1,5.1-0.3,6.4-2.6,11l-4.6,2
		l-47.1-0.9l0.9-1.4c2.2-3.9,3.5-7.7,2.4-12.2c2.2-2,2.7-3,3.6-5.9C1680.1,1494,1680.9,1490.8,1682,1486.4z"/>
	<path style="fill:#FABB77;" d="M1665.8,1435.6c4.5,2.9,16.3,15,17.1,20.1v0.8c-3.7,4.6-9.3,7.5-13.6,11.6
		c-4.6,4.4-8.4,10.7-13.3,14.5c-8.6,2-19.1,9.9-26.9,14.4l-14.6-16.5c5.3-5.1,11.2-8.9,16.8-13.5c8.1-6.7,15.9-13.8,23.8-20.8
		C1658.2,1443.5,1664.1,1439.4,1665.8,1435.6z"/>
	<path style="fill:#F87878;" d="M1769.4,1183.4c4.7,0.2,19.8,2.4,23.2,0.1c4.4,2.3,16,5,21,3.9l0.9-0.3c13.1,5.9,26.6,10.6,39,17.9
		c3.7,2.2,8.4,4.6,11.2,7.8c4.1-3.3,6.8-6.2,8.6-11.4c9,4.4,16.9,13.1,24.3,19.8l-0.4,1.3c-0.6,2.1-2.1,3.4-3.6,4.9
		c7.8,12.2,25.6,31,25.6,45.7v0.6l-1,1.1c-4.8,4.9-15.8,6.6-18.3,13.5c0.6,3.5,0.7,3.6,3.4,5.9l36-1.2c4.3,5.4,4.1,10.8,5,17.3
		c2,15.7,2.3,32.5,0.6,48.3c-0.3,3-0.7,5.5-2.6,8l-35.8,0.4c2.2,5.8-4.3,21.7-7,27.3c-0.6,1.3-1.4,2.3-2.3,3.3
		c7.1,2.7,28.7,10.9,32.8,16.9l-0.9,3.4c-0.4,4.8-3.2,8.5-5.7,12.4c-6.7,10.6-13.7,20.9-22.8,29.7c-2.1-0.2-3.5-0.8-5.4-1.6
		c-0.7,4.2-11.7,12.4-15.6,15.4l-2.5,1.2c-0.3,4.4-1.5,5.1-4.8,8c-13.5,11.8-39.8,20.5-57.4,21.9c2.2,3.4,3.5,8,2.5,12l-0.8,1.9
		l-49.4-0.1l2.3-2.7c0.1-12,0.1-24,0.1-36c0-6.7,0.6-13.2-1.7-19.6c5,0,10.1,0.4,15-0.8c28.5-1.2,56.1-12.4,76.8-32.4
		c21.6-20.8,34.5-49.9,34.9-79.9c0.5-31.7-10.3-61.9-32.6-84.8c-15.3-15.8-35.5-27.9-57-32.5c-11.8-2.5-23.7-2.6-35.7-2.8
		c1.2-4.2,0.7-9.7,0.7-14c0.1-9.5,0.7-19.4-0.7-28.7L1769.4,1183.4z"/>
	<path style="fill:#F25159;" d="M1854.5,1444.4c4.1-2.6,9.3-8.1,10.5-12.8c5.3,2.4,9.2,7.5,13.5,11.4c5.3,4.7,13.1,9.5,16.6,15.5
		c-0.7,4.2-11.7,12.4-15.6,15.4l-2.5,1.2c-2-5.9-7.5-11.3-11.1-16.4C1862.4,1453.9,1859.6,1447.9,1854.5,1444.4z"/>
	<path style="fill:#014735;" d="M1477,1033.2c9.2,0.1,17.7-1.1,26.2-4.6c7.7,38.4,13.9,77.3,18.6,116.1c1.9,15.9,4.6,32.3,4.7,48.3
		c0.2,32.8-4.6,66.5-7.4,99.2c-1.8,21.3-4.6,42.3-7.3,63.5c-1.1,9-3.9,20.5-3.2,29.5l-32.5-0.5l-7.3-72.9l-1.7-14.9l-43.7-0.7
		l21.3-91.9l5-21.7c-0.3-15.6,5.6-33.7,8.6-49.2C1464.7,1100,1471.3,1066.6,1477,1033.2z"/>
	<path style="fill:#FAA647;" d="M1449.7,1182.5l7.2,21.8l-12.2-0.1L1449.7,1182.5z"/>
	<path style="fill:#FCBB56;" d="M1456.8,1204.3l10.2,92.6l-43.7-0.7l21.3-91.9H1456.8z"/>
	<path style="fill:#099872;" d="M1445,1032.4l32,0.8c-5.7,33.4-12.3,66.8-18.8,100.1c-3,15.5-8.9,33.6-8.6,49.2l-5,21.7l-21.3,91.9
		l-3.8,15.2l-20.1,75.8l-35.7-0.4l0.5-74.6l0.1-16.3v-91.1v-16.5l0.8-143.2l13-3.3l11.1,3.8
		C1407.9,1052.3,1428.3,1040.3,1445,1032.4z"/>
	<path style="fill:#35C1A6;" d="M1977.5,417l4-0.6c8.3-1,17.7-0.2,26.1-0.2c16.8,0,33.6,0,50.3,0c22.3,0,44.6,0,66.9-0.1
		c11,0,22.6-0.7,33.6,0.1c3.2,0.2,5.9,1.4,8.4,3.5c3.1,2.6,6.2,7.2,6.4,11.4c1.3,23.9-0.4,48.6-0.4,72.6c0,13.2,0,26.5-0.1,39.7
		c0,7,0.6,14.6-0.3,21.6c-0.4,3.4-1.9,5.7-4.3,8c-8.6,8.4-36.5,4.8-48.4,4.7l-38.8,0.1l0.1,3.3c-2,9.8-11,31.8-18.9,37.4l0.2-2.8
		c-0.4-3.7-3.6-8.5-5.4-11.9c-3.9-7.5-8.4-20.7-15.2-25.7l-55.4-0.4c-6.1-0.7-11.7-3.1-15.5-8.1c-2.2-3-3.7-6.5-4.2-10.2
		c-1.2-10.5-0.2-22.2-0.1-32.8c0.1-23.4,0.1-46.9,0.6-70.3c0.1-8.1-1.1-17.8,0.4-25.6C1968.6,423.8,1972.3,420.8,1977.5,417z"/>
	<path style="fill:#FCFDFE;" d="M2006.5,489.1c33.4,0,66.8-0.1,100.2,0c6.8,0,25.8-1.9,31,1.3l-1.9,4c-4.8,2-123.3,1.8-129.4-0.4
		L2006.5,489.1z"/>
	<path style="fill:#FCFDFE;" d="M2004.9,467.1c8.9-1.5,126.3-2.2,130.1-0.8c0.9,0.3,1.6,1,2.4,1.4l-1.6,3.9l-1.2,1
		c-30.2,0.2-60.5,0.1-90.7,0.1c-11.5,0-26,1.8-37.1-0.7L2004.9,467.1z"/>
	<path style="fill:#FCFDFE;" d="M2005.9,511.1c22-2.6,46.7-0.5,69-0.5c19.8,0,42.7-2.2,62.2,0.5l0.8,3.1l-3.3,3
		c-14.3,0.2-122,2.4-127.6-0.6L2005.9,511.1z"/>
	<path style="fill:#35C1A6;" d="M1742.1,197.2l7.2-0.7c12.8-0.8,26-0.1,38.8-0.2c25.7,0,51.4,0,77,0c14.5,0,28.9,0,43.4,0
		c7.5,0,16.4-0.8,23.7,0.3c2.5,0.4,4.7,2,6.5,3.6c4.1,3.9,6.4,9.4,6.5,15c0.3,30.4,0.2,60.8,0.1,91.2c0,11.5,1.7,26.6-0.5,37.7
		c-0.7,3.4-2.5,6.2-4.9,8.6c-9.3,8.8-36.1,5.1-48.6,5h-22.4l0.7,3.1c-2.7,6.8-5.3,13.6-7.6,20.5c-2.2,6.5-3.6,13.5-8.9,18.2l0.1-2.5
		c-0.5-4-4.5-9.3-6.5-12.9c-4.5-8-9.3-21.3-16.6-26.7l-88.5-1.2c-1.8-3.1-5.3-4.6-7.4-7.5c-1.6-2.2-2.2-4.9-2.4-7.6
		c-0.8-8.8-0.2-18.1-0.2-26.9c0-17.2,0.1-34.4,0.1-51.6c0-16.7-2.2-36,0.2-52.3C1732.7,204.1,1737.3,200.7,1742.1,197.2z"/>
	<path style="fill:#FCFDFE;" d="M1870.2,308.4c5.5-1.1,11.4-0.8,17-0.9c2.7,4,2,9.1,2,13.7l-3.2,3.1h-16.3l1.2-1.9
		C1872.2,318.6,1871.7,311.9,1870.2,308.4z"/>
	<path style="fill:#FCFDFE;" d="M1830.7,307.1l16.4-0.1c0.8,1.3,1.4,2.2,1.6,3.7c1,5.3,0.7,9.2-2.1,13.6l-18.1,0.4
		C1832,320.3,1830.8,312.6,1830.7,307.1z"/>
	<path style="fill:#FCFDFE;" d="M1798.5,235.1c3.5-0.1,8.3-0.9,11.3,1.2c0.1,4.4,1.3,13.1-1.1,16.5l-8.9,0.2c-3.5,0-5.7,0.7-8.3-2
		c0-4.6-1.1-11.8,1.3-15.5L1798.5,235.1z"/>
	<path style="fill:#FCFDFE;" d="M1791.3,270.5h16.8c0.8,1.3,1.4,2.2,1.7,3.7c1.1,5.4,0.6,9.3-2.3,13.8l-18.2,0.3
		C1792.8,283.7,1791.5,276,1791.3,270.5z"/>
	<path style="fill:#FCFDFE;" d="M1872,235.1l15.9,0.2c3.1,4.2,2.1,10.1,2,15.1l-2.8,2.4l-18,0.1
		C1872.6,247.8,1869.9,240.9,1872,235.1z"/>
	<path style="fill:#FCFDFE;" d="M1868.9,271.7c6-1.1,12.6-0.7,18.8-0.8c0.8,1.2,1.3,1.9,1.7,3.3c1.2,4.6,0.6,9.4-1.9,13.4
		c-3.9,2.2-14,1.1-18.8,1.1l1.3-2.3C1871.6,282,1870.5,276,1868.9,271.7z"/>
	<path style="fill:#FCFDFE;" d="M1790.3,307.1c5.7-0.8,11.8-0.5,17.5-0.5c0.9,1.3,1.4,2.1,1.8,3.6c1.1,4.6,0.7,10-1.8,14
		c-4.3,1.9-13.9,0.7-18.8,0.8l0.4-0.6C1792.4,319.8,1791.3,312.3,1790.3,307.1z"/>
	<path style="fill:#FCFDFE;" d="M1830.7,270.5h17.2l0.9,2.3c1.4,4.9,1.1,10.4-1.6,14.8c-3.1,2.3-14.7,1-18.8,1
		C1831.8,284.2,1830.7,276,1830.7,270.5z"/>
	<path style="fill:#FCFDFE;" d="M1830.3,235.1l17-0.4c3.2,4.8,2.1,11.4,1.9,16.9l-3.6,1.9h-17.1
		C1831.8,248.6,1830.5,240.7,1830.3,235.1z"/>
	<path style="fill:#FAA647;" d="M631.4,354.1c-19.6,0-39.2,0.1-58.9,0c-9.9,0-28.4,2.4-37-2.9c-3.6-2.2-7-5.8-7.8-10.1
		c-1.1-5.3-0.4-11.8-0.4-17.3c0-11.2-0.1-22.4-0.1-33.6c0-20,0-40,0-60c0-9.8-0.6-20.1,0.1-29.9c0.2-2.8,1.3-5.9,3-8.2
		c2.5-3.4,7.3-6.6,11.6-6.9c10.1-0.8,21.2,0.1,31.5,0.1c22.5,0,45.1,0,67.6,0c18.6,0,37.1-0.1,55.7,0c7.8,0,17.3-1,25,0.3
		c2.7,0.4,5.3,2.4,7.2,4.3c2.9,2.9,4.5,5.9,5.1,10c2,12.1,0.4,26.9,0.4,39.2c0,28.3,0.1,56.7,0.2,85c0,9.5,1.6,19.6-5.8,26.9
		c-1.9,1.9-4.3,3.3-6.9,3.8c-4.6,1-10.3,0.3-15,0.2c-10.4-0.2-20.9-0.5-31.3-1l-2.1-0.1L652.4,400l-13.8-28.8L631.4,354.1z"/>
	<path style="fill:#FCFDFE;" d="M555,288.6c12.5-3.3,30.7-0.9,43.8-0.8c12.1,0.1,28.1-1.7,39.8,1l1.9,4.5
		c-10.5,1.9-23.4,0.6-34.1,0.6c-16-0.1-32.7,0.9-48.6-0.9L555,288.6z"/>
	<path style="fill:#FCFDFE;" d="M555.5,263c8.9-0.9,18.3-0.3,27.3-0.3c16.9,0,33.9,0.1,50.8,0.2c13.7,0.1,27.4,0.2,41.2,0.3
		c7.6,0.1,15.8-0.5,23.3,0.8l2.2,3.9c-6.2,1.5-13.3,0.9-19.6,1c-12,0.1-24,0-36,0c-18.5,0-37,0-55.4-0.1c-10.6,0-21.6,0.6-32.1-0.6
		L555.5,263z"/>
	<path style="fill:#FCFDFE;" d="M608.2,238.7c21.7-0.1,43.4-0.3,65.1-0.2c6.9,0,19.1-1.5,25.3,1.1l0.1,4c-5.4,3-40.9,1.1-49.2,1.1
		c-20.9,0-41.8,0-62.6,0c-9.3,0-20.9,1.3-29.8-0.9l-0.5-3.2c0.6-0.6,1-1.3,1.7-1.7c1.5-0.8,8.9,0,10.9,0
		C582.3,238.8,595.2,238.8,608.2,238.7z"/>
	<path style="fill:#FABB77;" d="M1182.6,1296l181.9-0.1l-0.1,16.3l-0.5,74.6l35.7,0.4l20.1-75.8l3.8-15.2l43.7,0.7l1.7,14.9
		l7.3,72.9l32.5,0.5c-2,2.2-3.9,4.7-6.3,6.3c-6.8-1.4-15.8,1.2-22.9,1.6l-2.5,15.4l-0.1,14.3l-37.9,0.3h-76.7l-211.5-0.3
		c0.7-5.8-0.3-9.1-3.5-13.8l-11.9-0.1c-1-1.5-1.9-3-2.4-4.7c-1.6-6.7-0.5-16.1-0.5-23.1c0-16.4,0-32.9,0.1-49.3
		c0-5.4-1.3-14.9,1.4-19.4l4.9-8.2c9.5,0,38,2.8,44.3-2.9L1182.6,1296z"/>
	<path style="fill:#F16322;" d="M1476.8,1408.5l-0.1,14.3l-37.9,0.3c0.1-4.9,0.1-9.2-1-14.1c4-1.3,9.1-0.7,13.3-0.6
		C1459.8,1408.4,1468.3,1408.4,1476.8,1408.5z"/>
	<path style="fill:#F48323;" d="M1423.4,1296.2l43.7,0.7l1.7,14.9l-49.1-0.4L1423.4,1296.2z"/>
	<path style="fill:#0A144B;" d="M1366.3,1394.1c8.8,0.2,17.8,1,26.3-1.1c6.2,5.1,11.8,9.3,19.6,11.5c8.4,2.4,17.2,2,25.7,4.5
		c1.1,4.8,1.1,9.2,1,14.1h-76.7l-0.3-14.2C1363.1,1403.8,1364.3,1398.8,1366.3,1394.1z"/>
	<path style="fill:#F16322;" d="M1361.9,1408.8l0.3,14.2l-211.5-0.3c0.7-5.8-0.3-9.1-3.5-13.8c7.6-1.4,16.3-0.6,24.1-0.5
		c14.5,0.1,28.9,0.2,43.4,0.2C1263.7,1408.9,1312.8,1408.4,1361.9,1408.8z"/>
	<path style="fill:#FAA647;" d="M1182.6,1296l181.9-0.1l-0.1,16.3l-230.5,0.2l4.9-8.2c9.5,0,38,2.8,44.3-2.9L1182.6,1296z"/>
	<path style="fill:#FCFDFE;" d="M1769.1,1227.3c12,0.2,23.9,0.3,35.7,2.8c21.5,4.5,41.8,16.7,57,32.5c22.3,23,33.1,53.2,32.6,84.8
		c-0.5,30-13.3,59.1-34.9,79.9c-20.7,20-48.3,31.2-76.8,32.4c-20.4,0.7-37.6-1.2-56.4-9.8c-5.5-2.5-10.3-5.9-15.9-8.2l-1.1-0.4
		c-1.6-4.1-7.8-7.3-11-10.3c-17.9-16.8-32.3-38.4-36.9-62.8c-5.9-30.5-0.8-63.4,16.9-89.3c12.8-18.7,32.8-35.4,54.1-43.2
		C1744.2,1231.4,1756.6,1229.6,1769.1,1227.3z"/>
	<path style="fill:#FAA647;" d="M1767.7,1446.9c-19.2-1.7-35.5-6.7-51.3-18.2c-23.7-17.3-38.4-43.1-42.8-71.9
		c-3.9-25.6,3.9-53.3,19.4-73.8c19.5-25.8,43.5-37.3,75-41.9c3.7,7.9,2.2,29.5,1.1,38.5c-19.4,3.7-34.7,10.5-46.3,27.3
		c-9.7,14.1-13.1,32.3-10,49.1c3.3,17.6,13.5,32.3,28.2,42.2c9.1,6.1,17.4,7.1,26.9,11.2c2.4,6.2,3.3,28.6,1.1,35L1767.7,1446.9z"/>
	<path style="fill:#F25159;" d="M1768.1,1241.1c29.8-1.3,56.7,6.1,79.2,26.8c19.6,17.9,33.4,42.2,34.5,69.2
		c1.1,28.1-6.8,54.5-26.1,75.4c-20.3,22-48.5,34-78.3,34.7l-9.8-0.3l1.4-2.5c2.2-6.4,1.3-28.8-1.1-35c20,0.4,37.2-2.5,52.6-16.5
		c12.3-11.2,22.4-28.2,22.9-45.2c0.5-17.9-6.2-35.8-18.7-48.7c-15.7-16.1-34.2-19.3-55.6-19.4
		C1770.3,1270.6,1771.8,1249.1,1768.1,1241.1z"/>
	<path style="fill:#FCFDFE;" d="M1769.2,1279.6c21.3,0,39.8,3.3,55.6,19.4c12.6,12.8,19.3,30.7,18.7,48.7c-0.5,17-10.5,34-22.9,45.2
		c-15.4,14-32.6,17-52.6,16.5c-9.6-4.1-17.9-5.1-26.9-11.2c-14.7-9.9-25-24.6-28.2-42.2c-3.1-16.8,0.2-35,10-49.1
		C1734.5,1290.1,1749.8,1283.3,1769.2,1279.6z"/>
	
		<linearGradient id="SVGID_00000006678079337669397200000010286499201989789873_" gradientUnits="userSpaceOnUse" x1="899.7018" y1="1570.4634" x2="1261.3478" y2="1088.3354" gradientTransform="matrix(0.6667 0 0 -0.667 485.5919 1216.2878)">
		<stop  offset="0" style="stop-color:#FF7FA2"/>
		<stop  offset="1" style="stop-color:#B240AD"/>
	</linearGradient>
	<path style="fill:url(#SVGID_00000006678079337669397200000010286499201989789873_);" d="M1131.1,187.2
		c-5.1-11.6-14.9-27.8-16.2-40.3l1.2-2.9c3.7-4.1,41.9-16.6,48.8-17.2c4.5,4.1,6,9.7,8.2,15.2c3.5,8.9,6.9,17.9,10,27
		c22.3-4.3,41.6-4.1,63.8,1.3c2.8-9.5,6.1-18.7,9.3-28.1c1.7-4.8,2.6-10.1,6.3-13.8c1.8-0.3,3.7-0.5,5.5,0c4.9,1.1,9.7,3.5,14.5,5.2
		c8.2,2.9,25.2,6.6,30.1,13.6c-0.5,5.5-3.2,11.3-5.2,16.5c-3.5,9.4-7.1,18.8-9.9,28.4l0.7,0.6c8.8,8,20.1,12.9,28.4,21.8
		c2.3,2.5,5.4,5,7,7.9l-20.4,14.6l-2.2,1.1l-2.7,2.1c-6.7-1.8-13.1-11.7-19.2-15.9c-11-7.6-20.7-13.5-33.5-17.7
		c-3-1-6.4-2.6-9.5-2.8l-0.1,1.3c-35.5-7.3-69.5-4.5-100.4,16c-26.4,17.5-45.7,45.6-51.9,76.8c-6.6,33-0.3,68.3,18.6,96.4
		c19.4,28.9,48.2,49.7,82.6,56.2c29.3,5.5,61.8-1.4,86.4-18.2c29.5-20.1,49.9-49.4,56.3-84.8c3.4-18.7,2.1-39.2-3.6-57.2
		c10.9-2.6,24.8-7.7,35.8-7.2c5.7,27,6.7,49.3,1.9,76.7c12.3,6.6,27.2,13.2,37.6,22.4c-1.6,4.1-2.9,8.5-5,12.4
		c-1.8,2.9-3.8,5.7-5,8.9l-10.7,22.5l-37.4-11.3c-9.7,17.5-22.8,32.2-38,45.1l-9.8,6.4l7.3,40.9c-13.8,7.6-29.8,14.5-45,18.7
		l-20.9-36.4c-10,2.5-20.1,1.4-30.2,2.8l-29.3-2.9c-6.9,12.9-13.4,26.5-22.7,37.8c-15.9-5.1-31.3-11.7-46-19.7l8-43.9l-2-1.5
		c-17.2-12.3-31.6-26.6-42.9-44.5c-13.4,5.8-26.9,10.3-41.2,13.3c-5.8-11-9.7-23-14.1-34.6l-3.4-13.3c10.9-7.7,24.7-12.6,36.9-17.7
		c-7-24.3-8.1-46.1-4.2-71c-11.3-6.5-23.6-11.6-34.1-19.4c3.2-13,8.6-35.8,17.6-45.9c8.3-2.4,31.8,8.4,40.9,11.4
		C1091,217.8,1107.8,199.2,1131.1,187.2z"/>
	<path style="fill:#FCFDFE;" d="M1333.9,290.5c5.7,18,7,38.5,3.6,57.2c-6.4,35.4-26.9,64.7-56.3,84.8
		c-24.6,16.8-57.1,23.7-86.4,18.2c-34.5-6.5-63.2-27.3-82.6-56.2c-18.9-28.1-25.1-63.4-18.6-96.4c6.2-31.2,25.6-59.3,51.9-76.8
		c30.9-20.5,64.9-23.4,100.4-16c24.9,8.5,43.3,19,61,39l27.3-19.3l-18.2,30C1323.3,265.5,1330.5,278,1333.9,290.5z"/>
	<path style="fill:#C43C96;" d="M1216.9,349.7c18.9-20.5,37.9-40.8,57.1-60.9c8.8-9.2,18.8-22.7,30.2-28.4
		c-4.7,11.3-12.3,21.6-18.7,32.1c-15,25-31.2,50.3-45,76L1216.9,349.7z"/>
	<path style="fill:#F37FA4;" d="M1173.2,314.9c26.4-14.2,54.3-25.6,81.2-38.6c10.5-5.1,20.9-10.4,31.3-15.8c5.1-2.6,11-6.8,16.6-7
		l2.2,2.4l-0.4,4.5c-11.3,5.7-21.4,19.2-30.2,28.4c-19.2,20.1-38.3,40.4-57.1,60.9L1173.2,314.9z"/>
	<path style="fill:#A1226E;" d="M1333.9,290.5c5.7,18,7,38.5,3.6,57.2c-6.4,35.4-26.9,64.7-56.3,84.8
		c-24.6,16.8-57.1,23.7-86.4,18.2c-34.5-6.5-63.2-27.3-82.6-56.2c-18.9-28.1-25.1-63.4-18.6-96.4c6.2-31.2,25.6-59.3,51.9-76.8
		c30.9-20.5,64.9-23.4,100.4-16c24.9,8.5,43.3,19,61,39c-1.7,1.1-7.2,5.4-8.8,4.9c-4.5-1.3-12.5-10.6-17.1-13.7
		c-33.9-22.8-73.2-29.8-111.3-12.9c-27.5,12.2-48.3,33.3-59.2,61.5c-10.9,28.1-9.6,58.9,2.6,86.4c2.8,6.3,6.5,12.5,10.7,17.9
		l194.4-18.5l2.6-7.9c10.8-33.7,5.1-63.3-10.8-94.2l6-12.8C1323.3,265.5,1330.5,278,1333.9,290.5z"/>
	<path style="fill:#EAF0F7;" d="M1123.9,388.3l194.4-18.5c-14.1,29.7-35.6,52.1-67,63.6c-26.4,9.6-56.1,7.4-81.4-4.4
		C1151.7,420.5,1134.5,405.2,1123.9,388.3z"/>
	<path style="fill:#0EAE83;" d="M2060.7,897.5c13.1-8,24.4-12.8,39.2-17c9.9,8,16.1,12.2,29.5,10.8c6.4-0.7,19.5-5,24-9.5
		c36.9,2.5,61.1,22.5,87.9,45.5c7,6,16,12.4,22,19.4c1.9,2.3,1.5,2.9,1.4,5.6c15.3,11.5,26.4,34.5,29.3,53.2
		c3.4,22.7-0.5,42.7-14.4,61.3c-14.6,19.5-34.7,33.1-56.7,42.9c-6.3,2.8-14.5,4.6-19.9,8.7c-1.8-0.2-2.9,0.1-4.6,0.7
		c-8.1,2.9-16.4,4.4-25,4.1c-1.6,9.2-6.7,15.9-14.1,21.6l-0.8,0.5c-7.4,1.1-15.2,0.5-22.6,0.2c-21.4-0.7-42.4-4-63.1-9.7
		c-8.7-2.4-17.5-7-26.5-7.6c0.4-24.5,1.4-49,2.6-73.5c0.7-13.7,3.9-31.7,1.2-44.9l0.9-3.1c1-5.6,1.8-9.3-1.3-14.1
		c-4.8-4.5-12.4-7.4-17.7-11.7c-6.5-5.3-11.5-13.7-18.5-17.9c0.9-2.4,0.1-5.1-0.4-7.6c1.7-6,6-11.5,9.5-16.5
		C2033.6,923.4,2046.5,910.3,2060.7,897.5z"/>
	
		<linearGradient id="SVGID_00000116207840633202917060000007401630287031967630_" gradientUnits="userSpaceOnUse" x1="2640.7131" y1="338.5663" x2="2634.5093" y2="380.9244" gradientTransform="matrix(0.6667 0 0 -0.667 485.5919 1216.2878)">
		<stop  offset="0" style="stop-color:#004942"/>
		<stop  offset="1" style="stop-color:#005D46"/>
	</linearGradient>
	<path style="fill:url(#SVGID_00000116207840633202917060000007401630287031967630_);" d="M2223.7,993.9l0.8-2.9
		c4.6-3.5,9.6-7,13.7-11.1c6.8-6.8,17.2-24.1,25.4-27.1c-2.6,15.4-15.4,31.3-27.9,40.2c-2,1.4-4.1,2.4-6.3,3.4L2223.7,993.9z"/>
	<path style="fill:#0A7157;" d="M2163.4,947.6c10.3,5.3,15.4,14.9,24,22.4c10.1,8.9,21.8,15.6,33.5,22.3c0.6,2.8,0.2,4-1,6.6
		c1,3.4,1.9,6.7,0.1,10l-1.6,2.2c-2.9-1-6.1-4.6-8.3-6.8c-6-5.9-13.3-15.3-20.9-18.7c-1.2-5.3-6.8-10.2-9.8-14.7
		C2173.8,962.8,2170.4,954.6,2163.4,947.6z"/>
	<path style="fill:#0A7157;" d="M2013.6,963.2c0.9-2.4,0.1-5.1-0.4-7.6c1.7-6,6-11.5,9.5-16.5c10.9-15.7,23.8-28.9,38-41.6
		c2.4,6.2,0,10.2-1.3,16.6c-4.9,25.2-3.7,51-7.3,76.2l-2.4,2.6c-4.8-4.5-12.4-7.4-17.7-11.7C2025.5,975.8,2020.6,967.4,2013.6,963.2
		z"/>
	<path style="fill:#099872;" d="M2189.1,985.6c7.6,3.4,14.9,12.8,20.9,18.7c2.2,2.2,5.3,5.7,8.3,6.8c0.8,1.6,1.4,3.2,1.4,5
		c0,15.3-4.4,32.9-7,48.2c-1.2,7-1.9,16.5-4.5,23c-0.6,1.4-1.2,2.1-2.2,3.3l-1.2,1.4c-10,3.7-23.8,0-34-1.8
		c10.5-25.9,18.9-59.7,19.7-87.5C2190.7,996.9,2191.3,991,2189.1,985.6z"/>
	<path style="fill:#F9B39F;" d="M2264.7,952.3c15.3,11.5,26.4,34.5,29.3,53.2c3.4,22.7-0.5,42.7-14.4,61.3
		c-14.6,19.5-34.7,33.1-56.7,42.9c-6.3,2.8-14.5,4.6-19.9,8.7c-1.8-0.2-2.9,0.1-4.6,0.7c-8.1,2.9-16.4,4.4-25,4.1
		c-3.6-2.3-7.9-2-11.4-4.8c1.1-2.2,2.5-3.6,4.1-5.3c-3.2-1.7-5.6-4-9.2-3.5l-0.3-2.6c4.2-2.2,9.2-2.5,13.9-3.2
		c2.7-2.2,3.3-2.4,4.2-5.9c-1.4-3.3-3.6-4.1-6.6-5.7l-1.3-0.6l-0.3-1.6l4.3,0.2c10.2,1.8,24,5.5,34,1.8l1.2-1.4
		c1-1.1,1.7-1.8,2.2-3.3c2.6-6.5,3.3-16,4.5-23c2.6-15.2,7-32.9,7-48.2c0-1.8-0.7-3.4-1.4-5l1.6-2.2c1.8-3.3,0.9-6.6-0.1-10l3.9-4.9
		l5.8,2.4c2.2-1,4.3-2,6.3-3.4c12.5-8.9,25.3-24.7,27.9-40.2L2264.7,952.3z"/>
	<path style="fill:#FCFDFE;" d="M2219.8,998.8l3.9-4.9l5.8,2.4c8.5,3,15.5,8.7,19.5,16.9c4.4,9.1,3.8,22,0.4,31.3
		c-5.6,15.4-21.9,37.9-37.7,44.9c-1.9,0.8-3.6,1.1-5.6,1c1-1.1,1.7-1.8,2.2-3.3c2.6-6.5,3.3-16,4.5-23c2.6-15.2,7-32.9,7-48.2
		c0-1.8-0.7-3.4-1.4-5l1.6-2.2C2221.7,1005.5,2220.7,1002.3,2219.8,998.8z"/>
	<path style="fill:#3C4198;" d="M2173.3,1123.3c8.6,0.3,16.9-1.3,25-4.1c1.7-0.6,2.8-0.9,4.6-0.7c0.5,4.3-0.3,17.7-3.3,20.9
		c-1.1,1.2-2.9,1.8-4.5,2.3l0.2,5.2c3.8,6.1,2.7,15.6,3,22.9c1.4,27,1.2,54.1,0.7,81.1c-0.2,12.3-2.7,29.8,2.2,40.9
		c4.5,10.2,7.7,21.2,11.7,31.6c7.9,21.1,16.1,42.1,24.5,63c5.1,12.6,10.1,25.3,15.6,37.8c2.1,4.8,7.6,13.3,8.3,18.1
		c0.1,0.8-0.4,1.5-0.6,2.3l-4.5,1.8c-8,4.1-17,9.3-25.6,12c3.4,2.4,6.8,7.7,7.5,11.9v2.6c0.5,4.2,0.3,6.8-2.5,10.4
		c-6.2,7.8-15.1,12.1-18.8,22c-1.4,3.7-1.1,7.9-1.9,11.6l-0.5,2.2c-32.6-0.9-65.4-0.4-98-0.5c-11.2-0.1-32.1,2.4-41.9-1.9
		c0.7-1.3,1.2-2.6,1.3-4.1c0.3-5.3-0.9-13.5-4.3-17.6c-9.5,1.6-18.5,2.7-27.5-1.6l3.5-2.4c0.5-4.6,0.9-7.6-1.4-11.9
		c1.2-7.1,0.2-15.8,0.1-23.1c-0.2-14.8-0.3-29.6-0.5-44.4c-0.4-54.4-0.6-108.8-0.4-163.2c0.1-22.2,0.2-44.3,0.8-66.5
		c0.3-11.9,3.1-28.9,0-40.1c2-4.9,1.6-8.4,0.1-13.4c9,0.5,17.8,5.1,26.5,7.6c20.7,5.7,41.6,9,63.1,9.7c7.5,0.3,15.2,0.9,22.6-0.2
		l0.8-0.5C2166.6,1139.3,2171.7,1132.5,2173.3,1123.3z"/>
	<path style="fill:#F87878;" d="M2046.1,1479c8.7,0.5,18.5,2.1,27.1,1l0.9-1.1c-0.3,2-0.6,3.7-1.2,5.6c-1.1,3.5-0.3,7-1.4,10.4
		c-9.5,1.6-18.5,2.7-27.5-1.6l3.5-2.4C2048.1,1486.3,2048.4,1483.4,2046.1,1479z"/>
	<path style="fill:#0A144B;" d="M2104.9,1282.3c-1.8-1.4-2.5-3.2-2.9-5.5c-1.3-8.5-0.9-18-1.4-26.6c-0.9-16.5-2.2-33-3.5-49.5
		c-0.6-7.2-1.3-14.5-2-21.7c-0.2-1.7-1.2-6.4-0.8-7.9c0.2-0.7,0.9-1.2,1.4-1.8c3.6,0,3.3,0.1,5.7,2.4c3,11.4,13.5,52.9,10.1,60.9
		l-0.4,0.7c2.1,5.2,0.4,11.1-0.3,16.5c-1.4,9.8-2.6,19.6-3.6,29.4L2104.9,1282.3z"/>
	<path style="fill:#0A144B;" d="M2173.3,1123.3c8.6,0.3,16.9-1.3,25-4.1c1.7-0.6,2.8-0.9,4.6-0.7c0.5,4.3-0.3,17.7-3.3,20.9
		c-1.1,1.2-2.9,1.8-4.5,2.3l0.2,5.2c0.7,2.5,1,3.6,0.2,6.2c-38.7,10.7-78.4,5.3-116.8-3.5c-10.5-2.4-21.3-6-31.8-7.8l-0.8-0.1
		c2-4.9,1.6-8.4,0.1-13.4c9,0.5,17.8,5.1,26.5,7.6c20.7,5.7,41.6,9,63.1,9.7c7.5,0.3,15.2,0.9,22.6-0.2l0.8-0.5
		C2166.6,1139.3,2171.7,1132.5,2173.3,1123.3z"/>
	<path style="fill:#099872;" d="M2173.3,1123.3c8.6,0.3,16.9-1.3,25-4.1c1.7-0.6,2.8-0.9,4.6-0.7c0.5,4.3-0.3,17.7-3.3,20.9
		c-1.1,1.2-2.9,1.8-4.5,2.3c-4-0.6-8.7,0.8-12.6,1.5c-7.8,1.4-16.2,2.8-24.1,2.2l0.8-0.5C2166.6,1139.3,2171.7,1132.5,2173.3,1123.3
		z"/>
	<path style="fill:#FCFDFE;" d="M2111.3,1233.4l3.4,1.9c5.2,21.6,10,44.3,18.3,64.9c11.9,29.9,30.5,57.7,47.3,85
		c15.1,24.7,29.9,49.9,46.1,73.9c1.9,0,2.7,0.3,4.4-0.8c3.4,2.4,6.8,7.7,7.5,11.9v2.6c0.5,4.2,0.3,6.8-2.5,10.4
		c-6.2,7.8-15.1,12.1-18.8,22c-1.4,3.7-1.1,7.9-1.9,11.6l-0.5,2.2c-32.6-0.9-65.4-0.4-98-0.5c-11.2-0.1-32.1,2.4-41.9-1.9
		c0.7-1.3,1.2-2.6,1.3-4.1c0.3-5.3-0.9-13.5-4.3-17.6c1.1-3.3,0.3-6.9,1.4-10.4c0.6-1.9,0.9-3.6,1.2-5.6l1.9-3.7
		c3.3-9.1,4.1-21.1,5.9-30.7c6.6-35.4,12-70.9,17.4-106.5c2.4-16,7.1-34.3,7.2-50.3c0-1.9-0.7-3.7-1.5-5.5l2.4-3.1
		c1-9.8,2.3-19.6,3.6-29.4C2111.7,1244.4,2113.3,1238.6,2111.3,1233.4z"/>
	<path style="fill:#7C8AE2;" d="M1362.2,1423.1h76.7l37.9-0.3h59.8c-0.1,19.8-0.2,39.6-0.3,59.4c-0.1,9.2,0.8,19.3-0.4,28.3
		c-0.4,2.8-1.6,5.4-3,7.8l141.8-0.4l47.1,0.9l17.7,0.1l27.7-0.1l49.4,0.1c7.8,0.4,49.5,1.7,54.1-1.1c26.8,2.3,54.9,0.7,81.8,0.7
		c14.6,0,33,1.9,47.3-0.5c3.5-3.8,7.1-8,11.8-10.4c11.4-5.7,23.4-3.6,32.4-14.3c8.9,4.3,18,3.1,27.5,1.6c3.4,4.1,4.6,12.3,4.3,17.6
		c-0.1,1.5-0.6,2.8-1.3,4.1c9.8,4.3,30.7,1.9,41.9,1.9c32.6,0.2,65.4-0.4,98,0.5l0.5-2.2l5.2,5.7c3.2-0.2,7.4-3.3,9.5-5.5
		c7.4,4.6,16.1-0.6,24.3,5.2c1.3,2.9,2.4,4.2,1.7,7.4c-0.5,2.5-2.2,4.5-4.4,5.7c-3,1.6-8.2,1-11.6,1
		c-504.4,0.7-1008.8-1.3-1513.2-0.7c-141.8,0.1-283.6,0.5-425.3,0.5c-28.7,0-57.3,0-86,0c-7.4,0-23,1.9-29.6-0.7
		c-3.3-1.3-3.9-2.8-5-5.8c0.7-4.6,1-5.1,4.2-8.5c10.3-2.9,24.8-1,35.8-1.1c26.1,0,52.3,0,78.4,0c-0.1-5.4,0.2-10.2,1.1-15.6
		c1.4-7.8,3.6-14.9,6.8-22.2l3.3-13.5c6.6,0.3,15.1-0.3,21.3,1.9l-3.7,15.5c7.5,5,14.9,9.6,23,13.6c5.5,2.7,20.5,7.7,23.7,12.5
		c1.2,1.8,2,5.9,2.7,8l58.7-0.2c-0.2-6.8-0.3-13.3,0.8-20.1c0.9-5.7,1.9-10.2,4.7-15.4c1.9-2.7,0.6-11.2,0.1-14.5
		c8.2-0.7,16.4,1.5,24.6,1.8c-3.4,4.3-5.2,10.1-5.1,15.6c7.8,3.5,15,8,22.5,11.9c9.7,5,22.8,8.6,28.3,18.6l1,2.3l140-0.2l464.4-0.6
		l23.2-0.3c-4.9-10.8-3.1-25.1-3-36.9c0-19,0.1-38.1,0-57.1c4.4-1.4,8.9-1.8,13.4-2.4L1362.2,1423.1z"/>
	<path style="fill:#0A144B;" d="M2044,1493.4c8.9,4.3,18,3.1,27.5,1.6c3.4,4.1,4.6,12.3,4.3,17.6c-0.1,1.5-0.6,2.8-1.3,4.1l1.1,4.8
		c-5,3.6-14.6,3.2-20.7,3.6c-17.2,1.1-34.3,1.8-51.6,1.9c-1.3-1.6-1.6-1.7-1.8-3.8c-0.2-1.9-0.8-3.3-1.6-5c3.5-3.8,7.1-8,11.8-10.4
		C2023,1501.9,2035.1,1504.1,2044,1493.4z"/>
	<path style="fill:#0A144B;" d="M441.3,1470.1c8.2-0.7,16.4,1.5,24.6,1.8c-3.4,4.3-5.2,10.1-5.1,15.6c7.8,3.5,15,8,22.5,11.9
		c9.7,5,22.8,8.6,28.3,18.6l-2.8,3.1l-71.9-0.8l-0.4-20.3c0.9-5.7,1.9-10.2,4.7-15.4C443.1,1481.9,441.8,1473.4,441.3,1470.1z"/>
	<path style="fill:#F7A483;" d="M441.3,1470.1c8.2-0.7,16.4,1.5,24.6,1.8c-3.4,4.3-5.2,10.1-5.1,15.6c-0.5,2-1.4,3.7-2.3,5.5
		c-3.5,1.3-3.9,1.4-7.5,0.4c-2.5-3.6-4.9-5.6-8.6-8l-1.2-0.8C443.1,1481.9,441.8,1473.4,441.3,1470.1z"/>
	<path style="fill:#0A144B;" d="M310.1,1468.7c6.6,0.3,15.1-0.3,21.3,1.9l-3.7,15.5c7.5,5,14.9,9.6,23,13.6
		c5.5,2.7,20.5,7.7,23.7,12.5c1.2,1.8,2,5.9,2.7,8c-2.2,0.9-4.5,0.9-6.9,1c-17.6,0.9-35.8-0.4-53.5-0.7c-3-0.1-12.3,0.7-14.6-0.3
		c-0.8-0.3-1.3-1.1-1.9-1.7l-0.2-14.2c1.4-7.8,3.6-14.9,6.8-22.2L310.1,1468.7z"/>
	<path style="fill:#F7A483;" d="M310.1,1468.7c6.6,0.3,15.1-0.3,21.3,1.9l-3.7,15.5c-2.5,2.8-4.3,4.9-7.9,6.3
		c-5.9-1-7.8-5.6-12.2-9.5l-0.8-0.7L310.1,1468.7z"/>
	<path style="fill:#FAA647;" d="M1362.2,1423.1h76.7l37.9-0.3h59.8c-0.1,19.8-0.2,39.6-0.3,59.4c-0.1,9.2,0.8,19.3-0.4,28.3
		c-0.4,2.8-1.6,5.4-3,7.8c-9.9,2.3-23.5,0.9-33.8,0.9c-23.1,0-46.2,0-69.3,0c-96.5,0-193,0.1-289.5-0.2c-4.9-10.8-3.1-25.1-3-36.9
		c0-19,0.1-38.1,0-57.1c4.4-1.4,8.9-1.8,13.4-2.4L1362.2,1423.1z"/>
	<path style="fill:#C5C6E9;" d="M1802.5,493.5l3.6-0.7c5,7.7,9.7,15.6,14.4,23.5c2,3.4,5.2,7.7,6.1,11.6l5.8-1.5v1.2l-1.2,0.6
		l0.6,0.8l1.3,2.5c0.8,1.9,2.1,2.9,3,4.6c0.6,1,0.9,2.5,1.2,3.7l0.8,0.6c2.7,2.7,4.8,7.6,6.7,10.9l0.8,2c0.6,2,1.8,3.5,3.2,5
		c1.3,1.5,0.6,0.5,1.5,2.5c1.3,3.2,3.6,6,5.5,8.9c1.6,0,3.1-0.3,4.4,0.6l2.2,0.9c8.9,2.2,17.8,9.5,25.8,13.9
		c7,3.9,14.2,10.1,20.3,15.3c28.5,23.9,49.1,54.5,59.1,90.5c11.7,41.9,5.4,89.5-16.2,127.1c-22.1,38.6-60.1,69.4-103.3,80.7
		c-11.5,3-23.9,5.1-35.9,5.3h-5.8c-4.9-4.7,1.5-28.6-2.7-37.1l-37.7-6.1l-19-7.1c-33.8-16-60.4-45.4-71.8-81.1
		c-3.3-10.3-3.9-21.6-7.6-31.5l-0.4-1.1v-3.2c2-5.5,1.9-11.9,2.9-17.7c2-11.2,4.9-22.2,9.1-32.7c2.1-5.2,4.4-10.1,7.4-14.8
		c2.9-4.5,10-10.5,10.9-15.5c10.7-4.7,18.6-13.3,30.6-16l2.3-1.5c3.3-3.2,8.1-15.7,7.6-20l2.2-1.6c3.4-3.7,18-40,17.9-45.2
		c0.8-0.5,2.5-1.3,3.1-2c1.5-1.7,2.7-5.6,3.9-7.8c2.8-5.6,5.8-11.1,8.8-16.6c5.8-10.7,11.8-21.3,18-31.8
		C1795.3,507.2,1800.2,500.6,1802.5,493.5z"/>
	<path style="fill:#3C4198;" d="M1890.3,638.8c4.9,2.2,8.5,6.5,12.1,10.4c11.6,12.6,20.2,26.3,26.4,42.3c3.5,9.1,11.2,33.1,7.2,42.3
		l-0.8,1.8l-68.1,0.6l-62.6-0.1c1.7-4.1,1.4-7.7,0.3-11.9l0.4-1.3c21.8-20.3,43.2-41.1,64.5-62.1
		C1875.8,654.6,1886.5,646.6,1890.3,638.8z"/>
	<path style="fill:#F48323;" d="M1802.5,493.5l3.6-0.7c5,7.7,9.7,15.6,14.4,23.5c2,3.4,5.2,7.7,6.1,11.6c9.8,10.5,16.9,27,24.1,39.4
		c7.1,12.2,39.6,62.2,39.6,71.5c-3.7,7.7-14.5,15.8-20.9,22c-21.2,21-42.6,41.7-64.5,62.1l-0.4,1.3l-2.7-0.9
		c-5.6-3.9-11-11.2-15.6-16.2c-11.3-12.3-22.4-24.8-33.7-37.1c-7.2-7.8-16.5-15.6-22.7-24.1c-1.2-1.7-1.7-3.8-2-5.8l2.3-1.5
		c3.3-3.2,8.1-15.7,7.6-20l2.2-1.6c3.4-3.7,18-40,17.9-45.2c0.8-0.5,2.5-1.3,3.1-2c1.5-1.7,2.7-5.6,3.9-7.8
		c2.8-5.6,5.8-11.1,8.8-16.6c5.8-10.7,11.8-21.3,18-31.8C1795.3,507.2,1800.2,500.6,1802.5,493.5z"/>
	<path style="fill:#FAA647;" d="M1802.5,493.5c2,9.8,1.7,20.5,1.9,30.5c0.4,17.3,0.4,34.6,0.5,51.9c0.2,49,0.7,98.1,0,147.1
		l-0.4,1.3l-2.7-0.9c-5.6-3.9-11-11.2-15.6-16.2c-11.3-12.3-22.4-24.8-33.7-37.1c-7.2-7.8-16.5-15.6-22.7-24.1
		c-1.2-1.7-1.7-3.8-2-5.8l2.3-1.5c3.3-3.2,8.1-15.7,7.6-20l2.2-1.6c3.4-3.7,18-40,17.9-45.2c0.8-0.5,2.5-1.3,3.1-2
		c1.5-1.7,2.7-5.6,3.9-7.8c2.8-5.6,5.8-11.1,8.8-16.6c5.8-10.7,11.8-21.3,18-31.8C1795.3,507.2,1800.2,500.6,1802.5,493.5z"/>
	<path style="fill:#5974E5;" d="M1697.3,656c10.7-4.7,18.6-13.3,30.6-16c0.3,2,0.8,4.1,2,5.8c6.2,8.6,15.5,16.3,22.7,24.1
		c11.3,12.3,22.4,24.7,33.7,37.1c4.6,5,10.1,12.3,15.6,16.2l2.7,0.9c1.1,4.2,1.5,7.8-0.3,11.9l62.6,0.1l68.3,0.9l0.9,1.6
		c-2.4,1.5-5.9,1.7-8.6,2.2l8.6,0.2c3.4,7.2-3.5,27.4-6.1,34.9c-11.9,33.6-34.8,61.8-67.3,77.1c-19.9,9.3-37.6,12.6-59.3,13.9
		l-37.7-6.1l-19-7.1c-33.8-16-60.4-45.4-71.8-81.1c-3.3-10.3-3.9-21.6-7.6-31.5l-0.4-1.1v-3.2c2-5.5,1.9-11.9,2.9-17.7
		c2-11.2,4.9-22.2,9.1-32.7c2.1-5.2,4.4-10.1,7.4-14.8C1689.4,667,1696.4,661,1697.3,656z"/>
	<path style="fill:#B6BDF1;" d="M1804.3,736.1l62.6,0.1l68.3,0.9l0.9,1.6c-2.4,1.5-5.9,1.7-8.6,2.2l-33.9,0.5
		c-7.2-1.1-16-0.2-23.3-0.2c-16.9,0-33.7,0.1-50.6,0.1c-50.9,0-101.8-1.2-152.7-1.2v-3.2L1804.3,736.1z"/>
	<path style="fill:#595ECF;" d="M1927.5,740.9l8.6,0.2c3.4,7.2-3.5,27.4-6.1,34.9c-11.9,33.6-34.8,61.8-67.3,77.1
		c-19.9,9.3-37.6,12.6-59.3,13.9l-37.7-6.1c4.8-4.3,15.5-4.6,21.7-6.4c32.4-9.3,61.2-29.1,80.8-56.5c6.8-9.6,27.2-45.8,25.3-56.7
		L1927.5,740.9z"/>
	<path style="fill:#D579C3;" d="M1697.3,656c10.7-4.7,18.6-13.3,30.6-16c0.3,2,0.8,4.1,2,5.8c6.2,8.6,15.5,16.3,22.7,24.1
		c11.3,12.3,22.4,24.7,33.7,37.1c4.6,5,10.1,12.3,15.6,16.2l2.7,0.9c1.1,4.2,1.5,7.8-0.3,11.9l-137.3,0.7c2-5.5,1.9-11.9,2.9-17.7
		c2-11.2,4.9-22.2,9.1-32.7c2.1-5.2,4.4-10.1,7.4-14.8C1689.4,667,1696.4,661,1697.3,656z"/>
	<path style="fill:#72BEF6;" d="M1138.9,1278.7c5.6,2.2,10.7,5.6,16.2,7.7c9.2,3.6,19,4.4,27.5,9.6l0.5,5.2
		c-6.3,5.7-34.8,2.9-44.3,2.9l-4.9,8.2c-2.7,4.4-1.4,14-1.4,19.4c0,16.4-0.1,32.9-0.1,49.3c0,7-1.1,16.4,0.5,23.1
		c0.4,1.7,1.4,3.3,2.4,4.7l11.9,0.1c3.2,4.7,4.2,8,3.5,13.8c-4.5,0.6-9.1,1-13.4,2.4c0,19,0,38.1,0,57.1c0,11.8-1.9,26.1,3,36.9
		l-23.2,0.3l-464.4,0.6l-0.1-95.3l-6.1-0.5c-3.7-0.5-4.9-2.4-7-5.1c0.1-4.9,0-5.9,3.1-9.9c4.5-2,9.9-1.3,14.7-1.3
		c9.9,0,19.8,0.1,29.7,0.2v-94.6c-4.7-1.1-5.7-1.2-9-5c-0.9-3.3-0.5-4.8,0.7-7.9c1-0.9,2.2-2.4,3.3-3.1c5.3-3.2,65.3-0.8,76.5-0.7
		l284.9,0.4l2.6-10.7c1.4-3.8,3.1-5.6,6.6-7.4c3.4,2.2,5.9,2.8,9.8,3.1c2-1.1,3.3-1.8,4.7-3.7c6.3,3.5,12.8,7.3,19.6,9.9
		c9.9,3.7,20.6,5.7,30.7,8.9c0.1-6-0.6-12.5,4.3-16.9l2.4-1.8c4.4,1.8,8,2.9,12.8,1.2L1138.9,1278.7z"/>
	<path style="fill:#5974E5;" d="M686.9,1408.1l421.9,0.1l11.1,0.6h15.2l11.9,0.1c3.2,4.7,4.2,8,3.5,13.8c-4.5,0.6-9.1,1-13.4,2.4
		c0,19,0,38.1,0,57.1c0,11.8-1.9,26.1,3,36.9l-23.2,0.3l-4.6-5.2c-5.1-7.3-3-76.5-0.9-88.4c-8-2.3-21.5-0.6-30.1-0.6
		c-25.4,0-50.8,0-76.2,0c-117.5,0-235.3,1.9-352.7-0.4l-6.1-0.5c-3.7-0.5-4.9-2.4-7-5.1c0.1-4.9,0-5.9,3.1-9.9
		c4.5-2,9.9-1.3,14.7-1.3C667.2,1407.9,677.1,1408,686.9,1408.1z"/>
	<path style="fill:#595ECF;" d="M1120,1408.9h15.2l11.9,0.1c3.2,4.7,4.2,8,3.5,13.8c-4.5,0.6-9.1,1-13.4,2.4
		c-4-0.7-8.5-5.5-10.9-8.5L1120,1408.9z"/>
	<path style="fill:#F37FA4;" d="M1138.9,1278.7c5.6,2.2,10.7,5.6,16.2,7.7c9.2,3.6,19,4.4,27.5,9.6l0.5,5.2
		c-6.3,5.7-34.8,2.9-44.3,2.9l-4.9,8.2c-2.7,4.4-1.4,14-1.4,19.4c0,16.4-0.1,32.9-0.1,49.3c0,7-1.1,16.4,0.5,23.1
		c0.4,1.7,1.4,3.3,2.4,4.7h-15.2l-11.1-0.6l-422.1-0.1v-94.6c-4.7-1.1-5.7-1.2-9-5c-0.9-3.3-0.5-4.8,0.7-7.9c1-0.9,2.2-2.4,3.3-3.1
		c5.3-3.2,65.3-0.8,76.5-0.7l284.9,0.4l2.6-10.7c1.4-3.8,3.1-5.6,6.6-7.4c3.4,2.2,5.9,2.8,9.8,3.1c2-1.1,3.3-1.8,4.7-3.7
		c6.3,3.5,12.8,7.3,19.6,9.9c9.9,3.7,20.6,5.7,30.7,8.9c0.1-6-0.6-12.5,4.3-16.9l2.4-1.8c4.4,1.8,8,2.9,12.8,1.2L1138.9,1278.7z"/>
	<path style="fill:#E45289;" d="M1138.9,1278.7c5.6,2.2,10.7,5.6,16.2,7.7c9.2,3.6,19,4.4,27.5,9.6l0.5,5.2
		c-6.3,5.7-34.8,2.9-44.3,2.9l-4.9,8.2c-2.7,4.4-1.4,14-1.4,19.4c0,16.4-0.1,32.9-0.1,49.3c0,7-1.1,16.4,0.5,23.1
		c0.4,1.7,1.4,3.3,2.4,4.7h-15.2l-11.1-0.6c0-19.2-0.1-38.4,0-57.6c0-8.1-0.9-18.2,0.9-26c0.9-4.1,3.8-8.4,5.8-12.1l-428.6,1
		c-4.7-1.1-5.7-1.2-9-5c-0.9-3.3-0.5-4.8,0.7-7.9c1-0.9,2.2-2.4,3.3-3.1c5.3-3.2,65.3-0.8,76.5-0.7l284.9,0.4l2.6-10.7
		c1.4-3.8,3.1-5.6,6.6-7.4c3.4,2.2,5.9,2.8,9.8,3.1c2-1.1,3.3-1.8,4.7-3.7c6.3,3.5,12.8,7.3,19.6,9.9c9.9,3.7,20.6,5.7,30.7,8.9
		c0.1-6-0.6-12.5,4.3-16.9l2.4-1.8c4.4,1.8,8,2.9,12.8,1.2L1138.9,1278.7z"/>
	<path style="fill:#0A144B;" d="M1138.9,1278.7c5.6,2.2,10.7,5.6,16.2,7.7c9.2,3.6,19,4.4,27.5,9.6l0.5,5.2
		c-6.3,5.7-34.8,2.9-44.3,2.9l-17.8-0.7l-2,2.7c-6.8,1.6-15.5,0.6-22.5,0.5c-16.5-0.2-32.9-0.5-49.4-1c-3-2.2-2.9-4.9-3.7-8.4
		l2.6-10.7c1.4-3.8,3.1-5.6,6.6-7.4c3.4,2.2,5.9,2.8,9.8,3.1c2-1.1,3.3-1.8,4.7-3.7c6.3,3.5,12.8,7.3,19.6,9.9
		c9.9,3.7,20.6,5.7,30.7,8.9c0.1-6-0.6-12.5,4.3-16.9l2.4-1.8c4.4,1.8,8,2.9,12.8,1.2L1138.9,1278.7z"/>
	<path style="fill:#FCFDFE;" d="M620.2,927.3c1.1,30.2,3.1,60,6.8,90c0.8,6.7,0.9,17,3.5,23.1c1.1,7,2.1,18.9,8.4,23.3
		c6.8,4.8,18.2,7.3,26.5,7.6c-0.1,10.9,0.2,21.8-2.2,32.5c-6.9,17-16,32-28.3,45.6c-8.6,9.5-17.9,17.6-25.4,28.1l-1.2,0.2
		c-8.8,1.2-24.8-1.9-31.5,2.8l-1.3,4.6c1,1.3,1.8,3.1,3.4,3.3c14.9,1.8,31.2,0.5,46.3,0.5c28.9,0,57.9,0,86.8,0.1
		c15.5,0,31.5-0.7,46.9,0.3v5.8c-1.6,15.3-0.7,31.3-0.4,46.7c0.3,18.4,0.2,36.7,0,55.1c-11.3-0.1-71.2-2.5-76.5,0.7
		c-1.1,0.7-2.3,2.1-3.3,3.1c-1.3,3.2-1.6,4.6-0.7,7.9c3.3,3.8,4.3,3.9,9,5v94.6c-9.9-0.1-19.8-0.2-29.7-0.2
		c-4.8,0-10.2-0.7-14.7,1.3c-3.1,4-3,5-3.1,9.9c2.1,2.7,3.3,4.6,7,5.1l6.1,0.5l0.1,95.3l-140,0.2l-1-2.3
		c-5.5-10-18.6-13.6-28.3-18.6c-7.6-3.9-14.8-8.4-22.5-11.9c-0.1-5.5,1.7-11.3,5.1-15.6c-8.2-0.3-16.4-2.5-24.6-1.8
		c0.5,3.3,1.8,11.8-0.1,14.5c-2.7,5.1-3.8,9.6-4.7,15.4c-1.1,6.7-0.9,13.3-0.8,20.1l-58.7,0.2c-0.7-2.2-1.5-6.2-2.7-8
		c-3.2-4.8-18.2-9.7-23.7-12.5c-8-4-15.5-8.6-23-13.6l3.7-15.5c-6.2-2.1-14.7-1.6-21.3-1.9l-5.6-0.8c-0.6-0.6-1.5-1-1.8-1.9
		c-1.2-3.5,21.8-124.1,24.4-138.6c2.3-13,9.6-34,6.1-46.3c-4.1-14.4-4.9-30.8-6.3-45.6c-2.7-28.9-4.6-57.8-6-86.8l-0.2-8
		c30.8,4.3,59.3,4.8,90.4,3c19.7-1.2,38.3-2.5,57.5-7.7c2-1.9,2.8-3.7,3-6.4c1.1-15.3-2.2-32.4-3.6-47.8
		c-2.3-25.6-3.9-51.2-6.4-76.8c-1-10.1-2.2-20.3-3.1-30.4c-0.4-4.7-1.5-9.9,0.3-14.3l25.4,6l25.8,2.8
		C549.8,970.6,591.3,954.2,620.2,927.3z"/>
	<path style="fill:#EAF0F7;" d="M742.8,1237c4.2-0.2,4.6,0.6,8,3.2l0.1,2.4c-4.9,4.7-11.3,7.3-17.4,10.1c-3.2,1-4.7,2-8,1.1
		l-0.7-3.9C727.7,1243.9,737.2,1240,742.8,1237z"/>
	<path style="fill:#EAF0F7;" d="M711.2,1249c5,0.3,6.2,0.1,10.2,3.4l-0.4,4.2c-4,4.2-8,5.9-13.3,8l-0.7,0.1c-3.8,0.4-5.8,1-9.1-1.3
		l-0.1-3.7C701.9,1255.1,706,1252.2,711.2,1249z"/>
	<path style="fill:#EAF0F7;" d="M682.2,1260.4c4.2-0.2,6.4-1,9.9,1.8c-0.6,1.9-1.4,3.7-2.5,5.4c-3.2,5.3-10.1,5.8-15.7,7.2
		c-1.7,0.3-3.3,0.6-5,0.4c-3.1-0.4-3.2-1.5-4.8-3.9l0.7-2.7C669.6,1264.4,676.4,1262.5,682.2,1260.4z"/>
	<path style="fill:#EAF0F7;" d="M647,1266.8c4.7,0.2,6.2,0,10.2,2.8l0.6,3.5c-5.1,6.3-9.1,6.5-16.7,7.6c-4.3-0.1-6,0.1-9.8-2.2
		l-0.3-5.4C635.3,1268,640.8,1267.7,647,1266.8z"/>
	<path style="fill:#EAF0F7;" d="M592.1,1262.4c7.9-0.5,21.8,1.9,28.6,6.3c2.7,1.7,2.5,2.1,3.1,5.1l-4.5,4.7c-6.5,0.3-14.5,0-20.7-2
		c-4.4-1.4-9.3-4-11.4-8.2L592.1,1262.4z"/>
	<path style="fill:#EAF0F7;" d="M534.8,1223c6.5,3.6,11.4,8.9,16.3,14.4c3.1,3.5,4.7,4.8,9.2,5.5c6.5,1,19.6,10.8,23.5,16
		c0.5,3.6-0.9,5.5-2.4,8.8c-7.2-1.7-16.9-6.3-22.2-11.6c-1.8-1.8-3.3-4.7-5.3-6.1c-8.9-6.2-16-7.1-22.6-17
		C530.9,1228.2,532.4,1226.9,534.8,1223z"/>
	<path style="fill:#EAF0F7;" d="M487,1174.4c13.3,5.8,18.4,15.1,27.2,25.8c4,4.9,8.9,9.3,13.5,13.6c-0.3,5.7,0,12.2-3.8,16.8
		c-5.9-3.3-10.1-9.1-14.9-13.8c-10.3-10.2-20.3-17.2-26.8-30.9C482.7,1180.2,484,1178.9,487,1174.4z"/>
	<path style="fill:#7AC8DB;" d="M558.8,1100.7c6.3-0.4,13.3-0.9,19.4,1c13.3,4.2,25,14,31.1,26.6c2.4,5,3.5,10.5,5.9,15.4
		c2,4.2,5.2,7.8,7.4,12l-11.9-10.3c-11.5,0.2-20.5-3.7-29.7-10.6C570.3,1126.7,560.8,1114.2,558.8,1100.7z"/>
	<path style="fill:#3C4198;" d="M320.8,1140.8c30.8,4.3,59.3,4.8,90.4,3c19.7-1.2,38.3-2.5,57.5-7.7c4.2,24.2,8.2,48.6,13.2,72.7
		c3.4,16.2,6.9,32.3,9.9,48.5c1.5,7.9,3.7,16.3,3.9,24.3c0.3,11.9-2.3,24.3-3.8,36.2c-3.6,27.3-7.6,54.5-11.9,81.7
		c-2.7,16.8-5.6,33.5-8.8,50.2c-1.4,7-2.3,15.8-5.2,22.3c-8.2-0.3-16.4-2.5-24.6-1.8c0.5,3.3,1.8,11.8-0.1,14.5
		c-2.7,5.1-3.8,9.6-4.7,15.4c-1.1,6.7-0.9,13.3-0.8,20.1l-58.7,0.2c-0.7-2.2-1.5-6.2-2.7-8c-3.2-4.8-18.2-9.7-23.7-12.5
		c-8-4-15.5-8.6-23-13.6l3.7-15.5c-6.2-2.1-14.7-1.6-21.3-1.9l-5.6-0.8c-0.6-0.6-1.5-1-1.8-1.9c-1.2-3.5,21.8-124.1,24.4-138.6
		c2.3-13,9.6-34,6.1-46.3c-4.1-14.4-4.9-30.8-6.3-45.6c-2.7-28.9-4.6-57.8-6-86.8L320.8,1140.8z"/>
	<path style="fill:#FCFDFE;" d="M331.4,1470.6c2.6-0.1,4.8-0.4,7.3-1.1c8.8-17.5,13.7-39.8,19.8-58.6c8.3-25.7,16.3-51.4,24.3-77.2
		c4-13.1,9.1-26.5,12-39.9c4.8-22.4,5.6-47.2,8.6-70l1.5-0.9l32,65.9c2,4,1.3,9.3,1.2,13.7c-0.2,10.6-0.6,21.2-0.9,31.7
		c-1,35.9-1.4,71.9-2.1,107.8c-0.1,6.6-0.2,13.2-0.3,19.8c0,1-0.4,4.8-0.1,5.6c0.3,0.8,1.3,1.2,1.9,1.7l5,1
		c0.5,3.3,1.8,11.8-0.1,14.5c-2.7,5.1-3.8,9.6-4.7,15.4c-1.1,6.7-0.9,13.3-0.8,20.1l-58.7,0.2c-0.7-2.2-1.5-6.2-2.7-8
		c-3.2-4.8-18.2-9.7-23.7-12.5c-8-4-15.5-8.6-23-13.6L331.4,1470.6z"/>
	
		<linearGradient id="SVGID_00000072253177018964442170000018355279146835425459_" gradientUnits="userSpaceOnUse" x1="-288.8714" y1="-70.819" x2="24.464" y2="-147.6232" gradientTransform="matrix(0.6667 0 0 -0.667 485.5919 1216.2878)">
		<stop  offset="0" style="stop-color:#000D48"/>
		<stop  offset="1" style="stop-color:#243583"/>
	</linearGradient>
	<path style="fill:url(#SVGID_00000072253177018964442170000018355279146835425459_);" d="M320.8,1140.8c30.8,4.3,59.3,4.8,90.4,3
		c19.7-1.2,38.3-2.5,57.5-7.7c4.2,24.2,8.2,48.6,13.2,72.7c3.4,16.2,6.9,32.3,9.9,48.5c1.5,7.9,3.7,16.3,3.9,24.3
		c0.3,11.9-2.3,24.3-3.8,36.2c-3.6,27.3-7.6,54.5-11.9,81.7c-2.7,16.8-5.6,33.5-8.8,50.2c-1.4,7-2.3,15.8-5.2,22.3
		c-8.2-0.3-16.4-2.5-24.6-1.8l-5-1c-0.6-0.6-1.6-1-1.9-1.7c-0.3-0.8,0.1-4.6,0.1-5.6c0.1-6.6,0.2-13.2,0.3-19.8
		c0.7-35.9,1.1-71.9,2.1-107.8c0.3-10.6,0.7-21.2,0.9-31.7c0.1-4.4,0.9-9.7-1.2-13.7l-32-65.9c-1.8-5.9-0.1-13.1,0.6-19.2
		c1.8-16.8,4.4-33.4,7.1-50.1c-24.2,1.1-49.1,4.4-73.2,3.6c-5-0.2-11.6,0.2-16.3-1.8l-1.9-6.4L320.8,1140.8z"/>
	<path style="fill:#EAF0F7;" d="M1108.6,946.5l193.6-0.1l5.5,13.2c12.6,22.9,36.7,48.8,61.3,59.4l2,2.6c-2.7,7.6-5.2,15.6-5.7,23.7
		l-0.8,143.2v16.5v91.1l-181.9-0.1c-8.5-5.2-18.3-6-27.5-9.6c-5.6-2.2-10.6-5.5-16.2-7.7l-2.1,1.1c-4.8,1.8-8.4,0.7-12.8-1.2
		l-2.4,1.8c-4.8,4.4-4.2,10.9-4.3,16.9c-10.1-3.1-20.8-5.2-30.7-8.9c-6.8-2.5-13.2-6.4-19.6-9.9c-1.4,1.9-2.7,2.6-4.7,3.7
		c-4-0.4-6.5-1-9.8-3.1c-3.5,1.8-5.2,3.6-6.6,7.4l-2.6,10.7l-284.9-0.4c0.2-18.4,0.3-36.7,0-55.1c-0.3-15.4-1.1-31.4,0.4-46.7v-5.8
		c-15.5-1-31.4-0.2-46.9-0.3c-29-0.1-57.9-0.1-86.8-0.1c-15,0-31.4,1.3-46.3-0.5c-1.7-0.2-2.4-2-3.4-3.3l1.3-4.6
		c6.7-4.6,22.6-1.6,31.5-2.8l1.2-0.2l10.6-0.2c58.1,2.2,116.6,0,174.8,0.1c23.2,0,46.5,0.1,69.7,0.1c11.3,0,24.9,1.6,35.6-1.3
		l-0.8-0.2c-17.7-4.7-32.6-12.2-41.9-28.8c-11.6-20.6-2.7-37.1,3.2-57.3l0.3-1c3.2-7.5,7.6-14.5,10.8-22.1
		c8.9-21.4,9.9-44.1,9.3-66.9l-0.5-13.4l1.2-3.4c5.8,1.3,14.8,10.7,20,14.4c16.8,12.1,45.6,26.9,66.7,26.8l1.1-12.2l1.3-2l45.2,3.3
		c6.4,0,13.8-0.1,19.9-2.2c10-3.3,18-10.3,25.8-17.3c12.2-10.9,23.7-22.8,35.2-34.4L1108.6,946.5z"/>
	<path style="fill:#C5C6E9;" d="M1108.6,946.5l193.6-0.1l5.5,13.2l-210.8-0.2L1108.6,946.5z"/>
	<path style="fill:#35C1A6;" d="M1179.3,1185.7c21-35.3,42.1-70.6,64.3-105.1c5.3-8.2,13.6-25.7,22.1-29.6
		c0.1,6.5-1.2,18.1,1.8,23.7l-0.4,0.7c0.4,8.2,2.1,31.7-2.1,38l0.8,1.1l0.4,79.6c-19.1,0-38.1-0.1-57.2-0.1c-7.2,0-17.1,1.1-24-0.6
		c-3.4-0.8-4.5-4-6.1-6.7L1179.3,1185.7z"/>
	<path style="fill:#FCFDFE;" d="M1265,1113.5l-5.9-3c-4.4-2.6-7.3-6.6-8.5-11.6c-1.1-4.8-0.7-9.7,2-13.9c3.6-5.7,8-8.2,14.5-9.6
		C1267.5,1083.6,1269.2,1107.1,1265,1113.5z"/>
	<path style="fill:#0EAE83;" d="M1265.7,1051c5.3,0.3,10.5-0.7,14.4,3.6c5,5.4,8.9,13.9,12.6,20.3c8.7,14.9,17.3,29.9,25.8,45
		c12.4,22.1,27.9,43.4,36.3,67.5c-1.7,2.5-3.6,6.7-6.9,7.1l-81.7-0.2l-0.4-79.6l-0.8-1.1c4.1-6.3,2.5-29.8,2.1-38l0.4-0.7
		C1264.5,1069,1265.9,1057.5,1265.7,1051z"/>
	<path style="fill:#F2DFD8;" d="M1267.5,1074.7c6,0.1,11.1,1.8,15.6,6.1c3.8,3.7,5.4,8.6,5.1,13.8c-0.3,5.5-2.7,10.5-6.9,14.1
		c-4.3,3.7-9.9,5.1-15.4,5.9l-0.8-1.1c4.1-6.3,2.5-29.8,2.1-38L1267.5,1074.7z"/>
	<path style="fill:#F8CF8C;" d="M1354.8,1187.3l9.6,1.1v16.5v91.1h-181.8c-8.5-5.2-18.3-6-27.5-9.6c-5.6-2.2-10.6-5.5-16.2-7.7
		c-1.3-8.7,0.9-19.6,1.5-28.5c1-15,1.4-30,1.9-45.1l0.6-18l36-0.4c1.6,2.7,2.7,5.9,6.1,6.7c6.9,1.7,16.8,0.6,24,0.6
		c19.1,0.1,38.1,0.1,57.2,0.1l81.7,0.2C1351.2,1194,1353.1,1189.8,1354.8,1187.3z"/>
	<path style="fill:#FAA647;" d="M1354.8,1187.3l9.6,1.1v16.5l-222.1,0.3l0.6-18l36-0.4c1.6,2.7,2.7,5.9,6.1,6.7
		c6.9,1.7,16.8,0.6,24,0.6c19.1,0.1,38.1,0.1,57.2,0.1l81.7,0.2C1351.2,1194,1353.1,1189.8,1354.8,1187.3z"/>
	<path style="fill:#72BEF6;" d="M880.6,986.4l1.2-3.4c5.8,1.3,14.8,10.7,20,14.4c16.8,12.1,45.6,26.9,66.7,26.8
		c-2.3,19.4-4.3,36.8,0.4,56.2l26.7-4.9l2.1-9c4.2-3.2,10.1-3.3,15.3-4c12.9-1.9,25.6-3.4,38.6-4.1c4.5-0.2,9.5-1,13.7,0.7
		c1.2,2,1.7,3.1,1.8,5.5c4.3,2.1,9.1,1.6,13.8,1.8c13,0.4,28.8,1.8,40,9.1c4.4,2.9,8.4,7.3,12.1,11.1c4.1,4.5,8.9,10,10.9,15.9
		c3.4,10.2,1.5,23.1,1.1,33.7c-0.6,16.6-1.5,33.2-1.7,49.8l36-0.3l-0.4,1l-36,0.4l-0.6,18c-0.5,15-0.9,30.1-1.9,45.1
		c-0.6,8.9-2.8,19.8-1.5,28.5l-2.1,1.1c-4.8,1.8-8.4,0.7-12.8-1.2l-2.4,1.8c-4.8,4.4-4.2,10.9-4.3,16.9c-10.1-3.1-20.8-5.2-30.7-8.9
		c-6.8-2.5-13.2-6.4-19.6-9.9c-1.4,1.9-2.7,2.6-4.7,3.7c-4-0.4-6.5-1-9.8-3.1c-3.5,1.8-5.2,3.6-6.6,7.4l-2.6,10.7l-284.9-0.4
		c0.2-18.4,0.3-36.7,0-55.1c-0.3-15.4-1.1-31.4,0.4-46.7v-5.8c-15.5-1-31.4-0.2-46.9-0.3c-29-0.1-57.9-0.1-86.8-0.1
		c-15,0-31.4,1.3-46.3-0.5c-1.7-0.2-2.4-2-3.4-3.3l1.3-4.6c6.7-4.6,22.6-1.6,31.5-2.8l1.2-0.2l10.6-0.2c58.1,2.2,116.6,0,174.8,0.1
		c23.2,0,46.5,0.1,69.7,0.1c11.3,0,24.9,1.6,35.6-1.3l-0.8-0.2c-17.7-4.7-32.6-12.2-41.9-28.8c-11.6-20.6-2.7-37.1,3.2-57.3l0.3-1
		c3.2-7.5,7.6-14.5,10.8-22.1c8.9-21.4,9.9-44.1,9.3-66.9L880.6,986.4z"/>
	<path style="fill:#46A1ED;" d="M758.9,1189.3l303.1,0.4l-1.4,14.9l-300.9,2l-0.8-11.6V1189.3L758.9,1189.3z"/>
	<path style="fill:#595ECF;" d="M1013,1062.5c12.9-1.9,25.6-3.4,38.6-4.1c4.5-0.2,9.5-1,13.7,0.7c1.2,2,1.7,3.1,1.8,5.5
		c-1,0.8-3.4,2.4-4,3.4c-0.6,1.1-0.8,4.9-1.1,6.4c-1.1,6.6-2.1,13.1-3.1,19.7c-2.2,14.2-5.5,28.2-7.6,42.4l3,1.4
		c4.2-0.4,8.9-1.5,13-0.3c0.9,5.4-1.1,12.2-1.7,17.7c-1.4,11.4-2.4,22.9-3.5,34.3l-303.2-0.3c-15.5-1-31.4-0.2-46.9-0.3
		c-29-0.1-57.9-0.1-86.8-0.1c-15,0-31.4,1.3-46.3-0.5c-1.7-0.2-2.4-2-3.4-3.3l1.3-4.6c6.7-4.6,22.6-1.6,31.5-2.8l1.2-0.2l10.6-0.2
		c58.1,2.2,116.6,0,174.8,0.1c23.2,0,46.5,0.1,69.7,0.1c11.3,0,24.9,1.6,35.6-1.3c4.8-0.1,9.5,0.9,14.3,1c17,0.3,34,0.2,51-0.2
		c8.2-0.2,17.7,0.4,25.5-2.4l24.5-6.9c-3.2-12.6-2.4-28.1-2.7-41.2C1012.2,1105.2,1011.1,1083.7,1013,1062.5z"/>
	<path style="fill:#F9B39F;" d="M1067.1,1064.6c4.3,2.1,9.1,1.6,13.8,1.8c13,0.4,28.8,1.8,40,9.1c4.4,2.9,8.4,7.3,12.1,11.1
		c4.1,4.5,8.9,10,10.9,15.9c3.4,10.2,1.5,23.1,1.1,33.7c-0.6,16.6-1.5,33.2-1.7,49.8l36-0.3l-0.4,1l-36,0.4l-0.6,18
		c-0.5,15-0.9,30.1-1.9,45.1c-0.6,8.9-2.8,19.8-1.5,28.5l-2.1,1.1c-4.8,1.8-8.4,0.7-12.8-1.2l-2.4,1.8c-4.8,4.4-4.2,10.9-4.3,16.9
		c-10.1-3.1-20.8-5.2-30.7-8.9c-6.8-2.5-13.2-6.4-19.6-9.9c-1.4,1.9-2.7,2.6-4.7,3.7c-4-0.4-6.5-1-9.8-3.1l8.1-74.6l1.4-14.9
		c1-11.4,2.1-22.9,3.5-34.3c0.7-5.5,2.6-12.3,1.7-17.7c-4.1-1.1-8.8-0.1-13,0.3l-3-1.4c2-14.2,5.4-28.2,7.6-42.4
		c1-6.6,2-13.2,3.1-19.7c0.3-1.5,0.5-5.3,1.1-6.4C1063.7,1067,1066.1,1065.4,1067.1,1064.6z"/>
	<path style="fill:#5CB1CE;" d="M1105.7,1185.6c5.2,5.3,4.8,10.3,5.6,17.5c-4.1,0.3-8.6,1-12.7,0.8L1105.7,1185.6z"/>
	<path style="fill:#F2DFD8;" d="M1111.3,1203.1c3.2,17.2,6.2,34.4,9.2,51.6c1.3,7.5,3.8,16.4,3.4,24l-2.4,1.8
		c-4.8,4.4-4.2,10.9-4.3,16.9c-10.1-3.1-20.8-5.2-30.7-8.9c-6.8-2.5-13.2-6.4-19.6-9.9c4.6-15.2,12.4-29.8,18.6-44.4
		c4.2-9.9,7.6-21.1,13-30.4C1102.7,1204.1,1107.2,1203.4,1111.3,1203.1z"/>
	<path style="fill:#F7A483;" d="M1133,1086.6c4.1,4.5,8.9,10,10.9,15.9c3.4,10.2,1.5,23.1,1.1,33.7c-0.6,16.6-1.5,33.2-1.7,49.8
		l36-0.3l-0.4,1l-36,0.4l-0.6,18c-0.5,15-0.9,30.1-1.9,45.1c-0.6,8.9-2.8,19.8-1.5,28.5l-2.1,1.1c-4.8,1.8-8.4,0.7-12.8-1.2
		c0.4-7.6-2.1-16.5-3.4-24c-3-17.2-6.1-34.4-9.2-51.6c-0.8-7.2-0.5-12.1-5.6-17.5c-0.3-1.3-0.4-1.9,0.1-3.3l4.9-13.6
		c3.5-10.6,8.6-21.3,12.8-31.8c3-7.6,4.8-15.6,7.4-23.2C1133.6,1105.8,1132.5,1095.1,1133,1086.6z"/>
	<path style="fill:#3C4198;" d="M880.6,986.4l1.2-3.4c5.8,1.3,14.8,10.7,20,14.4c16.8,12.1,45.6,26.9,66.7,26.8
		c-2.3,19.4-4.3,36.8,0.4,56.2l26.7-4.9l2.1-9c4.2-3.2,10.1-3.3,15.3-4c-1.8,21.2-0.7,42.7-0.3,64c0.3,13.1-0.6,28.5,2.7,41.2
		l-24.5,6.9c-7.7,2.8-17.3,2.2-25.5,2.4c-17,0.4-34,0.4-51,0.2c-4.8-0.1-9.5-1.1-14.3-1l-0.8-0.2c-17.7-4.7-32.6-12.2-41.9-28.8
		c-11.6-20.6-2.7-37.1,3.2-57.3l0.3-1c3.2-7.5,7.6-14.5,10.8-22.1c8.9-21.4,9.9-44.1,9.3-66.9L880.6,986.4z"/>
	<path style="fill:#1D2781;" d="M995.6,1075.5l2.1-9c4.2-3.2,10.1-3.3,15.3-4c-1.8,21.2-0.7,42.7-0.3,64c0.3,13.1-0.6,28.5,2.7,41.2
		l-24.5,6.9c-7.7,2.8-17.3,2.2-25.5,2.4c-17,0.4-34,0.4-51,0.2c-4.8-0.1-9.5-1.1-14.3-1l-0.8-0.2c-17.7-4.7-32.6-12.2-41.9-28.8
		c-11.6-20.6-2.7-37.1,3.2-57.3l0.3-1l10.7,1c-5.2,7.7-8.1,16.2-6.3,25.5c1.5,7.4,4.4,14.6,9,20.6c9.5,12.4,25.9,19.4,41.1,21.5
		c26.5,3.7,52.4-2.3,76-14c-1.1-7.8,0.8-17,1.3-24.9C993.9,1104.3,994.2,1089.9,995.6,1075.5z"/>
	<path style="fill:#F16322;" d="M880.6,986.4l1.2-3.4c5.8,1.3,14.8,10.7,20,14.4c16.8,12.1,45.6,26.9,66.7,26.8
		c-2.3,19.4-4.3,36.8,0.4,56.2c-31.6,6.9-64.7,12.9-97.2,9.5l-10.7-1c3.2-7.5,7.6-14.5,10.8-22.1c8.9-21.4,9.9-44.1,9.3-66.9
		L880.6,986.4z"/>
	<path style="fill:#FCFDFE;" d="M1415.6,458.1l0.5-5.7c0-2.1-0.2-4.7,0.5-6.7c1-3.3,3.1-5.3,6.2-6.7l-1.7,1.8c-3.4,4-3.4,5.7-3,10.6
		c2.2,3.4,4,6.6,7.5,8.8l92.7,1c24.9-0.1,50.7-4.4,70.1,14.8c6.2,6.1,11.6,13.5,14.7,21.6c2.7,6.9,2.4,23.7,7.8,27.4l2.9,271.8
		c0.2,34.4,0.9,68.9,0.8,103.3c0,14.2,1.5,30.6-1.4,44.4c-1.5,7.1-5.3,14.4-10.3,19.6c-6.8,6.9-15.5,11.8-24.4,15.5l-3,3.7l-22.7,22
		c-15.9-5.5-30.2-17.3-42.8-28.1c-2,5.4-2.2,11.6-2.9,17.4c-1.3,11.3-2.1,22.6-3.7,33.9c-8.5,3.5-17,4.8-26.2,4.6l-32-0.8
		c-16.7,7.9-37.1,19.9-55.7,13.3l-11.1-3.8l-13,3.3c0.6-8.1,3-16.1,5.7-23.7l-2-2.6c-24.6-10.5-48.7-36.5-61.3-59.4l-5.5-13.2
		l-193.6,0.1l-11.8,13.1c-11.5,11.6-23,23.5-35.2,34.4c-7.7,6.9-15.7,13.9-25.8,17.3c-6.1,2-13.5,2.2-19.9,2.2l-45.2-3.3l-1.3,2
		l-1.1,12.2c-21.2,0.1-49.9-14.7-66.7-26.8c-5.2-3.7-14.2-13.1-20-14.4l-1.2,3.4l0.5,13.4l-3.6,3.4c-9.9,8.6-27.2,9.8-39.6,8.9
		c-11-0.8-24.3-3.6-31.7-12.5c-16.4-19.7,9.1-31.8,9.2-49.7c0.1-17.6-16.7-31.7-14.2-50.5c3.2-23.1,28.6-20.5,45.2-23.3
		c7.8-1.3,15-4,21.2-9c12.8-10.3,12.5-26.7,14-41.6l-2.3-2c-2.6-3.6-2.3-9.4-2.4-13.7c-1.2-36.7-0.7-73.5-0.8-110.2
		c-0.1-43.3-0.6-86.6-0.6-129.9c0-21,0-42,0.1-62.9c0-9.9-1.1-21.9,0.9-31.5c1.3-6,8.7-10.5,13.5-13.5l232.6,0.3l2,1.5l-8,43.9
		c14.6,8,30.1,14.5,46,19.7c9.3-11.3,15.8-25,22.7-37.8l29.3,2.9c10.1-1.5,20.2-0.4,30.2-2.8l20.9,36.4
		c15.2-4.2,31.2-11.1,45.1-18.5l-7.3-40.9l9.8-6.4l101.2,0.4L1415.6,458.1z"/>
	<path style="fill:#F2DFD8;" d="M1099.1,892.4c4.1-5.1,10.2-13,16.9-14.1c2.1,2.8,2.8,3.1,2.1,6.8c-1.2,6.9-9.6,15.1-15.6,18.4
		l-2.1,0.8L1099.1,892.4z"/>
	<path style="fill:#0A7157;" d="M918.5,500.7c3.1,0.5,7.3,1.1,9.6,3.5c3.4,3.5,3,6.1,3,10.5c-1.9,4.4-4.8,6-8.7,8.4
		c-2.9-0.6-6.5-1.1-8.6-3.5c-2.4-2.6-3.6-5.6-3.1-9.2C911.4,505.7,914.8,503.2,918.5,500.7z"/>
	<path style="fill:#F48323;" d="M1008.1,501.9c3-0.1,7.8-0.8,10.3,1.1c3.4,2.5,4.7,5.1,4.9,9.3c0.2,4.2-3.2,7.2-6,9.8l-2.3,0.3
		c-3.6,0.2-7.8,0.4-10.4-2.4c-2.8-2.9-3.2-5.5-2.9-9.5C1001.9,506.9,1005.7,504.1,1008.1,501.9z"/>
	<path style="fill:#0A7157;" d="M963.2,500.2c4.1,0.7,8.3,1.6,11.1,4.9c2.5,3,2.3,5.9,2,9.6c-1.9,4.4-4.5,5.9-8.4,8.2
		c-3-0.5-7.2-0.8-9.5-2.9c-2.7-2.5-3.5-5.5-3.8-9C955.9,505.9,959.2,503.5,963.2,500.2z"/>
	<path style="fill:#B6BDF1;" d="M913.9,698.8c17.8-0.6,35.7-0.3,53.5-0.4c6.5,0,16.8-1.6,22.1,1.6l-0.1,5.4
		c-17.2,1.2-35.1,0.2-52.4,0.3c-6.4,0-17.3,1.5-22.7-1.6L913.9,698.8z"/>
	<path style="fill:#B6BDF1;" d="M1321.2,849.9c-18.9,0-37.8,0.2-56.7,0.2c-8,0-18.7,1.3-26.3-0.8l-1.3-3.1l1.7-2.4l87.2-0.2
		L1321.2,849.9z"/>
	<path style="fill:#B6BDF1;" d="M1440.8,625.5c22.6-1.2,45.8-0.3,68.5-0.4c3,0,14.8-1,16.9,0.1c0.8,0.4,1.4,1.3,2.1,1.9l-0.9,5.3
		c-20.6,0.5-41.3,0-61.8,0c-6,0-16.2,1.4-21.8,0c-0.6-0.1-2.1-1.7-2.7-2.2L1440.8,625.5z"/>
	<path style="fill:#B6BDF1;" d="M1345.9,821.8l-106-0.2l-2.3-2.8l0.8-2.1c4.9-3,100.8-1,114.2-1L1345.9,821.8z"/>
	<path style="fill:#FCBB56;" d="M1077.4,759.4c11.5-5.3,16.7-4.7,29.1-3.2c8.4,7.7,13.4,13,17.3,23.8l-3.7,11.8
		c-3.5-3.6-5.7-8.5-8.1-12.9c-5.4-2.4-16.6-9-22.2-7.3c-7.3,5.3-7.7,12-11,19.5l-0.9-1.1c-1.7-1.7-5.1-0.3-7.2,0
		c-0.6-6.7-0.9-10.4,1.8-16.6L1077.4,759.4z"/>
	<path style="fill:#B6BDF1;" d="M986.8,656.4c18.3-0.1,36.6-0.2,55-0.2c6.7,0,17.9-1.5,23.4,2.1v4.3c-6.7,3.8-60.2,1-72,0.9
		l-77.8-0.5l-2.3-2.8l1.2-2.4c7.2-1.9,16.5-0.9,24.1-1C954.4,656.5,970.6,656.5,986.8,656.4z"/>
	<path style="fill:#B6BDF1;" d="M1328.3,744.3c15.7-0.2,31.4-0.2,47-0.3c7.5,0,16.5-1,23.8,0.8c0.7,2.6,0.7,2.9-0.2,5.5
		c-5.7,2.6-17.9,1-24.3,1c-21,0-42,0-63,0c-17.5,0-35,0.1-52.5,0.1c-5.8,0-15.9,1.3-21-1.1l-0.6-3.4l1.8-2.1L1328.3,744.3z"/>
	<path style="fill:#B6BDF1;" d="M1414.9,781.1c-14.3-2.8-32.4-1-47.1-1c-32.8,0-65.5,0.1-98.3,0.1c-7.7,0-25.4,2-31.4-1.3l-0.5-2.8
		l2-2.4c39.1-0.9,78.5,0.2,117.7,0.3c14.2,0,28.4,0.1,42.6,0.1c8.8,0,18-0.5,26.7,1.2l-2.2,2.9l-3.4,1.3L1414.9,781.1z"/>
	<path style="fill:#F25159;" d="M1360.2,604.9c7.7-0.4,15.2,2.6,22.1,5.7c-4.6,4.9-10.3,12.6-16.8,14.8c-1.3,0.4-2.3,1-3.6,1.7
		l-0.1,5.5c-1.7,2.7-4.2,7.6-7.3,8.6c-4.7,1.5-8.1,5-11.9,8.1l-10.7,9.3l-3.6-11.8c-1.5-7.3-0.2-17,3.9-23.3
		c1.3-0.1,2.2-0.1,3.5,0.2l1.2,0.3c2.4-1.9,9.6-6.4,9.7-9.7c0-2.7-2.2-2.3-1.1-5.9C1350.2,606.2,1355,605.6,1360.2,604.9z"/>
	<path style="fill:#B6BDF1;" d="M913,627.8c41.1-1.5,82.8,0,124-0.2c10.6,0,54.2-2.6,60.8,1.7l0.1,5.3c-18.1,2.4-38.6,0.5-57.1,0.5
		c-41.4,0-82.8-0.1-124.2-0.3C913.3,632.3,913.7,631.9,913,627.8z"/>
	<path style="fill:#F8CF8C;" d="M1070.7,790.2c2.2-0.4,5.5-1.7,7.2,0l0.9,1.1c3.2-7.6,3.7-14.3,11-19.5c5.6-1.7,16.7,4.9,22.2,7.3
		c2.4,4.4,4.6,9.3,8.1,12.9c-2.1,9.4-7.9,15.7-14.2,22.6c-4.7,1.4-9,3.2-13.8,1.8l-3.7-1c-6.4-7.5-11.8-13.7-12.3-23.7
		C1073.9,791.8,1072.7,791,1070.7,790.2z"/>
	<path style="fill:#F25159;" d="M1385.9,615l2.4,0.9c6.3,8.4,9.8,15.8,9,26.5c-0.4,5.5-2.5,13.9-7.2,17.4c-2.1,1.5-6.9-2.4-10.4-2.7
		l-3.5,3.1c-0.6,3.8,1.4,5.1,3.5,8.1l-1.2,2.3c-7.8,4.7-14.2,4.9-23.2,4.5c-7-2.5-13.6-5.7-19.1-10.8c9.6-8.4,18.6-19.1,28.9-26.4
		c2.8,0.8,5.3,1.9,8.2,0.9c1.4-3,1.6-5.3,0.3-8.5l-0.5-1L1385.9,615z"/>
	<path style="fill:#F7A483;" d="M1099.1,892.4l1.4,11.9c-9.3,7.2-17.4,18.7-25.1,27.7c-4.2,4.9-9.9,10.2-13.2,15.6
		c-10.1,11.9-31.6,27.4-46.5,31.2l-8.2-1.5c-9-1.6-17.4-5.2-25.2-9.9l-0.5-0.9c-4.5-6.8-1.9-27-1.8-35.8c13.9,6.3,25.7,11.3,40.8,14
		c14.6-7.5,28.1-19.5,41.7-28.8C1074.5,907.8,1087.5,901.2,1099.1,892.4z"/>
	<path style="fill:#C43C96;" d="M1088.4,815.2l3.7,1c4.9,1.4,9.1-0.4,13.8-1.8c0.6,1.7,1.2,4.3,2.4,5.6c8,1.5,18.5,2.8,25,8.2
		c10,8.4,9.6,25.7,10.3,37.5l-93-0.3c0-11.2,0.6-23.8,6.9-33.3c6.1-9.1,17.8-10.3,27.7-12.2L1088.4,815.2z"/>
	<path style="fill:#F7A483;" d="M1088.4,815.2l3.7,1c4.9,1.4,9.1-0.4,13.8-1.8c0.6,1.7,1.2,4.3,2.4,5.6l0.8,6.7
		c-0.2,4-3,5.9-5.6,8.5l1,6.7l-1.8,1.7c-1.7-1.7-2.4-3.2-4.9-3.5c-0.8,2.7-1.6,4.7-3.3,7c-2.5-2.4-2.1-6.6-2.6-10l-1.5-1.1
		c-0.8,3.7-0.6,3.8-3.7,5.9c-0.8-3.2,0-3.8,1.4-6.7l-0.6-0.6c-3.9-4.4-2.5-9.2-2.4-14.8L1088.4,815.2z"/>
	
		<linearGradient id="SVGID_00000090984872444715201720000007220097613348929664_" gradientUnits="userSpaceOnUse" x1="1115.2477" y1="847.7505" x2="1029.6385" y2="909.3813" gradientTransform="matrix(0.6667 0 0 -0.667 485.5919 1216.2878)">
		<stop  offset="0" style="stop-color:#5D53D5"/>
		<stop  offset="1" style="stop-color:#716CF3"/>
	</linearGradient>
	<path style="fill:url(#SVGID_00000090984872444715201720000007220097613348929664_);" d="M1194.4,592.3l10.8,0.1l5.5,8.2
		c4.4,1.5,8.5,0.7,13,0.2c3.4,3.3,7.4,6.5,9.2,11l-1.9,3.7c0.4,3.6,1.2,6,3,9.2c3.1,0.5,4.8,0.8,7.1,3.1c0.1,3.7,1.1,9.9-0.4,13.2
		c-0.6,1.4-4.6,2.6-6.2,3.2c-2.8,6.3-6.6,12-12.4,16c-2.7,1.9-5.6,2.7-8,5.2c-1.8,1.9-3.5,3.1-5.7,4.5c-5.3-0.1-13.1,0.4-17.4-3
		l0.6-1.8c-2.2-0.9-4.8-0.7-7.2-0.7c-8.7-4.7-11.8-10.8-16.8-19.2c-3.2-1.1-4.8-2-7.1-4.5c-0.9-4.4-1.1-7.9-0.6-12.4l6.2-2.9
		c7.7-5.2,1.7-8.5,3.4-13.8c3.5-11.2,11.9-6.6,19.2-10.7C1193.2,598.4,1193,597,1194.4,592.3z"/>
	<path style="fill:#FCFDFE;" d="M1218.5,624.9c2.9,0.9,3.2,1.1,5.1,3.4l-27,26.7l-9.2-8.6c-1.7-2.3-4.2-5.2-4.6-8.2
		c-0.2-2.1,0.9-2.7,2.2-4.2c4.6,1.1,8.5,7,11.8,10.5L1218.5,624.9z"/>
	<path style="fill:#F9B39F;" d="M1171.6,860.2c-3.5,11.4-11.5,20-15.6,30.7l4.5-2.8l2,1.3c-1.3,1.7-2.3,3.2-3.1,5.2
		c2.4-0.6,3-1.1,5.4,0c-1.4,1.4-2.5,2.6-3.3,4.4c-2.2,5-5.9,7.6-10.1,11l0.6,1.2c5.4-2.4,10.4-7.4,15-11.3c-4.1,7.2-7.9,13-13.8,19
		l-26,0.9l-18.7,26.6l-11.6,13c-11.5,11.6-23,23.5-35.2,34.4c-7.7,6.9-15.7,13.9-25.8,17.3c-6.1,2-13.5,2.2-19.9,2.2l-45.2-3.3
		l-1.3,2c-0.2-2.3-0.9-2.8-2.4-4.5c-1.4-11,9.6-30.4,15.1-40.1c7.8,4.7,16.2,8.3,25.2,9.9l8.2,1.5c15-3.8,36.5-19.3,46.5-31.2
		l7.3,1.7c12.4-6.6,23.1-18.6,33.7-27.7c4.6-4,10.8-7.8,14.7-12.4c2.6-3,4-7,6.6-10.1c3.1-3.7,7.6-7.9,12.5-8.4l-3.8,6l1.2,0.7
		C1146.9,885.3,1158.1,871.1,1171.6,860.2z"/>
	<path style="fill:#EAF0F7;" d="M1062.2,947.6l7.3,1.7c-11.8,9.3-33.5,33.1-49,31.2c-1.8-0.2-3.3-0.8-4.9-1.7
		C1030.6,975,1052.2,959.5,1062.2,947.6z"/>
	<path style="fill:#08090E;" d="M1422.6,752c-2.8-1.9-5.3-4.3-7.5-6.8c-8.4-9.6-10.6-28.4-9.5-40.9c0.7-7.6,3.5-15.2,8.3-21.2
		c3.9-4.9,9.7-9.5,15.9-11c12.3-2.9,30.7,2.9,40.8-6.4c5.4-5,4.4-11.4,4.6-18.2c7.7,7.2,12.5,13.8,16.7,23.7
		c2.4,5.7,4.2,12.2,1.6,18.1c-2.7,6-8.7,8.1-14.4,10.1c1.6,7.4,3.1,19.4,7.1,25.5c5.4,12.1,9.8,33.5,5.1,46.3
		c-2.4,6.7-7.2,9.3-13.4,12h-1.3l-1.9,0.5c-9.8,0.7-17.6,1.1-27.2-1.3l0.8,2.3l3.4,0.8c-2.3,0.2-4.9,0.7-7.2-0.1l-2.2,1.1
		c-6.6-1.4-12.2-5.1-17.9-8.5l2.2-2.9l-0.1-15.4C1425.6,755.6,1425.9,754.6,1422.6,752z"/>
	<path style="fill:#F8CF8C;" d="M1472.1,738.7c4.6-1.4,9-2.8,13.9-2.9l1.4,4.3c-3,3.4-14.9,4.9-19.7,5.5l-2-2.5l1.8-3.4
		L1472.1,738.7z"/>
	<path style="fill:#F9B39F;" d="M1422.6,752l-0.1-0.7c-0.5-2.7-1.1-5.9-2.3-8.4c-1.3-2.7-4-4.6-5.5-7.1c-2.3-3.7-2.4-12.1,0.1-15.8
		c1.6-2.3,3.8-3.7,6.6-4l1.7-0.1c6.2,5.1,5.8,12.3,8.5,19.5l-0.4,2.5c-4,6.9-3.2,14.5-2.9,22.2c4.2,11.3,9,16.3,19.3,22.4l0.8,2.3
		l3.4,0.8c-2.3,0.2-4.9,0.7-7.2-0.1l-2.2,1.1c-6.6-1.4-12.2-5.1-17.9-8.5l2.2-2.9l-0.1-15.4C1425.6,755.6,1425.9,754.6,1422.6,752z"
		/>
	<path style="fill:#F9B39F;" d="M1467.8,745.6c-10,1.7-18,1.7-27.3-3c-2.8-1.4-7-3.9-7.9-7.1c-2.5-9.4-2.6-31,2-39.4
		c0.9-0.6,2.7-2,3.7-2.3c5-1.2,18.1,4.2,23.6,5.2c5.6,1.1,11.6,0.5,17.2,0.3c1.6,7.4,3.1,19.4,7.1,25.5c-0.2,3.2,0,6.3-1.5,9.2
		c-3.5,0.7-15.7,1-17.1,3l4.6,1.5l-4.6,1.1l-1.8,3.4L1467.8,745.6z"/>
	<path style="fill:#C5C6E9;" d="M1415.6,458.1l0.5-5.7c0-2.1-0.2-4.7,0.5-6.7c1-3.3,3.1-5.3,6.2-6.7l-1.7,1.8c-3.4,4-3.4,5.7-3,10.6
		c2.2,3.4,4,6.6,7.5,8.8l92.7,1l-1.1,83.5c16.1-0.1,32.3-0.2,48.4-0.3c7.8,0,16.9-1,24.5,0.6c-12.4,1.3-25.7,0.5-38.2,0.5
		c-24.9,0.1-49.9,0-74.8,0c-79,0-158,0.2-237-0.4l0.6-0.6l128.4-1.4l38.7,0.2c3.1-0.2,8.6,0.6,11.4-0.3l2.2-0.2l2.2,0.2l9.2,0.3
		c1.8-2.3,3.5-3.1,4.3-6l-1-0.6c-3.1-2.3-3.6-6.2-4.3-9.7l2.1-0.5l2.2,2.6l0.4,1.6c2.3-5,6.8-7.9,7.8-13.6c-2-9.2,0-20.2,0-29.8
		c-1.8-1.2-3.2-4.1-4.7-4.9c-2.5-1.4-5.1-3.5-7.6-4.8c-0.9-0.4-2.1,0.1-3-0.4c-1.9-1.1-0.8-2-3.7-2.4l-1.8-2.5l-2.1,1.9l-1.4-0.6
		c-2.4,2.8-4,4.3-7.6,5.2l-2.8-3l-3.3-0.9c-1.2-0.5-2.3-1.1-3.6-1.1l-5.8-0.3c-1,3.3-3.3,5.4-5.5,7.9c-6.7,0.8-11,0.2-16.3-4.3
		c-2-1.7-3.8-4.1-6.3-5.1l-1.3-0.5l-1.3-3l-2,1.1c-3.3-1.5-6.9-1.3-10.4-1.1l-1.4,0.1l-2.9-2.6l-2.7,0.1c-2.3-1.7-3.7-2.3-6.6-2.4
		c-1.8,0-1.3-1.3-2.6-1.9c-5.5-2.9-17.3,2.3-23.4,0.3l-0.7-0.2c-2.2,2.1-4.2,3.9-6.9,5.5l-0.7,0.4c0.5,2.6,0.8,5,0.9,7.7v0.8
		c3.5,4.2,2.2,13.6,4,18.7c1.8,4.9,1.6,9.6,0.3,14.6c-13.1,7.5-31,15.3-45.7,18.3l-1.5,0.3l-20.2-35.1c-1.6-0.2-3.1-0.6-4.7-0.1
		c-1.1,0.3-2.2,0.8-3.3,0.9c-4.9,0.4-17.9,1-21-1.7c10.1-1.5,20.2-0.4,30.2-2.8l20.9,36.4c15.2-4.2,31.2-11.1,45.1-18.5l-7.3-40.9
		l9.8-6.4l101.2,0.4L1415.6,458.1z"/>
	<path style="fill:#B6BDF1;" d="M1518.1,461.4c24.9-0.1,50.7-4.4,70.1,14.8c6.2,6.1,11.6,13.5,14.7,21.6c2.7,6.9,2.4,23.7,7.8,27.4
		l2.9,271.8c0.2,34.4,0.9,68.9,0.8,103.3c0,14.2,1.5,30.6-1.4,44.4c-1.5,7.1-5.3,14.4-10.3,19.6c-6.8,6.9-15.5,11.8-24.4,15.5
		l-11.9-14.2c7.5-1.5,13.5-2.6,19-8.5c5.6-6.1,9.6-13,10.7-21.3c2-15,0.4-32.3,0.4-47.6c-0.1-33.6-0.2-67.2-0.2-100.8
		c-0.1-50.7,0.2-101.5,0.3-152.2c0.1-25.8,1.2-52.1,0-77.8c-0.3-5.8-2.4-8.2-6.5-12c-7.6-1.6-16.7-0.6-24.5-0.6
		c-16.1,0.1-32.3,0.2-48.4,0.3L1518.1,461.4z"/>
	<path style="fill:#5974E5;" d="M1523.8,482.4c8.9,2.6,18,14.7,24.8,21.5c5.4-5.4,12.3-14.5,19-17.9l1.9,2.5
		c-3,6.2-12.7,13.2-17.9,18.2c4.8,4.6,18.2,15,19.9,20.8l-2.1,1.5l-3-2.3l-17.7-16.5c-4.8,4.6-17.4,19.3-23.2,20l-1.8-1.7
		c6.5-7.6,14.8-14.3,22.1-21.2l-23.8-21.9L1523.8,482.4z"/>
	<path style="fill:#090B28;" d="M881.6,825.6c5.7-17,15.4-30.3,31.7-38.4c13.8-6.8,30.2-7.3,44.6-2.4c10.6,3.6,20.8,11.5,25.8,21.6
		c4.2,8.5,3.7,15.4,1.8,24.4c2.8,14.8,4,34.1-2.7,47.8c-8.4,5.8-18.4,8.9-28.6,9.4c0.4,7-0.4,12.5-2.4,19.2l5.5,7.8l22.7,15.9
		c-0.1,8.7-2.6,28.9,1.8,35.8l0.5,0.9c-5.5,9.7-16.5,29.1-15.1,40.1c1.5,1.8,2.1,2.2,2.4,4.5l-1.1,12.2
		c-21.2,0.1-49.9-14.7-66.7-26.8c-5.2-3.7-14.2-13.1-20-14.4l-1.2,3.4l0.5,13.4l-3.6,3.4c-9.9,8.6-27.2,9.8-39.6,8.9
		c-11-0.8-24.3-3.6-31.7-12.5c-16.4-19.7,9.1-31.8,9.2-49.7c0.1-17.6-16.7-31.7-14.2-50.5c3.2-23.1,28.6-20.5,45.2-23.3
		c7.8-1.3,15-4,21.2-9C880.4,856.9,880,840.5,881.6,825.6z"/>
	<path style="fill:#F9B39F;" d="M931.1,848.1c9.7-12.4,26-25.7,42.1-27.9c4.7-0.7,5.8-0.6,9.5,2.3l2.7,8.2c2.8,14.8,4,34.1-2.7,47.8
		c-8.4,5.8-18.4,8.9-28.6,9.4l-0.8,0.2l-3.2-1.4c-10.5-4.3-17.7-11.7-25.4-19.6c-2.1-6.1-4.6-8.4-8.4-13.4
		c-2.8-3.8-2.6-7.2-1.9-11.7c3.4-3.3,3.5-3.7,8.3-4.1C927.1,840.5,928.7,843.7,931.1,848.1z"/>
	<path style="fill:#F48323;" d="M924.7,867.1c7.8,7.9,15,15.3,25.4,19.6l3.2,1.4l0.8-0.2c0.4,7-0.4,12.5-2.4,19.2l5.5,7.8l22.7,15.9
		c-0.1,8.7-2.6,28.9,1.8,35.8l0.5,0.9c-5.5,9.7-16.5,29.1-15.1,40.1c1.5,1.8,2.1,2.2,2.4,4.5l-1.1,12.2
		c-21.2,0.1-49.9-14.7-66.7-26.8c-5.2-3.7-14.2-13.1-20-14.4l-1.2,3.4c-2.4-10.6-0.4-24.8,1.3-35.5c1.3-6.9,2.5-14.2,5.1-20.7
		c5-12.4,16.6-20,28.4-25.1l6.3-2.1c3.1-9.1,3.7-18.9,4.7-28.4L924.7,867.1z"/>
	<path style="fill:#F03C0C;" d="M880.6,986.4c-2.4-10.6-0.4-24.8,1.3-35.5c5.1,8.5,10.4,16.6,17.4,23.6c13.7,13.7,39,26.2,57.8,30.8
		l10,2.1c1.5,1.8,2.1,2.2,2.4,4.5l-1.1,12.2c-21.2,0.1-49.9-14.7-66.7-26.8c-5.2-3.7-14.2-13.1-20-14.4L880.6,986.4z"/>
	<path style="fill:#F03C0C;" d="M924.7,867.1c7.8,7.9,15,15.3,25.4,19.6l3.2,1.4l0.8-0.2c0.4,7-0.4,12.5-2.4,19.2l5.5,7.8
		c2.1,9.3,3.8,19.9-0.9,28.8l-2.6,0.4c-11-5.3-22.2-11.5-31.1-20c-6.8-6.5-7.2-9.8-7.3-18.8l6.3-2.1c3.1-9.1,3.7-18.9,4.7-28.4
		L924.7,867.1z"/>
	<path style="fill:#F9B39F;" d="M924.7,867.1c7.8,7.9,15,15.3,25.4,19.6l3.2,1.4l0.8-0.2c0.4,7-0.4,12.5-2.4,19.2
		c-1.6,3.1-2.9,5.9-5.4,8.4c-0.9,0.9-2.3,0.7-3.5,0.6c-7.2-0.4-16.5-7.9-21.2-13.1c3.1-9.1,3.7-18.9,4.7-28.4L924.7,867.1z"/>
	<path style="fill:#F7A483;" d="M924.7,867.1c7.8,7.9,15,15.3,25.4,19.6l3.2,1.4l-1.5,5.3l-2.4,0.7c-8.3-2.6-17.2-13.2-23.1-19.4
		L924.7,867.1z"/>
	<path style="fill:#F37FA4;" d="M1424.4,778.1c5.7,3.4,11.3,7.1,17.9,8.5l2.2-1.1c2.2,0.7,4.8,0.2,7.2,0.1l-3.4-0.8l-0.8-2.3
		c9.6,2.3,17.4,2,27.2,1.3l1.9-0.5h1.3c7.2,3.6,15,6.2,21.3,11.4c7.5,6.1,13.8,24.1,17.1,33.4l1.5,5.2c5.1,14.9,9.4,30,12.7,45.4
		c3.9,17.7,6.9,35.7,14.1,52.5c5.4,12.4,13.4,23.8,21.7,34.3l11.9,14.2l-3,3.7l-22.7,22c-15.9-5.5-30.2-17.3-42.8-28.1
		c-2,5.4-2.2,11.6-2.9,17.4c-1.3,11.3-2.1,22.6-3.7,33.9c-8.5,3.5-17,4.8-26.2,4.6l-32-0.8c-16.7,7.9-37.1,19.9-55.7,13.3l-11.1-3.8
		l-13,3.3c0.6-8.1,3-16.1,5.7-23.7l-2-2.6c-24.6-10.5-48.7-36.5-61.3-59.4l-5.5-13.2c-2.4-7.2-4.1-14-5.4-21.5
		c-4.8-27.5,9.2-53.2,24.4-75l4.8-6.2l19.9-21.9l6.8-6.1c19.8-15.1,39.1-25.6,62.2-34.7l6.2-1.6L1424.4,778.1z"/>
	<path style="fill:#FCFDFE;" d="M1354.1,919.4c3.7-4.1,8.4-10.8,13.4-13.1l0.7,4.8c-4.6,10.2-4.4,27.8-5.4,39.1
		C1357.9,939.5,1355,931.4,1354.1,919.4z"/>
	<path style="fill:#C43C96;" d="M1424.4,778.1c5.7,3.4,11.3,7.1,17.9,8.5l2.2-1.1c2.2,0.7,4.8,0.2,7.2,0.1l-3.4-0.8l-0.8-2.3
		c9.6,2.3,17.4,2,27.2,1.3l1.9-0.5l-0.4,7.5c-2.8,3.1-7.7,5.3-11.9,5.6c-17.9,1.4-30.2-5.3-43.2-16.9L1424.4,778.1z"/>
	<path style="fill:#FABB77;" d="M1447.4,782.4c9.6,2.3,17.4,2,27.2,1.3c-7.4,6.1-14,6-23.4,5.2c-3.1-0.3-6-1-8.9-2.3l2.2-1.1
		c2.2,0.7,4.8,0.2,7.2,0.1l-3.4-0.8L1447.4,782.4z"/>
	<path style="fill:#C43C96;" d="M1367.5,906.3c2.9-6.2,10.3-11.9,15.1-16.7c19.2-19.2,38.6-40.5,47.1-67c2.2,7.5-7,23.5-10.6,30.1
		c-10.9,19.9-31.6,46.4-50.9,58.5L1367.5,906.3z"/>
	<path style="fill:#F87878;" d="M1369,1018.9c6-8.7,12.5-17.7,20.9-24.2c4-0.4,27.1,6.7,30.6,9.4l1.5,1.6l-0.8,3.3
		c-4.9,1.9-12.2,0.9-17.5,0.9c5.1,7.2,12,12.2,17.1,18.9l24.3,3.6c-16.7,7.9-37.1,19.9-55.7,13.3l-11.1-3.8l-13,3.3
		c0.6-8.1,3-16.1,5.7-23.7L1369,1018.9z"/>
	
		<linearGradient id="SVGID_00000119080982695845175100000013163685404362804131_" gradientUnits="userSpaceOnUse" x1="1375.0576" y1="251.1615" x2="1383.1018" y2="284.5457" gradientTransform="matrix(0.6667 0 0 -0.667 485.5919 1216.2878)">
		<stop  offset="0" style="stop-color:#005057"/>
		<stop  offset="1" style="stop-color:#003168"/>
	</linearGradient>
	<path style="fill:url(#SVGID_00000119080982695845175100000013163685404362804131_);" d="M1371,1021.5c8.7,6.2,17.6,17.5,28.7,18.5
		l1-1.7l-2.8-5.1l0.8-0.3l6.6,6.1l2.4-0.6c-0.4-2.8-2.3-4.2-4-6.4l0.9-0.9c3.2,1.8,4.7,3.1,8.6,2.7l0.7-1.9l-5.7-5.5l1.4-0.7
		l1.2,0.5c3.4,1.4,6.2,2.3,10,2.5l24.3,3.6c-16.7,7.9-37.1,19.9-55.7,13.3l-11.1-3.8l-13,3.3
		C1365.8,1037.1,1368.3,1029.1,1371,1021.5z"/>
	<path style="fill:#A1226E;" d="M1509.8,977.3c-1.4-5.2,0.6-13.7,1.4-19.1c1.6-11.2,2.9-22.4,4.1-33.7c1.9-18.2,3.5-36.6,3.7-54.9
		c0.1-7.9-0.4-15.8-1.3-23.6c-0.5-4.2-2-8.8,0-12.6c5.1,14.9,9.4,30,12.7,45.4c3.9,17.7,6.9,35.7,14.1,52.5
		c5.4,12.4,13.4,23.8,21.7,34.3l11.9,14.2l-3,3.7l-22.7,22C1536.7,999.8,1522.3,988.1,1509.8,977.3z"/>
	
		<linearGradient id="SVGID_00000166654851042334491510000000044427700374113208_" gradientUnits="userSpaceOnUse" x1="294.5867" y1="1357.1454" x2="181.0912" y2="64.899" gradientTransform="matrix(0.6667 0 0 -0.667 485.5919 1216.2878)">
		<stop  offset="0" style="stop-color:#A9D7F8"/>
		<stop  offset="1" style="stop-color:#FDF9FC"/>
	</linearGradient>
	<path style="fill:url(#SVGID_00000166654851042334491510000000044427700374113208_);" d="M734.6,324.2c14.8-2.8,29.4-5,44.6-5.1
		c57.5-0.1,118.3,21.9,169.6,46.5c15.3,7.3,30.5,14.4,46.2,20.8c9.5,3.9,19.3,8.1,29.5,9.9c4.4,11.6,8.2,23.6,14.1,34.6
		c14.3-3,27.8-7.5,41.2-13.3c11.3,17.9,25.7,32.2,42.9,44.5l-232.6-0.3c-4.8,3-12.2,7.5-13.5,13.5c-2.1,9.6-0.9,21.6-0.9,31.5
		c-0.1,21-0.1,42-0.1,62.9c0,43.3,0.5,86.6,0.6,129.9c0.1,36.7-0.4,73.5,0.8,110.2c0.1,4.3-0.1,10.1,2.4,13.7l2.3,2
		c-1.6,14.9-1.2,31.3-14,41.6c-6.2,5-13.4,7.7-21.2,9c-16.6,2.8-42,0.1-45.2,23.3c-2.6,18.7,14.2,32.9,14.2,50.5
		c-0.1,17.9-25.6,30.1-9.2,49.7c7.4,8.9,20.7,11.7,31.7,12.5c12.4,0.9,29.7-0.4,39.6-8.9l3.6-3.4c0.6,22.8-0.4,45.5-9.3,66.9
		c-3.2,7.6-7.6,14.6-10.8,22.1l-0.3,1c-5.9,20.2-14.7,36.6-3.2,57.3c9.3,16.6,24.2,24.1,41.9,28.8l0.8,0.2
		c-10.8,2.9-24.4,1.3-35.6,1.3c-23.2,0-46.5,0-69.7-0.1c-58.2,0-116.7,2.1-174.8-0.1l-10.6,0.2c7.6-10.5,16.9-18.6,25.4-28.1
		c12.3-13.7,21.4-28.6,28.3-45.6c2.4-10.7,2.1-21.6,2.2-32.5c-8.3-0.3-19.7-2.8-26.5-7.6c-6.3-4.4-7.3-16.3-8.4-23.3
		c-2.6-6-2.7-16.4-3.5-23.1c-3.6-30-5.7-59.8-6.8-90c-28.9,26.9-70.5,43.3-110.2,41.8l-25.8-2.8l-25.4-6c-1.8,4.4-0.8,9.6-0.3,14.3
		c0.9,10.2,2.1,20.3,3.1,30.4c2.5,25.6,4.2,51.2,6.4,76.8c1.4,15.4,4.7,32.5,3.6,47.8c-0.2,2.7-1,4.5-3,6.4
		c-19.1,5.2-37.7,6.6-57.5,7.7c-31.1,1.8-59.6,1.3-90.4-3c-2.5-0.8-4.4-1.6-6.7-3l-3.1-52.3c-3.4-2-7.6-3.1-11.2-4.6
		c-22.2-9.4-47.3-22.9-56.6-46.6c-9.5-24.1,0-48.8,9.8-71c-6.7-6.9-12.2-16.1-17.4-24.2c-20.8-32.3-35.6-66.8-43.6-104.4
		c-16.3-77.2,9.9-151,51.8-215.1c40.1-61,94.7-110.5,155.3-150.9c49.6-33.1,100.5-59.3,157.4-77.6c26.8-8.7,54.5-13.9,82-19.6
		l13.9,28.7l21.3-45.9l2.1,0.1c10.4,0.5,20.9,0.7,31.3,1c4.7,0.1,10.4,0.8,15-0.2c2.6-0.5,5-2,6.9-3.8
		C736.2,343.8,734.6,333.7,734.6,324.2z"/>
	<path style="fill:#5CB1CE;" d="M582.6,808.9c5.7,4.9,11.3,10.2,17.5,14.4c15.6,10.4,32.9,18.2,49.2,27.6c0.9,2.3,1.6,4.3,1.8,6.8
		l-0.9,0.4c-6.3,2.1-20.4-3.3-26.5-5.7C605,845,590.4,827.1,582.6,808.9z"/>
	<path style="fill:#7AC8DB;" d="M680.9,844c17-12.3,33.1-22.8,54.9-22.3c6.2,0.2,19.4,1,23.8,5.7l-0.9,1.7c-5.5,0.3-10.4,3-15.5,4.9
		c-6.7,2.4-13.8,4-20.7,5.6C709.1,842.7,694.6,842.8,680.9,844z"/>
	<path style="fill:#5CB1CE;" d="M680.9,844c13.7-1.2,28.2-1.3,41.6-4.4c6.9-1.6,14-3.2,20.7-5.6c5.1-1.8,10-4.6,15.5-4.9
		c-11.2,13.7-23.3,24.6-41.6,26.4c-11,1.1-26.8-0.1-35.9-7.1l-1.7-2.1L680.9,844z"/>
	<path style="fill:#7AC8DB;" d="M582.6,808.9l-2.6-4.7l1-1.7c20.3,0.7,40.7,8.4,54.7,23.4c6.6,7,10.5,16,13.6,25
		c-16.3-9.4-33.5-17.1-49.2-27.6C593.9,819.2,588.2,813.8,582.6,808.9z"/>
	<path style="fill:#7AC8DB;" d="M694.7,764.9h9.4c-7.4,34.8-19.5,69.4-39.8,98.9c-3.2,4.6-6.5,10.6-10.6,14.4
		c-4.4-2.8-8.1-2.1-13-1.5C668.1,843.2,684.8,806.9,694.7,764.9z"/>
	<path style="fill:#5CB1CE;" d="M665.4,1071.3l4.2,1c-0.1,15.1,1,33.9-6.1,47.7c-3,9.4-8.9,18.3-14.3,26.4l27.2-4l-0.3,5l-56,29.9
		l-10.6,0.2c7.6-10.5,16.9-18.6,25.4-28.1c12.3-13.7,21.4-28.6,28.3-45.6C665.6,1093.1,665.3,1082.2,665.4,1071.3z"/>
	<path style="fill:#7AC8DB;" d="M676.3,1142.4c16.4-12.6,32.1-23.6,54-20.8c6.2,0.8,12.1,2.1,18,4.1c-4.5,12.3-10.8,21.9-23.2,27.4
		c-11.4,5.1-28.1,3.8-39.4-0.9l-9.6-4.9L676.3,1142.4z"/>
	<path style="fill:#F9B39F;" d="M640.7,876.7c4.9-0.6,8.6-1.3,13,1.5c0.5,4.5,1.9,8.1,5.5,11l5.3,3.7c-12.7,1.8-34.4,2.4-43.1,13.5
		l-0.3,0.4c-1.3,6.6-0.9,13.8-1,20.5c-28.9,26.9-70.5,43.3-110.2,41.8l-25.8-2.8c10.3-17.1,17.6-36.8,21.8-56.4l2.4,1.7
		c9.7,3.7,24.1,4.4,34.5,4.5c20.7,0.1,39-2.8,57.2-13.4C613.9,894.6,626.3,884.1,640.7,876.7z"/>
	<path style="fill:#090B28;" d="M370.5,856.6c-5.6,1-12.7-0.2-17.5-3.5c-2.6-1.8-23.6-39.2-24.3-43.8c-1.3-8.1,2.6-17.5,10.3-21.2
		c1.5-0.7,5.6-1.9,6.5-3.4c0.2-0.3-0.1-3.7-0.1-4.2c-0.1-5.2,0.1-9.8,3.5-14.1c4.2-5.3,13.6-9.4,20.4-7.9c3,0.7,5.5,3.4,8.7,2.8
		c11.8-2.4,22.4-7.5,32.6-13.7c3.5,5.9,6.2,11.2,6.7,18.2c0.7,9.9-1.3,16.8-7.8,24.2c13.5,14.2,23.3,31,22.8,51
		c-0.2,6.9-3,14.3-8.3,18.9c-3.6,3.2-8,4.3-12.4,5.8l-2.2,1.3c-14.2,0-26.4-9.1-37.2-17.5L370.5,856.6z"/>
	<path style="fill:#F9B39F;" d="M372.1,835.9c-3.9-1.4-8.4-2.6-11-6c-2.8-3.6-2.7-6.8-2.1-11.1c3-3.2,3.4-4.3,7.9-4.9
		c3.6,2.3,3.9,2.6,5.6,6.5c1,4.7,1.7,9.5,4.1,13.8L372.1,835.9z"/>
	<path style="fill:#F9B39F;" d="M374.6,794.5c13.5,2,22.7,1.8,34.9-4.5c13.5,14.2,23.3,31,22.8,51c-0.2,6.9-3,14.3-8.3,18.9
		c-3.6,3.2-8,4.3-12.4,5.8l-2.2,1.3c-14.2,0-26.4-9.1-37.2-17.5l-0.1-13.4l4.5-1.8c-2.4-4.2-3.1-9-4.1-13.8c1.4-2.5,3.1-3.5,5.5-4.8
		L374.6,794.5z"/>
	<path style="fill:#08090E;" d="M372.6,820.4c1.4-2.5,3.1-3.5,5.5-4.8c1.2,5.4,1.9,9.9,1.5,15.4l-2.8,3.1
		C374.3,829.9,373.6,825.1,372.6,820.4z"/>
	<path style="fill:#E45289;" d="M664.5,892.9c4.7,0.2,7.7,0.3,12.2-0.8c6.5-1.7,23.1-0.5,29.3,1.1c2.7,0.7,7,0,9.9,0
		c3.6,0.1,9.7,1.5,13.3,2.4c2.7,0.7,4.4,0.2,7.3,1.3c2.6,1,5.6,0.7,8.3,1.8c2.1,0.9,0.8,0.4,3,0.9c2.8,0.6,4.9,2.2,7.7,2.8l3.5,4.2
		l-11.1,145.9c-1.8,7.1-3.3,12-10.1,15.8c-17.1,9.7-49.6,6.2-68.3,4l-4.2-1c-8.3-0.3-19.7-2.8-26.5-7.6c-6.3-4.4-7.3-16.3-8.4-23.3
		c-2.6-6-2.7-16.4-3.5-23.1c-3.6-30-5.7-59.8-6.8-90c0.1-6.7-0.3-13.9,1-20.5l0.3-0.4C630.1,895.3,651.8,894.8,664.5,892.9z"/>
	<path style="fill:#FCFDFE;" d="M735.7,951.8c2,0.5,3.3,1.4,5,2.6c0.1,3.2,0,6.2-0.6,9.3c-0.2,1.1,3.5,3.4,4.3,5.3l-6,7.4
		c-2.8-1.1-2.9-0.9-4.2-3.8c-1.6-0.9-2.3-1.4-3.2-3.1l4.3-2.4C736.7,961.9,734.4,957.5,735.7,951.8z"/>
	<path style="fill:#FCFDFE;" d="M732.3,1009.5l3.2,3l-0.4,3.9l5.3,4c-1,1.2-4.2,3.8-4.6,4.9c-0.8,1.9-0.4,7.1-0.5,9.4l-2.7-0.4
		c-3.3-3.4-0.4-4.8-1.6-6.5c-1.5-2.1-2.5-1-3.7-4.3C728.6,1018.2,729.8,1014.2,732.3,1009.5z"/>
	<path style="fill:#FCFDFE;" d="M639.5,1000.6c3.4,1.5,3.4,2.5,5.1,5.7c-3,6.1,0,3.4,2,7.5c0.3,0.6,0.1,3.2,0.2,4.1l-3.2,2.1
		l-0.1,3.4l3,1.7l1.1,5.1c-2.5,0.4-3.9,0.6-6.3-0.6l-3.2-11c-2-1.8-3.2-2.9-4-5.5l3.9-2.4C637.8,1007,638.6,1004,639.5,1000.6z"/>
	<path style="fill:#FCFDFE;" d="M636.8,941.9c2.6,1,3,1.1,4.6,3.3c-1.5,3.8-2.1,6.3-1.7,10.4l4,1.7c1.1,3.9-0.5,7.4-0.5,11.5
		c0,1.6-1.5,2.7-2.4,4l3.4,0.9l1.7,3c-1.6,1.3-2.8,2-4.7,2.7l-3.6-3c-0.2-4.2-4.4-11.1-4.1-14c0.1-0.8,1.9-2.2,2.1-3.1
		c0.2-0.9-0.4-3.9-0.5-4.9C634.6,949.1,634.8,946.8,636.8,941.9z"/>
	<path style="fill:#FCFDFE;" d="M653,1015.2l67.7,4.3l0.3,3.2c-15.7,2-33.2,1-49-0.9c-6-0.7-12.8-1.2-18.5-3.4L653,1015.2z"/>
	<path style="fill:#FCFDFE;" d="M651.8,967.5c10.8-1.1,24.4,2.6,35.5,3.3c12.5,0.7,25.1-0.5,37.6,0.2l1.7,2.9
		c-17.2,3.7-37.8,1.9-55.2,0.2C663.8,973.5,656.9,973.6,651.8,967.5z"/>
	<path style="fill:#C43C96;" d="M630.5,1040.4c6.2,2.1,7.7,9.1,13.2,13.1c5.3,3.8,12.2,4,17.2,7.9l3.1,1.1l1.4,0.4
		c2.7,0.6,5.3-0.3,7.8,0.9c5.2,2.5,15,0,20.8,2.4c2.9,1.2,7.2,0.3,10.4,0.3c9-0.3,18-0.4,26.5-3.9c6.9-2.9,10.7-7.1,14.4-13.4
		l1.3,0.1l1.5,3.4c-1.8,7.1-3.3,12-10.1,15.8c-17.1,9.7-49.6,6.2-68.3,4l-4.2-1c-8.3-0.3-19.7-2.8-26.5-7.6
		C632.6,1059.3,631.6,1047.4,630.5,1040.4z"/>
	<path style="fill:#FCFDFE;" d="M664.5,892.9c4.7,0.2,7.7,0.3,12.2-0.8c6.5-1.7,23.1-0.5,29.3,1.1c2.7,0.7,7,0,9.9,0
		c3.6,0.1,9.7,1.5,13.3,2.4c2.7,0.7,4.4,0.2,7.3,1.3c2.6,1,5.6,0.7,8.3,1.8c2.1,0.9,0.8,0.4,3,0.9c2.8,0.6,4.9,2.2,7.7,2.8l3.5,4.2
		c-9.9,9.2-25,11.4-38,12.9c-28.3,3.4-76.3,5.2-99.7-12.9l0.3-0.4C630.1,895.3,651.8,894.8,664.5,892.9z"/>
	
		<linearGradient id="SVGID_00000137103877024939866380000013422414799365792682_" gradientUnits="userSpaceOnUse" x1="504.7747" y1="666.3842" x2="293.1604" y2="823.1981" gradientTransform="matrix(0.6667 0 0 -0.667 485.5919 1216.2878)">
		<stop  offset="0" style="stop-color:#F5851E"/>
		<stop  offset="1" style="stop-color:#FEA130"/>
	</linearGradient>
	<path style="fill:url(#SVGID_00000137103877024939866380000013422414799365792682_);" d="M637.3,759.8c-4.7-4.6-8.2-9.7-8.8-16.4
		c-0.4-3.8,0-7.6,1.5-11.1c4.7-10.7,11.8-21,17.5-31.2c11.2-19.8,22.3-39.8,33.6-59.6c6.5-11.3,12.2-26.2,20.6-35.9
		c8.6-10.1,19.2-12.9,31.9-13.8c13.5,1.3,24.3,4.8,33.3,15.6c3.7,4.4,7.1,9.9,8.4,15.6c1.6,6.9,1.2,14.6,4.2,21
		c4.4,9.3,11.3,18.3,16.9,27c9.3,14.5,18.3,29.3,27.6,43.8c5.8,9.1,18.1,22.2,17.1,33.4c-0.5,5-3.6,9-7.4,12
		c-12.3,9.5-106.7,2.1-129.6,4.8h-9.4C677,764.9,652.9,768.6,637.3,759.8z"/>
	<path style="fill:#FCFDFE;" d="M770.8,717.3c4.1,1.5,5.1,1.5,7.5,5.1l-1.6,6.3c-2.6-0.5-4.1-1-6.4-2.3
		C768.8,722.4,769.6,721.3,770.8,717.3z"/>
	<path style="fill:#FAA647;" d="M637.3,759.8c-4.7-4.6-8.2-9.7-8.8-16.4c-0.4-3.8,0-7.6,1.5-11.1c4.7-10.7,11.8-21,17.5-31.2
		c11.2-19.8,22.3-39.8,33.6-59.6c6.5-11.3,12.2-26.2,20.6-35.9c8.6-10.1,19.2-12.9,31.9-13.8c-0.8,3.5-1.4,6.8-1.7,10.4
		c0.9,0.7,1.8,1.5,2.9,1.8c7.2,2,12.1,4,16,10.7c2.7,4.6,3.1,12,1.7,17.1c-1.4,4.9-6.1,9.9-10.3,12.5c-1.6,10.5-11.9,72.3-18.4,77.4
		c-3,2.4-9.2,2.1-12.9,2.2c-20.9,0.2-48.8-5.3-63.5,12.8c-3.7,4.6-6.5,8.8-7.5,14.8C639.4,754.6,638.9,756.9,637.3,759.8z"/>
	<path style="fill:#FCFDFE;" d="M734.8,603.9c7.2,2,12.1,4,16,10.7c2.7,4.6,3.1,12,1.7,17.1c-1.4,4.9-6.1,9.9-10.3,12.5
		c-6.5,1.6-13.6,2.4-19.7-1.2c-5.4-3.2-9.2-9.3-10.4-15.4c-0.9-4.6,0.1-10.1,2.9-13.9C720.1,606.8,726.7,605,734.8,603.9z"/>
	<path style="fill:#595ECF;" d="M476.8,474.4l97.2,0.2c8.2,0.1,14,1.3,19.9,7.5c2.7,2.9,5,6.9,5.4,10.9c1.5,13.9,0.3,29.5,0.3,43.6
		c0.1,27.3,0.9,54.9-0.4,82.1l-2.2,3.4c-3.3,5.1-6.5,8-11.5,11.4l-55,0.6l-11.2,34.4l-6.6-7.6l-21.8-26.7c-20.2-0.3-40.4-0.1-60.7,0
		c-9.5,0-21.7,1.4-30.9-0.7c-6.4-1.5-13-6-16.4-11.7c-1.5-2.5-2.9-5.4-3.2-8.3c-2-17.4-0.3-36.5-0.4-54.1
		c-0.1-15.1-0.1-30.2-0.1-45.3c0-7.5-1-16.8,1-24c2.1-7.3,8.1-12,14.5-15.6L476.8,474.4z"/>
	<path style="fill:#FCFDFE;" d="M518.6,516.5l11.1,9.9l-63.3,64.1l-20.8-19.3l-10.7-10.6l10.4-11.2l21.1,19.3L518.6,516.5z"/>
	<path style="fill:#FAA647;" d="M372.3,849.3c10.8,8.5,23,17.5,37.2,17.5l4.2,16.6c6.3-0.6,12.5-0.9,18.7,0.6l6.2,0.8l4.9,0.7
		c17.7,3.6,36.4,9.8,52.1,19.1c3.4,1.6,7.5,3.1,10.4,5.4c-4.1,19.6-11.5,39.3-21.8,56.4l-25.4-6c-1.8,4.4-0.8,9.6-0.3,14.3
		c0.9,10.2,2.1,20.3,3.1,30.4c2.5,25.6,4.2,51.2,6.4,76.8c1.4,15.4,4.7,32.5,3.6,47.8c-0.2,2.7-1,4.5-3,6.4
		c-19.1,5.2-37.7,6.6-57.5,7.7c-31.1,1.8-59.6,1.3-90.4-3c-2.5-0.8-4.4-1.6-6.7-3l-3.1-52.3c-3.4-2-7.6-3.1-11.2-4.6
		c-22.2-9.4-47.3-22.9-56.6-46.6c-9.5-24.1,0-48.8,9.8-71l2.4-3.6c0.5-3.8,0.9-6.7,2.8-10c7.1-5.2,13.8-14.9,20.1-21.3
		c21.3-21.8,51-39.1,81.5-43.2c4.1-1.4,4.4-2,7-5.6c-0.2-7.6,2.1-15.7,3.7-23.2L372.3,849.3z"/>
	<path style="fill:#F48323;" d="M360.4,888.5c10.7,8.1,21.7,13.5,35.5,12.5c8-0.5,13.4-2.6,18.7-8.7c0.3-2.5,0.3-5.5,1.8-7.6
		l0.8-1.1c2,4.5,3.3,8.3,1.7,13.3c-0.7,2-1.9,3.5-3.3,5.1c-12.3,5.2-29.9,4-42.2-0.9c-4.5-1.8-10.2-4.6-12.2-9.2
		C360.7,890.6,360.5,889.9,360.4,888.5z"/>
	<path style="fill:#F9B39F;" d="M366.8,879.8l5.7,2.3c10.4,5,28.8,5.7,39.6,2l1.6-0.6c6.3-0.6,12.5-0.9,18.7,0.6l-15.2-0.4l-0.8,1.1
		c-1.5,2.2-1.5,5.1-1.8,7.6c-5.3,6.1-10.6,8.2-18.7,8.7c-13.8,0.9-24.8-4.4-35.5-12.5l-0.6-3.2C363.9,883.9,364.2,883.3,366.8,879.8
		z"/>
	<path style="fill:#F87878;" d="M372.3,849.3c10.8,8.5,23,17.5,37.2,17.5l4.2,16.6l-1.6,0.6c-10.8,3.7-29.2,3-39.6-2l-5.7-2.3
		c-0.2-7.6,2.1-15.7,3.7-23.2L372.3,849.3z"/>
	<path style="fill:#F48323;" d="M310.4,989.2c16.4-6.4,30.9-16,38.1-32.9c3.1-7.3,3.3-14.8,3.8-22.6c3.3,5,1.2,19.8,0,25.4
		c-4.2,19.7-19.3,32.5-24.4,51.4c-2.8,10.5-3.9,22.5-2.7,33.3c0.7,6,2.5,12.4,1.6,18.5l-12-9.8c-7.3-6.3-7.4-6.1-8.1-15.5l-1.6-46.8
		l-8.1,8.5c-13.4-10.7-34.7-23.2-41.8-38.9c0.5-3.8,0.9-6.7,2.8-10C275.1,963.6,290.9,979.1,310.4,989.2z"/>
	<path style="fill:#F16322;" d="M438.6,884.8l4.9,0.7c17.7,3.6,36.4,9.8,52.1,19.1c3.4,1.6,7.5,3.1,10.4,5.4
		c-4.1,19.6-11.5,39.3-21.8,56.4l-25.4-6c-3.4-3.5-3.2-15.3-4-20.4c-1.7-10.7-3.6-21.4-6.7-31.7
		C445.7,900.3,440.3,892.6,438.6,884.8z"/>
	<path style="fill:#F48323;" d="M443.5,885.5c17.7,3.6,36.4,9.8,52.1,19.1c-7.3,10.3-11.6,28.1-16.1,40.1L443.5,885.5z"/>
	<path style="fill:#F9B39F;" d="M252.9,963.4l2.4-3.6c7.1,15.8,28.4,28.2,41.8,38.9l8.1-8.5l1.6,46.8c0.7,9.4,0.8,9.2,8.1,15.5
		l12,9.8l24,19.1c8-2.5,19.5-5.4,27.6-1.2l2,1.6c-1.8,1.7-3.6,3.2-5.6,4.5c3.5,3.1,11.7,2.8,16.5,3.6c-8.3,6.9-14.8,15.3-26.4,14.2
		c-5.6-0.5-11.1-3.1-16.4-5c-12.2-4.4-24.9-10.3-37.4-13.6c-3.4-2-7.6-3.1-11.2-4.6c-22.2-9.4-47.3-22.9-56.6-46.6
		C233.7,1010.2,243.1,985.5,252.9,963.4z"/>
	<path style="fill:#FCFDFE;" d="M297.1,998.8l8.1-8.5l1.6,46.8l-0.9,6.8c-4.1-1.1-11.3-10.2-13.7-14.1c-4-6.5-3.9-14.3-2.1-21.6
		C291.2,1003.6,293.2,1001.2,297.1,998.8z"/>
</g>
</svg>
