<svg id="a" height="512" viewBox="0 0 64 64" width="512" xmlns="http://www.w3.org/2000/svg"><path d="m8 30c3.31 0 6-2.69 6-6s-2.69-6-6-6-6 2.69-6 6 2.69 6 6 6zm0-10c2.21 0 4 1.79 4 4s-1.79 4-4 4-4-1.79-4-4 1.79-4 4-4z"/><path d="m56 30c3.31 0 6-2.69 6-6s-2.69-6-6-6-6 2.69-6 6 2.69 6 6 6zm0-10c2.21 0 4 1.79 4 4s-1.79 4-4 4-4-1.79-4-4 1.79-4 4-4z"/><path d="m56 31c-3.86 0-7 3.14-7 7v2h-7c-1.65 0-3 1.35-3 3 0 .35.07.69.18 1h-14.37c.11-.31.18-.65.18-1 0-1.65-1.35-3-3-3h-7v-2c0-3.86-3.14-7-7-7s-7 3.14-7 7v9c0 3.16 2.11 5.84 5 6.71v6.29h-3.99v2h60v-2h-4v-6.29c2.89-.86 5-3.54 5-6.71v-9c0-3.86-3.14-7-7-7zm-14 15h.59l-.54.54c-.94.94-2.2 1.46-3.54 1.46h-13.03c-1.34 0-2.59-.52-3.54-1.46l-.54-.54h20.59zm-34 14v-6h5c.55 0 1 .45 1 1v4c0 .35.07.69.18 1zm10-1c0 .55-.45 1-1 1s-1-.45-1-1v-4c0-1.65-1.35-3-3-3h-5c-2.76 0-5-2.24-5-5v-9c0-2.76 2.24-5 5-5s5 2.24 5 5v3c0 .55.45 1 1 1h8c.55 0 1 .45 1 1s-.45 1-1 1h-11v-7h-2v8c0 .55.45 1 1 1h.76l4.47 2.24c1.71.85 2.76 2.57 2.76 4.47v6.29zm9.1 1h-7.29c.11-.31.18-.65.18-1v-6.29c0-2.67-1.48-5.07-3.87-6.26l-.89-.45h3.35l1.95 1.95c1.32 1.32 3.08 2.05 4.95 2.05h5.51v6.1c-1.96.4-3.5 1.94-3.9 3.9zm2.08 0c.41-1.16 1.51-2 2.82-2s2.4.84 2.82 2h-5.63zm7.71 0c-.4-1.96-1.94-3.5-3.9-3.9v-6.1h5.51c1.87 0 3.63-.73 4.95-2.05l1.95-1.95h3.35l-.89.45c-2.39 1.19-3.87 3.59-3.87 6.26v6.29c0 .35.07.69.18 1h-7.29zm19.1 0h-6.18c.11-.31.18-.65.18-1v-4c0-.55.45-1 1-1h5zm5-13c0 2.76-2.24 5-5 5h-5c-1.65 0-3 1.35-3 3v4c0 .55-.45 1-1 1s-1-.45-1-1v-6.29c0-1.91 1.06-3.62 2.76-4.47l4.47-2.24h.76c.55 0 1-.45 1-1v-8h-2v7h-11c-.55 0-1-.45-1-1s.45-1 1-1h8c.55 0 1-.45 1-1v-3c0-2.76 2.24-5 5-5s5 2.24 5 5v9z"/><path d="m35 24c1.14 0 2.27-.18 3.38-.54l8.33 2.5c.1.03.19.04.29.04.3 0 .59-.14.78-.38.25-.32.29-.76.09-1.12l-3.39-5.93c1-1.69 1.52-3.6 1.52-5.58 0-6.07-4.93-11-11-11s-11 4.93-11 11 4.93 11 11 11zm0-20c4.96 0 9 4.04 9 9 0 1.79-.52 3.51-1.52 5-.21.32-.23.72-.04 1.05l2.44 4.27-6.24-1.87c-.09-.03-.19-.04-.29-.04-.11 0-.23.02-.34.06-.99.35-2.01.53-3.02.53-4.96 0-9-4.04-9-9s4.04-9 9-9z"/><path d="m30 12h2v2h-2z"/><path d="m34 12h2v2h-2z"/><path d="m38 12h2v2h-2z"/><path d="m16 31h2v2h-2z"/><path d="m20 31h2v2h-2z"/><path d="m24 31h2v2h-2z"/></svg>