<svg width="119" height="116" viewBox="0 0 119 116" fill="none" xmlns="http://www.w3.org/2000/svg">
<g clip-path="url(#clip0_177_60687)">
<path d="M95.5723 83.8258H93.6405V44.6021C93.6405 41.7292 91.3026 39.3921 88.4291 39.3921H85.8645C86.1449 38.8054 86.2995 38.1547 86.2995 37.4785C86.2995 35.8321 85.3959 34.3304 83.9412 33.5593L69.665 25.9968C69.1322 25.7144 68.4713 25.9177 68.1892 26.4506C67.907 26.9834 68.1102 27.6441 68.643 27.9264L82.9189 35.4887C83.6684 35.886 84.1159 36.6298 84.1159 37.4785C84.1159 38.3272 83.6684 39.0709 82.9192 39.468L69.0415 46.8197L60.2187 36.7587C59.8212 36.3052 59.1313 36.2601 58.678 36.6576C58.2247 37.0552 58.1794 37.7451 58.577 38.1984L67.0586 47.8703L61.8075 50.652C60.2987 51.4502 58.4972 51.4502 56.9888 50.6523L35.8765 39.4683C35.1271 39.0711 34.6795 38.3272 34.6795 37.4787C34.6795 36.6301 35.127 35.8863 35.8763 35.489L56.9881 24.305C58.4969 23.5067 60.2984 23.5067 61.8066 24.3047L64.8287 25.906C65.3615 26.1884 66.0224 25.9853 66.3046 25.4525C66.5869 24.9198 66.3838 24.2589 65.8512 23.9766L62.8285 22.375C60.6802 21.2383 58.1149 21.2383 55.9664 22.3752L34.8539 33.5596C33.3995 34.3305 32.4961 35.8322 32.4961 37.4787C32.4961 38.1548 32.6507 38.8054 32.931 39.3922H30.3664C27.4928 39.3922 25.1549 41.7294 25.1549 44.6022V83.8259H23.2232C22.6202 83.8259 22.1314 84.3147 22.1314 84.9177V87.3375C22.1314 91.2419 25.3078 94.4184 29.2121 94.4184H89.5832C93.4875 94.4184 96.664 91.2421 96.664 87.3375V84.9177C96.664 84.3146 96.1752 83.8258 95.5723 83.8258ZM68.7894 64.8846L70.213 67.3503C70.5072 67.8599 70.3109 68.3099 70.213 68.4796C70.115 68.6493 69.8234 69.0443 69.2349 69.0443H68.3438C67.7553 69.0443 67.4638 68.6493 67.3657 68.4796C67.2676 68.3097 67.0715 67.8599 67.3657 67.3503L68.7894 64.8846ZM69.8812 48.8461L74.3989 46.4529V50.7884C74.3989 53.9022 72.6392 56.6937 69.8812 58.0193V48.8461ZM59.3976 53.4346C60.576 53.4346 61.7547 53.1503 62.829 52.582L67.6976 50.0029V58.864C61.7324 60.84 55.1326 60.6181 49.3102 58.1982C46.3252 56.9576 44.3966 54.0491 44.3966 50.7886V46.4527L55.967 52.5822C57.0411 53.1506 58.2192 53.4346 59.3976 53.4346ZM27.3385 44.6021C27.3385 42.9332 28.6968 41.5756 30.3664 41.5756H35.1902L40.6859 44.4871H31.3417C30.7387 44.4871 30.2499 44.9759 30.2499 45.5788V79.8231C30.2499 80.4261 30.7387 80.9149 31.3417 80.9149H37.1049C37.7078 80.9149 38.1967 80.4261 38.1967 79.8231C38.1967 79.2202 37.7078 78.7313 37.1049 78.7313H32.4335V46.6706H42.213V50.7884C42.213 54.9342 44.6698 58.634 48.4723 60.2145C51.9439 61.6574 55.6708 62.3788 59.3979 62.3788C62.2007 62.3788 65.0034 61.9705 67.6978 61.1544V62.4084L65.4749 66.2585C64.876 67.2957 64.876 68.5342 65.4749 69.5714C66.0738 70.6086 67.1462 71.2278 68.344 71.2278H69.235C70.4328 71.2278 71.5052 70.6086 72.1041 69.5714C72.703 68.5342 72.703 67.2957 72.1041 66.2585L69.8812 62.4084V60.3916C70.0288 60.3333 70.1766 60.2755 70.3233 60.2145C74.1256 58.634 76.5824 54.9342 76.5824 50.7884V46.6706H86.3619V78.7313H41.472C40.8691 78.7313 40.3802 79.2202 40.3802 79.8231C40.3802 80.4261 40.8691 80.9149 41.472 80.9149H87.4537C88.0567 80.9149 88.5455 80.4261 88.5455 79.8231V45.5788C88.5455 44.9759 88.0567 44.4871 87.4537 44.4871H78.1093L83.6051 41.5756H88.4289C90.0985 41.5756 91.4568 42.9332 91.4568 44.6021V83.8258H27.3385V44.6021ZM66.1493 86.0099C65.7459 87.184 64.6304 88.0302 63.3213 88.0302H55.4743C54.165 88.0302 53.0496 87.184 52.6461 86.0099H66.1493ZM94.4805 87.3374C94.4805 90.0377 92.2835 92.2347 89.5832 92.2347H29.2121C26.5118 92.2347 24.315 90.0377 24.315 87.3374V86.0093H26.2355C26.2393 86.0093 26.2429 86.0099 26.2467 86.0099H50.3937C50.8487 88.4005 52.9531 90.2137 55.4743 90.2137H63.3213C65.8423 90.2137 67.9467 88.4004 68.4018 86.0099H92.5487C92.5525 86.0099 92.5562 86.0093 92.5599 86.0093H94.4805V87.3374Z" fill="white"/>
<path d="M59.7278 74.728C59.7278 74.1251 59.239 73.6362 58.6361 73.6362H36.7792C36.1763 73.6362 35.6874 74.1251 35.6874 74.728C35.6874 75.331 36.1763 75.8198 36.7792 75.8198H58.6362C59.239 75.8198 59.7278 75.331 59.7278 74.728Z" fill="white"/>
<path d="M36.7792 71.228H51.3931C51.9961 71.228 52.4849 70.7392 52.4849 70.1362C52.4849 69.5333 51.9961 69.0444 51.3931 69.0444H36.7792C36.1763 69.0444 35.6874 69.5333 35.6874 70.1362C35.6874 70.7392 36.1761 71.228 36.7792 71.228Z" fill="white"/>
</g>
<path fill-rule="evenodd" clip-rule="evenodd" d="M48.6259 0.00100435C21.2954 5.05949 0.596436 29.02 0.596436 57.8151C0.596436 86.6101 21.2954 110.571 48.6259 115.629V113.522C22.4457 108.491 2.66679 85.4629 2.66679 57.8151C2.66679 30.1673 22.4457 7.13906 48.6259 2.10823V0.00100435ZM70.1575 113.523C96.3404 108.494 116.122 85.4648 116.122 57.8151C116.122 30.1654 96.3404 7.13588 70.1575 2.10719V0C97.4907 5.05632 118.192 29.0181 118.192 57.8151C118.192 86.6121 97.4907 110.574 70.1575 115.63V113.523Z" fill="white"/>
<defs>
<clipPath id="clip0_177_60687">
<rect width="74.5327" height="74.5327" fill="white" transform="translate(22.1314 20.7041)"/>
</clipPath>
</defs>
</svg>
