<svg width="119" height="116" viewBox="0 0 119 116" fill="none" xmlns="http://www.w3.org/2000/svg">
<g clip-path="url(#clip0_177_60726)">
<path d="M94.8515 84.8402C96.2322 82.8887 96.9373 80.5385 96.8491 78.1206C96.7485 75.3474 95.6112 72.7379 93.6471 70.7744L88.7762 65.9034C89.7793 62.2158 90.0744 58.4173 89.6507 54.6006C89.5842 54.0018 89.0446 53.5708 88.4452 53.6362C87.8459 53.7027 87.4143 54.2424 87.4808 54.8417C87.8271 57.9607 87.6548 61.0666 86.9736 64.1003L85.411 62.5377C84.6098 61.7364 83.5436 61.2952 82.4097 61.2952C81.273 61.2952 80.2068 61.7364 79.4073 62.5382C77.7537 64.1935 77.7537 66.8866 79.4078 68.5408L83.51 72.6412C82.3642 74.5024 80.9955 76.2362 79.4312 77.8016C72.6052 84.6276 62.7996 87.4349 53.4546 85.3492L55.0195 83.7843C55.8207 82.9825 56.262 81.9174 56.262 80.7841C56.262 79.648 55.8201 78.5818 55.0189 77.7823C53.3648 76.1287 50.6722 76.1287 49.0158 77.7823L44.9085 81.889C43.0354 80.7386 41.2965 79.3676 39.7322 77.8016C38.0849 76.1543 36.6507 74.3147 35.4668 72.3359C35.4555 72.3126 35.4469 72.2881 35.4333 72.2659C34.971 71.4823 34.5491 70.6817 34.1772 69.8816C33.6387 68.7347 33.1735 67.536 32.7965 66.3197C32.7795 66.2651 32.7573 66.2133 32.7328 66.1633C31.6683 62.6736 31.2947 59.0565 31.6245 55.4086C31.6791 54.8082 31.2362 54.2776 30.6357 54.223C30.0369 54.1679 29.5047 54.6114 29.4501 55.2119C29.1083 58.9831 29.4654 62.7247 30.5083 66.3441L25.8068 71.0456C23.853 72.9989 22.7162 75.5936 22.6054 78.3509C22.5087 80.7546 23.1967 83.0951 24.5558 85.0444L24.4466 85.1535C23.6255 85.9747 23.1734 87.0659 23.1734 88.2265C23.1734 89.3871 23.6255 90.4783 24.4466 91.2994L26.471 93.3237C27.3177 94.171 28.4305 94.5946 29.5433 94.5946C30.6562 94.5946 31.7684 94.171 32.6157 93.3237L32.7135 93.2259C34.5667 94.5383 36.7611 95.2327 39.0163 95.2327C39.6867 95.2327 40.3628 95.1712 41.0361 95.0467C41.6292 94.937 42.021 94.3672 41.9112 93.7747C41.8015 93.1816 41.2306 92.7909 40.6392 92.8995C38.4101 93.3118 36.1543 92.8569 34.2881 91.6519L36.5876 89.3524C37.1517 88.7883 37.5412 88.0968 37.73 87.3422C39.3427 88.4619 41.5797 88.3055 43.0155 86.8691L45.8439 84.0413C45.8456 84.0396 45.8473 84.0379 45.8496 84.0356L50.5591 79.3267C51.3637 78.5232 52.6722 78.5232 53.4762 79.3273C53.8646 79.7145 54.0784 80.232 54.0784 80.7841C54.0784 81.334 53.864 81.8515 53.4751 82.2404L50.5636 85.1518C50.5591 85.1558 50.5557 85.1598 50.5517 85.1638L45.2383 90.4766C44.9495 90.7654 44.6396 91.0355 44.3166 91.2801C43.8355 91.6434 43.7405 92.3281 44.1045 92.8091C44.3188 93.0929 44.6452 93.2424 44.9756 93.2424C45.2054 93.2424 45.4368 93.1702 45.6335 93.0212C46.0361 92.717 46.4228 92.3804 46.7822 92.0204L51.6514 87.1523C54.2712 87.862 56.9347 88.2088 59.5788 88.2088C62.4203 88.2088 65.2374 87.8062 67.9486 87.0261L72.67 91.7492C74.6239 93.7025 77.2186 94.8392 79.9765 94.9495C80.1249 94.9557 80.2728 94.9586 80.4206 94.9586C82.6673 94.9586 84.8418 94.2734 86.6705 92.9985L86.7808 93.1088C87.6275 93.9555 88.7404 94.3791 89.8532 94.3791C90.966 94.3791 92.0783 93.9555 92.9255 93.1088L94.9499 91.0844C95.771 90.2633 96.2231 89.1721 96.2231 88.0115C96.2231 86.8509 95.771 85.7597 94.9499 84.9392L94.8515 84.8402ZM24.7867 78.4391C24.8754 76.231 25.7858 74.1538 27.3501 72.5895L31.2777 68.6625C31.7951 70.0323 32.4127 71.3646 33.1246 72.6452L30.957 74.8123C30.1751 75.593 29.7446 76.6325 29.7446 77.7385C29.7446 78.5704 29.988 79.3648 30.4418 80.0398C29.6997 80.2229 28.9969 80.6039 28.418 81.1822L26.1298 83.4704C25.187 81.9794 24.7144 80.2308 24.7867 78.4391ZM35.0438 87.8085L31.8702 90.9815C31.8702 90.9821 31.8696 90.9821 31.8691 90.9827L31.0718 91.7799C30.2291 92.6226 28.8575 92.6226 28.0143 91.7799L25.9899 89.7555C25.5816 89.3473 25.3564 88.8042 25.3564 88.2265C25.3564 87.6493 25.5816 87.1062 25.9899 86.698L26.7706 85.9172C26.7735 85.9144 26.7763 85.9121 26.7786 85.9093L29.9618 82.7266C30.3832 82.3052 30.9365 82.0943 31.4903 82.0943C32.0414 82.0943 32.5918 82.3035 33.0126 82.7209L34.9465 84.6537L35.0438 84.7509C35.4521 85.1592 35.6767 85.7023 35.6767 86.2794C35.6772 86.8572 35.4521 87.4002 35.0438 87.8085ZM41.4717 85.3253C41.1026 85.6949 40.6113 85.8985 40.0893 85.8985C39.5673 85.8985 39.076 85.6949 38.7069 85.3253L36.5984 83.2173C36.5984 83.2173 36.5876 83.2071 36.5876 83.2065L35.6448 82.2637L34.5633 81.1827C34.561 81.1805 34.5582 81.1782 34.5559 81.1759L32.5008 79.1214C32.1312 78.7524 31.9276 78.2611 31.9276 77.7385C31.9276 77.2165 32.1312 76.7258 32.5008 76.3567L34.2926 74.5649C35.2866 76.0735 36.4176 77.4968 37.672 78.8132L37.1108 79.3745C36.6843 79.801 36.6843 80.4918 37.1108 80.9183C37.324 81.1316 37.6038 81.2379 37.883 81.2379C38.1622 81.2379 38.442 81.1316 38.6552 80.9183L39.2346 80.3389C40.5095 81.4995 41.8788 82.5475 43.326 83.4715L41.4717 85.3253ZM80.9523 64.0809C81.3395 63.6926 81.857 63.4788 82.4091 63.4788C82.9607 63.4788 83.4782 63.6931 83.8671 64.0815L92.1033 72.3182C95.0386 75.2535 95.4668 79.8584 93.2781 83.2668L90.9785 80.9672C90.4031 80.3923 89.7053 80.0131 88.9684 79.8282C89.4489 79.1402 89.7087 78.3231 89.7087 77.4661C89.7087 76.3607 89.2783 75.3218 88.4964 74.5399L80.9517 66.9969C80.1482 66.1934 80.1482 64.8856 80.9523 64.0809ZM80.4308 79.876L80.9995 80.4446C81.2127 80.6573 81.4925 80.7642 81.7717 80.7642C82.0509 80.7642 82.3307 80.6573 82.5439 80.4441C82.9698 80.0176 82.9698 79.3267 82.5433 78.9002L81.9554 78.3123C83.1188 77.0351 84.1679 75.667 85.0914 74.2232L86.9526 76.0838C87.3222 76.4528 87.5252 76.9435 87.5252 77.4661C87.5252 77.9881 87.3222 78.4789 86.9526 78.8485L84.8389 80.9621C84.8372 80.9638 84.8349 80.9655 84.8332 80.9672L82.8089 82.9916C82.8066 82.9933 82.8049 82.9956 82.8032 82.9973L80.747 85.054C79.9845 85.816 78.7442 85.816 77.9811 85.054L76.1768 83.2492C77.6786 82.2637 79.1036 81.1384 80.4308 79.876ZM80.0635 92.7682C77.8555 92.6795 75.7782 91.7691 74.2139 90.2053L70.2749 86.2658C71.0062 85.9906 71.7278 85.6869 72.4335 85.3565C73.0465 85.0705 73.6595 84.7578 74.2628 84.424L76.4373 86.5979C77.856 88.0161 80.0555 88.1872 81.6625 87.1131C81.8502 87.8728 82.2408 88.5699 82.8083 89.1374L85.0954 91.4239C83.6038 92.3667 81.8541 92.8393 80.0635 92.7682ZM93.406 89.54L91.3811 91.5644C90.539 92.4071 89.1674 92.4077 88.3241 91.5644L84.3527 87.593C83.9439 87.1847 83.7193 86.6417 83.7193 86.0645C83.7193 85.4885 83.9433 84.9466 84.3499 84.5388L86.3799 82.5088C86.8013 82.0892 87.3534 81.8793 87.9056 81.8793C88.4589 81.8793 89.0127 82.0897 89.4341 82.5111L92.6264 85.7034C92.627 85.7034 92.6276 85.704 92.6276 85.7046L93.406 86.4825C93.8149 86.8907 94.0395 87.4338 94.0395 88.0115C94.0395 88.5893 93.8143 89.1317 93.406 89.54Z" fill="white"/>
<path d="M33.7705 53.3907C34.5717 54.1919 35.6373 54.6332 36.7706 54.6332C37.9074 54.6332 38.9735 54.1919 39.7731 53.3901C41.4266 51.7348 41.4267 49.0418 39.7725 47.3876L35.6521 43.2678C36.7189 41.5335 37.9807 39.9117 39.4148 38.4315C39.4455 38.4065 39.4757 38.3804 39.5047 38.3514C39.5405 38.3155 39.5723 38.2769 39.6025 38.2371C39.6451 38.1939 39.6883 38.1501 39.7315 38.1063C41.3613 36.4771 43.1769 35.059 45.1291 33.8853C45.1848 33.8637 45.2394 33.8375 45.2923 33.8062C46.069 33.3474 46.8691 32.9249 47.6731 32.5501C48.8241 32.0111 50.0227 31.5465 51.2368 31.17C51.3005 31.1501 51.3608 31.1234 51.4188 31.0927C56.0952 29.6757 61.0088 29.4999 65.7507 30.5679L64.1682 32.1504C63.3658 32.9522 62.924 34.0178 62.924 35.1505C62.924 36.2855 63.3664 37.3517 64.1682 38.1518C65.8229 39.8065 68.5154 39.8065 70.1696 38.1518L74.2848 34.0371C76.1454 35.1829 77.8735 36.5482 79.4299 38.1063C81.1858 39.8634 82.6978 41.8337 83.9244 43.9621C84.4037 44.7957 85.7685 47.6787 86.3598 49.4967C86.3752 49.5774 86.4002 49.6559 86.4338 49.7315C86.4343 49.7332 86.4349 49.7344 86.4349 49.7355C86.6544 50.4605 87.0888 50.3832 87.4317 50.3832H87.4329C87.7121 50.3826 87.9907 50.2763 88.2039 50.0636L93.3802 44.889C95.3341 42.9352 96.4708 40.341 96.5811 37.5831C96.6778 35.1801 95.9897 32.839 94.6307 30.8897L94.7399 30.7805C95.5604 29.96 96.0125 28.8688 96.0125 27.7076C96.0125 26.547 95.5604 25.4558 94.7399 24.6352L92.7155 22.6109C91.021 20.9169 88.2648 20.9169 86.5702 22.6109L86.4724 22.7087C84.5209 21.328 82.1724 20.6224 79.7511 20.7116C76.9773 20.8129 74.3678 21.9501 72.4038 23.9142L67.5521 28.7658C62.1802 27.3016 56.5575 27.3408 51.2072 28.8784L46.5097 24.1798C44.5559 22.2265 41.9612 21.0898 39.2033 20.9795C36.8025 20.8822 34.4591 21.5709 32.5093 22.9299L32.4001 22.8202C30.7056 21.1262 27.9494 21.1267 26.2548 22.8202L24.231 24.8445C23.4099 25.6651 22.9579 26.7563 22.9579 27.9169C22.9579 29.078 23.4099 30.1692 24.231 30.9898L24.3294 31.0882C22.9482 33.0403 22.2437 35.3905 22.3312 37.8083C22.4319 40.5816 23.5691 43.1905 25.5332 45.1546L33.7705 53.3907ZM82.5534 32.682C82.5682 32.6968 82.583 32.7128 82.5983 32.7275L86.6851 36.8126C87.0547 37.1822 87.2583 37.6736 87.2583 38.1956C87.2583 38.7181 87.0553 39.2089 86.6851 39.5779L84.8899 41.3731C83.8982 39.8639 82.7683 38.4401 81.5145 37.1208L82.0757 36.5602C82.5022 36.1337 82.5022 35.4422 82.0757 35.0163C81.6492 34.5898 80.9578 34.5898 80.5319 35.0163L79.9547 35.5935C78.6804 34.4306 77.3128 33.3809 75.8673 32.4557L77.7143 30.6088C78.4768 29.8462 79.7182 29.8462 80.4807 30.6088L82.5534 32.682ZM94.3998 37.4956C94.3117 39.7036 93.4013 41.7803 91.837 43.3446L87.8804 47.2995C87.3197 45.813 86.4969 44.1458 86.0505 43.3008L88.2284 41.1223C89.0108 40.341 89.4413 39.3021 89.4413 38.1961C89.4413 37.3642 89.1979 36.5704 88.7441 35.8949C89.4862 35.7118 90.1896 35.3308 90.7685 34.7519L93.0561 32.4643C93.9995 33.9558 94.472 35.7038 94.3998 37.4956ZM89.6432 23.5224C90.197 23.5224 90.7503 23.7334 91.1717 24.1547L93.1966 26.1791C93.6049 26.5874 93.8295 27.1299 93.8295 27.7076C93.8295 28.2853 93.6049 28.8284 93.1966 29.2367L92.4022 30.0311C92.3999 30.0333 92.3971 30.0356 92.3954 30.0379L89.2246 33.208C88.3819 34.0508 87.0104 34.0508 86.1676 33.208L84.1433 31.1837C83.3 30.3404 83.3 28.9688 84.1427 28.1261L88.1147 24.1547C88.536 23.7328 89.0893 23.5224 89.6432 23.5224ZM73.9482 25.4575C76.8841 22.5216 81.4895 22.0934 84.899 24.2827L82.5989 26.5823C82.0234 27.1577 81.6436 27.856 81.4593 28.5935C79.8467 27.4722 77.6074 27.628 76.1704 29.0649L68.6269 36.6079C67.8234 37.4114 66.5161 37.4114 65.7115 36.6074C65.3219 36.219 65.1081 35.7015 65.1081 35.1505C65.1081 34.6012 65.3225 34.0837 65.7126 33.6937L73.9482 25.4575ZM32.2289 39.8446C31.8593 39.4756 31.6563 38.9848 31.6563 38.4623C31.6563 37.9402 31.8593 37.4495 32.2289 37.0799L38.435 30.8749C39.1976 30.1124 40.4378 30.1124 41.2003 30.8749L42.9836 32.6576C41.475 33.6499 40.0505 34.7803 38.7319 36.0347L38.1809 35.4837C37.7544 35.0578 37.0635 35.0578 36.637 35.4837C36.2111 35.9102 36.2111 36.6017 36.637 37.0281L37.2045 37.5951C36.0416 38.8705 34.9937 40.241 34.0702 41.6859L32.2289 39.8446ZM39.1163 23.1608C41.3243 23.2489 43.4021 24.1593 44.9664 25.7236L48.8889 29.6467C47.5173 30.1641 46.1844 30.7817 44.905 31.4913L42.7442 29.3305C41.326 27.9123 39.1254 27.7411 37.5184 28.8164C37.3308 28.0562 36.9401 27.359 36.372 26.7915L34.0844 24.5045C35.5765 23.5611 37.3256 23.0886 39.1163 23.1608ZM25.7749 26.3884L27.7992 24.364C28.2206 23.9426 28.7739 23.7322 29.3277 23.7322C29.8816 23.7322 30.4349 23.9426 30.8568 24.364L31.6478 25.1556C31.6518 25.159 31.6557 25.1635 31.6597 25.1669L34.8287 28.3354C35.237 28.7442 35.4616 29.2867 35.4616 29.8644C35.4616 30.4422 35.237 30.9847 34.8287 31.3929L32.8038 33.4173C31.9611 34.26 30.5896 34.2606 29.7463 33.4173L25.7749 29.4459C25.366 29.0376 25.1414 28.4946 25.1414 27.9169C25.1414 27.3397 25.366 26.7966 25.7749 26.3884ZM25.9034 32.6621L28.2024 34.9611C28.7779 35.5366 29.4762 35.9159 30.2131 36.1007C29.7326 36.7888 29.4727 37.6053 29.4727 38.4623C29.4727 39.5677 29.9038 40.6072 30.6851 41.3885L38.2286 48.9315C39.0321 49.7349 39.0321 51.0428 38.2281 51.8474C37.8403 52.2358 37.3228 52.4496 36.7706 52.4496C36.2208 52.4496 35.7033 52.2358 35.3144 51.8469L27.0771 43.6101C24.1412 40.6748 23.7136 36.0706 25.9034 32.6621Z" fill="white"/>
<path d="M44.8812 61.8139L39.5229 66.5632C38.6774 67.3127 38.5989 68.6103 39.3484 69.4559L42.3007 72.7864C42.3041 72.7898 42.307 72.7938 42.3098 72.7977C42.3127 72.8006 42.3149 72.8029 42.3178 72.8051L45.1496 75.9998C45.5533 76.4558 46.1174 76.6884 46.6838 76.6884C47.1671 76.6884 47.6522 76.5189 48.0417 76.1738L53.4 71.4239C54.2461 70.675 54.324 69.3768 53.5745 68.5313L47.7739 61.9879C47.0244 61.1424 45.7268 61.0645 44.8812 61.8139ZM46.2289 63.5369L48.334 65.911L43.2094 70.5204L41.0713 68.1082L46.2289 63.5369ZM46.694 74.4508L44.6583 72.1541L49.7823 67.5452L51.8516 69.8789L46.694 74.4508Z" fill="white"/>
<path d="M71.5544 40.1424L63.8681 46.9547C63.4251 47.3476 63.1618 47.8895 63.126 48.4803C63.0907 49.0711 63.2869 49.6403 63.6798 50.0833L69.2593 56.377C69.6517 56.82 70.1936 57.0833 70.7844 57.1191C70.8299 57.1219 70.8754 57.1231 70.9203 57.1231C71.4622 57.1231 71.9791 56.9275 72.3874 56.5652L80.0737 49.7524C80.5167 49.36 80.7799 48.8181 80.8158 48.2273C80.8516 47.6359 80.6548 47.0667 80.2619 46.6237L74.683 40.3306C73.8721 39.4162 72.4687 39.3321 71.5544 40.1424ZM78.6362 48.0959C78.6356 48.1096 78.6294 48.1153 78.6254 48.1181V48.1187L70.9391 54.931C70.9351 54.9344 70.9306 54.9412 70.9158 54.9395C70.9021 54.9389 70.8964 54.9321 70.893 54.9287L65.3141 48.635C65.3107 48.6316 65.305 48.6248 65.3056 48.6117C65.3067 48.598 65.313 48.5923 65.3164 48.5889L73.0027 41.7766C73.0089 41.771 73.0169 41.7681 73.0243 41.7681C73.034 41.7681 73.0425 41.7715 73.0487 41.7789L78.6282 48.0726C78.6316 48.076 78.6373 48.0828 78.6362 48.0959Z" fill="white"/>
</g>
<path fill-rule="evenodd" clip-rule="evenodd" d="M48.8184 0.00100435C21.4879 5.05949 0.78894 29.02 0.78894 57.8151C0.78894 86.6101 21.4879 110.571 48.8184 115.629V113.522C22.6382 108.491 2.85929 85.4629 2.85929 57.8151C2.85929 30.1673 22.6382 7.13906 48.8184 2.10823V0.00100435ZM70.3501 113.523C96.5329 108.494 116.315 85.4648 116.315 57.8151C116.315 30.1654 96.5329 7.13588 70.3501 2.10719V0C97.6832 5.05632 118.385 29.0181 118.385 57.8151C118.385 86.6121 97.6832 110.574 70.3501 115.63V113.523Z" fill="white"/>
<defs>
<clipPath id="clip0_177_60726">
<rect width="74.5327" height="74.5327" fill="white" transform="translate(22.3239 20.7041)"/>
</clipPath>
</defs>
</svg>
