<svg width="118" height="116" viewBox="0 0 118 116" fill="none" xmlns="http://www.w3.org/2000/svg">
<g clip-path="url(#clip0_177_60700)">
<path fill-rule="evenodd" clip-rule="evenodd" d="M54.4765 79.7425V70.6008C54.4765 69.952 53.9486 69.4241 53.2998 69.4241C52.6501 69.4241 52.1229 69.952 52.1229 70.6008V79.7425C52.1229 80.3922 52.6501 80.9193 53.2998 80.9193C53.9484 80.9194 54.4765 80.3922 54.4765 79.7425ZM45.8699 70.601V79.7426C45.8699 80.3923 46.3972 80.9194 47.0467 80.9194C47.6963 80.9194 48.2235 80.3922 48.2235 79.7426V70.601C48.2235 69.9522 47.6963 69.4242 47.0467 69.4242C46.3972 69.4241 45.8699 69.952 45.8699 70.601Z" fill="white"/>
<path fill-rule="evenodd" clip-rule="evenodd" d="M42.476 80.9195H57.8697C58.5194 80.9195 59.0465 80.3922 59.0465 79.7427C59.0465 79.093 58.5193 78.5659 57.8697 78.5659H42.476C41.8264 78.5659 41.2992 79.0931 41.2992 79.7427C41.2991 80.3922 41.8263 80.9195 42.476 80.9195Z" fill="white"/>
<path fill-rule="evenodd" clip-rule="evenodd" d="M70.2139 69.4243H25.4018C24.7372 69.4243 24.1983 68.8861 24.1983 68.2215V32.1862C24.1983 31.5216 24.7373 30.9834 25.4018 30.9834H36.9841C37.6337 30.9834 38.1609 30.4562 38.1609 29.8067C38.1609 29.1571 37.6337 28.6299 36.9841 28.6299C36.9841 28.6299 29.388 28.6299 25.4018 28.6299C23.4372 28.6298 21.8445 30.2216 21.8445 32.1862V68.2215C21.8445 70.1861 23.4371 71.7779 25.4016 71.7779H70.2138C70.8635 71.7779 71.3906 71.2507 71.3906 70.6012C71.3907 69.9522 70.8635 69.4243 70.2139 69.4243ZM76.1475 46.2862V57.0747C76.1475 57.7235 76.6747 58.2515 77.3243 58.2515C77.974 58.2515 78.5011 57.7235 78.5011 57.0747V46.2862C78.5011 45.6366 77.9738 45.1095 77.3243 45.1095C76.6747 45.1093 76.1475 45.6366 76.1475 46.2862Z" fill="white"/>
<path fill-rule="evenodd" clip-rule="evenodd" d="M69.9958 59.9678H23.0214C22.3717 59.9678 21.8446 60.4943 21.8446 61.1445V68.2213C21.8446 69.1644 22.2196 70.0689 22.8865 70.7365C23.5534 71.4034 24.4579 71.7777 25.4018 71.7777H70.2139C70.8636 71.7777 71.3907 71.2505 71.3907 70.6009C71.3907 69.9521 70.8635 69.4241 70.2139 69.4241H25.4018C25.0824 69.4241 24.7764 69.2979 24.5505 69.0719C24.3253 68.8467 24.1983 68.5408 24.1983 68.2215V62.3217H69.9958C70.6455 62.3217 71.1726 61.7945 71.1726 61.1449C71.1726 60.4954 70.6454 59.9678 69.9958 59.9678Z" fill="white"/>
<path fill-rule="evenodd" clip-rule="evenodd" d="M77.3244 55.8977C71.9101 55.8977 67.515 60.2928 67.515 65.707C67.515 71.1213 71.9101 75.5164 77.3244 75.5164C82.7386 75.5164 87.1344 71.1213 87.1344 65.707C87.1344 60.2928 82.7385 55.8977 77.3244 55.8977ZM77.3244 58.2514C81.4394 58.2514 84.7808 61.592 84.7808 65.707C84.7808 69.822 81.4394 73.1627 77.3244 73.1627C73.2094 73.1627 69.8687 69.822 69.8687 65.707C69.8687 61.592 73.2094 58.2514 77.3244 58.2514Z" fill="white"/>
<path fill-rule="evenodd" clip-rule="evenodd" d="M62.0388 95.2368C69.1421 95.2368 85.5103 95.2368 92.6143 95.2133C93.8249 95.2133 94.9538 94.5887 95.6012 93.5609C96.2476 92.5323 96.3206 91.2442 95.7941 90.1496C95.7934 90.148 95.7934 90.1473 95.7925 90.1457C92.4692 83.2934 85.4443 78.5657 77.3242 78.5657C69.2056 78.5657 62.1823 83.2918 58.8362 90.1316C58.8346 90.1339 58.8338 90.1362 58.8322 90.1386C58.3027 91.2409 58.3764 92.5385 59.0275 93.5734C59.6788 94.6091 60.8157 95.2368 62.0388 95.2368ZM62.0388 92.8831C62.0388 92.8831 62.0388 92.8831 62.038 92.8831C61.6245 92.8831 61.2402 92.6704 61.0196 92.3206C60.8 91.9714 60.7749 91.5337 60.9529 91.161C63.917 85.1058 70.1354 80.9195 77.3242 80.9195C84.5123 80.9195 90.7307 85.1051 93.6736 91.1705C93.8486 91.5353 93.8242 91.9653 93.6085 92.3081C93.3927 92.651 93.0154 92.8597 92.6105 92.8597C92.6089 92.8597 92.6074 92.8597 92.6066 92.8597C85.5049 92.8831 69.1406 92.8831 62.0388 92.8831Z" fill="white"/>
<path fill-rule="evenodd" clip-rule="evenodd" d="M52.7308 33.8964V24.2605C52.7308 23.5959 53.2699 23.0578 53.9343 23.0578H80.0929C80.4114 23.0578 80.7173 23.1849 80.9434 23.41C81.1693 23.6359 81.2956 23.9419 81.2956 24.2605V39.6048C81.2956 39.9233 81.1693 40.2292 80.9434 40.4553C80.7174 40.6805 80.4115 40.8075 80.0929 40.8075H62.7417C62.0929 40.8075 61.565 41.3347 61.565 41.9843C61.565 42.6338 62.0929 43.1611 62.7417 43.1611H80.0929C81.0359 43.1611 81.9405 42.7861 82.6074 42.1192C83.2743 41.4523 83.6493 40.5477 83.6493 39.6047C83.6493 35.736 83.6493 28.129 83.6493 24.2604C83.6493 23.3173 83.2743 22.4128 82.6074 21.7459C81.9406 21.0791 81.0361 20.7041 80.093 20.7041C74.3328 20.7041 59.6938 20.7041 53.9344 20.7041C51.9699 20.7041 50.3773 22.2967 50.3773 24.2605V33.8964C50.3773 34.546 50.9052 35.0732 51.554 35.0732C52.2036 35.0732 52.7308 34.546 52.7308 33.8964Z" fill="white"/>
<path fill-rule="evenodd" clip-rule="evenodd" d="M74.6129 26.1802H64.4993C63.8496 26.1802 63.3225 26.7074 63.3225 27.3569C63.3225 28.0065 63.8497 28.5337 64.4993 28.5337H74.6129C75.2618 28.5337 75.7897 28.0065 75.7897 27.3569C75.7897 26.7074 75.2618 26.1802 74.6129 26.1802Z" fill="white"/>
<path fill-rule="evenodd" clip-rule="evenodd" d="M74.6129 30.7559H66.4441C65.7944 30.7559 65.2673 31.2831 65.2673 31.9326C65.2673 32.5822 65.7945 33.1094 66.4441 33.1094H74.6128C75.2616 33.1094 75.7896 32.5822 75.7896 31.9326C75.7897 31.2831 75.2617 30.7559 74.6129 30.7559Z" fill="white"/>
<path fill-rule="evenodd" clip-rule="evenodd" d="M74.6129 35.3313H68.7052C68.0555 35.3313 67.5284 35.8585 67.5284 36.5081C67.5284 37.1577 68.0556 37.6848 68.7052 37.6848H74.6129C75.2617 37.6848 75.7897 37.1576 75.7897 36.5081C75.7897 35.8585 75.2617 35.3313 74.6129 35.3313Z" fill="white"/>
<path fill-rule="evenodd" clip-rule="evenodd" d="M41.9723 24.4065C38.5321 24.4065 35.739 27.1995 35.739 30.6397C35.739 34.08 38.5321 36.8738 41.9723 36.8738C45.4134 36.8738 48.2064 34.0801 48.2064 30.6397C48.2064 27.1994 45.4134 24.4065 41.9723 24.4065ZM41.9723 26.7602C44.1141 26.7602 45.8527 28.4987 45.8527 30.6397C45.8527 32.7816 44.1141 34.5202 41.9723 34.5202C39.8313 34.5202 38.0927 32.7816 38.0927 30.6397C38.0927 28.4987 39.8313 26.7602 41.9723 26.7602Z" fill="white"/>
<path fill-rule="evenodd" clip-rule="evenodd" d="M50.8448 38.919H38.3775C34.9914 38.919 32.1003 41.3621 31.5354 44.7012C31.0749 47.4275 30.5242 50.6842 30.186 52.6801C30.0511 53.4819 30.2755 54.3034 30.8003 54.924C31.3252 55.5454 32.098 55.9039 32.9108 55.9039H45.8175C47.3434 55.9039 48.5808 54.6667 48.5808 53.1406V46.7528H51.5345C53.1131 46.7528 54.6311 46.1424 55.7703 45.0496C56.7173 44.1402 57.9726 42.9368 59.0145 41.9372C59.7638 41.2178 60.1968 40.2308 60.2189 39.1921C60.24 38.1643 59.8564 37.1695 59.1511 36.4226C59.1441 36.4147 59.1142 36.3833 59.1065 36.3763C58.3893 35.6403 57.4118 35.2159 56.3841 35.1947C55.3453 35.1728 54.3412 35.565 53.5911 36.2837L50.8448 38.919ZM51.3179 41.2726C51.6215 41.2726 51.9134 41.155 52.1322 40.9447C52.1322 40.9447 53.7994 39.3458 55.2202 37.9822C55.5192 37.6958 55.92 37.5389 56.3351 37.5475C56.7447 37.5561 57.1354 37.7256 57.4209 38.019C57.4241 38.0221 57.4367 38.0347 57.4398 38.0378C57.7206 38.336 57.8736 38.7329 57.865 39.1432C57.8563 39.5575 57.6837 39.9513 57.3849 40.2385C56.343 41.2381 55.0884 42.4415 54.1407 43.3509C53.4393 44.0232 52.5057 44.399 51.5344 44.399H47.4037C46.7542 44.399 46.227 44.9255 46.227 45.5758V53.1405C46.227 53.3665 46.0433 53.5501 45.8174 53.5501H32.9107C32.7907 53.5501 32.6761 53.4967 32.5976 53.405C32.52 53.3132 32.487 53.1908 32.5066 53.0723C32.8447 51.0764 33.3955 47.8197 33.856 45.0934C34.2295 42.8873 36.1399 41.2726 38.3774 41.2726H51.3179Z" fill="white"/>
<path fill-rule="evenodd" clip-rule="evenodd" d="M37.4516 54.9233L38.7006 47.5383C38.8089 46.8974 38.3766 46.29 37.7364 46.1819C37.0962 46.0728 36.4881 46.505 36.38 47.1454L35.131 54.5311C35.0227 55.1713 35.455 55.7794 36.0952 55.8876C36.7354 55.9959 37.3435 55.5643 37.4516 54.9233Z" fill="white"/>
<path fill-rule="evenodd" clip-rule="evenodd" d="M59.5149 37.765L61.9792 31.0453C62.2028 30.4349 61.889 29.7586 61.2794 29.535C60.669 29.3114 59.9928 29.6252 59.7692 30.2349L57.3049 36.9546C57.0812 37.565 57.3951 38.2413 58.0046 38.4649C58.615 38.6884 59.2913 38.3746 59.5149 37.765Z" fill="white"/>
<path fill-rule="evenodd" clip-rule="evenodd" d="M48.5421 67.0501H51.8035C52.4531 67.0501 52.9803 66.5229 52.9803 65.8733C52.9803 65.2236 52.4531 64.6965 51.8035 64.6965H48.5421C47.8925 64.6965 47.3653 65.2238 47.3653 65.8733C47.3653 66.5229 47.8925 67.0501 48.5421 67.0501Z" fill="white"/>
</g>
<path fill-rule="evenodd" clip-rule="evenodd" d="M48.2221 0.00100435C20.8916 5.05949 0.192627 29.02 0.192627 57.8151C0.192627 86.6101 20.8916 110.571 48.2221 115.629V113.522C22.0419 108.491 2.26298 85.4629 2.26298 57.8151C2.26298 30.1673 22.0419 7.13906 48.2221 2.10823V0.00100435ZM69.7537 113.523C95.9366 108.494 115.718 85.4648 115.718 57.8151C115.718 30.1654 95.9366 7.13588 69.7537 2.10719V0C97.0869 5.05632 117.789 29.0181 117.789 57.8151C117.789 86.6121 97.0869 110.574 69.7537 115.63V113.523Z" fill="white"/>
<defs>
<clipPath id="clip0_177_60700">
<rect width="74.5327" height="74.5327" fill="white" transform="translate(21.7276 20.7041)"/>
</clipPath>
</defs>
</svg>
