<svg width="118" height="116" viewBox="0 0 118 116" fill="none" xmlns="http://www.w3.org/2000/svg">
<path fill-rule="evenodd" clip-rule="evenodd" d="M60.753 81.921C60.7127 81.9252 60.6718 81.9274 60.6302 81.9274H24.1925C23.5469 81.9274 23.0234 81.4039 23.0234 80.7583V23.2936C23.0234 22.6478 23.5469 22.1245 24.1925 22.1245H68.5309C69.1765 22.1245 69.7 22.6478 69.7 23.2936V49.6783C76.938 51.52 82.2906 58.0804 82.2906 65.8922C82.2906 69.1027 81.3866 72.1018 79.8191 74.6489L83.2856 78.0147C84.2288 77.5775 85.392 77.7356 86.179 78.4975L86.18 78.4984L94.7249 86.7913C95.7435 87.7774 95.7723 89.4182 94.7781 90.4448L94.7771 90.4459L91.6935 93.6225L91.6925 93.6235C90.7071 94.64 89.0686 94.6682 88.0433 93.6833C88.0418 93.6818 88.0403 93.6803 88.0387 93.6789L79.4985 85.3864C78.7063 84.6227 78.5118 83.4643 78.9223 82.508L75.5957 79.28C72.8003 81.3785 69.3259 82.622 65.5608 82.622C63.8897 82.622 62.2758 82.377 60.753 81.921ZM67.3618 49.2581V24.4627H25.3616V79.5892H55.9515C53.5319 77.8886 51.5833 75.563 50.3404 72.8469H47.1789C46.5337 72.8469 46.0098 72.3231 46.0098 71.6778C46.0098 71.0326 46.5337 70.5087 47.1789 70.5087H49.476C49.3314 70.0036 49.2098 69.4886 49.1126 68.9652H47.1789C46.5337 68.9652 46.0098 68.4413 46.0098 67.7961C46.0098 67.1509 46.5337 66.627 47.1789 66.627H48.8469C48.8364 66.3833 48.831 66.1384 48.831 65.8922C48.831 63.5679 49.3049 61.3542 50.1614 59.3427H47.1789C46.5337 59.3427 46.0098 58.819 46.0098 58.1736C46.0098 57.5285 46.5337 57.0046 47.1789 57.0046H51.384C51.7206 56.469 52.0865 55.9535 52.4799 55.461H47.1789C46.5337 55.461 46.0098 54.9371 46.0098 54.292C46.0098 53.6468 46.5337 53.1229 47.1789 53.1229H54.7509C57.6664 50.6523 61.4394 49.1624 65.5608 49.1624C66.1693 49.1624 66.7701 49.1948 67.3618 49.2581ZM78.441 76.57C78.1026 76.9779 77.745 77.3694 77.3698 77.7433L80.4304 80.7133L81.5356 79.5747L78.441 76.57ZM90.0148 91.9948L93.0986 88.818C93.193 88.7206 93.1953 88.5646 93.0986 88.471L93.0976 88.4701L84.5525 80.1772C84.4556 80.0836 84.2989 80.0849 84.2053 80.1816L84.2042 80.1827L81.1196 83.3603C81.1187 83.3611 81.118 83.3619 81.1172 83.3626C81.0246 83.4576 81.0259 83.6113 81.1216 83.7032L81.126 83.7076C81.126 83.7076 89.6642 91.998 89.6668 92.0006C89.7656 92.0917 89.9203 92.0924 90.0138 91.9959L90.0148 91.9948ZM47.1789 39.3065C46.5337 39.3065 46.0098 38.7827 46.0098 38.1374C46.0098 37.4922 46.5337 36.9683 47.1789 36.9683H58.5966C59.2418 36.9683 59.7657 37.4922 59.7657 38.1374C59.7657 38.7827 59.2418 39.3065 58.5966 39.3065H47.1789ZM41.8559 37.6859C45.3744 39.1244 47.9429 42.4063 48.3622 46.3307C48.3974 46.6605 48.2909 46.9898 48.0692 47.2364C47.8475 47.4831 47.5314 47.624 47.1997 47.624H28.5236C28.1919 47.624 27.8758 47.483 27.6539 47.2362C27.4323 46.9893 27.3259 46.6599 27.3612 46.3301C27.7827 42.4057 30.3518 39.1239 33.8695 37.6858C32.6882 36.6023 31.946 35.0473 31.946 33.3246C31.946 30.0656 34.6028 27.4064 37.8616 27.4064C41.1236 27.4064 43.7799 30.0658 43.7799 33.3246C43.7799 35.0473 43.0377 36.6025 41.8559 37.6859ZM37.8616 39.2429C34.0758 39.2429 30.8872 41.8023 29.9312 45.2858H45.7928C44.8385 41.8022 41.6495 39.2429 37.8616 39.2429ZM37.8616 36.9047C39.8349 36.9047 41.4417 35.2959 41.4417 33.3246C41.4417 31.3532 39.8349 29.7445 37.8616 29.7445C35.8905 29.7445 34.2842 31.3534 34.2842 33.3246C34.2842 35.2957 35.8905 36.9047 37.8616 36.9047ZM33.1515 63.8354H40.6523C41.8332 63.8354 42.8 64.8057 42.8 65.9866V73.4874C42.8 74.6693 41.8344 75.6352 40.6523 75.6352H33.1515C31.9695 75.6352 31.0037 74.6693 31.0037 73.4874V65.9866C31.0037 64.8057 31.9705 63.8354 33.1515 63.8354ZM33.3419 66.1736V73.297H40.4618V66.1736H33.3419ZM34.0793 70.3707C33.6226 69.9149 33.6219 69.174 34.0777 68.7173C34.5335 68.2606 35.2743 68.2599 35.7311 68.7157L36.4575 69.4408L37.9863 67.5503C38.392 67.0486 39.1286 66.9705 39.6305 67.3763C40.1322 67.782 40.2101 68.5187 39.8044 69.0204L37.4596 71.9203C37.2514 72.1778 36.9434 72.3351 36.6127 72.3526C36.2819 72.3703 35.9591 72.2467 35.7247 72.0127L34.0793 70.3707ZM47.1789 35.4248C46.5337 35.4248 46.0098 34.9009 46.0098 34.2557C46.0098 33.6103 46.5337 33.0866 47.1789 33.0866H61.5451C62.1904 33.0866 62.7142 33.6103 62.7142 34.2557C62.7142 34.9009 62.1904 35.4248 61.5451 35.4248H47.1789ZM33.1515 50.3347H40.6523C41.8344 50.3347 42.8 51.3004 42.8 52.4823V59.9833C42.8 61.1652 41.8344 62.131 40.6523 62.131H33.1515C31.9695 62.131 31.0037 61.1652 31.0037 59.9833V52.4823C31.0037 51.3004 31.9695 50.3347 33.1515 50.3347ZM33.3419 52.6729V59.7928H40.4618V52.6729H33.3419ZM34.0786 56.8657C33.6222 56.4095 33.6222 55.6686 34.0786 55.2123C34.5348 54.7561 35.2756 54.7561 35.7318 55.2123L36.4584 55.9389L37.9863 54.0495C38.392 53.5477 39.1286 53.4698 39.6305 53.8755C40.1322 54.2811 40.2101 55.018 39.8044 55.5196L37.4596 58.4195C37.2512 58.6772 36.9432 58.8343 36.6122 58.8519C36.2812 58.8693 35.9582 58.7455 35.7238 58.5111L34.0786 56.8657ZM65.5608 51.5006C57.6119 51.5006 51.1692 57.9432 51.1692 65.8922C51.1692 73.8412 57.6119 80.2838 65.5608 80.2838C73.5098 80.2838 79.9524 73.8412 79.9524 65.8922C79.9524 57.9432 73.5098 51.5006 65.5608 51.5006ZM65.5608 53.5012C72.4044 53.5012 77.9518 59.0487 77.9518 65.8922C77.9518 72.7356 72.4044 78.2832 65.5608 78.2832C58.7173 78.2832 53.1699 72.7356 53.1699 65.8922C53.1699 59.0487 58.7173 53.5012 65.5608 53.5012ZM65.5608 55.8394C60.0087 55.8394 55.5081 60.34 55.5081 65.8922C55.5081 71.4442 60.0087 75.945 65.5608 75.945C71.113 75.945 75.6136 71.4442 75.6136 65.8922C75.6136 60.34 71.113 55.8394 65.5608 55.8394Z" fill="white"/>
<path fill-rule="evenodd" clip-rule="evenodd" d="M48.0295 0.00100434C20.699 5.05948 0 29.02 0 57.815C0 86.61 20.699 110.571 48.0295 115.629V113.522C21.8493 108.491 2.07035 85.4628 2.07035 57.815C2.07035 30.1672 21.8493 7.13905 48.0295 2.10823V0.00100434ZM69.5611 113.523C95.7439 108.494 115.526 85.4647 115.526 57.815C115.526 30.1653 95.7439 7.13587 69.5611 2.10719V0C96.8942 5.05631 117.596 29.0181 117.596 57.815C117.596 86.6119 96.8942 110.574 69.5611 115.63V113.523Z" fill="white"/>
</svg>
