<svg width="100" height="100" viewBox="0 0 100 100" fill="none" xmlns="http://www.w3.org/2000/svg">
<path fill-rule="evenodd" clip-rule="evenodd" d="M45 0.25C19.7334 2.75862 0 24.0764 0 50.0031C0 75.9299 19.7334 97.2476 45 99.7562V97.7458C20.84 95.2453 2 74.8243 2 50.0031C2 25.1819 20.84 4.761 45 2.2604V0.25ZM55 97.7458C79.16 95.2453 98 74.8243 98 50.0031C98 25.1819 79.16 4.761 55 2.2604V0.25C80.2666 2.75862 100 24.0764 100 50.0031C100 75.9299 80.2666 97.2476 55 99.7562V97.7458Z" fill="white"/>
<path d="M40.1678 44.116C41.3165 44.2456 42.4794 44.1447 43.5886 43.8191C44.6977 43.4936 45.7308 42.95 46.6272 42.2202C48.4553 40.7441 49.6064 38.6452 49.8637 36.3025C50.1209 33.9598 49.4439 31.6712 47.9678 29.8431C46.8734 28.4889 45.4023 27.4893 43.7402 26.9706C42.0781 26.4518 40.2996 26.437 38.6291 26.9281C36.9587 27.4193 35.4712 28.3943 34.3544 29.7301C33.2376 31.0659 32.5416 32.7027 32.3543 34.4337C32.225 35.5824 32.3261 36.7452 32.6516 37.8544C32.9771 38.9635 33.5206 39.9965 34.2501 40.8931C35.7397 42.7212 37.8387 43.8723 40.1678 44.116ZM36.4032 34.8671C36.5387 33.6077 37.1616 32.4837 38.1366 31.6848C38.9897 30.9941 40.0189 30.6421 41.1022 30.6421C41.2782 30.6421 41.4407 30.6556 41.6168 30.6691C42.8762 30.8046 44.0001 31.4275 44.7991 32.416C45.598 33.4046 45.9501 34.6368 45.8147 35.8962C45.6793 37.1556 45.0564 38.2796 44.0814 39.0785C43.1064 39.8775 41.8605 40.2296 40.6012 40.0941C39.3418 39.9587 38.2178 39.3358 37.4189 38.3473C36.6334 37.3587 36.2678 36.1264 36.4032 34.8671ZM67.5084 54.1098C66.414 52.7556 64.9429 51.756 63.2808 51.2372C61.6187 50.7184 59.8402 50.7037 58.1698 51.1948C56.4993 51.6859 55.0118 52.661 53.895 53.9968C52.7783 55.3326 52.0823 56.9693 51.8949 58.7004C51.6376 61.0431 52.3147 63.3316 53.7907 65.1598C55.2668 66.9879 57.3657 68.1389 59.7084 68.3962C60.8571 68.5258 62.0201 68.4249 63.1292 68.0993C64.2384 67.7738 65.2714 67.2302 66.1678 66.5004C69.9459 63.44 70.5553 57.8879 67.5084 54.1098ZM63.622 63.3181C62.6334 64.1171 61.4012 64.4691 60.1418 64.3337C58.8824 64.1983 57.7584 63.5754 56.9595 62.5868C56.1605 61.5983 55.8084 60.366 55.9439 59.1066C56.0793 57.8473 56.7022 56.7233 57.6772 55.9243C58.5574 55.2202 59.6001 54.8816 60.6428 54.8816C62.0241 54.8816 63.4053 55.491 64.3397 56.6421C65.9782 58.6868 65.6532 61.6796 63.622 63.3181ZM68.9168 32.1046C68.2126 31.2243 66.9397 31.0889 66.0595 31.7931L32.3137 58.9848C31.4334 59.6889 31.298 60.9618 32.0022 61.8421C32.4084 62.3431 32.9907 62.6004 33.5866 62.6004C34.0334 62.6004 34.4803 62.4514 34.8595 62.1535L68.6053 34.9754C69.4855 34.2577 69.6209 32.9848 68.9168 32.1046Z" fill="white"/>
</svg>
