<svg id="Layer_1" enable-background="new 0 0 512 512" viewBox="0 0 512 512" xmlns="http://www.w3.org/2000/svg"><g><path d="m427.79 209.6c0-3.88 3.15-7 7-7 3.88 0 7 3.12 7 7v206.42c0 28.86-23.58 52.47-52.44 52.47h-100.65c-3.86 0-7-3.15-7-7 0-3.88 3.15-7 7-7h100.66c21.12 0 38.44-17.32 38.44-38.47v-206.42zm-351.92 128.04c0 3.88-3.12 7-7 7-3.85 0-7-3.12-7-7v-180.73c0-28.86 23.58-52.44 52.47-52.44h79.77c3.85 0 7 3.12 7 7 0 3.85-3.15 7-7 7h-79.77c-21.15 0-38.47 17.32-38.47 38.44zm86.2-96.57c33.05 0 59.61 27.21 59.61 60.35 0 21.12-10.8 40.11-27.75 51 6.77.03 14.74 1.64 23.61 3.43 32.06 6.52 77.81 15.82 99.21-54.31.96-5.84 4.56-10.8 9.69-14.12 17.23-11.17 42.32-.08 40.88 18.54l-.2 1.47c-2.72 20.81-7.8 36.17-15.82 48.93-8.11 12.9-19.02 22.9-33.36 33-24.26 17.12-40.08 24.01-50.34 28.49-6.26 2.72-10.03 4.37-11.57 6.49-2.66 3.77-2.61 12.73-2.44 35.18.03 7.4.09 15.79.09 18.77 0 7.57-7.03 12.98-14.54 12.98h-162.7c-7.51 0-14.57-5.41-14.57-12.98v-56.29c0-19.33 9.84-36.68 25.71-49.21 12.1-9.55 27.72-16.3 45.13-18.88-34.16-19.62-40.76-66.81-12.84-95.13 10.82-10.94 25.73-17.71 42.2-17.71zm32.23 27.52c-17.77-18.03-46.69-18.03-64.46 0-17.86 18.09-17.86 47.54 0 65.65 17.77 18.03 46.69 18.03 64.46 0 17.86-18.11 17.86-47.56 0-65.65zm257.7-141.82c3.88 0 7 3.15 7 7s-3.12 7-7 7h-14.09c-3.88 0-7-3.15-7-7 0-3.86 3.12-7 7-7zm-233.91 14.01c-3.85 0-7-3.15-7-7 0-3.86 3.15-7 7-7h14.12c3.86 0 7 3.15 7 7s-3.15 7-7 7zm12.55-51.34c-3.46-1.73-4.88-5.92-3.15-9.38s5.92-4.85 9.38-3.15l12.22 6.12c3.46 1.7 4.88 5.9 3.15 9.35-1.73 3.46-5.92 4.88-9.38 3.15zm40.14-39.4c-2.15-3.2-1.3-7.54 1.9-9.69s7.54-1.28 9.69 1.93l7.06 10.54c2.13 3.2 1.28 7.54-1.93 9.69-3.2 2.15-7.54 1.28-9.67-1.93zm57.26-15.79c0-3.88 3.15-7 7-7 3.88 0 7 3.12 7 7v10.55c0 3.85-3.12 7-7 7-3.86 0-7-3.15-7-7zm59.7 8.02c2.13-3.2 6.46-4.08 9.67-1.93 3.2 2.15 4.05 6.49 1.93 9.69l-7.06 10.54c-2.15 3.2-6.49 4.08-9.69 1.93-3.17-2.15-4.05-6.49-1.9-9.69zm45.47 34.64c3.46-1.7 7.68-.31 9.38 3.15 1.73 3.46.31 7.65-3.15 9.38l-12.22 6.09c-3.46 1.73-7.65.31-9.35-3.15-1.73-3.46-.31-7.65 3.15-9.35zm-118.18 76.79c2.07-.26 4.03.4 5.47 1.64-.23-5.47-1.56-8.93-4.99-8.53-3.12.4-7.06 3.74-3.4 6.18.82.57 1.87.85 2.92.71zm5.47 12.16c-5.16 4.54-20.52.99-23.5-11.82-3.23-14.12 14.23-26.05 27.04-19.3 5.92 3.12 10.46 9.92 10.46 21.94v47h1.08v-47c0-12.02 4.56-18.82 10.46-21.94 12.84-6.75 30.3 5.19 27.04 19.3-2.95 12.81-18.34 16.36-23.5 11.82v37.81h1.5c1.36-9.3 7.51-16.7 16.16-20.92 35.86-17.63 43.88-59.95 13.78-85.97-25.26-21.85-66.67-21.85-91.93 0-19.9 17.21-24.58 44.05-10.03 65.62 5.67 8.45 13.92 15.48 23.81 20.35 8.62 4.22 14.77 11.62 16.16 20.92h1.47zm29.11-10.51c3.51-3.06 5.78-.6 8.39-2.35 4.48-3-2.52-7.43-5.44-5.9-1.56.82-2.78 3.29-2.95 8.25zm-45.58 48.33h.68c-1.22-3.71-4.2-6.55-7.97-8.39-23.39-11.51-40.17-33.73-40.17-60.07 0-19.19 8.93-36.51 23.36-49.01 30.56-26.42 79.65-26.42 110.21 0 25.29 21.88 31.01 56.44 12.5 83.96-7.06 10.46-17.18 19.16-29.28 25.11-3.8 1.84-6.75 4.68-7.97 8.39 19.45 0 24.63 24.38 9.18 32.97.17 7.99-3.94 15.28-10.37 19.47.45 13.07-10.09 23.95-23.13 23.95h-12.05c-13.07 0-23.61-10.89-23.16-23.95-6.41-4.2-10.52-11.48-10.37-19.47-10.18-5.67-12.22-19.5-3.88-27.81 3.18-3.17 7.57-5.15 12.42-5.15zm56.38 35.18h-50.71c.85 3.97 4.42 6.94 8.56 6.94h33.56c4.17 0 7.71-2.98 8.59-6.94zm5.64-21.18h-62.02c-4.71 0-4.71 7.17 0 7.17h62.02c4.74 0 4.74-7.17 0-7.17zm-16.3 42.12h-29.42c1.25 3.66 4.73 6.26 8.7 6.26h12.05c3.97.01 7.43-2.6 8.67-6.26zm-249.3 217.45v-55.02c0-3.86 3.12-7 7-7 3.86 0 7 3.15 7 7v55.02l125.23-.06c0-10.35-.03-14.23-.03-17.63-.17-25.65-.26-35.92 5.02-43.31 3.77-5.3 8.84-7.51 17.35-11.23 9.72-4.22 24.72-10.77 47.88-27.1 12.93-9.1 22.62-17.91 29.59-29.03 6.83-10.86 11.68-25.29 13.86-43.8.77-6.52-11.48-11.06-19.3-5.98-3.51 2.27-3.17 4.11-3.74 6.01-25.03 82.77-78.24 71.97-115.48 64.4-8.39-1.7-15.87-3.23-21.34-3.17l-45.78.37c-20.13.17-38.35 6.63-51.48 17.01-12.56 9.92-20.35 23.41-20.35 38.27v55.19z"/></g></svg>