<svg id="Layer_1" enable-background="new 0 0 500 500" viewBox="0 0 500 500" xmlns="http://www.w3.org/2000/svg"><path clip-rule="evenodd" d="m451.277 326.409h-94.74c7.838-16.341 11.726-34.091 11.636-51.898 9.112-9.579 21.712-15.045 34.92-15.045 26.569 0 48.184 21.582 48.184 48.179zm-93.252 46.827-9.895 9.917-19.627-19.61c3.504-3.196 6.749-6.345 9.895-9.917zm19.35.788c-.445 0-1.313.113-2.034.789l-25.616 25.639c-1.093 1.127-1.093 2.986 0 4.057l50.523 50.546c1.12 1.129 2.943 1.129 4.063 0l25.628-25.639c1.105-1.114 1.105-2.944 0-4.057l-50.529-50.546c-.722-.676-1.578-.789-2.035-.789zm-175.557-5.747v-60.632c0-23.61 17.074-43.333 39.518-47.39l-16.104 67.281c-.535 2.254.101 4.564 1.685 6.198l18.111 18.821c2.618 2.698 7.03 2.703 9.641 0l17.091-17.75c.659-.394 1.257-.958 1.758-1.578 1.268-1.578 1.73-3.663 1.245-5.691l-16.099-67.281c22.438 4.057 39.518 23.78 39.518 47.39v60.632c-30.122 15.551-66.235 15.554-96.364 0zm48.174-122.222c-13.592 0-24.659-11.044-24.659-24.625 0-13.637 11.067-24.681 24.659-24.681 13.608 0 24.675 11.044 24.675 24.681 0 13.58-11.067 24.625-24.675 24.625zm10.853 80.805-10.853-45.361-10.904 45.587 10.763 11.214zm-84.998-125.885c-45.799 45.767-39.145 121.963 12.6 159.018v-52.349c0-25.47 15.519-47.334 37.596-56.744-8.582-6.931-14.087-17.581-14.087-29.471 0-21.018 17.068-38.092 38.036-38.092 20.984 0 38.047 17.074 38.047 38.092 0 11.89-5.5 22.54-14.087 29.471 22.078 9.41 37.602 31.274 37.602 56.744v52.349c4.406-3.156 8.622-6.762 12.588-10.707 40.893-40.91 40.893-107.458 0-148.312-40.953-40.966-107.341-40.999-148.295.001zm-127.124 125.434v-18.764c0-26.597 21.616-48.179 48.179-48.179 13.214 0 25.802 5.466 34.925 15.045-.09 17.807 3.798 35.557 11.636 51.898zm48.178-129.66c13.603 0 24.67 11.044 24.67 24.681 0 13.58-11.067 24.625-24.67 24.625s-24.664-11.044-24.664-24.625c0-13.637 11.062-24.681 24.664-24.681zm21.092-29.809c0-29.641 24.095-53.757 53.752-53.757 26.777 0 49.531 20.342 53.205 46.319-48.286 10.376-84.822 49.999-91.883 98.386-3.821-2.761-7.929-5.071-12.256-6.931 20.037-16.249 18.452-46.992-2.817-61.195v-22.822zm25.904-94.949c0-15.383 12.487-27.837 27.837-27.837 15.355 0 27.848 12.453 27.848 27.837 0 15.328-12.475 27.837-27.854 27.837-15.344 0-27.831-12.51-27.831-27.837zm184.358 41.192c29.651 0 53.746 24.116 53.746 53.757v22.822c-21.262 14.206-22.846 44.942-2.818 61.195-4.322 1.86-8.435 4.17-12.256 6.931-7.063-48.396-43.603-88.007-91.878-98.386 3.675-25.977 26.429-46.319 53.206-46.319zm-27.836-41.192c0-15.383 12.493-27.837 27.848-27.837 15.344 0 27.831 12.453 27.831 27.837 0 15.328-12.475 27.837-27.842 27.837-15.356 0-27.837-12.51-27.837-27.837zm127.344 149.439c0-13.637-11.067-24.681-24.67-24.681-13.597 0-24.664 11.044-24.664 24.681 0 13.58 11.067 24.625 24.664 24.625 13.603 0 24.67-11.045 24.67-24.625zm-.716 29.471c8.588-6.931 14.087-17.581 14.087-29.471 0-24.078-22.061-42.14-45.756-37.303v-17.187c0-28.175-17.44-52.292-42.076-62.266 9.822-7.495 16.172-19.384 16.172-32.683 0-22.709-18.483-41.248-41.208-41.248-22.731 0-41.225 18.539-41.225 41.248 0 13.298 6.351 25.132 16.178 32.683-22.07 8.909-38.018 29.142-41.394 52.8-8.17-.825-15.481-.825-23.661 0-3.358-23.665-19.319-43.886-41.383-52.8 9.827-7.551 16.172-19.384 16.172-32.683 0-22.709-18.488-41.248-41.22-41.248-22.726 0-41.214 18.539-41.214 41.248 0 13.298 6.351 25.188 16.178 32.683-24.636 9.974-42.076 34.092-42.076 62.266v17.187c-23.75-4.826-45.762 13.255-45.762 37.303 0 11.89 5.5 22.54 14.088 29.471-22.078 9.41-37.596 31.274-37.596 56.744v25.414c0 3.719 2.992 6.706 6.683 6.706h108.963c36.729 56.178 112.629 70.264 166.952 32.119l20.844 20.849c-4.795 6.368-4.316 15.44 1.471 21.244l50.534 50.546c6.325 6.314 16.652 6.313 22.974 0l25.617-25.639c6.345-6.319 6.347-16.617 0-22.991l-50.517-50.489c-5.78-5.816-14.762-6.36-21.261-1.522l-20.844-20.793c.766-1.127 1.516-2.197 2.237-3.324h108.957c3.696 0 6.689-2.986 6.689-6.706v-25.414c-.001-25.47-15.525-47.334-37.603-56.744z" fill-rule="evenodd"/></svg>