<?xml version="1.0" encoding="utf-8"?>
<!-- Generator: Adobe Illustrator 27.5.0, SVG Export Plug-In . SVG Version: 6.00 Build 0)  -->
<svg version="1.1" xmlns="http://www.w3.org/2000/svg" xmlns:xlink="http://www.w3.org/1999/xlink" x="0px" y="0px"
	 viewBox="0 0 5000 4000" style="enable-background:new 0 0 5000 4000;" xml:space="preserve">
<g id="Background">
	<g>
		<g>
			<rect style="fill:#FFFFFF;" width="5000" height="4000"/>
		</g>
	</g>
	<g style="opacity:0.2;">
		<g>
			
				<path style="fill:none;stroke:#0F31AC;stroke-width:20;stroke-linecap:round;stroke-miterlimit:10;stroke-dasharray:50,50,50,50,50,50;" d="
				M1284.181,1141.937c-55.304-26.007-146.764,16.278-175.926,78.156c-55.668,118.122,124.378,289.192,189.854,270.831
				C1371.276,1470.406,1385.72,1189.685,1284.181,1141.937z"/>
			
				<path style="fill:none;stroke:#0F31AC;stroke-width:20;stroke-linecap:round;stroke-miterlimit:10;stroke-dasharray:50,50,50,50,50,50;" d="
				M1007.565,1409.484c-19.737-11.417-228.805-132.355-347.122-36.642c-83.076,67.205-83.871,210.855-21.441,291.591
				c123.648,159.904,507.069,88.214,546.852-26.205C1212.644,1561.176,1086.865,1455.356,1007.565,1409.484z"/>
			
				<path style="fill:none;stroke:#0F31AC;stroke-width:20;stroke-linecap:round;stroke-miterlimit:10;stroke-dasharray:50,50,50,50,50,50;" d="
				M1276.577,3384c508.89-126.31,1087.12-254.9,1985-233c502.15,12.25,615.94-143.58,996.51-337.33
				c339.21-172.68,505.81-516.06,403.49-710.67c-103.3-196.47-417.94-118.25-675.62-410.71c-117.35-133.2-96.7-226.56-164.45-374.27
				c-214.55-467.71-1018.68-833.28-1415.21-639.81c-523.87,255.59-76.01,1359.96-661.6,1661.64
				c-370.41,190.84-650.38-175.51-1016.12,104.15c-181.22,138.57-402.859,332.948-420,544C308.577,2988,284.577,3504,1276.577,3384z
				"/>
		</g>
		<path style="fill:#ACBCF8;" d="M4088.14,2809.3c0,0-92.18,122.22-184.38,289.91c-83.12,151.22-146.33,354.98-160.29,525.1
			c-39.15-1.85-82.15-3.59-128.64-5.24c-275.34-9.77-672.84-15.89-1114.83-15.89c-502.48,0-947.45,7.92-1220.8,20.1
			c-9.41,0.42-18.62,0.84-27.62,1.27C910.31,3201.56,223.1,2464.63,855.52,2161.47c0,0,46.33-14.11,115.79-44.42
			c219.84-95.95,671.6-354.14,621.35-840.95c0,0-17.12-90.84-17.12-217.24c0-295.56,93.57-785.48,718.25-763.12
			c378.29,13.56,726.68,206.06,937.31,514.18c206.6,302.21,536.94,674.04,805.96,461.76c62.1-49.02,144.21-67.18,220.87-45.63
			C4451.57,1280.44,4671.55,1562.01,4088.14,2809.3z"/>
	</g>
	<path style="opacity:0.15;fill:#040C2B;" d="M4590.475,3640.772c0,20.002-935.938,36.219-2090.475,36.219
		c-651.433,0-1233.267-5.161-1616.659-13.256c-88.307-1.865-166.074-3.885-231.739-6.031c-43.253-1.412-81.255-2.888-113.561-4.409
		c-83.119-3.894-128.516-8.113-128.516-12.523c0-5.614,73.682-10.929,205.191-15.665c53.857-1.947,117.405-3.794,189.565-5.514
		c379.688-9.109,997.761-15.04,1695.719-15.04c613.938,0,1166.067,4.582,1548.519,11.889
		C4385.271,3622.871,4590.475,3631.409,4590.475,3640.772z"/>
</g>
<g id="Design">
	<g>
		<g>
			<g>
				<path style="fill:#DEE4FC;" d="M1723.431,1336.235l-199.771,0c-22.188,0-40.174-17.987-40.174-40.174l0-174.342
					c0-22.188,17.987-40.174,40.174-40.174l199.771,0c22.188,0,40.174,17.987,40.174,40.174l0,174.342
					C1763.605,1318.248,1745.619,1336.235,1723.431,1336.235z"/>
			</g>
			<g>
				<path style="fill:#FFFFFF;" d="M1581.905,1281.535l-51.032-52.358c-8.853-9.083-8.667-23.623,0.416-32.476v0
					c9.083-8.853,23.623-8.666,32.476,0.417l29.982,30.761l89.788-89.788c8.969-8.969,23.51-8.969,32.478,0l0,0
					c8.969,8.969,8.969,23.51,0,32.478L1604.9,1281.682C1598.533,1288.049,1588.19,1287.983,1581.905,1281.535z"/>
			</g>
		</g>
		<g>
			<g>
				<path style="fill:#DEE4FC;" d="M3271.438,946.968l-203.279,0c-22.188,0-40.174-17.987-40.174-40.174V728.422
					c0-22.188,17.987-40.174,40.174-40.174h203.279c22.188,0,40.174,17.987,40.174,40.174v178.372
					C3311.612,928.982,3293.626,946.968,3271.438,946.968z"/>
			</g>
			<g>
				<g>
					<path style="fill:#FFFFFF;" d="M3213.037,812.746c-0.163,18.438-16.003,55.967-33.553,68.366
						c-4.612,3.258-7.253-2.022-12.239-1.763c-5.197,0.271-12.197-1.469-16.466-5.782c-14.842-14.993-25.273-43.715-25.115-61.592
						c0.206-23.284,19.932-41.986,44.059-41.773C3193.851,770.414,3213.243,789.462,3213.037,812.746z"/>
					<path style="fill:#E3E9F7;" d="M3132.498,812.92c-0.144-1.219-0.193-2.452-0.167-3.688c0.025-1.236,0.132-2.474,0.309-3.706
						c0.018-0.155,0.048-0.307,0.072-0.461l0.077-0.461c0.054-0.307,0.117-0.612,0.175-0.919c0.061-0.306,0.135-0.609,0.204-0.914
						c0.073-0.304,0.154-0.605,0.231-0.909c0.322-1.209,0.722-2.4,1.187-3.568c0.93-2.335,2.135-4.568,3.569-6.644
						c1.435-2.077,3.099-3.998,4.948-5.72c3.695-3.447,8.131-6.089,12.887-7.683c1.188-0.399,2.396-0.735,3.616-1l0.458-0.099
						l0.459-0.089l0.459-0.088c0.153-0.028,0.307-0.051,0.461-0.075l0.461-0.073c0.154-0.023,0.308-0.042,0.462-0.063l0.462-0.062
						c0.154-0.021,0.309-0.035,0.463-0.051c0.309-0.031,0.617-0.064,0.927-0.085c0.309-0.022,0.617-0.051,0.927-0.06
						c0.31-0.012,0.618-0.031,0.928-0.033c0.155-0.002,0.309-0.007,0.463-0.007l0.232-0.002l0.232,0.003
						c1.235,0.009,2.465,0.086,3.682,0.252c-1.219,0.147-2.424,0.315-3.617,0.527c-0.596,0.109-1.189,0.219-1.777,0.349
						c-0.295,0.061-0.588,0.13-0.881,0.197c-0.293,0.064-0.584,0.141-0.874,0.215c-0.145,0.039-0.291,0.071-0.435,0.111
						l-0.433,0.118c-0.144,0.04-0.289,0.077-0.432,0.119l-0.43,0.128l-0.429,0.128l-0.427,0.135l-0.426,0.135l-0.423,0.145
						c-1.126,0.387-2.234,0.814-3.32,1.285c-2.171,0.945-4.255,2.061-6.224,3.345c-1.969,1.283-3.825,2.731-5.541,4.328
						c-1.716,1.597-3.292,3.344-4.702,5.22s-2.657,3.881-3.718,5.992c-0.531,1.056-1.012,2.138-1.451,3.242
						c-0.105,0.277-0.216,0.554-0.318,0.833l-0.3,0.842c-0.094,0.283-0.193,0.565-0.283,0.849l-0.263,0.857
						c-0.342,1.148-0.63,2.316-0.875,3.5C3132.86,810.503,3132.665,811.704,3132.498,812.92z"/>
				</g>
				<g>
					<path style="fill:#829CF8;" d="M3177.354,880.287l-1.156-0.01l0.301-34.027c-6.471,2.951-13.003,2.715-13.119,2.711
						c-1.022-0.057-1.958-0.147-2.811-0.271l-0.258,29.176l-1.156-0.01l0.259-29.363c-2.281-0.458-3.844-1.209-4.74-2.269
						c-0.665-0.788-0.942-1.728-0.822-2.795c0.255-2.258,1.979-3.19,3.504-3.098c1.632,0.099,3.274,1.387,3.254,3.657l-0.031,3.536
						c0.857,0.13,1.811,0.224,2.859,0.283c0.107,0.006,6.725,0.237,13.071-2.839l0.134-15.201c0.019-2.126,0.955-4.091,2.503-5.257
						c1.313-0.989,2.8-1.272,4.417-0.842c1.651,0.439,3.057,1.55,3.959,3.128c1.01,1.768,1.272,3.923,0.718,5.913
						c-1.87,6.712-6.117,10.659-10.581,12.977L3177.354,880.287z M3157.167,841.48c-0.916-0.008-1.99,0.524-2.165,2.077
						c-0.084,0.749,0.097,1.377,0.556,1.92c0.694,0.822,1.989,1.436,3.867,1.837l0.03-3.338c0.014-1.621-1.114-2.428-2.168-2.492
						C3157.247,841.482,3157.207,841.481,3157.167,841.48z M3182.17,824.629c-0.835-0.007-1.604,0.259-2.328,0.805
						c-1.263,0.951-2.027,2.574-2.042,4.343l-0.129,14.588c4.025-2.237,7.77-5.917,9.456-11.967
						c0.472-1.694,0.251-3.527-0.608-5.028c-0.747-1.307-1.902-2.225-3.252-2.584
						C3182.888,824.684,3182.523,824.632,3182.17,824.629z"/>
				</g>
				<g>
					<path style="fill:#829CF8;" d="M3191.284,869.017l-0.261,29.562c-0.008,0.919-0.107,1.816-0.288,2.682
						c-1.302,6.225-6.849,10.876-13.452,10.818l-17.624-0.156c-3.559-0.031-6.787-1.425-9.193-3.682
						c-2.059-1.93-3.516-4.491-4.065-7.372c-0.166-0.87-0.249-1.768-0.241-2.687l0.261-29.562L3191.284,869.017z"/>
					
						<rect x="3167.092" y="852.022" transform="matrix(0.0088 -1 1 0.0088 2266.4082 4035.4143)" style="fill:#FFFFFF;" width="3.421" height="44.866"/>
					
						<rect x="3167.019" y="860.322" transform="matrix(0.0088 -1 1 0.0088 2258.0361 4043.5679)" style="fill:#FFFFFF;" width="3.421" height="44.866"/>
					
						<rect x="3166.945" y="868.622" transform="matrix(0.0088 -1 1 0.0088 2249.6638 4051.7212)" style="fill:#FFFFFF;" width="3.421" height="44.866"/>
					<path style="fill:#FFFFFF;" d="M3191.03,897.842l-0.006,0.736c-0.008,0.919-0.107,1.816-0.288,2.682l-44.335-0.391
						c-0.166-0.87-0.249-1.768-0.241-2.687l0.006-0.736L3191.03,897.842z"/>
					<path style="opacity:0.1;" d="M3191.284,869.017l-0.261,29.562c-0.008,0.919-0.107,1.816-0.288,2.682
						c-1.302,6.225-6.849,10.876-13.452,10.818l-17.624-0.156c-3.559-0.031-6.787-1.425-9.193-3.682
						c6.341,1.878,12.465,1.465,17.302,0.431c8.098-1.73,14.247-8.297,15.445-16.491c1.149-7.859,0.579-17.058-0.074-23.236
						L3191.284,869.017z"/>
				</g>
				<g>
					<path style="fill:#FFFFFF;" d="M3169.091,746.836L3169.091,746.836c-0.813-0.007-1.465-0.672-1.458-1.484l0.183-20.757
						c0.007-0.812,0.672-1.465,1.484-1.458l0,0c0.813,0.007,1.465,0.672,1.458,1.484l-0.183,20.757
						C3170.567,746.191,3169.903,746.843,3169.091,746.836z"/>
					<path style="fill:#FFFFFF;" d="M3192.539,753.443L3192.539,753.443c-0.679-0.447-0.867-1.359-0.42-2.038l11.413-17.338
						c0.447-0.679,1.359-0.867,2.038-0.42l0,0c0.678,0.447,0.866,1.359,0.42,2.037l-11.414,17.338
						C3194.13,753.702,3193.218,753.89,3192.539,753.443z"/>
					<path style="fill:#FFFFFF;" d="M3208.654,771.713L3208.654,771.713c-0.328-0.743,0.009-1.612,0.752-1.94l18.993-8.375
						c0.743-0.328,1.612,0.009,1.939,0.753l0,0c0.328,0.743-0.009,1.612-0.753,1.939l-18.993,8.375
						C3209.85,772.793,3208.982,772.456,3208.654,771.713z"/>
					<path style="fill:#FFFFFF;" d="M3130.556,771.731L3130.556,771.731c-0.358,0.729-1.24,1.03-1.969,0.672l-18.632-9.151
						c-0.729-0.358-1.03-1.24-0.672-1.969l0,0c0.358-0.729,1.24-1.03,1.969-0.672l18.632,9.151
						C3130.614,770.12,3130.914,771.001,3130.556,771.731z"/>
					<path style="fill:#FFFFFF;" d="M3146.663,753.453L3146.663,753.453c-0.697,0.418-1.6,0.193-2.019-0.504l-10.688-17.794
						c-0.418-0.697-0.193-1.6,0.504-2.018l0,0c0.697-0.418,1.6-0.193,2.019,0.504l10.688,17.794
						C3147.585,752.131,3147.359,753.035,3146.663,753.453z"/>
				</g>
			</g>
		</g>
		<g>
			<path style="fill:#DEE4FC;" d="M4477.826,2097.425h-185.85c-22.188,0-40.174-17.987-40.174-40.174v-186.077
				c0-22.188,17.987-40.174,40.174-40.174h185.85c22.188,0,40.174,17.986,40.174,40.174v186.077
				C4518,2079.438,4500.014,2097.425,4477.826,2097.425z"/>
			<g>
				<rect x="4285.161" y="1985.599" style="fill:#FFFFFF;" width="57.052" height="55.323"/>
				<rect x="4356.375" y="1936.551" style="fill:#FFFFFF;" width="57.052" height="104.371"/>
				<rect x="4427.588" y="1887.502" style="fill:#FFFFFF;" width="57.052" height="153.42"/>
			</g>
		</g>
		<g>
			<path style="fill:#DEE4FC;" d="M1355.993,2084.44h-199.771c-22.188,0-40.174-17.987-40.174-40.174v-174.342
				c0-22.188,17.986-40.174,40.174-40.174h199.771c22.188,0,40.174,17.987,40.174,40.174v174.342
				C1396.167,2066.453,1378.181,2084.44,1355.993,2084.44z"/>
			<g>
				<g>
					<g>
						<circle style="fill:#ACBCF8;" cx="1253.801" cy="1957.095" r="80.402"/>
						<path style="fill:#FFFFFF;" d="M1253.801,2027.014c-18.676,0-36.234-7.273-49.44-20.479
							c-13.206-13.206-20.479-30.764-20.479-49.44c0-18.676,7.273-36.234,20.479-49.44c13.206-13.206,30.764-20.479,49.44-20.479
							c18.676,0,36.234,7.273,49.44,20.479c13.206,13.206,20.479,30.764,20.479,49.44c0,18.676-7.273,36.234-20.479,49.44
							C1290.036,2019.741,1272.477,2027.014,1253.801,2027.014z"/>
						<path style="fill:#ACBCF8;" d="M1253.801,2016.531c-15.876,0-30.802-6.182-42.028-17.409
							c-11.226-11.226-17.409-26.152-17.409-42.028c0-15.876,6.182-30.802,17.409-42.028c11.226-11.226,26.152-17.408,42.028-17.408
							c15.876,0,30.802,6.182,42.028,17.408c11.226,11.226,17.408,26.152,17.408,42.028c0,15.876-6.182,30.802-17.408,42.028
							C1284.603,2010.349,1269.677,2016.531,1253.801,2016.531z"/>
						<path style="fill:#FFFFFF;" d="M1253.801,2006.048c-13.076,0-25.369-5.092-34.615-14.338
							c-9.246-9.246-14.338-21.54-14.338-34.615c0-13.076,5.092-25.369,14.338-34.616c9.246-9.246,21.539-14.338,34.615-14.338
							s25.369,5.092,34.615,14.338c9.246,9.246,14.338,21.54,14.338,34.616c0,13.076-5.092,25.369-14.338,34.615
							S1266.877,2006.048,1253.801,2006.048z"/>
						<path style="fill:#ACBCF8;" d="M1253.801,1995.566c-10.276,0-19.937-4.002-27.203-11.268
							c-7.266-7.266-11.268-16.927-11.268-27.203s4.002-19.937,11.268-27.203c7.266-7.266,16.927-11.268,27.203-11.268
							s19.937,4.002,27.203,11.268s11.268,16.927,11.268,27.203s-4.002,19.937-11.268,27.203
							C1273.738,1991.564,1264.077,1995.566,1253.801,1995.566z"/>
						<path style="fill:#FFFFFF;" d="M1253.801,1985.083c-7.476,0-14.505-2.911-19.791-8.198
							c-5.286-5.286-8.198-12.315-8.198-19.791s2.911-14.505,8.198-19.792c5.286-5.286,12.315-8.197,19.791-8.197
							s14.505,2.911,19.791,8.198c5.286,5.286,8.198,12.315,8.198,19.791c0,7.476-2.911,14.505-8.198,19.791
							C1268.306,1982.172,1261.277,1985.083,1253.801,1985.083z"/>
						<path style="fill:#ACBCF8;" d="M1253.801,1974.601c-4.676,0-9.072-1.821-12.379-5.127c-3.306-3.307-5.127-7.703-5.127-12.379
							c0-4.676,1.821-9.072,5.128-12.379c3.306-3.306,7.702-5.127,12.378-5.127s9.072,1.821,12.379,5.127
							c3.307,3.306,5.127,7.703,5.127,12.379c0,4.676-1.821,9.072-5.127,12.378
							C1262.874,1972.78,1258.477,1974.601,1253.801,1974.601z"/>
						<path style="fill:#FFFFFF;" d="M1253.801,1964.118c-1.903,0-3.62-0.711-4.966-2.057c-1.346-1.346-2.057-3.063-2.057-4.966
							c0-1.903,0.712-3.621,2.058-4.967c1.345-1.345,3.062-2.056,4.966-2.056c1.903,0,3.62,0.711,4.966,2.057
							c1.346,1.346,2.057,3.063,2.057,4.966c0,1.903-0.711,3.62-2.057,4.966C1257.422,1963.407,1255.705,1964.118,1253.801,1964.118
							z"/>
					</g>
				</g>
				<g>
					<g>
						
							<line style="fill:none;stroke:#1B1464;stroke-width:1.1668;stroke-miterlimit:10;" x1="1256.746" y1="1954.808" x2="1327.916" y2="1907.884"/>
						<g>
							<path style="fill:#1B1464;" d="M1257.138,1954.55c0.347-1.689-0.495-4.022-1.376-5.445c-0.159,2.795-0.895,5.626-2.484,7.99
								c2.773-0.569,5.65,0.022,8.322,0.865C1260.494,1956.543,1258.932,1954.969,1257.138,1954.55z"/>
						</g>
						<g>
							<g>
								<polygon style="fill:#1B1464;" points="1332.602,1909.766 1332.337,1909.691 1327.666,1908.753 1336.116,1903.182 
									1341.1,1904.163 								"/>
								<path style="fill:#1B1464;" d="M1336.606,1897.347l-1.129,4.866l-8.449,5.571c0.556-1.55,0.913-3.182,1.105-4.851
									L1336.606,1897.347z"/>
							</g>
						</g>
					</g>
				</g>
			</g>
		</g>
		<g>
			<g>
				<path style="fill:#DEE4FC;" d="M3914.431,1463.235l-199.771,0c-22.188,0-40.174-17.987-40.174-40.174l0-174.342
					c0-22.188,17.987-40.174,40.174-40.174l199.771,0c22.188,0,40.174,17.987,40.174,40.174l0,174.342
					C3954.605,1445.248,3936.619,1463.235,3914.431,1463.235z"/>
			</g>
			<g>
				<path style="fill:#FFFFFF;" d="M3916.139,1293.479c-5.554-12.983-13.503-24.641-23.626-34.651
					c-10.123-10.009-21.914-17.869-35.045-23.36c-13.599-5.687-28.04-8.571-42.922-8.571c-14.881,0-29.322,2.884-42.921,8.571
					c-13.131,5.491-24.922,13.351-35.045,23.36s-18.072,21.667-23.626,34.651c-5.752,13.446-8.669,27.724-8.669,42.438
					c0,14.714,2.917,28.992,8.669,42.438c5.554,12.983,13.503,24.641,23.626,34.651s21.914,17.869,35.045,23.36
					c13.599,5.687,28.04,8.571,42.921,8.571c14.881,0,29.322-2.884,42.922-8.571c13.131-5.492,24.922-13.351,35.045-23.36
					c10.124-10.009,18.073-21.667,23.626-34.651c5.752-13.446,8.668-27.724,8.668-42.438
					C3924.808,1321.204,3921.891,1306.925,3916.139,1293.479z M3814.546,1436.065c-55.94,0-101.288-44.838-101.288-100.148
					c0-55.31,45.348-100.147,101.288-100.147c55.94,0,101.288,44.838,101.288,100.147
					C3915.834,1391.227,3870.486,1436.065,3814.546,1436.065z"/>
				<rect x="3808.04" y="1226.842" style="fill:#FFFFFF;" width="13.012" height="12.865"/>
				<rect x="3808.04" y="1428.246" style="fill:#FFFFFF;" width="13.012" height="12.865"/>
				
					<rect x="3909.289" y="1330.15" transform="matrix(-0.0024 1 -1 -0.0024 5261.7183 -2575.865)" style="fill:#FFFFFF;" width="12.865" height="13.012"/>
				
					<rect x="3705.367" y="1329.227" transform="matrix(-0.0024 1 -1 -0.0024 5056.3867 -2372.8684)" style="fill:#FFFFFF;" width="12.865" height="13.012"/>
				<path style="fill:#FFFFFF;" d="M3794.66,1328.226L3794.66,1328.226c1.211-2.472,3.21-3.989,4.466-3.388l81.582,37.161l8.086,10
					l0,0l-12.471-1.048l-81.582-37.161C3793.486,1333.19,3793.449,1330.698,3794.66,1328.226z"/>
				<path style="fill:#FFFFFF;" d="M3814.786,1353.544L3814.786,1353.544c-2.8,0.02-5.075-0.614-5.081-1.415l-0.459-64.189
					l5.329-11.107l0,0l4.812,11.036l0.459,64.189C3819.852,1352.859,3817.586,1353.524,3814.786,1353.544z"/>
				<ellipse style="fill:#FFFFFF;" cx="3814.546" cy="1335.917" rx="13.481" ry="13.329"/>
			</g>
		</g>
		<g>
			<path style="fill:#DEE4FC;" d="M728.993,2668.44H529.222c-22.188,0-40.174-17.987-40.174-40.174v-174.342
				c0-22.188,17.987-40.174,40.174-40.174h199.771c22.188,0,40.174,17.986,40.174,40.174v174.342
				C769.167,2650.453,751.18,2668.44,728.993,2668.44z"/>
			<g>
				<path style="fill:#ACBCF8;" d="M701.888,2626.072H556.327c-7.81,0-14.142-6.332-14.142-14.142v-133.524
					c0-7.81,6.332-14.142,14.142-14.142h145.561c7.81,0,14.142,6.332,14.142,14.142v133.524
					C716.03,2619.74,709.698,2626.072,701.888,2626.072z"/>
				<g>
					<path style="fill:#FFFFFF;" d="M556.497,2472.41L556.497,2472.41c-2.102,0-3.806-1.704-3.806-3.806v-8.681
						c0-2.102,1.704-3.806,3.806-3.806l0,0c2.102,0,3.806,1.704,3.806,3.806v8.681
						C560.303,2470.706,558.599,2472.41,556.497,2472.41z"/>
					<path style="fill:#FFFFFF;" d="M571.019,2472.41L571.019,2472.41c-2.102,0-3.806-1.704-3.806-3.806v-8.681
						c0-2.102,1.704-3.806,3.806-3.806l0,0c2.102,0,3.806,1.704,3.806,3.806v8.681
						C574.825,2470.706,573.121,2472.41,571.019,2472.41z"/>
					<path style="fill:#FFFFFF;" d="M585.541,2472.41L585.541,2472.41c-2.102,0-3.806-1.704-3.806-3.806v-8.681
						c0-2.102,1.704-3.806,3.806-3.806l0,0c2.102,0,3.806,1.704,3.806,3.806v8.681
						C589.347,2470.706,587.643,2472.41,585.541,2472.41z"/>
					<path style="fill:#FFFFFF;" d="M600.063,2472.41L600.063,2472.41c-2.102,0-3.806-1.704-3.806-3.806v-8.681
						c0-2.102,1.704-3.806,3.806-3.806l0,0c2.102,0,3.806,1.704,3.806,3.806v8.681
						C603.869,2470.706,602.165,2472.41,600.063,2472.41z"/>
					<path style="fill:#FFFFFF;" d="M614.586,2472.41L614.586,2472.41c-2.102,0-3.806-1.704-3.806-3.806v-8.681
						c0-2.102,1.704-3.806,3.806-3.806l0,0c2.102,0,3.806,1.704,3.806,3.806v8.681
						C618.391,2470.706,616.687,2472.41,614.586,2472.41z"/>
					<path style="fill:#FFFFFF;" d="M629.108,2472.41L629.108,2472.41c-2.102,0-3.806-1.704-3.806-3.806v-8.681
						c0-2.102,1.704-3.806,3.806-3.806h0c2.102,0,3.806,1.704,3.806,3.806v8.681C632.913,2470.706,631.209,2472.41,629.108,2472.41z
						"/>
					<path style="fill:#FFFFFF;" d="M643.63,2472.41L643.63,2472.41c-2.102,0-3.806-1.704-3.806-3.806v-8.681
						c0-2.102,1.704-3.806,3.806-3.806l0,0c2.102,0,3.806,1.704,3.806,3.806v8.681C647.435,2470.706,645.732,2472.41,643.63,2472.41
						z"/>
					<path style="fill:#FFFFFF;" d="M658.152,2472.41L658.152,2472.41c-2.102,0-3.806-1.704-3.806-3.806v-8.681
						c0-2.102,1.704-3.806,3.806-3.806l0,0c2.102,0,3.806,1.704,3.806,3.806v8.681
						C661.957,2470.706,660.253,2472.41,658.152,2472.41z"/>
					<path style="fill:#FFFFFF;" d="M672.674,2472.41L672.674,2472.41c-2.102,0-3.806-1.704-3.806-3.806v-8.681
						c0-2.102,1.704-3.806,3.806-3.806l0,0c2.102,0,3.806,1.704,3.806,3.806v8.681
						C676.479,2470.706,674.776,2472.41,672.674,2472.41z"/>
					<path style="fill:#FFFFFF;" d="M687.196,2472.41L687.196,2472.41c-2.102,0-3.806-1.704-3.806-3.806v-8.681
						c0-2.102,1.704-3.806,3.806-3.806l0,0c2.102,0,3.806,1.704,3.806,3.806v8.681
						C691.002,2470.706,689.298,2472.41,687.196,2472.41z"/>
					<path style="fill:#FFFFFF;" d="M701.718,2472.41L701.718,2472.41c-2.102,0-3.806-1.704-3.806-3.806v-8.681
						c0-2.102,1.704-3.806,3.806-3.806l0,0c2.102,0,3.806,1.704,3.806,3.806v8.681C705.523,2470.706,703.82,2472.41,701.718,2472.41
						z"/>
				</g>
				<g>
					<g>
						<rect x="542" y="2496.798" style="fill:#FFFFFF;" width="174" height="116.329"/>
					</g>
				</g>
				<g>
					<rect x="558.368" y="2510.963" style="fill:#E3E9F7;" width="20.842" height="20.842"/>
					<rect x="558.368" y="2544.542" style="fill:#E3E9F7;" width="20.842" height="20.842"/>
					<rect x="558.368" y="2578.121" style="fill:#E3E9F7;" width="20.842" height="20.842"/>
					<rect x="588.474" y="2510.963" style="fill:#E3E9F7;" width="20.842" height="20.842"/>
					<rect x="588.474" y="2544.542" style="fill:#E3E9F7;" width="20.842" height="20.842"/>
					<rect x="588.474" y="2578.121" style="fill:#E3E9F7;" width="20.842" height="20.842"/>
					<rect x="618.579" y="2510.963" style="fill:#E3E9F7;" width="20.842" height="20.842"/>
					<rect x="618.579" y="2544.542" style="fill:#E3E9F7;" width="20.842" height="20.842"/>
					<rect x="618.579" y="2578.121" style="fill:#E3E9F7;" width="20.842" height="20.842"/>
					<rect x="648.684" y="2510.963" style="fill:#E3E9F7;" width="20.842" height="20.842"/>
					<rect x="648.684" y="2544.542" style="fill:#E3E9F7;" width="20.842" height="20.842"/>
					<rect x="648.684" y="2578.121" style="fill:#E3E9F7;" width="20.842" height="20.842"/>
					<rect x="678.789" y="2510.963" style="fill:#E3E9F7;" width="20.842" height="20.842"/>
					<rect x="678.789" y="2544.542" style="fill:#E3E9F7;" width="20.842" height="20.842"/>
					<rect x="678.789" y="2578.121" style="fill:#E3E9F7;" width="20.842" height="20.842"/>
				</g>
			</g>
		</g>
	</g>
	<g>
		<g>
			<path style="fill:#0F31AC;" d="M3259.655,3610H1897.569c-44.183,0-80-35.817-80-80V1646.356c0-44.183,35.817-80,80-80h1362.086
				c44.183,0,80,35.817,80,80V3530C3339.655,3574.183,3303.838,3610,3259.655,3610z"/>
			<g>
				<g>
					<rect x="1888.32" y="1644.008" style="fill:#FFFFFF;" width="1380.585" height="1888.34"/>
				</g>
			</g>
			<path style="fill:#0F31AC;" d="M2578.612,1345.586L2578.612,1345.586c-46.668,0-84.5,37.832-84.5,84.5V1602h169v-171.914
				C2663.112,1383.418,2625.28,1345.586,2578.612,1345.586z M2578.612,1476.293c-21.295,0-38.558-17.263-38.558-38.558
				s17.263-38.558,38.558-38.558c21.295,0,38.558,17.263,38.558,38.558S2599.907,1476.293,2578.612,1476.293z"/>
			<path style="fill:#0F31AC;" d="M2817.642,1499.26h-478.06c-19.96,2.26-35.47,19.2-35.47,39.76v110.96
				c0,13.36,6.55,25.17,16.6,32.44c4.83,4.68,11.29,7.64,18.73,7.64h478.34c7.43,0,13.9-2.96,18.72-7.64
				c10.06-7.27,16.61-19.08,16.61-32.44v-110.96C2853.112,1518.46,2837.602,1501.52,2817.642,1499.26z"/>
			<path style="opacity:0.15;" d="M2853.112,1539.02v6.98h-549v-6.98c0-20.56,15.51-37.5,35.47-39.76h478.06
				C2837.602,1501.52,2853.112,1518.46,2853.112,1539.02z"/>
			<g>
				<g>
					
						<line style="fill:none;stroke:#ACBCF8;stroke-width:29.2826;stroke-linecap:round;stroke-miterlimit:10;" x1="2853.16" y1="2052.265" x2="2058.835" y2="2052.265"/>
				</g>
				<g>
					
						<line style="fill:none;stroke:#ACBCF8;stroke-width:26.1021;stroke-linecap:round;stroke-miterlimit:10;" x1="2853.612" y1="2119.091" x2="2058.835" y2="2119.091"/>
				</g>
				<g>
					
						<line style="fill:none;stroke:#ACBCF8;stroke-width:29.2826;stroke-linecap:round;stroke-miterlimit:10;" x1="2853.16" y1="2303.629" x2="2058.835" y2="2303.629"/>
				</g>
				<g>
					
						<line style="fill:none;stroke:#ACBCF8;stroke-width:26.1021;stroke-linecap:round;stroke-miterlimit:10;" x1="2853.612" y1="2370.456" x2="2058.835" y2="2370.456"/>
				</g>
				<g>
					
						<line style="fill:none;stroke:#ACBCF8;stroke-width:29.2826;stroke-linecap:round;stroke-miterlimit:10;" x1="2853.16" y1="2554.993" x2="2058.835" y2="2554.993"/>
				</g>
				<g>
					
						<line style="fill:none;stroke:#ACBCF8;stroke-width:26.1021;stroke-linecap:round;stroke-miterlimit:10;" x1="2853.612" y1="2621.82" x2="2058.835" y2="2621.82"/>
				</g>
				<g>
					
						<line style="fill:none;stroke:#ACBCF8;stroke-width:29.2826;stroke-linecap:round;stroke-miterlimit:10;" x1="2853.16" y1="2806.358" x2="2058.835" y2="2806.358"/>
				</g>
				<g>
					
						<line style="fill:none;stroke:#ACBCF8;stroke-width:26.1021;stroke-linecap:round;stroke-miterlimit:10;" x1="2853.612" y1="2873.184" x2="2058.835" y2="2873.184"/>
				</g>
				<g>
					<path style="fill:#F6471E;" d="M2980.663,2084.311c3.875,1.623,7.434,3.553,10.919,5.556c3.476,2.012,6.839,4.134,10.093,6.362
						c6.519,4.446,12.672,9.249,18.56,14.309l-14.278-0.092c4.843-5.778,9.949-11.292,15.263-16.6
						c5.322-5.299,10.864-10.378,16.665-15.198c5.808-4.813,11.872-9.369,18.277-13.585c3.201-2.11,6.503-4.118,9.913-6.018
						c3.421-1.889,6.908-3.713,10.7-5.231c-1.518,3.792-3.342,7.279-5.23,10.701c-1.9,3.41-3.908,6.712-6.018,9.913
						c-4.216,6.405-8.773,12.469-13.585,18.277c-4.819,5.802-9.899,11.343-15.198,16.665c-5.307,5.313-10.822,10.419-16.599,15.262
						l-8.436,7.071l-5.843-7.163c-4.907-6.016-9.551-12.29-13.828-18.921c-2.145-3.309-4.179-6.726-6.102-10.252
						C2984.025,2091.834,2982.186,2088.227,2980.663,2084.311z"/>
				</g>
				<g>
					<path style="fill:#F6471E;" d="M2980.663,2335.675c3.875,1.623,7.434,3.554,10.919,5.556c3.476,2.012,6.839,4.134,10.093,6.362
						c6.519,4.446,12.672,9.249,18.56,14.309l-14.278-0.092c4.843-5.778,9.949-11.292,15.263-16.6
						c5.322-5.299,10.864-10.378,16.665-15.197c5.808-4.813,11.872-9.37,18.277-13.585c3.201-2.11,6.503-4.118,9.913-6.018
						c3.421-1.889,6.908-3.712,10.7-5.23c-1.518,3.792-3.342,7.279-5.23,10.7c-1.9,3.41-3.908,6.712-6.018,9.913
						c-4.216,6.405-8.773,12.469-13.585,18.277c-4.819,5.802-9.899,11.343-15.198,16.665c-5.307,5.314-10.822,10.42-16.599,15.263
						l-8.436,7.071l-5.843-7.162c-4.907-6.017-9.551-12.29-13.828-18.921c-2.145-3.309-4.179-6.726-6.102-10.252
						C2984.025,2343.198,2982.186,2339.591,2980.663,2335.675z"/>
				</g>
				<g>
					<g>
						<path style="fill:none;stroke:#BDC9F9;stroke-width:7.3207;stroke-miterlimit:10;" d="M3028.631,2155.26h0.177
							c38.429,0,69.581-31.153,69.581-69.582l0,0c0-38.429-31.153-69.581-69.581-69.581h-0.177
							c-38.429,0-69.581,31.153-69.581,69.581l0,0C2959.05,2124.107,2990.202,2155.26,3028.631,2155.26z"/>
						<path style="fill:none;stroke:#BDC9F9;stroke-width:7.3207;stroke-miterlimit:10;" d="M3028.631,2406.624h0.177
							c38.429,0,69.581-31.153,69.581-69.581v0c0-38.429-31.153-69.581-69.581-69.581h-0.177c-38.429,0-69.581,31.153-69.581,69.581
							v0C2959.05,2375.471,2990.202,2406.624,3028.631,2406.624z"/>
						<path style="fill:none;stroke:#BDC9F9;stroke-width:7.3207;stroke-miterlimit:10;" d="M3028.631,2657.988h0.177
							c38.429,0,69.581-31.153,69.581-69.581v0c0-38.429-31.153-69.581-69.581-69.581h-0.177c-38.429,0-69.581,31.153-69.581,69.581
							v0C2959.05,2626.835,2990.202,2657.988,3028.631,2657.988z"/>
						<path style="fill:none;stroke:#BDC9F9;stroke-width:7.3207;stroke-miterlimit:10;" d="M3028.631,2909.352h0.177
							c38.429,0,69.581-31.153,69.581-69.581v0c0-38.429-31.153-69.581-69.581-69.581h-0.177c-38.429,0-69.581,31.153-69.581,69.581
							v0C2959.05,2878.2,2990.202,2909.352,3028.631,2909.352z"/>
					</g>
					<g>
						<path style="fill:none;stroke:#BDC9F9;stroke-width:7.3207;stroke-miterlimit:10;" d="M3028.631,3160.26h0.177
							c38.429,0,69.581-31.153,69.581-69.582l0,0c0-38.429-31.153-69.581-69.581-69.581h-0.177
							c-38.429,0-69.581,31.153-69.581,69.581l0,0C2959.05,3129.107,2990.202,3160.26,3028.631,3160.26z"/>
					</g>
				</g>
				<g>
					
						<line style="fill:none;stroke:#ACBCF8;stroke-width:29.2826;stroke-linecap:round;stroke-miterlimit:10;" x1="2853.16" y1="3057.265" x2="2058.835" y2="3057.265"/>
				</g>
				<g>
					
						<line style="fill:none;stroke:#ACBCF8;stroke-width:26.1021;stroke-linecap:round;stroke-miterlimit:10;" x1="2853.612" y1="3124.091" x2="2058.835" y2="3124.091"/>
				</g>
			</g>
		</g>
		<g>
			<path style="fill:#DB965F;" d="M1667.059,3464.877c0,0-9.63,81.102,0,99.599l-70.852,13.517l21.324-133.036L1667.059,3464.877z"
				/>
			<path style="fill:#040C2B;" d="M1664.635,3615.782c0,0,58.1,14.823,102.596,2.919c6.631-1.774,10.786-8.616,9.332-15.539
				c-1.761-8.385-9.126-18.465-32.915-22.458c0,0-63.957-28.609-81.752-51.372c0,0-36.841,19.041-58.818,4.272
				c0,0-16.715,12.424-19.441,36.902c-1.983,17.809,10.465,33.89,27.676,36.028
				C1629.373,3608.779,1653.328,3612.208,1664.635,3615.782z"/>
			<path style="fill:#DB965F;" d="M1573.383,3455.628c0,0-9.63,81.102,0,99.599l-70.851,13.517l21.324-133.036L1573.383,3455.628z"
				/>
			<path style="fill:#040C2B;" d="M1572.194,3615.608c0,0,58.1,14.823,102.596,2.919c6.631-1.774,10.786-8.616,9.332-15.539
				c-1.761-8.385-9.126-18.465-32.915-22.458c0,0-63.957-28.609-81.752-51.372c0,0-38.756,14.707-60.732-0.061
				c0,0-14.801,16.757-17.526,41.235c-1.983,17.809,10.465,33.89,27.676,36.028
				C1536.932,3608.605,1560.886,3612.034,1572.194,3615.608z"/>
			<path style="fill:#040C2B;" d="M1591.523,2852.785l45.271,302.62l-27.516,315.873l14.183,2.238l58.047,9.146l54.27-304.69
				c5.535-31.091,8.08-62.673,7.598-94.287l-4.09-266.912l-149.958,21.344L1591.523,2852.785z"/>
			<polygon style="opacity:0.15;" points="1636.793,3155.406 1609.277,3471.278 1623.461,3473.516 1674.222,3162.591 
				1684.228,2852.785 1591.523,2852.785 			"/>
			<path style="fill:#040C2B;" d="M1527.764,2826.376c0,0-22.012,51.934-11.694,179.278l8.688,160.818l-17.286,316.19l76.071,4.61
				l51.771-268.371c9.244-48.653,14.247-98.065,14.949-147.643l3.727-263.024L1527.764,2826.376z"/>
			<path style="fill:#DB965F;" d="M1749.267,2769.998l-3.152-8.441l-34.195-93.698l27.373-4.094l12.395-1.856l25.34-3.79
				l12.157,49.724l3.033,12.404l131.105-40.134c0,0,6.652-20.297,27.559-41.039c4.681,1.165,6.767,6.831,4.021,10.921l-8.072,12.02
				c0,0,32.999-25.715,54.91-17.601c0,0,30.3,13.528,17.49,40.941c0,0-4.006,28.274-67.034,36.536l-182.747,57.74
				C1761.332,2782.196,1752.646,2778.05,1749.267,2769.998L1749.267,2769.998"/>
			<path style="fill:#C9885B;" d="M1567.91,2589.545l85.049,15.526l49.404-25.222l-21.369-27.721l-12.426-16.322
				c-1.054-4.063-1.759-8.202-2.171-12.349c-3.128-31.484,10.325-63.261,10.325-63.261l-82.857-37.194l6.981,52.224l1.145,8.573
				c0.768,8.566-1.361,18.109-4.677,27.219c-7.449,20.475-20.894,38.751-20.894,38.751L1567.91,2589.545z"/>
			<path style="opacity:0.1;" d="M1597.313,2511.017c0.021,0.028,0.049,0.056,0.07,0.084c13.229,15.295,27.093,23.051,41.201,23.051
				c10.569,0,19.965-4.433,27.812-10.695c-3.128-31.484,10.325-63.261,10.325-63.261l-82.857-37.194l6.981,52.224l1.145,8.573
				C1602.759,2492.364,1600.63,2501.907,1597.313,2511.017z"/>
			<path style="fill:#DB965F;" d="M1584.099,2416.432c0,0-3.262,64.864,18.566,90.105c43.294,50.063,76.637-4.899,81.449-19.146
				c11.373-33.67,6.177-78.642,6.177-78.642l-91.555-14.309L1584.099,2416.432z"/>
			<path d="M1688.115,2470.185l8.799-33.586c3.887-7.856,0.502-34.405,0-42.719c-1.573-26.037-46.073-46.602-84.429-36.063
				c0,0-33.677,6.798-28.385,84.444l10.143,35.359c0,0-6.36-57.973,13.592-61.189c0,0,48.168,30.018,79.896,6.916
				C1687.73,2423.348,1690.887,2465.582,1688.115,2470.185z"/>
			<path style="fill:#FFFFFF;" d="M1733.945,2726.988l17.385-6.235l35.978-12.91l7.923-2.846
				c-19.774-107.488-38.979-129.343-47.754-133.385c-3.164-1.455-4.972-0.602-4.972-0.602l-5.09,92.754L1733.945,2726.988z"/>
			<path style="opacity:0.15;" d="M1710.043,2671.073l12.569,31.927c4.448,11.733,27.142,81.104,39,77l-5-42l-6-116l-3.134-45.202
				c-3.164-1.426-4.972-0.589-4.972-0.589l-5.09,90.854L1710.043,2671.073z"/>
			<path style="fill:#FFFFFF;" d="M1493.188,2689.455l1.038,53.351l0.462,23.693l0.819,41.823l0.333,17.099l0.129,6.677
				l0.333,17.016l0.243,12.354l-0.083,5.518l-0.341,23.776l-0.296,20.593l261.487-10.611l-0.887-11.073l-1.91-23.776l-1.349-16.781
				l-1.69-18.092l-0.523-5.601l-1.698-18.168l-3.805-40.754l-2.016-21.571c-0.061-0.705-0.098-1.417-0.068-2.122v-0.129
				l1.918-58.793l0.781-23.693l1.501-46.037l0.773-23.693l0.44-13.408c0.106-3.198-1.69-6.124-4.517-7.39l-54.018-24.11l-2.168-0.97
				l-19.661-8.777c7.572,19.858-0.952,29.273-9.398,36.426c-11.391,9.647-39.315,8.949-51.881,0.572
				c-31.947-21.298-18.849-41.885-18.849-41.885l-89.483,47.309l-0.621,12.233l-1.205,23.693l-2.342,46.037l-0.568,11.195
				l-0.637,12.498l-0.22,4.313C1493.188,2688.621,1493.18,2689.038,1493.188,2689.455z"/>
			<line style="fill:#9AAAF7;" x1="1652.703" y1="2896.318" x2="1652.741" y2="2896.318"/>
			<path style="fill:#040C2B;" d="M1628.011,2585.244c0,0,11.38,0.641,13.614-7.65c0.086,0.007,0.18,0.007,0.266,0.007
				c1.128,0.019,2.256-0.02,3.377-0.104c0.409,0.687,7.522,12.222,13.751,6.607l2.313,8.466l-2.543,4.573
				c-1.155,2.082-2.697,3.784-4.48,5.122l18.668,230.641c0.19,2.353-0.589,4.686-2.189,6.552l-13.71,15.995
				c-1.751,2.043-5.198,1.969-6.839-0.147l-11.376-10.258c-2.348-2.117-3.667-4.989-3.667-7.983v-232.847
				c-3.19-1.433-5.965-3.791-7.788-7.076l-1.976-3.562L1628.011,2585.244z"/>
			<path style="fill:#E3E9F7;" d="M1489.827,2689.157l6.785,221.843l260-7l-9.836-159.768c-0.065-0.747-0.094-1.494-0.065-2.234
				l5.561-164.443c0.108-3.168-1.739-6.078-4.648-7.335l-55.341-23.888c-0.014,7.256-0.474,14.498-1.394,21.682
				c-0.912,7.184-2.285,14.311-4.095,21.338l-36.87,142.94l-69.236-159.91c-1.02-2.356-2.206-4.627-3.563-6.811l-14.724-20.572
				l-66.804,33.727l-4.871,92.484l-0.877,16.697C1489.827,2688.323,1489.82,2688.74,1489.827,2689.157z"/>
			<path style="opacity:0.15;" d="M1645.253,2577.469c0,0.007,0.007,0.014,0.014,0.029c0.409,0.761,7.522,13.557,13.751,7.328
				l2.313,9.39l1.746,7.098c0,0,31.029-10.403,29.09-55.032l-2.234-0.963c1.236,13.176-1.825,33.644-25.777,51.706l-1.336-5.791
				l-2.515-10.906c0,0-7.328,5.467-15.022-2.831C1645.275,2577.49,1645.261,2577.476,1645.253,2577.469z"/>
			<g>
				<path style="opacity:0.15;" d="M1565.673,2542.82c7.213,17.824,18.319,35.59,58.027,58.703l1.731-6.186l2.579-9.246
					c0,0,11.38,0.711,13.614-8.485c0.014-0.043,0.029-0.094,0.036-0.137c-0.022,0.043-0.043,0.094-0.072,0.137
					c-2.249,4.231-10.036,7.033-15.015,5.611l-2.119,10.173l-0.754,3.635c0,0-45.785-20.769-55.024-56.173L1565.673,2542.82z"/>
			</g>
			<polygon style="opacity:0.15;" points="1491.177,2688.828 1494.547,2861.472 1496.612,2911 1532.688,2668.584 1494.065,2671.384 
							"/>
			<path style="fill:#DB965F;" d="M1504.612,2805l15-97l-58.457-55.259l-17.056,135.591c-2.72,21.626,7.746,42.784,26.585,53.746
				l23.928,13.922L1504.612,2805z"/>
			<path style="fill:#DB965F;" d="M1493.268,2790.75l139.32,90.904l28.609,6.704c0,0,40.375,9.211,49.645,31.524
				c0,0,14.77,29.118-30.23-5.882c0,0-26,61-57.455,17.045L1488.612,2853L1493.268,2790.75z"/>
			<path style="fill:#FFFFFF;" d="M1502.088,2577.949c0,0-38.303-1.014-52.062,134.809l66.29,25.224
				C1516.316,2737.983,1567.282,2586.725,1502.088,2577.949z"/>
		</g>
		<g>
			<g>
				<g>
					<ellipse style="fill:#829CF8;" cx="1229.51" cy="3640.366" rx="13.793" ry="17.962"/>
					<ellipse style="fill:#829CF8;" cx="1290.34" cy="3640.366" rx="13.793" ry="17.962"/>
					<ellipse style="fill:#829CF8;" cx="1403.512" cy="3640.366" rx="13.793" ry="17.962"/>
					<ellipse style="fill:#829CF8;" cx="1464.342" cy="3640.366" rx="13.793" ry="17.962"/>
				</g>
				<polygon style="fill:#829CF8;" points="1478.135,3636.463 1478.488,3567.422 1361.072,3516.873 1361.072,3497.037 
					1329.95,3493.838 1329.95,3520.072 1215.364,3564.862 1215.364,3640.366 1225.266,3640.366 1224.559,3582.779 1329.95,3567.422 
					1329.95,3585.978 1358.243,3584.698 1358.243,3567.422 1464.342,3581.499 1464.342,3640.366 				"/>
				<polygon style="fill:#829CF8;" points="1340.56,3507.275 1276.194,3570.621 1276.194,3640.366 1290.34,3640.366 
					1290.34,3588.537 1340.56,3567.422 1403.512,3586.618 1403.512,3640.366 1416.951,3640.366 1416.951,3573.82 1346.926,3507.275 
									"/>
				<rect x="1332.613" y="3339.598" style="fill:#829CF8;" width="25.089" height="180.497"/>
				<rect x="1310.499" y="3308.969" style="fill:#829CF8;" width="69.318" height="43.01"/>
				<path style="fill:#829CF8;" d="M1416.902,3319.396h-119.44c-24.833,0-44.964-20.131-44.964-44.964v-3.259h209.368v3.259
					C1461.866,3299.265,1441.735,3319.396,1416.902,3319.396z"/>
				<path style="fill:#6275BA;" d="M1292.462,3082.518v28.673h106.099c0,0,43.854-11.73,48.805,147.275h19.805
					c0,0,7.781-175.296-70.025-175.948H1292.462z"/>
				<path style="fill:#6275BA;" d="M1155.948,2779.496h133.684c0,0,13.439-1.303,12.732,29.325l19.805,307.583
					c0,0,5.659,101.007,80.635,104.917h79.928c0,0,37.488,14.988,14.854,49.526l-9.195,7.82l-152.782,6.517l-142.879-88.626
					L1155.948,2779.496z"/>
				<path style="fill:#829CF8;" d="M1183.534,2798.394c0,0-19.805-43.01-39.61,0l24.049,353.851c0,0,2.264,106.688,85.657,128.937
					l80.564,4.002c0,0,53.757-25.415,0-63.863l-60.122,3.91c0,0-72.147-15.64-70.025-102.962L1183.534,2798.394z"/>
				<g>
					<path style="fill:#DB965F;" d="M1472.115,3555.975l13.422,21.491l26.642,33.619l20.299,10.149l20.933-17.761
						c-1.706-0.679-3.692-4.009-5.811-9.02c-3.495-8.246-7.333-21.047-10.815-34.063c-7.777-29.033-8.988-59.43-3.52-88.99
						l38.542-208.561l8.849-37.781c4.593-19.607-3.521-39.994-20.33-51.089l-41.168-15.795l-46.94,16.492l3.019,6.039l35.04,70.081
						l-29.179,255.634c-0.406,20.381-3.299,30.74-5.316,35.535c-1.116,2.664-1.966,3.616-1.966,3.616L1472.115,3555.975z"/>
					<path style="fill:#040C2B;" d="M1468.988,3576.375l-0.958,35.877l6.724,2.258l0.051-32.294c0,0,8.081-4.028,21.053,17.97
						c0,0,10.72,26.934,26.864,30.549c0,0,7.568,1.935,18.624,2.62c10.974,0.679,25.379,0.121,39.24-4.77
						c0,0,11.665-2.671-6.705-13.911c0,0-20.971-12.23-26.28-20.222c-0.241-0.355-0.45-0.71-0.622-1.047
						c0.114,0.552,3.26,15.858-14.355,16.715c0,0-9.337,3.482-27.035-15.427c-4.25-4.535-8.982-10.365-14.177-17.837
						c0,0-19.163-20.641-15.37-35.002c0,0-0.089,0.032-0.26,0.102C1473.231,3543.015,1453.028,3552.353,1468.988,3576.375z"/>
					<path style="opacity:0.15;" d="M1468.988,3576.375l-0.958,35.877l6.724,2.258l0.051-32.294c0,0,8.081-4.028,21.053,17.97
						c0,0,10.72,26.934,26.864,30.549c0,0,7.568,1.935,18.624,2.62c-11.938-8.164-21.656-16.943-21.656-16.943
						c-1.465-0.977-2.854-2.208-4.174-3.66c-3.933-4.333-7.206-10.638-9.927-18.059c-6.577-17.918-9.946-42.352-11.658-61.313
						c-1.549-17.155-0.856-34.438,1.976-51.429l27.374-164.243c27.276-124.328,0-118.619,0-118.619l-48.044-18.383l35.04,70.081
						l-29.179,255.634c-0.406,20.381-3.299,30.74-5.316,35.535C1473.231,3543.015,1453.028,3552.353,1468.988,3576.375z"/>
				</g>
				<path style="fill:#DB965F;" d="M1430.985,3531.16c-0.634,31.716-7.282,39.151-7.282,39.151l-1.702,10.401l13.425,21.493
					l26.642,33.619l20.298,10.149l20.933-17.761c-6.401-2.56-16.819-42.434-22.954-68.263c-3.329-14.016-3.856-28.549-1.535-42.767
					l42.25-258.783l0,0c5.573-21.494,0.416-44.357-13.845-61.378l-16.603-19.816l-83.731,49.478l30.978,19.584
					c14.658,9.266,22.3,26.441,19.371,43.533l-14.844,86.629c-1.468,8.634-2.487,17.337-3.054,26.076L1430.985,3531.16z"/>
				<path style="fill:#040C2B;" d="M1418.874,3601.112l-0.891,33.416c-0.039,1.465,0.883,2.784,2.273,3.25l0,0
					c2.157,0.723,4.389-0.88,4.393-3.155l0.68-28.938c0,0,7.446-2.755,20.417,19.245c0,0,10.72,26.93,26.862,30.545
					c0,0,30.039,7.675,57.865-2.147c0,0,11.667-2.672-6.705-13.916c0,0-22.91-13.357-26.906-21.282c0,0,3.59,15.861-14.353,16.728
					c0,0-14.362,5.359-41.21-33.26c0,0-19.164-20.646-15.372-35.002C1425.928,3566.595,1401.872,3575.517,1418.874,3601.112z"/>
				<g>
					<path style="fill:#040C2B;" d="M1255.441,3198.95c24.333,32.389,146.46,51.279,188.643,56.918
						c1.44,0.19,2.81,0.603,4.072,1.199l30.232-16.442l57.032-31.025l42.747-20.838c-5.804-10.06-14.253-18.49-24.764-24.028
						l-153.317-78.403l-27.619-0.964l-18.421-0.635l-73.157-2.543c-2.119,5.201-3.654,10.396-4.694,15.522l-36.931-1.281
						C1218.124,3148.356,1255.441,3198.95,1255.441,3198.95z"/>
				</g>
				<path style="fill:#FFFFFF;" d="M1355.944,2896.109c13.93,22.461,47.093,50.08,73.48,69.966
					c20.571,15.503,26.188,17.925,26.188,17.925l39.675-40.818l-82.539-100.598c-4.65-3.21-8.925-5.461-12.845-6.895
					C1358.538,2820.548,1355.944,2896.109,1355.944,2896.109z"/>
				<path style="opacity:0.1;" d="M1355.944,2896.109c13.93,22.461,47.093,50.08,73.48,69.966
					c-2.417-68.59-12.293-104.677-23.178-125.064C1364.882,2825.87,1355.944,2896.109,1355.944,2896.109z"/>
				<path style="fill:#DB965F;" d="M1498.246,2995.419l96.335,8.801c0,0,40.03,24.78,47.03-26.22c0,0,22.612,10.174,32,9
					c8-1,5.987-7.239-19.706-20.837c0,0-34.214-15.43-53.53-0.998c0,0-14.262,6.199-34.142,0.055l-63.14-11.294L1498.246,2995.419z"
					/>
				<path style="fill:#FFFFFF;" d="M1488.612,2941l-44,36l14.814,10.101c4.719,3.217,10.154,5.229,15.829,5.86l90.356,10.04
					c0,0,4-19,9-37L1488.612,2941z"/>
				<g>
					<path style="fill:#131A3F;" d="M1290.481,2632c0,0,58.993-0.635,65.97,78.022c0,0,1.59,43.991,7.677,58.333
						c1.865,4.396,2.202,9.34,0.557,13.823c-1.157,3.155-3.26,6.114-7.036,7.407c-3.947,1.352-7.12,4.432-8.096,8.489
						c-1.534,6.38-0.323,16.251,13.241,28.031c0,0,19.03,18.396,4.44,27.91l-158.582,5.075l-20.298-24.104l-5.709-9.515
						c0,0,19.075-0.308,29.585-7.137c5.865-3.811,7.123-11.927,2.88-17.488c-4.88-6.396-11.972-18.63-3.919-28.025
						c0,0,8.246-15.858,6.343-39.328C1217.534,2733.493,1213.094,2637.075,1290.481,2632z"/>
					<path style="fill:#C9885B;" d="M1243.224,2813.735l20.298,47.574l83.097-3.172l-15.858-33.619c0,0-6.667-6.108-12.002-19.892
						c-2.728-7.048-5.113-16.099-6.077-27.365l-52.966-51.698c0,0,0.749,26.838-3.203,51.742
						C1254.147,2792.187,1250.106,2806.377,1243.224,2813.735z"/>
					<path style="opacity:0.15;" d="M1256.513,2777.306c0.049,0.073,0.098,0.146,0.146,0.219
						c6.366,9.526,15.158,17.214,25.505,22.134c14.297,6.799,26.397,7.738,36.595,4.967c-2.728-7.048-5.113-16.099-6.077-27.365
						l-52.966-51.698C1259.717,2725.563,1260.465,2752.402,1256.513,2777.306z"/>
					<path style="fill:#DB965F;" d="M1325.37,2656.739c0,0,49.478,99.589-14.589,138.918c0,0-55.187,8.246-62.799-76.119
						C1247.981,2719.537,1260.668,2616.142,1325.37,2656.739z"/>
					<path style="fill:#131A3F;" d="M1331.713,2679.575c0,0-18.398-28.991-46.831,7.631c-3.594,4.629-6.052,10.032-7.324,15.753
						c-4.827,21.708-21.993,82.658-61.927,78.743l40.597-124.328l39.328-17.761l35.839,15.541l25.056,102.444l-10.149,28.545
						C1346.302,2786.142,1341.862,2684.649,1331.713,2679.575z"/>
				</g>
				<path style="fill:#FFFFFF;" d="M1182.015,2836.536l1.801,6.279l33.969,118.233l1.02,3.538c2.406,8.948,4.367,17.897,5.96,26.686
					c0.685,3.785,1.299,7.538,1.849,11.251c2.072,13.961,3.251,27.371,3.865,39.634c0.9,18.247,0.534,33.953-0.064,45.164
					c-0.51,9.65,8.215,17.562,18.685,16.901l154.218-9.793c10.239-0.654,17.682-9.243,16.088-18.598
					c-3.705-21.65-9.65-57.611-10.94-72.655c0,0,0.637-30.997,4.438-68.997c0,0,11.419-102.321-20.295-102.902l-44.79-4.175
					l-1.339-0.127l-0.645-0.056l-9.682-0.908l-14.518-16.104l-0.709-1.434c-0.008,0.199-0.024,0.398-0.04,0.598l-0.271-0.295
					c0.016,0.056,0.096,0.366,0.223,0.892c-0.932,9.044-7.402,16.622-11.163,20.335c-0.223,0.215-0.438,0.422-0.637,0.614
					l-0.024,0.024c-0.271,0.247-0.51,0.478-0.733,0.677c-0.072,0.064-0.135,0.119-0.199,0.183c-0.104,0.088-0.199,0.175-0.287,0.247
					c-0.128,0.12-0.239,0.215-0.343,0.303c-0.112,0.096-0.207,0.175-0.287,0.239c-0.072,0.056-0.12,0.095-0.151,0.119
					c-0.024,0.024-0.04,0.032-0.04,0.032c-0.08-0.032-0.167-0.072-0.255-0.104c-0.558-0.215-1.116-0.446-1.681-0.685
					c-0.709-0.303-1.426-0.621-2.144-0.94c-0.159-0.08-0.319-0.151-0.486-0.223c-0.175-0.08-0.351-0.151-0.518-0.239
					c-0.191-0.088-0.398-0.183-0.59-0.279c-0.056-0.024-0.096-0.04-0.151-0.064c-0.032-0.016-0.056-0.032-0.088-0.048
					c-0.096-0.04-0.183-0.088-0.279-0.135c-24.686-11.801-51.85-29.307-51.85-29.307l-15.889,21.61l-0.821,0.948l-0.096,0.112
					c-10.94,1.801-19.897,3.769-27.044,5.626C1189.003,2832.895,1182.015,2836.536,1182.015,2836.536z"/>
				<path style="opacity:0.1;" d="M1183.815,2842.815l33.969,118.233l1.02,3.538c2.406,8.948,4.367,17.897,5.96,26.686
					c0.343,1.896,0.669,3.777,0.972,5.649c0.127,0.781,0.255,1.562,0.382,2.343c0.167,1.092,0.335,2.175,0.494,3.259
					c0.231-3.625,0.382-7.386,0.446-11.259c0.98-53.635-12.932-128.855-30.773-147.078
					C1189.266,2846.01,1185.656,2844.775,1183.815,2842.815z"/>
				<path style="opacity:0.15;" d="M1182.988,2841.709l-0.977-5.176C1182.011,2836.533,1181.587,2839.317,1182.988,2841.709z"/>
				<path style="opacity:0.15;" d="M1249.117,2832.162l0.057,2.125l35.598,30.511l15.192-28.583l0.209-0.393l2.017-3.787
					l0.704-1.326c-0.165-0.076-0.323-0.146-0.488-0.222c-0.171-0.076-0.349-0.152-0.52-0.235c-0.19-0.089-0.393-0.184-0.59-0.279
					c-0.051-0.025-0.095-0.044-0.146-0.07c-0.032-0.013-0.057-0.025-0.089-0.044l-2.017,3.172l-16.175,25.424L1249.117,2832.162z"/>
				<path style="opacity:0.15;" d="M1308.078,2831.503l0.951,1.465l0.888,1.376l0.469,0.717l1.11,1.713l20.216,31.196l6.312-26.832
					l-0.869-1.916l-6.077,21.136l-19.448-26.198l-1.25-1.681l-1.326-1.776l-0.044-0.063c-0.266,0.247-0.508,0.476-0.73,0.679
					C1308.211,2831.382,1308.141,2831.439,1308.078,2831.503z"/>
				<path style="fill:#131A3F;stroke:#131A3F;stroke-width:0.9047;stroke-miterlimit:10;" d="M1358.989,3022.746
					c0-0.019,0-0.038,0.006-0.057"/>
				<path style="fill:#FFFFFF;" d="M1134.868,2987.142l-6.933,25.808c-5.702,21.228,11.032,41.818,32.977,40.576l22.684-1.284
					l1.372-33.896l13.876-56.336l10.759-41.708c11.224-81.213-18.75-85.222-18.75-85.222c-17.687-8.393-29.169,48.113-29.169,48.113
					L1134.868,2987.142z"/>
				<path style="fill:#9AAAF7;stroke:#131A3F;stroke-width:0.9047;stroke-miterlimit:10;" d="M1531.368,2826.259l0.004-0.032
					C1531.372,2826.226,1531.36,2826.222,1531.368,2826.259z"/>
				<path style="opacity:0.1;" d="M1226.613,3002.523c2.072,13.961,3.968,38.75,4.582,51.013l64.073-17.777l23.188-2.295
					c-0.271-0.653-0.518-1.371-0.757-2.135c-0.048-0.175-0.096-0.351-0.151-0.534l5.156,8.39c3.275-0.247,6.279-1.777,8.566-4.135
					c13.769-14.184,44.152-1.434,44.152-1.434c35.921,0.654,5.363-39.276,5.363-39.276c-27.307-23.626-57.22,1.108-57.22,1.108
					c-2.247,0.765-4.972,1.41-7.992,1.952c0.064-1.227,0.104-1.937,0.104-1.937l-21.993-2.095l-62.854-2.112l-3.769,0.008
					C1226.995,2995.137,1226.844,2998.898,1226.613,3002.523z"/>
				<g>
					<polygon style="fill:#CC8B5B;" points="1325.742,2973.709 1394.108,3036.219 1401.658,3047.87 1405.393,3053.632 
						1399.264,3050.397 1387.042,3043.947 1387.053,3043.934 1318.688,2981.424 					"/>
					<path style="fill:#F6471E;" d="M1325.81,2973.771l-7.054,7.715l-8.198-7.496c-1.313-1.2-1.404-3.237-0.204-4.55l2.708-2.962
						c1.2-1.313,3.237-1.404,4.55-0.204L1325.81,2973.771z"/>
					<path style="fill:#040C2B;" d="M1401.658,3047.87l3.734,5.762l-6.129-3.235c-0.263-0.914-0.21-1.667,0.218-2.134
						C1399.92,3047.783,1400.691,3047.67,1401.658,3047.87z"/>
					<path style="fill:#0F31AC;" d="M1319.888,2980.112l69.59,63.629c-3.989-2.945-3.533-1.332-3.117-0.441l-67.672-61.876
						L1319.888,2980.112z"/>
					<path style="fill:#E3E9F7;" d="M1321.484,2978.366l69.645,63.68c-4.895-2.813-1.629,1.696-1.629,1.696l-44.271-40.459
						l-25.347-23.165L1321.484,2978.366z"/>
					<path style="fill:#0F31AC;" d="M1322.942,2976.772l69.534,63.578c-4.842-2.924-1.347,1.696-1.347,1.696l-69.653-63.671
						L1322.942,2976.772z"/>
					<path style="fill:#E3E9F7;" d="M1324.42,2975.156l69.449,63.5c-4.842-2.924-1.347,1.696-1.347,1.696l-69.568-63.593
						L1324.42,2975.156z"/>
					<path style="fill:#0F31AC;" d="M1325.742,2973.709l67.586,61.797c-3.631-1.691,0.567,3.174,0.567,3.174l-0.026-0.024
						l-69.457-63.492L1325.742,2973.709z"/>
				</g>
				<path style="fill:#DB965F;" d="M1333.612,3036c-3.224-0.64-7.635-0.117-10.912,0.125l-39.043,2.883l-6.48,0.475l-4.28-34.625
					c0,0,3.437,0.246,8.619,0.437c11.621,0.423,31.862-0.672,42.043-4.142c0,0,29.915-24.731,57.222-1.108
					c0,0,20.831,26.955-4.367,37.78C1376.413,3037.824,1373.954,3044.01,1333.612,3036z"/>
				<path style="fill:#FFFFFF;" d="M1318.457,3039.174c-0.273-0.657-0.521-1.374-0.756-2.137
					c-2.935-9.781-2.423-27.568-2.141-33.713c0.068-1.364,0.117-2.156,0.117-2.156l-21.996-2.094l-62.854-2.113l-58.799,0.13
					l-5.375,56.445l48.88-4.197l79.739-7.875L1318.457,3039.174z"/>
				<g>
					<path style="fill:#040C2B;" d="M1307.126,2834.871l6.482,76.075l3.832-16.017l7.612,3.172l-15.135-63.756l-0.888-1.376
						l-0.951-1.465c-0.101,0.089-0.197,0.171-0.285,0.247c-0.127,0.114-0.241,0.209-0.343,0.298
						c-0.114,0.095-0.209,0.177-0.286,0.241L1307.126,2834.871z"/>
				</g>
				<g>
					<polygon style="fill:#040C2B;" points="1283.187,2908.884 1293.336,2902.541 1300.948,2913.324 1305.997,2832.035 
						1303.771,2836.216 					"/>
				</g>
				<g>
					<g>
						<ellipse style="fill:#040C2B;" cx="1305.705" cy="2837.205" rx="13.638" ry="10.784"/>
					</g>
				</g>
				<path style="fill:#829CF8;" d="M1155.948,3096.854L1155.948,3096.854c0,7.918,6.967,14.336,15.561,14.336h90.537
					c0,0,43.854-11.73,48.805,147.275h19.805c0,0,7.781-175.296-70.025-175.948h-89.123
					C1162.916,3082.518,1155.948,3088.937,1155.948,3096.854z"/>
			</g>
			<g>
				<g>
					<path style="opacity:0.1;" d="M1006.447,3642.511c0,4.789,1.904,9.084,4.908,11.976l7.052-27.602
						C1011.634,3628.041,1006.447,3634.599,1006.447,3642.511z"/>
				</g>
				<g>
					<path style="fill:#ACBCF8;" d="M1058.512,3104.932h899.792c6.663,0,12.065-9.811,12.065-21.913s-5.402-21.913-12.065-21.913
						h-899.792c-6.663,0-12.065,9.811-12.065,21.913S1051.849,3104.932,1058.512,3104.932z"/>
				</g>
				<path style="fill:#ACBCF8;" d="M1808.678,3658.091L1808.678,3658.091c5.967-1.184,9.775-6.473,8.549-11.875l-125.893-554.833
					c-1.251-5.514-7.259-9.037-13.35-7.828l-17.742,3.521c-6.09,1.209-9.907,6.682-8.479,12.16l143.635,551.311
					C1796.796,3655.916,1802.711,3659.275,1808.678,3658.091z"/>
				<path style="fill:#ACBCF8;" d="M1169.395,3658.091L1169.395,3658.091c-5.967-1.184-9.775-6.473-8.549-11.875l125.893-554.833
					c1.251-5.514,7.26-9.037,13.35-7.828l17.742,3.521c6.09,1.209,9.907,6.682,8.479,12.16l-143.635,551.311
					C1181.277,3655.916,1175.362,3659.275,1169.395,3658.091z"/>
				<path style="fill:#ACBCF8;" d="M1983.183,3658.091L1983.183,3658.091c5.967-1.184,9.775-6.473,8.549-11.875l-125.893-554.833
					c-1.251-5.514-7.26-9.037-13.35-7.828l-17.742,3.521c-6.09,1.209-9.907,6.682-8.479,12.16l143.635,551.311
					C1971.301,3655.916,1977.216,3659.275,1983.183,3658.091z"/>
				<path style="fill:#ACBCF8;" d="M994.89,3658.091L994.89,3658.091c-5.967-1.184-9.775-6.473-8.549-11.875l125.893-554.833
					c1.251-5.514,7.26-9.037,13.35-7.828l17.742,3.521c6.09,1.209,9.907,6.682,8.479,12.16l-143.635,551.311
					C1006.772,3655.916,1000.857,3659.275,994.89,3658.091z"/>
			</g>
			<g>
				<g>
					<path style="fill:#081956;" d="M1867.63,3060.708h-179.364c-12.081,0-21.874-5.53-21.874-12.351s9.793-12.351,21.874-12.351
						h179.364c12.081,0,21.874,5.53,21.874,12.351S1879.711,3060.708,1867.63,3060.708z"/>
				</g>
				<g>
					<path style="fill:#0B2581;" d="M1674.907,3060.708h-126.196c-8.5,0-15.39-5.53-15.39-12.351s6.89-12.351,15.39-12.351h126.196
						c8.5,0,15.39,5.53,15.39,12.351S1683.407,3060.708,1674.907,3060.708z"/>
				</g>
				<path style="fill:#0B2581;" d="M1682.661,3031.367l76.022-162.851c1.544-3.308,4.865-5.422,8.515-5.422h190.289
					c6.908,0,11.455,7.203,8.484,13.439l-76.468,168.238l-198.523-0.033C1684.191,3044.596,1679.788,3037.521,1682.661,3031.367z"/>
			</g>
			<path style="opacity:0.1;" d="M1495.612,2941c0,0,1,18-4,22C1491.612,2963,1499.612,2955,1495.612,2941z"/>
		</g>
		<g>
			<path style="fill:#DB965F;" d="M3419.614,3471.228c0,0,9.28,80.41,0,98.75l68.274,13.402l-20.549-131.901L3419.614,3471.228z"/>
			<path style="fill:#040C2B;" d="M3421.95,3620.846c0,0-55.987,14.697-98.865,2.894c-6.39-1.759-10.393-8.542-8.992-15.406
				c1.697-8.313,8.794-18.307,31.718-22.266c0,0,61.63-28.365,78.779-50.933c0,0,35.501,18.878,56.678,4.236
				c0,0,16.107,12.318,18.734,36.587c1.911,17.657-10.085,33.602-26.669,35.721
				C3455.93,3613.903,3432.846,3617.303,3421.95,3620.846z"/>
			<path style="fill:#DB965F;" d="M3509.884,3462.058c0,0,9.28,80.41,0,98.75l68.274,13.402l-20.549-131.901L3509.884,3462.058z"/>
			<path style="fill:#040C2B;" d="M3511.03,3620.674c0,0-55.987,14.697-98.865,2.895c-6.39-1.759-10.393-8.543-8.992-15.406
				c1.697-8.313,8.794-18.307,31.718-22.266c0,0,61.63-28.365,78.779-50.933c0,0,37.346,14.582,58.523-0.061
				c0,0,14.262,16.615,16.889,40.883c1.911,17.657-10.085,33.601-26.669,35.721
				C3545.009,3613.73,3521.926,3617.131,3511.03,3620.674z"/>
			<path style="fill:#040C2B;" d="M3492.403,2864.357l-43.624,300.039l26.516,313.178l-13.668,2.219l-55.936,9.067l-52.296-302.091
				c-5.333-30.825-7.786-62.138-7.322-93.483l3.941-264.635l144.503,21.162L3492.403,2864.357z"/>
			<polygon style="opacity:0.15;" points="3448.779,3164.396 3475.295,3477.575 3461.627,3479.794 3412.712,3171.521 
				3403.07,2864.357 3492.403,2864.357 			"/>
			<path style="fill:#040C2B;" d="M3553.843,2838.173c0,0,21.211,51.491,11.269,177.749l-8.372,159.446l16.658,313.494
				l-73.304,4.571l-49.888-266.083c-8.907-48.238-13.728-97.229-14.405-146.384l-3.591-260.781L3553.843,2838.173z"/>
			<path style="fill:#DB965F;" d="M3340.397,2782.276l3.037-8.368l32.952-92.899l-26.377-4.059l-11.944-1.84l-24.418-3.758
				l-11.715,49.3l-2.923,12.298l-126.336-39.792c0,0-6.41-20.124-26.556-40.688c-4.51,1.155-6.521,6.773-3.874,10.827l7.778,11.917
				c0,0-31.798-25.495-52.913-17.45c0,0-15.175,7.386-2.83,34.565c0,0,14.767,37.862,63.965,38.542l162.708,60.957
				C3328.771,2794.369,3337.141,2790.259,3340.397,2782.276L3340.397,2782.276"/>
			<path style="fill:#C9885B;" d="M3385.592,2593.749l47.607,25.007l81.962-15.393l0.3-56.751c0,0-35.557-20.519-33.148-48.095
				l1.105-8.499l6.728-51.781l-20.452,9.444l-11.584,5.351l-47.811,22.083l8.728,57.227l1.208,7.921
				c0.434,2.855,0.006,5.759-1.182,8.308c-0.402,0.884-0.901,1.72-1.482,2.502l-11.386,15.189L3385.592,2593.749z"/>
			<path style="opacity:0.15;" d="M3490.15,2438.24l-7.533,58.675c-27.992,51.782-63.414,63.908-76.431,69.346l11.384-15.192
				c2.278-3.046,3.248-6.964,2.664-10.805l-9.931-65.152L3490.15,2438.24z"/>
			<path style="fill:#DB965F;" d="M3372.034,2425.414c0,0,9.641,116.71,43.39,110.938c0,0,5.763-1.033,15.117-5.929
				c5.06-2.645,11.181-6.425,18.005-11.782c12.817-10.076,28.145-25.727,43.716-49.938l9.335-24.694l-27.001-30.602l-0.716-0.816
				l-9.258,1.163L3372.034,2425.414z"/>
			<path d="M3426.874,2367.701c0,0-99.395,16.271-50.903,88.934c0,0,8.719,1.483,18.964-31.221c0,0,7.231,35.269,62.07,18.597
				c0,0,1.205,19.879,4.821,25.65h5.424c0,0-0.603-20.52,15.066-25.009c0,0,19.284-3.206,8.437,25.009l-6.93,11.863l-1.617,19.265
				c0,0,21.805-41.388,25.42-66.397c0,0,9.039-41.041-24.708-62.844C3482.918,2371.549,3455.197,2349.105,3426.874,2367.701z"/>
			<g>
				<path style="fill:#FFFFFF;" d="M3355.162,2739.632l-16.753-6.182l-34.669-12.8l-7.635-2.822
					c19.055-106.571,37.562-128.239,46.016-132.247c3.049-1.443,4.791-0.596,4.791-0.596l4.905,91.963L3355.162,2739.632z"/>
			</g>
			<path style="opacity:0.15;" d="M3378.194,2684.194l-32.952,90.996l-6.834-39.628l1.464-57.146l2.248-87.692
				c3.049-1.413,4.791-0.584,4.791-0.584l4.905,90.079L3378.194,2684.194z"/>
			<g>
				<path style="fill:#FFFFFF;" d="M3347.863,2892.628c15.069,3.687,41.198,9.399,71.95,13.312c4.441,0.571,8.99,1.099,13.603,1.574
					v0.011h0.032c5.799,0.604,11.717,1.132,17.732,1.552c40.82,2.889,85.478,1.143,121.867-12.45
					c6.327-2.371,10.596-8.699,10.725-15.834l0.151-7.826l3.234-170.546c0.011-0.409,0-0.83-0.011-1.25l-0.83-16.664l-4.57-92.365
					l-54.801-38.136l-5.336-3.708l-2.813-1.962l-16.923-11.781c0,0,12.04,23.692-43.353,51.071c-4.462,2.21-9.27,3.352-14.066,3.406
					c-1.143,0.021-2.274-0.032-3.406-0.14c-4.775-0.463-9.453-2.016-13.679-4.689c-9.087-5.756-16.352-16.438-9.054-36.12
					l-18.95,8.699l-2.091,0.97l-14.314,6.575l-37.737,17.322c-2.727,1.25-4.463,4.161-4.355,7.33l5.217,164.208
					c0.021,0.744,0,1.488-0.065,2.231l-10.607,116.834C3334.637,2882.83,3339.962,2890.709,3347.863,2892.628z"/>
			</g>
			<g>
				<path style="fill:#E3E9F7;" d="M3453.961,2796.824c48.721,1.681,99.286,3.482,131.321,4.624l0.518-27.163l-131.138-5.681
					L3453.961,2796.824z"/>
				<path style="fill:#E3E9F7;" d="M3342.775,2793.159c19.585,0.571,48.096,1.509,79.441,2.576l0.625-28.51l-77.404-3.352
					L3342.775,2793.159z"/>
			</g>
			<path style="opacity:0.15;" d="M3444.452,2591.033l-7.147,316.488h-3.893v-0.007l7.786-315.647l-0.151-0.975
				C3442.181,2591.001,3443.313,2591.052,3444.452,2591.033z"/>
			<path style="opacity:0.15;" d="M3441.03,2591.187c-0.163,0.333-6.701,13.377-12.649,7.047l-3.809,16.468
				c0,0-29.119-10.388-27.299-54.956l2.091-0.962c-1.157,13.158,1.718,33.595,24.196,51.634l3.616-16.673
				C3427.175,2593.746,3433.798,2599.517,3441.03,2591.187z"/>
			<path style="opacity:0.15;" d="M3450.298,2598.709c-4.797-1.161-5.592-7.06-5.64-7.503
				C3445.483,2594.675,3447.899,2597.099,3450.298,2598.709z"/>
			<path style="opacity:0.15;" d="M3521.613,2550.294c-6.768,17.802-22.822,41.534-60.088,64.613l-5.424-13.466
				c0,0-2.893-0.77-5.803-2.732c1.754,0.423,4.032,0.218,7.009-1.116l4.219,12.825c0,0,48.596-26.734,57.268-62.087
				L3521.613,2550.294z"/>
			<path style="opacity:0.15;" d="M3549.097,2681.726l29.836,259.979h0.916l3.924-60.912l0.151-7.826l0.27-14.498l0.507-26.387
				l0.582-30.634l0.518-27.163l1.358-71.864c0.011-0.323,0-0.668-0.011-1.002l-0.83-16.912L3549.097,2681.726z"/>
			<path style="fill:#DB965F;" d="M3559.66,2705.062l16.955,124.541l19.116,16.175c14.114,11.942,35.668,1.202,34.629-17.257
				c-1.035-18.383-2.043-35.257-2.146-36.58l-8.537-110.14L3559.66,2705.062z"/>
			<path style="fill:#040C2B;" d="M3369.991,2815.59h101.475c7.864,0,12.579-5.818,10.531-12.996l-39.034-136.771
				c-2.048-7.177-10.084-12.996-17.948-12.996h-101.475c-7.865,0-12.579,5.818-10.531,12.996l39.034,136.771
				C3354.091,2809.772,3362.126,2815.59,3369.991,2815.59z"/>
			<path style="fill:#DB965F;" d="M3408.369,2693.637c0,0-33.004,7.255-25.077,34.579c0,0-1.095,26.62,60.921,44.926l155.356,75.322
				l23.396-29.64l4.312-5.389l-0.431-4.546l-145.944-69.147c0,0-3.011-19.747-20.31-42.331c-4.932,0.266-8.063,5.112-6.034,9.332
				l5.936,12.374C3459.613,2718.231,3431.554,2689.996,3408.369,2693.637z"/>
			<g>
				<path style="fill:#FFFFFF;" d="M3578.586,2591.865c0,0,36.91-1.005,50.168,133.659l-63.878,25.009
					C3564.875,2750.534,3515.763,2600.565,3578.586,2591.865z"/>
			</g>
		</g>
		<g>
			<g>
				<path style="fill:#FBB5A5;" d="M3792.467,3529.016L3792.467,3529.016c-2.828-0.122-5.032-1.766-4.925-3.673
					c1.847-37.053,7.321-73.804,15.037-109.946c7.716-36.161,17.639-71.743,28.404-106.971
					c10.768-35.234,22.39-70.134,33.619-105.095c11.228-34.958,22.08-69.994,31.287-105.42c0.479-1.819,3.089-2.723,5.83-2.02l0,0
					c2.741,0.703,4.572,2.761,4.089,4.598c-9.288,35.732-20.199,70.949-31.449,105.976c-11.251,35.029-22.858,69.884-33.576,104.956
					c-10.715,35.065-20.555,70.366-28.182,106.114c-7.628,35.729-13.011,71.929-14.825,108.32
					C3797.672,3527.723,3795.294,3529.138,3792.467,3529.016z"/>
			</g>
			<g>
				<path style="fill:#FBB5A5;" d="M3806.515,3578.698c-2.82,0.24-5.204-0.964-5.325-2.69c-1.167-16.726-0.439-33.392,0.874-49.835
					c0.657-8.226,1.466-16.411,2.285-24.561c0.405-4.075,0.827-8.141,1.203-12.207l1.134-12.196
					c0.184-2.033,0.389-4.064,0.556-6.099l0.504-6.104l1.009-12.208l0.883-12.217l0.441-6.109c0.149-2.036,0.259-4.075,0.39-6.112
					l0.757-12.226c0.256-4.075,0.433-8.155,0.654-12.231l0.316-6.116c0.11-2.039,0.21-4.078,0.287-6.118l0.506-12.239
					c0.187-4.079,0.296-8.161,0.425-12.242l0.374-12.243l0.254-12.246l0.127-6.123l0.069-6.124l0.129-12.248
					c0.032-4.083,0.01-8.166,0.019-12.249c0.038-8.166-0.078-16.332-0.156-24.497c-0.021-4.083-0.136-8.165-0.211-12.247
					l-0.262-12.246l-0.375-12.243l-0.189-6.122l-0.25-6.12l-0.5-12.239l-0.618-12.233c-0.38-8.157-0.93-16.305-1.422-24.457
					c-0.103-1.675,2.103-3.187,4.926-3.376l0,0c2.824-0.189,5.197,1.024,5.301,2.71c0.494,8.196,1.047,16.388,1.429,24.589
					l0.621,12.3l0.503,12.305l0.251,6.153l0.191,6.155l0.377,12.31l0.264,12.313c0.075,4.104,0.19,8.208,0.212,12.313
					c0.079,8.21,0.195,16.42,0.157,24.63c-0.008,4.105,0.014,8.21-0.019,12.315l-0.129,12.315l-0.069,6.157l-0.128,6.156
					l-0.256,12.313l-0.375,12.31c-0.129,4.103-0.24,8.207-0.427,12.308l-0.509,12.305c-0.077,2.051-0.177,4.101-0.288,6.151
					l-0.318,6.149c-0.222,4.099-0.401,8.201-0.657,12.298l-0.761,12.292c-0.132,2.048-0.242,4.098-0.392,6.145l-0.444,6.142
					l-0.888,12.283l-1.014,12.274l-0.507,6.137c-0.168,2.046-0.374,4.088-0.559,6.132l-1.14,12.262
					c-0.379,4.088-0.802,8.167-1.207,12.239c-0.819,8.145-1.62,16.258-2.267,24.356c-1.295,16.187-1.983,32.345-0.865,48.314
					C3811.528,3576.939,3809.335,3578.458,3806.515,3578.698z"/>
			</g>
			<g>
				<path style="fill:#FBB5A5;" d="M3788.967,3574.005L3788.967,3574.005c-2.819-0.255-4.986-1.968-4.841-3.828l0.522-6.796
					l0.385-6.807c0.148-2.268,0.218-4.541,0.299-6.813c0.07-2.272,0.189-4.543,0.22-6.817l0.109-6.822l0.027-1.706l-0.006-1.706
					l-0.011-3.412c0.022-4.55-0.122-9.101-0.213-13.651c-0.577-18.2-1.98-36.391-4.181-54.505
					c-2.143-18.121-5.069-36.164-8.432-54.134c-3.411-17.965-7.286-35.856-11.518-53.681c-4.206-17.83-8.766-35.595-13.436-53.344
					l-7.106-26.612c-2.395-8.87-4.777-17.746-7.216-26.57c-2.45-8.82-4.992-17.589-7.739-26.267
					c-2.749-8.676-5.688-17.271-9.024-25.677c-6.647-16.804-14.627-33.057-24.982-47.631c-1.047-1.498-0.049-4.075,2.228-5.756
					s5.031-1.747,6.15-0.147c5.438,7.724,10.338,15.809,14.609,24.175c4.3,8.353,8.102,16.923,11.532,25.605
					c3.444,8.68,6.455,17.49,9.257,26.334c2.8,8.845,5.376,17.734,7.845,26.624c2.458,8.893,4.84,17.768,7.237,26.644l7.12,26.664
					c4.684,17.802,9.265,35.648,13.499,53.598c4.26,17.942,8.169,35.988,11.616,54.14c3.399,18.161,6.361,36.428,8.537,54.816
					c2.232,18.379,3.662,36.877,4.249,55.42c0.094,4.638,0.24,9.274,0.218,13.916l0.012,3.48l0.006,1.74l-0.027,1.74l-0.111,6.962
					c-0.032,2.321-0.152,4.641-0.225,6.961c-0.083,2.32-0.154,4.641-0.305,6.959l-0.395,6.956l-0.533,6.949
					C3794.191,3572.918,3791.785,3574.26,3788.967,3574.005z"/>
			</g>
			<g>
				<path style="fill:#FBB5A5;" d="M3796.252,3613.459c-2.818,0.258-5.2-0.849-5.32-2.473
					c-10.322-126.17,43.612-255.387,140.569-336.779c1.239-1.057,3.701-0.142,5.5,2.043l0,0c1.799,2.185,2.285,4.786,1.087,5.808
					c-23.542,19.741-44.556,42.491-62.61,67.381c-18.059,24.893-33.174,51.925-45.031,80.313
					c-11.843,28.394-20.431,58.151-25.428,88.496c-4.998,30.34-6.394,61.278-3.872,91.898
					C3801.261,3611.718,3799.07,3613.201,3796.252,3613.459z"/>
			</g>
			<g>
				<path style="fill:#FBB5A5;" d="M3821.685,3593.909c-2.83-0.003-5.135-1.005-5.147-2.238c-0.14-24.045-2.452-48.068-6.417-71.873
					c-1.964-11.907-4.297-23.769-6.875-35.594c-0.633-2.958-1.32-5.909-1.978-8.863l-2.058-8.852l-2.033-8.997
					c-0.353-1.497-0.643-3.006-0.953-4.512l-0.922-4.518c-4.778-24.122-7.924-48.523-9.743-72.968
					c-1.843-24.447-2.539-48.934-2.531-73.369c-0.003-1.257,2.288-2.273,5.118-2.269l0,0c2.83,0.004,5.127,1.018,5.13,2.264
					c-0.009,24.258,0.683,48.483,2.501,72.596c1.794,24.113,4.891,48.097,9.575,71.744l0.903,4.428
					c0.305,1.475,0.588,2.955,0.934,4.421l1.992,8.815l2.077,8.935c0.665,2.987,1.358,5.965,1.999,8.959
					c2.608,11.962,4.977,23.998,6.975,36.115c4.035,24.221,6.411,48.823,6.553,73.481
					C3826.799,3592.885,3824.515,3593.912,3821.685,3593.909z"/>
			</g>
			<path style="fill:#C3D0FC;" d="M3865.781,3618.832c-7.053,0.88-13.677,1.607-19.896,2.203c-5.092,0.489-9.918,0.89-14.478,1.207
				c-54.535,3.815-71.604-3.643-71.604-3.643c-31.677-97.36-19.099-159.316-19.099-159.316c23.688,1.891,74.301,1.514,109.019,0.96
				c20.93-0.331,36.088-0.727,36.088-0.727c0.005,0.107,0.009,0.214,0.014,0.322
				C3890.414,3555.157,3865.781,3618.832,3865.781,3618.832z"/>
			<path style="opacity:0.15;" d="M3865.781,3618.832c-7.053,0.88-13.677,1.607-19.896,2.203
				c24.028-57.685,21.27-126.591,17.813-160.792c8.557-0.135,16.146-0.28,22.127-0.405
				C3890.414,3555.157,3865.781,3618.832,3865.781,3618.832z"/>
			<g>
				<path style="fill:#FDDAD2;" d="M3759.314,3144.276c-10.742-43.844-48.866-12.652-48.866-12.652
					c-3.95,7.37-6.163,5.93-6.163,5.93c-0.275,0.14-0.522,0.256-0.745,0.34c-0.247,0.098-0.47,0.168-0.666,0.214
					c-0.997,0.228-1.383-0.158-1.519-0.61c-0.079-0.27-0.074-0.563-0.051-0.764c0.014-0.149,0.037-0.247,0.037-0.247
					c-41.823-38.739-67.919,20.166-67.919,20.166c-24.596,28.844-5.124,67.099-5.124,67.099c4.146,10.574,0.895,14.641,0.895,14.641
					c-1.09,6.866-0.382,10.882,0.988,13.202c0.205,0.354,0.428,0.666,0.661,0.941c0.075,0.089,0.149,0.172,0.219,0.251
					c0.005,0,0.005,0.005,0.009,0.009c0.238,0.247,0.48,0.466,0.727,0.657c0.135,0.098,0.27,0.196,0.41,0.275
					c2.427,1.537,5.222,0.694,5.222,0.694c-4.29-3.778-2.767-6.578,0.718-8.59c0.005,0,0.005,0,0.005,0
					c5.529-3.196,15.987-4.416,15.987-4.416c44.995-5.991,51.042-22.542,51.042-22.542c17.241,2.008,26.231-13.113,26.231-13.113
					c-0.028-2.93,5.045-7.747,5.045-7.747C3765.165,3176.815,3759.314,3144.276,3759.314,3144.276z M3638.733,3206.018
					c-2.897,5.413-4.244,9.382-4.402,9.857C3635.248,3212.456,3636.785,3209.153,3638.733,3206.018z"/>
				<path style="fill:#FDDAD2;" d="M3634.331,3215.875c0.917-3.419,2.455-6.722,4.402-9.857
					C3635.835,3211.431,3634.489,3215.4,3634.331,3215.875z"/>
				<path style="opacity:0.03;" d="M3669.133,3133.492c0.517-0.14,17.72-4.705,31.048,5.502c-0.163,0.205-0.326,0.41-0.494,0.624
					c-1.015,1.295-2.147,2.749-3.373,4.328c0,0-9.801-2.972-20.883-2.972c-7.37,0-15.307,1.313-21.307,5.697
					c0.727-0.349,17.977-8.567,40.518-0.568c-2.748,3.559-5.893,7.682-9.275,12.2l0.107-0.149c0,0-30.265-4.877-49.318,17.096
					c0.526-0.522,19.351-18.959,47.753-15c-0.857,1.151-1.728,2.324-2.613,3.522l-0.102,0.135c-0.485,0.657-0.974,1.323-1.468,1.994
					l-0.056,0.074c-1.859,2.53-3.764,5.138-5.683,7.817c-18.866,6.778-29.804,22.057-35.254,32.227
					c-1.947,3.135-3.485,6.438-4.402,9.857c0.158-0.475,1.505-4.444,4.402-9.857c10.551-16.994,33.037-29.129,33.037-29.129
					c-18.74,26.306-38.823,57.666-41.59,74.706c-1.37-2.32-2.078-6.335-0.988-13.202c0,0,3.251-4.067-0.895-14.641
					c0,0-19.472-38.254,5.124-67.099c0,0,26.096-58.905,67.919-20.166c0,0-0.023,0.098-0.037,0.247
					c-0.023,0.2-0.028,0.494,0.051,0.764c-0.032,0.047-0.074,0.098-0.112,0.145
					C3697.637,3135.146,3683.113,3126.188,3669.133,3133.492z"/>
				<path style="fill:#FBB5A5;" d="M3636.698,3253.835c0,0-3.125,0.909-5.619-1.033c1.037-5.165,4.048-6.96,6.433-7.55
					C3634.006,3247.227,3632.448,3250.011,3636.698,3253.835z"/>
				<g>
					<path style="fill:#82A342;" d="M3730.198,3141.716c7.613,2.346,11.455,4.967,11.455,4.967
						C3739.331,3144.362,3735.104,3142.785,3730.198,3141.716z"/>
					<path style="fill:#FBB5A5;" d="M3735.053,3167.181c-4.532-21.633-28.7-24.47-34.346-24.838
						c0.722-0.927,1.458-1.859,2.194-2.795c5.674-0.065,17.767,0.093,27.298,2.166c-6.214-1.915-14.949-3.638-26.166-3.61
						c0.019-0.019,0.032-0.042,0.051-0.061c-0.065,0.023-0.126,0.042-0.187,0.061c-0.34,0.005-0.685,0.005-1.025,0.005
						c-0.209,0.005-0.424,0.005-0.638,0.009c-0.415-0.307-0.41-0.922-0.368-1.262c-0.163,0.205-0.335,0.424-0.512,0.643
						c-0.032,0.047-0.074,0.098-0.112,0.145c-3.605-2.497-18.13-11.455-32.11-4.151c0.517-0.14,17.72-4.705,31.048,5.502
						c-0.163,0.205-0.326,0.41-0.494,0.624c-1.015,1.295-2.147,2.749-3.373,4.328c0,0-9.801-2.972-20.883-2.972
						c-7.37,0-15.307,1.313-21.307,5.697c0.727-0.349,17.977-8.567,40.518-0.568c-2.748,3.559-5.893,7.682-9.275,12.2l0.107-0.149
						c0,0-30.265-4.877-49.318,17.096c0.526-0.522,19.351-18.959,47.753-15c-0.857,1.151-1.728,2.324-2.613,3.522l-0.102,0.135
						c-0.485,0.657-0.974,1.323-1.468,1.994l-0.056,0.074c-1.859,2.53-3.764,5.138-5.683,7.817
						c-18.866,6.778-29.804,22.057-35.254,32.227c10.551-16.994,33.037-29.129,33.037-29.129
						c-18.74,26.306-38.823,57.666-41.59,74.706c-0.019,0.093-0.033,0.186-0.047,0.28c0.293,0.363,0.601,0.661,0.927,0.913
						c0.005,0,0.005,0.005,0.009,0.009c0.005,0,0.005,0,0.009,0.005c0.131,0.102,0.266,0.2,0.401,0.284
						c1.058-6.978,6.894-23.865,32.846-61.602c10.877,14.53,2.24,29.096,1.542,30.228c11.269-15.359,0.005-32.427-0.009-32.45
						c4.495-6.475,9.563-13.551,15.284-21.27c4.081,5.944,14.707,24.209,6.303,43.146c0.391-0.689,10.961-19.784-4.77-45.214
						c2.231-2.99,4.556-6.084,6.983-9.27c0.07,0.028,28.546,10.579,27.083,40.216c0,0,6.112-24.466-25.164-42.731
						c2.87-3.75,5.874-7.635,9.019-11.651C3726.771,3144.16,3734.806,3166.487,3735.053,3167.181z M3665.867,3221.712
						c-0.032,0.047-0.047,0.07-0.047,0.07C3665.84,3221.759,3665.854,3221.735,3665.867,3221.712z"/>
					<path style="fill:#82A342;" d="M3638.733,3206.018c-2.897,5.413-4.244,9.382-4.402,9.857
						C3635.248,3212.456,3636.785,3209.153,3638.733,3206.018z"/>
				</g>
			</g>
			<g>
				<path style="fill:#FDDAD2;" d="M4001.082,3352.672c-0.149-0.457-1.439-4.258-4.22-9.447
					C3998.73,3346.23,4000.207,3349.397,4001.082,3352.672z"/>
				<path style="fill:#FDDAD2;" d="M4001.958,3295.873c0,0-25.034-56.501-65.147-19.342c0,0,0.023,0.093,0.033,0.238
					c0.023,0.191,0.032,0.47-0.047,0.731c-0.126,0.428-0.489,0.801-1.43,0.592c-0.005-0.005-0.009-0.005-0.014-0.005
					c-0.191-0.042-0.405-0.107-0.647-0.205c-0.219-0.084-0.457-0.196-0.718-0.326c0,0-2.124,1.379-5.911-5.688
					c0,0-36.568-29.92-46.868,12.135c0,0-5.618,31.211,21.922,51.545c0,0,4.868,4.621,4.835,7.43c0,0,8.627,14.501,25.165,12.578
					c0,0,5.8,15.875,48.954,21.619c0,0,10.03,1.169,15.335,4.234c0,0,0,0,0.005,0c3.34,1.933,4.803,4.621,0.689,8.24
					c0,0,2.678,0.811,5.008-0.661c0.135-0.079,0.265-0.172,0.391-0.27c0.233-0.177,0.466-0.382,0.689-0.619
					c0.005-0.005,0.005-0.005,0.009-0.01c0.075-0.079,0.145-0.163,0.219-0.247c0.224-0.265,0.438-0.568,0.634-0.904
					c1.318-2.231,1.994-6.084,0.95-12.662c0,0-3.121-3.899,0.857-14.045C4006.873,3360.233,4025.548,3323.539,4001.958,3295.873z
					 M4001.082,3352.672c-0.149-0.457-1.439-4.258-4.22-9.447C3998.73,3346.23,4000.207,3349.397,4001.082,3352.672z"/>
				<path style="opacity:0.03;" d="M4006.873,3360.233c-3.978,10.146-0.857,14.045-0.857,14.045
					c1.044,6.578,0.368,10.43-0.95,12.662c-2.665-16.397-22.029-46.602-40.052-71.878l0.163,0.219c0,0,21.568,11.646,31.686,27.945
					c2.781,5.189,4.071,8.991,4.22,9.447c-0.876-3.275-2.352-6.443-4.22-9.447c-5.227-9.759-15.717-24.41-33.815-30.913
					c-1.84-2.567-3.666-5.068-5.45-7.495l-0.051-0.074c-0.475-0.643-0.946-1.281-1.412-1.915l-0.093-0.126
					c-0.848-1.146-1.686-2.273-2.506-3.377c27.233-3.796,45.289,13.882,45.796,14.385c-18.27-21.074-47.301-16.397-47.301-16.397
					c-3.209-4.276-6.186-8.18-8.795-11.562c21.801-7.733,38.441,0.34,38.879,0.554c-5.758-4.206-13.379-5.473-20.455-5.473
					c-10.63,0-20.026,2.851-20.026,2.851c-1.174-1.514-2.26-2.907-3.238-4.151c-0.158-0.2-0.317-0.401-0.471-0.596
					c12.782-9.792,29.287-5.413,29.786-5.278c-13.411-7.001-27.349,1.589-30.801,3.983c-0.037-0.047-0.074-0.093-0.112-0.14
					c0.079-0.261,0.07-0.54,0.047-0.731c-0.009-0.144-0.033-0.238-0.033-0.238c40.113-37.16,65.147,19.342,65.147,19.342
					C4025.548,3323.539,4006.873,3360.233,4006.873,3360.233z"/>
				<path style="fill:#FBB5A5;" d="M3998.814,3389.088c0,0,2.997,0.871,5.39-0.991c-0.994-4.954-3.883-6.676-6.17-7.242
					C4001.397,3382.749,4002.89,3385.419,3998.814,3389.088z"/>
				<g>
					<path style="fill:#82A342;" d="M3909.133,3281.547c-7.302,2.25-10.987,4.764-10.987,4.764
						C3900.372,3284.085,3904.427,3282.572,3909.133,3281.547z"/>
					<path style="fill:#FBB5A5;" d="M4005.065,3386.939c-2.665-16.397-22.029-46.602-40.052-71.878l0.163,0.219
						c0,0,21.568,11.646,31.686,27.945c-5.227-9.759-15.717-24.41-33.815-30.913c-1.84-2.567-3.666-5.068-5.45-7.495l-0.051-0.074
						c-0.475-0.643-0.946-1.281-1.412-1.915l-0.093-0.126c-0.848-1.146-1.686-2.273-2.506-3.377
						c27.233-3.796,45.289,13.882,45.796,14.385c-18.27-21.074-47.301-16.397-47.301-16.397c-3.209-4.276-6.186-8.18-8.795-11.562
						c21.801-7.733,38.441,0.34,38.879,0.554c-5.758-4.206-13.379-5.473-20.455-5.473c-10.63,0-20.026,2.851-20.026,2.851
						c-1.174-1.514-2.26-2.907-3.238-4.151c-0.158-0.2-0.317-0.401-0.471-0.596c12.782-9.792,29.287-5.413,29.786-5.278
						c-13.411-7.001-27.349,1.589-30.801,3.983c-0.037-0.047-0.074-0.093-0.112-0.14c-0.168-0.209-0.331-0.415-0.489-0.615
						c0.042,0.326,0.046,0.913-0.354,1.211c-0.196-0.005-0.396-0.005-0.587-0.005c-0.005-0.005-0.009-0.005-0.014-0.005
						c-0.335,0-0.662,0-0.992-0.005c-0.061-0.019-0.116-0.037-0.182-0.061c0.014,0.019,0.032,0.042,0.046,0.061
						c-10.756-0.028-19.132,1.626-25.094,3.466c9.144-1.994,20.744-2.143,26.185-2.082c0.708,0.899,1.412,1.793,2.106,2.683
						c-5.418,0.349-28.602,3.075-32.944,23.823c0.238-0.671,7.947-22.081,33.051-23.688c3.014,3.857,5.897,7.579,8.646,11.175
						c-29.995,17.52-24.135,40.989-24.135,40.989c-1.402-28.425,25.915-38.548,25.98-38.571c2.324,3.056,4.556,6.019,6.694,8.888
						c-15.088,24.396-4.952,42.708-4.574,43.369c-8.059-18.163,2.129-35.683,6.047-41.389c5.487,7.407,10.351,14.194,14.66,20.408
						c-0.014,0.019-10.849,16.439,0.037,31.188c0,0-9.428-14.548,1.435-29.059c24.89,36.195,30.489,52.392,31.5,59.086
						c0.13-0.084,0.261-0.172,0.386-0.27c0.005-0.005,0.005-0.005,0.009-0.01c0.312-0.242,0.62-0.536,0.899-0.88
						C4005.098,3387.121,4005.084,3387.028,4005.065,3386.939z"/>
					<path style="fill:#82A342;" d="M4001.082,3352.672c-0.149-0.457-1.439-4.258-4.22-9.447
						C3998.73,3346.23,4000.207,3349.397,4001.082,3352.672z"/>
				</g>
			</g>
			<g>
				<path style="fill:#FDDAD2;" d="M3842.451,3305.898c-10.299-42.055-46.867-12.135-46.867-12.135
					c-3.787,7.067-5.912,5.688-5.912,5.688c-0.261,0.13-0.498,0.242-0.717,0.326c-0.242,0.098-0.457,0.163-0.647,0.205
					c-0.005,0-0.01,0-0.014,0.005c-0.937,0.209-1.3-0.158-1.43-0.592c-0.075-0.256-0.07-0.541-0.047-0.731
					c0.009-0.145,0.033-0.238,0.033-0.238c-40.113-37.16-65.143,19.341-65.143,19.341c-23.594,27.666-4.915,64.36-4.915,64.36
					c3.974,10.146,0.857,14.045,0.857,14.045c-1.048,6.578-0.373,10.43,0.946,12.661c0.196,0.335,0.41,0.638,0.634,0.904
					c0.074,0.084,0.144,0.168,0.219,0.247c0.005,0.005,0.005,0.005,0.009,0.009c0.224,0.238,0.457,0.443,0.689,0.62
					c0.126,0.098,0.261,0.191,0.391,0.27c2.329,1.472,5.008,0.661,5.008,0.661c-4.113-3.62-2.651-6.307,0.689-8.241
					c0.005,0,0.005,0,0.005,0c5.306-3.065,15.335-4.234,15.335-4.234c43.16-5.744,48.955-21.619,48.955-21.619
					c16.537,1.924,25.165-12.577,25.165-12.577c-0.033-2.809,4.835-7.43,4.835-7.43
					C3848.07,3337.109,3842.451,3305.898,3842.451,3305.898z M3726.799,3365.119c-2.776,5.189-4.067,8.99-4.22,9.447
					C3723.454,3371.292,3724.935,3368.124,3726.799,3365.119z"/>
				<path style="opacity:0.03;" d="M3755.951,3295.552c0.499-0.135,17.003-4.514,29.785,5.278c-0.154,0.196-0.312,0.396-0.47,0.596
					c-0.978,1.244-2.064,2.637-3.238,4.151c0,0-9.396-2.851-20.026-2.851c-7.076,0-14.697,1.267-20.455,5.474
					c0.438-0.214,17.077-8.287,38.878-0.554c-2.609,3.382-5.585,7.286-8.79,11.562c0,0-29.035-4.677-47.305,16.397
					c0.508-0.503,18.563-18.181,45.801-14.385c-0.824,1.104-1.663,2.231-2.506,3.377c-0.005,0-0.005,0-0.005,0l-0.093,0.126
					c-0.466,0.634-0.936,1.272-1.407,1.915l-0.056,0.074c-1.78,2.427-3.605,4.929-5.45,7.495
					c-18.097,6.503-28.588,21.154-33.815,30.913c-1.863,3.005-3.344,6.172-4.22,9.447c0.154-0.457,1.444-4.258,4.22-9.447
					c10.118-16.3,31.691-27.946,31.691-27.946c-17.977,25.23-37.239,55.313-39.894,71.659c-1.318-2.231-1.994-6.084-0.946-12.661
					c0,0,3.116-3.899-0.857-14.045c0,0-18.68-36.694,4.915-64.36c0,0,25.029-56.501,65.143-19.341c0,0-0.023,0.093-0.033,0.238
					c-0.023,0.191-0.028,0.475,0.047,0.731c-0.033,0.047-0.07,0.093-0.107,0.14C3783.3,3297.14,3769.362,3288.55,3755.951,3295.552z
					"/>
				<path style="fill:#FDDAD2;" d="M3722.578,3374.566c0.876-3.275,2.357-6.442,4.22-9.447
					C3724.022,3370.309,3722.732,3374.11,3722.578,3374.566z"/>
				<path style="fill:#FBB5A5;" d="M3724.847,3410.982c0,0-2.997,0.871-5.39-0.991c0.994-4.954,3.883-6.676,6.17-7.242
					C3722.264,3404.643,3720.771,3407.314,3724.847,3410.982z"/>
				<g>
					<path style="fill:#82A342;" d="M3814.528,3303.441c7.302,2.25,10.987,4.764,10.987,4.764
						C3823.289,3305.979,3819.234,3304.466,3814.528,3303.441z"/>
					<path style="fill:#FBB5A5;" d="M3819.188,3327.867c-4.346-20.749-27.531-23.474-32.944-23.823
						c0.689-0.89,1.393-1.784,2.101-2.683c5.441-0.061,17.04,0.088,26.185,2.082c-5.963-1.84-14.338-3.494-25.094-3.466
						c0.014-0.019,0.033-0.042,0.047-0.061c-0.065,0.023-0.121,0.042-0.182,0.061c-0.331,0.005-0.657,0.005-0.992,0.005
						c-0.005,0-0.01,0-0.014,0.005c-0.191,0-0.391,0-0.587,0.005c-0.396-0.298-0.396-0.885-0.354-1.211
						c-0.158,0.2-0.321,0.405-0.489,0.615c-0.033,0.047-0.07,0.093-0.107,0.14c-3.457-2.395-17.394-10.984-30.806-3.983
						c0.499-0.135,17.003-4.514,29.785,5.278c-0.154,0.196-0.312,0.396-0.47,0.596c-0.978,1.244-2.064,2.637-3.238,4.151
						c0,0-9.396-2.851-20.026-2.851c-7.076,0-14.697,1.267-20.455,5.474c0.438-0.214,17.077-8.287,38.878-0.554
						c-2.609,3.382-5.585,7.286-8.79,11.562c0,0-29.035-4.677-47.305,16.397c0.508-0.503,18.563-18.181,45.801-14.385
						c-0.824,1.104-1.663,2.231-2.506,3.377c-0.005,0-0.005,0-0.005,0l-0.093,0.126c-0.466,0.634-0.936,1.272-1.407,1.915
						l-0.056,0.074c-1.78,2.427-3.605,4.929-5.45,7.495c-18.097,6.503-28.588,21.154-33.815,30.913
						c10.118-16.3,31.691-27.946,31.691-27.946c-17.977,25.23-37.239,55.313-39.894,71.659c-0.019,0.089-0.032,0.182-0.046,0.27
						c0.279,0.345,0.587,0.638,0.899,0.88c0.005,0.005,0.005,0.005,0.009,0.009c0.126,0.098,0.256,0.187,0.387,0.27
						c1.011-6.694,6.61-22.891,31.5-59.086c10.863,14.511,1.439,29.059,1.439,29.059c10.882-14.748,0.047-31.169,0.033-31.188
						c4.309-6.214,9.172-13.001,14.66-20.408c3.918,5.706,14.105,23.226,6.047,41.389c0.377-0.661,10.514-18.973-4.574-43.369
						c2.138-2.87,4.369-5.832,6.694-8.888c0.065,0.023,27.382,10.146,25.979,38.571c0,0,5.86-23.469-24.135-40.989
						c2.753-3.596,5.632-7.318,8.646-11.175C3811.236,3305.786,3818.95,3327.196,3819.188,3327.867z"/>
					<path style="fill:#82A342;" d="M3726.799,3365.119c-2.776,5.189-4.067,8.99-4.22,9.447
						C3723.454,3371.292,3724.935,3368.124,3726.799,3365.119z"/>
				</g>
			</g>
			<g>
				<path style="fill:#FDDAD2;" d="M3857.642,3185.382c-8.767-35.795-39.889-10.332-39.889-10.332
					c-3.224,6.019-5.031,4.845-5.031,4.845c-0.224,0.112-0.428,0.205-0.61,0.275c-0.21,0.079-0.391,0.14-0.554,0.177
					c-0.005,0-0.009,0-0.014,0.005c-0.797,0.177-1.109-0.14-1.216-0.503v-0.005c-0.065-0.219-0.06-0.457-0.042-0.619
					c0.014-0.121,0.032-0.2,0.032-0.2c-34.146-31.63-55.453,16.458-55.453,16.458c-20.077,23.552-4.183,54.782-4.183,54.782
					c3.387,8.636,0.731,11.958,0.731,11.958c-0.89,5.604-0.312,8.883,0.806,10.779c0.172,0.284,0.349,0.536,0.541,0.764
					c0.061,0.07,0.121,0.14,0.177,0.205c0.005,0,0.005,0.005,0.009,0.009c0.191,0.205,0.391,0.377,0.596,0.536
					c0.107,0.079,0.219,0.158,0.331,0.224c1.984,1.258,4.262,0.568,4.262,0.568c-3.503-3.084-2.255-5.371,0.587-7.015
					c0.005,0,0.005,0,0.005,0c4.514-2.609,13.053-3.606,13.053-3.606c36.736-4.891,41.669-18.4,41.669-18.4
					c14.078,1.64,21.419-10.705,21.419-10.705c-0.028-2.395,4.118-6.326,4.118-6.326
					C3862.422,3211.948,3857.642,3185.382,3857.642,3185.382z M3759.202,3235.79c-2.287,4.267-3.391,7.439-3.578,7.994
					C3756.375,3241.007,3757.628,3238.328,3759.202,3235.79z"/>
				<path style="fill:#FDDAD2;" d="M3755.601,3243.863c0.005-0.014,0.009-0.037,0.023-0.079
					C3755.615,3243.811,3755.606,3243.835,3755.601,3243.863z"/>
				<path style="fill:#FDDAD2;" d="M3755.625,3243.783c0.75-2.776,2.003-5.455,3.578-7.994
					C3756.915,3240.057,3755.811,3243.229,3755.625,3243.783z"/>
				<path style="opacity:0.03;" d="M3810.327,3179.843v0.005c-0.028,0.037-0.06,0.079-0.093,0.117
					c-2.939-2.041-14.804-9.35-26.217-3.391c0.424-0.112,14.474-3.843,25.351,4.495c-0.13,0.167-0.266,0.335-0.401,0.508
					c-0.829,1.058-1.756,2.245-2.758,3.531c0,0-7.999-2.427-17.045-2.427c-6.019,0-12.503,1.072-17.399,4.654
					c0.592-0.289,14.678-6.992,33.084-0.466c-2.222,2.879-4.756,6.205-7.486,9.843c0,0-24.685-3.978-40.234,13.924
					c0.843-0.824,16.104-15.401,38.953-12.214c-0.699,0.941-1.407,1.9-2.134,2.874l-0.079,0.112
					c-0.396,0.536-0.797,1.081-1.202,1.626l-0.047,0.065c-1.519,2.063-3.07,4.197-4.64,6.382h-0.005
					c-15.396,5.539-24.326,18.005-28.775,26.31c-1.574,2.539-2.828,5.218-3.578,7.994c0.186-0.554,1.29-3.727,3.578-7.994
					c8.613-13.877,26.972-23.785,26.972-23.785c-15.303,21.479-31.696,47.087-33.955,60.996c-1.118-1.896-1.696-5.175-0.806-10.779
					c0,0,2.655-3.322-0.731-11.958c0,0-15.894-31.23,4.183-54.782c0,0,21.307-48.088,55.453-16.458c0,0-0.019,0.079-0.032,0.2
					C3810.267,3179.386,3810.262,3179.624,3810.327,3179.843z"/>
				<path style="fill:#FBB5A5;" d="M3757.541,3274.825c0,0-2.551,0.742-4.588-0.844c0.846-4.217,3.305-5.682,5.252-6.164
					C3755.343,3269.429,3754.072,3271.702,3757.541,3274.825z"/>
				<g>
					<path style="fill:#82A342;" d="M3833.875,3183.29c6.215,1.915,9.352,4.055,9.352,4.055
						C3841.332,3185.45,3837.88,3184.162,3833.875,3183.29z"/>
					<path style="fill:#FBB5A5;" d="M3837.84,3204.08c-3.699-17.66-23.432-19.979-28.043-20.278
						c0.592-0.755,1.193-1.519,1.793-2.283c4.631-0.051,14.506,0.075,22.286,1.77c-5.073-1.565-12.205-2.972-21.359-2.949
						c0.014-0.019,0.028-0.033,0.037-0.051c-0.051,0.019-0.098,0.032-0.149,0.051c-0.284,0.005-0.563,0.005-0.848,0.005
						c-0.005,0-0.009,0-0.014,0.005c-0.163,0-0.331,0-0.499,0.005c-0.34-0.256-0.335-0.755-0.303-1.034
						c-0.135,0.168-0.27,0.345-0.415,0.522v0.005c-0.028,0.037-0.06,0.079-0.093,0.117c-2.939-2.041-14.804-9.35-26.217-3.391
						c0.424-0.112,14.474-3.843,25.351,4.495c-0.13,0.167-0.266,0.335-0.401,0.508c-0.829,1.058-1.756,2.245-2.758,3.531
						c0,0-7.999-2.427-17.045-2.427c-6.019,0-12.503,1.072-17.399,4.654c0.592-0.289,14.678-6.992,33.084-0.466
						c-2.222,2.879-4.756,6.205-7.486,9.843c0,0-24.685-3.978-40.234,13.924c0.843-0.824,16.104-15.401,38.953-12.214
						c-0.699,0.941-1.407,1.9-2.134,2.874l-0.079,0.112c-0.396,0.536-0.797,1.081-1.202,1.626l-0.047,0.065
						c-1.519,2.063-3.07,4.197-4.64,6.382h-0.005c-15.396,5.539-24.326,18.005-28.775,26.31
						c8.613-13.877,26.972-23.785,26.972-23.785c-15.303,21.479-31.696,47.087-33.955,60.996c-0.014,0.074-0.028,0.149-0.037,0.224
						c0.238,0.293,0.489,0.536,0.755,0.745c0.005,0,0.005,0.005,0.009,0.009c0.005,0,0.005,0,0.009,0.005
						c0.107,0.084,0.214,0.158,0.326,0.228c0.862-5.697,5.627-19.481,26.813-50.292c8.879,11.865,1.835,23.753,1.262,24.68
						c9.196-12.54,0.005-26.473-0.01-26.492c3.671-5.287,7.808-11.063,12.48-17.366c3.331,4.854,12.005,19.77,5.143,35.227
						c0.322-0.564,8.949-16.155-3.89-36.913c1.817-2.446,3.717-4.966,5.697-7.57c0.056,0.023,23.306,8.636,22.113,32.832
						c0,0,4.984-19.975-20.543-34.886c2.338-3.065,4.793-6.233,7.36-9.512C3831.076,3185.284,3837.639,3203.512,3837.84,3204.08z"/>
					<path style="fill:#82A342;" d="M3755.601,3243.863c0.005-0.014,0.009-0.037,0.023-0.079
						C3755.615,3243.811,3755.606,3243.835,3755.601,3243.863z"/>
					<path style="fill:#82A342;" d="M3759.202,3235.79c-2.287,4.267-3.391,7.439-3.578,7.994
						C3756.375,3241.007,3757.628,3238.328,3759.202,3235.79z"/>
				</g>
			</g>
			<g>
				<path style="fill:#FDDAD2;" d="M3960.415,3140.885c0,0-2.068-62.012-53.385-42.493c0,0-0.014,0.098-0.056,0.233
					c-0.051,0.186-0.149,0.457-0.322,0.666c-0.284,0.354-0.764,0.559-1.561,0.005c-0.163-0.112-0.34-0.256-0.531-0.438
					c-0.172-0.158-0.349-0.349-0.545-0.573c0,0-2.497,0.489-3.364-7.519c0,0-22.802-41.599-48.2-6.317
					c0,0-16.961,26.948,1.034,56.231c0,0,2.8,6.13,1.714,8.739c0,0,2.576,16.742,18.698,21.163c0,0-0.568,16.961,37.453,38.534
					c0,0,8.902,4.859,12.685,9.708c0,0,0,0,0.005,0c2.385,3.056,2.739,6.107-2.455,7.933c0,0,2.189,1.761,4.915,1.262
					c0.154-0.023,0.307-0.061,0.466-0.103c0.289-0.079,0.587-0.182,0.885-0.321c0.005-0.005,0.009-0.005,0.014-0.01
					c0.093-0.042,0.191-0.088,0.284-0.14c0.308-0.163,0.62-0.364,0.932-0.606c2.059-1.584,4.141-4.915,5.636-11.432
					c0,0-1.435-4.802,6.079-12.754C3940.799,3202.655,3971.977,3175.515,3960.415,3140.885z M3938.246,3193.492
					c0,0,0.307-4.165-0.373-10.435C3938.483,3186.574,3938.67,3190.091,3938.246,3193.492z"/>
				<path style="fill:#FDDAD2;" d="M3937.873,3183.057c0.61,3.517,0.796,7.034,0.373,10.435
					C3938.246,3193.492,3938.553,3189.327,3937.873,3183.057z"/>
				<path style="opacity:0.03;" d="M3940.799,3202.655c-7.514,7.952-6.079,12.754-6.079,12.754
					c-1.495,6.517-3.578,9.848-5.636,11.432c3.671-16.22-2.958-51.465-10.211-81.707c0,0,15.708,18.946,19.002,37.924
					c0.68,6.27,0.373,10.435,0.373,10.435c0.424-3.4,0.238-6.917-0.373-10.435c-1.198-11.045-5.46-28.635-19.863-41.487
					c-0.75-3.084-1.509-6.103-2.255-9.028l-0.023-0.093c-0.2-0.773-0.396-1.547-0.596-2.306l-0.037-0.158
					c-0.363-1.388-0.717-2.749-1.067-4.085c26.324,6.582,36.591,29.147,37.211,30.549c-9.107-26.441-37.854-32.99-37.854-32.99
					l0.042,0.172c-1.393-5.255-2.716-10.067-3.885-14.241c23.147,0.997,35.609,14.702,35.99,15.13
					c-4.728-7.612-13.901-12.023-21.89-14.534c-7.998-2.511-14.813-3.121-14.813-3.121c-0.526-1.854-1.016-3.559-1.453-5.082
					c-0.074-0.252-0.145-0.494-0.214-0.731c15.615-4.323,29.362,6.009,29.716,6.279c-9.852-11.566-26.059-8.804-30.177-7.868
					c-0.019-0.06-0.032-0.116-0.051-0.172c0.172-0.209,0.27-0.48,0.322-0.666c0.042-0.135,0.056-0.233,0.056-0.233
					c51.316-19.519,53.385,42.493,53.385,42.493C3971.977,3175.515,3940.799,3202.655,3940.799,3202.655z"/>
				<path style="fill:#FBB5A5;" d="M3922.452,3226.494c0,0,2.463,1.938,5.391,1.103c0.936-4.986-1.105-7.675-3.023-9.062
					C3927.239,3221.563,3927.625,3224.61,3922.452,3226.494z"/>
				<g>
					<path style="fill:#82A342;" d="M3879.375,3092.658c-7.644-0.649-12.02,0.306-12.02,0.306
						C3870.265,3091.729,3874.609,3091.844,3879.375,3092.658z"/>
					<path style="fill:#FBB5A5;" d="M3951.243,3156.448c-9.107-26.441-37.854-32.99-37.854-32.99l0.042,0.172
						c-1.393-5.255-2.716-10.067-3.885-14.241c23.147,0.997,35.609,14.702,35.99,15.13c-4.728-7.612-13.901-12.023-21.89-14.534
						c-7.998-2.511-14.813-3.121-14.813-3.121c-0.526-1.854-1.016-3.559-1.453-5.082c-0.074-0.252-0.145-0.494-0.214-0.731
						c15.615-4.323,29.362,6.009,29.716,6.279c-9.852-11.566-26.059-8.804-30.177-7.868c-0.019-0.06-0.032-0.116-0.051-0.172
						c-0.074-0.261-0.149-0.517-0.224-0.759c-0.084,0.322-0.303,0.871-0.782,0.997c-0.187-0.079-0.368-0.158-0.554-0.233
						c-0.312-0.126-0.619-0.252-0.927-0.377c-0.051-0.042-0.093-0.079-0.144-0.126c0.005,0.023,0.014,0.047,0.019,0.074
						c-10.001-4.071-18.424-5.678-24.666-6.21c9.261,1.584,20.115,5.804,25.16,7.906c0.322,1.104,0.638,2.203,0.955,3.289
						c-5.175-1.71-27.787-7.891-39.633,9.801c0.382-0.438,15.634-17.599,39.68-9.634c1.36,4.724,2.641,9.27,3.853,13.654
						c-33.973,4.961-37.77,28.346-37.877,29.073c9.391-26.976,38.613-26.133,38.683-26.128c1.015,3.717,1.98,7.318,2.893,10.793
						c-23.646,17.357-20.557,38.678-20.557,38.678c-0.689-19.947,15.391-32.441,21.181-36.279
						c2.325,8.953,4.304,17.101,5.981,24.508c-0.023,0.014-16.272,11.222-11.697,29.035c-0.112-0.615-3.014-17.25,12.266-26.501
						c9.568,43.057,8.692,60.242,7.123,66.852c0.149-0.023,0.307-0.061,0.461-0.107c0.005,0,0.005,0,0.009,0
						c0.005-0.005,0.009-0.005,0.014-0.01c0.377-0.102,0.764-0.261,1.155-0.475c0.023-0.088,0.042-0.182,0.061-0.27
						c3.671-16.22-2.958-51.465-10.211-81.707c0,0,15.708,18.946,19.002,37.924c-1.198-11.045-5.46-28.635-19.863-41.487
						c-0.75-3.084-1.509-6.103-2.255-9.028l-0.023-0.093c-0.2-0.773-0.396-1.547-0.596-2.306l-0.037-0.158
						c-0.363-1.388-0.717-2.749-1.067-4.085C3940.356,3132.481,3950.623,3155.046,3951.243,3156.448z"/>
					<path style="fill:#82A342;" d="M3938.246,3193.492c0,0,0.307-4.165-0.373-10.435
						C3938.483,3186.574,3938.67,3190.091,3938.246,3193.492z"/>
				</g>
			</g>
		</g>
	</g>
</g>
</svg>
