<svg id="Layer_1" viewBox="0 0 512 512" xmlns="http://www.w3.org/2000/svg" data-name="Layer 1"><path d="m448.38 8h-252.563c-25.624 0-46.471 20.847-46.471 46.471v61.188l-24.694 12.802c-4.764-11.942-13.485-21.719-24.401-27.9 12.005-8.571 19.853-22.605 19.853-38.446 0-26.039-21.184-47.223-47.223-47.223s-47.223 21.184-47.223 47.223c0 15.838 7.845 29.869 19.845 38.44-16.91 9.581-28.353 27.731-28.353 48.514v119.705c0 10.493 8.537 19.03 19.03 19.03h73.403c10.494 0 19.031-8.537 19.031-19.03v-82.529l20.732-10.749v9.342c0 25.624 20.847 46.471 46.471 46.471h252.562c25.624 0 46.471-20.847 46.471-46.471v-130.367c0-25.624-20.847-46.471-46.471-46.471zm-406.722 54.115c0-17.216 14.007-31.223 31.224-31.223s31.223 14.007 31.223 31.223-14.007 31.223-31.223 31.223-31.224-14.007-31.224-31.223zm67.925 209.689h-73.402c-1.643 0-3.03-1.388-3.03-3.03v-119.705c0-21.908 17.823-39.731 39.731-39.731 18.982 0 35.388 13.543 39.008 32.204l2.037 10.503 47.217-24.48c.007-.004.015-.007.022-.011l4.177-2.165c8.975-4.65 13.656 3.76 14.161 4.734.8 1.542 4.343 9.465-4.438 14.018l-62.451 32.378s-19.466 10.092-19.466 10.092c-2.46 1.275-5.453 1.49-8.215.592-2.671-.869-4.791-2.645-5.97-5.002-1.16-2.321-1.499-4.805-.981-7.184.94-4.317-1.797-8.579-6.113-9.52-4.315-.937-8.579 1.796-9.52 6.113-1.285 5.9-.468 12.202 2.304 17.745 3.109 6.22 8.555 10.858 15.332 13.062 2.723.886 5.553 1.324 8.368 1.324 4.225 0 8.416-.986 12.159-2.927l12.102-6.274v74.234c0 1.643-1.388 3.03-3.031 3.03zm369.268-86.967c0 16.802-13.669 30.471-30.471 30.471h-252.563c-16.802 0-30.471-13.669-30.471-30.471v-17.637l17.083-8.857c12.412-6.435 16.065-18.07 13.842-28.443l51.32-60.005c2.871-3.358 2.478-8.408-.881-11.279-3.355-2.872-8.406-2.478-11.279.88l-47.559 55.608c-5.735-5.329-13.788-8.362-22.525-6.566v-54.067c0-16.802 13.669-30.471 30.471-30.471h252.562c16.802 0 30.471 13.669 30.471 30.471zm-214.037-130.764c0-4.418 3.582-8 8-8h72.876c4.418 0 8 3.582 8 8s-3.582 8-8 8h-72.876c-4.418 0-8-3.582-8-8zm156.934-.001c0 4.418-3.582 8-8 8h-31.731c-4.418 0-8-3.582-8-8s3.582-8 8-8h31.731c4.418 0 8 3.582 8 8zm-161.347 43.722c0-4.418 3.582-8 8-8h144.459c4.418 0 8 3.582 8 8s-3.582 8-8 8h-144.459c-4.418 0-8-3.582-8-8zm-10.911 43.722c0-4.418 3.582-8 8-8h92.701c4.418 0 8 3.582 8 8s-3.582 8-8 8h-92.701c-4.418 0-8-3.582-8-8zm171.37-.001c0 4.418-3.582 8-8 8h-29.22c-4.418 0-8-3.582-8-8s3.582-8 8-8h29.22c4.418 0 8 3.582 8 8zm.888 43.723c0 4.418-3.582 8-8 8h-112.004c-4.418 0-8-3.582-8-8s3.582-8 8-8h112.004c4.418 0 8 3.582 8 8zm-147.31-.001c0 4.418-3.582 8-8 8h-30.841c-4.418 0-8-3.582-8-8s3.582-8 8-8h30.841c4.418 0 8 3.582 8 8zm195.618 253.368h-12.487c-7.304-26.153-26.661-46.802-51.218-56.329 12.371-9.32 20.386-24.127 20.386-40.774 0-28.136-22.89-51.026-51.025-51.026s-51.026 22.89-51.026 51.026c0 16.646 8.015 31.453 20.386 40.773-7.866 3.051-15.196 7.242-21.77 12.393-9.595-12.483-22.235-21.864-36.573-27.386 12.321-9.324 20.299-24.099 20.299-40.706 0-28.136-22.891-51.026-51.026-51.026s-51.025 22.89-51.025 51.026c0 16.606 7.977 31.381 20.297 40.704-14.355 5.528-27.007 14.924-36.607 27.43-6.575-5.154-13.907-9.348-21.775-12.401 12.364-9.316 20.374-24.117 20.374-40.755 0-28.126-22.882-51.008-51.008-51.008s-51.007 22.882-51.007 51.008c0 16.638 8.01 31.438 20.373 40.754-24.543 9.523-43.889 30.159-51.191 56.297h-12.488c-13.672 0-24.794 11.123-24.794 24.793v25.929c0 8.092 6.584 14.675 14.676 14.675h448.348c8.092 0 14.676-6.583 14.676-14.675v-25.929c0-13.671-11.122-24.793-24.794-24.793zm-129.371-97.103c0-19.313 15.713-35.026 35.026-35.026s35.025 15.713 35.025 35.026-15.696 35.009-34.995 35.025c-.01 0-.021 0-.031 0s-.02 0-.03 0c-19.299-.017-34.995-15.722-34.995-35.025zm35.026 51.026h.03c29.543.013 55.499 18.889 65.064 46.078h-130.192c9.566-27.19 35.523-46.065 65.066-46.078h.031zm-154.736-65.951c0-19.313 15.712-35.026 35.025-35.026s35.026 15.712 35.026 35.026-15.688 35-34.979 35.025c-.016 0-.032 0-.048 0s-.031 0-.047 0c-19.292-.026-34.978-15.728-34.978-35.025zm34.978 51.025c.016 0 .032.001.048.001s.031-.001.047-.001c22.229.015 42.58 10.428 55.558 28.135-8.141 9.323-14.295 20.481-17.754 32.869h-75.77c-3.455-12.367-9.597-23.508-17.721-32.82 12.975-17.737 33.341-28.168 55.594-28.183zm-154.703-36.048c0-19.303 15.704-35.008 35.007-35.008s35.008 15.705 35.008 35.008-15.688 34.99-34.977 35.006c-.01 0-.021 0-.031 0s-.02 0-.03 0c-19.288-.017-34.976-15.714-34.976-35.006zm34.976 51.006h.031.03c29.524.013 55.465 18.875 65.029 46.045h-130.12c9.564-27.17 35.506-46.032 65.03-46.045zm342.625 95.442h-445.702v-24.604c0-4.849 3.945-8.793 8.794-8.793h18.768c.01 0 .02.001.03.001.011 0 .022-.001.033-.001h150.922.032 239.498c.011 0 .022.001.033.001.01 0 .02-.001.03-.001h18.767c4.849 0 8.794 3.945 8.794 8.793v24.604z"/></svg>