<svg width="118" height="116" viewBox="0 0 118 116" fill="none" xmlns="http://www.w3.org/2000/svg">
<g clip-path="url(#clip0_177_60676)">
<path d="M80.317 69.3977L75.9428 68.1133L66.4259 61.8973V60.473C69.1813 58.3947 71.0734 55.2179 71.4251 51.5764C72.807 51.3539 73.8657 50.1531 73.8657 48.7096V44.793C73.8657 44.7779 73.8641 44.763 73.8634 44.7479V39.7865C74.414 39.3923 74.7633 38.7502 74.7633 38.0299V33.4895L81.3311 32.3708C82.4105 32.187 83.1867 31.3297 83.263 30.2375C83.339 29.1453 82.6893 28.1886 81.646 27.8568L59.505 20.8143C59.0429 20.6673 58.555 20.6675 58.0932 20.8142L35.9519 27.8568C34.9086 28.1886 34.2588 29.1453 34.3349 30.2373C34.3832 30.9313 34.7149 31.5296 35.2267 31.9214V37.8589H35.1725C33.9257 37.8589 32.9114 38.8732 32.9114 40.12V43.0673L31.4517 51.6345C31.1994 53.1162 32.3407 54.4725 33.8474 54.4725H38.7894C40.2927 54.4725 41.4379 53.1194 41.1851 51.6343L39.7254 43.0673V40.12C39.7254 38.8732 38.7111 37.8589 37.4643 37.8589H37.4103V32.5655L42.8392 33.4901V38.0299C42.8392 38.7472 43.187 39.3883 43.7349 39.783L43.7369 44.7935V48.7096C43.7369 50.1533 44.7957 51.3539 46.1776 51.5764C46.5292 55.2158 48.4193 58.3912 51.172 60.4696V61.9006L41.6572 68.1155L37.2864 69.3984C32.6093 70.7712 29.3069 75.0651 29.3069 80.0564V83.3103C29.3069 83.9132 29.7956 84.4021 30.3987 84.4021C31.0018 84.4021 31.4904 83.9134 31.4904 83.3103V80.0564C31.4904 76.1225 34.1266 72.6013 37.9014 71.4935L41.9739 70.2981L58.2439 79.9659C58.5742 80.1621 59.0112 80.1726 59.3592 79.9659L75.6302 70.2975L79.7023 71.4929C83.4765 72.601 86.1127 76.1221 86.1127 80.0557V90.6006C86.1127 91.9531 85.0123 93.0535 83.6598 93.0535H78.8476V88.3475C78.8476 87.7445 78.359 87.2557 77.7559 87.2557C77.1529 87.2557 76.6641 87.7444 76.6641 88.3475V93.0535H40.9338V88.3475C40.9338 87.7445 40.4451 87.2557 39.842 87.2557C39.2389 87.2557 38.7502 87.7444 38.7502 88.3475V93.0535H33.943C32.5905 93.0535 31.4902 91.9531 31.4902 90.6006V88.4139C31.4902 87.8109 31.0015 87.3221 30.3984 87.3221C29.7953 87.3221 29.3066 87.8108 29.3066 88.4139V90.6005C29.3066 93.157 31.3864 95.2368 33.9429 95.2368H83.6595C86.216 95.2368 88.2958 93.157 88.2958 90.6005V80.0556C88.2958 75.1818 85.1061 70.8038 80.317 69.3977ZM38.7893 52.289H33.8474C33.6947 52.289 33.5782 52.1526 33.6041 52.001L34.9245 44.2514H37.7122L39.0325 52.0009C39.0583 52.1521 38.9427 52.289 38.7893 52.289ZM37.5419 40.12V42.0679H35.0947V40.12C35.0947 40.0771 35.1294 40.0423 35.1724 40.0423H37.464C37.5071 40.0422 37.5419 40.0771 37.5419 40.12ZM54.8966 75.0272L55.3311 75.6951L44.1849 69.072L51.2598 64.4509C51.5806 68.2154 52.8215 71.8379 54.8966 75.0272ZM54.889 70.3144C57.4588 70.6795 60.1423 70.6797 62.7135 70.3144C62.2167 71.5369 61.6044 72.7166 60.8758 73.8366L58.8013 77.0252L56.7267 73.8366C55.9981 72.7166 55.3859 71.5369 54.889 70.3144ZM62.7059 75.0272C64.7811 71.8379 66.0219 68.2154 66.3426 64.4509L73.4175 69.0719L62.2714 75.6951L62.7059 75.0272ZM69.0923 40.1931H71.68V43.7011H70.3956C69.6769 43.7011 69.0922 43.1165 69.0922 42.3978V40.1931H69.0923ZM36.6137 29.9376L58.7553 22.8948C58.7837 22.8858 58.8142 22.8857 58.843 22.895L80.9845 29.9376C81.0302 29.9522 81.0929 29.972 81.0849 30.0856C81.0769 30.1992 81.0121 30.2101 80.9647 30.2183L73.6442 31.4651L70.8958 31.1252C70.2978 31.0511 69.7525 31.4764 69.6784 32.0747C69.6044 32.6732 70.0296 33.2182 70.6279 33.2922L72.5801 33.5337V38.0097L45.0226 38.0087V33.5335L56.32 32.1356C57.9655 31.9322 59.6338 31.9322 61.2782 32.1356L65.554 32.6644C66.1523 32.7385 66.6975 32.3133 66.7716 31.715C66.8457 31.1166 66.4205 30.5716 65.8222 30.4975L61.5463 29.9686C59.7242 29.7431 57.8754 29.7431 56.052 29.9686L43.9559 31.4654L36.6332 30.2183C36.5857 30.2101 36.521 30.1992 36.513 30.0856C36.5051 29.972 36.5678 29.952 36.6137 29.9376ZM45.9198 43.7011L45.9183 40.1931H48.5102V42.3979C48.5102 43.1165 47.9256 43.7012 47.2068 43.7012L45.9198 43.7011ZM48.3227 51.0152C48.2666 50.1262 47.5276 49.4298 46.6407 49.4298C46.2434 49.4298 45.9202 49.1066 45.9202 48.7095V45.8847H47.2068C49.1294 45.8847 50.6937 44.3205 50.6937 42.3979V40.1931H66.9087V42.3979C66.9087 44.3205 68.473 45.8847 70.3956 45.8847H71.6822V48.7095C71.6822 49.1066 71.359 49.4298 70.9617 49.4298C70.0748 49.4298 69.3358 50.1262 69.2797 51.0153C68.9319 56.528 64.3292 60.8464 58.8011 60.8464C53.273 60.8464 48.6705 56.528 48.3227 51.0152ZM58.8013 63.0298C60.743 63.0298 62.5886 62.5858 64.2424 61.7964V62.4883C64.2424 64.3549 63.9906 66.1963 63.5057 67.9723C60.5387 68.5379 57.1843 68.5608 54.0968 67.9723C53.6119 66.1964 53.3601 64.3551 53.3601 62.4883C53.3601 62.4651 53.3569 62.4426 53.3554 62.4197C53.3551 62.4152 53.3556 62.4107 53.3553 62.4062V61.7942C55.0103 62.5849 56.8576 63.0298 58.8013 63.0298Z" fill="white"/>
</g>
<path fill-rule="evenodd" clip-rule="evenodd" d="M48.0295 0.00100435C20.699 5.05949 0 29.02 0 57.8151C0 86.6101 20.699 110.571 48.0295 115.629V113.522C21.8493 108.491 2.07035 85.4629 2.07035 57.8151C2.07035 30.1673 21.8493 7.13906 48.0295 2.10823V0.00100435ZM69.5611 113.523C95.7439 108.494 115.526 85.4648 115.526 57.8151C115.526 30.1654 95.7439 7.13588 69.5611 2.10719V0C96.8942 5.05632 117.596 29.0181 117.596 57.8151C117.596 86.6121 96.8942 110.574 69.5611 115.63V113.523Z" fill="white"/>
<defs>
<clipPath id="clip0_177_60676">
<rect width="74.5327" height="74.5327" fill="white" transform="translate(21.535 20.7041)"/>
</clipPath>
</defs>
</svg>
