<svg width="118" height="116" viewBox="0 0 118 116" fill="none" xmlns="http://www.w3.org/2000/svg">
<g clip-path="url(#clip0_172_74564)">
<path d="M34.9845 87.3784H23.1296C22.8152 87.3784 22.5124 87.2503 22.3028 87.0174C22.0932 86.7845 21.9767 86.4817 22 86.1673L23.9448 59.3132C23.9914 58.731 24.4805 58.2651 25.0744 58.2651H34.9845C35.6134 58.2651 36.1141 58.7659 36.1141 59.3947V86.2488C36.1141 86.8777 35.6017 87.3784 34.9845 87.3784ZM24.3407 85.1192H33.8549V60.5243H26.1224L24.3407 85.1192Z" fill="white"/>
<path fill-rule="evenodd" clip-rule="evenodd" d="M24.4433 59.3515C24.4433 59.352 24.4432 59.3526 24.4432 59.3531L22.4987 86.2034C22.4865 86.3682 22.5464 86.5407 22.6745 86.6829C22.7842 86.8049 22.9493 86.8784 23.1296 86.8784H34.9846C35.329 86.8784 35.6141 86.5982 35.6141 86.2488V59.3947C35.6141 59.042 35.3373 58.7651 34.9846 58.7651H25.0744C24.7475 58.7651 24.4704 59.024 24.4433 59.3515ZM23.4464 59.2733C23.5133 58.4371 24.214 57.7651 25.0744 57.7651H34.9846C35.8895 57.7651 36.6141 58.4897 36.6141 59.3947V86.2488C36.6141 87.1572 35.8745 87.8784 34.9846 87.8784H23.1296C22.6811 87.8784 22.2406 87.6957 21.9312 87.3519C21.64 87.0284 21.4671 86.5946 21.5014 86.1307M25.6574 60.0243H34.355V85.6192H23.8032L25.6574 60.0243ZM26.5876 61.0243L24.8783 84.6192H33.355V61.0243H26.5876Z" fill="white"/>
<path d="M64.5749 76.9094H55.1073C54.4784 76.9094 53.9777 76.4086 53.9777 75.7798C53.9777 75.1509 54.4784 74.6502 55.1073 74.6502H64.5749C65.4716 74.6502 66.3101 74.3125 66.9273 73.6836C67.1485 73.4624 67.3465 73.1829 67.5095 72.8917C67.7657 72.391 67.9055 71.867 67.9055 71.3313C67.9055 69.503 66.4149 68.0124 64.5865 68.0124H58.1933C57.1568 68.0124 56.1553 67.8027 55.2237 67.4068L47.1069 63.9016C46.4548 63.6221 45.7561 63.4823 45.0341 63.4823H34.9958C34.367 63.4823 33.8662 62.9816 33.8662 62.3527C33.8662 61.7239 34.367 61.2231 34.9958 61.2231H45.0341C46.0705 61.2231 47.0603 61.4328 48.0036 61.8287L56.1204 65.3339C56.7725 65.6134 57.4713 65.7532 58.1933 65.7532H64.5865C67.6609 65.7532 70.1646 68.2569 70.1646 71.3313C70.1646 72.2396 69.9434 73.1247 69.5125 73.9515C69.2447 74.4522 68.9186 74.9064 68.5343 75.2907C67.4862 76.3271 66.0771 76.9094 64.5749 76.9094Z" fill="white"/>
<path fill-rule="evenodd" clip-rule="evenodd" d="M34.9958 61.7231C34.6431 61.7231 34.3662 62 34.3662 62.3527C34.3662 62.7054 34.6431 62.9823 34.9958 62.9823H45.0341C45.8214 62.9823 46.5874 63.1349 47.3039 63.442L47.3052 63.4425L55.4193 66.9466C55.4197 66.9468 55.4201 66.947 55.4205 66.9472C56.2909 67.3169 57.2255 67.5124 58.1933 67.5124H64.5865C66.691 67.5124 68.4055 69.2268 68.4055 71.3313C68.4055 71.9562 68.2421 72.5577 67.9546 73.1195L67.9504 73.1279L67.9458 73.136C67.7672 73.455 67.5437 73.7739 67.2824 74.0356C66.5667 74.7639 65.5982 75.1502 64.5749 75.1502H55.1073C54.7546 75.1502 54.4777 75.4271 54.4777 75.7798C54.4777 76.1325 54.7546 76.4094 55.1073 76.4094H64.5749C65.9456 76.4094 67.2278 75.879 68.1818 74.9361C68.5259 74.5918 68.823 74.1799 69.0703 73.7182C69.4645 72.9609 69.6646 72.1556 69.6646 71.3313C69.6646 68.5331 67.3848 66.2532 64.5865 66.2532H58.1933C57.4059 66.2532 56.6399 66.1006 55.9234 65.7935L55.9222 65.793L47.8101 62.2897C47.8093 62.2894 47.8086 62.2891 47.8078 62.2888C46.9238 61.918 46.0003 61.7231 45.0341 61.7231H34.9958ZM33.3662 62.3527C33.3662 61.4477 34.0908 60.7231 34.9958 60.7231H45.0341C46.1399 60.7231 47.1953 60.9472 48.1971 61.3677L48.2019 61.3697L48.2019 61.3697L56.3174 64.8744C56.3176 64.8744 56.3177 64.8745 56.3179 64.8746C56.9055 65.1263 57.5368 65.2532 58.1933 65.2532H64.5865C67.937 65.2532 70.6646 67.9808 70.6646 71.3313C70.6646 72.3228 70.4227 73.2868 69.9559 74.1825L69.9534 74.1873L69.9534 74.1873C69.6655 74.7255 69.3113 75.2208 68.8879 75.6442L68.8859 75.6462C67.7438 76.7756 66.2082 77.4094 64.5749 77.4094H55.1073C54.2023 77.4094 53.4777 76.6848 53.4777 75.7798C53.4777 74.8748 54.2023 74.1502 55.1073 74.1502H64.5749C65.3442 74.1502 66.0519 73.8617 66.5704 73.3334L66.5737 73.3301C66.7524 73.1514 66.9226 72.9151 67.0687 72.6556C67.2909 72.2186 67.4055 71.7749 67.4055 71.3313C67.4055 69.7791 66.1387 68.5124 64.5865 68.5124H58.1933C57.0886 68.5124 56.0207 68.2888 55.0281 67.867L55.0255 67.8658L46.91 64.3611C46.9098 64.3611 46.9096 64.361 46.9094 64.3609C46.3218 64.1091 45.6905 63.9823 45.0341 63.9823H34.9958C34.0908 63.9823 33.3662 63.2577 33.3662 62.3527Z" fill="white"/>
<path d="M61.0115 88.5547C60.4525 88.5547 59.9052 88.4848 59.3462 88.3684L41.1096 83.9664C40.8418 83.8966 40.5507 83.8733 40.2479 83.8733L34.9959 83.9664C34.9842 83.9664 34.9842 83.9664 34.9726 83.9664C34.3554 83.9664 33.8546 83.4773 33.843 82.8601C33.8313 82.2313 34.3321 81.7189 34.9493 81.7072L40.213 81.6141C40.7137 81.6141 41.1795 81.6723 41.622 81.7771L59.847 86.179C60.8601 86.4119 61.8965 86.3304 62.8514 85.9461L92.6751 73.6836C93.63 73.2877 94.2472 72.3677 94.2472 71.3429C94.2472 71.0518 94.189 70.749 94.0842 70.4695C93.6533 69.2933 92.4189 68.6063 91.1961 68.8741L69.105 73.5089C68.4994 73.637 67.8939 73.2411 67.7658 72.6355C67.6377 72.03 68.0336 71.4244 68.6392 71.2963L90.7303 66.6615C93.0361 66.1724 95.3884 67.4767 96.2036 69.6893C96.4016 70.2133 96.5064 70.7956 96.5064 71.3546C96.5064 73.2993 95.3419 75.0345 93.5368 75.7798L63.7248 88.019C62.8514 88.3684 61.9315 88.5547 61.0115 88.5547Z" fill="white"/>
<path fill-rule="evenodd" clip-rule="evenodd" d="M95.7344 69.8622C95.0048 67.8817 92.8958 66.7134 90.8341 67.1507L68.7426 71.7856C68.7426 71.7856 68.7427 71.7856 68.7426 71.7856C68.4061 71.8568 68.1843 72.198 68.2549 72.5321C68.3261 72.8688 68.6673 73.0905 69.0015 73.0198L91.0891 68.3858C91.0899 68.3856 91.0907 68.3854 91.0915 68.3853C92.5602 68.0647 94.0369 68.8897 94.553 70.2958C94.6769 70.6267 94.7472 70.9882 94.7472 71.343C94.7472 72.5719 94.0065 73.6729 92.8666 74.1456L92.8652 74.1461L63.0381 86.4101C61.9879 86.8327 60.8472 86.9221 59.7349 86.6664L59.7296 86.6652L41.5068 82.2637C41.5064 82.2636 41.5061 82.2635 41.5057 82.2635C41.1017 82.1679 40.6763 82.1145 40.2172 82.1142L34.9587 82.2072C34.9585 82.2072 34.9589 82.2072 34.9587 82.2072C34.617 82.214 34.3365 82.4991 34.3429 82.8508M96.672 69.5144C95.7707 67.0712 93.1761 65.632 90.6273 66.1723C90.6275 66.1723 90.627 66.1724 90.6273 66.1723L68.5365 70.8071C67.662 70.992 67.0911 71.8621 67.2766 72.7391C67.4616 73.6134 68.3312 74.1835 69.208 73.9983M92.4836 73.2218L62.6648 85.4824C62.6642 85.4826 62.6637 85.4828 62.6632 85.483C61.8048 85.8281 60.8742 85.9017 59.9617 85.6924L41.7394 81.2912L41.7373 81.2906C41.2578 81.1771 40.7533 81.1142 40.213 81.1142L34.9404 81.2074C34.0481 81.2242 33.3263 81.9637 33.3431 82.8695C33.3599 83.7604 34.0842 84.4665 34.9726 84.4665H34.9951L40.2523 84.3733C40.5306 84.3736 40.7736 84.3956 40.9834 84.4503L59.2365 88.8563L59.2442 88.8579C59.828 88.9795 60.4103 89.0548 61.0115 89.0548C61.999 89.0548 62.9819 88.8548 63.9105 88.4833L93.7277 76.242C95.7187 75.4199 97.0064 73.503 97.0064 71.3546C97.0064 70.7367 96.8912 70.0952 96.672 69.5144M92.4836 73.2218L92.6749 73.6831L92.4849 73.2213M96.0064 71.3546C96.0064 70.8552 95.9122 70.3329 95.7359 69.8661L95.7344 69.8622M96.0064 71.3546C96.0064 73.0957 94.9651 74.649 93.3463 75.3176ZM93.3463 75.3176C93.3464 75.3176 93.3462 75.3176 93.3463 75.3176ZM93.3463 75.3176L63.5392 87.5548C63.5385 87.5551 63.5378 87.5554 63.5371 87.5557C62.7196 87.8824 61.8632 88.0548 61.0115 88.0548C60.4972 88.0548 59.9873 87.9908 59.4558 87.8805L41.2312 83.4815C40.9079 83.3978 40.5717 83.3733 40.2479 83.3733L34.993 83.4665H34.9736C34.6276 83.4665 34.3495 83.1942 34.3429 82.8508" fill="white"/>
<path d="M90.6371 56.0408H70.0598C69.431 56.0408 68.9302 55.54 68.9302 54.9112C68.9302 54.2823 69.431 53.7816 70.0598 53.7816H90.6371C91.4523 53.7816 92.0927 53.1411 92.0927 52.3259V37.5829C92.0927 36.7794 91.4406 36.1156 90.6371 36.1156H43.4619C42.6584 36.1156 42.0063 36.7678 42.0063 37.5829V52.3376C42.0063 53.1411 42.6584 53.7932 43.4619 53.7932H64.0392C64.668 53.7932 65.1688 54.294 65.1688 54.9228C65.1688 55.5517 64.668 56.0524 64.0392 56.0524H43.4619C41.4124 56.0524 39.7471 54.3871 39.7471 52.3376V37.5829C39.7471 35.5334 41.4124 33.8564 43.4619 33.8564H90.6371C92.6867 33.8564 94.3519 35.5217 94.3519 37.5829V52.3376C94.3519 54.3871 92.6867 56.0408 90.6371 56.0408Z" fill="white"/>
<path fill-rule="evenodd" clip-rule="evenodd" d="M43.4619 34.3564C41.6905 34.3564 40.2471 35.8075 40.2471 37.5829V52.3376C40.2471 54.111 41.6885 55.5524 43.4619 55.5524H64.0392C64.3919 55.5524 64.6688 55.2755 64.6688 54.9228C64.6688 54.5701 64.3919 54.2932 64.0392 54.2932H43.4619C42.3823 54.2932 41.5063 53.4172 41.5063 52.3376V37.5829C41.5063 36.4942 42.3797 35.6156 43.4619 35.6156H90.6371C91.7219 35.6156 92.5927 36.5085 92.5927 37.5829V52.3259C92.5927 53.4172 91.7284 54.2816 90.6371 54.2816H70.0598C69.7071 54.2816 69.4302 54.5585 69.4302 54.9112C69.4302 55.2639 69.7071 55.5408 70.0598 55.5408H90.6371C92.4126 55.5408 93.8519 54.1089 93.8519 52.3376V37.5829C93.8519 35.7968 92.4095 34.3564 90.6371 34.3564H43.4619ZM39.2471 37.5829C39.2471 35.2593 41.1342 33.3564 43.4619 33.3564H90.6371C92.9638 33.3564 94.8519 35.2466 94.8519 37.5829V52.3376C94.8519 54.6653 92.9608 56.5408 90.6371 56.5408H70.0598C69.1548 56.5408 68.4302 55.8162 68.4302 54.9112C68.4302 54.0062 69.1548 53.2816 70.0598 53.2816H90.6371C91.1761 53.2816 91.5927 52.8649 91.5927 52.3259V37.5829C91.5927 37.0504 91.1593 36.6156 90.6371 36.6156H43.4619C42.9371 36.6156 42.5063 37.0413 42.5063 37.5829V52.3376C42.5063 52.8649 42.9345 53.2932 43.4619 53.2932H64.0392C64.9442 53.2932 65.6688 54.0178 65.6688 54.9228C65.6688 55.8278 64.9442 56.5524 64.0392 56.5524H43.4619C41.1362 56.5524 39.2471 54.6633 39.2471 52.3376V37.5829Z" fill="white"/>
<path d="M42.7634 63.4704C42.1345 63.4704 41.6338 62.9696 41.6338 62.3408V54.8179C41.6338 54.1891 42.1345 53.665 42.7634 53.665C43.3922 53.665 43.893 54.1425 43.893 54.7713V62.3524C43.893 62.958 43.3922 63.4704 42.7634 63.4704Z" fill="white"/>
<path fill-rule="evenodd" clip-rule="evenodd" d="M42.7634 54.165C42.4239 54.165 42.1338 54.4518 42.1338 54.8179V62.3408C42.1338 62.6935 42.4107 62.9704 42.7634 62.9704C43.1161 62.9704 43.393 62.6819 43.393 62.3524V54.7713C43.393 54.4322 43.1298 54.165 42.7634 54.165ZM41.1338 54.8179C41.1338 53.9263 41.8452 53.165 42.7634 53.165C43.6546 53.165 44.393 53.8528 44.393 54.7713V62.3524C44.393 63.2341 43.6684 63.9704 42.7634 63.9704C41.8584 63.9704 41.1338 63.2458 41.1338 62.3408V54.8179Z" fill="white"/>
<path d="M91.3357 68.8039C90.7068 68.8039 90.2061 68.3032 90.2061 67.6744V54.8179C90.2061 54.1891 90.7068 53.665 91.3357 53.665C91.9645 53.665 92.4652 54.1425 92.4652 54.7713V67.6976C92.4652 68.3032 91.9645 68.8039 91.3357 68.8039Z" fill="white"/>
<path fill-rule="evenodd" clip-rule="evenodd" d="M91.3357 54.165C90.9961 54.165 90.7061 54.4519 90.7061 54.8179V67.6744C90.7061 68.0271 90.9829 68.3039 91.3357 68.3039C91.6952 68.3039 91.9652 68.0203 91.9652 67.6976V54.7713C91.9652 54.4322 91.7021 54.165 91.3357 54.165ZM89.7061 54.8179C89.7061 53.9263 90.4175 53.165 91.3357 53.165C92.2269 53.165 92.9652 53.8528 92.9652 54.7713V67.6976C92.9652 68.5861 92.2338 69.3039 91.3357 69.3039C90.4307 69.3039 89.7061 68.5793 89.7061 67.6744V54.8179Z" fill="white"/>
<path d="M75.894 36.1274C75.2652 36.1274 74.7644 35.6266 74.7644 34.9978V30.7472C74.7644 30.4678 74.5781 30.2465 74.3568 30.2465H59.742C59.5207 30.2465 59.3344 30.4794 59.3344 30.7472V34.9978C59.3344 35.6266 58.8336 36.1274 58.2048 36.1274C57.5759 36.1274 57.0752 35.6266 57.0752 34.9978V30.7472C57.0752 29.2217 58.2747 27.9873 59.742 27.9873H74.3685C75.8358 27.9873 77.0353 29.2334 77.0353 30.7472V34.9978C77.0236 35.6266 76.5229 36.1274 75.894 36.1274Z" fill="white"/>
<path fill-rule="evenodd" clip-rule="evenodd" d="M59.742 28.4873C58.566 28.4873 57.5752 29.4824 57.5752 30.7472V34.9978C57.5752 35.3505 57.8521 35.6274 58.2048 35.6274C58.5575 35.6274 58.8344 35.3505 58.8344 34.9978V30.7472C58.8344 30.5003 58.9194 30.2637 59.0666 30.0818C59.2131 29.9009 59.4478 29.7465 59.742 29.7465H74.3568C74.9411 29.7465 75.2644 30.2874 75.2644 30.7472V34.9978C75.2644 35.3505 75.5413 35.6274 75.894 35.6274C76.2437 35.6274 76.5265 35.3523 76.5353 34.9925V30.7472C76.5353 29.4926 75.5431 28.4873 74.3685 28.4873H59.742ZM56.5752 30.7472C56.5752 28.9611 57.9833 27.4873 59.742 27.4873H74.3685C76.1285 27.4873 77.5353 28.9741 77.5353 30.7472V35.007C77.5187 35.903 76.8007 36.6274 75.894 36.6274C74.989 36.6274 74.2644 35.9028 74.2644 34.9978V30.7472C74.2644 30.747 74.2644 30.7475 74.2644 30.7472L59.8344 30.7465C59.8344 30.7467 59.8344 30.7462 59.8344 30.7465L59.8344 34.9978C59.8344 35.9028 59.1098 36.6274 58.2048 36.6274C57.2998 36.6274 56.5752 35.9028 56.5752 34.9978V30.7472Z" fill="white"/>
<path d="M67.0549 61.3743C66.8569 61.3743 66.659 61.3161 66.4726 61.2113L63.4565 59.4062C63.1188 59.1966 62.9092 58.8356 62.9092 58.4397V51.01C62.9092 50.3811 63.4099 49.8804 64.0388 49.8804H70.071C70.6999 49.8804 71.2006 50.3811 71.2006 51.01V58.4397C71.2006 58.8356 70.991 59.2083 70.6533 59.4062L67.6372 61.2113C67.4508 61.3277 67.2529 61.3743 67.0549 61.3743ZM65.1684 57.7992L67.0549 58.9288L68.9415 57.7992V52.1396H65.1684V57.7992Z" fill="white"/>
<path fill-rule="evenodd" clip-rule="evenodd" d="M64.0388 50.3804C63.6861 50.3804 63.4092 50.6573 63.4092 51.01V58.4397C63.4092 58.6536 63.5214 58.8567 63.7172 58.9796L66.723 60.7784C66.8451 60.8461 66.9575 60.8743 67.0549 60.8743C67.1712 60.8743 67.2749 60.848 67.3722 60.7873L67.3804 60.7821L70.4004 58.9749C70.5812 58.8689 70.7006 58.6627 70.7006 58.4397V51.01C70.7006 50.6573 70.4237 50.3804 70.071 50.3804H64.0388ZM62.4092 51.01C62.4092 50.105 63.1338 49.3804 64.0388 49.3804H70.071C70.976 49.3804 71.7006 50.105 71.7006 51.01V58.4397C71.7006 59.0077 71.4017 59.546 70.9084 59.8363L67.8977 61.638C67.6236 61.8081 67.3331 61.8743 67.0549 61.8743C66.7577 61.8743 66.4761 61.7869 66.2275 61.647L66.2158 61.6405L63.1928 59.8311C62.715 59.5346 62.4092 59.0165 62.4092 58.4397V51.01ZM64.6684 51.6396H69.4415V58.0826L67.0549 59.5116L64.6684 58.0826V51.6396ZM65.6684 52.6396V57.5158L67.0549 58.346L68.4415 57.5158V52.6396H65.6684Z" fill="white"/>
</g>
<path fill-rule="evenodd" clip-rule="evenodd" d="M48.0295 0.00100434C20.699 5.05948 0 29.02 0 57.815C0 86.61 20.699 110.571 48.0295 115.629V113.522C21.8493 108.491 2.07035 85.4628 2.07035 57.815C2.07035 30.1672 21.8493 7.13905 48.0295 2.10823V0.00100434ZM69.5611 113.523C95.7439 108.494 115.526 85.4647 115.526 57.815C115.526 30.1653 95.7439 7.13587 69.5611 2.10719V0C96.8942 5.05631 117.596 29.0181 117.596 57.815C117.596 86.6119 96.8942 110.574 69.5611 115.63V113.523Z" fill="white"/>
<defs>
<clipPath id="clip0_172_74564">
<rect width="74.53" height="74.53" fill="white" transform="translate(22 21)"/>
</clipPath>
</defs>
</svg>
