<svg xmlns="http://www.w3.org/2000/svg" version="1.1" xmlns:xlink="http://www.w3.org/1999/xlink" width="512" height="512" x="0" y="0" viewBox="0 0 682.667 682.667" style="enable-background:new 0 0 512 512" xml:space="preserve" class=""><g><defs><clipPath id="a" clipPathUnits="userSpaceOnUse"><path d="M0 512h512V0H0Z" fill="#ffffff" opacity="1" data-original="#000000"></path></clipPath><clipPath id="b" clipPathUnits="userSpaceOnUse"><path d="M0 512h512V0H0Z" fill="#ffffff" opacity="1" data-original="#000000"></path></clipPath></defs><g clip-path="url(#a)" transform="matrix(1.33333 0 0 -1.33333 0 682.667)"><path d="m0 0 248.498-94.743L496.996 0" style="stroke-width:15;stroke-linecap:round;stroke-linejoin:round;stroke-miterlimit:10;stroke-dasharray:none;stroke-opacity:1" transform="translate(7.504 390.58)" fill="none" stroke="#ffffff" stroke-width="15" stroke-linecap="round" stroke-linejoin="round" stroke-miterlimit="10" stroke-dasharray="none" stroke-opacity="" data-original="#000000" opacity="1" class=""></path><path d="m0 0 52.97-20.189v-34.74l-248.498-94.739-248.498 94.739v34.74l248.498 94.739L-28.02 10.69" style="stroke-width:15;stroke-linecap:round;stroke-linejoin:round;stroke-miterlimit:10;stroke-dasharray:none;stroke-opacity:1" transform="translate(451.53 410.772)" fill="none" stroke="#ffffff" stroke-width="15" stroke-linecap="round" stroke-linejoin="round" stroke-miterlimit="10" stroke-dasharray="none" stroke-opacity="" data-original="#000000" opacity="1" class=""></path></g><path d="M0 0v34.738" style="stroke-width:15;stroke-linecap:butt;stroke-linejoin:round;stroke-miterlimit:10;stroke-dasharray:none;stroke-opacity:1" transform="matrix(1.33333 0 0 -1.33333 341.336 334.535)" fill="none" stroke="#ffffff" stroke-width="15" stroke-linecap="butt" stroke-linejoin="round" stroke-miterlimit="10" stroke-dasharray="none" stroke-opacity="" data-original="#000000" opacity="1" class=""></path><path d="M0 0v89.5" style="stroke-width:15;stroke-linecap:round;stroke-linejoin:round;stroke-miterlimit:10;stroke-dasharray:none;stroke-opacity:1" transform="matrix(1.33333 0 0 -1.33333 120.004 369.475)" fill="none" stroke="#ffffff" stroke-width="15" stroke-linecap="round" stroke-linejoin="round" stroke-miterlimit="10" stroke-dasharray="none" stroke-opacity="" data-original="#000000" opacity="1" class=""></path><g clip-path="url(#b)" transform="matrix(1.33333 0 0 -1.33333 0 682.667)"><path d="M0 0v-125.069c-59.12-47.36-133.449-65.87-204.449-55.51" style="stroke-width:15;stroke-linecap:round;stroke-linejoin:round;stroke-miterlimit:10;stroke-dasharray:none;stroke-opacity:1" transform="translate(422.01 324.393)" fill="none" stroke="#ffffff" stroke-width="15" stroke-linecap="round" stroke-linejoin="round" stroke-miterlimit="10" stroke-dasharray="none" stroke-opacity="" data-original="#000000" opacity="1" class=""></path><path d="m0 0 127.671-57.808v-201.693" style="stroke-width:15;stroke-linecap:round;stroke-linejoin:round;stroke-miterlimit:10;stroke-dasharray:none;stroke-opacity:1" transform="translate(256.002 402.32)" fill="none" stroke="#ffffff" stroke-width="15" stroke-linecap="round" stroke-linejoin="round" stroke-miterlimit="10" stroke-dasharray="none" stroke-opacity="" data-original="#000000" opacity="1" class=""></path><path d="M0 0c41.259-31.01 100.119-27.729 137.679 9.82 41.139 41.139 41.139 107.849 0 148.999-41.15 41.139-107.859 41.139-148.999 0-37.56-37.56-40.84-96.409-9.83-137.669" style="stroke-width:15;stroke-linecap:round;stroke-linejoin:round;stroke-miterlimit:10;stroke-dasharray:none;stroke-opacity:1" transform="translate(49.684 47.715)" fill="none" stroke="#ffffff" stroke-width="15" stroke-linecap="round" stroke-linejoin="round" stroke-miterlimit="10" stroke-dasharray="none" stroke-opacity="" data-original="#000000" opacity="1" class=""></path><path d="m0 0-50.375-120.035" style="stroke-width:15;stroke-linecap:round;stroke-linejoin:round;stroke-miterlimit:10;stroke-dasharray:none;stroke-opacity:1" transform="translate(138.862 193.34)" fill="none" stroke="#ffffff" stroke-width="15" stroke-linecap="round" stroke-linejoin="round" stroke-miterlimit="10" stroke-dasharray="none" stroke-opacity="" data-original="#000000" opacity="1" class=""></path><path d="M0 0c0-14.285-9.966-25.866-22.259-25.866-12.293 0-22.259 11.581-22.259 25.866s9.966 25.866 22.259 25.866C-9.966 25.866 0 14.285 0 0Z" style="stroke-width:15;stroke-linecap:round;stroke-linejoin:round;stroke-miterlimit:10;stroke-dasharray:none;stroke-opacity:1" transform="translate(101.101 173.068)" fill="none" stroke="#ffffff" stroke-width="15" stroke-linecap="round" stroke-linejoin="round" stroke-miterlimit="10" stroke-dasharray="none" stroke-opacity="" data-original="#000000" opacity="1" class=""></path><path d="M0 0c0-14.285-9.966-25.866-22.259-25.866-12.293 0-22.259 11.581-22.259 25.866s9.966 25.866 22.259 25.866C-9.966 25.866 0 14.285 0 0Z" style="stroke-width:15;stroke-linecap:round;stroke-linejoin:round;stroke-miterlimit:10;stroke-dasharray:none;stroke-opacity:1" transform="translate(169.136 90.998)" fill="none" stroke="#ffffff" stroke-width="15" stroke-linecap="round" stroke-linejoin="round" stroke-miterlimit="10" stroke-dasharray="none" stroke-opacity="" data-original="#000000" opacity="1" class=""></path><path d="M0 0s0 80.795-29.24 80.795S-58.48 0-58.48 0Z" style="stroke-width:15;stroke-linecap:round;stroke-linejoin:round;stroke-miterlimit:10;stroke-dasharray:none;stroke-opacity:1" transform="translate(412.913 62.023)" fill="none" stroke="#ffffff" stroke-width="15" stroke-linecap="round" stroke-linejoin="round" stroke-miterlimit="10" stroke-dasharray="none" stroke-opacity="" data-original="#000000" opacity="1" class=""></path></g></g></svg>