<svg id="Layer_1" enable-background="new 0 0 500 500" viewBox="0 0 500 500" xmlns="http://www.w3.org/2000/svg"><path clip-rule="evenodd" d="m165.862 449.382c-6.733 0-12.218-5.49-12.218-12.239 0-6.739 5.485-12.228 12.218-12.228s12.272 5.49 12.272 12.228c0 6.75-5.539 12.239-12.272 12.239zm0-398.764c6.733 0 12.272 5.479 12.272 12.228 0 6.739-5.539 12.229-12.272 12.229s-12.218-5.49-12.218-12.229c0-6.749 5.485-12.228 12.218-12.228zm0 361.433c-7.005 0-13.303 2.889-17.865 7.531l-79.93-45.444v-248.287l79.93-45.433c4.561 4.637 10.86 7.521 17.865 7.521 13.847 0 25.087-11.262 25.087-25.092 0-13.841-11.24-25.092-25.087-25.092-16.636 0-28.43 15.878-24.272 31.478l-83.134 47.279c-2.009 1.151-3.258 3.285-3.258 5.593v255.781c0 2.313 1.249 4.453 3.258 5.593l83.134 47.279c-4.158 15.6 7.639 31.489 24.272 31.489 13.847 0 25.087-11.262 25.087-25.103 0-13.831-11.241-25.093-25.087-25.093zm168.222 37.331c-6.733 0-12.218-5.49-12.218-12.239 0-6.739 5.484-12.228 12.218-12.228s12.218 5.49 12.218 12.228c0 6.75-5.485 12.239-12.218 12.239zm0-374.307c-6.733 0-12.218-5.49-12.218-12.229 0-6.749 5.484-12.228 12.218-12.228s12.218 5.479 12.218 12.228c0 6.739-5.485 12.229-12.218 12.229zm107.406 41.436-83.134-47.279c4.159-15.594-7.633-31.478-24.272-31.478-13.846 0-25.087 11.251-25.087 25.092 0 13.83 11.24 25.092 25.087 25.092 7.005 0 13.358-2.883 17.919-7.521l79.93 45.433v248.288l-79.93 45.444c-4.561-4.643-10.914-7.531-17.919-7.531-13.846 0-25.087 11.262-25.087 25.092 0 13.841 11.24 25.103 25.087 25.103 16.636 0 28.431-15.894 24.272-31.489l83.134-47.279c2.064-1.14 3.312-3.28 3.312-5.593v-255.781c0-2.308-1.249-4.442-3.312-5.593zm-191.517 260.983-128.094-63.281 50.499-24.935 74.771 36.93c1.766.894 3.909.88 5.702 0l74.717-36.93 50.499 24.935zm-128.094-127.497 50.499-24.935 74.771 36.924c1.786.899 3.894.883 5.702 0l74.717-36.924 50.499 24.935-128.094 63.271zm0-64.221 128.094-63.271 128.094 63.271-128.094 63.271zm277.148 128.437c0 2.454-1.412 4.681-3.584 5.772l-142.592 70.449c-1.803.869-3.92.886-5.702-.011l-142.647-70.438c-4.754-2.368-4.766-9.17 0-11.534l53.323-26.346-53.323-26.341c-4.757-2.364-4.767-9.164 0-11.539l53.323-26.341-53.323-26.346c-4.76-2.36-4.76-9.163 0-11.522l142.647-70.449c1.792-.89 3.91-.89 5.702 0l142.592 70.449c4.76 2.36 4.76 9.162 0 11.522l-53.323 26.346 53.323 26.341c4.767 2.375 4.757 9.175 0 11.539l-53.323 26.341 53.323 26.346c2.172 1.081 3.584 3.318 3.584 5.762z" fill-rule="evenodd"/></svg>