<?xml version="1.0" encoding="utf-8"?>
<!-- Generator: Adobe Illustrator 27.5.0, SVG Export Plug-In . SVG Version: 6.00 Build 0)  -->
<svg version="1.1" id="_x2018_ëîé_x5F_1" xmlns="http://www.w3.org/2000/svg" xmlns:xlink="http://www.w3.org/1999/xlink"
	 x="0px" y="0px" viewBox="0 0 2110 2000" style="enable-background:new 0 0 2110 2000;" xml:space="preserve">
<rect style="fill:#FFFFFF;" width="2110" height="2000"/>
<g>
	<g>
		<g>
			<linearGradient id="SVGID_1_" gradientUnits="userSpaceOnUse" x1="1043.5802" y1="743.5201" x2="1067.6499" y2="1753.2102">
				<stop  offset="0" style="stop-color:#FFB521"/>
				<stop  offset="0.4191" style="stop-color:#FDA015"/>
				<stop  offset="1" style="stop-color:#FA7C00"/>
			</linearGradient>
			<path style="fill:url(#SVGID_1_);" d="M1711.88,810.613c-6.399-6.406-12.802-12.808-19.207-19.207
				c-10.423-11.532-22.409-20.068-39.258-19.965c0,0-387.308,0-387.308,0c-8.34,0-15.101,6.761-15.101,15.101
				c0,4.383,1.878,8.317,4.86,11.075c2.216,2.237,4.443,4.464,6.681,6.681c6.113,6.134,12.238,12.258,18.372,18.372
				c2.759,2.982,6.693,4.86,11.076,4.86h377.918v773.33c0,9.096-7.401,16.496-16.496,16.496h-496.551
				c-11.021,0-21.727,3.918-30.145,11.033l-74.872,63.285c-6.179,5.223-15.144,5.216-21.317-0.015l-74.585-63.227
				c-8.427-7.142-19.151-11.076-30.197-11.076H440.09v-773.33c0-9.096,7.4-16.497,16.497-16.497H860.54
				c15.16-0.417,20.382-18.61,8.57-27.846c-5.835-5.856-11.681-11.702-17.536-17.537c-4.982-4.765-9.085-10.888-16.921-10.705
				c0,0-403.954,0-403.954,0c-25.75,0-46.698,20.949-46.698,46.698v782.72c-0.082,14.945,7.06,27.485,17.461,36.752
				c6.12,6.128,12.245,12.252,18.372,18.372c9.286,10.399,21.779,17.554,36.753,17.461c0,0,495.049,0,495.049,0
				c3.902,0,7.691,1.39,10.667,3.913l74.585,63.226c8.745,7.414,19.47,11.121,30.197,11.121c10.703,0,21.408-3.693,30.145-11.077
				l74.871-63.285c2.975-2.514,6.757-3.898,10.65-3.898h496.551c25.75,0,46.698-20.949,46.698-46.698V844.026
				C1726,830.939,1720.582,819.1,1711.88,810.613z"/>
			<g>
				
					<linearGradient id="SVGID_00000132790291323828801590000000972852835631087527_" gradientUnits="userSpaceOnUse" x1="1039.2683" y1="754.9887" x2="1045.1067" y2="1706.6422">
					<stop  offset="0" style="stop-color:#FFCC5B"/>
					<stop  offset="0.3079" style="stop-color:#FFC146"/>
					<stop  offset="0.9425" style="stop-color:#FFA40F"/>
					<stop  offset="1" style="stop-color:#FFA10A"/>
				</linearGradient>
				<path style="fill:url(#SVGID_00000132790291323828801590000000972852835631087527_);" d="M1041.198,1725.817
					c-10.727,0-21.451-3.707-30.196-11.121l-74.585-63.226c-2.977-2.523-6.766-3.913-10.668-3.913H430.699
					c-25.791,0-46.698-20.907-46.698-46.698v-782.72c0-25.791,20.908-46.698,46.698-46.698h403.527
					c8.131,0,15.128,6.249,15.51,14.371c0.408,8.672-6.502,15.831-15.084,15.831H432.757c-10.247,0-18.555,8.307-18.555,18.554
					v780.663c0,9.111,7.386,16.497,16.497,16.497h495.049c11.046,0,21.77,3.934,30.197,11.076l74.585,63.227
					c6.173,5.231,15.137,5.238,21.317,0.015l74.872-63.285c8.418-7.115,19.125-11.033,30.145-11.033h496.182
					c9.276,0,16.865-7.589,16.865-16.865V818.139c0-9.111-7.386-16.497-16.497-16.497h-386.882c-8.131,0-15.128-6.249-15.51-14.371
					c-0.408-8.672,6.502-15.831,15.084-15.831h387.309c25.791,0,46.698,20.907,46.698,46.698v782.721
					c0,25.791-20.907,46.698-46.698,46.698h-496.551c-3.893,0-7.675,1.385-10.65,3.898l-74.871,63.285
					C1062.606,1722.125,1051.901,1725.817,1041.198,1725.817z"/>
			</g>
			<g>
				<g>
					<path style="fill:#333333;" d="M1102.923,794.152l-81.167,1.249c-3.572,0.055-6.512-2.796-6.567-6.368l0,0
						c-0.055-3.572,2.796-6.512,6.367-6.567l81.167-1.249c3.572-0.055,6.512,2.796,6.567,6.367l0,0
						C1109.346,791.157,1106.495,794.097,1102.923,794.152z"/>
					<path style="fill:#4D4D4D;" d="M1128.279,785.255l-132.14,2.034c-4.859,0.075-8.859-3.804-8.934-8.663l-1.356-88.111
						l149.738-2.305l1.356,88.111C1137.017,781.18,1133.139,785.18,1128.279,785.255z"/>
					<g>
						
							<linearGradient id="SVGID_00000142161831499644281550000004975810601137964172_" gradientUnits="userSpaceOnUse" x1="1333.4741" y1="-18.4816" x2="1333.4741" y2="337.0168" gradientTransform="matrix(0.9999 -0.0154 0.0154 0.9999 -276.8435 435.7552)">
							<stop  offset="0" style="stop-color:#FFCE00"/>
							<stop  offset="0.1895" style="stop-color:#FEC800"/>
							<stop  offset="0.447" style="stop-color:#FBB600"/>
							<stop  offset="0.7424" style="stop-color:#F59A00"/>
							<stop  offset="0.8989" style="stop-color:#F28800"/>
							<stop  offset="1" style="stop-color:#EC8200"/>
						</linearGradient>
						<path style="fill:url(#SVGID_00000142161831499644281550000004975810601137964172_);" d="M988.022,680.236l144.831-2.229
							c7.568-31.256,19.55-60.837,35.613-87.922c12.073-20.355,18.234-43.69,17.819-67.482
							c-1.217-69.722-58.927-126.19-128.646-125.877c-34.462,0.145-66.746,13.813-90.906,38.458
							c-24.165,24.651-37.182,57.194-36.651,91.633c0.356,23.15,6.946,45.735,19.057,65.313
							C966.295,619.866,979.377,649.507,988.022,680.236z"/>
						<g style="opacity:0.4;">
							<path style="fill:#FFFFFF;" d="M940.431,520.187c1.042-27.119,11.26-52.658,29.235-73.068
								c2.329-2.645,6.411-2.773,8.928-0.306l0,0c2.335,2.288,2.484,6.007,0.323,8.461c-16.082,18.268-25.226,41.119-26.163,65.38
								c-0.126,3.266-2.796,5.858-6.064,5.908h0C943.167,526.615,940.296,523.709,940.431,520.187z"/>
						</g>
						<g>
							<path style="fill:#333333;" d="M1133.285,691.027l-145.292,2.236c-5.772,0.089-10.889-3.721-12.444-9.266
								c-8.316-29.64-20.928-58.243-37.489-85.014c-13.348-21.579-20.61-46.464-21.003-71.966
								c-0.584-37.945,13.754-73.797,40.374-100.952c26.615-27.149,62.191-42.165,100.149-42.365
								c76.809-0.345,140.388,61.865,141.728,138.675c0.458,26.209-6.334,51.921-19.639,74.355
								c-15.443,26.037-26.954,54.493-34.214,84.577C1144.097,686.941,1139.092,690.938,1133.285,691.027z M988.022,680.236
								l144.831-2.229c7.568-31.256,19.55-60.837,35.613-87.922c12.073-20.355,18.234-43.69,17.819-67.482
								c-1.217-69.722-58.927-126.19-128.646-125.877c-34.462,0.145-66.746,13.813-90.906,38.458
								c-24.165,24.651-37.182,57.194-36.651,91.633c0.356,23.15,6.946,45.735,19.057,65.313
								C966.295,619.866,979.377,649.507,988.022,680.236z"/>
						</g>
						<g>
							
								<linearGradient id="SVGID_00000076597399437290391870000000637181902967580335_" gradientUnits="userSpaceOnUse" x1="1333.4767" y1="-165.792" x2="1333.4767" y2="402.3885" gradientTransform="matrix(0.9999 -0.0154 0.0154 0.9999 -276.8435 435.7552)">
								<stop  offset="0" style="stop-color:#FFCE00"/>
								<stop  offset="0.1895" style="stop-color:#FEC800"/>
								<stop  offset="0.447" style="stop-color:#FBB600"/>
								<stop  offset="0.7424" style="stop-color:#F59A00"/>
								<stop  offset="0.8989" style="stop-color:#F28800"/>
								<stop  offset="1" style="stop-color:#EC8200"/>
							</linearGradient>
							<path style="fill:url(#SVGID_00000076597399437290391870000000637181902967580335_);" d="M1055.508,350.864L1055.508,350.864
								c-4.046,0.062-7.377-3.168-7.439-7.214l-1.353-87.915c-0.062-4.046,3.167-7.377,7.214-7.439l0,0
								c4.046-0.062,7.377,3.167,7.439,7.213l1.353,87.915C1062.784,347.471,1059.554,350.802,1055.508,350.864z"/>
							
								<linearGradient id="SVGID_00000067220098445481141530000017764354187137885069_" gradientUnits="userSpaceOnUse" x1="1178.0477" y1="-165.7948" x2="1178.0477" y2="402.3915" gradientTransform="matrix(0.9999 -0.0154 0.0154 0.9999 -276.8435 435.7552)">
								<stop  offset="0" style="stop-color:#FFCE00"/>
								<stop  offset="0.1895" style="stop-color:#FEC800"/>
								<stop  offset="0.447" style="stop-color:#FBB600"/>
								<stop  offset="0.7424" style="stop-color:#F59A00"/>
								<stop  offset="0.8989" style="stop-color:#F28800"/>
								<stop  offset="1" style="stop-color:#EC8200"/>
							</linearGradient>
							<path style="fill:url(#SVGID_00000067220098445481141530000017764354187137885069_);" d="M937.118,402.051L937.118,402.051
								c-2.817,2.905-7.456,2.976-10.361,0.159l-63.122-61.208c-2.905-2.817-2.977-7.456-0.159-10.361l0,0
								c2.817-2.905,7.456-2.977,10.361-0.159l63.122,61.208C939.863,394.507,939.935,399.146,937.118,402.051z"/>
							
								<linearGradient id="SVGID_00000085949555909592131260000002456459283267091343_" gradientUnits="userSpaceOnUse" x1="1113.6656" y1="-165.8114" x2="1113.6656" y2="402.4053" gradientTransform="matrix(0.9999 -0.0154 0.0154 0.9999 -276.8435 435.7552)">
								<stop  offset="0" style="stop-color:#FFCE00"/>
								<stop  offset="0.1895" style="stop-color:#FEC800"/>
								<stop  offset="0.447" style="stop-color:#FBB600"/>
								<stop  offset="0.7424" style="stop-color:#F59A00"/>
								<stop  offset="0.8989" style="stop-color:#F28800"/>
								<stop  offset="1" style="stop-color:#EC8200"/>
							</linearGradient>
							<path style="fill:url(#SVGID_00000085949555909592131260000002456459283267091343_);" d="M889.598,521.96L889.598,521.96
								c0.062,4.046-3.167,7.377-7.214,7.439l-87.915,1.353c-4.046,0.062-7.377-3.167-7.439-7.214l0,0
								c-0.062-4.046,3.167-7.377,7.213-7.439l87.915-1.353C886.205,514.684,889.536,517.914,889.598,521.96z"/>
							
								<linearGradient id="SVGID_00000008107995732107654510000006116227330829554337_" gradientUnits="userSpaceOnUse" x1="1168.9336" y1="-165.7897" x2="1168.9336" y2="402.3863" gradientTransform="matrix(0.9999 -0.0154 0.0154 0.9999 -276.8435 435.7552)">
								<stop  offset="0" style="stop-color:#FFCE00"/>
								<stop  offset="0.1895" style="stop-color:#FEC800"/>
								<stop  offset="0.447" style="stop-color:#FBB600"/>
								<stop  offset="0.7424" style="stop-color:#F59A00"/>
								<stop  offset="0.8989" style="stop-color:#F28800"/>
								<stop  offset="1" style="stop-color:#EC8200"/>
							</linearGradient>
							<path style="fill:url(#SVGID_00000008107995732107654510000006116227330829554337_);" d="M931.803,648.769L931.803,648.769
								c2.905,2.817,2.977,7.456,0.159,10.361l-61.208,63.122c-2.817,2.905-7.456,2.977-10.361,0.159l0,0
								c-2.905-2.817-2.977-7.456-0.159-10.361l61.208-63.122C924.259,646.023,928.898,645.951,931.803,648.769z"/>
							
								<linearGradient id="SVGID_00000045584160013864542810000009144018096510776242_" gradientUnits="userSpaceOnUse" x1="1498.6465" y1="-165.7938" x2="1498.6465" y2="402.3924" gradientTransform="matrix(0.9999 -0.0154 0.0154 0.9999 -276.8435 435.7552)">
								<stop  offset="0" style="stop-color:#FFCE00"/>
								<stop  offset="0.1895" style="stop-color:#FEC800"/>
								<stop  offset="0.447" style="stop-color:#FBB600"/>
								<stop  offset="0.7424" style="stop-color:#F59A00"/>
								<stop  offset="0.8989" style="stop-color:#F28800"/>
								<stop  offset="1" style="stop-color:#EC8200"/>
							</linearGradient>
							<path style="fill:url(#SVGID_00000045584160013864542810000009144018096510776242_);" d="M1188.957,644.811L1188.957,644.811
								c2.817-2.905,7.456-2.977,10.361-0.159l63.122,61.208c2.905,2.817,2.976,7.456,0.159,10.361l0,0
								c-2.817,2.905-7.456,2.976-10.361,0.16l-63.122-61.208C1186.212,652.355,1186.14,647.716,1188.957,644.811z"/>
							
								<linearGradient id="SVGID_00000121259848772922038670000017712470006071565955_" gradientUnits="userSpaceOnUse" x1="1553.2827" y1="-165.8064" x2="1553.2827" y2="402.4103" gradientTransform="matrix(0.9999 -0.0154 0.0154 0.9999 -276.8435 435.7552)">
								<stop  offset="0" style="stop-color:#FFCE00"/>
								<stop  offset="0.1895" style="stop-color:#FEC800"/>
								<stop  offset="0.447" style="stop-color:#FBB600"/>
								<stop  offset="0.7424" style="stop-color:#F59A00"/>
								<stop  offset="0.8989" style="stop-color:#F28800"/>
								<stop  offset="1" style="stop-color:#EC8200"/>
							</linearGradient>
							<path style="fill:url(#SVGID_00000121259848772922038670000017712470006071565955_);" d="M1226.604,516.773L1226.604,516.773
								c-0.062-4.046,3.167-7.377,7.214-7.439l87.915-1.353c4.046-0.062,7.377,3.167,7.439,7.213l0,0
								c0.062,4.046-3.167,7.377-7.214,7.439l-87.915,1.353C1229.997,524.049,1226.667,520.82,1226.604,516.773z"/>
							
								<linearGradient id="SVGID_00000038409963757084629220000005800994367319659162_" gradientUnits="userSpaceOnUse" x1="1488.9042" y1="-165.7893" x2="1488.9042" y2="402.387" gradientTransform="matrix(0.9999 -0.0154 0.0154 0.9999 -276.8435 435.7552)">
								<stop  offset="0" style="stop-color:#FFCE00"/>
								<stop  offset="0.1895" style="stop-color:#FEC800"/>
								<stop  offset="0.447" style="stop-color:#FBB600"/>
								<stop  offset="0.7424" style="stop-color:#F59A00"/>
								<stop  offset="0.8989" style="stop-color:#F28800"/>
								<stop  offset="1" style="stop-color:#EC8200"/>
							</linearGradient>
							<path style="fill:url(#SVGID_00000038409963757084629220000005800994367319659162_);" d="M1175.417,398.383L1175.417,398.383
								c-2.905-2.817-2.977-7.456-0.159-10.361l61.208-63.122c2.817-2.905,7.456-2.977,10.361-0.159l0,0
								c2.905,2.817,2.977,7.456,0.159,10.361l-61.208,63.122C1182.961,401.129,1178.323,401.2,1175.417,398.383z"/>
						</g>
					</g>
					<g>
						<path style="fill:#333333;" d="M1136.939,710.937l-151.742,2.335c-3.572,0.055-6.512-2.796-6.567-6.367l0,0
							c-0.055-3.572,2.796-6.512,6.368-6.567l151.742-2.335c3.572-0.055,6.512,2.796,6.567,6.368l0,0
							C1143.361,707.942,1140.51,710.882,1136.939,710.937z"/>
						<path style="fill:#333333;" d="M1137.271,732.539l-151.742,2.335c-3.572,0.055-6.512-2.796-6.567-6.368l0,0
							c-0.055-3.572,2.796-6.512,6.368-6.567l151.742-2.335c3.572-0.055,6.512,2.796,6.567,6.367l0,0
							C1143.694,729.544,1140.843,732.484,1137.271,732.539z"/>
						<path style="fill:#333333;" d="M1137.604,754.141l-151.742,2.335c-3.572,0.055-6.512-2.796-6.567-6.367l0,0
							c-0.055-3.572,2.796-6.512,6.368-6.567l151.742-2.335c3.572-0.055,6.512,2.796,6.567,6.368l0,0
							C1144.026,751.146,1141.175,754.086,1137.604,754.141z"/>
						<path style="fill:#333333;" d="M1137.929,775.296l-151.742,2.335c-3.572,0.055-6.512-2.796-6.567-6.368l0,0
							c-0.055-3.572,2.796-6.511,6.368-6.566l151.742-2.335c3.572-0.055,6.512,2.796,6.567,6.367l0,0
							C1144.352,772.301,1141.501,775.241,1137.929,775.296z"/>
					</g>
					<g>
						<g>
							<path style="fill:#333333;" d="M1020.973,577.456c-14.88,0.229-27.173-11.691-27.402-26.571
								c-0.229-14.88,11.691-27.173,26.571-27.402c14.88-0.229,27.172,11.691,27.401,26.571
								C1047.772,564.934,1035.853,577.227,1020.973,577.456z M1020.296,533.509c-9.352,0.144-16.843,7.87-16.699,17.221
								c0.144,9.352,7.87,16.843,17.221,16.699c9.352-0.144,16.843-7.87,16.699-17.221
								C1037.374,540.856,1029.648,533.365,1020.296,533.509z"/>
						</g>
						
							<rect x="1038.592" y="550.123" transform="matrix(0.9999 -0.0154 0.0154 0.9999 -9.4229 16.1429)" style="fill:#333333;" width="10.027" height="139.748"/>
						
							<rect x="1054.213" y="533.517" transform="matrix(-0.0154 -0.9999 0.9999 -0.0154 503.7303 1639.7476)" style="fill:#333333;" width="10.027" height="76.671"/>
						<g>
							<path style="fill:#333333;" d="M1097,576.285c14.88-0.229,26.8-12.521,26.571-27.402
								c-0.229-14.881-12.521-26.8-27.402-26.571c-14.88,0.229-26.8,12.521-26.571,27.402
								C1069.828,564.595,1082.12,576.515,1097,576.285z M1096.323,532.339c9.352-0.144,17.077,7.348,17.221,16.699
								c0.144,9.352-7.348,17.077-16.699,17.221c-9.352,0.144-17.077-7.348-17.221-16.699
								C1079.481,540.208,1086.972,532.483,1096.323,532.339z"/>
						</g>
						
							<rect x="1070.673" y="549.629" transform="matrix(0.9999 -0.0154 0.0154 0.9999 -9.4056 16.626)" style="fill:#333333;" width="10.027" height="139.748"/>
					</g>
				</g>
			</g>
		</g>
	</g>
	<g>
		<g>
			
				<linearGradient id="SVGID_00000117672829537693575320000015756184300590177419_" gradientUnits="userSpaceOnUse" x1="660.0226" y1="930.2744" x2="660.0226" y2="1525.7383">
				<stop  offset="0" style="stop-color:#FFCC5B"/>
				<stop  offset="0.3079" style="stop-color:#FFC146"/>
				<stop  offset="0.9425" style="stop-color:#FFA40F"/>
				<stop  offset="1" style="stop-color:#FFA10A"/>
			</linearGradient>
			<path style="fill:url(#SVGID_00000117672829537693575320000015756184300590177419_);" d="M707.649,1236.405v285.758h-95.252
				v-285.758h-78.243v-80.672h251.738v80.672H707.649z"/>
			
				<linearGradient id="SVGID_00000042721221380489791890000017818231034183840933_" gradientUnits="userSpaceOnUse" x1="875.7959" y1="930.2744" x2="875.7959" y2="1525.7383">
				<stop  offset="0" style="stop-color:#FFCC5B"/>
				<stop  offset="0.3079" style="stop-color:#FFC146"/>
				<stop  offset="0.9425" style="stop-color:#FFA40F"/>
				<stop  offset="1" style="stop-color:#FFA10A"/>
			</linearGradient>
			<path style="fill:url(#SVGID_00000042721221380489791890000017818231034183840933_);" d="M923.421,1155.733v366.43H828.17
				v-366.43H923.421z"/>
			
				<linearGradient id="SVGID_00000180346844710675327970000005018589829524041367_" gradientUnits="userSpaceOnUse" x1="1139.6788" y1="930.2744" x2="1139.6788" y2="1525.7383">
				<stop  offset="0" style="stop-color:#FFCC5B"/>
				<stop  offset="0.3079" style="stop-color:#FFC146"/>
				<stop  offset="0.9425" style="stop-color:#FFA40F"/>
				<stop  offset="1" style="stop-color:#FFA10A"/>
			</linearGradient>
			<path style="fill:url(#SVGID_00000180346844710675327970000005018589829524041367_);" d="M1095.453,1522.163h-95.251v-366.43
				h151.625c41.141,0,72.654,10.692,94.524,32.074c21.868,21.384,32.804,51.516,32.804,90.393c0,38.879-10.936,69.009-32.804,90.393
				c-21.87,21.384-53.383,32.074-94.524,32.074h-56.374V1522.163z M1095.453,1323.882h31.589c34.99,0,52.487-15.224,52.487-45.682
				c0-30.449-17.497-45.682-52.487-45.682h-31.589V1323.882z"/>
			
				<linearGradient id="SVGID_00000011017739984982162250000010403950435234929590_" gradientUnits="userSpaceOnUse" x1="1448.5175" y1="930.2745" x2="1448.5175" y2="1525.739">
				<stop  offset="0" style="stop-color:#FFCC5B"/>
				<stop  offset="0.3079" style="stop-color:#FFC146"/>
				<stop  offset="0.9425" style="stop-color:#FFA40F"/>
				<stop  offset="1" style="stop-color:#FFA10A"/>
			</linearGradient>
			<path style="fill:url(#SVGID_00000011017739984982162250000010403950435234929590_);" d="M1530.89,1249.528
				c-10.373-8.422-20.737-14.655-31.103-18.71c-10.373-4.047-20.411-6.076-30.129-6.076c-12.317,0-22.356,2.916-30.132,8.747
				c-7.776,5.834-11.663,13.448-11.663,22.841c0,6.486,1.945,11.832,5.832,16.038c3.887,4.215,8.991,7.86,15.309,10.934
				c6.317,3.084,13.44,5.756,21.382,8.02c7.936,2.271,15.796,4.701,23.57,7.288c31.103,10.373,53.862,24.224,68.281,41.551
				c14.413,17.337,21.626,39.935,21.626,67.796c0,18.794-3.16,35.804-9.477,51.028c-6.317,15.231-15.55,28.269-27.702,39.121
				c-12.149,10.858-27.054,19.28-44.709,25.271c-17.663,5.991-37.664,8.991-60.02,8.991c-46.336,0-89.262-13.768-128.785-41.309
				l40.822-76.785c14.253,12.635,28.347,22.036,42.281,28.187c13.925,6.157,27.702,9.233,41.307,9.233
				c15.553,0,27.132-3.561,34.748-10.692c7.61-7.122,11.422-15.224,11.422-24.298c0-5.506-0.973-10.282-2.916-14.337
				c-1.945-4.047-5.186-7.774-9.721-11.178c-4.541-3.401-10.448-6.559-17.737-9.475c-7.291-2.916-16.122-6.151-26.486-9.721
				c-12.317-3.887-24.384-8.178-36.207-12.878c-11.829-4.692-22.353-10.934-31.589-18.71c-9.233-7.776-16.69-17.571-22.355-29.402
				c-5.672-11.823-8.504-26.804-8.504-44.953c0-18.14,2.991-34.58,8.991-49.327c5.991-14.739,14.411-27.373,25.271-37.906
				c10.85-10.526,24.132-18.71,39.85-24.542c15.71-5.832,33.289-8.747,52.729-8.747c18.14,0,37.092,2.512,56.86,7.532
				c19.757,5.027,38.711,12.393,56.86,22.112L1530.89,1249.528z"/>
		</g>
		<g>
			
				<linearGradient id="SVGID_00000008115263514896875620000016333772707723065755_" gradientUnits="userSpaceOnUse" x1="614.0918" y1="930.2745" x2="614.0918" y2="1525.7386">
				<stop  offset="0" style="stop-color:#FFCC5B"/>
				<stop  offset="0.3079" style="stop-color:#FFC146"/>
				<stop  offset="0.9425" style="stop-color:#FFA40F"/>
				<stop  offset="1" style="stop-color:#FFA10A"/>
			</linearGradient>
			<path style="fill:url(#SVGID_00000008115263514896875620000016333772707723065755_);" d="M580.577,987.132h67.03v-68.925h46.423
				v178.588h-46.423v-73.661h-67.03v73.661h-46.423V918.207h46.423V987.132z"/>
			
				<linearGradient id="SVGID_00000173162300344277487630000004252463494816357273_" gradientUnits="userSpaceOnUse" x1="782.2569" y1="930.2745" x2="782.2569" y2="1525.7386">
				<stop  offset="0" style="stop-color:#FFCC5B"/>
				<stop  offset="0.3079" style="stop-color:#FFC146"/>
				<stop  offset="0.9425" style="stop-color:#FFA40F"/>
				<stop  offset="1" style="stop-color:#FFA10A"/>
			</linearGradient>
			<path style="fill:url(#SVGID_00000173162300344277487630000004252463494816357273_);" d="M833.062,957.525h-55.187v29.844h52.108
				v39.317h-52.108v30.792h55.187v39.317h-101.61V918.207h101.61V957.525z"/>
			
				<linearGradient id="SVGID_00000156579122628197564380000013819272679019010237_" gradientUnits="userSpaceOnUse" x1="917.4978" y1="930.2745" x2="917.4978" y2="1525.7386">
				<stop  offset="0" style="stop-color:#FFCC5B"/>
				<stop  offset="0.3079" style="stop-color:#FFC146"/>
				<stop  offset="0.9425" style="stop-color:#FFA40F"/>
				<stop  offset="1" style="stop-color:#FFA10A"/>
			</linearGradient>
			<path style="fill:url(#SVGID_00000156579122628197564380000013819272679019010237_);" d="M912.879,918.207v139.271h55.66v39.317
				H866.456V918.207H912.879z"/>
			
				<linearGradient id="SVGID_00000014628513275544058330000007751836421528455300_" gradientUnits="userSpaceOnUse" x1="1060.4396" y1="930.2745" x2="1060.4396" y2="1525.7386">
				<stop  offset="0" style="stop-color:#FFCC5B"/>
				<stop  offset="0.3079" style="stop-color:#FFC146"/>
				<stop  offset="0.9425" style="stop-color:#FFA40F"/>
				<stop  offset="1" style="stop-color:#FFA10A"/>
			</linearGradient>
			<path style="fill:url(#SVGID_00000014628513275544058330000007751836421528455300_);" d="M1038.885,1096.795h-46.423V918.207
				h73.898c20.051,0,35.41,5.211,46.068,15.632c10.658,10.422,15.988,25.107,15.988,44.055c0,18.949-5.33,33.633-15.988,44.055
				c-10.659,10.422-26.017,15.632-46.068,15.632h-27.475V1096.795z M1038.885,1000.159h15.395c17.053,0,25.581-7.42,25.581-22.264
				c0-14.84-8.528-22.264-25.581-22.264h-15.395V1000.159z"/>
			
				<linearGradient id="SVGID_00000116954400665682961710000013125065345765565838_" gradientUnits="userSpaceOnUse" x1="1204.2075" y1="930.2745" x2="1204.2075" y2="1525.7386">
				<stop  offset="0" style="stop-color:#FFCC5B"/>
				<stop  offset="0.3079" style="stop-color:#FFC146"/>
				<stop  offset="0.9425" style="stop-color:#FFA40F"/>
				<stop  offset="1" style="stop-color:#FFA10A"/>
			</linearGradient>
			<path style="fill:url(#SVGID_00000116954400665682961710000013125065345765565838_);" d="M1255.368,957.525h-55.897v29.844
				h50.924v39.317h-50.924v70.109h-46.423V918.207h102.32V957.525z"/>
			
				<linearGradient id="SVGID_00000129926605486685493950000011967035268173934985_" gradientUnits="userSpaceOnUse" x1="1360.8859" y1="930.2745" x2="1360.8859" y2="1525.738">
				<stop  offset="0" style="stop-color:#FFCC5B"/>
				<stop  offset="0.3079" style="stop-color:#FFC146"/>
				<stop  offset="0.9425" style="stop-color:#FFA40F"/>
				<stop  offset="1" style="stop-color:#FFA10A"/>
			</linearGradient>
			<path style="fill:url(#SVGID_00000129926605486685493950000011967035268173934985_);" d="M1329.502,918.207v97.11
				c0,5.211,0.196,10.54,0.592,15.988c0.392,5.448,1.577,10.385,3.552,14.803c1.973,4.423,5.093,8.016,9.357,10.778
				c4.263,2.764,10.262,4.144,18.001,4.144c7.734,0,13.697-1.38,17.882-4.144c4.182-2.761,7.302-6.354,9.355-10.778
				c2.051-4.418,3.276-9.356,3.672-14.803c0.391-5.448,0.591-10.777,0.591-15.988v-97.11h46.187v103.506
				c0,27.793-6.359,48.082-19.067,60.872c-12.713,12.79-32.253,19.185-58.622,19.185c-26.373,0-45.949-6.396-58.74-19.185
				c-12.79-12.79-19.184-33.079-19.184-60.872V918.207H1329.502z"/>
			
				<linearGradient id="SVGID_00000155142829338349741870000018178771192264901298_" gradientUnits="userSpaceOnUse" x1="1527.1547" y1="930.2745" x2="1527.1547" y2="1525.7386">
				<stop  offset="0" style="stop-color:#FFCC5B"/>
				<stop  offset="0.3079" style="stop-color:#FFC146"/>
				<stop  offset="0.9425" style="stop-color:#FFA40F"/>
				<stop  offset="1" style="stop-color:#FFA10A"/>
			</linearGradient>
			<path style="fill:url(#SVGID_00000155142829338349741870000018178771192264901298_);" d="M1522.536,918.207v139.271h55.661
				v39.317h-102.083V918.207H1522.536z"/>
		</g>
	</g>
</g>
</svg>
