<svg width="100" height="100" viewBox="0 0 100 100" fill="none" xmlns="http://www.w3.org/2000/svg">
<path fill-rule="evenodd" clip-rule="evenodd" d="M45 0.25C19.7334 2.75862 0 24.0764 0 50.0031C0 75.9299 19.7334 97.2476 45 99.7562V97.7458C20.84 95.2453 2 74.8243 2 50.0031C2 25.1819 20.84 4.761 45 2.2604V0.25ZM55 97.7458C79.16 95.2453 98 74.8243 98 50.0031C98 25.1819 79.16 4.761 55 2.2604V0.25C80.2666 2.75862 100 24.0764 100 50.0031C100 75.9299 80.2666 97.2476 55 99.7562V97.7458Z" fill="white"/>
<path d="M73.8594 32.2344V41.375H75.8906V32.2344C75.889 30.8881 75.3535 29.5974 74.4015 28.6454C73.4495 27.6934 72.1588 27.1579 70.8125 27.1562H58.625V29.1875H70.8125C71.6206 29.1875 72.3956 29.5085 72.967 30.0799C73.5384 30.6513 73.8594 31.4263 73.8594 32.2344ZM27.1406 32.2344C27.1406 31.4263 27.4616 30.6513 28.033 30.0799C28.6044 29.5085 29.3794 29.1875 30.1875 29.1875H42.375V27.1562H30.1875C28.8412 27.1579 27.5505 27.6934 26.5985 28.6454C25.6465 29.5974 25.111 30.8881 25.1094 32.2344V40.3594H27.1406V32.2344ZM60.6562 25.125H62.6875V23.0938H64.7188V21.0625H62.6875V19.0312H60.6562V21.0625H58.625V23.0938H60.6562V25.125ZM38.3125 25.125H40.3438V23.0938H42.375V21.0625H40.3438V19.0312H38.3125V21.0625H36.2812V23.0938H38.3125V25.125Z" fill="white"/>
<path d="M60.6562 37.3125H62.6875V35.2812H64.7188V33.25H62.6875V31.2188H60.6562V33.25H58.625V35.2812H60.6562V37.3125ZM40.3438 37.3125V35.2812H42.375V33.25H40.3438V31.2188H38.3125V33.25H36.2812V35.2812H38.3125V37.3125H40.3438ZM46.6406 29.0311C47.25 29.5998 47.4531 29.8334 47.4531 30.2031C47.4531 30.4725 47.5601 30.7308 47.7506 30.9213C47.9411 31.1117 48.1994 31.2188 48.4688 31.2188H52.5312C52.8006 31.2188 53.0589 31.1117 53.2494 30.9213C53.4399 30.7308 53.5469 30.4725 53.5469 30.2031C53.5469 29.8334 53.7581 29.5998 54.3594 29.0311C55.0905 28.4424 55.6734 27.6905 56.0615 26.8358C56.4495 25.9811 56.6318 25.0473 56.5938 24.1094C56.5938 20.7761 53.5276 19.0312 50.5 19.0312C47.4724 19.0312 44.4062 20.7761 44.4062 24.1094C44.3682 25.0473 44.5505 25.9811 44.9385 26.8358C45.3266 27.6905 45.9095 28.4424 46.6406 29.0311ZM50.5 21.0625C52.4571 21.0625 54.5625 22.0152 54.5625 24.1094C54.5982 24.7698 54.4717 25.4289 54.1941 26.0292C53.9165 26.6295 53.4963 27.1528 52.97 27.5534C52.4284 27.9945 51.9945 28.5534 51.7015 29.1875H49.2985C49.0055 28.5534 48.5716 27.9945 48.03 27.5534C47.5037 27.1528 47.0835 26.6295 46.8059 26.0292C46.5283 25.4289 46.4018 24.7698 46.4375 24.1094C46.4375 22.0152 48.5429 21.0625 50.5 21.0625ZM47.4531 32.2344H53.5469V34.2656H47.4531V32.2344ZM47.4531 35.2812H53.5469V37.3125H47.4531V35.2812ZM35.2656 56.6094H37.2969V58.6406H35.2656V56.6094ZM31.2031 56.6094H33.2344V58.6406H31.2031V56.6094Z" fill="white"/>
<path d="M47.8696 71.9352L38.7289 67.8727C38.5995 67.8149 38.4593 67.7851 38.3176 67.7851C38.1759 67.7851 38.0357 67.8149 37.9063 67.8727L37.6219 66.2172C38.7504 65.6101 39.6937 64.709 40.3516 63.6093C41.0096 62.5097 41.3579 61.2525 41.3594 59.9711V55.5938C42.1667 55.5913 42.9403 55.2696 43.5112 54.6987C44.0821 54.1278 44.4039 53.3542 44.4063 52.5469V50.5156C44.4041 48.6308 43.6544 46.8237 42.3216 45.4909C40.9888 44.1581 39.1818 43.4084 37.2969 43.4062H25.1094C24.84 43.4062 24.5817 43.5133 24.3912 43.7037C24.2008 43.8942 24.0938 44.1525 24.0938 44.4219V48.4844C24.0962 49.6265 24.3744 50.7512 24.9049 51.7626C25.4354 52.7741 26.2024 53.6424 27.1406 54.2938V59.9711C27.1421 61.2348 27.4808 62.4752 28.1217 63.5643C28.7627 64.6534 29.6827 65.5516 30.7867 66.1664L30.5024 67.8422C30.2633 67.7611 30.0026 67.772 29.7711 67.8727L20.6305 71.9352C20.4513 72.0139 20.299 72.1434 20.1926 72.3076C20.0861 72.4718 20.03 72.6636 20.0313 72.8594V78.9531C20.0313 79.2225 20.1383 79.4808 20.3287 79.6713C20.5192 79.8617 20.7775 79.9688 21.0469 79.9688H47.4531C47.7225 79.9688 47.9808 79.8617 48.1713 79.6713C48.3618 79.4808 48.4688 79.2225 48.4688 78.9531V72.8594C48.47 72.6636 48.414 72.4718 48.3075 72.3076C48.201 72.1434 48.0488 72.0139 47.8696 71.9352ZM26.125 48.4844V45.4375H37.2969C37.9638 45.4375 38.6241 45.5688 39.2402 45.824C39.8563 46.0792 40.4161 46.4533 40.8877 46.9248C41.3592 47.3964 41.7333 47.9562 41.9885 48.5723C42.2437 49.1884 42.375 49.8488 42.375 50.5156V52.5469C42.375 52.8162 42.268 53.0746 42.0776 53.265C41.8871 53.4555 41.6288 53.5625 41.3594 53.5625H41.3086C41.2551 53.3988 41.1609 53.2514 41.0347 53.1341C40.9086 53.0169 40.7547 52.9336 40.5875 52.8922L32.4625 50.8609C32.2277 50.803 31.9801 50.8281 31.7617 50.932L28.3289 52.6484C27.6517 52.1848 27.0973 51.5636 26.7133 50.8383C26.3294 50.1129 26.1275 49.3051 26.125 48.4844ZM29.1719 59.9711V54.4969L32.3406 52.9227L39.3281 54.6695V59.9711C39.3281 61.3179 38.7931 62.6095 37.8408 63.5619C36.8885 64.5142 35.5968 65.0492 34.25 65.0492C32.9032 65.0492 31.6116 64.5142 30.6592 63.5619C29.7069 62.6095 29.1719 61.3179 29.1719 59.9711ZM36.1188 69.5484L34.25 71.4273L32.2899 69.4672L32.7164 66.9078C33.2196 67.022 33.734 67.08 34.25 67.0805C34.7315 67.0817 35.2116 67.0306 35.6821 66.9281L36.1188 69.5484ZM46.4375 77.9375H22.0625V73.5195L29.9641 70.0055L33.5289 73.5805C33.7207 73.7707 33.9799 73.8775 34.25 73.8775C34.5202 73.8775 34.7794 73.7707 34.9711 73.5805L38.536 70.0055L46.4375 73.5195V77.9375ZM67.7656 56.6094H69.7969V58.6406H67.7656V56.6094ZM63.7031 56.6094H65.7344V58.6406H63.7031V56.6094Z" fill="white"/>
<path d="M80.3695 71.9352L76.9063 70.3914V52.5469C76.9041 50.662 76.1544 48.855 74.8216 47.5222C73.4888 46.1894 71.6818 45.4397 69.7969 45.4375H63.7031C61.8183 45.4397 60.0112 46.1894 58.6784 47.5222C57.3456 48.855 56.5959 50.662 56.5938 52.5469V70.3914L53.1305 71.9352C52.9513 72.0139 52.799 72.1434 52.6926 72.3076C52.5861 72.4718 52.53 72.6636 52.5313 72.8594V78.9531C52.5313 79.2225 52.6383 79.4808 52.8287 79.6713C53.0192 79.8617 53.2775 79.9688 53.5469 79.9688H79.9531C80.2225 79.9688 80.4808 79.8617 80.6713 79.6713C80.8618 79.4808 80.9688 79.2225 80.9688 78.9531V72.8594C80.97 72.6636 80.914 72.4718 80.8075 72.3076C80.701 72.1434 80.5488 72.0139 80.3695 71.9352ZM58.625 52.5469C58.625 51.2001 59.16 49.9084 60.1124 48.9561C61.0647 48.0038 62.3563 47.4688 63.7031 47.4688H69.7969C71.1437 47.4688 72.4353 48.0038 73.3877 48.9561C74.34 49.9084 74.875 51.2001 74.875 52.5469V69.4875L71.2289 67.8727C71.0995 67.8149 70.9593 67.7851 70.8176 67.7851C70.6759 67.7851 70.5357 67.8149 70.4063 67.8727L70.1219 66.2172C71.2504 65.6101 72.1937 64.709 72.8516 63.6093C73.5096 62.5097 73.8579 61.2525 73.8594 59.9711V53.8773C73.859 53.7086 73.8172 53.5425 73.7375 53.3937C73.6578 53.2449 73.5427 53.118 73.4024 53.0242L70.3555 50.993C70.2417 50.9172 70.1137 50.8655 69.9792 50.8411C69.8447 50.8166 69.7066 50.8199 69.5735 50.8508L60.4328 52.882C60.2078 52.9341 60.007 53.0608 59.8632 53.2415C59.7193 53.4223 59.6409 53.6464 59.6406 53.8773V59.9711C59.6421 61.2348 59.9808 62.4752 60.6217 63.5643C61.2627 64.6534 62.1827 65.5516 63.2867 66.1664L63.0024 67.8422C62.7633 67.7611 62.5026 67.772 62.2711 67.8727L58.625 69.4875V52.5469ZM66.75 65.0492C65.4039 65.0471 64.1135 64.5114 63.1616 63.5595C62.2097 62.6076 61.674 61.3172 61.6719 59.9711V54.6898L69.5938 52.9328L71.8281 54.4156V59.9711C71.826 61.3172 71.2903 62.6076 70.3384 63.5595C69.3866 64.5114 68.0962 65.0471 66.75 65.0492ZM68.6188 69.5484L66.75 71.4273L64.7899 69.4672L65.2164 66.9078C65.7196 67.022 66.234 67.08 66.75 67.0805C67.2315 67.0817 67.7116 67.0306 68.182 66.9281L68.6188 69.5484ZM78.9375 77.9375H54.5625V73.5195L62.4641 70.0055L66.0289 73.5805C66.2207 73.7707 66.4799 73.8775 66.75 73.8775C67.0202 73.8775 67.2794 73.7707 67.4711 73.5805L71.036 70.0055L78.9375 73.5195V77.9375Z" fill="white"/>
</svg>
