<svg xmlns="http://www.w3.org/2000/svg" version="1.1" xmlns:xlink="http://www.w3.org/1999/xlink" width="512" height="512" x="0" y="0" viewBox="0 0 512 512" style="enable-background:new 0 0 512 512" xml:space="preserve" class=""><g><path d="M42.667 256A213.3 213.3 0 0 1 388.112 88.534h-32.451a10.667 10.667 0 0 0 0 21.333H416A10.667 10.667 0 0 0 426.667 99.2V38.859a10.667 10.667 0 1 0-21.333 0v36.12A234.666 234.666 0 0 0 90.068 421.932a10.666 10.666 0 1 0 15.083-15.083A211.939 211.939 0 0 1 42.667 256zM162.771 447.953a214.93 214.93 0 0 1-17.8-9.729 10.666 10.666 0 1 0-11.115 18.208 234.671 234.671 0 0 0 19.594 10.708 10.666 10.666 0 1 0 9.323-19.187zM448.047 162.969a10.665 10.665 0 1 0 19.2-9.3 234.794 234.794 0 0 0-10.677-19.6 10.668 10.668 0 0 0-18.229 11.089 214.378 214.378 0 0 1 9.706 17.811zM281.307 467.839c-6.734.8-13.547 1.276-20.255 1.438a10.666 10.666 0 0 0 .248 21.323c.083 0 .172 0 .255-.005 7.375-.172 14.859-.7 22.255-1.573a10.667 10.667 0 0 0-2.5-21.187zM220.6 466.391a211.66 211.66 0 0 1-19.828-4.3 10.669 10.669 0 0 0-5.51 20.615 234.398 234.398 0 0 0 21.828 4.724 10.666 10.666 0 0 0 3.51-21.042zM480.193 250.857a10.671 10.671 0 0 0-10.927 10.4 217.377 217.377 0 0 1-1.464 20.255 10.674 10.674 0 0 0 9.328 11.859 11.813 11.813 0 0 0 1.281.073 10.67 10.67 0 0 0 10.578-9.4 239.267 239.267 0 0 0 1.6-22.255 10.664 10.664 0 0 0-10.396-10.932zM447.453 372.865a10.679 10.679 0 0 0-14.818 2.828 214.947 214.947 0 0 1-12.193 16.234 10.664 10.664 0 1 0 16.427 13.6 235.268 235.268 0 0 0 13.411-17.849 10.663 10.663 0 0 0-2.827-14.813zM462.151 200.969a213.806 213.806 0 0 1 4.276 19.833 10.669 10.669 0 0 0 10.51 8.922 10.883 10.883 0 0 0 1.755-.146 10.665 10.665 0 0 0 8.776-12.271 234.336 234.336 0 0 0-4.7-21.828 10.666 10.666 0 0 0-20.615 5.49zM391.745 420.589a213.478 213.478 0 0 1-16.234 12.177 10.665 10.665 0 1 0 11.969 17.656 235.968 235.968 0 0 0 17.859-13.385 10.669 10.669 0 0 0-13.594-16.448zM472.583 314.214a10.676 10.676 0 0 0-13.4 6.922 212.34 212.34 0 0 1-7.089 19.005 10.665 10.665 0 1 0 19.6 8.406 230.262 230.262 0 0 0 7.807-20.932 10.659 10.659 0 0 0-6.918-13.401zM339.937 452.182a212.488 212.488 0 0 1-19.01 7.078 10.665 10.665 0 1 0 6.479 20.323 233.782 233.782 0 0 0 20.927-7.786 10.668 10.668 0 0 0-8.4-19.615z" fill="#ee2737" opacity="1" data-original="#000000"></path><path d="M165.792 234.208c0-17.482-11.495-31.49-29.286-35.69a44.412 44.412 0 0 0-50.047 23.531 10.668 10.668 0 0 0 19.083 9.542 22.905 22.905 0 0 1 26.062-12.31c3.016.711 12.854 3.893 12.854 14.927 0 11.125-12.849 19.706-26.453 28.792-15.318 10.224-32.672 21.812-32.672 41A10.667 10.667 0 0 0 96 314.667h59.125a10.667 10.667 0 1 0 0-21.333h-42.26c4.469-4.234 10.786-8.453 16.984-12.594 16.851-11.25 35.943-24 35.943-46.532zM266.667 269.333A10.667 10.667 0 0 0 256 258.667h-8.667V202a10.668 10.668 0 0 0-18.989-6.674l-54 67.336A10.669 10.669 0 0 0 182.667 280H226v30a10.667 10.667 0 1 0 21.333 0v-30H256a10.667 10.667 0 0 0 10.667-10.667zM226 258.667h-21.1l21.1-26.318zM321.26 185.542a10.646 10.646 0 0 0-12.552 8.367l-24 120a10.666 10.666 0 0 0 8.365 12.552 10.793 10.793 0 0 0 2.1.208 10.667 10.667 0 0 0 10.448-8.573l24-120a10.662 10.662 0 0 0-8.361-12.554zM375.995 314.672a10.678 10.678 0 0 0 9.849-6.568l40-96A10.664 10.664 0 0 0 416 197.333h-54a10.667 10.667 0 0 0 0 21.333h38L366.156 299.9a10.68 10.68 0 0 0 9.839 14.776z" fill="#ee2737" opacity="1" data-original="#000000"></path></g></svg>