<svg xmlns="http://www.w3.org/2000/svg" version="1.1" xmlns:xlink="http://www.w3.org/1999/xlink" width="512" height="512" x="0" y="0" viewBox="0 0 60 60" style="enable-background:new 0 0 512 512" xml:space="preserve" class=""><g><g fill="#000" fill-rule="nonzero"><path d="M3 60h39a3 3 0 0 0 3-3V41a1 1 0 0 0-2 0v16a1 1 0 0 1-1 1H3a1 1 0 0 1-1-1V16h10a4 4 0 0 0 4-4V2h26a1 1 0 0 1 1 1v16a1 1 0 0 0 2 0V3a3 3 0 0 0-3-3H15.829a2.978 2.978 0 0 0-2.122.879L.879 13.707A2.978 2.978 0 0 0 0 15.829V57a3 3 0 0 0 3 3zM14 3.414V12a2 2 0 0 1-2 2H3.414z" fill="#ee2737" opacity="1" data-original="#000000"></path><path d="M6 21a1 1 0 0 0 1 1h31a1 1 0 0 0 0-2H7a1 1 0 0 0-1 1zM7 27h23.77a1 1 0 0 0 0-2H7a1 1 0 0 0 0 2zM7 32h16.53a1 1 0 0 0 0-2H7a1 1 0 0 0 0 2zM7 41h7.52a1 1 0 0 0 0-2H7a1 1 0 0 0 0 2zM7 46h4.11a1 1 0 0 0 0-2H7a1 1 0 0 0 0 2z" fill="#ee2737" opacity="1" data-original="#000000"></path><path d="M41.58 24.6 21.994 38.147a2 2 0 0 0-.515.519L15.2 47.872A2 2 0 0 0 14.85 49H7a1 1 0 0 0 0 2h9.845c.161 0 .322-.02.479-.058l10.826-2.626c.24-.057.467-.16.669-.3L48.4 34.472l4.112-2.844 5.757-3.981a4.005 4.005 0 0 0 1.015-5.565l-2.276-3.29a4 4 0 0 0-5.565-1.015l-5.757 3.982zm4.427-.63 4.551 6.58-2.468 1.708-4.55-6.58zm.438 9.424L28.351 45.909 23.8 39.33l18.1-12.514zm-24.03 7.446 4.032 5.83-4.166 1.01L20 44.383zm-3.622 5.311 1.407 2.036-3.348.813zm33.794-26.73a2 2 0 0 1 2.783.508l2.275 3.29A2 2 0 0 1 57.137 26L52.2 29.414l-4.551-6.58zM38 49v4h-4a1 1 0 0 0 0 2h5a1 1 0 0 0 1-1v-5a1 1 0 0 0-2 0zM39 5h-8a1 1 0 0 0 0 2h8a1 1 0 0 0 0-2zM39 9h-5a1 1 0 0 0 0 2h5a1 1 0 0 0 0-2z" fill="#ee2737" opacity="1" data-original="#000000"></path></g></g></svg>