<svg xmlns="http://www.w3.org/2000/svg" version="1.1" xmlns:xlink="http://www.w3.org/1999/xlink" width="512" height="512" x="0" y="0" viewBox="0 0 510 510" style="enable-background:new 0 0 512 512" xml:space="preserve" fill-rule="evenodd" class=""><g><path d="M58.155 375.68H46.444c-9.469 0-17.144-7.676-17.144-17.144v-11.49c0-9.468 7.675-17.144 17.144-17.144h11.711v-12.355a17.09 17.09 0 0 1 5.028-12.128 198.809 198.809 0 0 1-.056-4.766c0-43.111 13.663-83.13 36.88-115.948l-22.697-22.68c-6.956-6.955-6.956-18.252 0-25.207l23.329-23.329c6.955-6.956 18.252-6.956 25.205-.002l22.696 22.678c23.91-16.92 51.643-28.767 81.607-33.951V76.001h-18.824c-9.847 0-17.828-7.981-17.828-17.828V25.829c0-9.848 7.981-17.829 17.828-17.829h106.33c9.806 0 17.8 7.976 17.8 17.829v32.344c0 9.852-7.994 17.828-17.8 17.828H298.8v26.212c29.973 5.183 57.712 17.029 81.627 33.95l22.675-22.674c6.955-6.956 18.251-6.956 25.207 0l23.329 23.329c6.955 6.955 6.955 18.252 0 25.207l-22.674 22.674c23.22 32.82 36.885 72.841 36.885 115.954C465.849 411.546 375.397 502 264.474 502c-72.669 0-136.565-38.836-171.974-96.821H75.299c-9.468 0-17.144-7.676-17.144-17.144zm0-31.778H46.444a3.144 3.144 0 0 0-3.144 3.144v11.49a3.144 3.144 0 0 0 3.144 3.144h11.711zm18.972-43.499h16.096l.251.002c.135-94.063 76.906-170.752 171-170.752 94.176 0 171 76.824 171 171s-76.824 171-171 171c-67.293 0-125.731-39.219-153.604-95.973h-.503v12.355c0 4.573-1.79 8.728-4.708 11.802C138.842 452.714 197.67 488 264.474 488c103.211 0 187.375-84.164 187.375-187.347 0-103.211-84.164-187.376-187.375-187.376-103.1 0-187.211 84.029-187.347 187.126zm30.531 7.891a17.06 17.06 0 0 1 2.709 9.253v12.355h43.539v-12.355c0-9.468 7.676-17.144 17.144-17.144h17.924c9.469 0 17.144 7.676 17.144 17.144v12.355h11.712c9.469 0 17.144 7.676 17.144 17.144v11.49c0 9.468-7.675 17.144-17.144 17.144h-11.712v12.355c0 9.468-7.675 17.144-17.144 17.144H171.05c-9.468 0-17.144-7.676-17.144-17.144V375.68h-27.268c26.694 48.767 78.513 81.973 137.836 81.973 86.466 0 157-70.534 157-157s-70.534-157-157-157-157 70.534-157 157c0 2.561.062 5.109.184 7.641zm2.709 35.608v17.778h43.539v-17.778zm-1.805-170.44a203.537 203.537 0 0 1 28.736-28.739l-21.351-21.335a3.827 3.827 0 0 0-5.408 0l-23.33 23.33a3.825 3.825 0 0 0 0 5.407zm135.585-73.163c6.687-.676 13.468-1.022 20.327-1.022s13.64.346 20.326 1.022V76.001h-40.653zM391.67 144.72a203.53 203.53 0 0 1 28.737 28.737l21.332-21.332a3.825 3.825 0 0 0 0-5.407l-23.33-23.33a3.827 3.827 0 0 0-5.408 0zM206.118 343.902v17.778h11.712a3.144 3.144 0 0 0 3.144-3.144v-11.49a3.144 3.144 0 0 0-3.144-3.144zM72.155 317.547v70.488a3.144 3.144 0 0 0 3.144 3.144h17.924a3.144 3.144 0 0 0 3.144-3.144v-70.488a3.144 3.144 0 0 0-3.144-3.144H75.299a3.144 3.144 0 0 0-3.144 3.144zm116.819-3.144H171.05a3.144 3.144 0 0 0-3.144 3.144v70.488a3.144 3.144 0 0 0 3.144 3.144h17.924a3.144 3.144 0 0 0 3.144-3.144v-70.488a3.144 3.144 0 0 0-3.144-3.144zM211.323 22a3.828 3.828 0 0 0-3.828 3.829v32.344a3.828 3.828 0 0 0 3.828 3.828h106.33c2.1 0 3.8-1.719 3.8-3.828V25.829c0-2.11-1.7-3.829-3.8-3.829zm14.825 402.9 3.381 7.513c1.586 3.523.013 7.67-3.51 9.256s-7.67.013-9.256-3.51l-10.443-23.201a7 7 0 0 1 3.507-9.255l23.207-10.46a7.003 7.003 0 0 1 9.258 3.505 7.003 7.003 0 0 1-3.505 9.258l-8.089 3.646a115.87 115.87 0 0 0 33.776 5.001c56.266 0 103.232-40.144 113.783-93.331a7.003 7.003 0 0 1 8.228-5.504 7.003 7.003 0 0 1 5.504 8.228c-11.825 59.609-64.456 104.607-127.515 104.607-13.338 0-26.209-2.014-38.326-5.753zm63.594-117.247c-3.077 11.054-13.251 19.195-25.268 19.195-14.441 0-26.221-11.757-26.221-26.198 0-12.016 8.16-22.193 19.221-25.269v-97.728a7 7 0 0 1 7-7c71.749 0 130 58.251 130 130a7 7 0 0 1-7 7zm-18.268-32.272c8.832 2.456 15.814 9.44 18.27 18.272h90.522c-3.486-58.453-50.34-105.306-108.792-108.792zm-7 37.467c6.727 0 12.221-5.471 12.221-12.198 0-6.729-5.491-12.221-12.221-12.221s-12.221 5.492-12.221 12.221c0 6.727 5.494 12.198 12.221 12.198zm-42.517-120.145c-43.015 16.976-73.483 58.933-73.483 107.95 0 3.863-3.137 7-7 7s-7-3.137-7-7c0-55.768 35.192-103.381 84.561-121.824l-9.208-4.15a7.003 7.003 0 0 1-3.506-9.258 7.003 7.003 0 0 1 9.258-3.505l23.208 10.46a7 7 0 0 1 3.507 9.255l-10.444 23.201a7.003 7.003 0 0 1-9.256 3.51 7.004 7.004 0 0 1-3.51-9.257z" fill="#ee2737" opacity="1" data-original="#000000"></path></g></svg>