<svg xmlns="http://www.w3.org/2000/svg" version="1.1" xmlns:xlink="http://www.w3.org/1999/xlink" width="512" height="512" x="0" y="0" viewBox="0 0 100 100" style="enable-background:new 0 0 512 512" xml:space="preserve"><g><path d="M25.506 33.418c4.05 0 7.344-3.294 7.344-7.344 0-4.049-3.294-7.344-7.344-7.344-4.049 0-7.343 3.294-7.343 7.344s3.294 7.344 7.343 7.344zm0-11.688a4.349 4.349 0 0 1 4.344 4.344 4.348 4.348 0 0 1-4.344 4.344c-2.395 0-4.343-1.949-4.343-4.344s1.948-4.344 4.343-4.344zM37.428 55.465a2.15 2.15 0 0 0-.367-.05 4.232 4.232 0 0 0-.834-.023l-13.194.007a1.5 1.5 0 1 0 0 3h12.979c.118 0 .234-.005.35-.01.092-.004.18-.016.261-.006a1.5 1.5 0 0 0 .25.032c.103.022.257.049.442.049.858 0 1.557.698 1.557 1.556v24.922c0 .858-.698 1.556-1.557 1.556a1.558 1.558 0 0 1-1.555-1.556V65.617a1.5 1.5 0 0 0-1.5-1.5H16.763a2.863 2.863 0 0 1-2.86-2.859c0-.167.027-.328.054-.488.025-.149.027-.301.007-.451l-.018-.121c-.019-.134-.043-.269-.043-.409V40.174c0-2.104 1.712-3.815 3.815-3.815s3.814 1.711 3.814 3.815v6.445a1.5 1.5 0 0 0 1.5 1.5H36.61a1.001 1.001 0 0 1 0 2H25.532c-.181 0-.36.033-.529.097l-3.867 1.458a1.545 1.545 0 0 0-.181.082l-1.65.887.048-10.958a1.5 1.5 0 0 0-1.493-1.506h-.007a1.5 1.5 0 0 0-1.5 1.494l-.059 13.479a1.499 1.499 0 0 0 2.21 1.328l3.783-2.034 3.519-1.326H36.61c2.206 0 4-1.794 4-4s-1.794-4-4-4H24.532v-4.945c0-3.758-3.057-6.815-6.814-6.815s-6.815 3.057-6.815 6.815V59.79c0 .246.025.485.058.723-.032.23-.058.477-.058.746a5.867 5.867 0 0 0 5.86 5.859h15.996v17.824a4.56 4.56 0 0 0 4.555 4.556 4.561 4.561 0 0 0 4.557-4.556V60.019a4.562 4.562 0 0 0-4.443-4.554z" fill="#ee2737" opacity="1" data-original="#000000"></path><path d="M29.233 68.483H9.13V38.15a1.5 1.5 0 1 0-3 0v31.833a1.5 1.5 0 0 0 1.5 1.5h1.88v16.514a1.5 1.5 0 1 0 3 0V71.483h11v16.514a1.5 1.5 0 1 0 3 0V71.483h2.724a1.5 1.5 0 1 0-.001-3zM89.098 61.258c0-.269-.025-.516-.058-.746.032-.237.058-.477.058-.723V40.174c0-3.758-3.058-6.815-6.815-6.815s-6.814 3.057-6.814 6.815v15.224h-11.48l-.216-.007a4.611 4.611 0 0 0-.832.023 2.127 2.127 0 0 0-.368.05 4.561 4.561 0 0 0-4.443 4.554V84.94a4.562 4.562 0 0 0 4.557 4.556 4.56 4.56 0 0 0 4.555-4.556V67.117h15.996a5.866 5.866 0 0 0 5.86-5.859zm-23.357 2.859a1.5 1.5 0 0 0-1.5 1.5v19.324a1.557 1.557 0 0 1-3.112 0V60.019c0-.858.698-1.556 1.557-1.556.177 0 .325-.025.438-.048.107-.002.217-.014.309-.033l.206.007c.115.005.231.01.35.01H76.968l.008-.001c.146 0 .285-.028.419-.068.016-.004.031-.002.046-.007l5.238-1.74a1.498 1.498 0 0 0 1.027-1.43l-.059-13.479a1.501 1.501 0 0 0-1.5-1.494h-.007a1.5 1.5 0 0 0-1.493 1.506l.054 12.392-2.233.742V40.174c0-2.104 1.711-3.815 3.814-3.815s3.815 1.711 3.815 3.815V59.79c0 .14-.024.274-.043.409l-.018.121c-.021.15-.019.302.007.451.026.16.054.32.054.488a2.863 2.863 0 0 1-2.86 2.859H65.741zM82.147 31.264c4.049 0 7.343-3.294 7.343-7.344 0-4.049-3.294-7.344-7.343-7.344-4.05 0-7.344 3.294-7.344 7.344.001 4.049 3.295 7.344 7.344 7.344zm0-11.688a4.348 4.348 0 0 1 4.343 4.344 4.348 4.348 0 0 1-4.343 4.344 4.349 4.349 0 0 1-4.344-4.344 4.35 4.35 0 0 1 4.344-4.344z" fill="#ee2737" opacity="1" data-original="#000000"></path><path d="M92.37 36.65a1.5 1.5 0 0 0-1.5 1.5v30.333H70.767a1.5 1.5 0 1 0 0 3h2.724v16.514a1.5 1.5 0 1 0 3 0V71.483h11v16.514a1.5 1.5 0 1 0 3 0V71.483h1.88a1.5 1.5 0 0 0 1.5-1.5V38.15a1.501 1.501 0 0 0-1.501-1.5zM71.146 46.019c.01-.07.016-.141.016-.212l.04-29.007.001-.005v-.364c0-.398-.158-.779-.439-1.061l-6.429-6.428a1.5 1.5 0 0 0-1.061-.439h-16.81a5.463 5.463 0 0 0-5.458 5.456v31.266a5.463 5.463 0 0 0 5.458 5.456h19.283c2.69-.002 5.01-2.005 5.399-4.662zm-4.701-30.725h-3.671v-3.671zm-22.439 29.93V13.958a2.46 2.46 0 0 1 2.458-2.456h13.311v5.292a1.5 1.5 0 0 0 1.5 1.5h6.929v14.6l-.042 12.783a2.466 2.466 0 0 1-2.414 2.002H46.464a2.459 2.459 0 0 1-2.458-2.455z" fill="#ee2737" opacity="1" data-original="#000000"></path><path d="M48.963 27.482a1.498 1.498 0 0 0 2.3-.324l2.103-3.462a1.5 1.5 0 0 0-2.565-1.558l-1.15 1.895-.26-.24a1.501 1.501 0 0 0-2.035 2.204zM63.617 23.15h-6.72a1.5 1.5 0 1 0 0 3h6.72a1.5 1.5 0 1 0 0-3zM52.861 29.548a1.501 1.501 0 0 0-2.061.503l-1.15 1.894-.26-.24a1.5 1.5 0 0 0-2.035 2.204l1.607 1.484a1.503 1.503 0 0 0 1.227.383 1.5 1.5 0 0 0 1.073-.707l2.103-3.461a1.5 1.5 0 0 0-.504-2.06zM63.617 31.061h-6.72a1.5 1.5 0 1 0 0 3h6.72a1.5 1.5 0 1 0 0-3zM52.862 36.967a1.5 1.5 0 0 0-2.062.503l-1.15 1.894-.26-.24a1.501 1.501 0 0 0-2.035 2.205l1.607 1.483a1.504 1.504 0 0 0 2.3-.325l2.103-3.46a1.5 1.5 0 0 0-.503-2.06zM63.144 38.479h-6.246a1.5 1.5 0 1 0 0 3h6.246a1.5 1.5 0 1 0 0-3z" fill="#ee2737" opacity="1" data-original="#000000"></path></g></svg>