<svg xmlns="http://www.w3.org/2000/svg" version="1.1" xmlns:xlink="http://www.w3.org/1999/xlink" width="512" height="512" x="0" y="0" viewBox="0 0 512 512" style="enable-background:new 0 0 512 512" xml:space="preserve"><g><path d="M445.562 408.522h-3.014c3.451-3.193 6.571-6.986 9.275-11.376 7.017-11.388 11.206-26.758 11.206-41.113 0-27.778-22.599-50.377-50.377-50.377s-50.349 22.599-50.349 50.377c0 19.653 7.022 40.075 20.404 52.49h-2.965c-19.157 0-35.983 9.524-45.41 23.79-9.427-14.265-26.253-23.79-45.41-23.79h-3.034c3.449-3.194 6.568-6.987 9.272-11.378 7.014-11.389 11.201-26.758 11.201-41.112 0-27.778-22.586-50.377-50.349-50.377s-50.377 22.599-50.377 50.377c0 19.653 7.026 40.075 20.416 52.49h-2.948c-19.168 0-36.004 9.525-45.436 23.792-9.427-14.267-26.253-23.792-45.412-23.792h-2.966c13.382-12.415 20.404-32.837 20.404-52.49 0-27.778-22.586-50.377-50.349-50.377s-50.376 22.599-50.376 50.377c0 14.356 4.188 29.725 11.205 41.113 2.705 4.39 5.825 8.183 9.276 11.376h-3.014c-29.466 0-53.438 22.497-53.438 50.15v30.642a8 8 0 0 0 16 0v-30.642c0-18.831 16.794-34.15 37.438-34.15h65.819c20.628 0 37.409 15.32 37.409 34.15v30.642a8 8 0 0 0 16 0v-30.642c0-18.831 16.795-34.15 37.438-34.15h65.818c20.628 0 37.41 15.32 37.41 34.15v30.642a8 8 0 0 0 16 0v-30.642c0-18.831 16.782-34.15 37.41-34.15h65.818c20.644 0 37.438 15.32 37.438 34.15v30.642a8 8 0 0 0 16 0v-30.642c0-27.653-23.973-50.15-53.438-50.15zm-67.258-52.49c0-18.955 15.409-34.377 34.349-34.377s34.377 15.421 34.377 34.377c0 18.672-9.333 48.295-34.377 48.295-23.692 0-34.349-28.241-34.349-48.295zm-156.667 0c0-18.955 15.422-34.377 34.377-34.377s34.349 15.421 34.349 34.377c0 18.672-9.325 48.295-34.349 48.295-23.712 0-34.377-28.241-34.377-48.295zm-156.666 0c0-18.955 15.421-34.377 34.376-34.377s34.349 15.421 34.349 34.377c0 20.053-10.656 48.295-34.349 48.295-25.043 0-34.376-29.623-34.376-48.295z" fill="#ee2737" opacity="1" data-original="#000000"></path><path d="M109.435 256.964c6.551 6.587 14.582 9.927 23.871 9.927 9.195 0 17.455-3.438 23.872-9.929l21.758-21.897v62.631a8 8 0 0 0 16 0v-82.032a8 8 0 0 0-13.675-5.639l-35.447 35.673c-3.454 3.494-7.546 5.193-12.508 5.193s-9.04-1.704-12.52-5.203L63.161 187.61c-3.281-3.31-5.079-7.728-5.062-12.439.019-4.71 1.849-9.11 5.155-12.388 3.31-3.282 7.714-5.086 12.409-5.086h.059c4.71.015 9.109 1.845 12.388 5.151l39.543 39.882a7.994 7.994 0 0 0 5.679 2.367h.002a8.001 8.001 0 0 0 5.678-2.364l34.556-34.811c12.004-12.104 26.734-18.241 43.783-18.241h12.283c-.543 4.63.065 9.534 1.638 12.529l.048.09a23.098 23.098 0 0 0 5.105 6.356l-12.142 85.395a7.999 7.999 0 0 0 2.021 6.53l22.535 24.604a8 8 0 0 0 5.896 2.597h.003a8.002 8.002 0 0 0 5.896-2.593l22.563-24.604a7.998 7.998 0 0 0 2.023-6.533l-12.142-85.395a22.672 22.672 0 0 0 5.096-6.39c1.61-3.009 2.237-7.939 1.694-12.584h12.285c17.049 0 31.779 6.137 43.784 18.241l34.524 34.808a8.003 8.003 0 0 0 11.361-.001l39.535-39.874c3.293-3.312 7.702-5.144 12.416-5.159h.06c4.69 0 9.085 1.802 12.388 5.086 3.314 3.286 5.148 7.692 5.166 12.406.017 4.704-1.782 9.112-5.07 12.419l-57.637 58.09c-3.456 3.495-7.548 5.193-12.51 5.193s-9.039-1.704-12.521-5.205l-35.404-35.659a8 8 0 0 0-13.677 5.636v82.032a8 8 0 0 0 16 0v-62.62l21.731 21.887c6.55 6.588 14.581 9.928 23.87 9.928s17.362-3.345 23.877-9.934l57.621-58.074c6.299-6.335 9.75-14.77 9.719-23.752-.032-8.992-3.549-17.412-9.893-23.702-6.314-6.279-14.713-9.733-23.659-9.733h-.113c-8.985.029-17.405 3.537-23.718 9.886l-33.863 34.154-28.843-29.08c-15.119-15.245-33.673-22.974-55.145-22.974h-6.274c4.899-4.011 9.281-9.076 13.05-15.191 7.991-12.964 12.762-30.479 12.762-46.851 0-31.404-25.549-56.953-56.953-56.953s-56.953 25.549-56.953 56.953c0 23.658 8.927 48.291 25.881 62.042h-6.316c-21.472 0-40.025 7.729-55.142 22.971l-28.872 29.085-33.865-34.156c-6.292-6.346-14.707-9.857-23.696-9.886-8.999-.055-17.433 3.424-23.786 9.724-6.343 6.289-9.855 14.702-9.89 23.689-.033 8.982 3.411 17.422 9.702 23.767l57.633 58.087zm154.354-106.649c.322 1.151.405 3.566.145 4.644-.663 1.128-1.741 2.113-2.993 2.726a7.998 7.998 0 0 0-4.399 8.31l12.308 86.564-14.106 15.383-14.087-15.38 12.309-86.567a7.998 7.998 0 0 0-4.4-8.31c-1.233-.604-2.313-1.581-3.006-2.711-.254-1.103-.17-3.511.15-4.676.593-.501 1.452-.615 2.114-.615h13.832c.449 0 1.471.064 2.135.633zM213.785 71.64c0-22.582 18.371-40.953 40.953-40.953s40.953 18.371 40.953 40.953c0 22.047-11.118 57.025-40.953 57.025s-40.953-34.978-40.953-57.025z" fill="#ee2737" opacity="1" data-original="#000000"></path><path d="M356.244 116.914h5.379v20.034a8 8 0 0 0 13.013 6.235l32.67-26.269h40.382c12.242 0 22.201-9.959 22.201-22.201V36.888c0-12.242-9.959-22.201-22.201-22.201h-91.443c-12.242 0-22.201 9.959-22.201 22.201v57.825c0 12.242 9.959 22.201 22.201 22.201zm-6.201-80.026a6.208 6.208 0 0 1 6.201-6.201h91.443a6.208 6.208 0 0 1 6.201 6.201v57.825a6.208 6.208 0 0 1-6.201 6.201h-43.199a8.004 8.004 0 0 0-5.013 1.765l-21.853 17.571v-11.336a8 8 0 0 0-8-8h-13.379a6.208 6.208 0 0 1-6.201-6.201V36.888z" fill="#ee2737" opacity="1" data-original="#000000"></path><path d="M371.976 86.839h59.979a8 8 0 0 0 0-16h-59.979a8 8 0 0 0 0 16zM392.385 60.761h39.57a8 8 0 0 0 0-16h-39.57a8 8 0 0 0 0 16zM371.985 60.761c4.419 0 8-3.582 8-8s-3.581-8-8-8h-.01c-4.418 0-7.995 3.582-7.995 8s3.587 8 8.005 8z" fill="#ee2737" opacity="1" data-original="#000000"></path></g></svg>