<svg xmlns="http://www.w3.org/2000/svg" version="1.1" xmlns:xlink="http://www.w3.org/1999/xlink" width="512" height="512" x="0" y="0" viewBox="0 0 48 48" style="enable-background:new 0 0 512 512" xml:space="preserve" class=""><g><path d="M23.976 25.768c7.104 0 12.884-5.78 12.884-12.884S31.08 0 23.976 0 11.092 5.78 11.092 12.884s5.78 12.884 12.884 12.884zm0-24.252c6.269 0 11.369 5.1 11.369 11.368s-5.1 11.368-11.369 11.368-11.368-5.1-11.368-11.368 5.1-11.368 11.368-11.368zm1.895 14.02c0-.73-.466-1.377-1.159-1.608l-1.95-.65a3.206 3.206 0 0 1-2.196-3.047 3.412 3.412 0 0 1 2.652-3.318V5.81a.758.758 0 0 1 1.516 0v1.103a3.412 3.412 0 0 1 2.653 3.318.758.758 0 0 1-1.516 0c0-1.044-.85-1.894-1.895-1.894s-1.894.85-1.894 1.894c0 .732.465 1.378 1.159 1.609l1.95.65a3.206 3.206 0 0 1 2.196 3.047 3.412 3.412 0 0 1-2.653 3.318v1.103a.758.758 0 0 1-1.516 0v-1.102a3.412 3.412 0 0 1-2.652-3.32.758.758 0 0 1 1.516 0c0 1.045.85 1.895 1.894 1.895s1.895-.85 1.895-1.894zm16.078 9.694a3.342 3.342 0 0 0-4.708 0l-3.684 3.692a3.286 3.286 0 0 0-2.116-.784H18.409a4.19 4.19 0 0 0-3.084 1.358l-2.24 2.449-.298-.622a1.772 1.772 0 0 0-2.36-.83L6.082 32.58a1.755 1.755 0 0 0-.903 1.008c-.157.446-.13.926.074 1.351l5.784 12.057a1.768 1.768 0 0 0 2.36.83l4.346-2.085a1.771 1.771 0 0 0 .83-2.36l-.43-.897h11.666a4.159 4.159 0 0 0 3.25-1.55l8.895-11a3.34 3.34 0 0 0 .97-2.353c0-.874-.355-1.73-.974-2.35zM17.085 44.373 12.74 46.46a.252.252 0 0 1-.337-.118L6.618 34.282a.253.253 0 0 1 .118-.337l4.347-2.086a.254.254 0 0 1 .337.118l5.785 12.058a.253.253 0 0 1-.119.337zm23.737-15.448L31.88 39.98a2.652 2.652 0 0 1-2.07.987h-12.24c-.05 0-.094.02-.141.029l-3.636-7.578 2.651-2.898a2.671 2.671 0 0 1 1.966-.866H31.44c.481 0 .934.189 1.277.53.084.085.155.169.21.244.271.395.376.878.293 1.36-.145.844-.957 1.482-1.89 1.482H21.178a.758.758 0 0 0 0 1.516H31.33c1.661 0 3.116-1.179 3.384-2.742a3.352 3.352 0 0 0-.227-1.907l3.824-3.833a1.821 1.821 0 0 1 2.565-.002c.337.337.53.803.53 1.277 0 .481-.19.94-.584 1.345z" fill="#ee2737" opacity="1" data-original="#000000"></path></g></svg>