<svg xmlns="http://www.w3.org/2000/svg" version="1.1" xmlns:xlink="http://www.w3.org/1999/xlink" width="512" height="512" x="0" y="0" viewBox="0 0 64 64" style="enable-background:new 0 0 512 512" xml:space="preserve" class=""><g><g data-name="Working Hour"><path d="M36.528 40.204a1 1 0 0 1-.864-.496l-4.099-7.013a3.158 3.158 0 0 1-.432-1.594V20.523a1 1 0 0 1 2 0v10.578a1.158 1.158 0 0 0 .159.585l4.099 7.014a1 1 0 0 1-.863 1.504z" fill="#ee2737" opacity="1" data-original="#000000"></path><path d="M48.88 41.241a19.153 19.153 0 0 0 0-19.11.93.93 0 0 0-.032-.095.94.94 0 0 0-.083-.094 19.415 19.415 0 0 0-6.888-6.887.286.286 0 0 0-.189-.115 19.153 19.153 0 0 0-19.11 0 .286.286 0 0 0-.189.115 19.415 19.415 0 0 0-6.888 6.888.938.938 0 0 0-.082.093.927.927 0 0 0-.03.093 19.153 19.153 0 0 0 0 19.114.927.927 0 0 0 .03.093.99.99 0 0 0 .119.153 19.415 19.415 0 0 0 6.851 6.828.94.94 0 0 0 .094.083.974.974 0 0 0 .132.055 19.162 19.162 0 0 0 19.037 0 .974.974 0 0 0 .131-.055.938.938 0 0 0 .094-.083 19.415 19.415 0 0 0 6.85-6.825.985.985 0 0 0 .12-.156.93.93 0 0 0 .032-.095zm-7.252 4.89L40.53 44.23a1 1 0 1 0-1.733 1l1.096 1.897a17.153 17.153 0 0 1-6.76 1.81v-2.19a1 1 0 0 0-2 0v2.19a17.153 17.153 0 0 1-6.76-1.81l1.096-1.897a1 1 0 1 0-1.732-1l-1.099 1.902a17.427 17.427 0 0 1-4.95-4.95l1.903-1.098a1 1 0 0 0-1-1.733l-1.898 1.096a17.154 17.154 0 0 1-1.809-6.76h2.19a1 1 0 0 0 0-2h-2.19a17.154 17.154 0 0 1 1.81-6.76l1.897 1.096a1 1 0 0 0 1-1.732l-1.903-1.099a17.427 17.427 0 0 1 4.95-4.95l1.099 1.903a1 1 0 1 0 1.732-1l-1.095-1.898a17.153 17.153 0 0 1 6.76-1.81v2.19a1 1 0 0 0 2 0v-2.19a17.153 17.153 0 0 1 6.759 1.81l-1.096 1.898a1 1 0 0 0 1.733 1l1.098-1.903a17.428 17.428 0 0 1 4.95 4.95l-1.902 1.099a1 1 0 0 0 1 1.732l1.897-1.096a17.153 17.153 0 0 1 1.81 6.76h-2.19a1 1 0 0 0 0 2h2.19a17.153 17.153 0 0 1-1.81 6.76l-1.897-1.096a1 1 0 0 0-1 1.733l1.902 1.098a17.428 17.428 0 0 1-4.95 4.95z" fill="#ee2737" opacity="1" data-original="#000000"></path><path d="m57.856 48.22-3.77.976A27.96 27.96 0 1 0 31.62 60h.014a1 1 0 0 0 .012-2 26.01 26.01 0 1 1 20.869-10.042l.306-3.929a1 1 0 0 0-1.994-.155l-.483 6.198a1.58 1.58 0 0 0 1.972 1.647l6.04-1.562a1 1 0 0 0-.5-1.936z" fill="#ee2737" opacity="1" data-original="#000000"></path></g></g></svg>