<svg xmlns="http://www.w3.org/2000/svg" version="1.1" xmlns:xlink="http://www.w3.org/1999/xlink" width="512" height="512" x="0" y="0" viewBox="0 0 682.667 682.667" style="enable-background:new 0 0 512 512" xml:space="preserve" class=""><g><defs><clipPath id="b" clipPathUnits="userSpaceOnUse"><path d="M0 512h512V0H0Z" fill="#f8c331" opacity="1" data-original="#000000"></path></clipPath></defs><mask id="a"><rect width="100%" height="100%" fill="#ffffff" opacity="1" data-original="#ffffff"></rect></mask><g mask="url(#a)"><g clip-path="url(#b)" transform="matrix(1.33333 0 0 -1.33333 0 682.667)"><path d="M0 0h61.949L-11.55 73.5V11.55C-11.55 5.171-6.379 0 0 0Z" style="stroke-width:15;stroke-linecap:round;stroke-linejoin:round;stroke-miterlimit:10;stroke-dasharray:none;stroke-opacity:1" transform="translate(288.695 430.985)" fill="none" stroke="#f8c331" stroke-width="15" stroke-linecap="round" stroke-linejoin="round" stroke-miterlimit="10" stroke-dasharray="none" stroke-opacity="" data-original="#000000" opacity="1"></path><path d="M0 0h154.992" style="stroke-width:15;stroke-linecap:round;stroke-linejoin:round;stroke-miterlimit:10;stroke-dasharray:none;stroke-opacity:1" transform="translate(134.55 393.084)" fill="none" stroke="#f8c331" stroke-width="15" stroke-linecap="round" stroke-linejoin="round" stroke-miterlimit="10" stroke-dasharray="none" stroke-opacity="" data-original="#000000" opacity="1"></path><path d="M0 0h154.992" style="stroke-width:15;stroke-linecap:round;stroke-linejoin:round;stroke-miterlimit:10;stroke-dasharray:none;stroke-opacity:1" transform="translate(134.55 356.87)" fill="none" stroke="#f8c331" stroke-width="15" stroke-linecap="round" stroke-linejoin="round" stroke-miterlimit="10" stroke-dasharray="none" stroke-opacity="" data-original="#000000" opacity="1"></path><path d="M0 0h154.992" style="stroke-width:15;stroke-linecap:round;stroke-linejoin:round;stroke-miterlimit:10;stroke-dasharray:none;stroke-opacity:1" transform="translate(134.55 320.655)" fill="none" stroke="#f8c331" stroke-width="15" stroke-linecap="round" stroke-linejoin="round" stroke-miterlimit="10" stroke-dasharray="none" stroke-opacity="" data-original="#000000" opacity="1"></path><path d="M0 0h154.992" style="stroke-width:15;stroke-linecap:round;stroke-linejoin:round;stroke-miterlimit:10;stroke-dasharray:none;stroke-opacity:1" transform="translate(134.55 284.44)" fill="none" stroke="#f8c331" stroke-width="15" stroke-linecap="round" stroke-linejoin="round" stroke-miterlimit="10" stroke-dasharray="none" stroke-opacity="" data-original="#000000" opacity="1"></path><path d="M0 0h154.992" style="stroke-width:15;stroke-linecap:round;stroke-linejoin:round;stroke-miterlimit:10;stroke-dasharray:none;stroke-opacity:1" transform="translate(134.55 248.226)" fill="none" stroke="#f8c331" stroke-width="15" stroke-linecap="round" stroke-linejoin="round" stroke-miterlimit="10" stroke-dasharray="none" stroke-opacity="" data-original="#000000" opacity="1"></path><path d="M0 0h154.089" style="stroke-width:15;stroke-linecap:round;stroke-linejoin:round;stroke-miterlimit:10;stroke-dasharray:none;stroke-opacity:1" transform="translate(134.55 212.012)" fill="none" stroke="#f8c331" stroke-width="15" stroke-linecap="round" stroke-linejoin="round" stroke-miterlimit="10" stroke-dasharray="none" stroke-opacity="" data-original="#000000" opacity="1"></path><path d="M0 0h131.012" style="stroke-width:15;stroke-linecap:round;stroke-linejoin:round;stroke-miterlimit:10;stroke-dasharray:none;stroke-opacity:1" transform="translate(134.55 175.797)" fill="none" stroke="#f8c331" stroke-width="15" stroke-linecap="round" stroke-linejoin="round" stroke-miterlimit="10" stroke-dasharray="none" stroke-opacity="" data-original="#000000" opacity="1"></path><path d="M0 0c1.82 1.774.815 4.867-1.7 5.232l-19.435 2.824a3.067 3.067 0 0 0-2.309 1.678l-8.691 17.61c-1.125 2.28-4.377 2.28-5.502 0l-8.691-17.61a3.067 3.067 0 0 0-2.31-1.678l-19.433-2.824c-2.516-.365-3.521-3.458-1.7-5.232l14.062-13.708a3.066 3.066 0 0 0 .882-2.715l-3.319-19.355c-.43-2.506 2.2-4.417 4.451-3.234l17.382 9.138c.893.47 1.96.47 2.855 0l17.382-9.138c2.25-1.183 4.881.728 4.451 3.234l-3.32 19.355c-.171.995.159 2.01.882 2.715z" style="stroke-width:15;stroke-linecap:round;stroke-linejoin:round;stroke-miterlimit:10;stroke-dasharray:none;stroke-opacity:1" transform="translate(373.324 161.377)" fill="none" stroke="#f8c331" stroke-width="15" stroke-linecap="round" stroke-linejoin="round" stroke-miterlimit="10" stroke-dasharray="none" stroke-opacity="" data-original="#000000" opacity="1"></path><path d="m0 0-39.315 68.46c-13.128-17.335-33.537-28.85-56.676-29.989l40.42-70.385c1.012-1.762 3.598-1.628 4.424.228l13.398 30.137a2.484 2.484 0 0 0 2.542 1.46l32.781-3.616C-.405-3.929 1.013-1.762 0 0Z" style="stroke-width:15;stroke-linecap:round;stroke-linejoin:round;stroke-miterlimit:10;stroke-dasharray:none;stroke-opacity:1" transform="translate(438.218 40.676)" fill="none" stroke="#f8c331" stroke-width="15" stroke-linecap="round" stroke-linejoin="round" stroke-miterlimit="10" stroke-dasharray="none" stroke-opacity="" data-original="#000000" opacity="1"></path><path d="m0 0-39.316-68.46c-1.012-1.762.406-3.929 2.426-3.705l32.782 3.616a2.485 2.485 0 0 0 2.542-1.46l13.398-30.137c.825-1.856 3.411-1.99 4.423-.228l40.421 70.385C33.536-28.85 13.128-17.334 0 0Z" style="stroke-width:15;stroke-linecap:round;stroke-linejoin:round;stroke-miterlimit:10;stroke-dasharray:none;stroke-opacity:1" transform="translate(277.973 109.136)" fill="none" stroke="#f8c331" stroke-width="15" stroke-linecap="round" stroke-linejoin="round" stroke-miterlimit="10" stroke-dasharray="none" stroke-opacity="" data-original="#000000" opacity="1"></path><path d="M0 0h-97.559c-6.379 0-11.55-5.171-11.55-11.55v-380.773c0-6.379 5.171-11.55 11.55-11.55H90.522l4.894 8.524c-.302.401-.601.806-.897 1.212l-.054.075c-.341.471-.676.945-1.007 1.424l-.066.096c-.324.471-.643.946-.957 1.425l-.081.123c-.308.471-.609.946-.906 1.424l-.094.149c-.29.47-.574.943-.855 1.419l-.106.181c-.273.467-.542.939-.806 1.413l-.117.21c-.257.467-.509.936-.757 1.408l-.125.239a73.23 73.23 0 0 0-.708 1.399l-.135.272c-.225.459-.443.92-.658 1.384l-.145.311a73.19 73.19 0 0 0-.61 1.371l-.151.343c-.192.45-.38.903-.564 1.357l-.155.379c-.177.444-.349.892-.518 1.34-.053.139-.107.277-.158.417-.162.437-.32.878-.473 1.319-.054.153-.109.305-.161.457-.149.433-.29.869-.431 1.304-.053.164-.107.327-.159.491-.135.427-.263.856-.39 1.286-.051.176-.105.35-.156.527-.12.418-.233.839-.347 1.26-.051.191-.105.381-.155.573-.107.413-.208.828-.308 1.244-.049.201-.1.4-.147.601-.096.409-.185.821-.273 1.232-.045.211-.094.421-.137.633-.084.401-.159.805-.236 1.209-.042.224-.088.446-.129.671-.071.396-.135.794-.201 1.192-.038.234-.08.468-.116.703-.06.393-.114.789-.168 1.184-.034.241-.071.482-.101.724-.051.39-.093.784-.137 1.175-.028.25-.061.499-.086.75-.039.387-.071.776-.105 1.165-.022.257-.048.513-.069.771-.03.396-.052.794-.076 1.192-.016.252-.035.503-.048.756-.022.431-.035.863-.051 1.295-.006.222-.019.443-.024.666a74.07 74.07 0 0 0-.023 1.766l-.002.206c0 41.866 33.939 75.806 75.805 75.806l.012-.001c.936 0 1.866-.023 2.794-.056l.523-.02a76.532 76.532 0 0 0 2.811-.172l.101-.009a75.865 75.865 0 0 0 5.962-.725l.003-.001V-73.5L94.589 0H35" style="stroke-width:15;stroke-linecap:round;stroke-linejoin:round;stroke-miterlimit:10;stroke-dasharray:none;stroke-opacity:1" transform="translate(182.556 504.484)" fill="none" stroke="#f8c331" stroke-width="15" stroke-linecap="round" stroke-linejoin="round" stroke-miterlimit="10" stroke-dasharray="none" stroke-opacity="" data-original="#000000" opacity="1"></path><path d="M0 0c-8.384 32.741-38.084 56.945-73.438 56.945-41.867 0-75.806-33.939-75.806-75.806 0-41.866 33.939-75.806 75.806-75.806C-37.113-94.667-6.771-69.11.628-35" style="stroke-width:15;stroke-linecap:round;stroke-linejoin:round;stroke-miterlimit:10;stroke-dasharray:none;stroke-opacity:1" transform="translate(411.876 173.719)" fill="none" stroke="#f8c331" stroke-width="15" stroke-linecap="round" stroke-linejoin="round" stroke-miterlimit="10" stroke-dasharray="none" stroke-opacity="" data-original="#000000" opacity="1"></path></g></g></g></svg>