<svg xmlns="http://www.w3.org/2000/svg" version="1.1" xmlns:xlink="http://www.w3.org/1999/xlink" width="512" height="512" x="0" y="0" viewBox="0 0 512 512" style="enable-background:new 0 0 512 512" xml:space="preserve" class=""><g><path fill-rule="evenodd" d="M284.32 132.935V24.342c0-4.141 3.688-7.312 7.782-6.7 151.986 23.224 243.27 181.303 187.397 324.544-1.593 4.077-6.556 5.575-10.138 3.147l-93.34-53.889a6.788 6.788 0 0 1-3.585-7.706c15.399-62.486-21.337-125.968-83.201-143.726a6.798 6.798 0 0 1-4.915-7.075zM139.737 283.293a6.797 6.797 0 0 1-3.444 7.998l-94.074 54.314c-3.605 2.088-8.211.448-9.722-3.402C-23.694 198.977 69.215 40.45 219.919 17.557c4.123-.619 7.804 2.58 7.808 6.722l.004 109.25a6.804 6.804 0 0 1-5.46 6.669c-60.872 18.011-97.569 81.148-82.534 143.095zm-20.124 1.958-89.044-51.112c-2.945 31.794.793 64.429 11.812 95.702zm-76.29-59.462 80.558 46.241c-3.055-23.929.519-48.468 10.196-70.559zM33.27 214.418l103.972-27.86-27.92-104.2c-39.938 33.888-66.702 80.641-76.051 132.06zm90.966-128.88 24.322 90.771c14.3-19.545 33.895-34.922 56.23-44.264zm.674-15.281 89.217 51.51V32.328c-32.103 6.03-62.559 19.042-89.217 37.93zm158.949 156.698a19.953 19.953 0 0 0-5.101-.66c-3.923 0-7.58 1.135-10.663 3.095l-14.979-11.59c.034-.476.052-.956.052-1.44 0-10.993-8.915-19.907-19.908-19.907s-19.908 8.914-19.908 19.907c0 2.95.643 5.752 1.795 8.27l-20.531 27.192a19.862 19.862 0 0 0-6.854-1.212c-10.993 0-19.908 8.915-19.908 19.908s8.914 19.908 19.908 19.908 19.908-8.915 19.908-19.908c0-3.617-.965-7.009-2.652-9.933l19.783-26.201a19.835 19.835 0 0 0 8.46 1.883c5.485 0 10.453-2.22 14.054-5.809l12.484 9.66a19.898 19.898 0 0 0-.948 6.085 19.846 19.846 0 0 0 5.831 14.076 19.846 19.846 0 0 0 14.076 5.832c10.993 0 19.908-8.914 19.908-19.908 0-4.277-1.35-8.238-3.645-11.484l22.373-26.609a19.87 19.87 0 0 0 6.864 1.215c10.993 0 19.908-8.915 19.908-19.908s-8.914-19.908-19.908-19.908-19.908 8.914-19.908 19.908c0 3.637.976 7.046 2.68 9.981l-23.17 27.557zm40.397-43.842c-3.483 0-6.304 2.821-6.304 6.304s2.821 6.304 6.304 6.304 6.304-2.822 6.304-6.304-2.821-6.304-6.304-6.304zm-45.499 56.785c-3.483 0-6.304 2.821-6.304 6.304s2.822 6.304 6.304 6.304 6.304-2.821 6.304-6.304-2.821-6.304-6.304-6.304zm-45.499-29.843c-3.483 0-6.304 2.821-6.304 6.304s2.821 6.304 6.304 6.304 6.304-2.821 6.304-6.304-2.822-6.304-6.304-6.304zm-45.499 54.158c-3.483 0-6.304 2.821-6.304 6.304s2.821 6.304 6.304 6.304 6.304-2.821 6.304-6.304-2.821-6.304-6.304-6.304zm122.774-34.271a6.802 6.802 0 0 0-6.802 6.802l.027 115.399a6.776 6.776 0 0 0 6.855 6.775l5.355-.07c-36.388 21.609-83.261 20.959-119.705-.023l4.499.082c4.011.421 7.521-2.713 7.521-6.764v-51.895a6.802 6.802 0 0 0-6.802-6.802l-27.443.027c-3.738-.039-6.79 3.09-6.775 6.801l.204 39.056a6.748 6.748 0 0 0-3.04 1.081L70.933 394.39c-3.881 1.889-5.064 6.914-2.348 10.332 95.906 120.221 279.412 119.161 374.675.231 2.775-3.206 1.973-8.178-1.74-10.312l-93.745-54.124a6.76 6.76 0 0 0-3.172-1.098l.149-102.063c.354-3.977-2.768-7.413-6.774-7.413h-27.443zm20.658 13.604h-13.857v101.733l13.708-.178.148-101.555zm-66.157 32.113a6.802 6.802 0 0 0-6.802 6.802v69.683a6.802 6.802 0 0 0 6.802 6.802h27.443a6.802 6.802 0 0 0 6.802-6.802v-69.683a6.802 6.802 0 0 0-6.802-6.802zm20.642 13.604h-13.84v56.079h13.84zm-66.14-36.588a6.802 6.802 0 0 0-6.802 6.802v92.667a6.802 6.802 0 0 0 6.802 6.802h27.443a6.802 6.802 0 0 0 6.802-6.802v-92.667a6.802 6.802 0 0 0-6.802-6.802zm20.642 13.604h-13.84v79.064h13.84zm-45.499 40.772h-13.831l.199 37.946 13.632.247zm192.061-25.057 82.855 47.836c45.872-130.864-35.443-271.75-171.727-297.437v96.061c64.282 21.163 102.551 87.259 88.871 153.54zm-41.758 72.551 82.836 47.825c-89.404 104.08-253.733 104.87-343.582-.021l82.962-47.898c50.558 45.279 127.247 45.102 177.783.094z" fill="#24ccc0" opacity="1" data-original="#000000" class=""></path></g></svg>