<svg xmlns="http://www.w3.org/2000/svg" version="1.1" xmlns:xlink="http://www.w3.org/1999/xlink" width="512" height="512" x="0" y="0" viewBox="0 0 512 512" style="enable-background:new 0 0 512 512" xml:space="preserve" class=""><g><path d="M363.829 255.051H288.34a8 8 0 0 0-8 8v240.948a8 8 0 0 0 8 8h75.489a8 8 0 0 0 8-8V263.051a8 8 0 0 0-8-8zm-8 240.948H296.34V271.051h59.489zM223.658 286.515h-75.489a8 8 0 0 0-8 8V504a8 8 0 0 0 8 8h75.489a8 8 0 0 0 8-8V294.515a8 8 0 0 0-8-8zm-8 209.485h-59.489V302.515h59.489zM83.489 156.028H8a8 8 0 0 0-8 8v339.97a8 8 0 0 0 8 8h75.489a8 8 0 0 0 8-8v-339.97a8 8 0 0 0-8-8zm-8 339.97H16v-323.97h59.489zM504 348.515h-75.488a8 8 0 0 0-8 8v147.483a8 8 0 0 0 8 8H504a8 8 0 0 0 8-8V356.515a8 8 0 0 0-8-8zm-8 147.483h-59.488V364.515H496zm-72.878-213.564a7.999 7.999 0 1 1 1.442-15.934l15.285 1.383-115.333-89.805L188.379 222.2a7.997 7.997 0 0 1-8.147-1.978L40.064 78.857a8 8 0 1 1 11.361-11.265l136.703 137.871 135.49-43.914a8 8 0 0 1 7.382 1.298l120.218 93.609-6.362-20.829a8 8 0 0 1 5.314-9.988 7.998 7.998 0 0 1 9.988 5.314l13.75 45.015a8 8 0 0 1-8.372 10.304zM234.656 104.707c1.214-1.403 1.64-2.974 1.383-5.092-.449-3.698-2.755-8.237-16.723-10.529-22.234-3.651-27.432-15.35-27.876-24.52-.606-12.468 7.856-22.906 21.105-26.19v-3.403a8 8 0 0 1 16 0v3.312c8.59 2.027 16.72 7.561 21.001 17.759a8 8 0 1 1-14.752 6.194c-3.319-7.903-11.455-9.93-18.049-8.436-1.62.368-9.685 2.576-9.325 9.987.095 1.966.348 7.185 14.487 9.507 18.316 3.006 28.415 11.212 30.014 24.39.802 6.606-.984 12.653-5.165 17.487-4.174 4.825-10.714 8.228-18.212 9.645v3.12a8 8 0 0 1-16 0v-3.252c-11.655-2.541-20.576-10.503-23.327-21.537a8 8 0 0 1 5.827-9.698 7.998 7.998 0 0 1 9.698 5.827c1.952 7.828 10.142 10.421 16.571 10.272 5.591-.133 10.953-2.079 13.343-4.843zm-14.112 58.204c44.915 0 81.456-36.541 81.456-81.456S265.459 0 220.544 0s-81.456 36.541-81.456 81.456 36.542 81.455 81.456 81.455zm0-146.911C256.637 16 286 45.363 286 81.456s-29.363 65.456-65.456 65.456-65.456-29.363-65.456-65.456S184.452 16 220.544 16z" fill="#fc5f42" opacity="1" data-original="#000000" class=""></path></g></svg>