<svg xmlns="http://www.w3.org/2000/svg" version="1.1" xmlns:xlink="http://www.w3.org/1999/xlink" width="512" height="512" x="0" y="0" viewBox="0 0 512 512" style="enable-background:new 0 0 512 512" xml:space="preserve" class=""><g><path d="m115.485 180.743 14.076 5.418a100.03 100.03 0 0 0 8.926 21.531l-6.126 13.794a7.999 7.999 0 0 0 1.654 8.904l20.687 20.686a8.002 8.002 0 0 0 8.904 1.655l13.8-6.129a99.962 99.962 0 0 0 21.523 8.923l5.419 14.081a8 8 0 0 0 7.466 5.126h29.254a8 8 0 0 0 7.466-5.126l5.418-14.077a100.019 100.019 0 0 0 21.531-8.925l13.793 6.126a7.999 7.999 0 0 0 8.904-1.654l20.686-20.686a8 8 0 0 0 1.655-8.904l-6.129-13.8a100.015 100.015 0 0 0 8.924-21.523l14.081-5.42a8 8 0 0 0 5.126-7.466v-29.254a8 8 0 0 0-5.126-7.466l-14.076-5.418a99.98 99.98 0 0 0-8.926-21.531l6.126-13.793a7.999 7.999 0 0 0-1.654-8.904L298.18 66.225a8 8 0 0 0-8.904-1.655l-13.799 6.129a100.036 100.036 0 0 0-21.523-8.924l-5.42-14.081a8 8 0 0 0-7.466-5.126h-29.254a8 8 0 0 0-7.466 5.126l-5.42 14.081a99.965 99.965 0 0 0-21.523 8.924l-13.799-6.129a8 8 0 0 0-8.904 1.655l-20.686 20.686a8 8 0 0 0-1.655 8.904l6.128 13.798a100.014 100.014 0 0 0-8.925 21.525l-14.079 5.42a8.001 8.001 0 0 0-5.126 7.466v29.254a7.996 7.996 0 0 0 5.126 7.465zm10.873-31.227 12.783-4.921a8.004 8.004 0 0 0 4.909-5.614 84.095 84.095 0 0 1 10.228-24.669 8.004 8.004 0 0 0 .5-7.442l-5.565-12.53 12.918-12.918 12.531 5.565a7.999 7.999 0 0 0 7.441-.5A84.141 84.141 0 0 1 206.77 76.26a8 8 0 0 0 5.614-4.909l4.921-12.785h18.269l4.921 12.785a8.004 8.004 0 0 0 5.614 4.909 84.087 84.087 0 0 1 24.667 10.227 8.008 8.008 0 0 0 7.441.5l12.531-5.566 12.918 12.918-5.563 12.526a7.998 7.998 0 0 0 .5 7.442 84.133 84.133 0 0 1 10.229 24.674 8 8 0 0 0 4.909 5.614l12.78 4.919v18.269l-12.785 4.921a8.004 8.004 0 0 0-4.909 5.614 84.119 84.119 0 0 1-10.227 24.667 7.999 7.999 0 0 0-.499 7.441l5.565 12.532-12.918 12.918-12.526-5.563a7.995 7.995 0 0 0-7.442.5 84.094 84.094 0 0 1-24.673 10.228 7.998 7.998 0 0 0-5.614 4.909l-4.919 12.78h-18.269l-4.921-12.784a7.998 7.998 0 0 0-5.614-4.909 84.13 84.13 0 0 1-24.667-10.227 8.002 8.002 0 0 0-7.441-.499l-12.532 5.566-12.918-12.918 5.563-12.526a8.001 8.001 0 0 0-.499-7.442 84.123 84.123 0 0 1-10.229-24.675 8 8 0 0 0-4.909-5.614l-12.78-4.919v-18.267zm100.082 68.152c32.543 0 59.019-26.476 59.019-59.019S258.983 99.63 226.44 99.63s-59.019 26.476-59.019 59.019 26.476 59.019 59.019 59.019zm0-102.037c23.721 0 43.019 19.298 43.019 43.019s-19.298 43.019-43.019 43.019-43.019-19.298-43.019-43.019 19.298-43.019 43.019-43.019zm8.254 57.996c.302-.349.562-.75.432-1.813-.142-1.168-.474-3.905-9.935-5.458-18.22-2.992-21.431-13.551-21.724-19.578-.458-9.426 5.478-17.402 14.972-20.463v-.646a8 8 0 0 1 16 0v.538c6.519 2.092 11.918 6.84 14.72 13.513a8 8 0 0 1-4.279 10.473 8 8 0 0 1-10.473-4.279c-2.095-4.988-7.364-5.25-10.149-4.619-1.169.265-4.971 1.388-4.809 4.707.104 2.138 2.908 3.674 8.334 4.565 14.137 2.32 21.951 8.82 23.226 19.318.65 5.356-.807 10.269-4.214 14.208-2.937 3.396-7.314 5.9-12.355 7.19v.346a8 8 0 0 1-16 0v-.49c-8.232-2.384-14.455-8.405-16.482-16.536a8 8 0 0 1 5.827-9.697 7.998 7.998 0 0 1 9.697 5.827c1.053 4.221 5.746 5.619 9.447 5.527 3.247-.077 6.513-1.184 7.765-2.633zm167.861 106.21V74.115c0-4.547-1.699-8.651-4.916-11.87l-49.33-49.329C345.093 9.7 340.989 8 336.44 8H67.111c-9.256 0-16.786 7.53-16.786 16.786v418.212c0 9.256 7.53 16.786 16.786 16.786H247.96C270.077 486.758 303.647 504 341.17 504c66.447 0 120.505-54.059 120.505-120.505 0-44.042-23.755-82.635-59.12-103.658zM375.242 62.476H348.08V35.314zM67.111 443.784a.806.806 0 0 1-.786-.786V24.786c0-.419.367-.786.786-.786H332.08v42.083c0 6.833 5.559 12.393 12.393 12.393h42.083v193.396c-14.016-5.72-29.337-8.881-45.385-8.881-29.327 0-56.237 10.536-77.155 28.015H105.091a8 8 0 0 0 0 16h143.03a120.537 120.537 0 0 0-20.356 35.732H105.091a8 8 0 0 0 0 16h118.136a120.539 120.539 0 0 0-2.057 35.733H105.091a8 8 0 0 0 0 16H223.71a119.735 119.735 0 0 0 13.152 33.314H67.111zM341.17 488c-57.625 0-104.505-46.881-104.505-104.505S283.545 278.99 341.17 278.99c57.624 0 104.505 46.881 104.505 104.505S398.794 488 341.17 488zm53.69-145.684h-1.836v-3.874c0-28.593-23.262-51.855-51.855-51.855s-51.855 23.263-51.855 51.855v3.874h-1.836c-8.83 0-16.014 7.184-16.014 16.014v85.345c0 8.83 7.184 16.014 16.014 16.014H394.86c8.83 0 16.014-7.184 16.014-16.014V358.33c0-8.83-7.184-16.014-16.014-16.014zm-89.546-3.874c0-19.771 16.084-35.855 35.855-35.855s35.855 16.085 35.855 35.855v3.874h-5.337v-3.874c0-16.827-13.69-30.518-30.518-30.518s-30.518 13.69-30.518 30.518v3.874h-5.337zm50.373 3.874h-29.035v-3.874c0-7.869 6.648-14.518 14.518-14.518s14.518 6.648 14.518 14.518v3.874zm39.173 101.372-107.396-.014.009-85.358h.005l107.396.014zm-71.285-34.834v12.537c0 9.702 7.893 17.595 17.594 17.595s17.594-7.893 17.594-17.595v-12.538c5.512-4.937 8.694-11.961 8.694-19.543 0-14.496-11.793-26.289-26.289-26.289s-26.289 11.793-26.289 26.289c.001 7.582 3.184 14.606 8.696 19.544zm17.594-29.833c5.673 0 10.289 4.615 10.289 10.289a10.24 10.24 0 0 1-4.896 8.764 7.999 7.999 0 0 0-3.798 6.808v16.51c0 .864-.73 1.595-1.594 1.595s-1.594-.73-1.594-1.595v-16.509a8.001 8.001 0 0 0-3.797-6.807c-3.067-1.895-4.898-5.171-4.898-8.766-.001-5.674 4.615-10.289 10.288-10.289z" fill="#009900" opacity="1" data-original="#000000" class=""></path></g></svg>