<svg xmlns="http://www.w3.org/2000/svg" version="1.1" xmlns:xlink="http://www.w3.org/1999/xlink" width="512" height="512" x="0" y="0" viewBox="0 0 96 96" style="enable-background:new 0 0 512 512" xml:space="preserve" class=""><g><path d="M95 85.91H84.93v-2.5a2.9 2.9 0 0 0-2.9-2.9h-4.12v-4h14.17a3.35 3.35 0 0 0 3.34-3.34V48.06a3.34 3.34 0 0 0-3.34-3.33H62.26c.05-.25.09-.51.13-.77H64a4.72 4.72 0 0 0 2.22-8.89v-7.81a17.75 17.75 0 0 0-12.36-16.88 6.19 6.19 0 0 0-5.94-7.91h-7.36a6.17 6.17 0 0 0-5.93 7.91 17.75 17.75 0 0 0-12.36 16.88v7.8A4.73 4.73 0 0 0 24.49 44h1.64a18.41 18.41 0 0 0 10.55 13.9v3l-1.57.52a24.32 24.32 0 0 0-6.58 2.13A15.78 15.78 0 0 0 23.28 68c-1.86 2.58-2.13 3.9-3.34 7.5h-15a1 1 0 0 0-.94.65C-.26 87.41-.12 86.76.06 87.26v5.27a1 1 0 0 0 1 1H95a1 1 0 0 0 1-1v-5.62a1 1 0 0 0-1-1zm-12.07-2.5v2.5H62.57c0-2.72-.07-2.73.23-3.08a.88.88 0 0 1 .67-.32H82a.9.9 0 0 1 .93.9zm-48.56-19.8h.19l1.27 9.22a1 1 0 0 0 1 .86c.34 0-.15.2 7.43-3.58L50.09 73a3.34 3.34 0 0 0 3.33 3.5h.72v3c-1.14-.43-1.64-.31-6.3-.31a4.83 4.83 0 0 0-4.72 3.88l-.55 2.82h-8.2zm15.72.28v6.86l-4.23-2.11zm-12.6-1 5.14 5.78-5 2.49-1.11-8zm12.65 21.7a1 1 0 0 0 1-1v-2.38c1.52 0 2.72-.14 3.65 1.28.4.61.39.87.89 3.42H44.61l.48-2.44a2.81 2.81 0 0 1 2.75-2.26h1.3v2.35a1 1 0 0 0 1 1zM67.59 79v1.53h-4.12a2.93 2.93 0 0 0-2.9 2.9v2.47h-2.86c-.47-2.43-.53-3.71-1.57-5v-4.42h10.61zm-42 .41 2.45 6.51h-4.86zm44 1.12V59.21a.69.69 0 0 1 .63-.42h5a.67.67 0 0 1 .65.51c.05.2 0-1.5 0 21.23zm23.83-32.47v25.08a1.34 1.34 0 0 1-1.34 1.34H77.91v-15a2.68 2.68 0 0 0-2.68-2.68h-5a2.69 2.69 0 0 0-2.68 2.68c0 16.18.06 15-.12 15h-14a1.33 1.33 0 0 1-1.33-1.34V48.06a1.33 1.33 0 0 1 1.33-1.33h38.65a1.34 1.34 0 0 1 1.34 1.33zm-27.49-6.9c-1 1-1.93.8-3.33.8V36.7H65a2.73 2.73 0 0 1 .93 4.46zM36.56 9.88a4.19 4.19 0 0 1 4-5.41h7.36a4.19 4.19 0 0 1 4 5.41c-2.32-.46-3.57-.33-12-.33a15.27 15.27 0 0 0-2.62.21zM24.27 27.26a15.74 15.74 0 0 1 14.28-15.64c1.23-.11 1.31-.07 10-.07a15.75 15.75 0 0 1 15.67 15.71v7.25h-1.7l-.46-4.73a6 6 0 0 0-2.06-4l-2.57-2.23a4.38 4.38 0 0 0-5-.54l-9.26 5c-1.73.92-3 .72-5.92.72.68-.46.57-.4 6.06-4.84a1 1 0 0 0-1.25-1.56l-5.22 4.22a9.81 9.81 0 0 1-6.16 2.18h-1.1a3.73 3.73 0 0 0-3.7 3.39v2.36H24.26zM25.91 42h-1.42a2.74 2.74 0 0 1-1-5.26h2.45c-.05 4.95-.05 4.72-.03 5.26zm2.07.87c-.14-1.37-.09-10-.07-10.58a1.71 1.71 0 0 1 1.71-1.51h10.71a8.21 8.21 0 0 0 3.83-1l9.26-5a2.38 2.38 0 0 1 1.69-.21l-2.7 2.71a1 1 0 0 0 0 1.41 1 1 0 0 0 1.41 0l3-3 1.88 1.61a4 4 0 0 1 1.37 2.7 63 63 0 0 1 .54 11.2 16.36 16.36 0 0 1-.39 3.58h-6.8a3.33 3.33 0 0 0-3.33 3.33v8.37A16.38 16.38 0 0 1 28 42.83zM49.8 58.66v2.53l-5.56 6.26c-1.43-1.62-4.19-4.73-5.56-6.26v-2.54a18.66 18.66 0 0 0 11.12.01zM22.86 73.11a13.92 13.92 0 0 1 9.51-9V85.9H30.2c-3.92-10.46-3.64-9.94-4-10.2s-.33-.16-4.11-.16zM5.58 77.54h18.6L21 85.91H2.44zM94 91.53H2.06v-3.62H94z" fill="#009c42" opacity="1" data-original="#000000"></path><path d="M51.18 35.81a1 1 0 0 0-1 1v.77a1 1 0 0 0 2 0v-.77a1 1 0 0 0-1-1zM49.41 34.4H53a1 1 0 0 0 0-2h-3.59a1 1 0 0 0 0 2zM37.31 35.81a1 1 0 0 0-1 1v.77a1 1 0 0 0 2 0v-.77a1 1 0 0 0-1-1zM40.08 33.4a1 1 0 0 0-1-1h-3.54a1 1 0 0 0 0 2h3.54a1 1 0 0 0 1-1zM33.09 25.78c.53 0 .49-.09 3.15-2.59a1 1 0 0 0-1.38-1.46l-2.46 2.32a1 1 0 0 0 .69 1.73zM39.91 48.81a5.24 5.24 0 0 0 8.7 0 1 1 0 0 0-1.67-1.11 3.24 3.24 0 0 1-5.38 0 1 1 0 0 0-1.38-.27 1 1 0 0 0-.27 1.38zM17.5 80.72H8.59a1 1 0 0 0 0 2h8.91a1 1 0 0 0 0-2z" fill="#009c42" opacity="1" data-original="#000000"></path></g></svg>