<svg xmlns="http://www.w3.org/2000/svg" version="1.1" xmlns:xlink="http://www.w3.org/1999/xlink" width="512" height="512" x="0" y="0" viewBox="0 0 32 32" style="enable-background:new 0 0 512 512" xml:space="preserve"><g><g fill="none"><path d="M22.63 13c.87-.04 1.75-.08 2.62-.13-.29-.85-.69-1.65-1.2-2.38-.7.09-1.41.17-2.11.23.3.71.53 1.47.69 2.28zM10.83 21.71c.92 1.92 2.29 3.32 3.87 3.83-.71-.79-1.3-2.18-1.69-3.97-.73.03-1.45.08-2.18.14zM13.4 21.05c.79-.04 1.58-.06 2.37-.06v-2.12c-.9 0-1.8.01-2.69.03.08.77.19 1.49.32 2.15zM10.31 21.76c-.66.05-1.32.12-1.98.21a9.721 9.721 0 0 0 4.83 3.35c-1.16-.78-2.14-2.01-2.85-3.56zM13.04 18.4c.91-.02 1.82-.03 2.73-.03v-2.12h-2.83c.01.75.04 1.47.1 2.15zM13.51 10.45c.75.04 1.51.06 2.26.06V6.29c-.86.25-1.73 1.76-2.26 4.16zM13.08 13.1c.89.02 1.79.03 2.69.03v-2.12c-.79 0-1.58-.02-2.37-.06-.13.66-.24 1.38-.32 2.15zM9.41 19c-.87.04-1.75.08-2.62.13.29.85.69 1.65 1.2 2.37.7-.09 1.41-.17 2.11-.23-.29-.7-.52-1.47-.69-2.27zM12.94 15.75h2.83v-2.12c-.91 0-1.82-.01-2.73-.03-.06.68-.09 1.4-.1 2.15zM15.77 25.71v-4.22c-.75 0-1.51.02-2.26.06.53 2.4 1.4 3.91 2.26 4.16zM9.12 16.25H6.28c.01.83.14 1.62.36 2.38.89-.05 1.78-.09 2.68-.12-.13-.72-.2-1.48-.2-2.26zM12.53 13.6c-.9-.03-1.81-.05-2.71-.09-.12.72-.19 1.47-.2 2.24h2.82c.01-.74.04-1.46.09-2.15zM9.82 18.49c.9-.04 1.81-.07 2.71-.09a36.7 36.7 0 0 1-.09-2.15H9.62c.01.77.08 1.52.2 2.24zM12.9 21.07c-.14-.68-.24-1.4-.32-2.17-.89.02-1.77.05-2.65.08.16.8.39 1.56.69 2.25.76-.07 1.52-.13 2.28-.16zM14.7 6.46c-1.58.51-2.95 1.91-3.87 3.83.73.07 1.45.11 2.18.14.39-1.79.98-3.18 1.69-3.97zM9.32 13.49c-.89-.03-1.78-.08-2.67-.13-.23.76-.36 1.56-.37 2.39h2.84c0-.78.07-1.54.2-2.26zM10.1 10.72c-.7-.06-1.41-.14-2.11-.23-.51.73-.91 1.53-1.2 2.39l2.62.12c.17-.81.4-1.57.69-2.28zM13.16 6.68c-1.94.6-3.62 1.78-4.84 3.35.66.09 1.33.16 1.99.21.71-1.55 1.69-2.78 2.85-3.56zM10.62 10.77c-.3.69-.53 1.45-.69 2.25.88.03 1.76.06 2.65.08.08-.77.18-1.49.32-2.17-.76-.04-1.52-.09-2.28-.16zM16.27 21.49v4.22c.87-.25 1.74-1.76 2.28-4.16-.76-.04-1.52-.06-2.28-.06zM21.22 21.71c-.73-.06-1.45-.11-2.18-.14-.39 1.79-.98 3.18-1.69 3.97 1.58-.51 2.95-1.91 3.87-3.83zM18.89 25.32a9.65 9.65 0 0 0 4.82-3.35c-.66-.08-1.32-.15-1.98-.21-.7 1.55-1.69 2.78-2.84 3.56zM18.97 18.9c-.9-.02-1.8-.03-2.7-.03v2.12c.8 0 1.59.02 2.39.06.13-.66.24-1.38.31-2.15zM22.73 18.51c.89.03 1.78.08 2.67.12.22-.76.35-1.55.36-2.38h-2.83c0 .78-.08 1.54-.2 2.26zM19.11 16.25h-2.84v2.12c.91 0 1.82.01 2.74.03.06-.68.09-1.4.1-2.15zM21.43 21.23c.3-.69.53-1.44.7-2.24-.88-.04-1.77-.07-2.66-.09-.08.77-.18 1.49-.32 2.17.76.04 1.52.09 2.28.16zM22.72 13.49c.13.72.21 1.48.21 2.26h2.83c-.01-.83-.14-1.63-.37-2.39-.89.05-1.78.09-2.67.13zM21.94 21.27c.7.07 1.4.15 2.1.24.52-.73.92-1.53 1.21-2.38-.87-.05-1.75-.09-2.62-.13-.16.8-.39 1.57-.69 2.27zM22.43 16.25h-2.82c-.01.74-.04 1.46-.09 2.16.9.02 1.81.04 2.71.08.12-.72.2-1.47.2-2.24zM19.01 13.6c-.92.02-1.83.03-2.74.03v2.12h2.84c-.01-.75-.04-1.47-.1-2.15zM22.23 13.51c-.9.04-1.81.06-2.71.08.05.7.08 1.42.09 2.16h2.82c0-.77-.08-1.52-.2-2.24zM22.13 13.01c-.17-.8-.4-1.55-.7-2.24-.76.07-1.52.12-2.28.16.14.68.24 1.4.32 2.17.89-.03 1.78-.05 2.66-.09zM21.73 10.24c.66-.06 1.32-.13 1.98-.21a9.65 9.65 0 0 0-4.82-3.35c1.15.78 2.14 2.01 2.84 3.56zM21.21 10.29c-.91-1.92-2.28-3.32-3.86-3.83.71.79 1.3 2.18 1.69 3.97.72-.03 1.45-.08 2.17-.14zM16.27 6.29v4.22c.76 0 1.52-.02 2.28-.06-.54-2.4-1.41-3.91-2.28-4.16zM18.66 10.95c-.8.04-1.59.06-2.39.06v2.12c.9 0 1.8-.01 2.7-.03-.07-.77-.18-1.49-.31-2.15z" fill="" opacity="1"></path><path d="m25.92 13.33-.15-.49c-.28-.87-.67-1.68-1.16-2.42-.1-.16-.21-.32-.32-.47a10.234 10.234 0 0 0-16.54.01c-.11.15-.22.3-.32.46-.49.74-.88 1.55-1.16 2.42l-.15.49c-.21.78-.33 1.59-.35 2.42v.5c.02.83.14 1.64.35 2.41.05.17.1.34.15.5.28.87.67 1.68 1.16 2.42.1.16.21.31.32.46a10.23 10.23 0 0 0 16.54 0c.11-.15.22-.29.32-.45.48-.74.88-1.56 1.16-2.43l.15-.49c.21-.78.33-1.59.35-2.42v-.5c-.02-.83-.14-1.64-.35-2.42zm-13.48 2.92c.01.74.04 1.46.09 2.15-.9.02-1.81.05-2.71.09-.12-.72-.19-1.47-.2-2.24zm-2.82-.5c.01-.77.08-1.52.2-2.24.9.04 1.81.06 2.71.09a36.7 36.7 0 0 0-.09 2.15zm2.96 3.15c.08.77.18 1.49.32 2.17-.76.03-1.52.09-2.28.16-.3-.69-.53-1.45-.69-2.25.88-.03 1.76-.06 2.65-.08zm0-5.8c-.89-.02-1.77-.05-2.65-.08.16-.8.39-1.56.69-2.25.76.07 1.52.12 2.28.16-.14.68-.24 1.4-.32 2.17zm-1.75-2.81c.92-1.92 2.29-3.32 3.87-3.83-.71.79-1.3 2.18-1.69 3.97-.73-.03-1.45-.07-2.18-.14zm2.33-3.61c-1.16.78-2.14 2.01-2.85 3.56-.66-.05-1.33-.12-1.99-.21a9.792 9.792 0 0 1 4.84-3.35zm-5.17 3.81c.7.09 1.41.17 2.11.23-.29.71-.52 1.47-.69 2.28l-2.62-.12c.29-.86.69-1.66 1.2-2.39zm-1.34 2.87c.89.05 1.78.1 2.67.13-.13.72-.2 1.48-.2 2.26H6.28c.01-.83.14-1.63.37-2.39zm-.37 2.89h2.84c0 .78.07 1.54.2 2.26-.9.03-1.79.07-2.68.12-.22-.76-.35-1.55-.36-2.38zm.51 2.88c.87-.05 1.75-.09 2.62-.13.17.8.4 1.57.69 2.27-.7.06-1.41.14-2.11.23-.51-.72-.91-1.52-1.2-2.37zm1.54 2.84c.66-.09 1.32-.16 1.98-.21.71 1.55 1.69 2.78 2.85 3.56a9.721 9.721 0 0 1-4.83-3.35zm2.5-.26c.73-.06 1.45-.11 2.18-.14.39 1.79.98 3.18 1.69 3.97-1.58-.51-2.95-1.91-3.87-3.83zm4.94 4c-.86-.25-1.73-1.76-2.26-4.16.75-.04 1.51-.06 2.26-.06zm0-4.72c-.79 0-1.58.02-2.37.06-.13-.66-.24-1.38-.32-2.15.89-.02 1.79-.03 2.69-.03zm0-2.62c-.91 0-1.82.01-2.73.03-.06-.68-.09-1.4-.1-2.15h2.83zm0-2.62h-2.83c.01-.75.04-1.47.1-2.15.91.02 1.82.03 2.73.03zm0-2.62c-.9 0-1.8-.01-2.69-.03.08-.77.19-1.49.32-2.15.79.04 1.58.06 2.37.06zm0-2.62c-.75 0-1.51-.02-2.26-.06.53-2.4 1.4-3.91 2.26-4.16zm9.48 2.36c-.87.05-1.75.09-2.62.13-.16-.81-.39-1.57-.69-2.28.7-.06 1.41-.14 2.11-.23.51.73.91 1.53 1.2 2.38zm-5.78 6.03c.89.02 1.78.05 2.66.09-.17.8-.4 1.55-.7 2.24-.76-.07-1.52-.12-2.28-.16.14-.68.24-1.4.32-2.17zm-.32-7.97c.76-.04 1.52-.09 2.28-.16.3.69.53 1.44.7 2.24-.88.04-1.77.06-2.66.09-.08-.77-.18-1.49-.32-2.17zm.37 7.48c.05-.7.08-1.42.09-2.16h2.82c0 .77-.08 1.52-.2 2.24-.9-.04-1.81-.06-2.71-.08zm.09-2.66c-.01-.74-.04-1.46-.09-2.16.9-.02 1.81-.04 2.71-.08.12.72.2 1.47.2 2.24zm4.1-5.72c-.66.08-1.32.15-1.98.21-.7-1.55-1.69-2.78-2.84-3.56a9.65 9.65 0 0 1 4.82 3.35zm-2.5.26c-.72.06-1.45.11-2.17.14-.39-1.79-.98-3.18-1.69-3.97 1.58.51 2.95 1.91 3.86 3.83zm-4.94-4c.87.25 1.74 1.76 2.28 4.16-.76.04-1.52.06-2.28.06zm0 4.72c.8 0 1.59-.02 2.39-.06.13.66.24 1.38.31 2.15-.9.02-1.8.03-2.7.03zm0 2.62c.91 0 1.82-.01 2.74-.03.06.68.09 1.4.1 2.15h-2.84zm0 2.62h2.84c-.01.75-.04 1.47-.1 2.15-.92-.02-1.83-.03-2.74-.03zm0 2.62c.9 0 1.8.01 2.7.03-.07.77-.18 1.49-.31 2.15-.8-.04-1.59-.06-2.39-.06zm0 6.84v-4.22c.76 0 1.52.02 2.28.06-.54 2.4-1.41 3.91-2.28 4.16zm2.77-4.14c.73.03 1.45.08 2.18.14-.92 1.92-2.29 3.32-3.87 3.83.71-.79 1.3-2.18 1.69-3.97zm-.15 3.75c1.15-.78 2.14-2.01 2.84-3.56.66.06 1.32.13 1.98.21a9.65 9.65 0 0 1-4.82 3.35zm5.15-3.81c-.7-.09-1.4-.17-2.1-.24.3-.7.53-1.47.69-2.27.87.04 1.75.08 2.62.13-.29.85-.69 1.65-1.21 2.38zm1.36-2.88c-.89-.04-1.78-.09-2.67-.12.12-.72.2-1.48.2-2.26h2.83c-.01.83-.14 1.62-.36 2.38zm-2.47-2.88c0-.78-.08-1.54-.21-2.26.89-.04 1.78-.08 2.67-.13.23.76.36 1.56.37 2.39z" fill="" opacity="1"></path></g><path d="M18.11 25.21c-.25.13-.5.25-.76.33.24-.27.46-.62.67-1.02-.01-.15-.05-.3-.05-.46 0-.27.04-.53.08-.79-.51 1.39-1.14 2.25-1.78 2.43v-4.22c.76 0 1.52.02 2.28.06-.03.15-.07.28-.11.43.19-.42.45-.8.75-1.15.12-.61.21-1.25.28-1.93.89.02 1.78.05 2.66.09-.01.06-.03.11-.04.16.17-.03.34-.04.52-.05l.03-.1c.87.04 1.75.08 2.62.13-.05.14-.12.28-.17.42.15.07.3.15.44.24.08-.21.18-.41.25-.63l.15-.49c.21-.78.33-1.59.35-2.42v-.5c-.02-.83-.14-1.64-.35-2.42l-.15-.49c-.28-.87-.67-1.68-1.16-2.42-.1-.16-.21-.32-.32-.47a10.234 10.234 0 0 0-16.54.01c-.11.15-.22.3-.32.46-.49.74-.88 1.55-1.16 2.42l-.15.49c-.21.78-.33 1.59-.35 2.42v.5c.02.83.14 1.64.35 2.41.05.17.1.34.15.5.28.87.67 1.68 1.16 2.42.1.16.21.31.32.46a10.23 10.23 0 0 0 8.27 4.21c.8 0 1.58-.1 2.33-.27-.11-.24-.18-.5-.25-.76zm1.04-14.28c.76-.04 1.52-.09 2.28-.16.3.69.53 1.44.7 2.24-.88.04-1.77.06-2.66.09-.08-.77-.18-1.49-.32-2.17zm3.08 7.56c-.9-.04-1.81-.06-2.71-.08.05-.7.08-1.42.09-2.16h2.82c0 .77-.08 1.52-.2 2.24zm-2.62-2.74c-.01-.74-.04-1.46-.09-2.16.9-.02 1.81-.04 2.71-.08.12.72.2 1.47.2 2.24zm5.79 2.88c-.89-.04-1.78-.09-2.67-.12.12-.72.2-1.48.2-2.26h2.83c-.01.83-.14 1.62-.36 2.38zm.36-2.88h-2.83c0-.78-.08-1.54-.21-2.26.89-.04 1.78-.08 2.67-.13.23.76.36 1.56.37 2.39zm-.51-2.88c-.87.05-1.75.09-2.62.13-.16-.81-.39-1.57-.69-2.28.7-.06 1.41-.14 2.11-.23.51.73.91 1.53 1.2 2.38zm-1.54-2.84c-.66.08-1.32.15-1.98.21-.7-1.55-1.69-2.78-2.84-3.56a9.65 9.65 0 0 1 4.82 3.35zm-2.5.26c-.72.06-1.45.11-2.17.14-.39-1.79-.98-3.18-1.69-3.97 1.58.51 2.95 1.91 3.86 3.83zm-4.94-4c.87.25 1.74 1.76 2.28 4.16-.76.04-1.52.06-2.28.06zm0 4.72c.8 0 1.59-.02 2.39-.06.13.66.24 1.38.31 2.15-.9.02-1.8.03-2.7.03zm0 2.62c.91 0 1.82-.01 2.74-.03.06.68.09 1.4.1 2.15h-2.84zm0 2.62h2.84c-.01.75-.04 1.47-.1 2.15-.92-.02-1.83-.03-2.74-.03zm0 2.62c.9 0 1.8.01 2.7.03-.07.77-.18 1.49-.31 2.15-.8-.04-1.59-.06-2.39-.06zm-3.83-2.62c.01.74.04 1.46.09 2.15-.9.02-1.81.05-2.71.09-.12-.72-.19-1.47-.2-2.24zm-2.82-.5c.01-.77.08-1.52.2-2.24.9.04 1.81.06 2.71.09a36.7 36.7 0 0 0-.09 2.15zm2.96 3.15c.08.77.18 1.49.32 2.17-.76.03-1.52.09-2.28.16-.3-.69-.53-1.45-.69-2.25.88-.03 1.76-.06 2.65-.08zm0-5.8c-.89-.02-1.77-.05-2.65-.08.16-.8.39-1.56.69-2.25.76.07 1.52.12 2.28.16-.14.68-.24 1.4-.32 2.17zm-1.75-2.81c.92-1.92 2.29-3.32 3.87-3.83-.71.79-1.3 2.18-1.69 3.97-.73-.03-1.45-.07-2.18-.14zm2.33-3.61c-1.16.78-2.14 2.01-2.85 3.56-.66-.05-1.33-.12-1.99-.21a9.792 9.792 0 0 1 4.84-3.35zm-5.17 3.81c.7.09 1.41.17 2.11.23-.29.71-.52 1.47-.69 2.28l-2.62-.12c.29-.86.69-1.66 1.2-2.39zm-1.34 2.87c.89.05 1.78.1 2.67.13-.13.72-.2 1.48-.2 2.26H6.28c.01-.83.14-1.63.37-2.39zm-.37 2.89h2.84c0 .78.07 1.54.2 2.26-.9.03-1.79.07-2.68.12-.22-.76-.35-1.55-.36-2.38zm.51 2.88c.87-.05 1.75-.09 2.62-.13.17.8.4 1.57.69 2.27-.7.06-1.41.14-2.11.23-.51-.72-.91-1.52-1.2-2.37zm1.54 2.84c.66-.09 1.32-.16 1.98-.21.71 1.55 1.69 2.78 2.85 3.56a9.721 9.721 0 0 1-4.83-3.35zm2.5-.26c.73-.06 1.45-.11 2.18-.14.39 1.79.98 3.18 1.69 3.97-1.58-.51-2.95-1.91-3.87-3.83zm4.94 4c-.86-.25-1.73-1.76-2.26-4.16.75-.04 1.51-.06 2.26-.06zm0-4.72c-.79 0-1.58.02-2.37.06-.13-.66-.24-1.38-.32-2.15.89-.02 1.79-.03 2.69-.03zm0-2.62c-.91 0-1.82.01-2.73.03-.06-.68-.09-1.4-.1-2.15h2.83zm0-2.62h-2.83c.01-.75.04-1.47.1-2.15.91.02 1.82.03 2.73.03zm0-2.62c-.9 0-1.8-.01-2.69-.03.08-.77.19-1.49.32-2.15.79.04 1.58.06 2.37.06zm0-2.62c-.75 0-1.51-.02-2.26-.06.53-2.4 1.4-3.91 2.26-4.16zM23.32 24.39l.42-.42c.1-.1.1-.26 0-.35s-.26-.1-.35 0l-.42.42-.42-.42c-.1-.1-.26-.1-.35 0s-.1.26 0 .35l.42.42-.42.41c-.1.1-.1.26 0 .35.05.05.11.07.18.07s.13-.02.18-.07l.42-.42.42.42c.05.05.11.07.18.07.06 0 .13-.02.18-.07.1-.1.1-.26 0-.35z" fill="#006666" opacity="1" data-original="#000000"></path><path d="M22.97 20.06c-2.21 0-4 1.79-4 4s1.79 4 4 4a3.999 3.999 0 1 0 0-8zM26 23.12c-.04.17-.16.31-.3.39l-.41 2.13c-.09.46-.5.79-.96.79h-2.7c-.47 0-.88-.33-.96-.8l-.42-2.13a.627.627 0 0 1-.3-.39l-.12-.45c-.05-.18-.01-.38.11-.54s.3-.25.5-.25h5.07c.2 0 .38.09.5.24s.16.35.11.54z" fill="#006666" opacity="1" data-original="#000000"></path><path d="M25.51 22.39h-5.07c-.08 0-.14.08-.12.16l.11.45c.01.06.06.09.12.09h.12l.48 2.46c.04.22.24.39.47.39h2.7c.23 0 .42-.16.47-.39l.48-2.46h.12c.06 0 .11-.04.12-.09l.12-.45c.02-.08-.04-.16-.12-.16zm-1.21 3.05-2.66.02-.41-2.11h3.48z" fill="#006666" opacity="1" data-original="#000000"></path></g></svg>