<svg xmlns="http://www.w3.org/2000/svg" version="1.1" xmlns:xlink="http://www.w3.org/1999/xlink" width="512" height="512" x="0" y="0" viewBox="0 0 64 64" style="enable-background:new 0 0 512 512" xml:space="preserve" class=""><g><path d="M19 28c-2.206 0-4-1.794-4-4s1.794-4 4-4 4 1.794 4 4-1.794 4-4 4zm0-6c-1.103 0-2 .897-2 2s.897 2 2 2 2-.897 2-2-.897-2-2-2z" fill="#00f000" opacity="1" data-original="#000000" class=""></path><path d="M24 34H14a1 1 0 0 1-1-1v-3c0-1.654 1.346-3 3-3h6c1.654 0 3 1.346 3 3v3a1 1 0 0 1-1 1zm-9-2h8v-2c0-.552-.449-1-1-1h-6c-.551 0-1 .448-1 1zM53 27H38c-2.206 0-4-1.794-4-4s1.794-4 4-4h15c2.206 0 4 1.794 4 4s-1.794 4-4 4zm-15-6c-1.103 0-2 .897-2 2s.897 2 2 2h15c1.103 0 2-.897 2-2s-.897-2-2-2zM53 37H38c-2.206 0-4-1.794-4-4s1.794-4 4-4h15c2.206 0 4 1.794 4 4s-1.794 4-4 4zm-15-6c-1.103 0-2 .897-2 2s.897 2 2 2h15c1.103 0 2-.897 2-2s-.897-2-2-2zM56 47H27a1 1 0 1 1 0-2h29a1 1 0 1 1 0 2zM56 51H27a1 1 0 1 1 0-2h29a1 1 0 1 1 0 2zM46.773 55H27a1 1 0 1 1 0-2h19.773a1 1 0 1 1 0 2zM21 56H11a1 1 0 0 1-1-1V45a1 1 0 0 1 1-1h7a1 1 0 1 1 0 2h-6v8h8v-3a1 1 0 1 1 2 0v4a1 1 0 0 1-1 1z" fill="#00f000" opacity="1" data-original="#000000" class=""></path><path d="M17 52a.997.997 0 0 1-.707-.293l-3-3a.999.999 0 1 1 1.414-1.414L17 49.586l5.293-5.293a.999.999 0 1 1 1.414 1.414l-6 6A.997.997 0 0 1 17 52z" fill="#00f000" opacity="1" data-original="#000000" class=""></path><path d="M60 63H4c-1.654 0-3-1.346-3-3V4c0-1.654 1.346-3 3-3h56c1.654 0 3 1.346 3 3v56c0 1.654-1.346 3-3 3zM4 3c-.551 0-1 .448-1 1v56c0 .552.449 1 1 1h56c.551 0 1-.448 1-1V4c0-.552-.449-1-1-1z" fill="#00f000" opacity="1" data-original="#000000" class=""></path><circle cx="7" cy="6" r="1" fill="#00f000" opacity="1" data-original="#000000" class=""></circle><circle cx="11" cy="6" r="1" fill="#00f000" opacity="1" data-original="#000000" class=""></circle><circle cx="15" cy="6" r="1" fill="#00f000" opacity="1" data-original="#000000" class=""></circle><path d="M62 11H2a1 1 0 1 1 0-2h60a1 1 0 1 1 0 2zM19 40c-6.617 0-12-5.383-12-12s5.383-12 12-12 12 5.383 12 12-5.383 12-12 12zm0-22c-5.514 0-10 4.486-10 10s4.486 10 10 10 10-4.486 10-10-4.486-10-10-10z" fill="#00f000" opacity="1" data-original="#000000" class=""></path></g></svg>