<svg xmlns="http://www.w3.org/2000/svg" version="1.1" xmlns:xlink="http://www.w3.org/1999/xlink" width="512" height="512" x="0" y="0" viewBox="0 0 512 512" style="enable-background:new 0 0 512 512" xml:space="preserve" class=""><g><path fill-rule="evenodd" d="M312.878 137.975a156.384 156.384 0 0 1 87.994 107.716l1.924-3.332-.01-.006a13.738 13.738 0 0 1 11.27-6.939A171.8 171.8 0 0 0 248.2 108.422a173.685 173.685 0 0 0-20.315 1.181q-6.765.8-13.266 2.081a102.761 102.761 0 0 1 5.116 14.9q5.688-1.052 11.444-1.679a157.878 157.878 0 0 1 17.021-.93 155.487 155.487 0 0 1 64.682 14zm114.158 104.7L494.079 358.8l.01-.006a13.626 13.626 0 0 1 0 13.918c-.073.126-.15.248-.232.366a13.815 13.815 0 0 1-4.838 4.732l.006.009a13.854 13.854 0 0 1-6.975 1.853h-80.621A182.731 182.731 0 0 1 66.654 259.43q.93-8.239 2.583-16.256a103.522 103.522 0 1 1 140.324-141.629q8.475-1.83 17.075-2.848A184.321 184.321 0 0 1 248.2 97.43a182.777 182.777 0 0 1 178.84 145.243zm-38.866 137h-19.377a156.485 156.485 0 0 1-52.611 41.095q-1.579.757-3.177 1.481a156.183 156.183 0 0 1-220.977-142.1 158 158 0 0 1 .855-16.3q.564-5.43 1.491-10.734a102.653 102.653 0 0 1-14.935-4.971q-1.162 6.168-1.879 12.492a173.837 173.837 0 0 0-1.085 19.511 171.715 171.715 0 0 0 311.7 99.525zm3.938-118.8-56.547 97.943a13.974 13.974 0 0 0 4.69 18.766q.18.125.374.237a13.856 13.856 0 0 0 6.975 1.853h6.324a145.908 145.908 0 0 1-21.436 18.717 89.39 89.39 0 0 0-26.144-46.553 80.462 80.462 0 0 0-111.956.832 89.546 89.546 0 0 0-25.744 48.275 145.4 145.4 0 0 1-64.053-135.9q.509-4.911 1.342-9.733a104.333 104.333 0 0 0 13.59.886 103.526 103.526 0 0 0 103.523-103.532 104.283 104.283 0 0 0-1.082-15q5.262-.979 10.707-1.583a146.606 146.606 0 0 1 16.1-.874 144.678 144.678 0 0 1 143.337 125.66zm-83.6 151.391q1.287-.588 2.562-1.2 5.886-2.832 11.468-6.168a78.576 78.576 0 0 0-23.67-45.072 69.622 69.622 0 0 0-96.884.746 78.791 78.791 0 0 0-23.237 46.513 145.345 145.345 0 0 0 129.761 5.182zM184.953 87.237a92.536 92.536 0 1 0 27.1 65.429 92.246 92.246 0 0 0-27.1-65.429zm-65.43-19.8A85.234 85.234 0 1 0 179.791 92.4a84.967 84.967 0 0 0-60.268-24.964zm52.5 32.736a74.242 74.242 0 1 0 21.744 52.5 74.006 74.006 0 0 0-21.744-52.5zm-57.992-.053v7.157a25.742 25.742 0 0 0 5.5 50.889 14.746 14.746 0 1 1-14.746 14.745 5.5 5.5 0 1 0-10.992 0 25.755 25.755 0 0 0 20.242 25.15v7.157a5.5 5.5 0 0 0 10.992 0v-7.157a25.741 25.741 0 0 0-5.5-50.888 14.746 14.746 0 1 1 14.746-14.746 5.5 5.5 0 1 0 10.992 0 25.755 25.755 0 0 0-20.242-25.15v-7.157a5.5 5.5 0 1 0-10.992 0zm295.3 182.33v42.818a5.5 5.5 0 0 0 10.992 0v-42.821a5.5 5.5 0 1 0-10.992 0zm0 65.88v1.87a5.5 5.5 0 1 0 10.992 0v-1.869a5.5 5.5 0 0 0-10.992 0zm75.27 15.938L417.548 248.13a6.036 6.036 0 0 1-.174-.281 2.983 2.983 0 0 0-1.07-1.113 3.3 3.3 0 0 0-2.958 0 2.983 2.983 0 0 0-1.07 1.113h-.009l-67.216 116.416a2.9 2.9 0 0 0 0 2.969 3 3 0 0 0 .9.994l.175.1a2.944 2.944 0 0 0 1.479.349H482.05a2.944 2.944 0 0 0 1.479-.349v.009l.016-.009a2.848 2.848 0 0 0 .94-.915l.109-.2a2.827 2.827 0 0 0 0-2.926h.009l-.009-.016zM250.7 210.537c11.27 0 21.442 5.14 28.775 13.452a48.766 48.766 0 0 1 0 63.185c-7.333 8.311-17.505 13.452-28.775 13.452s-21.443-5.141-28.776-13.451a48.771 48.771 0 0 1 0-63.186c7.333-8.312 17.5-13.452 28.776-13.452zm20.574 20.708a37.969 37.969 0 0 1 0 48.673 26.644 26.644 0 0 1-41.149 0 37.969 37.969 0 0 1 0-48.673 26.644 26.644 0 0 1 41.149 0z" fill="#000080" opacity="1" data-original="#000000" class=""></path></g></svg>