<svg xmlns="http://www.w3.org/2000/svg" version="1.1" xmlns:xlink="http://www.w3.org/1999/xlink" width="512" height="512" x="0" y="0" viewBox="0 0 500 500" style="enable-background:new 0 0 512 512" xml:space="preserve" class=""><g><path fill-rule="evenodd" d="M230.995 267.399c-3.258 0-5.887-2.641-5.887-5.893s2.629-5.905 5.887-5.905 5.888 2.652 5.888 5.905a5.889 5.889 0 0 1-5.888 5.893zm0-25.424c-10.746 0-19.491 8.757-19.491 19.531 0 10.763 8.745 19.52 19.491 19.52 10.803 0 19.548-8.757 19.548-19.52 0-10.774-8.745-19.531-19.548-19.531zm-54.13-40.92c0-3.252 2.629-5.904 5.888-5.904 3.258 0 5.887 2.652 5.887 5.904s-2.629 5.904-5.887 5.904c-3.258.001-5.888-2.651-5.888-5.904zm25.436 0c0-10.763-8.802-19.531-19.548-19.531s-19.548 8.768-19.548 19.531 8.802 19.531 19.548 19.531 19.548-8.768 19.548-19.531zm40.354-8.791a6.8 6.8 0 0 0-1.658-9.494 6.808 6.808 0 0 0-9.488 1.652l-60.359 85.875a6.8 6.8 0 0 0 1.658 9.494c3.014 2.162 7.289 1.419 9.488-1.652zm94.14 81.948c0 3.761-3.087 6.813-6.859 6.813h-44.069c-3.772 0-6.859-3.052-6.859-6.813s3.087-6.813 6.859-6.813h44.069c3.773 0 6.859 3.052 6.859 6.813zm0-39.496c0 3.767-3.087 6.813-6.859 6.813h-44.069c-3.772 0-6.859-3.047-6.859-6.813 0-3.755 3.087-6.808 6.859-6.808h44.069c3.773 0 6.859 3.053 6.859 6.808zm0-39.491c0 3.761-3.087 6.813-6.859 6.813h-44.069c-3.772 0-6.859-3.052-6.859-6.813 0-3.772 3.087-6.813 6.859-6.813h44.069c3.773 0 6.859 3.041 6.859 6.813zm0-39.508c0 3.761-3.087 6.813-6.859 6.813H180.581c-3.773 0-6.802-3.052-6.802-6.813s3.029-6.813 6.802-6.813h149.355c3.773 0 6.859 3.052 6.859 6.813zm-53.614-43.898 18.462-21.84-18.462-21.834a6.765 6.765 0 0 1 .8-9.614c2.858-2.424 7.145-2.069 9.603.812l16.976 20.091 16.976-20.091c2.458-2.881 6.744-3.235 9.603-.812a6.765 6.765 0 0 1 .8 9.614l-18.462 21.834 18.462 21.84c3.814 4.487.489 11.215-5.144 11.215a6.908 6.908 0 0 1-5.258-2.418l-16.976-20.091-16.976 20.091c-2.44 2.867-6.72 3.25-9.603.8-2.917-2.423-3.26-6.722-.801-9.597zm-65.676 1.749 22.178-52.483c2.356-5.53 10.218-5.53 12.575 0l22.177 52.483c1.938 4.55-1.468 9.465-6.287 9.465a6.76 6.76 0 0 1-6.23-4.161l-15.947-37.65-15.947 37.65c-1.429 3.469-5.43 5.087-8.917 3.624a6.77 6.77 0 0 1-3.602-8.928zm-57.044-49.831a6.798 6.798 0 0 0 6.802 6.813h15.376v45.67c0 3.761 3.029 6.813 6.802 6.813s6.802-3.052 6.802-6.813V70.55h15.433c3.715 0 6.802-3.052 6.802-6.813s-3.087-6.813-6.802-6.813h-44.412a6.798 6.798 0 0 0-6.803 6.813zM429.335 396.6H70.665c-12.003 0-21.777-9.768-21.777-21.755v-4.996h402.225v4.996c-.001 11.987-9.775 21.755-21.778 21.755zm-135.123 64.595h-88.424l21.663-50.968h45.098zM70.665 147.806c-12.003 0-21.777 9.757-21.777 21.749v186.668h402.225V169.555c0-11.992-9.774-21.749-21.778-21.749H379.95v164.005h29.494c3.773 0 6.859 3.052 6.859 6.813s-3.087 6.813-6.859 6.813H90.556c-3.772 0-6.859-3.052-6.859-6.813s3.087-6.813 6.859-6.813h29.494V147.806zm72.648-109.007c-5.316 0-9.66 4.327-9.66 9.648v263.364h232.693V48.448c0-5.322-4.344-9.648-9.66-9.648H143.313zm286.022 95.381H379.95V48.448c0-12.832-10.46-23.269-23.264-23.269H143.313c-12.803 0-23.264 10.437-23.264 23.269v85.732H70.665c-19.491 0-35.381 15.873-35.381 35.375v205.291c0 19.503 15.89 35.381 35.381 35.381h141.982l-21.663 50.968h-43.955c-3.715 0-6.802 3.041-6.802 6.813 0 3.761 3.087 6.813 6.802 6.813h205.942c3.715 0 6.802-3.052 6.802-6.813 0-3.772-3.087-6.813-6.802-6.813h-43.955l-21.663-50.968h141.982c19.548 0 35.381-15.878 35.381-35.381V169.555c0-19.502-15.833-35.375-35.381-35.375z" clip-rule="evenodd" fill="#10cbcb" opacity="1" data-original="#000000" class=""></path></g></svg>