<svg xmlns="http://www.w3.org/2000/svg" version="1.1" xmlns:xlink="http://www.w3.org/1999/xlink" width="512" height="512" x="0" y="0" viewBox="0 0 64 64" style="enable-background:new 0 0 512 512" xml:space="preserve" class=""><g><path d="M14.689 35.828a6.5 6.5 0 1 0-6.5-6.5 6.507 6.507 0 0 0 6.5 6.5Zm0-11a4.5 4.5 0 1 1-4.5 4.5 4.505 4.505 0 0 1 4.5-4.5ZM49.303 35.828a6.5 6.5 0 1 0-6.5-6.5 6.507 6.507 0 0 0 6.5 6.5Zm0-11a4.5 4.5 0 1 1-4.5 4.5 4.505 4.505 0 0 1 4.5-4.5Z" fill="#ad33c6" opacity="1" data-original="#000000" class=""></path><path d="M51.988 37.152c-1.683-.496-7.232-.23-9.114-.292a3.605 3.605 0 0 1-2.528-1.027l-3.731-3.628a3.312 3.312 0 0 0-4.62.012 3.314 3.314 0 0 0-4.618-.012l-3.732 3.629a3.605 3.605 0 0 1-2.527 1.026H14.86C2.158 36.67 3.5 52.467 4.896 57.768a2.822 2.822 0 0 0 2.781 2.23c1.95-.01 12.66.008 14.857 0a2.872 2.872 0 0 0 2.85-2.943 37.819 37.819 0 0 0-2.53-13.688 9.676 9.676 0 0 0 5.272-2.645l3.87-3.774 3.87 3.774a9.672 9.672 0 0 0 5.271 2.645 37.847 37.847 0 0 0-2.529 13.69 2.872 2.872 0 0 0 2.85 2.941c2.225-.003 12.835.002 14.857 0a2.823 2.823 0 0 0 2.781-2.226c.934-4.212 3.182-18.148-7.108-20.62Zm-21.389-1.635-3.87 3.773a7.689 7.689 0 0 1-4.808 2.173 17.223 17.223 0 0 0-.23-.402.999.999 0 0 0-1.37-.35c-.944.585-.268 1.53.132 2.253 1.776 3.418 2.762 8.177 2.93 14.146a.861.861 0 0 1-.849.888H11.552c-.809-3.27-1.146-8.67-.634-10.897a1 1 0 0 0-1.949-.449c-.55 2.389-.265 7.756.531 11.346H7.677a.837.837 0 0 1-.828-.659C5.412 51.702 4.5 38.602 14.86 38.859h6.257a5.593 5.593 0 0 0 3.922-1.592l3.731-3.629a1.31 1.31 0 0 1 1.828 1.879Zm26.543 21.825a.835.835 0 0 1-.827.656h-1.823c.795-3.59 1.081-8.957.53-11.346a1 1 0 0 0-1.948.45c.512 2.226.175 7.625-.634 10.896H41.458a.862.862 0 0 1-.85-.886c.17-5.963 1.152-10.719 2.93-14.146.397-.717 1.078-1.673.133-2.254a.999.999 0 0 0-1.37.35q-.115.194-.23.401a7.686 7.686 0 0 1-4.809-2.173l-3.87-3.774a1.31 1.31 0 0 1 1.829-1.878l3.73 3.63a5.593 5.593 0 0 0 3.923 1.592h6.257c10.358-.261 9.451 12.846 8.011 18.482ZM31.996 28a12 12 0 0 0 0-24 11.858 11.858 0 0 0-6.8 2.119 1 1 0 1 0 1.14 1.642A9.87 9.87 0 0 1 31.996 6a9.999 9.999 0 1 1-8.234 4.325 1 1 0 0 0-1.65-1.13A12.001 12.001 0 0 0 31.995 28Z" fill="#ad33c6" opacity="1" data-original="#000000" class=""></path><path d="M29.38 20.23a.308.308 0 0 1-.307-.307 1 1 0 0 0-2 0 2.31 2.31 0 0 0 2.308 2.308h1.615v.961a1 1 0 1 0 2 0v-.961h1.615a2.31 2.31 0 0 0 2.308-2.308v-2.616A2.31 2.31 0 0 0 34.61 15h-1.615v-3.231h1.615a.308.308 0 0 1 .308.308 1 1 0 0 0 2 0 2.31 2.31 0 0 0-2.308-2.308h-1.615v-.961a1 1 0 0 0-2 0v.961H29.38a2.31 2.31 0 0 0-2.308 2.308v2.615A2.31 2.31 0 0 0 29.381 17h1.615v3.23ZM32.997 17h1.615a.308.308 0 0 1 .308.307v2.616a.308.308 0 0 1-.308.308h-1.615Zm-3.615-2a.308.308 0 0 1-.308-.308v-2.615a.308.308 0 0 1 .308-.308h1.615v3.23Z" fill="#ad33c6" opacity="1" data-original="#000000" class=""></path></g></svg>