<svg xmlns="http://www.w3.org/2000/svg" version="1.1" xmlns:xlink="http://www.w3.org/1999/xlink" width="512" height="512" x="0" y="0" viewBox="0 0 512 512" style="enable-background:new 0 0 512 512" xml:space="preserve" class=""><g><path d="M436.46 299.599V147.11c0-6.364-5.178-11.543-11.543-11.543h-20.355c-6.364 0-11.543 5.178-11.543 11.543v152.483h-12.817V190.445c0-6.364-5.178-11.543-11.543-11.543h-20.355c-6.364 0-11.543 5.178-11.543 11.543v109.148h-12.815v-30.155c0-6.364-5.178-11.543-11.543-11.543h-20.357c-6.364 0-11.543 5.178-11.543 11.543v30.155H267.69V227.74c0-6.364-5.178-11.542-11.543-11.542h-20.356c-6.363 0-11.542 5.178-11.542 11.543v71.853h-.646a7.5 7.5 0 0 0-7.5 7.5 7.5 7.5 0 0 0 7.5 7.5h212.73a7.5 7.5 0 0 0 7.5-7.5c.001-4.1-3.289-7.426-7.373-7.495zm-183.771-.007H239.25v-68.394h13.439v68.394zm56.256 0h-13.439v-26.697h13.439v26.697zm56.256 0h-13.439V193.903h13.439v105.689zm56.257 0H408.02V150.568h13.439v149.024z" fill="#b4db51" opacity="1" data-original="#000000"></path><path d="M494.343 39.733H333.947a7.5 7.5 0 0 0-7.5 7.5 7.5 7.5 0 0 0 7.5 7.5h160.397c1.439 0 2.655 1.216 2.655 2.655v16.858c0 1.439-1.216 2.655-2.655 2.655H133.086c-1.439 0-2.655-1.216-2.655-2.655V57.389c0-1.439 1.216-2.655 2.655-2.655h165.86a7.5 7.5 0 0 0 7.5-7.5 7.5 7.5 0 0 0-7.5-7.5h-165.86c-9.736 0-17.656 7.92-17.656 17.656v16.858c0 9.562 7.644 17.353 17.14 17.63v25.803c-38.923 3.109-69.652 35.755-69.652 75.466v22.19c-4.007 4.73-6.175 10.497-6.175 16.603 0 13.577 10.11 25.277 24.268 26.86 2.269 14.251 9.99 27.941 22.23 37.186v14.098l-70.554 27.353a8.255 8.255 0 0 0-.141.056C31.216 338.039 0 351.291 0 387.699v70.577c0 7.714 6.275 13.99 13.99 13.99h250.657c7.683 0 13.934-6.25 13.934-13.934v-61.389h200.316c8.804 0 15.965-7.161 15.965-15.964V242.581a7.5 7.5 0 0 0-7.5-7.5 7.5 7.5 0 0 0-7.5 7.5V380.98a.965.965 0 0 1-.964.963H278.312c-1.964-20.994-16.792-38.447-32.419-44.507l-70.631-27.354V295.07c10.846-8.656 18.789-21.437 21.068-36.253 13.817-1.566 24.225-13.054 24.225-26.877a26.978 26.978 0 0 0-6.178-17.17v-21.624c0-38.712-29.145-70.795-66.808-75.191V91.904H479.86v115.675c0 4.142 3.357 7.5 7.5 7.5s7.5-3.358 7.5-7.5V91.878c9.497-.277 17.14-8.069 17.14-17.631V57.389c0-9.735-7.92-17.656-17.657-17.656zM80.296 243.405c-5.17-1.586-8.555-6.217-8.555-11.465 0-5.095 3.808-9.232 8.555-11.017v22.482zm28.067 80.796 20.043 24.741c-8.651 6.144-17.463 12.405-18.395 13.067l-16.076-32.22 14.428-5.588zm30.906 14.273-21.029-25.959v-8.436c12.702 4.551 28.142 5.073 42.021-.35v8.835l-20.992 25.91zm9.964 28.227-3.306 4.976h-13.313l-3.307-4.976 9.963-7.075 9.963 7.075zm-41.463 90.565H62.48V398.63c0-4.142-3.357-7.5-7.5-7.5s-7.5 3.358-7.5 7.5v58.636H15.001V387.7c0-25.88 21.814-35.714 23.206-36.315l41.677-16.157 18.271 36.617c3.275 6.561 11.662 8.701 17.683 4.424l1.234-.876 3.63 5.464-12.932 76.409zm15.213 0 11.947-70.587h8.682l11.947 70.587h-32.576zm117.393-105.88c6.646 2.872 14.711 9.761 19.083 18.427 3.468 6.868 4.12 12.753 4.12 19.63v67.822h-32.475V398.63c0-4.142-3.357-7.5-7.5-7.5s-7.5 3.358-7.5 7.5v58.636h-45.331l-12.933-76.41 3.63-5.463 1.235.877c6.005 4.265 14.397 2.157 17.682-4.424l18.27-36.615 41.719 16.155zm-55.77-21.598-16.076 32.219-18.42-13.084 20.039-24.734 3.215 1.245 11.242 4.354zm-2.607-79.75c-.067 23.232-18.856 42.608-42.691 42.608-27.205-.034-44.012-21.366-44.012-42.623v-37.738c24.531 1.077 50.915-5.941 73.084-19.83 7.36 7.896 11.87 12.612 13.618 14.651l.001 42.932zM197 243.384V220.49c11.38 3.507 11.389 19.39 0 22.894zm2.376-50.238v12.437a28.22 28.22 0 0 0-2.387-.425c0-4.955-2.408-6.563-19.248-24.663l-.001-.001a12.12 12.12 0 0 0-15.536-1.894c-20.104 13.134-45.155 20.252-68.858 18.548-5.466-.41-10.585 2.954-12.386 8.161-1.023.155-2.04.364-3.044.628v-12.789c0-33.116 26.954-61.27 61.998-60.696 32.783.672 59.462 27.896 59.462 60.694z" fill="#b4db51" opacity="1" data-original="#000000"></path></g></svg>