<svg xmlns="http://www.w3.org/2000/svg" version="1.1" xmlns:xlink="http://www.w3.org/1999/xlink" width="512" height="512" x="0" y="0" viewBox="0 0 512 512" style="enable-background:new 0 0 512 512" xml:space="preserve" class=""><g><path d="M495.97 330.58c-.43-10.79-5-20.41-12.85-27.1l-93.46-79.55c13.13-20.98 20.73-45.75 20.73-72.27C410.39 76.31 349.08 15 273.72 15S137.05 76.31 137.05 151.67s61.31 136.67 136.67 136.67c25.93 0 50.2-7.26 70.88-19.86l17.39 20.43V491c0 3.31 2.69 6 6 6H444c3.31 0 6-2.69 6-6V374.97c.49.04.98.08 1.48.1.57.02 1.14.03 1.7.03 11.31 0 22.27-4.51 30.28-12.53 8.43-8.42 12.98-20.08 12.51-31.99zM149.05 151.67C149.05 82.93 204.98 27 273.72 27s124.67 55.93 124.67 124.67-55.93 124.67-124.67 124.67-124.67-55.93-124.67-124.67zm233.77 82.21 14.93 12.71-30.27 30.27-12.86-15.11c10.69-7.88 20.2-17.28 28.2-27.87zM438 485h-64.01V303.01l50.4 59.21c3.73 4.38 8.37 7.73 13.62 9.92V485zm36.99-130.91c-5.97 5.97-14.56 9.33-23.02 8.99-7.4-.3-13.95-3.36-18.44-8.64l-58.23-68.42 31.63-31.63 68.42 58.24c5.27 4.49 8.34 11.03 8.64 18.44.33 8.44-3.04 17.05-9 23.02zM273.72 42.15c-60.39 0-109.52 49.13-109.52 109.52s49.13 109.52 109.52 109.52 109.52-49.13 109.52-109.52S334.11 42.15 273.72 42.15zm0 207.04c-53.77 0-97.52-43.75-97.52-97.52s43.75-97.52 97.52-97.52 97.52 43.75 97.52 97.52-43.75 97.52-97.52 97.52zm0-180.38c-6.07 0-11.96 2.54-16.14 6.96-3.98 4.2-6 9.6-5.69 15.21l4 72.99c.58 10.58 9.41 16.11 17.83 16.11s17.26-5.53 17.83-16.11l4-72.99c.31-5.61-1.71-11.01-5.69-15.21-4.19-4.42-10.07-6.96-16.14-6.96zm9.85 21.51-4 72.99c-.25 4.54-4.92 4.77-5.85 4.77s-5.6-.23-5.85-4.77l-4-72.99c-.12-2.28.74-4.52 2.42-6.31 1.93-2.04 4.64-3.21 7.43-3.21s5.5 1.17 7.43 3.21c1.68 1.79 2.55 4.03 2.42 6.31zm-9.85 107.24c-11.15 0-20.21 9.07-20.21 20.21s9.07 20.21 20.21 20.21c11.15 0 20.21-9.07 20.21-20.21s-9.07-20.21-20.21-20.21zm0 28.42c-4.53 0-8.21-3.68-8.21-8.21s3.68-8.21 8.21-8.21 8.21 3.68 8.21 8.21-3.68 8.21-8.21 8.21zM98.01 352.97H22c-3.31 0-6 2.69-6 6V491c0 3.31 2.69 6 6 6h76.01c3.31 0 6-2.69 6-6V358.97c0-3.31-2.68-6-6-6zm-6 132.03H28V364.97h64.01zm121.33-174.71h-76.01c-3.31 0-6 2.69-6 6V491c0 3.31 2.69 6 6 6h76.01c3.31 0 6-2.69 6-6V316.29c0-3.32-2.68-6-6-6zm-6 174.71h-64.01V322.29h64.01zm121.33-132.03h-76.01c-3.31 0-6 2.69-6 6V491c0 3.31 2.69 6 6 6h76.01c3.31 0 6-2.69 6-6V358.97c0-3.31-2.68-6-6-6zm-6 132.03h-64.01V364.97h64.01z" fill="#008be7" opacity="1" data-original="#000000"></path></g></svg>