<svg xmlns="http://www.w3.org/2000/svg" version="1.1" xmlns:xlink="http://www.w3.org/1999/xlink" width="512" height="512" x="0" y="0" viewBox="0 0 64 64" style="enable-background:new 0 0 512 512" xml:space="preserve" class=""><g><path d="M56.986 40.615a29 29 0 1 0-16.371 16.371 11.99 11.99 0 1 0 16.371-16.371ZM51 39a11.914 11.914 0 0 0-6.116 1.694A50.807 50.807 0 0 0 45.983 31h10.992a26.745 26.745 0 0 1-1.8 8.764A11.9 11.9 0 0 0 51 39ZM39.023 50.538c-2.286 3.739-5.1 5.958-8.023 6.374V42.017A48.017 48.017 0 0 1 41.719 43.4a11.943 11.943 0 0 0-2.696 7.138ZM45.987 29a50.207 50.207 0 0 0-1.407-11.13 31.336 31.336 0 0 0 7.468-3.425A26.839 26.839 0 0 1 56.975 29ZM32 28h2a1 1 0 0 0 1-1v-.826L39.463 30 35 33.826V33a1 1 0 0 0-1-1h-1.4a17.759 17.759 0 0 0-12.186 4.858A12.023 12.023 0 0 1 32 28Zm-1 6.088A15.8 15.8 0 0 1 32.6 34h.4v2a1 1 0 0 0 1.651.759L41.369 31h2.6A47.865 47.865 0 0 1 42.6 41.573 49.647 49.647 0 0 0 31 40.017ZM43.987 29h-2.618l-6.718-5.759A1 1 0 0 0 33 24v2h-1c-.338 0-.668.027-1 .051v-6.067a49.359 49.359 0 0 0 11.647-1.555A48.2 48.2 0 0 1 43.987 29ZM31 17.984V3.076c4.746.65 8.844 5.879 11.111 13.406A47.539 47.539 0 0 1 31 17.984ZM29 3.076v14.908a47.592 47.592 0 0 1-11.111-1.5C20.157 8.954 24.254 3.726 29 3.076Zm0 16.908v6.348A13.945 13.945 0 0 0 23.368 29h-7.355a48.2 48.2 0 0 1 1.34-10.571A49.359 49.359 0 0 0 29 19.984ZM14.013 29H3.025a26.839 26.839 0 0 1 4.927-14.555 31.376 31.376 0 0 0 7.468 3.425A50.207 50.207 0 0 0 14.013 29Zm0 2a50.209 50.209 0 0 0 1.407 11.131 31.438 31.438 0 0 0-7.469 3.423A26.843 26.843 0 0 1 3.025 31Zm2 0h5.279A13.929 13.929 0 0 0 18 40a1 1 0 0 0 1.813.581A15.744 15.744 0 0 1 29 34.424v5.592a49.365 49.365 0 0 0-11.646 1.555A48.141 48.141 0 0 1 16.013 31ZM29 42.016v14.908c-4.746-.65-8.843-5.878-11.111-13.406A47.561 47.561 0 0 1 29 42.016Zm21.833-29.173a29.618 29.618 0 0 1-6.784 3.074c-1.555-5.175-3.949-9.343-6.885-11.945a27.072 27.072 0 0 1 13.669 8.871Zm-28-8.871c-2.931 2.6-5.33 6.77-6.885 11.945a29.715 29.715 0 0 1-6.783-3.074 27.059 27.059 0 0 1 13.671-8.871ZM9.166 47.156a29.686 29.686 0 0 1 6.785-3.072c1.555 5.174 3.954 9.342 6.885 11.944a27.07 27.07 0 0 1-13.67-8.872Zm27.909 8.9a17.512 17.512 0 0 0 2.231-2.4 11.882 11.882 0 0 0 .458 1.518 26.922 26.922 0 0 1-2.689.886ZM51 61a10 10 0 1 1 10-10 10.011 10.011 0 0 1-10 10Z" fill="#0eb053" opacity="1" data-original="#000000"></path><path d="M52 44v-2h-2v2a4 4 0 0 0 0 8v4a2 2 0 0 1-2-2h-2a4 4 0 0 0 4 4v2h2v-2a4 4 0 0 0 0-8v-4a2 2 0 0 1 2 2v1h2v-1a4 4 0 0 0-4-4Zm2 10a2 2 0 0 1-2 2v-4a2 2 0 0 1 2 2Zm-4-4a2 2 0 0 1 0-4Z" fill="#0eb053" opacity="1" data-original="#000000"></path></g></svg>