<svg width="355" height="74" viewBox="0 0 355 74" fill="none" xmlns="http://www.w3.org/2000/svg">
<g clip-path="url(#clip0_99_8)">
<path fill-rule="evenodd" clip-rule="evenodd" d="M77.4673 0.050293C120.01 0.050293 154.5 16.409 154.5 36.5876C154.5 56.7662 120.01 73.125 77.4673 73.125C34.9248 73.125 0.435059 56.7662 0.435059 36.5876C0.435059 16.409 34.9248 0.050293 77.4673 0.050293Z" fill="#253183"/>
<path fill-rule="evenodd" clip-rule="evenodd" d="M77.4678 1.20508C118.669 1.20508 152.067 17.0487 152.067 36.5923C152.067 56.1358 118.669 71.9794 77.4678 71.9794C36.2665 71.9794 2.86914 56.1358 2.86914 36.5923C2.86914 17.0442 36.2709 1.20508 77.4678 1.20508Z" fill="white"/>
<path fill-rule="evenodd" clip-rule="evenodd" d="M77.4679 3.31934C117.603 3.31934 150.139 18.4567 150.139 37.1253C150.139 55.7983 117.603 70.9312 77.4679 70.9312C37.3325 70.9312 4.79688 55.7938 4.79688 37.1253C4.80131 18.4567 37.3369 3.31934 77.4679 3.31934Z" fill="black"/>
<path fill-rule="evenodd" clip-rule="evenodd" d="M77.4679 3.36377C117.603 3.36377 150.139 18.2391 150.139 36.5878C150.139 54.9366 117.603 69.8119 77.4679 69.8119C37.3325 69.8119 4.79688 54.9366 4.79688 36.5878C4.80131 18.2391 37.3369 3.36377 77.4679 3.36377Z" fill="#253183"/>
<path d="M43.4129 12.4071C55.3921 8.44513 67.8466 7.92545 80.5276 9.06696C88.4293 9.77763 96.0468 11.4255 103.464 13.7085C103.869 13.8329 104.259 13.9972 104.637 14.2104C85.751 10.0797 67.1403 10.1241 48.9561 16.5068C44.3234 18.1324 40.0505 20.2689 35.9731 23.5113H56.6313C54.5793 25.9143 52.8515 28.0285 50.9726 30.0583C50.6439 30.4181 49.7156 30.5514 49.0627 30.5558C43.7238 30.5958 38.3849 30.578 33.046 30.578C28.8708 30.578 28.8664 30.578 28.0402 34.1847C28.8753 34.2602 29.697 34.389 30.5187 34.3934C35.6577 34.4112 40.8012 34.3757 45.9402 34.4201C47.4459 34.4334 48.9783 34.5222 50.4441 34.7798C54.8191 35.5438 56.8223 37.3205 57.4353 40.7939C58.066 44.3428 56.3959 47.8517 52.927 49.1753C50.7239 50.0148 48.1788 50.65 45.767 50.6944C36.2174 50.8676 26.6544 50.7699 17.1004 50.7699C16.9227 50.7699 16.7406 50.7077 16.292 50.6189C18.1886 48.4114 19.9564 46.2572 21.8574 44.1829C22.6081 43.3656 25.5795 43.6366 26.4412 44.4849C27.3562 45.3866 28.2579 46.2927 29.3905 47.1588C17.0382 32.0571 24.0338 18.8165 43.4129 12.4071ZM27.4451 39.83C27.7338 41.016 27.8892 42.0065 28.2579 42.9481C28.3911 43.2857 29.0396 43.7209 29.4571 43.7254C35.0359 43.7698 40.6191 43.7787 46.1978 43.7121C47.628 43.6943 48.5031 42.9437 48.4942 41.74C48.4853 40.5185 47.5659 39.8522 46.1268 39.8434C40.0239 39.8078 33.9299 39.83 27.4451 39.83Z" fill="white"/>
<path d="M96.2554 33.2698V50.0904C96.0822 50.1748 95.9756 50.2725 95.8646 50.2725C88.6202 50.2459 81.3447 50.5257 74.1403 50.0815C67.3579 49.664 62.2588 46.6703 59.7715 41.3803C57.4307 36.4011 58.3368 31.7196 62.7252 27.6555C66.0431 24.5818 70.507 23.2493 75.3929 23.1383C82.4951 22.9739 89.6062 23.0983 97.2015 23.0983C94.5987 26.1497 92.5466 30.507 87.261 30.1473C83.9253 29.9207 80.5452 30.0718 77.1829 30.1028C73.9848 30.1295 71.2132 30.969 69.3122 33.1543C65.9587 37.0008 68.6504 42.4063 74.5978 43.0814C78.582 43.5345 82.7039 43.1658 86.8391 43.1658C86.879 43.0903 87.0034 42.9482 87.0167 42.8061C87.3188 39.3593 87.3143 39.3593 83.0326 39.3593H72.7501C74.7222 37.2362 76.3922 35.4151 78.1112 33.6251C78.311 33.4163 78.7996 33.2964 79.155 33.292C84.8092 33.2653 90.4635 33.2698 96.2554 33.2698Z" fill="white"/>
<path d="M123.483 25.4389C124.94 27.6687 126.65 29.8096 127.809 32.137C132.118 40.8116 129.217 49.4906 120.227 55.3714C112.712 60.2839 103.895 62.6336 94.488 63.6063C79.1554 65.192 64.2846 63.5263 49.8847 59.0225C49.4805 58.8981 49.0985 58.7249 48.5078 58.4984C72.5595 63.2998 95.3453 62.6869 115.923 50.5433L115.888 49.9703C114.506 49.7705 113.107 49.6328 111.753 49.3574C100.964 47.1676 95.3719 37.8801 100.24 30.0761C103.376 25.0481 108.91 22.8672 115.559 22.6762C122.923 22.463 130.306 22.6274 138.074 22.6274C135.422 25.9231 133.97 29.9517 128.285 29.5875C127.818 29.5564 127.316 29.1211 126.965 28.7835C125.802 27.6642 124.7 26.5005 123.576 25.359L123.483 25.4389ZM122.026 42.8947C122.635 42.8103 123.474 42.5039 123.696 42.1086C125.748 38.4175 126.388 34.5799 125.087 30.6179C124.962 30.2493 124.394 29.6941 124.038 29.6985C120.698 29.7296 117.287 29.5564 114.04 30.0494C110.043 30.6535 107.817 33.4828 107.999 36.7785C108.168 39.8167 110.731 42.113 114.76 42.7126C116.301 42.9392 120.485 43.1035 122.026 42.8947Z" fill="white"/>
<path d="M125.677 29.6053C129.986 38.2799 127.085 46.9589 118.095 52.8397C110.58 57.7522 101.763 60.1018 92.3558 61.0746C77.0231 62.6602 62.1524 60.9946 47.7524 56.4907C47.3482 56.3619 46.9663 56.1931 46.3755 55.9666C67.9399 60.2706 87.1102 60.657 107.338 52.4755C133.664 40.936 118.651 15.2986 125.677 29.6053Z" fill="#253183"/>
<path fill-rule="evenodd" clip-rule="evenodd" d="M22.688 56.0599C44.1191 54.261 51.6966 56.7794 70.0896 58.3606C87.2389 59.8353 102.789 57.7388 113.463 51.5249C88.1273 58.4584 75.3352 54.5985 51.2036 53.004C43.3107 52.0179 28.8752 52.4577 22.688 56.0599Z" fill="#808285"/>
<path fill-rule="evenodd" clip-rule="evenodd" d="M77.4673 0.050293C120.01 0.050293 154.5 16.409 154.5 36.5876C154.5 56.7662 120.01 73.125 77.4673 73.125C34.9248 73.125 0.435059 56.7662 0.435059 36.5876C0.435059 16.409 34.9248 0.050293 77.4673 0.050293Z" fill="#253183"/>
<path fill-rule="evenodd" clip-rule="evenodd" d="M77.4678 1.20508C118.669 1.20508 152.067 17.0487 152.067 36.5923C152.067 56.1358 118.669 71.9794 77.4678 71.9794C36.2665 71.9794 2.86914 56.1358 2.86914 36.5923C2.86914 17.0442 36.2709 1.20508 77.4678 1.20508Z" fill="white"/>
<path fill-rule="evenodd" clip-rule="evenodd" d="M77.4679 3.31934C117.603 3.31934 150.139 18.4567 150.139 37.1253C150.139 55.7983 117.603 70.9312 77.4679 70.9312C37.3325 70.9312 4.79688 55.7938 4.79688 37.1253C4.80131 18.4567 37.3369 3.31934 77.4679 3.31934Z" fill="black"/>
<path fill-rule="evenodd" clip-rule="evenodd" d="M77.4679 3.36377C117.603 3.36377 150.139 18.2391 150.139 36.5878C150.139 54.9366 117.603 69.8119 77.4679 69.8119C37.3325 69.8119 4.79688 54.9366 4.79688 36.5878C4.80131 18.2391 37.3369 3.36377 77.4679 3.36377Z" fill="#253183"/>
<path d="M43.4129 12.4071C55.3921 8.44513 67.8466 7.92545 80.5276 9.06696C88.4293 9.77763 96.0468 11.4255 103.464 13.7085C103.869 13.8329 104.259 13.9972 104.637 14.2104C85.751 10.0797 67.1403 10.1241 48.9561 16.5068C44.3234 18.1324 40.0505 20.2689 35.9731 23.5113H56.6313C54.5793 25.9143 52.8515 28.0285 50.9726 30.0583C50.6439 30.4181 49.7156 30.5514 49.0627 30.5558C43.7238 30.5958 38.3849 30.578 33.046 30.578C28.8708 30.578 28.8664 30.578 28.0402 34.1847C28.8753 34.2602 29.697 34.389 30.5187 34.3934C35.6577 34.4112 40.8012 34.3757 45.9402 34.4201C47.4459 34.4334 48.9783 34.5222 50.4441 34.7798C54.8191 35.5438 56.8223 37.3205 57.4353 40.7939C58.066 44.3428 56.3959 47.8517 52.927 49.1753C50.7239 50.0148 48.1788 50.65 45.767 50.6944C36.2174 50.8676 26.6544 50.7699 17.1004 50.7699C16.9227 50.7699 16.7406 50.7077 16.292 50.6189C18.1886 48.4114 19.9564 46.2572 21.8574 44.1829C22.6081 43.3656 25.5795 43.6366 26.4412 44.4849C27.3562 45.3866 28.2579 46.2927 29.3905 47.1588C17.0382 32.0571 24.0338 18.8165 43.4129 12.4071ZM27.4451 39.83C27.7338 41.016 27.8892 42.0065 28.2579 42.9481C28.3911 43.2857 29.0396 43.7209 29.4571 43.7254C35.0359 43.7698 40.6191 43.7787 46.1978 43.7121C47.628 43.6943 48.5031 42.9437 48.4942 41.74C48.4853 40.5185 47.5659 39.8522 46.1268 39.8434C40.0239 39.8078 33.9299 39.83 27.4451 39.83Z" fill="white"/>
<path d="M96.2554 33.2698V50.0904C96.0822 50.1748 95.9756 50.2725 95.8646 50.2725C88.6202 50.2459 81.3447 50.5257 74.1403 50.0815C67.3579 49.664 62.2588 46.6703 59.7715 41.3803C57.4307 36.4011 58.3368 31.7196 62.7252 27.6555C66.0431 24.5818 70.507 23.2493 75.3929 23.1383C82.4951 22.9739 89.6062 23.0983 97.2015 23.0983C94.5987 26.1497 92.5466 30.507 87.261 30.1473C83.9253 29.9207 80.5452 30.0718 77.1829 30.1028C73.9848 30.1295 71.2132 30.969 69.3122 33.1543C65.9587 37.0008 68.6504 42.4063 74.5978 43.0814C78.582 43.5345 82.7039 43.1658 86.8391 43.1658C86.879 43.0903 87.0034 42.9482 87.0167 42.8061C87.3188 39.3593 87.3143 39.3593 83.0326 39.3593H72.7501C74.7222 37.2362 76.3922 35.4151 78.1112 33.6251C78.311 33.4163 78.7996 33.2964 79.155 33.292C84.8092 33.2653 90.4635 33.2698 96.2554 33.2698Z" fill="white"/>
<path d="M123.483 25.4389C124.94 27.6687 126.65 29.8096 127.809 32.137C132.118 40.8116 129.217 49.4906 120.227 55.3714C112.712 60.2839 103.895 62.6336 94.488 63.6063C79.1554 65.192 64.2846 63.5263 49.8847 59.0225C49.4805 58.8981 49.0985 58.7249 48.5078 58.4984C72.5595 63.2998 95.3453 62.6869 115.923 50.5433L115.888 49.9703C114.506 49.7705 113.107 49.6328 111.753 49.3574C100.964 47.1676 95.3719 37.8801 100.24 30.0761C103.376 25.0481 108.91 22.8672 115.559 22.6762C122.923 22.463 130.306 22.6274 138.074 22.6274C135.422 25.9231 133.97 29.9517 128.285 29.5875C127.818 29.5564 127.316 29.1211 126.965 28.7835C125.802 27.6642 124.7 26.5005 123.576 25.359L123.483 25.4389ZM122.026 42.8947C122.635 42.8103 123.474 42.5039 123.696 42.1086C125.748 38.4175 126.388 34.5799 125.087 30.6179C124.962 30.2493 124.394 29.6941 124.038 29.6985C120.698 29.7296 117.287 29.5564 114.04 30.0494C110.043 30.6535 107.817 33.4828 107.999 36.7785C108.168 39.8167 110.731 42.113 114.76 42.7126C116.301 42.9392 120.485 43.1035 122.026 42.8947Z" fill="white"/>
<path d="M125.677 29.6053C129.986 38.2799 127.085 46.9589 118.095 52.8397C110.58 57.7522 101.763 60.1018 92.3558 61.0746C77.0231 62.6602 62.1524 60.9946 47.7524 56.4907C47.3482 56.3619 46.9663 56.1931 46.3755 55.9666C67.9399 60.2706 87.1102 60.657 107.338 52.4755C133.664 40.936 118.651 15.2986 125.677 29.6053Z" fill="#253183"/>
<path fill-rule="evenodd" clip-rule="evenodd" d="M22.688 56.0599C44.1191 54.261 51.6966 56.7794 70.0896 58.3606C87.2389 59.8353 102.789 57.7388 113.463 51.5249C88.1273 58.4584 75.3352 54.5985 51.2036 53.004C43.3107 52.0179 28.8752 52.4577 22.688 56.0599Z" fill="#A7A9AC"/>
<path fill-rule="evenodd" clip-rule="evenodd" d="M155.681 8.71996C155.659 8.72441 155.49 8.71996 155.455 8.71996C154.979 8.71552 154.162 8.88875 153.705 9.022C152.705 9.31071 151.843 9.81706 151.053 10.4833C149.854 11.496 148.974 12.9618 148.668 14.503C148.641 14.6407 148.623 14.7473 148.597 14.8895C148.574 15.0271 148.566 15.1471 148.543 15.2936C148.432 16.0754 148.574 17.4123 148.819 18.1363L148.934 18.4783C149.076 18.8958 149.298 19.3622 149.52 19.7309C149.578 19.8242 149.632 19.9219 149.694 20.0107C149.889 20.2994 149.974 20.406 150.178 20.6681L150.391 20.9079C150.44 20.9568 150.449 20.9834 150.493 21.0323C150.786 21.3388 151.008 21.5298 151.342 21.7963C152.163 22.4536 153.256 22.9689 154.304 23.1732C154.664 23.2443 155.153 23.3242 155.521 23.3198C155.686 23.3198 155.788 23.3553 155.965 23.3286L156.396 23.3064C156.982 23.262 157.373 23.1865 157.933 23.0222L158.604 22.7823C159.394 22.4403 160.207 21.9428 160.825 21.3477C162.028 20.1884 162.748 18.847 163.037 17.1503C163.059 17.0081 163.068 16.8927 163.09 16.7461C163.192 16.0354 163.085 14.9516 162.912 14.2587C162.828 13.9301 162.712 13.5436 162.579 13.2283C162.53 13.1172 162.486 13.0017 162.432 12.8996C162.153 12.3266 161.864 11.8558 161.455 11.3716C161.033 10.8742 160.953 10.8076 160.42 10.3412L159.896 9.95475C158.95 9.32847 158.084 8.99091 156.943 8.79547C156.8 8.77326 156.685 8.76438 156.538 8.74217L155.774 8.69775C155.765 8.69775 155.734 8.69775 155.726 8.7022L155.681 8.71996ZM162.228 16.1598L162.179 16.8971C162.077 17.6211 161.846 18.3851 161.486 19.0247C161.353 19.2601 161.349 19.2912 161.189 19.531L160.856 20.0018C160.793 20.0818 160.731 20.144 160.669 20.2195C160.602 20.3039 160.549 20.3527 160.483 20.4327C160.429 20.4993 160.345 20.5748 160.283 20.637L159.634 21.1789C158.901 21.7296 158.035 22.1161 157.134 22.3026C156.689 22.3959 156.494 22.4137 156.05 22.427C155.916 22.4314 155.837 22.4581 155.677 22.4359C155.566 22.4181 155.415 22.4314 155.312 22.4137C154.864 22.3559 154.775 22.3737 154.269 22.2493C154.073 22.2005 153.833 22.1294 153.651 22.0583L153.083 21.8229C152.71 21.6675 152.172 21.2988 151.843 21.0501C151.604 20.868 151.231 20.5126 151.026 20.2772C150.991 20.2328 150.982 20.215 150.937 20.1706C150.746 19.9707 150.316 19.34 150.196 19.0913C150.147 18.9936 150.107 18.9269 150.053 18.8292C149.658 18.0386 149.445 17.1458 149.418 16.2442C149.414 16.1109 149.387 16.031 149.409 15.8711C149.423 15.7689 149.436 15.3514 149.467 15.1382C149.503 14.8983 149.543 14.6851 149.596 14.4631C149.827 13.5259 150.222 12.7974 150.791 12.0379C150.853 11.9579 150.915 11.8958 150.977 11.8203L151.364 11.4027C151.581 11.1851 151.999 10.8609 152.248 10.6965C152.51 10.5233 152.732 10.39 153.012 10.2523C153.802 9.85703 154.695 9.64383 155.597 9.61718C155.73 9.61274 155.81 9.58609 155.97 9.6083C156.072 9.62162 156.489 9.63495 156.703 9.66604C157.116 9.72378 157.613 9.83482 157.995 9.98584C158.093 10.0258 158.182 10.0569 158.284 10.0969C158.901 10.3545 159.274 10.5944 159.803 10.9941C159.883 11.0563 159.945 11.1185 160.021 11.1807L160.625 11.767C160.811 11.9802 160.993 12.2156 161.149 12.451C161.313 12.6953 161.464 12.9484 161.593 13.2149C161.877 13.7879 162.175 14.7606 162.21 15.4136L162.246 16.0798C162.241 16.142 162.233 16.1242 162.228 16.1598Z" fill="#2E3192"/>
<path fill-rule="evenodd" clip-rule="evenodd" d="M155.699 18.5234H156.663V14.6725C156.667 14.6769 156.667 14.6769 156.667 14.6858C156.667 14.6902 156.672 14.6947 156.672 14.6991L157.64 18.5278H158.621C158.906 17.3019 159.265 16.0272 159.563 14.7968C159.568 14.7702 159.568 14.7657 159.576 14.7391L159.59 14.6991C159.59 14.6947 159.594 14.6902 159.594 14.6858C159.594 14.6813 159.599 14.6769 159.599 14.6725V18.5234H160.562V13.5132H159.021C159.012 13.6065 158.946 13.8463 158.919 13.9351L158.586 15.1921C158.51 15.4764 158.439 15.7473 158.364 16.0405C158.328 16.1782 158.293 16.3292 158.253 16.4536L158.146 16.8889C158.088 16.8444 158.124 16.8667 158.075 16.6979C158.057 16.6268 158.04 16.5691 158.017 16.4936L157.68 15.2188C157.644 15.0944 157.24 13.6153 157.231 13.5132H155.69V18.5234H155.699Z" fill="#2E3192"/>
<path fill-rule="evenodd" clip-rule="evenodd" d="M151.097 14.3527L152.576 14.3571L152.585 18.5234H153.58V14.3615L155.068 14.3571V13.5132H151.097V14.3527Z" fill="#2E3192"/>
<path fill-rule="evenodd" clip-rule="evenodd" d="M153.58 18.5234C153.624 18.4567 153.598 16.5202 153.598 16.458C153.598 15.7651 153.598 15.0677 153.598 14.3748C153.989 14.3748 154.38 14.3748 154.77 14.3748C155.175 14.3748 155.077 14.5214 155.086 13.6553C155.086 13.602 155.09 13.5531 155.068 13.5176V14.3571L153.58 14.3615V18.5234Z" fill="#2E3192"/>
<path fill-rule="evenodd" clip-rule="evenodd" d="M151.097 14.3527C151.159 14.3926 152.505 14.3704 152.567 14.3704V18.399C152.567 18.4346 152.567 18.4879 152.59 18.519L152.585 14.3527H151.097V13.5132C151.062 13.5665 151.075 14.2905 151.088 14.3305C151.088 14.3349 151.093 14.3393 151.093 14.3438C151.088 14.3438 151.093 14.3527 151.097 14.3527Z" fill="#2E3192"/>
<path d="M340.691 33.6719H332.268V15.7002H323.506L325.412 10.2669H347.594L349.456 15.7002H340.694V33.6719H340.691ZM314.976 23.6335C316.365 25.5872 317.811 27.3775 319.308 28.9986C320.81 30.6257 322.384 32.0894 324.035 33.3958L317.345 37.119C314.988 35.1446 312.817 32.9593 310.819 30.5693C308.815 28.1792 306.945 25.5159 305.19 22.5825C307.702 21.3711 309.543 20.3141 310.721 19.4026C311.891 18.4911 312.479 17.6865 312.479 16.9769C312.479 16.5256 312.268 16.1753 311.853 15.9229C311.431 15.6705 310.822 15.5429 310.038 15.5429H295.125L297.043 10.2669H311.731C314.869 10.2669 317.313 10.7894 319.052 11.8316C320.795 12.8737 321.662 14.3315 321.662 16.202C321.662 17.6598 321.104 19.0018 319.997 20.2251C318.892 21.4483 317.221 22.5825 314.976 23.6335ZM296.606 14.7204H305.03V33.6749H296.606V14.7204ZM284.894 10.2669H289.932L291.844 15.5429H285.452C282.397 15.5429 279.962 15.9645 278.163 16.8107C276.369 17.6568 275.015 19.0107 274.107 20.8812H282.109V15.2252H290.573V33.6719H282.109V26.279H273.261C273.347 27.5527 273.656 28.8056 274.193 30.0378C274.73 31.264 275.491 32.4754 276.479 33.6689L269.79 36.9527C268.109 35.0317 266.857 33.0989 266.016 31.1631C265.176 29.2243 264.754 27.2736 264.754 25.2992C264.754 23.0665 265.256 20.9733 266.251 19.0078C267.251 17.0452 268.656 15.3796 270.476 14.0287C272.168 12.7609 274.208 11.8167 276.577 11.1962C278.952 10.5786 281.726 10.2669 284.894 10.2669ZM254.948 10.2669H259.986L261.898 15.5429H255.506C252.451 15.5429 250.016 15.9645 248.217 16.8107C246.423 17.6568 245.07 19.0107 244.161 20.8812H252.163V15.2252H260.624V33.6719H252.16V26.279H243.312C243.398 27.5527 243.707 28.8056 244.244 30.0378C244.782 31.264 245.542 32.4754 246.53 33.6689L239.841 36.9587C238.161 35.0377 236.908 33.1048 236.067 31.169C235.227 29.2302 234.806 27.2795 234.806 25.3051C234.806 23.0724 235.307 20.9792 236.302 19.0137C237.303 17.0512 238.707 15.3855 240.527 14.0346C242.219 12.7668 244.259 11.8227 246.628 11.2021C249.007 10.5786 251.78 10.2669 254.948 10.2669ZM201.612 10.2669H209.444L216.216 18.0992L222.941 10.2669H230.821V33.6719H222.481L222.814 19.658L216.216 26.469L209.598 19.658L209.952 33.6719H201.612V10.2669ZM197.075 15.6052H188.815C188.251 15.6052 187.847 15.6676 187.595 15.7893C187.342 15.917 187.215 16.1159 187.215 16.3891C187.215 16.5464 187.271 16.7038 187.39 16.8671C187.503 17.0363 187.702 17.2293 187.969 17.4579L194.839 23.1793C195.884 24.0641 196.659 24.9221 197.167 25.7535C197.669 26.5907 197.921 27.4369 197.921 28.3009C197.921 29.153 197.681 29.9487 197.194 30.685C196.713 31.4214 196.036 32.0211 195.169 32.4962C194.4 32.9178 193.441 33.2236 192.298 33.4017C191.155 33.5799 189.406 33.6689 187.048 33.6689H179.804L177.729 28.2682H186.879C187.36 28.2682 187.725 28.194 187.972 28.0515C188.227 27.909 188.352 27.6922 188.352 27.4042C188.352 27.2885 188.295 27.1519 188.177 26.9767C188.064 26.8075 187.909 26.6353 187.719 26.4601L180.214 20.2102C179.445 19.5511 178.851 18.8356 178.435 18.0577C178.019 17.2738 177.815 16.49 177.815 15.7002C177.815 15.0619 177.942 14.4592 178.189 13.8832C178.435 13.3042 178.803 12.7787 179.281 12.2947C180.03 11.5673 181.003 11.0477 182.203 10.73C183.402 10.4183 185.172 10.2609 187.515 10.2609H195.169L197.075 15.6052Z" fill="#253183"/>
<path d="M349.212 48.8554H345.729C345.492 48.8554 345.323 48.8999 345.216 48.983C345.109 49.0721 345.055 49.2117 345.055 49.4017C345.055 49.5115 345.079 49.6214 345.13 49.7342C345.177 49.853 345.26 49.9866 345.373 50.1439L348.268 54.1314C348.707 54.7489 349.034 55.3457 349.248 55.9247C349.458 56.5066 349.565 57.0975 349.565 57.7002C349.565 58.294 349.464 58.8492 349.26 59.3629C349.058 59.8765 348.773 60.2951 348.407 60.6247C348.084 60.9186 347.68 61.1324 347.196 61.2571C346.715 61.3818 345.976 61.4442 344.984 61.4442H341.932L341.059 57.6794H344.916C345.118 57.6794 345.272 57.6289 345.376 57.528C345.483 57.43 345.536 57.2786 345.536 57.0767C345.536 56.9965 345.513 56.9015 345.462 56.7798C345.415 56.661 345.349 56.5423 345.269 56.4205L342.104 52.0649C341.781 51.6077 341.531 51.1059 341.356 50.5655C341.181 50.0192 341.095 49.4729 341.095 48.9207C341.095 48.4753 341.148 48.0537 341.252 47.6559C341.356 47.2521 341.51 46.8839 341.712 46.5484C342.027 46.0407 342.437 45.6785 342.944 45.4588C343.449 45.242 344.197 45.1322 345.183 45.1322H348.407L349.212 48.8554ZM339.465 48.8554H335.982C335.744 48.8554 335.575 48.8999 335.468 48.983C335.361 49.0721 335.308 49.2117 335.308 49.4017C335.308 49.5115 335.332 49.6214 335.382 49.7342C335.43 49.853 335.513 49.9866 335.626 50.1439L338.52 54.1314C338.96 54.7489 339.287 55.3457 339.5 55.9247C339.711 56.5066 339.818 57.0975 339.818 57.7002C339.818 58.294 339.717 58.8492 339.512 59.3629C339.31 59.8765 339.025 60.2951 338.66 60.6247C338.336 60.9186 337.933 61.1324 337.449 61.2571C336.968 61.3818 336.228 61.4442 335.237 61.4442H332.185L331.312 57.6794H335.168C335.37 57.6794 335.525 57.6289 335.629 57.528C335.736 57.43 335.789 57.2786 335.789 57.0767C335.789 56.9965 335.765 56.9015 335.715 56.7798C335.667 56.661 335.602 56.5423 335.522 56.4205L332.357 52.0649C332.033 51.6077 331.784 51.1059 331.609 50.5655C331.433 50.0192 331.347 49.4729 331.347 48.9207C331.347 48.4753 331.401 48.0537 331.505 47.6559C331.609 47.2521 331.763 46.8839 331.965 46.5484C332.28 46.0407 332.689 45.6785 333.197 45.4588C333.702 45.242 334.45 45.1322 335.436 45.1322H338.663L339.465 48.8554ZM327.286 61.4471C325.881 61.4471 324.679 61.2452 323.675 60.8444C322.678 60.4436 321.82 59.8231 321.113 58.9828C320.273 57.9733 319.628 56.8362 319.189 55.5654C318.747 54.2947 318.527 52.9527 318.527 51.5364C318.527 50.4468 318.669 49.4789 318.954 48.6268C319.236 47.7806 319.655 47.068 320.207 46.495C320.676 46.014 321.235 45.6666 321.882 45.4528C322.523 45.2361 323.375 45.1292 324.432 45.1292H328.631L329.465 48.8494H324.875C323.865 48.8494 323.141 49.081 322.707 49.5472C322.277 50.0133 322.06 50.7853 322.06 51.8601C322.06 53.4515 322.437 54.7757 323.191 55.8297C323.942 56.8837 324.946 57.4924 326.199 57.6557V53.8909H324.789V50.2805H329.622V61.4412H327.286V61.4471ZM309.73 51.2187V61.4471H306.179V45.1352H309.569L313.334 51.0584V45.1352H316.832V61.4471H313.334V56.8688L309.73 51.2187ZM300.154 45.1352H303.794V61.4471H300.154V45.1352ZM295.267 61.4471H291.716V48.9207H288.023L288.824 45.1352H298.171L298.955 48.9207H295.261V61.4471H295.267ZM284.433 45.1352H286.556L287.361 48.8108H284.668C283.379 48.8108 282.355 49.1048 281.598 49.6956C280.844 50.2865 280.271 51.2306 279.888 52.5311H283.26V48.5882H286.829V61.4501H283.26V56.2988H279.531C279.567 57.1865 279.698 58.0594 279.923 58.9175C280.149 59.7726 280.47 60.6158 280.885 61.4501L278.068 63.7392C277.361 62.4002 276.83 61.0522 276.476 59.7043C276.123 58.3534 275.945 56.9935 275.945 55.6159C275.945 54.0601 276.156 52.5994 276.574 51.2306C276.996 49.8619 277.587 48.704 278.356 47.7598C279.068 46.875 279.929 46.2189 280.927 45.7854C281.93 45.3519 283.1 45.1352 284.433 45.1352ZM268.973 44.9362C271.034 44.9362 272.548 45.4499 273.513 46.4742C274.478 47.4985 274.965 49.1077 274.965 51.2989C274.965 52.8191 274.772 54.3006 274.383 55.7465C273.994 57.1895 273.457 58.4365 272.771 59.4935C272.248 60.2922 271.672 60.8919 271.046 61.2809C270.419 61.6728 269.728 61.8687 268.973 61.8687C268.21 61.8687 267.51 61.6698 266.88 61.2779C266.251 60.883 265.675 60.2862 265.152 59.4935C264.463 58.4365 263.923 57.1925 263.537 55.7495C263.151 54.3125 262.958 52.825 262.958 51.2989C262.958 49.1167 263.442 47.5074 264.416 46.4772C265.387 45.4499 266.907 44.9362 268.973 44.9362ZM266.545 51.5602C266.545 52.3262 266.607 53.0892 266.735 53.8523C266.862 54.6153 267.049 55.3457 267.293 56.0494C267.519 56.6996 267.777 57.2014 268.068 57.5547C268.356 57.9021 268.659 58.0802 268.97 58.0802C269.175 58.0802 269.377 58.0001 269.579 57.8368C269.784 57.6764 269.959 57.4538 270.111 57.1776C270.511 56.4116 270.82 55.5476 271.043 54.5946C271.263 53.6355 271.372 52.6647 271.372 51.6789C271.372 50.5745 271.194 49.8025 270.838 49.3631C270.482 48.9237 269.858 48.704 268.967 48.704C268.083 48.704 267.453 48.9207 267.088 49.3542C266.729 49.7847 266.545 50.521 266.545 51.5602ZM260.927 61.4471C259.799 61.4471 258.813 61.266 257.967 60.9127C257.121 60.5534 256.352 59.9923 255.669 59.2263C254.811 58.2791 254.143 57.139 253.674 55.803C253.205 54.4669 252.97 53.0536 252.97 51.5602C252.97 50.4676 253.113 49.4908 253.395 48.6386C253.68 47.7835 254.098 47.071 254.651 46.5009C255.12 46.0199 255.678 45.6725 256.322 45.4588C256.967 45.242 257.819 45.1352 258.873 45.1352H260.93L261.782 48.8554H259.318C258.309 48.8554 257.584 49.087 257.151 49.5501C256.72 50.0133 256.503 50.7793 256.503 51.8482C256.503 53.6741 256.969 55.1201 257.902 56.183C258.834 57.2429 260.111 57.7744 261.732 57.7744H261.999L261.105 61.4501H260.927V61.4471ZM238.27 45.1352H241.821V57.4627H246.406L245.5 61.4471H238.273V45.1352H238.27ZM233.484 45.1352H235.607L236.412 48.8108H233.719C232.43 48.8108 231.406 49.1048 230.649 49.6956C229.895 50.2865 229.322 51.2306 228.939 52.5311H232.312V48.4605H235.88V61.4471H232.312V56.2958H228.582C228.618 57.1836 228.749 58.0565 228.974 58.9145C229.2 59.7696 229.521 60.6128 229.936 61.4471L227.119 63.7363C226.412 62.3972 225.881 61.0493 225.527 59.7013C225.174 58.3504 224.996 56.9906 224.996 55.6129C224.996 54.0572 225.207 52.5964 225.625 51.2277C226.047 49.8589 226.638 48.701 227.407 47.7568C228.119 46.872 228.98 46.2159 229.978 45.7824C230.981 45.3519 232.148 45.1352 233.484 45.1352ZM213.167 48.4605H216.629V57.7269H219.099C219.426 57.7269 219.669 57.6497 219.83 57.4983C219.99 57.3469 220.07 57.1242 220.07 56.8243C220.07 56.2068 219.794 55.5654 219.242 54.9004C218.692 54.2323 217.846 53.5198 216.715 52.7686C217.713 51.9758 218.431 51.3316 218.865 50.8298C219.301 50.334 219.518 49.9153 219.518 49.5828C219.518 49.3156 219.438 49.1196 219.28 48.9949C219.12 48.8702 218.865 48.8079 218.517 48.8079H212.544L213.348 45.1322H219.179C220.575 45.1322 221.623 45.438 222.333 46.0466C223.036 46.6553 223.392 47.5609 223.392 48.7604C223.392 49.4789 223.256 50.1439 222.983 50.7615C222.713 51.3791 222.282 51.9848 221.694 52.5786C222.439 53.2199 223.012 53.9503 223.407 54.7579C223.802 55.5684 223.998 56.4116 223.998 57.2845C223.998 58.0446 223.873 58.7126 223.624 59.2886C223.375 59.8676 223.007 60.3337 222.517 60.693C222.151 60.9632 221.676 61.1591 221.088 61.272C220.501 61.3848 219.559 61.4442 218.265 61.4442H213.17V48.4605H213.167ZM205.391 44.9362C207.452 44.9362 208.966 45.4499 209.931 46.4742C210.896 47.4985 211.383 49.1077 211.383 51.2989C211.383 52.8191 211.19 54.3006 210.801 55.7465C210.412 57.1895 209.874 58.4365 209.189 59.4935C208.666 60.2922 208.09 60.8919 207.463 61.2809C206.837 61.6728 206.145 61.8687 205.391 61.8687C204.628 61.8687 203.927 61.6698 203.298 61.2779C202.669 60.883 202.092 60.2862 201.57 59.4935C200.881 58.4365 200.341 57.1925 199.955 55.7495C199.569 54.3125 199.376 52.825 199.376 51.2989C199.376 49.1167 199.86 47.5074 200.834 46.4772C201.807 45.4499 203.325 44.9362 205.391 44.9362ZM202.962 51.5602C202.962 52.3262 203.025 53.0892 203.152 53.8523C203.28 54.6153 203.467 55.3457 203.711 56.0494C203.936 56.6996 204.195 57.2014 204.486 57.5547C204.774 57.9021 205.076 58.0802 205.388 58.0802C205.593 58.0802 205.795 58.0001 205.997 57.8368C206.202 57.6764 206.377 57.4538 206.528 57.1776C206.929 56.4116 207.238 55.5476 207.461 54.5946C207.68 53.6355 207.79 52.6647 207.79 51.6789C207.79 50.5745 207.612 49.8025 207.256 49.3631C206.899 48.9237 206.273 48.704 205.385 48.704C204.5 48.704 203.871 48.9207 203.506 49.3542C203.147 49.7847 202.962 50.521 202.962 51.5602ZM191.597 45.1352H195.148V57.4627H199.732L198.827 61.4471H191.6V45.1352H191.597ZM186.944 61.4471C185.54 61.4471 184.338 61.2452 183.334 60.8444C182.336 60.4436 181.478 59.8231 180.772 58.9828C179.931 57.9733 179.287 56.8362 178.848 55.5654C178.405 54.2947 178.186 52.9527 178.186 51.5364C178.186 50.4468 178.328 49.4789 178.613 48.6268C178.895 47.7806 179.314 47.068 179.866 46.495C180.335 46.014 180.893 45.6666 181.541 45.4528C182.182 45.2361 183.034 45.1292 184.091 45.1292H188.289L189.124 48.8494H184.534C183.524 48.8494 182.8 49.081 182.366 49.5472C181.936 50.0133 181.719 50.7853 181.719 51.8601C181.719 53.4515 182.096 54.7757 182.85 55.8297C183.601 56.8837 184.605 57.4924 185.858 57.6557V53.8909H184.447V50.2805H189.281V61.4412H186.944V61.4471Z" fill="#939598"/>
<path d="M340.691 33.6719H332.268V15.7002H323.506L325.412 10.2669H347.594L349.456 15.7002H340.694V33.6719H340.691ZM314.976 23.6335C316.365 25.5872 317.811 27.3775 319.308 28.9986C320.81 30.6257 322.384 32.0894 324.035 33.3958L317.345 37.119C314.988 35.1446 312.817 32.9593 310.819 30.5693C308.815 28.1792 306.945 25.5159 305.19 22.5825C307.702 21.3711 309.543 20.3141 310.721 19.4026C311.891 18.4911 312.479 17.6865 312.479 16.9769C312.479 16.5256 312.268 16.1753 311.853 15.9229C311.428 15.6705 310.822 15.5429 310.038 15.5429H295.125L297.043 10.2669H311.731C314.869 10.2669 317.313 10.7894 319.052 11.8316C320.795 12.8737 321.662 14.3315 321.662 16.202C321.662 17.6598 321.104 19.0018 319.997 20.2251C318.892 21.4483 317.221 22.5825 314.976 23.6335ZM296.603 14.7204H305.027V33.6749H296.603V14.7204ZM284.894 10.2669H289.932L291.844 15.5429H285.452C282.397 15.5429 279.962 15.9645 278.163 16.8107C276.369 17.6568 275.015 19.0107 274.107 20.8812H282.106V15.2252H290.57V33.6719H282.106V26.2819H273.258C273.344 27.5557 273.653 28.8086 274.19 30.0408C274.727 31.267 275.488 32.4784 276.476 33.6719L269.787 36.9557C268.106 35.0347 266.854 33.1019 266.013 31.166C265.173 29.2272 264.751 27.2766 264.751 25.3022C264.751 23.0694 265.253 20.9762 266.248 19.0107C267.248 17.0482 268.653 15.3826 270.473 14.0316C272.165 12.7638 274.205 11.8197 276.574 11.1992C278.952 10.5786 281.726 10.2669 284.894 10.2669ZM254.945 10.2669H259.983L261.895 15.5429H255.503C252.448 15.5429 250.013 15.9645 248.214 16.8107C246.42 17.6568 245.067 19.0107 244.158 20.8812H252.16V15.2252H260.624V33.6719H252.16V26.2819H243.312C243.395 27.5557 243.707 28.8086 244.244 30.0408C244.782 31.267 245.542 32.4784 246.53 33.6719L239.841 36.9587C238.164 35.0377 236.908 33.1048 236.067 31.169C235.227 29.2302 234.806 27.2795 234.806 25.3051C234.806 23.0724 235.307 20.9792 236.302 19.0137C237.303 17.0512 238.707 15.3855 240.527 14.0346C242.219 12.7668 244.259 11.8227 246.628 11.2021C249.007 10.5786 251.78 10.2669 254.945 10.2669ZM201.612 10.2669H209.444L216.216 18.0992L222.941 10.2669H230.821V33.6719H222.481L222.814 19.658L216.216 26.469L209.598 19.658L209.952 33.6719H201.612V10.2669ZM197.075 15.6052H188.815C188.251 15.6052 187.847 15.6676 187.595 15.7893C187.342 15.917 187.215 16.1159 187.215 16.3891C187.215 16.5464 187.271 16.7038 187.39 16.8671C187.503 17.0363 187.702 17.2293 187.969 17.4579L194.839 23.1793C195.884 24.0641 196.659 24.9221 197.167 25.7535C197.669 26.5907 197.921 27.4369 197.921 28.3009C197.921 29.153 197.681 29.9487 197.194 30.685C196.713 31.4214 196.036 32.0211 195.169 32.4962C194.4 32.9178 193.441 33.2236 192.298 33.4017C191.155 33.5799 189.406 33.6689 187.048 33.6689H179.804L177.729 28.2682H186.879C187.36 28.2682 187.725 28.194 187.972 28.0515C188.227 27.909 188.352 27.6922 188.352 27.4042C188.352 27.2885 188.295 27.1519 188.177 26.9767C188.064 26.8075 187.909 26.6353 187.719 26.4601L180.214 20.2102C179.445 19.5511 178.851 18.8356 178.435 18.0577C178.019 17.2738 177.815 16.49 177.815 15.7002C177.815 15.0619 177.942 14.4592 178.189 13.8832C178.435 13.3042 178.803 12.7787 179.281 12.2947C180.03 11.5673 181.003 11.0477 182.203 10.73C183.402 10.4183 185.172 10.2609 187.515 10.2609H195.169L197.075 15.6052Z" stroke="white" stroke-width="9.4255" stroke-miterlimit="2.6131" stroke-linecap="round" stroke-linejoin="round"/>
<path d="M340.691 33.6719H332.268V15.7002H323.506L325.412 10.2669H347.594L349.456 15.7002H340.694V33.6719H340.691ZM314.976 23.6335C316.365 25.5872 317.811 27.3775 319.308 28.9986C320.81 30.6257 322.384 32.0894 324.035 33.3958L317.345 37.119C314.988 35.1446 312.817 32.9593 310.819 30.5693C308.815 28.1792 306.945 25.5159 305.19 22.5825C307.702 21.3711 309.543 20.3141 310.721 19.4026C311.891 18.4911 312.479 17.6865 312.479 16.9769C312.479 16.5256 312.268 16.1753 311.853 15.9229C311.431 15.6705 310.822 15.5429 310.038 15.5429H295.125L297.043 10.2669H311.731C314.869 10.2669 317.313 10.7894 319.052 11.8316C320.795 12.8737 321.662 14.3315 321.662 16.202C321.662 17.6598 321.104 19.0018 319.997 20.2251C318.892 21.4483 317.221 22.5825 314.976 23.6335ZM296.606 14.7204H305.03V33.6749H296.606V14.7204ZM284.894 10.2669H289.932L291.844 15.5429H285.452C282.397 15.5429 279.962 15.9645 278.163 16.8107C276.369 17.6568 275.015 19.0107 274.107 20.8812H282.109V15.2252H290.573V33.6719H282.109V26.279H273.261C273.347 27.5527 273.656 28.8056 274.193 30.0378C274.73 31.264 275.491 32.4754 276.479 33.6689L269.79 36.9527C268.109 35.0317 266.857 33.0989 266.016 31.1631C265.176 29.2243 264.754 27.2736 264.754 25.2992C264.754 23.0665 265.256 20.9733 266.251 19.0078C267.251 17.0452 268.656 15.3796 270.476 14.0287C272.168 12.7609 274.208 11.8167 276.577 11.1962C278.952 10.5786 281.726 10.2669 284.894 10.2669ZM254.948 10.2669H259.986L261.898 15.5429H255.506C252.451 15.5429 250.016 15.9645 248.217 16.8107C246.423 17.6568 245.07 19.0107 244.161 20.8812H252.163V15.2252H260.624V33.6719H252.16V26.279H243.312C243.398 27.5527 243.707 28.8056 244.244 30.0378C244.782 31.264 245.542 32.4754 246.53 33.6689L239.841 36.9587C238.161 35.0377 236.908 33.1048 236.067 31.169C235.227 29.2302 234.806 27.2795 234.806 25.3051C234.806 23.0724 235.307 20.9792 236.302 19.0137C237.303 17.0512 238.707 15.3855 240.527 14.0346C242.219 12.7668 244.259 11.8227 246.628 11.2021C249.007 10.5786 251.78 10.2669 254.948 10.2669ZM201.612 10.2669H209.444L216.216 18.0992L222.941 10.2669H230.821V33.6719H222.481L222.814 19.658L216.216 26.469L209.598 19.658L209.952 33.6719H201.612V10.2669ZM197.075 15.6052H188.815C188.251 15.6052 187.847 15.6676 187.595 15.7893C187.342 15.917 187.215 16.1159 187.215 16.3891C187.215 16.5464 187.271 16.7038 187.39 16.8671C187.503 17.0363 187.702 17.2293 187.969 17.4579L194.839 23.1793C195.884 24.0641 196.659 24.9221 197.167 25.7535C197.669 26.5907 197.921 27.4369 197.921 28.3009C197.921 29.153 197.681 29.9487 197.194 30.685C196.713 31.4214 196.036 32.0211 195.169 32.4962C194.4 32.9178 193.441 33.2236 192.298 33.4017C191.155 33.5799 189.406 33.6689 187.048 33.6689H179.804L177.729 28.2682H186.879C187.36 28.2682 187.725 28.194 187.972 28.0515C188.227 27.909 188.352 27.6922 188.352 27.4042C188.352 27.2885 188.295 27.1519 188.177 26.9767C188.064 26.8075 187.909 26.6353 187.719 26.4601L180.214 20.2102C179.445 19.5511 178.851 18.8356 178.435 18.0577C178.019 17.2738 177.815 16.49 177.815 15.7002C177.815 15.0619 177.942 14.4592 178.189 13.8832C178.435 13.3042 178.803 12.7787 179.281 12.2947C180.03 11.5673 181.003 11.0477 182.203 10.73C183.402 10.4183 185.172 10.2609 187.515 10.2609H195.169L197.075 15.6052Z" fill="#253183"/>
<path d="M349.212 48.8554H345.729C345.492 48.8554 345.323 48.8999 345.216 48.983C345.109 49.0721 345.055 49.2117 345.055 49.4017C345.055 49.5115 345.079 49.6214 345.13 49.7342C345.177 49.853 345.26 49.9866 345.373 50.1439L348.268 54.1314C348.707 54.7489 349.034 55.3457 349.248 55.9247C349.458 56.5066 349.565 57.0975 349.565 57.7002C349.565 58.294 349.464 58.8492 349.26 59.3629C349.058 59.8765 348.773 60.2951 348.407 60.6247C348.084 60.9186 347.68 61.1324 347.196 61.2571C346.715 61.3818 345.976 61.4442 344.984 61.4442H341.932L341.059 57.6794H344.916C345.118 57.6794 345.272 57.6289 345.376 57.528C345.483 57.43 345.536 57.2786 345.536 57.0767C345.536 56.9965 345.513 56.9015 345.462 56.7798C345.415 56.661 345.349 56.5423 345.269 56.4205L342.104 52.0649C341.781 51.6077 341.531 51.1059 341.356 50.5655C341.181 50.0192 341.095 49.4729 341.095 48.9207C341.095 48.4753 341.148 48.0537 341.252 47.6559C341.356 47.2521 341.51 46.8839 341.712 46.5484C342.027 46.0407 342.437 45.6785 342.944 45.4588C343.449 45.242 344.197 45.1322 345.183 45.1322H348.407L349.212 48.8554ZM339.465 48.8554H335.982C335.744 48.8554 335.575 48.8999 335.468 48.983C335.361 49.0721 335.308 49.2117 335.308 49.4017C335.308 49.5115 335.332 49.6214 335.382 49.7342C335.43 49.853 335.513 49.9866 335.626 50.1439L338.52 54.1314C338.96 54.7489 339.287 55.3457 339.5 55.9247C339.711 56.5066 339.818 57.0975 339.818 57.7002C339.818 58.294 339.717 58.8492 339.512 59.3629C339.31 59.8765 339.025 60.2951 338.66 60.6247C338.336 60.9186 337.933 61.1324 337.449 61.2571C336.968 61.3818 336.228 61.4442 335.237 61.4442H332.185L331.312 57.6794H335.168C335.37 57.6794 335.525 57.6289 335.629 57.528C335.736 57.43 335.789 57.2786 335.789 57.0767C335.789 56.9965 335.765 56.9015 335.715 56.7798C335.667 56.661 335.602 56.5423 335.522 56.4205L332.357 52.0649C332.033 51.6077 331.784 51.1059 331.609 50.5655C331.433 50.0192 331.347 49.4729 331.347 48.9207C331.347 48.4753 331.401 48.0537 331.505 47.6559C331.609 47.2521 331.763 46.8839 331.965 46.5484C332.28 46.0407 332.689 45.6785 333.197 45.4588C333.702 45.242 334.45 45.1322 335.436 45.1322H338.663L339.465 48.8554ZM327.286 61.4471C325.881 61.4471 324.679 61.2452 323.675 60.8444C322.678 60.4436 321.82 59.8231 321.113 58.9828C320.273 57.9733 319.628 56.8362 319.189 55.5654C318.747 54.2947 318.527 52.9527 318.527 51.5364C318.527 50.4468 318.669 49.4789 318.954 48.6268C319.236 47.7806 319.655 47.068 320.207 46.495C320.676 46.014 321.235 45.6666 321.882 45.4528C322.523 45.2361 323.375 45.1292 324.432 45.1292H328.631L329.465 48.8494H324.875C323.865 48.8494 323.141 49.081 322.707 49.5472C322.277 50.0133 322.06 50.7853 322.06 51.8601C322.06 53.4515 322.437 54.7757 323.191 55.8297C323.942 56.8837 324.946 57.4924 326.199 57.6557V53.8909H324.789V50.2805H329.622V61.4412H327.286V61.4471ZM309.73 51.2187V61.4471H306.179V45.1352H309.569L313.334 51.0584V45.1352H316.832V61.4471H313.334V56.8688L309.73 51.2187ZM300.154 45.1352H303.794V61.4471H300.154V45.1352ZM295.267 61.4471H291.716V48.9207H288.023L288.824 45.1352H298.171L298.955 48.9207H295.261V61.4471H295.267ZM284.433 45.1352H286.556L287.361 48.8108H284.668C283.379 48.8108 282.355 49.1048 281.598 49.6956C280.844 50.2865 280.271 51.2306 279.888 52.5311H283.26V48.5882H286.829V61.4501H283.26V56.2988H279.531C279.567 57.1865 279.698 58.0594 279.923 58.9175C280.149 59.7726 280.47 60.6158 280.885 61.4501L278.068 63.7392C277.361 62.4002 276.83 61.0522 276.476 59.7043C276.123 58.3534 275.945 56.9935 275.945 55.6159C275.945 54.0601 276.156 52.5994 276.574 51.2306C276.996 49.8619 277.587 48.704 278.356 47.7598C279.068 46.875 279.929 46.2189 280.927 45.7854C281.93 45.3519 283.1 45.1352 284.433 45.1352ZM268.973 44.9362C271.034 44.9362 272.548 45.4499 273.513 46.4742C274.478 47.4985 274.965 49.1077 274.965 51.2989C274.965 52.8191 274.772 54.3006 274.383 55.7465C273.994 57.1895 273.457 58.4365 272.771 59.4935C272.248 60.2922 271.672 60.8919 271.046 61.2809C270.419 61.6728 269.728 61.8687 268.973 61.8687C268.21 61.8687 267.51 61.6698 266.88 61.2779C266.251 60.883 265.675 60.2862 265.152 59.4935C264.463 58.4365 263.923 57.1925 263.537 55.7495C263.151 54.3125 262.958 52.825 262.958 51.2989C262.958 49.1167 263.442 47.5074 264.416 46.4772C265.387 45.4499 266.907 44.9362 268.973 44.9362ZM266.545 51.5602C266.545 52.3262 266.607 53.0892 266.735 53.8523C266.862 54.6153 267.049 55.3457 267.293 56.0494C267.519 56.6996 267.777 57.2014 268.068 57.5547C268.356 57.9021 268.659 58.0802 268.97 58.0802C269.175 58.0802 269.377 58.0001 269.579 57.8368C269.784 57.6764 269.959 57.4538 270.111 57.1776C270.511 56.4116 270.82 55.5476 271.043 54.5946C271.263 53.6355 271.372 52.6647 271.372 51.6789C271.372 50.5745 271.194 49.8025 270.838 49.3631C270.482 48.9237 269.858 48.704 268.967 48.704C268.083 48.704 267.453 48.9207 267.088 49.3542C266.729 49.7847 266.545 50.521 266.545 51.5602ZM260.927 61.4471C259.799 61.4471 258.813 61.266 257.967 60.9127C257.121 60.5534 256.352 59.9923 255.669 59.2263C254.811 58.2791 254.143 57.139 253.674 55.803C253.205 54.4669 252.97 53.0536 252.97 51.5602C252.97 50.4676 253.113 49.4908 253.395 48.6386C253.68 47.7835 254.098 47.071 254.651 46.5009C255.12 46.0199 255.678 45.6725 256.322 45.4588C256.967 45.242 257.819 45.1352 258.873 45.1352H260.93L261.782 48.8554H259.318C258.309 48.8554 257.584 49.087 257.151 49.5501C256.72 50.0133 256.503 50.7793 256.503 51.8482C256.503 53.6741 256.969 55.1201 257.902 56.183C258.834 57.2429 260.111 57.7744 261.732 57.7744H261.999L261.105 61.4501H260.927V61.4471ZM238.27 45.1352H241.821V57.4627H246.406L245.5 61.4471H238.273V45.1352H238.27ZM233.484 45.1352H235.607L236.412 48.8108H233.719C232.43 48.8108 231.406 49.1048 230.649 49.6956C229.895 50.2865 229.322 51.2306 228.939 52.5311H232.312V48.4605H235.88V61.4471H232.312V56.2958H228.582C228.618 57.1836 228.749 58.0565 228.974 58.9145C229.2 59.7696 229.521 60.6128 229.936 61.4471L227.119 63.7363C226.412 62.3972 225.881 61.0493 225.527 59.7013C225.174 58.3504 224.996 56.9906 224.996 55.6129C224.996 54.0572 225.207 52.5964 225.625 51.2277C226.047 49.8589 226.638 48.701 227.407 47.7568C228.119 46.872 228.98 46.2159 229.978 45.7824C230.981 45.3519 232.148 45.1352 233.484 45.1352ZM213.167 48.4605H216.629V57.7269H219.099C219.426 57.7269 219.669 57.6497 219.83 57.4983C219.99 57.3469 220.07 57.1242 220.07 56.8243C220.07 56.2068 219.794 55.5654 219.242 54.9004C218.692 54.2323 217.846 53.5198 216.715 52.7686C217.713 51.9758 218.431 51.3316 218.865 50.8298C219.301 50.334 219.518 49.9153 219.518 49.5828C219.518 49.3156 219.438 49.1196 219.28 48.9949C219.12 48.8702 218.865 48.8079 218.517 48.8079H212.544L213.348 45.1322H219.179C220.575 45.1322 221.623 45.438 222.333 46.0466C223.036 46.6553 223.392 47.5609 223.392 48.7604C223.392 49.4789 223.256 50.1439 222.983 50.7615C222.713 51.3791 222.282 51.9848 221.694 52.5786C222.439 53.2199 223.012 53.9503 223.407 54.7579C223.802 55.5684 223.998 56.4116 223.998 57.2845C223.998 58.0446 223.873 58.7126 223.624 59.2886C223.375 59.8676 223.007 60.3337 222.517 60.693C222.151 60.9632 221.676 61.1591 221.088 61.272C220.501 61.3848 219.559 61.4442 218.265 61.4442H213.17V48.4605H213.167ZM205.391 44.9362C207.452 44.9362 208.966 45.4499 209.931 46.4742C210.896 47.4985 211.383 49.1077 211.383 51.2989C211.383 52.8191 211.19 54.3006 210.801 55.7465C210.412 57.1895 209.874 58.4365 209.189 59.4935C208.666 60.2922 208.09 60.8919 207.463 61.2809C206.837 61.6728 206.145 61.8687 205.391 61.8687C204.628 61.8687 203.927 61.6698 203.298 61.2779C202.669 60.883 202.092 60.2862 201.57 59.4935C200.881 58.4365 200.341 57.1925 199.955 55.7495C199.569 54.3125 199.376 52.825 199.376 51.2989C199.376 49.1167 199.86 47.5074 200.834 46.4772C201.807 45.4499 203.325 44.9362 205.391 44.9362ZM202.962 51.5602C202.962 52.3262 203.025 53.0892 203.152 53.8523C203.28 54.6153 203.467 55.3457 203.711 56.0494C203.936 56.6996 204.195 57.2014 204.486 57.5547C204.774 57.9021 205.076 58.0802 205.388 58.0802C205.593 58.0802 205.795 58.0001 205.997 57.8368C206.202 57.6764 206.377 57.4538 206.528 57.1776C206.929 56.4116 207.238 55.5476 207.461 54.5946C207.68 53.6355 207.79 52.6647 207.79 51.6789C207.79 50.5745 207.612 49.8025 207.256 49.3631C206.899 48.9237 206.273 48.704 205.385 48.704C204.5 48.704 203.871 48.9207 203.506 49.3542C203.147 49.7847 202.962 50.521 202.962 51.5602ZM191.597 45.1352H195.148V57.4627H199.732L198.827 61.4471H191.6V45.1352H191.597ZM186.944 61.4471C185.54 61.4471 184.338 61.2452 183.334 60.8444C182.336 60.4436 181.478 59.8231 180.772 58.9828C179.931 57.9733 179.287 56.8362 178.848 55.5654C178.405 54.2947 178.186 52.9527 178.186 51.5364C178.186 50.4468 178.328 49.4789 178.613 48.6268C178.895 47.7806 179.314 47.068 179.866 46.495C180.335 46.014 180.893 45.6666 181.541 45.4528C182.182 45.2361 183.034 45.1292 184.091 45.1292H188.289L189.124 48.8494H184.534C183.524 48.8494 182.8 49.081 182.366 49.5472C181.936 50.0133 181.719 50.7853 181.719 51.8601C181.719 53.4515 182.096 54.7757 182.85 55.8297C183.601 56.8837 184.605 57.4924 185.858 57.6557V53.8909H184.447V50.2805H189.281V61.4412H186.944V61.4471Z" fill="#939598"/>
<path d="M178.486 40.8097H348.491" stroke="#808285" stroke-width="1.49" stroke-miterlimit="2.6131" stroke-linecap="round" stroke-linejoin="round"/>
</g>
<defs>
<clipPath id="clip0_99_8">
<rect width="355" height="74" fill="white"/>
</clipPath>
</defs>
</svg>
